/* XPM */
static char *_645701632582[] = {
/* columns rows colors chars-per-pixel */
"108 116 69 1 ",
"  c black",
". c gray3",
"X c #160A0A",
"o c #101010",
"O c #181818",
"+ c #210F0F",
"@ c #300000",
"# c #2E160A",
"$ c #301000",
"% c #391A07",
"& c #3A160E",
"* c #3D1A0B",
"= c #311717",
"- c #3D1F1B",
"; c #202020",
": c #282828",
"> c gray19",
", c gray22",
"< c #481C08",
"1 c #511A07",
"2 c #401810",
"3 c #600000",
"4 c #52230E",
"5 c #4C2014",
"6 c #4C241C",
"7 c #54281C",
"8 c #6C2404",
"9 c #61220F",
"0 c #6C250C",
"q c #7A250E",
"w c #5A2F26",
"e c #653A2B",
"r c #724826",
"t c #74402C",
"y c gray25",
"u c #484848",
"i c #505050",
"p c #585858",
"a c #606060",
"s c #686868",
"d c gray44",
"f c gray47",
"g c #800000",
"h c #8C1C1C",
"j c #84280C",
"k c #8D2A0B",
"l c #9E290A",
"z c #A82A08",
"x c #95302B",
"c c #A03D38",
"v c #854E33",
"b c #805430",
"n c #8A5236",
"m c #8D5A3B",
"M c #945B3C",
"N c #8C603C",
"B c #AE514A",
"V c #986340",
"C c #9D6E4B",
"Z c #A1724F",
"A c #A57853",
"S c #B26D66",
"D c #AC825C",
"F c #AD8963",
"G c #B18E6F",
"H c #B39575",
"J c #B29A7E",
"K c #B8A288",
"L c None",
/* pixels */
"LLLLLLLLLLLLLLLLLLLLLLLLLLLLLLLLLLLLLLLLLLLLLLLLLLLLLLLLLLLLLLLLLLLLLLLLLLLLLLLLLLLLLLLLLLLLLLLLLLLLLLLLLLLL",
"LLLLLLLLLLLLLLLLLLLLLLLLLLLLLLLLLLLLLLLLLLLLLLLLLLLLLLLLLLLLLLLLLLLLLLLLLLLLLLLLLLLLLLLLLLLLLLLLLLLLLLLLLLLL",
"LLLLLLLLLLLLLLLLLLLLLLLLLLLLLLLLLLLLLLLLLLLLLLLLLLLLLLLLLLLLLLLLLLLLLLLLLLLLLLLLLLLLLLLLLLLLLLLLLLLLLLLLLLLL",
"LLLLLLLLLLLLLLLLLLLLLLLLLLLLLLLLLLLLLLLLLLLLLLLLLLLLLLLLLLLLLLLLLLLLLLLLLLLLLLLLLLLLLLLLLLLLLLLLLLLLLLLLLLLL",
"LLLLLLLLLLLLLLLLLLLLLLLLLLLLLLLLLLLLLLLLLLLLLLLLLLLLLLLLLLLLLLLLLLLLLLLLLLLLLLLLLLLLLLLLLLLLLLLLLLLLLLLLLLLL",
"LLLLLLLLLLLLLLLLLLLLLLLLLLLLLLLLLLLLLLLLLLLLLLLLLLLZCCZCnLLLLLLLLLLLLLLLLLLLLLLLLLLLLLLLLLLLLLLLLLLLLLLLLLLL",
"LLLLLLLLLLLLLLLLLLLLLLLLLLLLLLLLLLLLLLLLLLLLLLLLLDGHGFFGDmLLLLLLLLLLLLLLLLLLLLLLLLLLLLLLLLLLLLLLLLLLLLLLLLLL",
"LLLLLLLLLLLLLLLLLLLLLLLLLLLLLLLLLLLLLLLLLLLLLLLLCGDGGAAFFMeLLLLLLLLLLLLLLLLLLLLLLLLLLLLLLLLLLLLLLLLLLLLLLLLL",
"LLLLLLLLLLLLLLLLLLmmMt=LLLLLLLLLLLLLLLLLLLLLLLLLCDGAAFZVVMewLLLLLLLLLLLLLLLLLLLLLLLLLLLLLLLLLLLLLLLLLLLLLLLL",
"LLLLLLLLLLLLLLLLLmmMvtwLLLLLLLLLLLLLLLLLLLLLLLLLMZZCDHZnnVtwLLLLLLLLLLLLLLLLLLLLLLLLLLLLLLLLLLLLLLLLLLLLLLLL",
"LLLLLLLLLLLLLLLLmtee6wLLLLLLLLLLLLLLLLLLLLLLLLLeMMtmCGMevVtwwLLLLLLLLLLLLLLLLLLLLLLLLLLLLLLLLLLLLLLLLLLLLLLL",
"LLLLLLLLLLLLLLLLe6=-6wwLLLLLLLLLLLLLLLLLLLLLLLLenmvMAGZVMVVteLLLLLLLLLLLLLLLLLLLLLLLLLLLLLLLLLLLLLLLLLLLLLLL",
"LLLLLLLLLLLLLLLL=-wwvnCn=LLLLLLLLLLLLLLLLLLLLLLtMVMMnnMZZVVveLLLLLLLLLLLLLLLLLLLLLLLLLLLLLLLLLLLLLLLLLLLLLLL",
"LLLLLLLLLLLLLLLLwenCZZFMeLLLLLLLLLLLLLLLLLLLLLLnCCMMMnnMVnnveLLLLLLLLLLLLLLLLLLLLLLLLLLCCLLLLLLLLLLLLLLLLLLL",
"LLLLLLLLLLLLLLLLmCZZZveeLLLLLLLLLLLLLLLLLLLLLLLevvne66-enneewLLLLLLLLLLLLLLLLLLLLLLLLLL-CCLLLLLLLLLLLLLLLLLL",
"LLLLLLLLLLLLLLLLLCZZCe6LLLLLLLLLLLLLLLLLLLLLLLLLtwee666wee6ewLLLLLLLLLLLLLLLLLLLLLLLLLL6eCnLLLLLLLLLLLLLLLLL",
"LLLLLLLLLLLLLLLLLCZCZtLLLLLLLLLLLLLLLLLLLLLLLLLLwetnMtnne6ewwLLLLLLLLLLLLLLLLLLLLLLLCZnw6vMLLLLLLLLLLLLLLLLL",
"LLLLLLLLLLLLLLLLLmCCCveLLLLLLLLLLLLLLLLLLLLLLLLLewtncMMt666wLLLLLLLLLLLLLLLLLLLLLLLLLnCnwtmvLLLLLLLLLLLLLLLL",
"LLLLLLLLLLLLLLLLLmZZCntLLLLLLLLLLLLLLLLLLLLLLLLLLeet9xx66ewwLLLLLLLLLLLLLLLLLLLLLLLLLLMCtvmvLLLLLLLLLLLLLLLL",
"LLLLLLLLLLLLLLLLLmCZDDmLLLLLLLLLLLLLLLLLLLLLLLLLLe66--5-496LLLLLLLLLLLLLLLLLLLLLLLLLLLLCMmnvLLLLLLLLLLLLLLLL",
"LLLLLLLLLLLLLLLLLmCCCZmLLLLLLLLLLLLLLLLLLLLLLLLLLLj444-490LLLLLLLLLLLLLLLLLLLLLLLLLLLLLmMveeLLLLLLLLLLLLLLLL",
"LLLLLLLLLLLLLLLLLmCCCCmLLLLLLLLLLLLLLLLLLLLLLLLLLL2qhxhxhqLLLLLLLLLLLLLLLLLLLLLLLLLLLLLCCvwwLLLLLLLLLLLLLLLL",
"LLLLLLLLLLLLLLLLLmMCCCmeLLLLLLLLLLLLLLLLLLLLLLLLLLL*97qjqq8LLLLLLLLLLLLLLLLLLLLLLLLLLLLCCvewLLLLLLLLLLLLLLLL",
"LLLLLLLLLLLLLLLLLCDDCmveLLLLLLLLLLLLLLDDFCBBxh0LLL9g7%189<<qkknMDDDDDMLLLLLLLLLLLLLLLLCnmteLLLLLLLLLLLLLLLLL",
"LLLLLLLLLLLLLLLLLnCCCmveLLLLLLLLLLLLDFJJJJJHSZc7<$@gx7x4%98$lkBGGHHHHGDCnLLLLLLLLLLLLCCCvttLLLLLLLLLLLLLLLLL",
"LLLLLLLLLLLLLLLLLnMMMMveLLLLLLLLLLLCFJJJJGGCBMZBx<q4*q9#98q3kxMAGGGGGAFDDDMnLLLLLLLLLCMmnttLLLLLLLLLLLLLLLLL",
"LLLLLLLLLLLLLLLLLLnnvnveLLLLLLLLDGGKJHFGJGCAMZZmcmkk7q1&qkkxccZMZAAGFAGGGHHHGDZmLLLLLMnteteLLLLLLLLLLLLLLLLL",
"LLLLLLLLLLLLLLLLLLttvmveLLLLLGKKHHGGFAAFJHGFAmCCBkzzzkjllxxBSFAZMZAMnMFAFFFGHJJHHGCMCmtw6eeLLLLLLLLLLLLLLLLL",
"LLLLLLLLLLLLLLLLLLevvtteeLLGKKJAZVCZCntMFHHGHGGGFzBFFCAzBmBSSFDAZZn-eMZMVZZAGGHKJKFFVe6-6ewLLLLLLLLLLLLLLLLL",
"LLLLLLLLLLLLLLLLLLweetttmGKJHGAZMtew6e6-vAAFHHHHHSFDFCAAAFGGGGGGFAe=6wtteMVVFGAFHGFAte--6ewLLLLLLLLLLLLLLLLL",
"LLLLLLLLLLLLLLLLLLw66eetCHHGDZVnnnte-===6vAGGGHHHKGFABAFFFGGGGGGAn-=++=6wtvnMVVVZVFVe6--wewLLLLLLLLLLLLLLLLL",
"LLLLLLLLLLLLLLLLLL===wvMGGFZVnnteeee-+X-6emZAGGKJGGAZAFFFGGGGGGAVe-=+++++=6ww6weeettw-=6wwLLLLLLLLLLLLLLLLLL",
"LLLLLLLLLLLLLLLLLL+==6tnCDMMntte66-=LLLL+etnZAMAJKGGAFGAZFGFAZAVt-==LLLLLL-====-66666=-==LLLLLLLLLLLLLLLLLLL",
"LLLLLLLLLLLLLLLLLLL=+--nvtttewwwwLLLLLLL==tvMMMMAGGGFGGAZVVZZnMt6-=wLLLLLLLLLLLLLLLLLLLLLLLLLLLLLLLLLLLLLLLL",
"LLLLLLLLLLLLLLLLLLLL-===6-w--LLLLLLLLLLLL-etMVVVVAAFFAFAFFAZVMtt6-6=LLLLLLLLLLLLLLLLLLLLLLLLLLLLLLLLLLLLLLLL",
"LLLLLLLLLLLLLLLLLLLLLLLLLLLLLLLLLLLLLLLLLwetnVVMVAGGGAGGGGGAVVnneew=LLLLLLLLLLLLLLLLLLLLLLLLLLLLLLLLLLLLLLLL",
"LLLLLLLLLLLLLLLLLLLLLLLLLLLLLLLLLLLLLLLLLLtnmMAAAAFGGGGGGGFAAZnteewLLLLLLLLLLLLLLLLLLLLLLLLLLLLLLLLLLLLLLLLL",
"LLLLLLLLLLLLLLLLLLLLLLLLLLLLLLLLLLLLLLLLLLwnMZAZMAAFFAFDFFAZVZZMtewLLLLLLLLLLLLLLLLLLLLLLLLLLLLLLLLLLLLLLLLL",
"LLLLLLLLLLLLLLLLLLLLLLLLLLLLLLLLLLLLLLLLLLnMMmVVZAAMMnMZZVZAMnnVVtwLLLLLLLLLLLLLLLLLLLLLLLLLLLLLLLLLLLLLLLLL",
"LLLLLLLLLLLLLLLLLLLLLLLLLLLLLLLLLLLLLLLLLLLMnnZAAZZZVZZFAZVZZZMtttwLLLLLLLLLLLLLLLLLLLLLLLLLLLLLLLLLLLLLLLLL",
"LLLLLLLLLLLLLLLLLLLLLLLLLLLLLLLLLLLLLLLLLLLnMVZAZZFAAFGFAFAVVAZne6=LLLLLLLLLLLLLLLLLLLLLLLLLLLLLLLLLLLLLLLLL",
"LLLLLLLLLLLLLLLLLLLLLLLLLLLLLLLLLLLLLLLLLLLwCMMMAAFFFAAAAAAZMMMMtwLLLLLLLLLLLLLLLLLLLLLLLLLLLLLLLLLLLLLLLLLL",
"LLLLLLLLLLLLLLLLLLLLLLLLLLLLLLLLLLLLLLLLLLLnnnMVZAAFFAMMMMVVVttttwLLLLLLLLLLLLLLLLLLLLLLLLLLLLLLLLLLLLLLLLLL",
"LLLLLLLLLLLLLLLLLLLLLLLLLLLLLLLLLLLLLLLLLLLw-tMVVVVMMZVZAAZMnne6w=LLLLLLLLLLLLLLLLLLLLLLLLLLLLLLLLLLLLLLLLLL",
"LLLLLLLLLLLLLLLLLLLLLLLLLLLLLLLLLLLLLLLLLLLLwtnMVAFFFDZFGFAAMMeewLLLLLLLLLLLLLLLLLLLLLLLLLLLLLLLLLLLLLLLLLLL",
"LLLLLLLLLLLLLLLLLLLLLLLLLLLLLLLLLLLLLLLLLLLLmmCCZAGKHGAZFFAAAZMw=LLLLLLLLLLLLLLLLLLLLLLLLLLLLLLLLLLLLLLLLLLL",
"LLLLLLLLLLLLLLLLLLLLLLLLLLLLLLLLLLLLLLLLLLLLnmCMCZAAFAttAZZMnMVw=LLLLLLLLLLLLLLLLLLLLLLLLLLLLLLLLLLLLLLLLLLL",
"LLLLLLLLLLLLLLLLLLLLLLLLLLLLLLLLLLLLLLLLLLLLwmCCVZFAZAMMMAAAZMte-LLLLLLLLLLLLLLLLLLLLLLLLLLLLLLLLLLLLLLLLLLL",
"LLLLLLLLLLLLLLLLLLLLLLLLLLLLLLLLLLLLLLLLLLLLnmCZAAAAAAZAAAZZZMnZv-LLLLLLLLLLLLLLLLLLLLLLLLLLLLLLLLLLLLLLLLLL",
"LLLLLLLLLLLLLLLLLLLLLLLLLLLLLLLLLLLLLLLLLLLmmCMMVZZAFAAAAZMtttnsi:LLLLLLLLLLLLLLLLLLLLLLLLLLLLLLLLLLLLLLLLLL",
"LLLLLLLLLLLLLLLLLLLLLLLLLLLLLLLLLLLLLLLLLLLiiuupppiasddfdspppap,::LLLLLLLLLLLLLLLLLLLLLLLLLLLLLLLLLLLLLLLLLL",
"LLLLLLLLLLLLLLLLLLLLLLLLLLLLLLLLLLLLLLLLLLLy::;,,,,,,uuipiuaa,>:::LLLLLLLLLLLLLLLLLLLLLLLLLLLLLLLLLLLLLLLLLL",
"LLLLLLLLLLLLLLLLLLLLLLLLLLLLLLLLLLLLLLLLLLLyuupsdddssaa,,ii,>u,,,>>LLLLLLLLLLLLLLLLLLLLLLLLLLLLLLLLLLLLLLLLL",
"LLLLLLLLLLLLLLLLLLLLLLLLLLLLLLLLLLLLLLLLLLLpipasssddfdssp,i>:,i,>y:LLLLLLLLLLLLLLLLLLLLLLLLLLLLLLLLLLLLLLLLL",
"LLLLLLLLLLLLLLLLLLLLLLLLLLLLLLLLLLLLLLLLLLLuiuiiaasssssapii,,,,u,>:>LLLLLLLLLLLLLLLLLLLLLLLLLLLLLLLLLLLLLLLL",
"LLLLLLLLLLLLLLLLLLLLLLLLLLLLLLLLLLLLLLLLLLiiyuuiiaasssssaaiiii,ui,:>LLLLLLLLLLLLLLLLLLLLLLLLLLLLLLLLLLLLLLLL",
"LLLLLLLLLLLLLLLLLLLLLLLLLLLLLLLLLLLLLLLLLLuyy,,,uiaaassaaaspii,upu:,LLLLLLLLLLLLLLLLLLLLLLLLLLLLLLLLLLLLLLLL",
"LLLLLLLLLLLLLLLLLLLLLLLLLLLLLLLLLLLLLLLLLLuyy,,,uuipaai,,,u,uiu,iai:>LLLLLLLLLLLLLLLLLLLLLLLLLLLLLLLLLLLLLLL",
"LLLLLLLLLLLLLLLLLLLLLLLLLLLLLLLLLLLLLLLLLuyy,,uuuipippu:;;>,iu,,psa>>LLLLLLLLLLLLLLLLLLLLLLLLLLLLLLLLLLLLLLL",
"LLLLLLLLLLLLLLLLLLLLLLLLLLLLLLLLLLLLLLLLLu,y,,,uiiiiiiiiuuippiiii>,y:LLLLLLLLLLLLLLLLLLLLLLLLLLLLLLLLLLLLLLL",
"LLLLLLLLLLLLLLLLLLLLLLLLLLLLLLLLLLLLLLLLL,yy,>>,uuuuuu,ippppppppiuuu>LLLLLLLLLLLLLLLLLLLLLLLLLLLLLLLLLLLLLLL",
"LLLLLLLLLLLLLLLLLLLLLLLLLLLLLLLLLLLLLLLLyyup,uuipapii,::,yuuipaapasa,:LLLLLLLLLLLLLLLLLLLLLLLLLLLLLLLLLLLLLL",
"LLLLLLLLLLLLLLLLLLLLLLLLLLLLLLLLLLLLLLLLuiiiipsaaai,,,;;;,uiiassaipa,>LLLLLLLLLLLLLLLLLLLLLLLLLLLLLLLLLLLLLL",
"LLLLLLLLLLLLLLLLLLLLLLLLLLLLLLLLLLLLLLLLuipaaaaappu,>:;.:yuiupaapiupu:LLLLLLLLLLLLLLLLLLLLLLLLLLLLLLLLLLLLLL",
"LLLLLLLLLLLLLLLLLLLLLLLLLLLLLLLLLLLLLLLuyippaappiu>:;:Oo:u,uu,uiuuuiu>,LLLLLLLLLLLLLLLLLLLLLLLLLLLLLLLLLLLLL",
"LLLLLLLLLLLLLLLLLLLLLLLLLLLLLLLLLLLLLLLuyupapapi,>:;.oO.;>,u,,,,uuu,u:>LLLLLLLLLLLLLLLLLLLLLLLLLLLLLLLLLLLLL",
"LLLLLLLLLLLLLLLLLLLLLLLLLLLLLLLLLLLLLLLuippaapiu>;;o .o.O:uu,,,,,,,,,,:LLLLLLLLLLLLLLLLLLLLLLLLLLLLLLLLLLLLL",
"LLLLLLLLLLLLLLLLLLLLLLLLLLLLLLLLLLLLLLiuiaappu,>:::o..O.o:,y,>,u,,u,,,:LLLLLLLLLLLLLLLLLLLLLLLLLLLLLLLLLLLLL",
"LLLLLLLLLLLLLLLLLLLLLLLLLLLLLLLLLLLLLLuiiaaau,,,,::o  OLLoO:,y,,O:u,,u>,LLLLLLLLLLLLLLLLLLLLLLLLLLLLLLLLLLLL",
"LLLLLLLLLLLLLLLLLLLLLLLLLLLLLLLLLLLLLuipapii;;;:>:;ooLLLLL:::;;;ow>u,,:>,LLLLLLLLLLLLLLLLLLLLLLLLLLLLLLLLLLL",
"LLLLLLLLLLLLLLLLLLLLLLLLLLLLLLLLLLLLLyipsp,,;6.ooOOOLLLLLLL;:Oo.vMw,,,>,::LLLLLLLLLLLLLLLLLLLLLLLLLLLLLLLLLL",
"LLLLLLLLLLLLLLLLLLLLLLLLLLLLLLLLLLLLLuiii>;;et6...OLLLLLLLLL>oo-vCn;;:,>;LLLLLLLLLLLLLLLLLLLLLLLLLLLLLLLLLLL",
"LLLLLLLLLLLLLLLLLLLLLLLLLLLLLLLLLLLLu>>u>,;wvte=o.OLLLLLLLLL>o;6MZZv;OOoLLLLLLLLLLLLLLLLLLLLLLLLLLLLLLLLLLLL",
"LLLLLLLLLLLLLLLLLLLLLLLLLLLLLLLLLLLL>OOOtMwMnt6-=OOLLLLLLLLLLOo=CDDDMe;OLLLLLLLLLLLLLLLLLLLLLLLLLLLLLLLLLLLL",
"LLLLLLLLLLLLLLLLLLLLLLLLLLLLLLLLLLL,.enmZDFVnve6-O:LLLLLLLLLLO.=CDGDVMntLLLLLLLLLLLLLLLLLLLLLLLLLLLLLLLLLLLL",
"LLLLLLLLLLLLLLLLLLLLLLLLLLLLLLLLLLL;;MZDAAFVMvt6-OLLLLLLLLLLL.+wCGGAZVVVmLLLLLLLLLLLLLLLLLLLLLLLLLLLLLLLLLLL",
"LLLLLLLLLLLLLLLLLLLLLLLLLLLLLLLLLLLLnCZGAAAZVmt6=OLLLLLLLLLLLO=vMDGFZAAZCLLLLLLLLLLLLLLLLLLLLLLLLLLLLLLLLLLL",
"LLLLLLLLLLLLLLLLLLLLLLLLLLLLLLLLLLLLmZDGGFAZZve6XLLLLLLLLLLLLLwnMVFFVZAACLLLLLLLLLLLLLLLLLLLLLLLLLLLLLLLLLLL",
"LLLLLLLLLLLLLLLLLLLLLLLLLLLLLLLLLLLLmZGHGDCVZteLLLLLLLLLLLLLLLwwnCFHAZAACmLLLLLLLLLLLLLLLLLLLLLLLLLLLLLLLLLL",
"LLLLLLLLLLLLLLLLLLLLLLLLLLLLLLLLLLLLmDJGFCmVVveLLLLLLLLLLLLLLLLvnmDHDZZAVmLLLLLLLLLLLLLLLLLLLLLLLLLLLLLLLLLL",
"LLLLLLLLLLLLLLLLLLLLLLLLLLLLLLLLLLLLCZGFVmMVntLLLLLLLLLLLLLLLLLwnvVAAVZZVCLLLLLLLLLLLLLLLLLLLLLLLLLLLLLLLLLL",
"LLLLLLLLLLLLLLLLLLLLLLLLLLLLLLLLLLLLMDZVnnVMveLLLLLLLLLLLLLLLLLLtemZZVVZVmnLLLLLLLLLLLLLLLLLLLLLLLLLLLLLLLLL",
"LLLLLLLLLLLLLLLLLLLLLLLLLLLLLLLLLLLLnCMnvVVtteLLLLLLLLLLLLLLLLLLwetMMMCZVmmLLLLLLLLLLLLLLLLLLLLLLLLLLLLLLLLL",
"LLLLLLLLLLLLLLLLLLLLLLLLLLLLLLLLLLLwtvnetnnneLLLLLLLLLLLLLLLLLLLLwwtmCAZMnvLLLLLLLLLLLLLLLLLLLLLLLLLLLLLLLLL",
"LLLLLLLLLLLLLLLLLLLLLLLLLLLLLLLLLLLwtvvtvtnveLLLLLLLLLLLLLLLLLLLL=wevVZZMteLLLLLLLLLLLLLLLLLLLLLLLLLLLLLLLLL",
"LLLLLLLLLLLLLLLLLLLLLLLLLLLLLLLLLLLwnnmnteetLLLLLLLLLLLLLLLLLLLLLL6wtmVVnte=LLLLLLLLLLLLLLLLLLLLLLLLLLLLLLLL",
"LLLLLLLLLLLLLLLLLLLLLLLLLLLLLLLLLLLnnvnnnw6wLLLLLLLLLLLLLLLLLLLLLL=-wtntetewLLLLLLLLLLLLLLLLLLLLLLLLLLLLLLLL",
"LLLLLLLLLLLLLLLLLLLLLLLLLLLLLLLLLLLnvtettw6wLLLLLLLLLLLLLLLLLLLLLLew6weweeewLLLLLLLLLLLLLLLLLLLLLLLLLLLLLLLL",
"LLLLLLLLLLLLLLLLLLLLLLLLLLLLLLLLLLLtttw6ww6LLLLLLLLLLLLLLLLLLLLLLLte6-66wewwLLLLLLLLLLLLLLLLLLLLLLLLLLLLLLLL",
"LLLLLLLLLLLLLLLLLLLLLLLLLLLLLLLLLLLttee6666LLLLLLLLLLLLLLLLLLLLLLLweeww6eewwLLLLLLLLLLLLLLLLLLLLLLLLLLLLLLLL",
"LLLLLLLLLLLLLLLLLLLLLLLLLLLLLLLLLLLetee6666LLLLLLLLLLLLLLLLLLLLLLL-ww6wwwe6wLLLLLLLLLLLLLLLLLLLLLLLLLLLLLLLL",
"LLLLLLLLLLLLLLLLLLLLLLLLLLLLLLLLLLL-eeew66LLLLLLLLLLLLLLLLLLLLLLLL=66w6ww66wLLLLLLLLLLLLLLLLLLLLLLLLLLLLLLLL",
"LLLLLLLLLLLLLLLLLLLLLLLLLLLLLLLLLLL-ee6666LLLLLLLLLLLLLLLLLLLLLLLLL+-wwwe6wwLLLLLLLLLLLLLLLLLLLLLLLLLLLLLLLL",
"LLLLLLLLLLLLLLLLLLLLLLLLLLLLLLLLLLL-ew66-6LLLLLLLLLLLLLLLLLLLLLLLLL+-6wewewwLLLLLLLLLLLLLLLLLLLLLLLLLLLLLLLL",
"LLLLLLLLLLLLLLLLLLLLLLLLLLLLLLLLLLLweew666LLLLLLLLLLLLLLLLLLLLLLLLL=+-6weew=LLLLLLLLLLLLLLLLLLLLLLLLLLLLLLLL",
"LLLLLLLLLLLLLLLLLLLLLLLLLLLLLLLLLLL-ew666LLLLLLLLLLLLLLLLLLLLLLLLLLL-=-6eww=LLLLLLLLLLLLLLLLLLLLLLLLLLLLLLLL",
"LLLLLLLLLLLLLLLLLLLLLLLLLLLLLLLLLLLw-w666LLLLLLLLLLLLLLLLLLLLLLLLLLL=w6weww=LLLLLLLLLLLLLLLLLLLLLLLLLLLLLLLL",
"LLLLLLLLLLLLLLLLLLLLLLLLLLLLLLLLLLLweew6-LLLLLLLLLLLLLLLLLLLLLLLLLLL-=wweew=LLLLLLLLLLLLLLLLLLLLLLLLLLLLLLLL",
"LLLLLLLLLLLLLLLLLLLLLLLLLLLLLLLLLLL-eewwwLLLLLLLLLLLLLLLLLLLLLLLLLLLL=wweww=LLLLLLLLLLLLLLLLLLLLLLLLLLLLLLLL",
"LLLLLLLLLLLLLLLLLLLLLLLLLLLLLLLLLLL-eew6wLLLLLLLLLLLLLLLLLLLLLLLLLLLL=wwe6w=LLLLLLLLLLLLLLLLLLLLLLLLLLLLLLLL",
"LLLLLLLLLLLLLLLLLLLLLLLLLLLLLLLLLLLwew6weLLLLLLLLLLLLLLLLLLLLLLLLLLLLLwww6w=LLLLLLLLLLLLLLLLLLLLLLLLLLLLLLLL",
"LLLLLLLLLLLLLLLLLLLLLLLLLLLLLLLLLLL-ew66wLLLLLLLLLLLLLLLLLLLLLLLLLLLLLwetewwLLLLLLLLLLLLLLLLLLLLLLLLLLLLLLLL",
"LLLLLLLLLLLLLLLLLLLLLLLLLLLLLLLLLLLtevteewLLLLLLLLLLLLLLLLLLLLLLLLLLLLetvt6wLLLLLLLLLLLLLLLLLLLLLLLLLLLLLLLL",
"LLLLLLLLLLLLLLLLLLLLLLLLLLLLLLLLLLLCmttvneLLLLLLLLLLLLLLLLLLLLLLLLLLLwnnme6wLLLLLLLLLLLLLLLLLLLLLLLLLLLLLLLL",
"LLLLLLLLLLLLLLLLLLLLLLLLLLLLLLLLLLDDZmttneLLLLLLLLLLLLLLLLLLLLLLLLLLLMnvettwLLLLLLLLLLLLLLLLLLLLLLLLLLLLLLLL",
"LLLLLLLLLLLLLLLLLLLLLLLLLLLLLLLLLLDDDGZVtwLLLLLLLLLLLLLLLLLLLLLLLLLLLCCnMCvtwLLLLLLLLLLLLLLLLLLLLLLLLLLLLLLL",
"LLLLLLLLLLLLLLLLLLLLLLLLLLLLLLLLLZDDGGAvwwLLLLLLLLLLLLLLLLLLLLLLLLLLLDZZDGZteLLLLLLLLLLLLLLLLLLLLLLLLLLLLLLL",
"LLLLLLLLLLLLLLLLLLLLLLLLLLLLLLLLZDDFFGVn6LLLLLLLLLLLLLLLLLLLLLLLLLLLLCZDDGGZvwLLLLLLLLLLLLLLLLLLLLLLLLLLLLLL",
"LLLLLLLLLLLLLLLLLLLLLLLLLLLLLLLLZZZDDDVtwLLLLLLLLLLLLLLLLLLLLLLLLLLLLmDDDDFAVeLLLLLLLLLLLLLLLLLLLLLLLLLLLLLL",
"LLLLLLLLLLLLLLLLLLLLLLLLLLLLLLLmCMCtvZneLLLLLLLLLLLLLLLLLLLLLLLLLLLLLLCDDAAAZtwLLLLLLLLLLLLLLLLLLLLLLLLLLLLL",
"LLLLLLLLLLLLLLLLLLLLLLLLLLLLLLLwCCCvDDmwLLLLLLLLLLLLLLLLLLLLLLLLLLLLLLmZMCnMVvwLLLLLLLLLLLLLLLLLLLLLLLLLLLLL",
"LLLLLLLLLLLLLLLLLLLLLLLLLLLLLLLLwwwwMMwLLLLLLLLLLLLLLLLLLLLLLLLLLLLLLLbNrMmmvtwLLLLLLLLLLLLLLLLLLLLLLLLLLLLL",
"LLLLLLLLLLLLLLLLLLLLLLLLLLLLLLLLLLLLLLLLLLLLLLLLLLLLLLLLLLLLLLLLLLLLLLLLLLLLLLLLLLLLLLLLLLLLLLLLLLLLLLLLLLLL",
"LLLLLLLLLLLLLLLLLLLLLLLLLLLLLLLLLLLLLLLLLLLLLLLLLLLLLLLLLLLLLLLLLLLLLLLLLLLLLLLLLLLLLLLLLLLLLLLLLLLLLLLLLLLL",
"LLLLLLLLLLLLLLLLLLLLLLLLLLLLLLLLLLLLLLLLLLLLLLLLLLLLLLLLLLLLLLLLLLLLLLLLLLLLLLLLLLLLLLLLLLLLLLLLLLLLLLLLLLLL",
"LLLLLLLLLLLLLLLLLLLLLLLLLLLLLLLLLLLLLLLLLLLLLLLLLLLLLLLLLLLLLLLLLLLLLLLLLLLLLLLLLLLLLLLLLLLLLLLLLLLLLLLLLLLL"
};
