/* XPM */
static char *_644325377944[] = {
/* columns rows colors chars-per-pixel */
"108 116 50 1 ",
"  c gray3",
". c #160A0A",
"X c #101010",
"o c #181818",
"O c #210F0F",
"+ c #311717",
"@ c #3D1F1B",
"# c #202020",
"$ c #282828",
"% c gray19",
"& c gray22",
"* c #4C241C",
"= c #583C10",
"- c #6A3E1E",
"; c #5A2F26",
": c #56322A",
"> c #6A362E",
", c #653A2B",
"< c #613E2F",
"1 c #65471B",
"2 c #74402C",
"3 c #714337",
"4 c #714A37",
"5 c #7D573B",
"6 c gray25",
"7 c #484848",
"8 c #505050",
"9 c #585858",
"0 c #606060",
"q c #686868",
"w c #854E33",
"e c #805430",
"r c #8A5236",
"t c #8D5A3B",
"y c #945B3C",
"u c #8D6643",
"i c #986340",
"p c #9D6E4B",
"a c #9A6E4E",
"s c #96734A",
"d c #A1724F",
"f c #A57853",
"g c #A67E5A",
"h c #AC825C",
"j c #AD8963",
"k c #B18E6F",
"l c #B39575",
"z c #B29A7E",
"x c #B8A288",
"c c None",
/* pixels */
"cccccccccccccccccccccccccccccccccccccccccccccccccccccccccccccccccccccccccccccccccccccccccccccccccccccccccccc",
"cccccccccccccccccccccccccccccccccccccccccccccccccccccccccccccccccccccccccccccccccccccccccccccccccccccccccccc",
"cccccccccccccccccccccccccccccccccccccccccccccccccccccccccccccccccccccccccccccccccccccccccccccccccccccccccccc",
"cccccccccccccccccccccccccccccccccccccccccccccccccccccccccccccccccccccccccccccccccccccccccccccccccccccccccccc",
"cccccccccccccccccccccccccccccccccccccccccccccccccccccccccccccccccccccccccccccccccccccccccccccccccccccccccccc",
"ccccccccccccccccccccccccccccccccccccccccccccccccccccccccccccccccrrrww2,,cccccccccccccccccccccccccccccccccccc",
"ccccccccccccccccccccccccccccccccccccccccccccccccccccccccccccccyhi2,,2,;,22cccccccccccccccccccccccccccccccccc",
"ccccccccccccccccccccccccccccccccccccccccccccccccccccccccccccctjfy22ryy2,,2wccccccccccccccccccccccccccccccccc",
"ccccccccccccccccccccccccccccccccccccccccccccccccccccccccccccrddir2rryipyyr2,cccccccccccccccccccccccccccccccc",
"cccccccccccccccccccccccccccccccccccccccccccccccccccccccccccc2fdr,,w222ryyr2,cccccccccccccccccccccccccccccccc",
"ccccccccccccccccccccccccccccccccccccccccpzkhhcccccccccccccc,rddr,,,22222rrw;:ccccccccccccccccccccccccccccccc",
"cccccccccccccccccccccccccccccccccccccccc,whkkhccccccccccccyt,ifi2,rdji2,,,,;;ccccccccccccccccccccccccccccccc",
"cccccccccccccccccccccccccccccccccccccccc;;,thzkccccccccccrdy2ijf2,ydidr,,**,:ccccccccccccccccccccccccccccccc",
"cccccccccccccccccccccccccccccccccccccccc+,**rhkpcccccccccrwyiidd,rfryy2;;*,2:ccccccccccccccccccccccccccccccc",
"ccccccccccccccccccccccccccccccccccccccccc2;,2pdpcccccccccc;rrryy,2dfir2*2;,,:ccccccccccccccccccccccccccccccc",
"cccccccccccccccccccccccccccccccccccccccccc;;,wpptccccccccc**r;,2riidr,**;;**cccccccccccccccccccccccccccccccc",
"cccccccccccccccccccccccccccccccccccccccccccc,wyptccccccccc,2r,*,ryiyr,@*++@Occcccccccccccccccccccccccccccccc",
"cccccccccccccccccccccccccccccccccccccccccccc;wtypccccccccc;rr***2yirr2;*++Occccccccccccccccccccccccccccccccc",
"cccccccccccccccccccccccccccccccc2wddccccccccc,whhhcccccccc;2,*,2yyy22w,*+Occcccccccccccccccccccccccccccccccc",
"ccccccccccccccccccccccccccccccc,2;,ydcccccccc;wfkxkcccccccc**@;,ryyr22r,*ccccccccccccccccccccccccccccccccccc",
"ccccccccccccccccccccccccccccccc,,@**rhdpccccc;2rkxzkccccccccc***2yii2ypw;ccccccccccccccccccccccccccccccccccc",
"ccccccccccccccccccccccccccccccc;,*;*2pw2tccccc,tikxzzdccccccccc;yir2ydhyrccccccccccccccccccccccccccccccccccc",
"cccccccccccccccccccccccccccccccc;,,,w2,,rrcccc;,wdkxxzfccccccccyjjdyfjiydtcccccccccccccccccccccccccccccccccc",
"ccccccccccccccccccccccccccccccccc,ryfd2tpdccccc,tddkxxzkcccccctfjkkklkfphdcccccccccccccccccccccccccccccccccc",
"cccccccccccccccccccccccccccccccccc2yydiihkpcccc,wpppkxxkhccc2pfffjkkkllhhhtccccccccccccccccccccccccccccccccc",
"ccccccccccccccccccccccccccccccccccc,widfjzzktccc;2yrwhkkzkh2w2rfjjjjkklhdhdccccccccccccccccccccccccccccccccc",
"cccccccccccccccccccccccccccccccccccc;2idfjkzkkdcc;2tirijkkkfrijjffjkkkkdpddtcccccccccccccccccccccccccccccccc",
"ccccccccccccccccccccccccccccccccccccc,,2rfdfkzxkhr;;wiwyddjjfhkjffjkkkkdtydtcccccccccccccccccccccccccccccccc",
"ccccccccccccccccccccccccccccccccccccccc;*ididjlzxxd2*2yyyifjfkjjkkjhiriywydtcccccccccccccccccccccccccccccccc",
"ccccccccccccccccccccccccccccccccccccccccc;,2iifxxxzji;;2rriihkfjkjfpyiirrpppcccccccccccccccccccccccccccccccc",
"cccccccccccccccccccccccccccccccccccccccccc;*2ridjljiy,,;,rtipfkljyiidi,,rpptcccccccccccccccccccccccccccccccc",
"cccccccccccccccccccccccccccccccccccccccccccc;,2riddir;2w,@*widhr2,22,@@22tptcccccccccccccccccccccccccccccccc",
"cccccccccccccccccccccccccccccccccccccccccccccc*;*2iy2;,2ww*@@@+++@++OO*tyyytcccccccccccccccccccccccccccccccc",
"cccccccccccccccccccccccccccccccccccccccccccccccc;*;;*,**,ww*+OO+*+OOO+*rpyrrcccccccccccccccccccccccccccccccc",
"ccccccccccccccccccccccccccccccccccccccccccccccccccc*****,22;@@+*+OO++@,rrr2ccccccccccccccccccccccccccccccccc",
"ccccccccccccccccccccccccccccccccccccccccccccccccccccccc;,22;@@*@++++@*ryw,cccccccccccccccccccccccccccccccccc",
"ccccccccccccccccccccccccccccccccccccccccccccccccccccccc;22,*@@*@@+@@*2rw,;cccccccccccccccccccccccccccccccccc",
"ccccccccccccccccccccccccccccccccccccccccccccccccccccccc,ww,;****@+@@,22w,ccccccccccccccccccccccccccccccccccc",
"ccccccccccccccccccccccccccccccccccccccccccccccccccccccc;2,;,,,;;*@@,w2w2,ccccccccccccccccccccccccccccccccccc",
"ccccccccccccccccccccccccccccccccccccccccccccccccccccccc,2,**;;;*@@,rr22,;ccccccccccccccccccccccccccccccccccc",
"ccccccccccccccccccccccccccccccccccccccccccccccccccccccc:22*@@@@@@,rrrw2,cccccccccccccccccccccccccccccccccccc",
"ccccccccccccccccccccccccccccccccccccccccccccccccccccccc,2,,**@@@*r2rww,:cccccccccccccccccccccccccccccccccccc",
"ccccccccccccccccccccccccccccccccccccccccccccccccccccccc,2,****@*2rr22w,;cccccccccccccccccccccccccccccccccccc",
"ccccccccccccccccccccccccccccccccccccccccccccccccccccccc,2**@@*,rriir2wrccccccccccccccccccccccccccccccccccccc",
"ccccccccccccccccccccccccccccccccccccccccccccccccccccccc;,;*@@*2yiyr22,,ccccccccccccccccccccccccccccccccccccc",
"ccccccccccccccccccccccccccccccccccccccccccccccccccccccc,2;***22yy22222,ccccccccccccccccccccccccccccccccccccc",
"ccccccccccccccccccccccccccccccccccccccccccccccccccccccc2,*,*,r2yyrrw22;ccccccccccccccccccccccccccccccccccccc",
"cccccccccccccccccccccccccccccccccccccccccccccccccccccc;2,*,,2yiiiiit2:cccccccccccccccccccccccccccccccccccccc",
"cccccccccccccccccccccccccccccccccccccccccccccccccccccc;,,*,2yddyyyir23cccccccccccccccccccccccccccccccccccccc",
"ccccccccccccccccccccccccccccccccccccccccccccccccccccc+;,22ryyyryyr2wrrcccccccccccccccccccccccccccccccccccccc",
"ccccccccccccccccccccccccccccccccccccccccccccccccccccc,,,2yyyyy22,,,2rycccccccccccccccccccccccccccccccccccccc",
"cccccccccccccccccccccccccccccccccccccccccccccccccccc$6$%&&&7898789&&890ccccccccccccccccccccccccccccccccccccc",
"ccccccccccccccccccccccccccccccccccccccccccccccccccc<==1%%&&&&%&&%$$##$%ccccccccccccccccccccccccccccccccccccc",
"ccccccccccccccccccccccccccccccccccccccccccccccccccc11ugsuusgaaaauuee444ccccccccccccccccccccccccccccccccccccc",
"ccccccccccccccccccccccccccccccccccccccccccccccccccc15989890009889988888ccccccccccccccccccccccccccccccccccccc",
"cccccccccccccccccccccccccccccccccccccccccccccccccc11797&8qq00987&&78878ccccccccccccccccccccccccccccccccccccc",
"cccccccccccccccccccccccccccccccccccccccccccccccccc<&77&&&800997&&&&8778ccccccccccccccccccccccccccccccccccccc",
"cccccccccccccccccccccccccccccccccccccccccccccccccc-&&&&&789999&&&&&7778ccccccccccccccccccccccccccccccccccccc",
"cccccccccccccccccccccccccccccccccccccccccccccccccc-$&&&&7888907&&$$%76cccccccccccccccccccccccccccccccccccccc",
"cccccccccccccccccccccccccccccccccccccccccccccccccc#%7&&77788998&%$$%&&cccccccccccccccccccccccccccccccccccccc",
"cccccccccccccccccccccccccccccccccccccccccccccccccc$%&&&&77888887&$#%6ccccccccccccccccccccccccccccccccccccccc",
"cccccccccccccccccccccccccccccccccccccccccccccccccc$%%&77%&7888987&%&&ccccccccccccccccccccccccccccccccccccccc",
"cccccccccccccccccccccccccccccccccccccccccccccccccc$6&7887799998777&&&ccccccccccccccccccccccccccccccccccccccc",
"ccccccccccccccccccccccccccccccccccccccccccccccccc%&808987898777%&66$cccccccccccccccccccccccccccccccccccccccc",
"ccccccccccccccccccccccccccccccccccccccccccccccccc%909788&7877&7&&&7ccccccccccccccccccccccccccccccccccccccccc",
"cccccccccccccccccccccccccccccccccccccccccccccccc$&097887777777&&6&cccccccccccccccccccccccccccccccccccccccccc",
"cccccccccccccccccccccccccccccccccccccccccccccccc$9097888988877&$%ccccccccccccccccccccccccccccccccccccccccccc",
"ccccccccccccccccccccccccccccccccccccccccccccccc$&80987909877776$cccccccccccccccccccccccccccccccccccccccccccc",
"ccccccccccccccccccccccccccccccccccccccccccccccc%89989899877&&6&ccccccccccccccccccccccccccccccccccccccccccccc",
"cccccccccccccccccccccccccccccccccccccccccccccc$&909998908&&7&&%ccccccccccccccccccccccccccccccccccccccccccccc",
"ccccccccccccccccccccccccccccccccccccccccccccc#%8900099987&&&%%cccccccccccccccccccccccccccccccccccccccccccccc",
"ccccccccccccccccccccccccccccccccccccccccccccoo&8009q999876&%%%cccccccccccccccccccccccccccccccccccccccccccccc",
"ccccccccccccccccccccccccccccccccccccccccccc%%67&078878897&%$%ccccccccccccccccccccccccccccccccccccccccccccccc",
"cccccccccccccccccccccccccccccccccccccccccccc$&67&%&&77897%$$cccccccccccccccccccccccccccccccccccccccccccccccc",
"ccccccccccccccccccccccccccccccccccccccccccccc#X#&7777888&%%%cccccccccccccccccccccccccccccccccccccccccccccccc",
"cccccccccccccccccccccccccccccccccccccccccccccc@;y2#%7886$%$ccccccccccccccccccccccccccccccccccccccccccccccccc",
"cccccccccccccccccccccccccccccccccccccccccccccc*2yy,##%$o#o#ccccccccccccccccccccccccccccccccccccccccccccccccc",
"ccccccccccccccccccccccccccccccccccccccccccccc3,dfdptw*,2$ occccccccccccccccccccccccccccccccccccccccccccccccc",
"ccccccccccccccccccccccccccccccccccccccccccccc3wffddjkpw2+ccccccccccccccccccccccccccccccccccccccccccccccccccc",
"cccccccccccccccccccccccccccccccccccccccccccc34djfdpdhyw;.ccccccccccccccccccccccccccccccccccccccccccccccccccc",
"cccccccccccccccccccccccccccccccccccccccccccc>wfjhpyidw,@cccccccccccccccccccccccccccccccccccccccccccccccccccc",
"cccccccccccccccccccccccccccccccccccccccccccc>2hkhipdy2*Occcccccccccccccccccccccccccccccccccccccccccccccccccc",
"cccccccccccccccccccccccccccccccccccccccccccc;,djfyyytp,ccccccccccccccccccccccccccccccccccccccccccccccccccccc",
"cccccccccccccccccccccccccccccccccccccccccccc;;riyyw2phhtcccccccccccccccccccccccccccccccccccccccccccccccccccc",
"ccccccccccccccccccccccccccccccccccccccccccccc;;yi22djkjhtccccccccccccccccccccccccccccccccccccccccccccccccccc",
"ccccccccccccccccccccccccccccccccccccccccccccc;*,ir2yjjkjhtcccccccccccccccccccccccccccccccccccccccccccccccccc",
"cccccccccccccccccccccccccccccccccccccccccccccc;;iyrrihhdhfcccccccccccccccccccccccccccccccccccccccccccccccccc",
"ccccccccccccccccccccccccccccccccccccccccccccccc;wiiypdhddhpccccccccccccccccccccccccccccccccccccccccccccccccc",
"ccccccccccccccccccccccccccccccccccccccccccccccc**2rridpihhdtcccccccccccccccccccccccccccccccccccccccccccccccc",
"cccccccccccccccccccccccccccccccccccccccccccccccc;,rwyppddddtcccccccccccccccccccccccccccccccccccccccccccccccc",
"ccccccccccccccccccccccccccccccccccccccccccccccccc*,rwyiipypptccccccccccccccccccccccccccccccccccccccccccccccc",
"ccccccccccccccccccccccccccccccccccccccccccccccccc;*,,2ryippptccccccccccccccccccccccccccccccccccccccccccccccc",
"cccccccccccccccccccccccccccccccccccccccccccccccccc;;,2riidppptcccccccccccccccccccccccccccccccccccccccccccccc",
"ccccccccccccccccccccccccccccccccccccccccccccccccccc;;,22yipddtcccccccccccccccccccccccccccccccccccccccccccccc",
"cccccccccccccccccccccccccccccccccccccccccccccccccccc;*,2riipdpcccccccccccccccccccccccccccccccccccccccccccccc",
"ccccccccccccccccccccccccccccccccccccccccccccccccccccc;*,2rphddtccccccccccccccccccccccccccccccccccccccccccccc",
"cccccccccccccccccccccccccccccccccccccccccccccccccccccc;*,2rdpdpccccccccccccccccccccccccccccccccccccccccccccc",
"ccccccccccccccccccccccccccccccccccccccccccccccccccccccc;,2ripyptcccccccccccccccccccccccccccccccccccccccccccc",
"cccccccccccccccccccccccccccccccccccccccccccccccccccccccc;,2rypptrccccccccccccccccccccccccccccccccccccccccccc",
"ccccccccccccccccccccccccccccccccccccccccccccccccccccccccc*,2ryhht4cccccccccccccccccccccccccccccccccccccccccc",
"cccccccccccccccccccccccccccccccccccccccccccccccccccccccccc;222rhdtrccccccccccccccccccccccccccccccccccccccccc",
"ccccccccccccccccccccccccccccccccccccccccccccccccccccccccccc;,22wjprrcccccccccccccccccccccccccccccccccccccccc",
"cccccccccccccccccccccccccccccccccccccccccccccccccccccccccccc2,,2dhyyrccccccccccccccccccccccccccccccccccccccc",
"cccccccccccccccccccccccccccccccccccccccccccccccccccccccccccc;2rddkdrptcccccccccccccccccccccccccccccccccccccc",
"ccccccccccccccccccccccccccccccccccccccccccccccccccccccccccccc2fjkkjhddpccccccccccccccccccccccccccccccccccccc",
"ccccccccccccccccccccccccccccccccccccccccccccccccccccccccccccc2djjjkkhdpccccccccccccccccccccccccccccccccccccc",
"cccccccccccccccccccccccccccccccccccccccccccccccccccccccccccc;ijkkfhjdprccccccccccccccccccccccccccccccccccccc",
"ccccccccccccccccccccccccccccccccccccccccccccccccccccccccccc2dfkklhhdprcccccccccccccccccccccccccccccccccccccc",
"ccccccccccccccccccccccccccccccccccccccccccccccccccccccccccwdjkkkhdyw;ccccccccccccccccccccccccccccccccccccccc",
"cccccccccccccccccccccccccccccccccccccccccccccccccccccccccpdhllkppr;ccccccccccccccccccccccccccccccccccccccccc",
"cccccccccccccccccccccccccccccccccccccccccccccccccccccccwpiifytr++ccccccccccccccccccccccccccccccccccccccccccc",
"ccccccccccccccccccccccccccccccccccccccccccccccccccccccrww;;;@@cccccccccccccccccccccccccccccccccccccccccccccc",
"cccccccccccccccccccccccccccccccccccccccccccccccccccccccccccccccccccccccccccccccccccccccccccccccccccccccccccc",
"cccccccccccccccccccccccccccccccccccccccccccccccccccccccccccccccccccccccccccccccccccccccccccccccccccccccccccc",
"cccccccccccccccccccccccccccccccccccccccccccccccccccccccccccccccccccccccccccccccccccccccccccccccccccccccccccc",
"cccccccccccccccccccccccccccccccccccccccccccccccccccccccccccccccccccccccccccccccccccccccccccccccccccccccccccc"
};
