/* XPM */
static char *_645701639317[] = {
/* columns rows colors chars-per-pixel */
"108 116 71 1 ",
"  c black",
". c gray3",
"X c #160A0A",
"o c #101010",
"O c #181818",
"+ c #210F0F",
"@ c #300000",
"# c #301000",
"$ c #391A07",
"% c #3D1A0B",
"& c #2C1414",
"* c #311717",
"= c #381C18",
"- c #3D1F1B",
"; c #392607",
": c #202020",
"> c #282828",
", c gray19",
"< c gray22",
"1 c #480000",
"2 c #481C08",
"3 c #511A07",
"4 c #401810",
"5 c #600000",
"6 c #52230E",
"7 c #4C2014",
"8 c #4C241C",
"9 c #6C2404",
"0 c #61220F",
"q c #6C250C",
"w c #7A250E",
"e c #452723",
"r c #5A2F26",
"t c #653A2B",
"y c #74402C",
"u c gray25",
"i c #484848",
"p c #505050",
"a c #585858",
"s c #606060",
"d c #686868",
"f c gray44",
"g c gray47",
"h c #800000",
"j c #980000",
"k c #8C1C1C",
"l c #B00000",
"z c #84280C",
"x c #8D2A0B",
"c c #9E290A",
"v c #A82A08",
"b c #95302B",
"n c #A03D38",
"m c #854E33",
"M c #8A5236",
"N c #8D5A3B",
"B c #945B3C",
"V c #86524A",
"C c #AE514A",
"Z c #986340",
"A c #9D6E4B",
"S c #A1724F",
"D c #A57853",
"F c #B26D66",
"G c #AC825C",
"H c #AD8963",
"J c #B18E6F",
"K c #B39575",
"L c #B29A7E",
"P c #B8A288",
"I c None",
/* pixels */
"IIIIIIIIIIIIIIIIIIIIIIIIIIIIIIIIIIIIIIIIIIIIIIIIIIIIIIIIIIIIIIIIIIIIIIIIIIIIIIIIIIIIIIIIIIIIIIIIIIIIIIIIIIII",
"IIIIIIIIIIIIIIIIIIIIIIIIIIIIIIIIIIIIIIIIIIIIIIIIIIIIIIIIIIIIIIIIIIIIIIIIIIIIIIIIIIIIIIIIIIIIIIIIIIIIIIIIIIII",
"IIIIIIIIIIIIIIIIIIIIIIIIIIIIIIIIIIIIIIIIIIIIIIIIIIIIIIIIIIIIIIIIIIIIIIIIIIIIIIIIIIIIIIIIIIIIIIIIIIIIIIIIIIII",
"IIIIIIIIIIIIIIIIIIIIIIIIIIIIIIIIIIIIIIIIIIIIIIIIIIIIIIIIIIIIIIIIIIIIIIIIIIIIIIIIIIIIIIIIIIIIIIIIIIIIIIIIIIII",
"IIIIIIIIIIIIIIIIIIIIIIIIIIIIIIIIIIIIIIIIIIIIIIIIIIIIIIIIIIIIIIIIIIIIIIIIIIIIIIIIIIIIIIIIIIIIIIIIIIIIIIIIIIII",
"IIIIIIIIIIIIIIIIIIIIIIIIIIIIIIIIIIIIIIIIIIIIIIIIIIIIISADGSmIIIIIIIIIIIIIIIIIIIIIIIIIIIIIIIIIIIIIIIIIIIIIIIII",
"IIIIIIIIIIIIIIIIIIIIIIIIIIIIIIIIIIIIIIIIIIIIIIIIIIIGJJHDDHDmIIIIIIIIIIIIIIIIIIIIIIIIIIIIIIIIIIIIIIIIIIIIIIII",
"IIIIIIIIIIIIIIIIIIIIIIIIIIIIIIIIIIIIIIIIIIIIIIIIIISGKJJDDDSMrIIIIIIIIIIIIIIIIIIIIIIIIIIIIIIIIIIIIIIIIIIIIIII",
"IIIIIIIIIIIIIIIIIIIIIIIIIIIIIIIIIIIIIIIIIIIIIIIIIIAGGDHHZZZZt8IIIIIIIIIIIIIIIIIIIIIIIIIIIIIIIIIIIIIIIIIIIIII",
"IIIIIIIIIIIIIIIIIIIIIIIIIIIIIIIIIIIIIIIIIIIIIIIIIIBAAAGJBmNAy8IIIIIIIIIIIIIIIIIIIIIIIIIIIIIIIIIIIIIIIIIIIIII",
"IIIIIIIIIIIIIIIIIIIIIIIIIIIIIIIIIIIIIIIIIIIIIIIIItMBtNSDMtyZM8rIIIIIIIIIIIIIIIIIIIIIIIIIIIIIIIIIIIIIIIIIIIII",
"IIIIIIIIIIIIIIIIIIIIIIIIIIIIIIIIIIIIIIIIIIIIIIIIIyMMmZDJSBMBBytIIIIIIIIIIIIIIIIIIIIIIIIIIIIIIIIIIIIIIIIIIIII",
"IIIIIIIIIIIIIIIIIIIIIIIIIIIIIIIIIIIIIIIIIIIIIIIIIMAZZBmMBSZBZmtIIIIIIIIIIIIIIIIIIIIIIIIIIIIIIIIIIIIIIIIIIIII",
"IIIIIIIIIIIIIIIIIIIIIIIIIIIIIIIIIIIIIIIIIIIIIIIIIMBAMZByMBZBMttIIIIIIIIIIIIIIIIIIIIIIIIIIIIIIIIIIIIIIIIIIIII",
"IIIIIIIIIIIIIIIIIIIIIIIIIIIIIIIIIIIIIIIIIIIIIIIIIymyy8---ryBMBmIIIIIIIIIIIIIIIIIIIIIIIIIIIIIIIIIIIIIIIIIIIII",
"IIIIIIIIIIIIIIIIIIIIIIIIIIIIIIIIIIIIIIIIIIIIIIIIItr8t00q08tSKJJAmIIIIIIIIIIIIIIIIIIIIIIIIIIIIIIIIIIIIIIIIIII",
"IIIIIIIIIIIIIIIIIIIIIIIIIIIIIIIIIIIIIIIIIIIIDJJJSy88yMBMMy8yKPJJHSyIIIIIIIIIIIIIIIIIIIIIIIIIIIIIIIIIIIIIIIII",
"IIIIIIIIIIIIIIIIIIIIIIIIIIIIIIIIIIIIIIIIIISGGGSSSy8-tMmmcy88tZKLLLLKBIIIIIIIIIIIIIIIIIIIIIIIIIIIIIIIIIIIIIII",
"IIIIIIIIIIIIIIIIIIIIIIIIIIIIIIIIIIIIIIIIISJJHLKHBItrtr6xxr77rryASHJKKmIIIIIIIIIIIIIIIIIIIIIIIIIIIIIIIIIIIIII",
"IIIIIIIIIIIIIIIIIIIIIIIIIIIIIIIIIIIIIIIIAGJLJHBmIIttr---6619rr*rMBAHKJMIIIIIIIIIIIIIIIIIIIIIIIIIIIIIIIIIIIII",
"IIIIIIIIIIIIIIIIIIIIIIIIIIIIIIIIIIIIIIINDGHHNtr*IIII0*--6553rIIII*mBAHJAtIIIIIIIIIIIIIIIIIIIIIIIIIIIIIIIIIII",
"IIIIIIIIIIIIIIIIIIIIIIIIIIIIIIIIIIIIIINSSAmyr*IIIIII&55jjjjw3IIIII-ryNGJJAyIIIIIIIIIIIIIIIIIIIIIIIIIIIIIIIII",
"IIIIIIIIIIIIIIIIIIIIIIIIIIIIIIIIIIIIIMNMNyr88IIIIIIII%51j5hh3IIIIII-*tmAHJJDmIIIIIIIIIIIIIIIIIIIIIIIIIIIIIII",
"IIIIIIIIIIIIIIIIIIIIIIIIIIIIIIIIIIIIAGSMr8NBBMt0=III%$#@564;0jjjhcVmyrymAGJJJGmIIIIIIIIIIIIIIIIIIIIIIIIIIIII",
"IIIIIIIIIIIIIIIIIIIIIIIIIIIIIIIIIIINJHGNtGPLKKHc930&0h216211hq5jcCHJJyrtmMAGHJJDmIIIIIIIIIIIIIIIIIIIIIIIIIII",
"IIIIIIIIIIIIIIIIIIIIIIIIIIIIIIIIIISGSSNyZPLJJDBcxe3xj15621h05hjttBDJJJMrtmmNSHJJJDSIIIIIIIIIIIIIIIIIIIIIIIII",
"IIIIIIIIIIIIIIIIIIIIIIIIIIIIIIIIAJJPHNtyHLLHZt80888ww1h5500hjlbtt88yBSBy8-tymBDDDDDZIIIIIIIIIIIIIIIIIIIIIIII",
"IIIIIIIIIIIIIIIIIIIIIIIIIIIIIIIGJJJHmtrBHHJZt8888880xcjjh5jjzbCBt88888-----8rtmBZZBZmIIIIIIIIIIIIIIIIIIIIIII",
"IIIIIIIIIIIIIIIIIIIIIIIIIIIIIDGHJHSmttmSttBt8tt888tkbDxjjcvkbNHDBt88-++**8----8tyymytIIIIIIIIIIIIIIIIIIIIIII",
"IIIIIIIIIIIIIIIIIIIIIIIIIIINDGSJDByrrtyy8-8888trrMSCASbnnBnnmHJJJSy8* ++**--***-888r8IIIIIIIIIIIIIIIIIIIIIII",
"IIIIIIIIIIIIIIIIIIIIIIIIIINSSSZBmttr888-*+**8-8MDJKKHCnnBCDAAHHHHGB8+   ++**+++*-888IIIIIIIIIIIIIIIIIIIIIIII",
"IIIIIIIIIIIIIIIIIIIIIIIIINSANmmmmt8r8--*++++*-mDJPLJADNBnCHFJHHHDZm-+   +++++*--**IIIIIIIIIIIIIIIIIIIIIIIIII",
"IIIIIIIIIIIIIIIIIIIIIIIIMNBNMNNNt8888--*-I+X*tBSBSJLJHSnDDSDHHDZByt-+++++*IIIIIIIIIIIIIIIIIIIIIIIIIIIIIIIIII",
"IIIIIIIIIIIIIIIIIIIIIIIINMyBANyr8-8----IIII+*mNZMBSDDDDDDSZZZSZyMt8-**IIIIIIIIIIIIIIIIIIIIIIIIIIIIIIIIIIIIII",
"IIIIIIIIIIIIIIIIIIIIIIIINNmyyr-888888IIIIII+*mNMMMMSSDDDDDHHDBMByt8--*IIIIIIIIIIIIIIIIIIIIIIIIIIIIIIIIIIIIII",
"IIIIIIIIIIIIIIIIIIIIIIIIIr*-----8r*IIIIIIII*-ymBMBSDHKHDHJHDDSBMyyttt*IIIIIIIIIIIIIIIIIIIIIIIIIIIIIIIIIIIIII",
"IIIIIIIIIIIIIIIIIIIIIIIIII*+*-**-IIIIIIIIIIIrmMBSDSDDJHHHJJHHDDZyytrr*IIIIIIIIIIIIIIIIIIIIIIIIIIIIIIIIIIIIII",
"IIIIIIIIIIIIIIIIIIIIIIIIIIIIIIIIIIIIIIIIIIIIrMZZSBBDDDDDDSDHHZBZZZyrrIIIIIIIIIIIIIIIIIIIIIIIIIIIIIIIIIIIIIII",
"IIIIIIIIIIIIIIIIIIIIIIIIIIIIIIIIIIIIIIIIIIIIrMMMZZSDDZMyBBBBSSMMMBBtrIIIIIIIIIIIIIIIIIIIIIIIIIIIIIIIIIIIIIII",
"IIIIIIIIIIIIIIIIIIIIIIIIIIIIIIIIIIIIIIIIIIIIMMMBSSSSSBBSDHDSBBSBytyr*IIIIIIIIIIIIIIIIIIIIIIIIIIIIIIIIIIIIIII",
"IIIIIIIIIIIIIIIIIIIIIIIIIIIIIIIIIIIIIIIIIIIIryMASSZDHDDHHHDDSBBSSyt8*IIIIIIIIIIIIIIIIIIIIIIIIIIIIIIIIIIIIIII",
"IIIIIIIIIIIIIIIIIIIIIIIIIIIIIIIIIIIIIIIIIIIIrMAAMSDDHHHDDDDDSByMZByr-IIIIIIIIIIIIIIIIIIIIIIIIIIIIIIIIIIIIIII",
"IIIIIIIIIIIIIIIIIIIIIIIIIIIIIIIIIIIIIIIIIIIIIrMMBBBSDHHDBZBZZZMMMttrIIIIIIIIIIIIIIIIIIIIIIIIIIIIIIIIIIIIIIII",
"IIIIIIIIIIIIIIIIIIIIIIIIIIIIIIIIIIIIIIIIIIIIIr-yNMMZSBSBBSDDSByyt8r*IIIIIIIIIIIIIIIIIIIIIIIIIIIIIIIIIIIIIIII",
"IIIIIIIIIIIIIIIIIIIIIIIIIIIIIIIIIIIIIIIIIIIIIIrMNBZDHHHDSHHHDDBytrrIIIIIIIIIIIIIIIIIIIIIIIIIIIIIIIIIIIIIIIII",
"IIIIIIIIIIIIIIIIIIIIIIIIIIIIIIIIIIIIIIIIIIIIIIMMBSDHJLKHSSHDDDSSy8*IIIIIIIIIIIIIIIIIIIIIIIIIIIIIIIIIIIIIIIII",
"IIIIIIIIIIIIIIIIIIIIIIIIIIIIIIIIIIIIIIIIIIIIIIrMAAZSSDHDyMSZBBMBy8*IIIIIIIIIIIIIIIIIIIIIIIIIIIIIIIIIIIIIIIII",
"IIIIIIIIIIIIIIIIIIIIIIIIIIIIIIIIIIIIIIIIIIIIIIrBAZBDHSSSyZSDDDByytrIIIIIIIIIIIIIIIIIIIIIIIIIIIIIIIIIIIIIIIII",
"IIIIIIIIIIIIIIIIIIIIIIIIIIIIIIIIIIIIIIIIIIIIIIMABDDDHDDDSDDDSSSMBZyIIIIIIIIIIIIIIIIIIIIIIIIIIIIIIIIIIIIIIIII",
"IIIIIIIIIIIIIIIIIIIIIIIIIIIIIIIIIIIIIIIIIIIIINAABBSSSHHDDDDSMMyyMBytIIIIIIIIIIIIIIIIIIIIIIIIIIIIIIIIIIIIIIII",
"IIIIIIIIIIIIIIIIIIIIIIIIIIIIIIIIIIIIIIIIIIIIIppipaapasgffgfsppasp,>>IIIIIIIIIIIIIIIIIIIIIIIIIIIIIIIIIIIIIIII",
"IIIIIIIIIIIIIIIIIIIIIIIIIIIIIIIIIIIIIIIIIIIII<>>><<<<<iiipaiisp<,>,>IIIIIIIIIIIIIIIIIIIIIIIIIIIIIIIIIIIIIIII",
"IIIIIIIIIIIIIIIIIIIIIIIIIIIIIIIIIIIIIIIIIIIIIiiaadfffddsa,<pp<<i<,<>IIIIIIIIIIIIIIIIIIIIIIIIIIIIIIIIIIIIIIII",
"IIIIIIIIIIIIIIIIIIIIIIIIIIIIIIIIIIIIIIIIIIIIIppsddddgffgdsp<<:>ii,,<>IIIIIIIIIIIIIIIIIIIIIIIIIIIIIIIIIIIIIII",
"IIIIIIIIIIIIIIIIIIIIIIIIIIIIIIIIIIIIIIIIIIIIpiiipssssddddsapi,<<i<<,>IIIIIIIIIIIIIIIIIIIIIIIIIIIIIIIIIIIIIII",
"IIIIIIIIIIIIIIIIIIIIIIIIIIIIIIIIIIIIIIIIIIIIpuuiipasdssddsdspapi<ai<>,IIIIIIIIIIIIIIIIIIIIIIIIIIIIIIIIIIIIII",
"IIIIIIIIIIIIIIIIIIIIIIIIIIIIIIIIIIIIIIIIIIIIuui<<<iadssddassdapp<pp<><IIIIIIIIIIIIIIIIIIIIIIIIIIIIIIIIIIIIII",
"IIIIIIIIIIIIIIIIIIIIIIIIIIIIIIIIIIIIIIIIIIIIuu<<<<ipassai<,,i<ipi<sai><IIIIIIIIIIIIIIIIIIIIIIIIIIIIIIIIIIIII",
"IIIIIIIIIIIIIIIIIIIIIIIIIIIIIIIIIIIIIIIIIIII<<<<<ipapaap<:::,<piiisds,,IIIIIIIIIIIIIIIIIIIIIIIIIIIIIIIIIIIII",
"IIIIIIIIIIIIIIIIIIIIIIIIIIIIIIIIIIIIIIIIIIIu<u<<<ipppppppiiipapppai,<i>IIIIIIIIIIIIIIIIIIIIIIIIIIIIIIIIIIIII",
"IIIIIIIIIIIIIIIIIIIIIIIIIIIIIIIIIIIIIIIIIII<<u<>,<iiiii<<paassaaaapii<,IIIIIIIIIIIIIIIIIIIIIIIIIIIIIIIIIIIII",
"IIIIIIIIIIIIIIIIIIIIIIIIIIIIIIIIIIIIIIIIIIIiu<<<ipasapp<:><<iaaasaasda,IIIIIIIIIIIIIIIIIIIIIIIIIIIIIIIIIIIII",
"IIIIIIIIIIIIIIIIIIIIIIIIIIIIIIIIIIIIIIIIIIippasddssai<<>::>iipaddsppaa>,IIIIIIIIIIIIIIIIIIIIIIIIIIIIIIIIIIII",
"IIIIIIIIIIIIIIIIIIIIIIIIIIIIIIIIIIIIIIIIIIpipsssaaap<,,:o.uuippasaiiiau>IIIIIIIIIIIIIIIIIIIIIIIIIIIIIIIIIIII",
"IIIIIIIIIIIIIIIIIIIIIIIIIIIIIIIIIIIIIIIIIuupassaaap<,>:::o<uiiiiippiii<>IIIIIIIIIIIIIIIIIIIIIIIIIIIIIIIIIIII",
"IIIIIIIIIIIIIIIIIIIIIIIIIIIIIIIIIIIIIIIIIuiasdsapp<,>O.:O.:,<<<<<<iiiiu>IIIIIIIIIIIIIIIIIIIIIIIIIIIIIIIIIIII",
"IIIIIIIIIIIIIIIIIIIIIIIIIIIIIIIIIIIIIIIIIipassapi<,::..oo.:>i<<<<<<<<<i,,IIIIIIIIIIIIIIIIIIIIIIIIIIIIIIIIIII",
"IIIIIIIIIIIIIIIIIIIIIIIIIIIIIIIIIIIIIIIIiiasaap<<,>>:..oO O><u,<<i<ii<<>,IIIIIIIIIIIIIIIIIIIIIIIIIIIIIIIIIII",
"IIIIIIIIIIIIIIIIIIIIIIIIIIIIIIIIIIIIIIIIipassp<<,<<>:. .:I:o><u<<:o<i<<u><IIIIIIIIIIIIIIIIIIIIIIIIIIIIIIIIII",
"IIIIIIIIIIIIIIIIIIIIIIIIIIIIIIIIIIIIIIIippspa<:::,,::.oIIII,>>>OOO:><<<,>,,IIIIIIIIIIIIIIIIIIIIIIIIIIIIIIIII",
"IIIIIIIIIIIIIIIIIIIIIIIIIIIIIIIIIIIIIIiiapdii:>:.oOOO:IIIIII,>>O.OAm,i<<u<>,IIIIIIIIIIIIIIIIIIIIIIIIIIIIIIII",
"IIIIIIIIIIIIIIIIIIIIIIIIIIIIIIIIIIIIIIippsi>:,B<...o:,IIIIII>>OoO8AAyO:,<>>IIIIIIIIIIIIIIIIIIIIIIIIIIIIIIIII",
"IIIIIIIIIIIIIIIIIIIIIIIIIIIIIIIIIIIIIIi,ii<>:MZM8...OIIIIIIII<OO:rSGBt*:oO,IIIIIIIIIIIIIIIIIIIIIIIIIIIIIIIII",
"IIIIIIIIIIIIIIIIIIIIIIIIIIIIIIIIIIIIIuOOo:BtyBMy8-OoOIIIIIIII,OO.rGGGDy8:o>IIIIIIIIIIIIIIIIIIIIIIIIIIIIIIIII",
"IIIIIIIIIIIIIIIIIIIIIIIIIIIIIIIIIIIIIOOMMZSDSMMyt-OOIIIIIIIIII>.+tGJHDMB8*OIIIIIIIIIIIIIIIIIIIIIIIIIIIIIIIII",
"IIIIIIIIIIIIIIIIIIIIIIIIIIIIIIIIIIIIIO-SGDDDSBBBt--OIIIIIIIIIIO +mGHJDSSM88IIIIIIIIIIIIIIIIIIIIIIIIIIIIIIIII",
"IIIIIIIIIIIIIIIIIIIIIIIIIIIIIIIIIIIIIINSGJHHDSSm-**-IIIIIIIIIII+rMAGJDDDZtrIIIIIIIIIIIIIIIIIIIIIIIIIIIIIIIII",
"IIIIIIIIIIIIIIIIIIIIIIIIIIIIIIIIIIIIIIAGJLJGDSZrr+X*IIIIIIIIIII-MMNZDDSDSmrIIIIIIIIIIIIIIIIIIIIIIIIIIIIIIIII",
"IIIIIIIIIIIIIIIIIIIIIIIIIIIIIIIIIIIIIIAJPPJSZZM8*IIIIIIIIIIIIIIIrMmZHJDDDBr*IIIIIIIIIIIIIIIIIIIIIIIIIIIIIIII",
"IIIIIIIIIIIIIIIIIIIIIIIIIIIIIIIIIIIIIISJJLSMBZyrIIIIIIIIIIIIIIIIIMmAHLKHDBtrIIIIIIIIIIIIIIIIIIIIIIIIIIIIIIII",
"IIIIIIIIIIIIIIIIIIIIIIIIIIIIIIIIIIIIIISHHSMMZyrrIIIIIIIIIIIIIIIIIMMmZDJHDSyrIIIIIIIIIIIIIIIIIIIIIIIIIIIIIIII",
"IIIIIIIIIIIIIIIIIIIIIIIIIIIIIIIIIIIIIIAGSBmBBt8*IIIIIIIIIIIIIIIIIMmyBZDDSSmr*IIIIIIIIIIIIIIIIIIIIIIIIIIIIIII",
"IIIIIIIIIIIIIIIIIIIIIIIIIIIIIIIIIIIIIMBSMyMZy8r*IIIIIIIIIIIIIIIIIIytyZSSSSMrrIIIIIIIIIIIIIIIIIIIIIIIIIIIIIII",
"IIIIIIIIIIIIIIIIIIIIIIIIIIIIIIIIIIIIIrmMttMNyyrIIIIIIIIIIIIIIIIIII*t8mBSDSMyrIIIIIIIIIIIIIIIIIIIIIIIIIIIIIII",
"IIIIIIIIIIIIIIIIIIIIIIIIIIIIIIIIIIIIItmyyyMMMtrIIIIIIIIIIIIIIIIIIII*rtmZSSMyrIIIIIIIIIIIIIIIIIIIIIIIIIIIIIII",
"IIIIIIIIIIIIIIIIIIIIIIIIIIIIIIIIIIIIIymMMMytyr*IIIIIIIIIIIIIIIIIIII-8ryMZZytrrIIIIIIIIIIIIIIIIIIIIIIIIIIIIII",
"IIIIIIIIIIIIIIIIIIIIIIIIIIIIIIIIIIIIIMmyMMt-8rIIIIIIIIIIIIIIIIIIIIII*8rymyttrrIIIIIIIIIIIIIIIIIIIIIIIIIIIIII",
"IIIIIIIIIIIIIIIIIIIIIIIIIIIIIIIIIIIIIMmttyr-8rIIIIIIIIIIIIIIIIIIIIII-r88trttrrIIIIIIIIIIIIIIIIIIIIIIIIIIIIII",
"IIIIIIIIIIIIIIIIIIIIIIIIIIIIIIIIIIIIIyytrrr8-IIIIIIIIIIIIIIIIIIIIIIIrt88rr8trrIIIIIIIIIIIIIIIIIIIIIIIIIIIIII",
"IIIIIIIIIIIIIIIIIIIIIIIIIIIIIIIIIIIIIytr88r88IIIIIIIIIIIIIIIIIIIIIIIrtrrrrtrrrIIIIIIIIIIIIIIIIIIIIIIIIIIIIII",
"IIIIIIIIIIIIIIIIIIIIIIIIIIIIIIIIIIIIIttttr88*IIIIIIIIIIIIIIIIIIIIIII-r88rrttrrIIIIIIIIIIIIIIIIIIIIIIIIIIIIII",
"IIIIIIIIIIIIIIIIIIIIIIIIIIIIIIIIIIIIIttr8888rIIIIIIIIIIIIIIIIIIIIIII-888rrrr8rIIIIIIIIIIIIIIIIIIIIIIIIIIIIII",
"IIIIIIIIIIIIIIIIIIIIIIIIIIIIIIIIIIIIIttr88-8*IIIIIIIIIIIIIIIIIIIIIIII+8rttt8rrIIIIIIIIIIIIIIIIIIIIIIIIIIIIII",
"IIIIIIIIIIIIIIIIIIIIIIIIIIIIIIIIIIIII-rr8--8IIIIIIIIIIIIIIIIIIIIIIIII+-88rrrrrIIIIIIIIIIIIIIIIIIIIIIIIIIIIII",
"IIIIIIIIIIIIIIIIIIIIIIIIIIIIIIIIIIIII-rr88-rIIIIIIIIIIIIIIIIIIIIIIIII*--8rttrrIIIIIIIIIIIIIIIIIIIIIIIIIIIIII",
"IIIIIIIIIIIIIIIIIIIIIIIIIIIIIIIIIIIII*r88-8IIIIIIIIIIIIIIIIIIIIIIIIIII*-*8rrr*IIIIIIIIIIIIIIIIIIIIIIIIIIIIII",
"IIIIIIIIIIIIIIIIIIIIIIIIIIIIIIIIIIIII-tr888IIIIIIIIIIIIIIIIIIIIIIIIIII**-rrtrrIIIIIIIIIIIIIIIIIIIIIIIIIIIIII",
"IIIIIIIIIIIIIIIIIIIIIIIIIIIIIIIIIIIII-ttr88IIIIIIIIIIIIIIIIIIIIIIIIIII-rrttrrrIIIIIIIIIIIIIIIIIIIIIIIIIIIIII",
"IIIIIIIIIIIIIIIIIIIIIIIIIIIIIIIIIIIII-tt88rIIIIIIIIIIIIIIIIIIIIIIIIIIII*rrt8rrIIIIIIIIIIIIIIIIIIIIIIIIIIIIII",
"IIIIIIIIIIIIIIIIIIIIIIIIIIIIIIIIIIIII*tr8rrIIIIIIIIIIIIIIIIIIIIIIIIIIII*rrtrrrIIIIIIIIIIIIIIIIIIIIIIIIIIIIII",
"IIIIIIIIIIIIIIIIIIIIIIIIIIIIIIIIIIIII-t88rrIIIIIIIIIIIIIIIIIIIIIIIIIIIIIrrrtrrIIIIIIIIIIIIIIIIIIIIIIIIIIIIII",
"IIIIIIIIIIIIIIIIIIIIIIIIIIIIIIIIIIIIItt88rrIIIIIIIIIIIIIIIIIIIIIIIIIIIIIrryyrrIIIIIIIIIIIIIIIIIIIIIIIIIIIIII",
"IIIIIIIIIIIIIIIIIIIIIIIIIIIIIIIIIIIIIyymttt*IIIIIIIIIIIIIIIIIIIIIIIIIIII*tmy8rIIIIIIIIIIIIIIIIIIIIIIIIIIIIII",
"IIIIIIIIIIIIIIIIIIIIIIIIIIIIIIIIIIIIIByyymmrIIIIIIIIIIIIIIIIIIIIIIIIIII-rBNy8rIIIIIIIIIIIIIIIIIIIIIIIIIIIIII",
"IIIIIIIIIIIIIIIIIIIIIIIIIIIIIIIIIIIIGGANyyyrIIIIIIIIIIIIIIIIIIIIIIIIIIIrymymytIIIIIIIIIIIIIIIIIIIIIIIIIIIIII",
"IIIIIIIIIIIIIIIIIIIIIIIIIIIIIIIIIIIIGJKGAMtrIIIIIIIIIIIIIIIIIIIIIIIIIIIMBBBGNmrIIIIIIIIIIIIIIIIIIIIIIIIIIIII",
"IIIIIIIIIIIIIIIIIIIIIIIIIIIIIIIIIIIGGHHGBt8rIIIIIIIIIIIIIIIIIIIIIIIIIIIMSSHJDBtIIIIIIIIIIIIIIIIIIIIIIIIIIIII",
"IIIIIIIIIIIIIIIIIIIIIIIIIIIIIIIIIIGGHJHSBm8IIIIIIIIIIIIIIIIIIIIIIIIIIIIrSGSJGDZtIIIIIIIIIIIIIIIIIIIIIIIIIIII",
"IIIIIIIIIIIIIIIIIIIIIIIIIIIIIIIIIIASSSGAmr*IIIIIIIIIIIIIIIIIIIIIIIIIIIIMASSJHDSyIIIIIIIIIIIIIIIIIIIIIIIIIIII",
"IIIIIIIIIIIIIIIIIIIIIIIIIIIIIIIIIAAAmtSAtrIIIIIIIIIIIIIIIIIIIIIIIIIIIIIINSSGSDDNrIIIIIIIIIIIIIIIIIIIIIIIIIII",
"IIIIIIIIIIIIIIIIIIIIIIIIIIIIIIIIIMAAMAJAtrIIIIIIIIIIIIIIIIIIIIIIIIIIIIIIMSmAMMBNrIIIIIIIIIIIIIIIIIIIIIIIIIII",
"IIIIIIIIIIIIIIIIIIIIIIIIIIIIIIIIIIrMrMNr-IIIIIIIIIIIIIIIIIIIIIIIIIIIIIIINDMBANNmrIIIIIIIIIIIIIIIIIIIIIIIIIII",
"IIIIIIIIIIIIIIIIIIIIIIIIIIIIIIIIIIIIIIIIIIIIIIIIIIIIIIIIIIIIIIIIIIIIIIIIIIIIIIIIIIIIIIIIIIIIIIIIIIIIIIIIIIII",
"IIIIIIIIIIIIIIIIIIIIIIIIIIIIIIIIIIIIIIIIIIIIIIIIIIIIIIIIIIIIIIIIIIIIIIIIIIIIIIIIIIIIIIIIIIIIIIIIIIIIIIIIIIII",
"IIIIIIIIIIIIIIIIIIIIIIIIIIIIIIIIIIIIIIIIIIIIIIIIIIIIIIIIIIIIIIIIIIIIIIIIIIIIIIIIIIIIIIIIIIIIIIIIIIIIIIIIIIII",
"IIIIIIIIIIIIIIIIIIIIIIIIIIIIIIIIIIIIIIIIIIIIIIIIIIIIIIIIIIIIIIIIIIIIIIIIIIIIIIIIIIIIIIIIIIIIIIIIIIIIIIIIIIII"
};
