/* XPM */
static char *_644325650493[] = {
/* columns rows colors chars-per-pixel */
"108 116 52 1 ",
"  c black",
". c gray3",
"X c #160A0A",
"o c #101010",
"O c #181818",
"+ c #210F0F",
"@ c #311717",
"# c #3D1F1B",
"$ c #202020",
"% c #282828",
"& c gray19",
"* c gray22",
"= c #4C241C",
"- c #583C10",
"; c #5A2F26",
": c #5C2C24",
"> c #56322A",
", c #6A362E",
"< c #653A2B",
"1 c #613E2F",
"2 c #65471B",
"3 c #74402C",
"4 c #714A37",
"5 c #7D573B",
"6 c gray25",
"7 c #484848",
"8 c #505050",
"9 c #585858",
"0 c #606060",
"q c #686868",
"w c gray44",
"e c gray47",
"r c #854E33",
"t c #805430",
"y c #8A5236",
"u c #8D5A3B",
"i c #945B3C",
"p c #8D6643",
"a c #986340",
"s c #9D6E4B",
"d c #9A6E4E",
"f c #96734A",
"g c #A1724F",
"h c #A57853",
"j c #A67E5A",
"k c #AC825C",
"l c #AD8963",
"z c #B18E6F",
"x c #B39575",
"c c #B29A7E",
"v c #B8A288",
"b c None",
/* pixels */
"bbbbbbbbbbbbbbbbbbbbbbbbbbbbbbbbbbbbbbbbbbbbbbbbbbbbbbbbbbbbbbbbbbbbbbbbbbbbbbbbbbbbbbbbbbbbbbbbbbbbbbbbbbbb",
"bbbbbbbbbbbbbbbbbbbbbbbbbbbbbbbbbbbbbbbbbbbbbbbbbbbbbbbbbbbbbbbbbbbbbbbbbbbbbbbbbbbbbbbbbbbbbbbbbbbbbbbbbbbb",
"bbbbbbbbbbbbbbbbbbbbbbbbbbbbbbbbbbbbbbbbbbbbbbbbbbbbbbbbbbbbbbbbbbbbbbbbbbbbbbbbbbbbbbbbbbbbbbbbbbbbbbbbbbbb",
"bbbbbbbbbbbbbbbbbbbbbbbbbbbbbbbbbbbbbbbbbbbbbbbbbbbbbbbbbbbbbbbbbbbbbbbbbbbbbbbbbbbbbbbbbbbbbbbbbbbbbbbbbbbb",
"bbbbbbbbbbbbbbbbbbbbbbbbbbbbbbbbbbbbbbbbbbbbbbbbbbbbbbbbbbbbbbbbbbbbbbbbbbbbbbbbbbbbbbbbbbbbbbbbbbbbbbbbbbbb",
"bbbbbbbbbbbbbbbbbbbbbbbbbbbbbbbbbbbbbbbbbbbbbbbbbbbbruiiir3bbbbbbbbbbbbbbbbbbbbbbbbbbbbbbbbbbbbbbbbbbbbbbbbb",
"bbbbbbbbbbbbbbbbbbbbbbbbbbbbbbbbbbbbbbbbbbbbbbbbbbiiiaayy3<3<bbbbbbbbbbbbbbbbbbbbbbbbbbbbbbbbbbbbbbbbbbbbbbb",
"bbbbbbbbbbbbbbbbbbbbbbbbbbbbbbbbbbbbbbbbbbbbbbbbbgkkllhhy3<=;;bbbbbbbbbbbbbbbbbbbbbbbbbbbbbbbbbbbbbbbbbbbbbb",
"bbbbbbbbbbbbbbbbbbbbbbbbbbbbbbbbbbbbbbbbbbbbbbbbskklzzzhi3<==<bbbbbbbbbbbbbbbbbbbbbbbbbbbbbbbbbbbbbbbbbbbbbb",
"bbbbbbbbbbbbbbbbbbbbbbbbbbbbbbbbbbbbbbbbbbbbbbbbsgkghzzgi<===<<bbbbbbbbbbbbbbbbbbbbbbbbbbbbbbbbbbbbbbbbbbbbb",
"bbbbbbbbbbbbbbbbbbbbbbbbbbbbbbbbbbbbbbbbbbbbbbbbsggkklkhiy==;=;bbbbbbbbbbbbbbbbbbbbbbbbbbbbbbbbbbbbbbbbbbbbb",
"bbbbbbbbbbbbbbbbbbbbbbbbbbbbbbbbbbbbbbbbbbbbbbbbyysksaahay<=y3=bbbbbbbbbbbbbbbbbbbbbbbbbbbbbbbbbbbbbbbbbbbbb",
"bbbbbbbbbbbbbbbbbbbbbbbbbbbbbbbbbbbbbbbbbbbbbbbb;<sarrigha3=33=bbbbbbbbbbbbbbbbbbbbbbbbbbbbbbbbbbbbbbbbbbbbb",
"bbbbbbbbbbbbbbbbbbbbbbbbbbbbbbbbbbbbbbbbbbbbbbbb;<ga3;3ahgi<y<=bbbbbbbbbbbbbbbbbbbbbbbbbbbbbbbbbbbbbbbbbbbbb",
"bbbbbbbbbbbbbbbbbbbbbbbbbbbbbbbbbbbbbbbbbbbbbbbb;3kgiayaggy<i==bbbbbbbbbbbbbbbbbbbbbbbbbbbbbbbbbbbbbbbbbbbbb",
"bbbbbbbbbbbbbbbbbbbbbbbbbbbbbbbbbbbbbbbbbbbbbbbb;<yiiaiyiy<<<==bbbbbbbbbbbbbbbbbbbbbbbbbbbbbbbbbbbbbbbbbbbbb",
"bbbbbbbbbbbbbbbbbbbbbbbbbbbbbbbbbbbbbbbbbbbbbbbb#<<3iyuy3;;<==;bbbbbbbbbbbbbbbbbbbbbbbbbbbbbbbbbbbbbbbbbbbbb",
"bbbbbbbbbbbbbbbbbbbbbbbbbbbbbbbbbbbbbbbbbbbbbbbbb=@#==<<==;==;bbbbbbbbbbbbbbbbbbbbbbbbbbbbbbbbbbbbbbbbbbbbbb",
"bbbbbbbbbbbbbbbbbbbbbbbbbbbbbbbbbbbbbbbbbbbbbbbbb@<;<<<#=<;==bbbbbbbbbbbbbbbbbbbbbbbbbbbbbbbbbbbbbbbbbbbbbbb",
"bbbbbbbbbbbbbbbbbbbbbbbbbbbbbbbbbbbbbbbbbbbbbbbbbb@<33;#=;==;bbbbbbbbbbbbbbbbbbbbbbbbbbbbbbbbbbbbbbbbbbbbbbb",
"bbbbbbbbbbbbbbbbbbbbbbbbbbbbbbbbbbbbbbbbbbbbbbbbbb@#r3<===#;;bbbbbbbbbbbbbbbbbbbbbbbbbbbbbbbbbbbbbbbbbbbbbbb",
"bbbbbbbbbbbbbbbbbbbbbbbbbbbbbbbbbbbbbbbbbbbbbbbbbbb@===#=;;=;bbbbbbbbbbbbbbbbbbbbbbbbbbbbbbbbbbbbbbbbbbbbbbb",
"bbbbbbbbbbbbbbbbbbbbbbbbbbbbbbbbbbbbbbbbbbbbbbbbbbbb@+@##yiy3bbbbbbbbbbbbbbbbbbbbbbbbbbbbbbbbbbbbbbbbbbbbbbb",
"bbbbbbbbbbbbbbbbbbbbbbbbbbbbbbbbbbbbbbbbbbbbbbbbbbb@=#@<iagyy4bbbbbbbbbbbbbbbbbbbbbbbbbbbbbbbbbbbbbbbbbbbbbb",
"bbbbbbbbbbbbbbbbbbbbbbbbbbbbbbbbbbbbbbbbbkzcczhaasgy3iyiyghhghllkzzxxzzbbbbbbbbbbbbbbbbbbbbbbbbbbbbbbbbbbbbb",
"bbbbbbbbbbbbbbbbbbbbbbbbbbbbbbbbbbbbbbbgzcvczzlhhhhhllhgghzlhhhaaghlzzlhhbbbbbbbbbbbbbbbbbbbbbbbbbbbbbbbbbbb",
"bbbbbbbbbbbbbbbbbbbbbbbbbbbbbbbbbbbbbbgzzxcxxxlgiiiahlkzczlhaiiiiiigghhhhhbbbbbbbbbbbbbbbbbbbbbbbbbbbbbbbbbb",
"bbbbbbbbbbbbbbbbbbbbbbbbbbbbbbbbbbbbbgzvzlcxzzhggglhgaalzlhhgghhhgiiaghhllgbbbbbbbbbbbbbbbbbbbbbbbbbbbbbbbbb",
"bbbbbbbbbbbbbbbbbbbbbbbbbbbbbbbbbbbbgkvzllzzlkhhhlzxzhhhlhhhhhhlhhiyruhlzzhibbbbbbbbbbbbbbbbbbbbbbbbbbbbbbbb",
"bbbbbbbbbbbbbbbbbbbbbbbbbbbbbbbbbbhkkcclauussslzzxxzzzlllhhlzxzzhhgu<;uhzzlzrbbbbbbbbbbbbbbbbbbbbbbbbbbbbbbb",
"bbbbbbbbbbbbbbbbbbbbbbbbbbbbbbbbbgklzczhr;=<yixccvxzzlllzllzzzzzllhu<@<igzzzubbbbbbbbbbbbbbbbbbbbbbbbbbbbbbb",
"bbbbbbbbbbbbbbbbbbbbbbbbbbbbbbbbskglccza<#+=rilccccczlhhhlllzzzzzzka;+#rgzzlh3bbbbbbbbbbbbbbbbbbbbbbbbbbbbbb",
"bbbbbbbbbbbbbbbbbbbbbbbbbbbbbbbukkzxcxh<#=##<yglxvcczzlggglllllzzzhy#++3ixzzlibbbbbbbbbbbbbbbbbbbbbbbbbbbbbb",
"bbbbbbbbbbbbbbbbbbbbbbbbbbbbbbukkhhczg3#@bb@@raghlzzzhhagghlhllllgy<@##;izxzhg3bbbbbbbbbbbbbbbbbbbbbbbbbbbbb",
"bbbbbbbbbbbbbbbbbbbbbbbbbbbbbukghhlhgy=@bbbb@<raiihlhggaaiiihlkgay<#@bb@ygvxlhibbbbbbbbbbbbbbbbbbbbbbbbbbbbb",
"bbbbbbbbbbbbbbbbbbbbbbbbbbbbukkzkhhi3<=bbbbb#<3yiyiggaaiaiiyyyy33<=#=bb#;slllha<bbbbbbbbbbbbbbbbbbbbbbbbbbbb",
"bbbbbbbbbbbbbbbbbbbbbbbbbbbukzzhhga3;;bbbbbbb;<ryy33yiaaaiyaai3333<#=bbb;igllhgrbbbbbbbbbbbbbbbbbbbbbbbbbbbb",
"bbbbbbbbbbbbbbbbbbbbbbbbbbukkczhga3==bbbbbbbb><33yyyiaiiiggghgiiy3<==bbb;igzzlhg3bbbbbbbbbbbbbbbbbbbbbbbbbbb",
"bbbbbbbbbbbbbbbbbbbbbbbbbukzzcxki<==bbbbbbbbb>3riaiiaagggaghlhhgaayy;bbbbugkllhhrbbbbbbbbbbbbbbbbbbbbbbbbbbb",
"bbbbbbbbbbbbbbbbbbbbbbbbbgzzczha3;=bbbbbbbbbb>3uiaiyiaaaiayaggii3iiy<bbbbbuggzzzhrbbbbbbbbbbbbbbbbbbbbbbbbbb",
"bbbbbbbbbbbbbbbbbbbbbbbbykzxlair=;bbbbbbbbbbb,rr33yiaa3<<333yiai3<==;bbbbb;iglzlhg<bbbbbbbbbbbbbbbbbbbbbbbbb",
"bbbbbbbbbbbbbbbbbbbbbbbbukzzhg3<;bbbbbbbbbbbbb<ruiaai333yigi3y3iii<;;bbbbbb;sgklhhybbbbbbbbbbbbbbbbbbbbbbbbb",
"bbbbbbbbbbbbbbbbbbbbbbbbukzxzzi<;bbbbbbbbbbbbb>yyiiiygiihhgggi3yii3<;bbbbbbb;gkzhhg<bbbbbbbbbbbbbbbbbbbbbbbb",
"bbbbbbbbbbbbbbbbbbbbbbbbugkkzzh<<bbbbbbbbbbbbbbyrryighhhgiaiaai3<<=;bbbbbbbb;szxllh3bbbbbbbbbbbbbbbbbbbbbbbb",
"bbbbbbbbbbbbbbbbbbbbbbbbuskkxcli<bbbbbbbbbbbbbb,<ryyigggyy3<333<;#;;bbbbbbbbbuzczlh3bbbbbbbbbbbbbbbbbbbbbbbb",
"bbbbbbbbbbbbbbbbbbbbbbbb;sggxzzg3bbbbbbbbbbbbbb:<33<3yyyy3iaaay3<==@bbbbbbbbbukzzhg3bbbbbbbbbbbbbbbbbbbbbbbb",
"bbbbbbbbbbbbbbbbbbbbbbbbbugsgczlrbbbbbbbbbbbbbb>3ruiahhhgglzlhhgi<;@bbbbbbbbb;gkzlgrbbbbbbbbbbbbbbbbbbbbbbbb",
"bbbbbbbbbbbbbbbbbbbbbbbbbbugslzlhiy@bbbbbbbbbbb;yiighlzcliyhgii3<;==bbbbbbbbbyhzczarbbbbbbbbbbbbbbbbbbbbbbbb",
"bbbbbbbbbbbbbbbbbbbbbbbbbbb;sglzzzlkrbbbbbbbbbb;yiiaaiiai=<yyy3<<ir;bbbbbbbbbbkzcli3bbbbbbbbbbbbbbbbbbbbbbbb",
"bbbbbbbbbbbbbbbbbbbbbbbbbbbbugkzzaikl3bbbbbbbbb4554555yyyyahgiiy3yy3@bbbbbbbbbkzzhi<bbbbbbbbbbbbbbbbbbbbbbbb",
"bbbbbbbbbbbbbbbbbbbbbbbbbbbbyggszzi<aibbbbbbbb11433344444445333ia3<=<bbbbbbbhzkkzgi;bbbbbbbbbbbbbbbbbbbbbbbb",
"bbbbbbbbbbbbbbbbbbbbbbbbbbbbygssglxi;<bbbbbbbb767*78789qwqw088pp*%$&%bbbbbbby3iklhy=bbbbbbbbbbbbbbbbbbbbbbbb",
"bbbbbbbbbbbbbbbbbbbbbbbbbbbbbuyuaghh3bbbbbbbbb&%$%&*******775pp111112bbbbbbbbbgzkg3;bbbbbbbbbbbbbbbbbbbbbbbb",
"bbbbbbbbbbbbbbbbbbbbbbbbbbbbbb3yuii3bbbbbbbbbbppppdjjjffdp55at-15*&&%&bbbbbbbzza333;bbbbbbbbbbbbbbbbbbbbbbbb",
"bbbbbbbbbbbbbbbbbbbbbbbbbbbbbbb33<3bbbbbbbbbbb78990qq0eqqq0811$&11&%%%bbbbbbbkki3i3;bbbbbbbbbbbbbbbbbbbbbbbb",
"bbbbbbbbbbbbbbbbbbbbbbbbbbbbbbbbbbbbbbbbbbbbb766779000qqq00951&*7p5*6%bbbbbbbusyrr<;bbbbbbbbbbbbbbbbbbbbbbbb",
"bbbbbbbbbbbbbbbbbbbbbbbbbbbbbbbbbbbbbbbbbbbbb7*6*7899000000fpp87*5p**%bbbbbbb;3r3<;bbbbbbbbbbbbbbbbbbbbbbbbb",
"bbbbbbbbbbbbbbbbbbbbbbbbbbbbbbbbbbbbbbbbbbbbb6*6****8989q985pp7775p5*%&bbbbbbb@@<;bbbbbbbbbbbbbbbbbbbbbbbbbb",
"bbbbbbbbbbbbbbbbbbbbbbbbbbbbbbbbbbbbbbbbbbbbb**7***788997&*$2&*7*1pp7*&bbbbbbbbbbbbbbbbbbbbbbbbbbbbbbbbbbbbb",
"bbbbbbbbbbbbbbbbbbbbbbbbbbbbbbbbbbbbbbbbbbbbb&%&**7798887&%$%777*7df08%bbbbbbbbbbbbbbbbbbbbbbbbbbbbbbbbbbbbb",
"bbbbbbbbbbbbbbbbbbbbbbbbbbbbbbbbbbbbbbbbbbbb6&&&&*788877777790988811*8*%bbbbbbbbbbbbbbbbbbbbbbbbbbbbbbbbbbbb",
"bbbbbbbbbbbbbbbbbbbbbbbbbbbbbbbbbbbbbbbbbbbb***&&&*77**7**8888899887807%bbbbbbbbbbbbbbbbbbbbbbbbbbbbbbbbbbbb",
"bbbbbbbbbbbbbbbbbbbbbbbbbbbbbbbbbbbbbbbbbbbb667***790887&$$&**78009999*%bbbbbbbbbbbbbbbbbbbbbbbbbbbbbbbbbbbb",
"bbbbbbbbbbbbbbbbbbbbbbbbbbbbbbbbbbbbbbbbbbbb6779009097**%$O$67880097*77%bbbbbbbbbbbbbbbbbbbbbbbbbbbbbbbbbbbb",
"bbbbbbbbbbbbbbbbbbbbbbbbbbbbbbbbbbbbbbbbbbb7678000887**&$oO677778977*77%&bbbbbbbbbbbbbbbbbbbbbbbbbbbbbbbbbbb",
"bbbbbbbbbbbbbbbbbbbbbbbbbbbbbbbbbbbbbbbbbbb6789098997*%$$oO**77**777***%&bbbbbbbbbbbbbbbbbbbbbbbbbbbbbbbbbbb",
"bbbbbbbbbbbbbbbbbbbbbbbbbbbbbbbbbbbbbbbbbbb678000987*%$.Oo.O************%bbbbbbbbbbbbbbbbbbbbbbbbbbbbbbbbbbb",
"bbbbbbbbbbbbbbbbbbbbbbbbbbbbbbbbbbbbbbbbbb768000987*%$O .oo$%6**********&&bbbbbbbbbbbbbbbbbbbbbbbbbbbbbbbbbb",
"bbbbbbbbbbbbbbbbbbbbbbbbbbbbbbbbbbbbbbbbbb78989987*&$$o  OOO$*6&**&&****%%bbbbbbbbbbbbbbbbbbbbbbbbbbbbbbbbbb",
"bbbbbbbbbbbbbbbbbbbbbbbbbbbbbbbbbbbbbbbbbb7898987*&%$$o.obbb$&$$6&O%***&6&%bbbbbbbbbbbbbbbbbbbbbbbbbbbbbbbbb",
"bbbbbbbbbbbbbbbbbbbbbbbbbbbbbbbbbbbbbbbbbb88889***&%$$oObbbbb%OO$O3u$**&&6&%bbbbbbbbbbbbbbbbbbbbbbbbbbbbbbbb",
"bbbbbbbbbbbbbbbbbbbbbbbbbbbbbbbbbbbbbbbbb788978&O$&*%$$&bbbbb%O..Oig3$$$$%$$&bbbbbbbbbbbbbbbbbbbbbbbbbbbbbbb",
"bbbbbbbbbbbbbbbbbbbbbbbbbbbbbbbbbbbbbbbbb7897&*$$oO&$o$bbbbbbboO$<sga<Oo..bbbbbbbbbbbbbbbbbbbbbbbbbbbbbbbbbb",
"bbbbbbbbbbbbbbbbbbbbbbbbbbbbbbbbbbbbbbbbb778$%%$r;..oOObbbbbbbb%%=ikkg3=#+bbbbbbbbbbbbbbbbbbbbbbbbbbbbbbbbbb",
"bbbbbbbbbbbbbbbbbbbbbbbbbbbbbbbbbbbbbbbb7$o.O3#<sr@.oO%bbbbbbbbO+@iklzgy<@+bbbbbbbbbbbbbbbbbbbbbbbbbbbbbbbbb",
"bbbbbbbbbbbbbbbbbbbbbbbbbbbbbbbbbbbbbbbb$  .r3#ya3=#.Obbbbbbbbb+ #slxlaai=@bbbbbbbbbbbbbbbbbbbbbbbbbbbbbbbbb",
"bbbbbbbbbbbbbbbbbbbbbbbbbbbbbbbbbbbbbbb%o.Oyg<=a3<=#oObbbbbbbbbX@<skzhgga<=bbbbbbbbbbbbbbbbbbbbbbbbbbbbbbbbb",
"bbbbbbbbbbbbbbbbbbbbbbbbbbbbbbbbbbbbbbbbbb;siyiayy<#@$bbbbbbbbbb;yuallgga3;bbbbbbbbbbbbbbbbbbbbbbbbbbbbbbbbb",
"bbbbbbbbbbbbbbbbbbbbbbbbbbbbbbbbbbbbbbbbbbysshhiii3#@=bbbbbbbbbbbyrilzgghy;bbbbbbbbbbbbbbbbbbbbbbbbbbbbbbbbb",
"bbbbbbbbbbbbbbbbbbbbbbbbbbbbbbbbbbbbbbbbbyiszhghai3=#bbbbbbbbbbbbyyilzlhhy;bbbbbbbbbbbbbbbbbbbbbbbbbbbbbbbbb",
"bbbbbbbbbbbbbbbbbbbbbbbbbbbbbbbbbbbbbbbbbyigxlhgay<;bbbbbbbbbbbbb;yughlhhi<bbbbbbbbbbbbbbbbbbbbbbbbbbbbbbbbb",
"bbbbbbbbbbbbbbbbbbbbbbbbbbbbbbbbbbbbbbbbbyikczha3i<;bbbbbbbbbbbbbbyriahlhg3;bbbbbbbbbbbbbbbbbbbbbbbbbbbbbbbb",
"bbbbbbbbbbbbbbbbbbbbbbbbbbbbbbbbbbbbbbbbbyskczsy33<;bbbbbbbbbbbbbb3<rigzzhu;bbbbbbbbbbbbbbbbbbbbbbbbbbbbbbbb",
"bbbbbbbbbbbbbbbbbbbbbbbbbbbbbbbbbbbbbbbbbyskkgiyi<=bbbbbbbbbbbbbbb;<<yallhi;bbbbbbbbbbbbbbbbbbbbbbbbbbbbbbbb",
"bbbbbbbbbbbbbbbbbbbbbbbbbbbbbbbbbbbbbbbbbyssgiry3;;bbbbbbbbbbbbbbb;<;3iaggy;bbbbbbbbbbbbbbbbbbbbbbbbbbbbbbbb",
"bbbbbbbbbbbbbbbbbbbbbbbbbbbbbbbbbbbbbbbbb;ysirry;=;bbbbbbbbbbbbbbbb;;;ryaa3<;bbbbbbbbbbbbbbbbbbbbbbbbbbbbbbb",
"bbbbbbbbbbbbbbbbbbbbbbbbbbbbbbbbbbbbbbbbb;3y3;333<;bbbbbbbbbbbbbbbb;<;3yy3<<;bbbbbbbbbbbbbbbbbbbbbbbbbbbbbbb",
"bbbbbbbbbbbbbbbbbbbbbbbbbbbbbbbbbbbbbbbbb;<3<<3<r<;bbbbbbbbbbbbbbbbyy<;;<<<<;bbbbbbbbbbbbbbbbbbbbbbbbbbbbbbb",
"bbbbbbbbbbbbbbbbbbbbbbbbbbbbbbbbbbbbbbbbb;3r3y3<<;;bbbbbbbbbbbbbbbbuir<<<<<<=bbbbbbbbbbbbbbbbbbbbbbbbbbbbbbb",
"bbbbbbbbbbbbbbbbbbbbbbbbbbbbbbbbbbbbbbbbbyrruy3<==@bbbbbbbbbbbbbbbbyiuy<<<<3;bbbbbbbbbbbbbbbbbbbbbbbbbbbbbbb",
"bbbbbbbbbbbbbbbbbbbbbbbbbbbbbbbbbbbbbbbbbyrr3y3;=;bbbbbbbbbbbbbbbbb;yr33<<<<=bbbbbbbbbbbbbbbbbbbbbbbbbbbbbbb",
"bbbbbbbbbbbbbbbbbbbbbbbbbbbbbbbbbbbbbbbbb3r3;;;===bbbbbbbbbbbbbbbbbb;333<=<<;bbbbbbbbbbbbbbbbbbbbbbbbbbbbbbb",
"bbbbbbbbbbbbbbbbbbbbbbbbbbbbbbbbbbbbbbbbb<33<<<;=;bbbbbbbbbbbbbbbbbb#<33333<;bbbbbbbbbbbbbbbbbbbbbbbbbbbbbbb",
"bbbbbbbbbbbbbbbbbbbbbbbbbbbbbbbbbbbbbbbbb<33<<;=;;bbbbbbbbbbbbbbbbbb#<<3333<;bbbbbbbbbbbbbbbbbbbbbbbbbbbbbbb",
"bbbbbbbbbbbbbbbbbbbbbbbbbbbbbbbbbbbbbbbbb#<<<====bbbbbbbbbbbbbbbbbbbb;<333r3;bbbbbbbbbbbbbbbbbbbbbbbbbbbbbbb",
"bbbbbbbbbbbbbbbbbbbbbbbbbbbbbbbbbbbbbbbbb#<<;;=#=bbbbbbbbbbbbbbbbbbbb<;<<3r<=bbbbbbbbbbbbbbbbbbbbbbbbbbbbbbb",
"bbbbbbbbbbbbbbbbbbbbbbbbbbbbbbbbbbbbbbbbbb<<<==#;bbbbbbbbbbbbbbbbbbbb;<;<rr3;bbbbbbbbbbbbbbbbbbbbbbbbbbbbbbb",
"bbbbbbbbbbbbbbbbbbbbbbbbbbbbbbbbbbbbbbbbbb#<;===;bbbbbbbbbbbbbbbbbbbbb333rr<;bbbbbbbbbbbbbbbbbbbbbbbbbbbbbbb",
"bbbbbbbbbbbbbbbbbbbbbbbbbbbbbbbbbbbbbbbbbb@<;;==@bbbbbbbbbbbbbbbbbbbbb;3ruy<;bbbbbbbbbbbbbbbbbbbbbbbbbbbbbbb",
"bbbbbbbbbbbbbbbbbbbbbbbbbbbbbbbbbbbbbbbbbb#<;===bbbbbbbbbbbbbbbbbbbbbb;3rry<;bbbbbbbbbbbbbbbbbbbbbbbbbbbbbbb",
"bbbbbbbbbbbbbbbbbbbbbbbbbbbbbbbbbbbbbbbbbb<<<===bbbbbbbbbbbbbbbbbbbbbb;3ruy<;bbbbbbbbbbbbbbbbbbbbbbbbbbbbbbb",
"bbbbbbbbbbbbbbbbbbbbbbbbbbbbbbbbbbbbbbbbbb#<<;;;bbbbbbbbbbbbbbbbbbbbbb;3rrr<;bbbbbbbbbbbbbbbbbbbbbbbbbbbbbbb",
"bbbbbbbbbbbbbbbbbbbbbbbbbbbbbbbbbbbbbbbbbb<<;;=;bbbbbbbbbbbbbbbbbbbbbb;yrrr<;bbbbbbbbbbbbbbbbbbbbbbbbbbbbbbb",
"bbbbbbbbbbbbbbbbbbbbbbbbbbbbbbbbbbbbbbbbbb<<<<;;bbbbbbbbbbbbbbbbbbbbbb;yriy3;bbbbbbbbbbbbbbbbbbbbbbbbbbbbbbb",
"bbbbbbbbbbbbbbbbbbbbbbbbbbbbbbbbbbbbbbbbbb<<;=;;bbbbbbbbbbbbbbbbbbbbbb;yysa3;bbbbbbbbbbbbbbbbbbbbbbbbbbbbbbb",
"bbbbbbbbbbbbbbbbbbbbbbbbbbbbbbbbbbbbbbbbby;<3<<<bbbbbbbbbbbbbbbbbbbbbb;yssg3;bbbbbbbbbbbbbbbbbbbbbbbbbbbbbbb",
"bbbbbbbbbbbbbbbbbbbbbbbbbbbbbbbbbbbbbbbbugy<<3yibbbbbbbbbbbbbbbbbbbbbb;yi3<<;;bbbbbbbbbbbbbbbbbbbbbbbbbbbbbb",
"bbbbbbbbbbbbbbbbbbbbbbbbbbbbbbbbbbbbbbbbsggkir3ybbbbbbbbbbbbbbbbbbbbbbysgssgs<@bbbbbbbbbbbbbbbbbbbbbbbbbbbbb",
"bbbbbbbbbbbbbbbbbbbbbbbbbbbbbbbbbbbbbbbusssggi<;bbbbbbbbbbbbbbbbbbbbbbyugkkkkgr<bbbbbbbbbbbbbbbbbbbbbbbbbbbb",
"bbbbbbbbbbbbbbbbbbbbbbbbbbbbbbbbbbbbbbugssrssy3=bbbbbbbbbbbbbbbbbbbbbb;yggkkgsgarbbbbbbbbbbbbbbbbbbbbbbbbbbb",
"bbbbbbbbbbbbbbbbbbbbbbbbbbbbbbbbbbbbbb#ryyssr3=bbbbbbbbbbbbbbbbbbbbbbbbyyyiahsaagubbbbbbbbbbbbbbbbbbbbbbbbbb",
"bbbbbbbbbbbbbbbbbbbbbbbbbbbbbbbbbbbbbbb@@###@;bbbbbbbbbbbbbbbbbbbbbbbbbb<<3;=====;bbbbbbbbbbbbbbbbbbbbbbbbbb",
"bbbbbbbbbbbbbbbbbbbbbbbbbbbbbbbbbbbbbbbbbbbbbbbbbbbbbbbbbbbbbbbbbbbbbbbbbbbbbbbbbbbbbbbbbbbbbbbbbbbbbbbbbbbb",
"bbbbbbbbbbbbbbbbbbbbbbbbbbbbbbbbbbbbbbbbbbbbbbbbbbbbbbbbbbbbbbbbbbbbbbbbbbbbbbbbbbbbbbbbbbbbbbbbbbbbbbbbbbbb",
"bbbbbbbbbbbbbbbbbbbbbbbbbbbbbbbbbbbbbbbbbbbbbbbbbbbbbbbbbbbbbbbbbbbbbbbbbbbbbbbbbbbbbbbbbbbbbbbbbbbbbbbbbbbb",
"bbbbbbbbbbbbbbbbbbbbbbbbbbbbbbbbbbbbbbbbbbbbbbbbbbbbbbbbbbbbbbbbbbbbbbbbbbbbbbbbbbbbbbbbbbbbbbbbbbbbbbbbbbbb"
};
