/* XPM */
static char *_644325613764[] = {
/* columns rows colors chars-per-pixel */
"108 116 67 1 ",
"  c black",
". c gray3",
"X c #160A0A",
"o c #101010",
"O c #181818",
"+ c #210F0F",
"@ c #311717",
"# c #3D1F1B",
"$ c #202020",
"% c #282828",
"& c gray19",
"* c gray22",
"= c #480000",
"- c #481C08",
"; c #511A07",
": c #401810",
"> c #600000",
", c #52230E",
"< c #4C241C",
"1 c #61220F",
"2 c #6C250C",
"3 c #7A250E",
"4 c #6A3E1E",
"5 c #5A2F26",
"6 c #653A2B",
"7 c #724826",
"8 c #74402C",
"9 c #714A37",
"0 c #7D573B",
"q c gray25",
"w c #484848",
"e c #505050",
"r c #585858",
"t c #606060",
"y c #686868",
"u c gray44",
"i c gray47",
"p c #800000",
"a c #980000",
"s c #8C1C1C",
"d c #B00000",
"f c #84280C",
"g c #8D2A0B",
"h c #9E290A",
"j c #95302B",
"k c #A03D38",
"l c #854E33",
"z c #805430",
"x c #8A5236",
"c c #8D5A3B",
"v c #945B3C",
"b c #8C603C",
"n c #86524A",
"m c #AE514A",
"M c #986340",
"N c #9D6E4B",
"B c #9A6E4E",
"V c #A1724F",
"C c #A57853",
"Z c #B26D66",
"A c #AC825C",
"S c #AD8963",
"D c #B18E6F",
"F c #B39575",
"G c #B29A7E",
"H c #B8A288",
"J c None",
/* pixels */
"JJJJJJJJJJJJJJJJJJJJJJJJJJJJJJJJJJJJJJJJJJJJJJJJJJJJJJJJJJJJJJJJJJJJJJJJJJJJJJJJJJJJJJJJJJJJJJJJJJJJJJJJJJJJ",
"JJJJJJJJJJJJJJJJJJJJJJJJJJJJJJJJJJJJJJJJJJJJJJJJJJJJJJJJJJJJJJJJJJJJJJJJJJJJJJJJJJJJJJJJJJJJJJJJJJJJJJJJJJJJ",
"JJJJJJJJJJJJJJJJJJJJJJJJJJJJJJJJJJJJJJJJJJJJJJJJJJJJJJJJJJJJJJJJJJJJJJJJJJJJJJJJJJJJJJJJJJJJJJJJJJJJJJJJJJJJ",
"JJJJJJJJJJJJJJJJJJJJJJJJJJJJJJJJJJJJJJJJJJJJJJJJJJJJJJJJJJJJJJJJJJJJJJJJJJJJJJJJJJJJJJJJJJJJJJJJJJJJJJJJJJJJ",
"JJJJJJJJJJJJJJJJJJJJJJJJJJJJJJJJJJJJJJJJJJJJJJJJJJJJJJJJJJJJJJJJJJJJJJJJJJJJJJJJJJJJJJJJJJJJJJJJJJJJJJJJJJJJ",
"JJJJJJJJJJJJJJJJJJJJJJJJJJJJJJJJJJJJJJJJJJJJJJJJJVASDSDVlJJJJJJJJJJJJJJJJJJJJJJJJJJJJJJJJJJJJJJJJJJJJJJJJJJJ",
"JJJJJJJJJJJJJJJJJJJJJJJJJJJJJJJJJJJJJJJJJJJJJJJJCDSADCVAA8JJJJJJJJJJJJJJJJJJJJJJJJJJJJJJJJJJJJJJJJJJJJJJJJJJ",
"JJJJJJJJJJJJJJJJJJJJJJJJJJJJJJJJJJJJJJJJJJJJJJJxVVNvDVvcVc5JJJJJJJJJJJJJJJJJJJJJJJJJJJJJJJJJJJJJJJJJJJJJJJJJ",
"JJJJJJJJJJJJJJJJJJJJJJJJJJJJJJJJJJJJJJJJJJJJJJJ0VvlvDCM8vM6JJJJJJJJJJJJJJJJJJJJJJJJJJJJJJJJJJJJJJJJJJJJJJJJJ",
"JJJJJJJJJJJJJJJJJJJJJJJJJJJJJJJJJJJJJJJJJJJJJJJxvMMMMMCVvVl<JJJJJJJJJJJJJJJJJJJJJJJJJJJJJJJJJJJJJJJJJJJJJJJJ",
"JJJJJJJJJJJJJJJJJJJJJJJJJJJJJJJJJJJJJJJJJJJJJJJvNAVVMvvCVVM5JJJJJJJJJJJJJJJJJJJJJJJJJJJJJJJJJJJJJJJJJJJJJJJJ",
"JJJJJJJJJJJJJJJJJJJJJJJJJJJJJJJJJJJJJJJJJJJJJJ0NNNvj313vvMM8JJJJJJJJJJJJJJJJJJJJJJJJJJJJJJJJJJJJJJJJJJJJJJJJ",
"JJJJJJJJJJJJJJJJJJJJJJJJJJJJJJJJJJJJJJJJJJJJJJ0vcvj13318vx885JJJJJJJJJJJJJJJJJJJJJJJJJJJJJJJJJJJJJJJJJJJJJJJ",
"JJJJJJJJJJJJJJJJJJJJJJJJJJJJJJJJJJJJJJJJJJJJJJ7l3jkvvVvj66685JJJJJJJJJJJJJJJJJJJJJJJJJJJJJJJJJJJJJJJJJJJJJJJ",
"JJJJJJJJJJJJJJJJJJJJJJJJJJJJJJJJJJJJJJJJJJJJJJ4666lvVSV868j65JJJJJJJJJJJJJJJJJJJJJJJJJJJJJJJJJJJJJJJJJJJJJJJ",
"JJJJJJJJJJJJJJJJJJJJJJJJJJJJJJJJJJJJJJJJJJJJJJJ3658<6v866j3<5JJJJJJJJJJJJJJJJJJJJJJJJJJJJJJJJJJJJJJJJJJJJJJJ",
"JJJJJJJJJJJJJJJJJJJJJJJJJJJJJJJJJJJJJJJJJJJJJJJ31,xlv81<j31<@JJJJJJJJJJJJJJJJJJJJJJJJJJJJJJJJJJJJJJJJJJJJJJJ",
"JJJJJJJJJJJJJJJJJJJJJJJJJJJJJJJJJJJJJJJJJJJJJJJJs3bBSbvjf1<<JJJJJJJJJJJJJJJJJJJJJJJJJJJJJJJJJJJJJJJJJJJJJJJJ",
"JJJJJJJJJJJJJJJJJJJJJJJJJJJJJJJJJJJJJJJJJJJJJJJxvABSbcMj1-1JJJJJJJJJJJJJJJJJJJJJJJJJJJJJJJJJJJJJJJJJJJJJJJJJ",
"JJJJJJJJJJJJJJJJJJJJJJJJJJJJJJJJJJJJJJJJJJJJJJNADHHDbCmaa31JJJJJJJJJJJJJJJJJJJJJJJJJJJJJJJJJJJJJJJJJJJJJJJJJ",
"JJJJJJJJJJJJJJJJJJJJJJJJJJJJJJJJJJJJJJJJJJJJJJAAGGHFZNkdaa2JJJJJJJJJJJJJJJJJJJJJJJJJJJJJJJJJJJJJJJJJJJJJJJJJ",
"JJJJJJJJJJJJJJJJJJJJJJJJJJJJJJJJJJJJJJJJJJJJJcAAFDGCmjspaa2JJJJJJJJJJJJJJJJJJJJJJJJJJJJJJJJJJJJJJJJJJJJJJJJJ",
"JJJJJJJJJJJJJJJJJJJJJJJJJJJJJJJJJJJJJJJcVVB09cDDDCvs1>aaMccvnn090cccJJJJJJJJJJJJJJJJJJJJJJJJJJJJJJJJJJJJJJJJ",
"JJJJJJJJJJJJJJJJJJJJJJJJJJJJJJJJJJJJJAGHHHFDVVNMMx1,#amDSDFDCVCVVCSCSVJJJJJJJJJJJJJJJJJJJJJJJJJJJJJJJJJJJJJJ",
"JJJJJJJJJJJJJJJJJJJJJJJJJJJJJJJJJJJJCDGGDSSSSCv88<::>dSSDFFFDSCCVMVMCClJJJJJJJJJJJJJJJJJJJJJJJJJJJJJJJJJJJJJ",
"JJJJJJJJJJJJJJJJJJJJJJJJJJJJJJJJJJJcADDDDCCGGDC6#@:=pxvvCSSDSSDDSCCAACM6JJJJJJJJJJJJJJJJJJJJJJJJJJJJJJJJJJJJ",
"JJJJJJJJJJJJJJJJJJJJJJJJJJJJJJJJJJNAAFCMCCDHGSv##@;=>>lMvVCDDSDHGFDDCVVz8JJJJJJJJJJJJJJJJJJJJJJJJJJJJJJJJJJJ",
"JJJJJJJJJJJJJJJJJJJJJJJJJJJJJJJJJcDADDVvNDHGCv6##@;===#8xxvVCSDDGDDAVvxv6JJJJJJJJJJJJJJJJJJJJJJJJJJJJJJJJJJJ",
"JJJJJJJJJJJJJJJJJJJJJJJJJJJJJJJJNDADSVNCDGHSx6##,>====+@<<<56vMVCVVCMx8x6JJJJJJJJJJJJJJJJJJJJJJJJJJJJJJJJJJJ",
"JJJJJJJJJJJJJJJJJJJJJJJJJJJJJJJJAAASCVSFGGSx6<##,3gp>>2@#<####566888866l6JJJJJJJJJJJJJJJJJJJJJJJJJJJJJJJJJJJ",
"JJJJJJJJJJJJJJJJJJJJJJJJJJJJJJJVAVAASDGHHDx86###3ksjaap3###<###@#5665<55JJJJJJJJJJJJJJJJJJJJJJJJJJJJJJJJJJJJ",
"JJJJJJJJJJJJJJJJJJJJJJJJJJJJJJcAAASDFGDSV6<5##@5Zmckgaapa<######@@++@<@JJJJJJJJJJJJJJJJJJJJJJJJJJJJJJJJJJJJJ",
"JJJJJJJJJJJJJJJJJJJJJJJJJJJJJcAAVDDDDCM8<<<####vNCCVhaagh86#####<@@JJJJJJJJJJJJJJJJJJJJJJJJJJJJJJJJJJJJJJJJJ",
"JJJJJJJJJJJJJJJJJJJJJJJJJJJJJCAAASSVv65<65#@@@6vMMVCmmammVv6##<<#@JJJJJJJJJJJJJJJJJJJJJJJJJJJJJJJJJJJJJJJJJJ",
"JJJJJJJJJJJJJJJJJJJJJJJJJJJJJcvcvxx8<<66<#@++#lNVCSDSNmNCCCM6##<##JJJJJJJJJJJJJJJJJJJJJJJJJJJJJJJJJJJJJJJJJJ",
"JJJJJJJJJJJJJJJJJJJJJJJJJJJJJ5xl866666<JJJ+++5NVVCCSSNCSDSCVv8<#<5JJJJJJJJJJJJJJJJJJJJJJJJJJJJJJJJJJJJJJJJJJ",
"JJJJJJJJJJJJJJJJJJJJJJJJJJJJJJ5x8656<<JJJJ++<MMMMCCCVvVCSSVvvv86<5JJJJJJJJJJJJJJJJJJJJJJJJJJJJJJJJJJJJJJJJJJ",
"JJJJJJJJJJJJJJJJJJJJJJJJJJJJJJJ##@#<JJJJJJ+@6vMMVCVxljvvvVVv88vv65JJJJJJJJJJJJJJJJJJJJJJJJJJJJJJJJJJJJJJJJJJ",
"JJJJJJJJJJJJJJJJJJJJJJJJJJJJJJJJJJJJJJJJJJJ@lMVVVVMMVVCCVvvMMx8665JJJJJJJJJJJJJJJJJJJJJJJJJJJJJJJJJJJJJJJJJJ",
"JJJJJJJJJJJJJJJJJJJJJJJJJJJJJJJJJJJJJJJJJJJ#vNVvvCSCSDSCCCVvVCv855JJJJJJJJJJJJJJJJJJJJJJJJJJJJJJJJJJJJJJJJJJ",
"JJJJJJJJJJJJJJJJJJJJJJJJJJJJJJJJJJJJJJJJJJJ5NNvVCCDFSCCCCCVxvvvx66JJJJJJJJJJJJJJJJJJJJJJJJJJJJJJJJJJJJJJJJJJ",
"JJJJJJJJJJJJJJJJJJJJJJJJJJJJJJJJJJJJJJJJJJJ5lcvVVCSSCVvvvVvvx8x65@JJJJJJJJJJJJJJJJJJJJJJJJJJJJJJJJJJJJJJJJJJ",
"JJJJJJJJJJJJJJJJJJJJJJJJJJJJJJJJJJJJJJJJJJJ#6lvMvvvvVvvVVCvM88<55@JJJJJJJJJJJJJJJJJJJJJJJJJJJJJJJJJJJJJJJJJJ",
"JJJJJJJJJJJJJJJJJJJJJJJJJJJJJJJJJJJJJJJJJJJ55xvMVCCSCMCDSCCVMx6<@JJJJJJJJJJJJJJJJJJJJJJJJJJJJJJJJJJJJJJJJJJJ",
"JJJJJJJJJJJJJJJJJJJJJJJJJJJJJJJJJJJJJJJJJJJJxvvVCSDGSCVCSCCCCV65@JJJJJJJJJJJJJJJJJJJJJJJJJJJJJJJJJJJJJJJJJJJ",
"JJJJJJJJJJJJJJJJJJJJJJJJJJJJJJJJJJJJJJJJJJJJxvvMVCCCSx6VVvvxxV65#JJJJJJJJJJJJJJJJJJJJJJJJJJJJJJJJJJJJJJJJJJJ",
"JJJJJJJJJJJJJJJJJJJJJJJJJJJJJJJJJJJJJJJJJJJJxvNMVCCVCx8VCCCVxx88xJJJJJJJJJJJJJJJJJJJJJJJJJJJJJJJJJJJJJJJJJJJ",
"JJJJJJJJJJJJJJJJJJJJJJJJJJJJJJJJJJJJJJJJJJJxcNNCCCSCCCCCCCVVvxVcxJJJJJJJJJJJJJJJJJJJJJJJJJJJJJJJJJJJJJJJJJJJ",
"JJJJJJJJJJJJJJJJJJJJJJJJJJJJJJJJJJJJJJJJJJxcVvvvVVCSCCCSCvvxxxMx8JJJJJJJJJJJJJJJJJJJJJJJJJJJJJJJJJJJJJJJJJJJ",
"JJJJJJJJJJJJJJJJJJJJJJJJJJJJJJJJJJJJJJJJJJqeewrrrrtyuuuuyrertr*%%JJJJJJJJJJJJJJJJJJJJJJJJJJJJJJJJJJJJJJJJJJJ",
"JJJJJJJJJJJJJJJJJJJJJJJJJJJJJJJJJJJJJJJJJJq&$$&*&****werrwrt*&%&&&JJJJJJJJJJJJJJJJJJJJJJJJJJJJJJJJJJJJJJJJJJ",
"JJJJJJJJJJJJJJJJJJJJJJJJJJJJJJJJJJJJJJJJJJwwweruuutttr**eew&ww***%JJJJJJJJJJJJJJJJJJJJJJJJJJJJJJJJJJJJJJJJJJ",
"JJJJJJJJJJJJJJJJJJJJJJJJJJJJJJJJJJJJJJJJJJreetyyyuiiuuyt**&$*e*&*%JJJJJJJJJJJJJJJJJJJJJJJJJJJJJJJJJJJJJJJJJJ",
"JJJJJJJJJJJJJJJJJJJJJJJJJJJJJJJJJJJJJJJJJJwewertttyyyyyree****w**%&JJJJJJJJJJJJJJJJJJJJJJJJJJJJJJJJJJJJJJJJJ",
"JJJJJJJJJJJJJJJJJJJJJJJJJJJJJJJJJJJJJJJJJeeqwwerttytyyttteeee*ee*&&JJJJJJJJJJJJJJJJJJJJJJJJJJJJJJJJJJJJJJJJJ",
"JJJJJJJJJJJJJJJJJJJJJJJJJJJJJJJJJJJJJJJJJwqq***wertttytttyteew*r*&%*JJJJJJJJJJJJJJJJJJJJJJJJJJJJJJJJJJJJJJJJ",
"JJJJJJJJJJJJJJJJJJJJJJJJJJJJJJJJJJJJJJJJJwqq***wwertte***wewre*ere&&JJJJJJJJJJJJJJJJJJJJJJJJJJJJJJJJJJJJJJJJ",
"JJJJJJJJJJJJJJJJJJJJJJJJJJJJJJJJJJJJJJJJJq***wwwerrrr*$$$&*eww*ryy*%JJJJJJJJJJJJJJJJJJJJJJJJJJJJJJJJJJJJJJJJ",
"JJJJJJJJJJJJJJJJJJJJJJJJJJJJJJJJJJJJJJJJJ*q*&*weeeeeeeewwwrreeee**e%JJJJJJJJJJJJJJJJJJJJJJJJJJJJJJJJJJJJJJJJ",
"JJJJJJJJJJJJJJJJJJJJJJJJJJJJJJJJJJJJJJJJ****&&**wwwww*ertttrtrrrwweq&JJJJJJJJJJJJJJJJJJJJJJJJJJJJJJJJJJJJJJJ",
"JJJJJJJJJJJJJJJJJJJJJJJJJJJJJJJJJJJJJJJJqqq***wetree*%%*wwwerttrtyyw&JJJJJJJJJJJJJJJJJJJJJJJJJJJJJJJJJJJJJJJ",
"JJJJJJJJJJJJJJJJJJJJJJJJJJJJJJJJJJJJJJJJeeertytttr***$$$*wertuyteetq%JJJJJJJJJJJJJJJJJJJJJJJJJJJJJJJJJJJJJJJ",
"JJJJJJJJJJJJJJJJJJJJJJJJJJJJJJJJJJJJJJJweretttrrew*&%O.%qwewrttewwrw%*JJJJJJJJJJJJJJJJJJJJJJJJJJJJJJJJJJJJJJ",
"JJJJJJJJJJJJJJJJJJJJJJJJJJJJJJJJJJJJJJJqwrttrrrrw*%$$$o%q*ww*weewwww%&JJJJJJJJJJJJJJJJJJJJJJJJJJJJJJJJJJJJJJ",
"JJJJJJJJJJJJJJJJJJJJJJJJJJJJJJJJJJJJJJJqetyytrew*%$.O$oOq******wwwwwq%JJJJJJJJJJJJJJJJJJJJJJJJJJJJJJJJJJJJJJ",
"JJJJJJJJJJJJJJJJJJJJJJJJJJJJJJJJJJJJJJweertteww&$$o .o $%*w******ww**%JJJJJJJJJJJJJJJJJJJJJJJJJJJJJJJJJJJJJJ",
"JJJJJJJJJJJJJJJJJJJJJJJJJJJJJJJJJJJJJJqerrrew*&%$%o..O.o%*q*&********%&JJJJJJJJJJJJJJJJJJJJJJJJJJJJJJJJJJJJJ",
"JJJJJJJJJJJJJJJJJJJJJJJJJJJJJJJJJJJJJweretr***&*%%o. JJJoO&***&o%w***&&JJJJJJJJJJJJJJJJJJJJJJJJJJJJJJJJJJJJJ",
"JJJJJJJJJJJJJJJJJJJJJJJJJJJJJJJJJJJJJertrrr$$$&*%$..JJJJJ%%%$$$Oq&***%&*JJJJJJJJJJJJJJJJJJJJJJJJJJJJJJJJJJJJ",
"JJJJJJJJJJJJJJJJJJJJJJJJJJJJJJJJJJJJJeryrw*%<.OO$$O&JJJJJ&%%Oo.lN&*****%%*JJJJJJJJJJJJJJJJJJJJJJJJJJJJJJJJJJ",
"JJJJJJJJJJJJJJJJJJJJJJJJJJJJJJJJJJJJeere%%$vx<..oo%JJJJJJJO$oo<xNloo&*&$&JJJJJJJJJJJJJJJJJJJJJJJJJJJJJJJJJJJ",
"JJJJJJJJJJJJJJJJJJJJJJJJJJJJJJJJJJJJ*qe&&$8Mx8o..oJJJJJJJJ*OO$<NAV8$O$o&JJJJJJJJJJJJJJJJJJJJJJJJJJJJJJJJJJJJ",
"JJJJJJJJJJJJJJJJJJJJJJJJJJJJJJJJJJJ%.o#vx6V886#OOOJJJJJJJJJ%O@#NSASv<%o$JJJJJJJJJJJJJJJJJJJJJJJJJJJJJJJJJJJJ",
"JJJJJJJJJJJJJJJJJJJJJJJJJJJJJJJJJJJ 6lMVCCxxx6<@o%JJJJJJJJJ*. <NADSMvx$oJJJJJJJJJJJJJJJJJJJJJJJJJJJJJJJJJJJJ",
"JJJJJJJJJJJJJJJJJJJJJJJJJJJJJJJJJJO#NACCCCMMvx###%JJJJJJJJJ%.+6NSFSVMv5$&JJJJJJJJJJJJJJJJJJJJJJJJJJJJJJJJJJJ",
"JJJJJJJJJJJJJJJJJJJJJJJJJJJJJJJJJJJxNVDCCCVNV6<##JJJJJJJJJJ%O+8xADDCCV85&JJJJJJJJJJJJJJJJJJJJJJJJJJJJJJJJJJJ",
"JJJJJJJJJJJJJJJJJJJJJJJJJJJJJJJJJJJcVDGDSCvV6<#XJJJJJJJJJJJJ%5xlMCSVCCv5@JJJJJJJJJJJJJJJJJJJJJJJJJJJJJJJJJJJ",
"JJJJJJJJJJJJJJJJJJJJJJJJJJJJJJJJJJJcADGDCMMM55JJJJJJJJJJJJJJJ5xlvCSCCCM65JJJJJJJJJJJJJJJJJJJJJJJJJJJJJJJJJJJ",
"JJJJJJJJJJJJJJJJJJJJJJJJJJJJJJJJJJJNADGCMcMx55JJJJJJJJJJJJJJJJxxcVSDCCV85JJJJJJJJJJJJJJJJJJJJJJJJJJJJJJJJJJJ",
"JJJJJJJJJJJJJJJJJJJJJJJJJJJJJJJJJJJVADCMvMv65@JJJJJJJJJJJJJJJJxxlNCDSCC85@JJJJJJJJJJJJJJJJJJJJJJJJJJJJJJJJJJ",
"JJJJJJJJJJJJJJJJJJJJJJJJJJJJJJJJJJxvNCMxvMl55JJJJJJJJJJJJJJJJJxx8cVCCCVv6@JJJJJJJJJJJJJJJJJJJJJJJJJJJJJJJJJJ",
"JJJJJJJJJJJJJJJJJJJJJJJJJJJJJJJJJJ5vNM8xNx<<5JJJJJJJJJJJJJJJJJJ888MVCVVN85#JJJJJJJJJJJJJJJJJJJJJJJJJJJJJJJJJ",
"JJJJJJJJJJJJJJJJJJJJJJJJJJJJJJJJJJ58ll6xx885JJJJJJJJJJJJJJJJJJJ@658vCAVMl5@JJJJJJJJJJJJJJJJJJJJJJJJJJJJJJJJJ",
"JJJJJJJJJJJJJJJJJJJJJJJJJJJJJJJJJJ58l8lx8885JJJJJJJJJJJJJJJJJJJJ@55lMVVv855JJJJJJJJJJJJJJJJJJJJJJJJJJJJJJJJJ",
"JJJJJJJJJJJJJJJJJJJJJJJJJJJJJJJJJJ5xcxxx6665JJJJJJJJJJJJJJJJJJJJJ<<8lvMx655JJJJJJJJJJJJJJJJJJJJJJJJJJJJJJJJJ",
"JJJJJJJJJJJJJJJJJJJJJJJJJJJJJJJJJJxllxx8<<<@JJJJJJJJJJJJJJJJJJJJJ@#<8x86565JJJJJJJJJJJJJJJJJJJJJJJJJJJJJJJJJ",
"JJJJJJJJJJJJJJJJJJJJJJJJJJJJJJJJJJxl8666<<<@JJJJJJJJJJJJJJJJJJJJJ55<5655665JJJJJJJJJJJJJJJJJJJJJJJJJJJJJJJJJ",
"JJJJJJJJJJJJJJJJJJJJJJJJJJJJJJJJJJ8885555#@JJJJJJJJJJJJJJJJJJJJJJ565<<5<6<5JJJJJJJJJJJJJJJJJJJJJJJJJJJJJJJJJ",
"JJJJJJJJJJJJJJJJJJJJJJJJJJJJJJJJJJ8865555<5JJJJJJJJJJJJJJJJJJJJJJ566<5566<5JJJJJJJJJJJJJJJJJJJJJJJJJJJJJJJJJ",
"JJJJJJJJJJJJJJJJJJJJJJJJJJJJJJJJJJ666655<<JJJJJJJJJJJJJJJJJJJJJJJ5555<<6655JJJJJJJJJJJJJJJJJJJJJJJJJJJJJJJJJ",
"JJJJJJJJJJJJJJJJJJJJJJJJJJJJJJJJJJ6665<<<5JJJJJJJJJJJJJJJJJJJJJJJJ<#5<555<5JJJJJJJJJJJJJJJJJJJJJJJJJJJJJJJJJ",
"JJJJJJJJJJJJJJJJJJJJJJJJJJJJJJJJJJ#66<<<<5JJJJJJJJJJJJJJJJJJJJJJJJ@#<<66655JJJJJJJJJJJJJJJJJJJJJJJJJJJJJJJJJ",
"JJJJJJJJJJJJJJJJJJJJJJJJJJJJJJJJJJ#65<<<<5JJJJJJJJJJJJJJJJJJJJJJJJ@#<556655JJJJJJJJJJJJJJJJJJJJJJJJJJJJJJJJJ",
"JJJJJJJJJJJJJJJJJJJJJJJJJJJJJJJJJJJ55<<<<@JJJJJJJJJJJJJJJJJJJJJJJJJ+##<6655JJJJJJJJJJJJJJJJJJJJJJJJJJJJJJJJJ",
"JJJJJJJJJJJJJJJJJJJJJJJJJJJJJJJJJJJ@6<<<5JJJJJJJJJJJJJJJJJJJJJJJJJJ@#@#5655JJJJJJJJJJJJJJJJJJJJJJJJJJJJJJJJJ",
"JJJJJJJJJJJJJJJJJJJJJJJJJJJJJJJJJJJ66<<<<JJJJJJJJJJJJJJJJJJJJJJJJJJJ@<<6655JJJJJJJJJJJJJJJJJJJJJJJJJJJJJJJJJ",
"JJJJJJJJJJJJJJJJJJJJJJJJJJJJJJJJJJJ665<<<JJJJJJJJJJJJJJJJJJJJJJJJJJJ@<56665JJJJJJJJJJJJJJJJJJJJJJJJJJJJJJJJJ",
"JJJJJJJJJJJJJJJJJJJJJJJJJJJJJJJJJJJ#66555JJJJJJJJJJJJJJJJJJJJJJJJJJJ#556655JJJJJJJJJJJJJJJJJJJJJJJJJJJJJJJJJ",
"JJJJJJJJJJJJJJJJJJJJJJJJJJJJJJJJJJJ665<55JJJJJJJJJJJJJJJJJJJJJJJJJJJJ@56555JJJJJJJJJJJJJJJJJJJJJJJJJJJJJJJJJ",
"JJJJJJJJJJJJJJJJJJJJJJJJJJJJJJJJJJJ66<565JJJJJJJJJJJJJJJJJJJJJJJJJJJJ@55655JJJJJJJJJJJJJJJJJJJJJJJJJJJJJJJJJ",
"JJJJJJJJJJJJJJJJJJJJJJJJJJJJJJJJJJJ66<555JJJJJJJJJJJJJJJJJJJJJJJJJJJJ@56865JJJJJJJJJJJJJJJJJJJJJJJJJJJJJJJJJ",
"JJJJJJJJJJJJJJJJJJJJJJJJJJJJJJJJJJx6l8685@JJJJJJJJJJJJJJJJJJJJJJJJJJJ@6ll6<JJJJJJJJJJJJJJJJJJJJJJJJJJJJJJJJJ",
"JJJJJJJJJJJJJJJJJJJJJJJJJJJJJJJJJJVx8lxv85JJJJJJJJJJJJJJJJJJJJJJJJJJJ#xvc6<JJJJJJJJJJJJJJJJJJJJJJJJJJJJJJJJJ",
"JJJJJJJJJJJJJJJJJJJJJJJJJJJJJJJJJVAVN88x65JJJJJJJJJJJJJJJJJJJJJJJJJJJ5xl688JJJJJJJJJJJJJJJJJJJJJJJJJJJJJJJJJ",
"JJJJJJJJJJJJJJJJJJJJJJJJJJJJJJJJcVDASAM8<@JJJJJJJJJJJJJJJJJJJJJJJJJJJcvcNNc6JJJJJJJJJJJJJJJJJJJJJJJJJJJJJJJJ",
"JJJJJJJJJJJJJJJJJJJJJJJJJJJJJJJJVAADDCl<5@JJJJJJJJJJJJJJJJJJJJJJJJJJJcVVFDCx5JJJJJJJJJJJJJJJJJJJJJJJJJJJJJJJ",
"JJJJJJJJJJJJJJJJJJJJJJJJJJJJJJJVAADDSMv55JJJJJJJJJJJJJJJJJJJJJJJJJJJJcVAASCVl5JJJJJJJJJJJJJJJJJJJJJJJJJJJJJJ",
"JJJJJJJJJJJJJJJJJJJJJJJJJJJJJJcVNCVCAv85JJJJJJJJJJJJJJJJJJJJJJJJJJJJJcVAVSCCM6JJJJJJJJJJJJJJJJJJJJJJJJJJJJJJ",
"JJJJJJJJJJJJJJJJJJJJJJJJJJJJJJcNvV8lAc55JJJJJJJJJJJJJJJJJJJJJJJJJJJJJJNAACVCV85JJJJJJJJJJJJJJJJJJJJJJJJJJJJJ",
"JJJJJJJJJJJJJJJJJJJJJJJJJJJJJJ5xNAcSDl5JJJJJJJJJJJJJJJJJJJJJJJJJJJJJJJNxcv8xx6@JJJJJJJJJJJJJJJJJJJJJJJJJJJJJ",
"JJJJJJJJJJJJJJJJJJJJJJJJJJJJJJJ55xxNx5JJJJJJJJJJJJJJJJJJJJJJJJJJJJJJJJCNlNMxl65JJJJJJJJJJJJJJJJJJJJJJJJJJJJJ",
"JJJJJJJJJJJJJJJJJJJJJJJJJJJJJJJJJJJJJJJJJJJJJJJJJJJJJJJJJJJJJJJJJJJJJJJJJJJJJJJJJJJJJJJJJJJJJJJJJJJJJJJJJJJJ",
"JJJJJJJJJJJJJJJJJJJJJJJJJJJJJJJJJJJJJJJJJJJJJJJJJJJJJJJJJJJJJJJJJJJJJJJJJJJJJJJJJJJJJJJJJJJJJJJJJJJJJJJJJJJJ",
"JJJJJJJJJJJJJJJJJJJJJJJJJJJJJJJJJJJJJJJJJJJJJJJJJJJJJJJJJJJJJJJJJJJJJJJJJJJJJJJJJJJJJJJJJJJJJJJJJJJJJJJJJJJJ",
"JJJJJJJJJJJJJJJJJJJJJJJJJJJJJJJJJJJJJJJJJJJJJJJJJJJJJJJJJJJJJJJJJJJJJJJJJJJJJJJJJJJJJJJJJJJJJJJJJJJJJJJJJJJJ",
"JJJJJJJJJJJJJJJJJJJJJJJJJJJJJJJJJJJJJJJJJJJJJJJJJJJJJJJJJJJJJJJJJJJJJJJJJJJJJJJJJJJJJJJJJJJJJJJJJJJJJJJJJJJJ"
};
