/* XPM */
static char *_644325231689[] = {
/* columns rows colors chars-per-pixel */
"108 116 50 1 ",
"  c gray3",
". c #160A0A",
"X c #101010",
"o c #181818",
"O c #210F0F",
"+ c #311717",
"@ c #3D1F1B",
"# c #202020",
"$ c #282828",
"% c gray19",
"& c gray22",
"* c #4C241C",
"= c #583C10",
"- c #6A3E1E",
"; c #5A2F26",
": c #56322A",
"> c #6A362E",
", c #653A2B",
"< c #613E2F",
"1 c #65471B",
"2 c #74402C",
"3 c #714337",
"4 c #714A37",
"5 c #7D573B",
"6 c gray25",
"7 c #484848",
"8 c #505050",
"9 c #585858",
"0 c #606060",
"q c #686868",
"w c #854E33",
"e c #805430",
"r c #8A5236",
"t c #8D5A3B",
"y c #945B3C",
"u c #8D6643",
"i c #986340",
"p c #9D6E4B",
"a c #9A6E4E",
"s c #96734A",
"d c #A1724F",
"f c #A57853",
"g c #A67E5A",
"h c #AC825C",
"j c #AD8963",
"k c #B18E6F",
"l c #B39575",
"z c #B29A7E",
"x c #B8A288",
"c c None",
/* pixels */
"cccccccccccccccccccccccccccccccccccccccccccccccccccccccccccccccccccccccccccccccccccccccccccccccccccccccccccc",
"cccccccccccccccccccccccccccccccccccccccccccccccccccccccccccccccccccccccccccccccccccccccccccccccccccccccccccc",
"cccccccccccccccccccccccccccccccccccccccccccccccccccccccccccccccccccccccccccccccccccccccccccccccccccccccccccc",
"cccccccccccccccccccccccccccccccccccccccccccccccccccccccccccccccccccccccccccccccccccccccccccccccccccccccccccc",
"cccccccccccccccccccccccccccccccccccccccccccccccccccccccccccccccccccccccccccccccccccccccccccccccccccccccccccc",
"cccccccccccccccccccccccccccccccccccc,,2wwrrrcccccccccccccccccccccccccccccccccccccccccccccccccccccccccccccccc",
"cccccccccccccccccccccccccccccccccc22,;,2,,2ihycccccccccccccccccccccccccccccccccccccccccccccccccccccccccccccc",
"cccccccccccccccccccccccccccccccccw2,,2yyr22yfjtccccccccccccccccccccccccccccccccccccccccccccccccccccccccccccc",
"cccccccccccccccccccccccccccccccc,2ryypiyrr2riddrcccccccccccccccccccccccccccccccccccccccccccccccccccccccccccc",
"cccccccccccccccccccccccccccccccc,2ryyr222w,,rdf2cccccccccccccccccccccccccccccccccccccccccccccccccccccccccccc",
"ccccccccccccccccccccccccccccccc:;wrr22222,,,rddr,cccccccccccccchhkzpcccccccccccccccccccccccccccccccccccccccc",
"ccccccccccccccccccccccccccccccc;;,,,,2ijdr,2ifi,tycccccccccccchkkhw,cccccccccccccccccccccccccccccccccccccccc",
"ccccccccccccccccccccccccccccccc:,**,,rdidy,2fji2ydrcccccccccckzht,;;cccccccccccccccccccccccccccccccccccccccc",
"ccccccccccccccccccccccccccccccc:2,*;;2yyrfr,ddiiywrcccccccccpkhr**,+cccccccccccccccccccccccccccccccccccccccc",
"ccccccccccccccccccccccccccccccc:,,;2*2rifd2,yyrrr;ccccccccccpdp2,;2ccccccccccccccccccccccccccccccccccccccccc",
"cccccccccccccccccccccccccccccccc**;;**,rdiir2,;r**ccccccccctppw,;;cccccccccccccccccccccccccccccccccccccccccc",
"ccccccccccccccccccccccccccccccccO@++*@,ryiyr,*,r2,ccccccccctpyw,cccccccccccccccccccccccccccccccccccccccccccc",
"cccccccccccccccccccccccccccccccccO++*;2rriy2***rr;cccccccccpytw;cccccccccccccccccccccccccccccccccccccccccccc",
"ccccccccccccccccccccccccccccccccccO+*,w22yyy2,*,2;cccccccchhhw,cccccccccddw2cccccccccccccccccccccccccccccccc",
"ccccccccccccccccccccccccccccccccccc*,r22ryyr,;@**cccccccckxkfw;ccccccccdy,;2,ccccccccccccccccccccccccccccccc",
"ccccccccccccccccccccccccccccccccccc;wpy2iiy2***ccccccccckzxkr2;cccccpdhr**@,,ccccccccccccccccccccccccccccccc",
"cccccccccccccccccccccccccccccccccccryhdy2riy;cccccccccdzzxkit,ccccct2wp2*;*,;ccccccccccccccccccccccccccccccc",
"cccccccccccccccccccccccccccccccccctdyijfydjjyccccccccfzxxkdw,;ccccrr,,2w,,,;cccccccccccccccccccccccccccccccc",
"ccccccccccccccccccccccccccccccccccdhpfklkkkjftcccccckzxxkddt,cccccdpt2dfyr,ccccccccccccccccccccccccccccccccc",
"cccccccccccccccccccccccccccccccccthhhllkkkjfffp2ccchkxxkpppw,ccccpkhiidyy2cccccccccccccccccccccccccccccccccc",
"cccccccccccccccccccccccccccccccccdhdhlkkjjjjfr2w2hkzkkhwry2;ccctkzzjfdiw,ccccccccccccccccccccccccccccccccccc",
"cccccccccccccccccccccccccccccccctddpdkkkkjffjjirfkkkjirit2;ccdkkzkjfdi2;cccccccccccccccccccccccccccccccccccc",
"cccccccccccccccccccccccccccccccctdytdkkkkjffjkhfjjddywiw;;rhkxzkfdfr2,,ccccccccccccccccccccccccccccccccccccc",
"cccccccccccccccccccccccccccccccctdywyirihjkkjjkfjfiyyy2*2dxxzljdidi*;ccccccccccccccccccccccccccccccccccccccc",
"ccccccccccccccccccccccccccccccccppprriiypfjkjfkhiirr2;;ijzxxxfii2,;ccccccccccccccccccccccccccccccccccccccccc",
"cccccccccccccccccccccccccccccccctppr,,idiiyjlkfpitr,;,,yijljdir2*;cccccccccccccccccccccccccccccccccccccccccc",
"cccccccccccccccccccccccccccccccctpt22@@,22,2rhdiw*@,w2;riddir2,;cccccccccccccccccccccccccccccccccccccccccccc",
"cccccccccccccccccccccccccccccccctyyyt*OO++@+++@@@*ww2,;2yi2*;*cccccccccccccccccccccccccccccccccccccccccccccc",
"ccccccccccccccccccccccccccccccccrrypr*+OOO+*+OO+*ww,**,*;;*;cccccccccccccccccccccccccccccccccccccccccccccccc",
"ccccccccccccccccccccccccccccccccc2rrr,@++OO+*+@@;22,*****ccccccccccccccccccccccccccccccccccccccccccccccccccc",
"cccccccccccccccccccccccccccccccccc,wyr*@++++@*@@;22,;ccccccccccccccccccccccccccccccccccccccccccccccccccccccc",
"cccccccccccccccccccccccccccccccccc;,wr2*@@+@@*@@*,22;ccccccccccccccccccccccccccccccccccccccccccccccccccccccc",
"ccccccccccccccccccccccccccccccccccc,w22,@@+@****;,ww,ccccccccccccccccccccccccccccccccccccccccccccccccccccccc",
"ccccccccccccccccccccccccccccccccccc,2w2w,@@*;;,,,;,2;ccccccccccccccccccccccccccccccccccccccccccccccccccccccc",
"ccccccccccccccccccccccccccccccccccc;,22rr,@@*;;;**,2,ccccccccccccccccccccccccccccccccccccccccccccccccccccccc",
"cccccccccccccccccccccccccccccccccccc,2wrrr,@@@@@@*22:ccccccccccccccccccccccccccccccccccccccccccccccccccccccc",
"cccccccccccccccccccccccccccccccccccc:,wwr2r*@@@**,,2,ccccccccccccccccccccccccccccccccccccccccccccccccccccccc",
"cccccccccccccccccccccccccccccccccccc;,w22rr2*@****,2,ccccccccccccccccccccccccccccccccccccccccccccccccccccccc",
"cccccccccccccccccccccccccccccccccccccrw2riirr,*@@**2,ccccccccccccccccccccccccccccccccccccccccccccccccccccccc",
"ccccccccccccccccccccccccccccccccccccc,,22ryiy2*@@*;,;ccccccccccccccccccccccccccccccccccccccccccccccccccccccc",
"ccccccccccccccccccccccccccccccccccccc,22222yy22***;2,ccccccccccccccccccccccccccccccccccccccccccccccccccccccc",
"ccccccccccccccccccccccccccccccccccccc;22wrryy2r,*,*,2ccccccccccccccccccccccccccccccccccccccccccccccccccccccc",
"cccccccccccccccccccccccccccccccccccccc:2tiiiiiy2,,*,2;cccccccccccccccccccccccccccccccccccccccccccccccccccccc",
"cccccccccccccccccccccccccccccccccccccc32riyyyddy2,*,,;cccccccccccccccccccccccccccccccccccccccccccccccccccccc",
"ccccccccccccccccccccccccccccccccccccccrrw2ryyryyyr22,;+ccccccccccccccccccccccccccccccccccccccccccccccccccccc",
"ccccccccccccccccccccccccccccccccccccccyr2,,,22yyyyy2,,,ccccccccccccccccccccccccccccccccccccccccccccccccccccc",
"ccccccccccccccccccccccccccccccccccccc098&&9878987&&&%$6$cccccccccccccccccccccccccccccccccccccccccccccccccccc",
"ccccccccccccccccccccccccccccccccccccc%$##$$%&&%&&&&%%1==<ccccccccccccccccccccccccccccccccccccccccccccccccccc",
"ccccccccccccccccccccccccccccccccccccc444eeuuaaaagsuusgu11ccccccccccccccccccccccccccccccccccccccccccccccccccc",
"ccccccccccccccccccccccccccccccccccccc88888998890009898951ccccccccccccccccccccccccccccccccccccccccccccccccccc",
"ccccccccccccccccccccccccccccccccccccc87887&&78900qq8&79711cccccccccccccccccccccccccccccccccccccccccccccccccc",
"ccccccccccccccccccccccccccccccccccccc8778&&&&799008&&&77&<cccccccccccccccccccccccccccccccccccccccccccccccccc",
"ccccccccccccccccccccccccccccccccccccc8777&&&&&999987&&&&&-cccccccccccccccccccccccccccccccccccccccccccccccccc",
"cccccccccccccccccccccccccccccccccccccc67%$$&&7098887&&&&$-cccccccccccccccccccccccccccccccccccccccccccccccccc",
"cccccccccccccccccccccccccccccccccccccc&&%$$%&89988777&&7%#cccccccccccccccccccccccccccccccccccccccccccccccccc",
"ccccccccccccccccccccccccccccccccccccccc6%#$&78888877&&&&%$cccccccccccccccccccccccccccccccccccccccccccccccccc",
"ccccccccccccccccccccccccccccccccccccccc&&%&7898887&%77&%%$cccccccccccccccccccccccccccccccccccccccccccccccccc",
"ccccccccccccccccccccccccccccccccccccccc&&&7778999977887&6$cccccccccccccccccccccccccccccccccccccccccccccccccc",
"cccccccccccccccccccccccccccccccccccccccc$66&%777898789808&%ccccccccccccccccccccccccccccccccccccccccccccccccc",
"ccccccccccccccccccccccccccccccccccccccccc7&&&7&7787&887909%ccccccccccccccccccccccccccccccccccccccccccccccccc",
"cccccccccccccccccccccccccccccccccccccccccc&6&&777777788790&$cccccccccccccccccccccccccccccccccccccccccccccccc",
"ccccccccccccccccccccccccccccccccccccccccccc%$&7788898887909$cccccccccccccccccccccccccccccccccccccccccccccccc",
"cccccccccccccccccccccccccccccccccccccccccccc$67777890978908&$ccccccccccccccccccccccccccccccccccccccccccccccc",
"ccccccccccccccccccccccccccccccccccccccccccccc&6&&77899898998%ccccccccccccccccccccccccccccccccccccccccccccccc",
"ccccccccccccccccccccccccccccccccccccccccccccc%&&7&&809899909&$cccccccccccccccccccccccccccccccccccccccccccccc",
"cccccccccccccccccccccccccccccccccccccccccccccc%%&&&7899900098%#ccccccccccccccccccccccccccccccccccccccccccccc",
"cccccccccccccccccccccccccccccccccccccccccccccc%%%&678999q9008&oocccccccccccccccccccccccccccccccccccccccccccc",
"ccccccccccccccccccccccccccccccccccccccccccccccc%$%&798878870&76%%ccccccccccccccccccccccccccccccccccccccccccc",
"cccccccccccccccccccccccccccccccccccccccccccccccc$$%79877&&%&76&$cccccccccccccccccccccccccccccccccccccccccccc",
"cccccccccccccccccccccccccccccccccccccccccccccccc%%%&8887777&#X#ccccccccccccccccccccccccccccccccccccccccccccc",
"ccccccccccccccccccccccccccccccccccccccccccccccccc$%$6887%#2y;@cccccccccccccccccccccccccccccccccccccccccccccc",
"ccccccccccccccccccccccccccccccccccccccccccccccccc#o#o$%##,yy2*cccccccccccccccccccccccccccccccccccccccccccccc",
"ccccccccccccccccccccccccccccccccccccccccccccccccco $2,*wtpdfd,3ccccccccccccccccccccccccccccccccccccccccccccc",
"ccccccccccccccccccccccccccccccccccccccccccccccccccc+2wpkjddffw3ccccccccccccccccccccccccccccccccccccccccccccc",
"ccccccccccccccccccccccccccccccccccccccccccccccccccc.;wyhdpdfjd43cccccccccccccccccccccccccccccccccccccccccccc",
"cccccccccccccccccccccccccccccccccccccccccccccccccccc@,wdiyphjfw>cccccccccccccccccccccccccccccccccccccccccccc",
"ccccccccccccccccccccccccccccccccccccccccccccccccccccO*2ydpihkh2>cccccccccccccccccccccccccccccccccccccccccccc",
"ccccccccccccccccccccccccccccccccccccccccccccccccccccc,ptyyyfjd,;cccccccccccccccccccccccccccccccccccccccccccc",
"ccccccccccccccccccccccccccccccccccccccccccccccccccccthhp2wyyir;;cccccccccccccccccccccccccccccccccccccccccccc",
"cccccccccccccccccccccccccccccccccccccccccccccccccccthjkjd22iy;;ccccccccccccccccccccccccccccccccccccccccccccc",
"ccccccccccccccccccccccccccccccccccccccccccccccccccthjkjjy2ri,*;ccccccccccccccccccccccccccccccccccccccccccccc",
"ccccccccccccccccccccccccccccccccccccccccccccccccccfhdhhirryi;;cccccccccccccccccccccccccccccccccccccccccccccc",
"cccccccccccccccccccccccccccccccccccccccccccccccccphddhdpyiiw;ccccccccccccccccccccccccccccccccccccccccccccccc",
"cccccccccccccccccccccccccccccccccccccccccccccccctdhhipdirr2**ccccccccccccccccccccccccccccccccccccccccccccccc",
"cccccccccccccccccccccccccccccccccccccccccccccccctddddppywr,;cccccccccccccccccccccccccccccccccccccccccccccccc",
"ccccccccccccccccccccccccccccccccccccccccccccccctppypiiywr,*ccccccccccccccccccccccccccccccccccccccccccccccccc",
"ccccccccccccccccccccccccccccccccccccccccccccccctpppiyr2,,*;ccccccccccccccccccccccccccccccccccccccccccccccccc",
"cccccccccccccccccccccccccccccccccccccccccccccctpppdiir2,;;cccccccccccccccccccccccccccccccccccccccccccccccccc",
"cccccccccccccccccccccccccccccccccccccccccccccctddpiy22,;;ccccccccccccccccccccccccccccccccccccccccccccccccccc",
"ccccccccccccccccccccccccccccccccccccccccccccccpdpiir2,*;cccccccccccccccccccccccccccccccccccccccccccccccccccc",
"ccccccccccccccccccccccccccccccccccccccccccccctddhpr2,*;ccccccccccccccccccccccccccccccccccccccccccccccccccccc",
"cccccccccccccccccccccccccccccccccccccccccccccpdpdr2,*;cccccccccccccccccccccccccccccccccccccccccccccccccccccc",
"cccccccccccccccccccccccccccccccccccccccccccctpypir2,;ccccccccccccccccccccccccccccccccccccccccccccccccccccccc",
"cccccccccccccccccccccccccccccccccccccccccccrtppyr2,;cccccccccccccccccccccccccccccccccccccccccccccccccccccccc",
"cccccccccccccccccccccccccccccccccccccccccc4thhyr2,*ccccccccccccccccccccccccccccccccccccccccccccccccccccccccc",
"cccccccccccccccccccccccccccccccccccccccccrtdhr222;cccccccccccccccccccccccccccccccccccccccccccccccccccccccccc",
"ccccccccccccccccccccccccccccccccccccccccrrpjw22,;ccccccccccccccccccccccccccccccccccccccccccccccccccccccccccc",
"cccccccccccccccccccccccccccccccccccccccryyhd2,,2cccccccccccccccccccccccccccccccccccccccccccccccccccccccccccc",
"cccccccccccccccccccccccccccccccccccccctprdkddr2;cccccccccccccccccccccccccccccccccccccccccccccccccccccccccccc",
"cccccccccccccccccccccccccccccccccccccpddhjkkjf2ccccccccccccccccccccccccccccccccccccccccccccccccccccccccccccc",
"cccccccccccccccccccccccccccccccccccccpdhkkjjjd2ccccccccccccccccccccccccccccccccccccccccccccccccccccccccccccc",
"cccccccccccccccccccccccccccccccccccccrpdjhfkkji;cccccccccccccccccccccccccccccccccccccccccccccccccccccccccccc",
"ccccccccccccccccccccccccccccccccccccccrpdhhlkkfd2ccccccccccccccccccccccccccccccccccccccccccccccccccccccccccc",
"ccccccccccccccccccccccccccccccccccccccc;wydhkkkjdwcccccccccccccccccccccccccccccccccccccccccccccccccccccccccc",
"ccccccccccccccccccccccccccccccccccccccccc;rppkllhdpccccccccccccccccccccccccccccccccccccccccccccccccccccccccc",
"ccccccccccccccccccccccccccccccccccccccccccc++rtyfiipwccccccccccccccccccccccccccccccccccccccccccccccccccccccc",
"cccccccccccccccccccccccccccccccccccccccccccccc@@;;;wwrcccccccccccccccccccccccccccccccccccccccccccccccccccccc",
"cccccccccccccccccccccccccccccccccccccccccccccccccccccccccccccccccccccccccccccccccccccccccccccccccccccccccccc",
"cccccccccccccccccccccccccccccccccccccccccccccccccccccccccccccccccccccccccccccccccccccccccccccccccccccccccccc",
"cccccccccccccccccccccccccccccccccccccccccccccccccccccccccccccccccccccccccccccccccccccccccccccccccccccccccccc",
"cccccccccccccccccccccccccccccccccccccccccccccccccccccccccccccccccccccccccccccccccccccccccccccccccccccccccccc"
};
