/* XPM */
static char *_644325291438[] = {
/* columns rows colors chars-per-pixel */
"108 116 46 1 ",
"  c black",
". c gray3",
"X c #160A0A",
"o c #101010",
"O c #181818",
"+ c #210F0F",
"@ c #311717",
"# c #3D1F1B",
"$ c #202020",
"% c #282828",
"& c gray19",
"* c gray22",
"= c #4C241C",
"- c #452723",
"; c #5A2F26",
": c #653A2B",
"> c #613E2F",
", c #74402C",
"< c #714A37",
"1 c #7D573B",
"2 c gray25",
"3 c #484848",
"4 c #505050",
"5 c #585858",
"6 c #606060",
"7 c #686868",
"8 c #854E33",
"9 c #8A5236",
"0 c #8D5A3B",
"q c #945B3C",
"w c #846534",
"e c #8D6643",
"r c #986340",
"t c #9D6E4B",
"y c #9A6E4E",
"u c #96734A",
"i c #A1724F",
"p c #A57853",
"a c #AC825C",
"s c #AD8963",
"d c #B18E6F",
"f c #AC926C",
"g c #B39575",
"h c #B29A7E",
"j c #B8A288",
"k c None",
/* pixels */
"kkkkkkkkkkkkkkkkkkkkkkkkkkkkkkkkkkkkkkkkkkkkkkkkkkkkkkkkkkkkkkkkkkkkkkkkkkkkkkkkkkkkkkkkkkkkkkkkkkkkkkkkkkkk",
"kkkkkkkkkkkkkkkkkkkkkkkkkkkkkkkkkkkkkkkkkkkkkkkkkkkkkkkkkkkkkkkkkkkkkkkkkkkkkkkkkkkkkkkkkkkkkkkkkkkkkkkkkkkk",
"kkkkkkkkkkkkkkkkkkkkkkkkkkkkkkkkkkkkkkkkkkkkkkkkkkktasddtkkkkkkkkkkkkkkkkkkkkkkkkkkkkkkkkkkkkkkkkkkkkkkkkkkk",
"kkkkkkkkkkkkkkkkkkkkkkkkkkkkkkkkkkkkkkkkkkkkkkkkkk8qttttadakkkkkkkkkkkkkkkkkkkkkkkkkkkkkkkkkkkkkkkkkkkkkkkkk",
"kkkkkkkkkkkkkkkkkkkkkkkkkkkkkkkkkkkkkkkkkkkkkkkkk;;===;,0idtkkkkkkkkkkkkkkkkkkkkkkkkkkkkkkkkkkkkkkkkkkkkkkkk",
"kkkkkkkkkkkkkkkkkkkkkkkkkkkkkkkkkkkkkkkkkkkkkkkkkkkkk===:8tatkkkkkkkkkkkkkkkkkkkkkkkkkkkkkkkkkkkkkkkkkkkkkkk",
"kkkkkkkkkkkkkkkkkkkkkkkkkkkkkkkkkkkkkkkkkkkkkkkkkkkkkk;,800iaqkkkkkkkkkkkkkkkkkkkkkkkkkkkkkkkkkkkkkkkkkkkkkk",
"kkkkkkkkkkkkkkkkkkkkkkkkkkkkkkkkkkkkkkkkkkkkkkkkkkkkkqtai800iaqkkkkkkkkkkkkkkkkkkkkkkkkkkkkkkkkkkkkkkkkkkkkk",
"kkkkkkkkkkkkkkkkkkkkkkkkkkkkkkkkkkkkkkkkkkkkkkkkkk:,thdi8;0ttpaqkkkkkkkkkkkkkkkkkkkkkkkkkkkkkkkkkkkkkkkkkkkk",
"kkkkkkkkkkkkkkkkkkkkkkkkkkkkkkkkkkkkkkkkkkkkkkkk:,89808:;:80tapaqkkkkkkkkkkkkkkkkkkkkkkkkkkkkkkkkkkkkkkkkkkk",
"kkkkkkkkkkkkkkkkkkkkkkkkkkkkkkkkkkkkkkkkkkkkkkk::,9,,,::=:,,taaaaqkkkkkkkkkkkkkkkkkkkkkkkkkkkkkkkkkkkkkkkkkk",
"kkkkkkkkkkkkkkkkkkkkkkkkkkkkkkkkkkkkkkkkkkkkkk,,:9,q9,::,88:9ipdadtkkkkkkkkkkkkkkkkkkkkkkkkkkkkkkkkkkkkkkkkk",
"kkkkkkkkkkkkkkkkkkkkkkkkkkkkkkkkkkkkkkkkkkkkk=,q9qq9q9:,,;::,rajjhdakkkkkkkkkkkkkkkkkkkkkkkkkkkkkkkkkkkkkkkk",
"kkkkkkkkkkkkkkkkkkkkkkkkkkkkkkkkkkkkkkkkkkkkk,iirr,::::,:=::=,rajgidakkkkkkkkkkkkkkkkkkkkkkkkkkkkkkkkkkkkkkk",
"kkkkkkkkkkkkkkkkkkkkkkkkkkkkkkkkkkkkkkkkkkkkk0iq,,::=##=;:qq=;,0pdaadikkkkkkkkkkkkkkkkkkkkkkkkkkkkkkkkkkkkkk",
"kkkkkkkkkkkkkkkkkkkkkkkkkkkkkkkkkkkkkkkkkkkkk,9:::,,;###=:r0:;:,,0aaaaiqkkkkkkkkkkkkkkkkkkkkkkkkkkkkkkkkkkkk",
"kkkkkkkkkkkkkkkkkkkkkkkkkkkkkkkkkkkkkkkkkkkkk:,=:,8:;####:q9,k;;=;0iisai9kkkkkkkkkkkkkkkkkkkkkkkkkkkkkkkkkkk",
"kkkkkkkkkkkkkkkkkkkkkkkkkkkkkkkkkkkkkkkkkkkkk;;,9:;=#####=9t,kkk;:,iatapq9kkkkkkkkkkkkkkkkkkkkkkkkkkkkkkkkkk",
"kkkkkkkkkkkkkkkkkkk,q9,kkkkkkkkkkkkkkkkkkkkkk;;:0:@@######,q:kkkk;:8ttiiat9kkkkkkkkkkkkkkkkkkkkkkkkkkkkkkkkk",
"kkkkkkkkkkkkkkkkkk:tq=;kkkkkkkkkkkkkkkkkkkkkkk=#8:###;=###,9,kkkkk::,rttaaq,kkkkkkkkkkkkkkkkkkkkkkkkkkkkkkkk",
"kkkkkkkkkkkkkkkkk:9;#+=kk9kkkkkkkkkkkkkkkkkkkk;;,q,:88=@@#:q:kkkkkk:8,8q9tieqkkkkkkkkkkkkkkkkkkkkkkkkkkkkkkk",
"kkkkkkkkkkkkkkkkk,:@@=8qqqkkkkkkkkkkkkkkkkkkkk;=:q898,=++@=8,,kkkkkk:99::,89,kkkkkkkkkkkkkkkkkkkkkkkkkkkkkkk",
"kkkkkkkkkkkkkkkkk,:==:9q:kkkkkkkkkkkkkkkkkkkkkk;=#;:::=@+@#:8q9kkkkk::,,,,=+=kkkkkkkkkkkkkkkkkkkkkkkkkkkkkkk",
"kkkkkkkkkkkkkkkkk,:,89q9kkkkkkkkkkkkkkkkkkkkkkkk=@@#;,;@+@#;,8tqq99i0::,,::=;kkkkkkkkkkkkkkkkkkkkkkkkkkkkkkk",
"kkkkkkkkkkkkkkkkk;:,8q9,kkkkkkkkkkkkkkkkkkkkkkkkk;;=:,:@+@#=,9irrrag0:==;=;==kkkkkkkkkkkkkkkkkkkkkkkkkkkkkkk",
"kkkkkkkkkkkkkkkkkk=:99t0kkkkkkkkkkkkkkkkkkkkkkkkkkk##==@+@#:qppiqisd8;;==@#-;kkkkkkkkkkkkkkkkkkkkkkkkkkkkkkk",
"kkkkkkkkkkkkkkkkkk;:0tqq9kkkkkkkkkkkkkkkkkkkkkkkkk;==#@@@##=,9rq,9qq,##=#@++kkkkkkkkkkkkkkkkkkkkkkkkkkkkkkkk",
"kkkkkkkkkkkkkkkkkkk;,,8qq9kkkkkkkkkkkkkkkkkkkkkk::::;;=####===::::,::=@##@+=kkkkkkkkkkkkkkkkkkkkkkkkkkkkkkkk",
"kkkkkkkkkkkkkkkkkkkk;:80tq9kkkkkkkkkkkkkkkkkkkk,8,,::===##;;;:;==::,:=@++X+kkkkkkkkkkkkkkkkkkkkkkkkkkkkkkkkk",
"kkkkkkkkkkkkkkkkkkkk;,q,rtp9kkkkkkkkkkkkkkkkk;:,,,:,:;,,==,,:=#==;:,,;@  X+kkkkkkkkkkkkkkkkkkkkkkkkkkkkkkkkk",
"kkkkkkkkkkkkkkkkkkkkk:,,,qtqkkkkkkkkkkkkkkit1,::,:,,9qqq,:,;#=:=:::,:=+  ++kkkkkkkkkkkkkkkkkkkkkkkkkkkkkkkkk",
"kkkkkkkkkkkkkkkkkkkkk;::,90t9kkkkkkyaafgggdsq:==::==:,,q,:=#=::::,:,:#+++++kkkkkkkkkkkkkkkkkkkkkkkkkkkkkkkkk",
"kkkkkkkkkkkkkkkkkkkkkk;:8990tq9rpsssdsssddsat:#====:::,,99,,,,,,:,,:=@++++@kkkkkkkkkkkkkkkkkkkkkkkkkkkkkkkkk",
"kkkkkkkkkkkkkkkkkkkkkk;=:::9rippdssssspripiq8:##==:,99,,9q998888,,:=#@@+++#kkkkkkkkkkkkkkkkkkkkkkkkkkkkkkkkk",
"kkkkkkkkkkkkkkkkkkkkkkk;=;:8rrrpdsapssirq9,,:=++#=,,999,,99,99q098:;#@@++@;kkkkkkkkkkkkkkkkkkkkkkkkkkkkkkkkk",
"kkkkkkkkkkkkkkkkkkkkkkkk;;:=:,rqiir99,,::=###+  +#,,qqq9q9,,9ritt08;@@@@@=:kkkkkkkkkkkkkkkkkkkkkkkkkkkkkkkkk",
"kkkkkkkkkkkkkkkkkkkkkkkkk;;==:8:;;=;=##@@@++kkkk==,9qttqq9,,qtttqq0:#@@@#;9,kkkkkkkkkkkkkkkkkkkkkkkkkkkkkkkk",
"kkkkkkkkkkkkkkkkkkkkkkkkkkk@====####+@@kkkkkkkkkk;:8rrrq99,,090tq,8,:=##=8q9kkkkkkkkkkkkkkkkkkkkkkkkkkkkkkkk",
"kkkkkkkkkkkkkkkkkkkkkkkkkkkkkkkkkkkkkkkkkkkkkkkkkk;:,,,9999,,809::::,:::,9q9kkkkkkkkkkkkkkkkkkkkkkkkkkkkkkkk",
"kkkkkkkkkkkkkkkkkkkkkkkkkkkkkkkkkkkkkkkkkkkkkkkkkk:;:,999,:::,,:==::,,,,00q9kkkkkkkkkkkkkkkkkkkkkkkkkkkkkkkk",
"kkkkkkkkkkkkkkkkkkkkkkkkkkkkkkkkkkkkkkkkkkkkkkkkkkk;;;:,:=;::::::,,,99qqrtq0kkkkkkkkkkkkkkkkkkkkkkkkkkkkkkkk",
"kkkkkkkkkkkkkkkkkkkkkkkkkkkkkkkkkkkkkkkkkkkkkkkkkkkk@;=##;:,8,,,,,999,,9,88,9kkkkkkkkkkkkkkkkkkkkkkkkkkkkkkk",
"kkkkkkkkkkkkkkkkkkkkkkkkkkkkkkkkkkkkkkkkkkkkkkkkkkkkk;;==,808,,,,:::,99999899kkkkkkkkkkkkkkkkkkkkkkkkkkkkkkk",
"kkkkkkkkkkkkkkkkkkkkkkkkkkkkkkkkkkkkkkkkkkkkkkkkkkkkkk;=:,98::;;:,,,,99qq0899kkkkkkkkkkkkkkkkkkkkkkkkkkkkkkk",
"kkkkkkkkkkkkkkkkkkkkkkkkkkkkkkkkkkkkkkkkkkkkkkkkkkkkkkk:;;,;#####=::,,::::,999kkkkkkkkkkkkkkkkkkkkkkkkkkkkkk",
"kkkkkkkkkkkkkkkkkkkkkkkkkkkkkkkkkkkkkkkkkkkkkkkkkkkkkkkk;;=#=,,::,qqqq,:=:,099kkkkkkkkkkkkkkkkkkkkkkkkkkkkkk",
"kkkkkkkkkkkkkkkkkkkkkkkkkkkkkkkkkkkkkkkkkkkkkkkkkkkkkkkkk=#;,,99,9qqq9:,,,9099kkkkkkkkkkkkkkkkkkkkkkkkkkkkkk",
"kkkkkkkkkkkkkkkkkkkkkkkkkkkkkkkkkkkkkkkkkkkkkkkkkkkkkkkkk===:;===::==:99889rtt9kkkkkkkkkkkkkkkkkkkkkkkkkkkkk",
"kkkkkkkkkkkkkkkkkkkkkkkkkkkkkkkkkkkkkkkkkkkkkkkkkkkkkkkkkk===####=:,qiq,9qq76642kkkkkkkkkkkkkkkkkkkkkkkkkkkk",
"kkkkkkkkkkkkkkkkkkkkkkkkkkkkkkkkkkkkkkkkkkkkkkkkkkkkkkkkkkk;=:,qqqee1::,9677653*kkkkkkkkkkkkkkkkkkkkkkkkkkkk",
"kkkkkkkkkkkkkkkkkkkkkkkkkkkkkkkkkkkkkkkkkkkkkkkkkkkkkkkkkkk::,q9:,,;=,94euueuew>>kkkkkkkkkkkkkkkkkkkkkkkkkkk",
"kkkkkkkkkkkkkkkkkkkkkkkkkkkkkkkkkkkkkkkkkkkkkkkkkkkkkkkkkkk:8,:=##=:>www>***3*2$$kkkkkkkkkkkkkkkkkkkkkkkkkkk",
"kkkkkkkkkkkkkkkkkkkkkkkkkkkkkkkkkkkkkkkkkkkkkkkkkkkkkkkkkkk:::46uuw&&&**&*3465544kkkkkkkkkkkkkkkkkkkkkkkkkkk",
"kkkkkkkkkkkkkkkkkkkkkkkkkkkkkkkkkkkkkkkkkkkkkkkkkkkkkkkkkkk$&&>e>*&**567666554433kkkkkkkkkkkkkkkkkkkkkkkkkkk",
"kkkkkkkkkkkkkkkkkkkkkkkkkkkkkkkkkkkkkkkkkkkkkkkkkkkkkkkkkkkO>>>%**57777665435443*kkkkkkkkkkkkkkkkkkkkkkkkkkk",
"kkkkkkkkkkkkkkkkkkkkkkkkkkkkkkkkkkkkkkkkkkkkkkkkkkkkkkkkkkkO**3*677766653*%&3442*kkkkkkkkkkkkkkkkkkkkkkkkkkk",
"kkkkkkkkkkkkkkkkkkkkkkkkkkkkkkkkkkkkkkkkkkkkkkkkkkkkkkkkkkk%o$&45665554*$$&*3353*kkkkkkkkkkkkkkkkkkkkkkkkkkk",
"kkkkkkkkkkkkkkkkkkkkkkkkkkkkkkkkkkkkkkkkkkkkkkkkkkkkkkkkkkk%$$&4554443&$$%**4332*kkkkkkkkkkkkkkkkkkkkkkkkkkk",
"kkkkkkkkkkkkkkkkkkkkkkkkkkkkkkkkkkkkkkkkkkkkkkkkkkkkkkkkkkk*%$4544443%$$****3*32*kkkkkkkkkkkkkkkkkkkkkkkkkkk",
"kkkkkkkkkkkkkkkkkkkkkkkkkkkkkkkkkkkkkkkkkkkkkkkkkkkkkkkkkk&*%*564443&%%*****3*22*kkkkkkkkkkkkkkkkkkkkkkkkkkk",
"kkkkkkkkkkkkkkkkkkkkkkkkkkkkkkkkkkkkkkkkkkkkkkkkkkkkkkkkkk%*&***%***%&&&****&%*2kkkkkkkkkkkkkkkkkkkkkkkkkkkk",
"kkkkkkkkkkkkkkkkkkkkkkkkkkkkkkkkkkkkkkkkkkkkkkkkkkkkkkkkkk2**&$$&&$$&4554433**34kkkkkkkkkkkkkkkkkkkkkkkkkkkk",
"kkkkkkkkkkkkkkkkkkkkkkkkkkkkkkkkkkkkkkkkkkkkkkkkkkkkkkkkk254*&*3*O$*466654335324kkkkkkkkkkkkkkkkkkkkkkkkkkkk",
"kkkkkkkkkkkkkkkkkkkkkkkkkkkkkkkkkkkkkkkkkkkkkkkkkkkkkkkkk&2***33&O$3456654335&%&kkkkkkkkkkkkkkkkkkkkkkkkkkkk",
"kkkkkkkkkkkkkkkkkkkkkkkkkkkkkkkkkkkkkkkkkkkkkkkkkkkkkkkkk%%*****$.o355665434****kkkkkkkkkkkkkkkkkkkkkkkkkkkk",
"kkkkkkkkkkkkkkkkkkkkkkkkkkkkkkkkkkkkkkkkkkkkkkkkkkkkkkkkk%233***%O.&566654443533kkkkkkkkkkkkkkkkkkkkkkkkkkkk",
"kkkkkkkkkkkkkkkkkkkkkkkkkkkkkkkkkkkkkkkkkkkkkkkkkkkkkkkk*%*44**22$.%4566633433**kkkkkkkkkkkkkkkkkkkkkkkkkkkk",
"kkkkkkkkkkkkkkkkkkkkkkkkkkkkkkkkkkkkkkkkkkkkkkkkkkkkkkkk*%*3**32%O.%*566644422&kkkkkkkkkkkkkkkkkkkkkkkkkkkkk",
"kkkkkkkkkkkkkkkkkkkkkkkkkkkkkkkkkkkkkkkkkkkkkkkkkkkkkkkk&%***&*&%%$%*47766533*%kkkkkkkkkkkkkkkkkkkkkkkkkkkkk",
"kkkkkkkkkkkkkkkkkkkkkkkkkkkkkkkkkkkkkkkkkkkkkkkkkkkkkkkk&&3&&&*&OoO$*67754453%kkkkkkkkkkkkkkkkkkkkkkkkkkkkkk",
"kkkkkkkkkkkkkkkkkkkkkkkkkkkkkkkkkkkkkkkkkkkkkkkkkkkkkkk*&&*%%%**$O*577443*3**&kkkkkkkkkkkkkkkkkkkkkkkkkkkkkk",
"kkkkkkkkkkkkkkkkkkkkkkkkkkkkkkkkkkkkkkkkkkkkkkkkkkkkkkk*%%*%$%&&%&><r<$o%%&*32kkkkkkkkkkkkkkkkkkkkkkkkkkkkkk",
"kkkkkkkkkkkkkkkkkkkkkkkkkkkkkkkkkkkkkkkkkkkkkkkkkkkkkkk&%2&*%%&&&4qqpa0,8,$*3*kkkkkkkkkkkkkkkkkkkkkkkkkkkkkk",
"kkkkkkkkkkkkkkkkkkkkkkkkkkkkkkkkkkkkkkkkkkkkkkkkkkkkkkk&%%$2&$%%*9iipssiqt;o%*kkkkkkkkkkkkkkkkkkkkkkkkkkkkkk",
"kkkkkkkkkkkkkkkkkkkkkkkkkkkkkkkkkkkkkkkkkkkkkkkkkkkkkk*&%O..O$$&*qippppiqt:  %kkkkkkkkkkkkkkkkkkkkkkkkkkkkkk",
"kkkkkkkkkkkkkkkkkkkkkkkkkkkkkkkkkkkkkkkkkkkkkkkkkkkkkk&&$...oOO&,qpdppspr8: okkkkkkkkkkkkkkkkkkkkkkkkkkkkkkk",
"kkkkkkkkkkkkkkkkkkkkkkkkkkkkkkkkkkkkkkkkkkkkkkkkkkkkk*&$O.#=;=OO:qpgppdi8:+Xkkkkkkkkkkkkkkkkkkkkkkkkkkkkkkkk",
"kkkkkkkkkkkkkkkkkkkkkkkkkkkkkkkkkkkkkkkkkkkkkkkkkkkk&%%OO@==@#=$,9ipippa,:t9kkkkkkkkkkkkkkkkkkkkkkkkkkkkkkkk",
"kkkkkkkkkkkkkkkkkkkkkkkkkkkkkkkkkkkkkkkkkkkkkkkkkkkkk&&$;=,:#@@o:,riiirq,0iaqkkkkkkkkkkkkkkkkkkkkkkkkkkkkkkk",
"kkkkkkkkkkkkkkkkkkkkkkkkkkkkkkkkkkkkkkkkkkkkkkkkkkkkkkk;;:,==#@@;:,qr9,,:0aqtq,kkkkkkkkkkkkkkkkkkkkkkkkkkkkk",
"kkkkkkkkkkkkkkkkkkkkkkkkkkkkkkkkkkkkkkkkkkkkkkkkkkkkkkk:;,8,9,;##==,99:=,q08899,kkkkkkkkkkkkkkkkkkkkkkkkkkkk",
"kkkkkkkkkkkkkkkkkkkkkkkkkkkkkkkkkkkkkkkkkkkkkkkkkkkkkkk;:,9qq8:#@@=#=8,===;,,89q9kkkkkkkkkkkkkkkkkkkkkkkkkkk",
"kkkkkkkkkkkkkkkkkkkkkkkkkkkkkkkkkkkkkkkkkkkkkkkkkkkkkkk;;9rir0,#++@=@;,::;:,,,,,tt9kkkkkkkkkkkkkkkkkkkkkkkkk",
"kkkkkkkkkkkkkkkkkkkkkkkkkkkkkkkkkkkkkkkkkkkkkkkkkkkkkkk;,ipir8:@@+kk@@=:=#=::::,,80qq99ttkkkkkkkkkkkkkkkkkkk",
"kkkkkkkkkkkkkkkkkkkkkkkkkkkkkkkkkkkkkkkkkkkkkkkkkkkkkkk;8ipiq,#@+#kkkk@@##@#==;;:,::,9989ikkkkkkkkkkkkkkkkkk",
"kkkkkkkkkkkkkkkkkkkkkkkkkkkkkkkkkkkkkkkkkkkkkkkkkkkkkkk:8qqr9:@@#kkkkkkk#@@@@@@##=:::8999tqkkkkkkkkkkkkkkkkk",
"kkkkkkkkkkkkkkkkkkkkkkkkkkkkkkkkkkkkkkkkkkkkkkkkkkkkkkk;,999,=+@#kkkkkkkkkkk+#++@##==#=90tqkkkkkkkkkkkkkkkkk",
"kkkkkkkkkkkkkkkkkkkkkkkkkkkkkkkkkkkkkkkkkkkkkkkkkkkkkkk;,qq8:#++Xkkkkkkkkkkkkkk@#@@#=#,80tqkkkkkkkkkkkkkkkkk",
"kkkkkkkkkkkkkkkkkkkkkkkkkkkkkkkkkkkkkkkkkkkkkkkkkkkkkkk=:0q8:@++++kkkkkkkkkkkkkkkk#@#,qr090kkkkkkkkkkkkkkkkk",
"kkkkkkkkkkkkkkkkkkkkkkkkkkkkkkkkkkkkkkkkkkkkkkkkkkkkkkk=;,08;@++@+=kkkkkkkkkkkkkkkk=#:9rrq9kkkkkkkkkkkkkkkkk",
"kkkkkkkkkkkkkkkkkkkkkkkkkkkkkkkkkkkkkkkkkkkkkkkkkkkkkkkk;=::=@+@#@#kkkkkkkkkkkkkkkk;==:9ttqkkkkkkkkkkkkkkkkk",
"kkkkkkkkkkkkkkkkkkkkkkkkkkkkkkkkkkkkkkkkkkkkkkkkkkkkkkkkk====#@@#@#kkkkkkkkkkkkkkkk;::8taatkkkkkkkkkkkkkkkkk",
"kkkkkkkkkkkkkkkkkkkkkkkkkkkkkkkkkkkkkkkkkkkkkkkkkkkkkkkkk=#=:#@@###=kkkkkkkkkkkkkkk;,00ttiqkkkkkkkkkkkkkkkkk",
"kkkkkkkkkkkkkkkkkkkkkkkkkkkkkkkkkkkkkkkkkkkkkkkkkkkkkkkkkk====@@@@##kkkkkkkkkkkkkkk;,90taaikkkkkkkkkkkkkkkkk",
"kkkkkkkkkkkkkkkkkkkkkkkkkkkkkkkkkkkkkkkkkkkkkkkkkkkkkkkkkk;===@++++#kkkkkkkkkkkkkkk;:,qitiikkkkkkkkkkkkkkkkk",
"kkkkkkkkkkkkkkkkkkkkkkkkkkkkkkkkkkkkkkkkkkkkkkkkkkkkkkkkkkk===@@++@#kkkkkkkkkkkkkkk;;,qq8qqkkkkkkkkkkkkkkkkk",
"kkkkkkkkkkkkkkkkkkkkkkkkkkkkkkkkkkkkkkkkkkkkkkkkkkkkkkkkkkk@==#@++@+kkkkkkkkkkkkkkk:,:,9,;kkkkkkkkkkkkkkkkkk",
"kkkkkkkkkkkkkkkkkkkkkkkkkkkkkkkkkkkkkkkkkkkkkkkkkkkkkkkkkkkk==#@++@+kkkkkkkkkkkkkkk:,::::kkkkkkkkkkkkkkkkkkk",
"kkkkkkkkkkkkkkkkkkkkkkkkkkkkkkkkkkkkkkkkkkkkkkkkkkkkkkkkkkkk==#@++@+kkkkkkkkkkkkkkkk;;;kkkkkkkkkkkkkkkkkkkkk",
"kkkkkkkkkkkkkkkkkkkkkkkkkkkkkkkkkkkkkkkkkkkkkkkkkkkkkkkkkkkkk;=###@+kkkkkkkkkkkkkkkkkkkkkkkkkkkkkkkkkkkkkkkk",
"kkkkkkkkkkkkkkkkkkkkkkkkkkkkkkkkkkkkkkkkkkkkkkkkkkkkkkkkkkkkk====;=#kkkkkkkkkkkkkkkkkkkkkkkkkkkkkkkkkkkkkkkk",
"kkkkkkkkkkkkkkkkkkkkkkkkkkkkkkkkkkkkkkkkkkkkkkkkkkkkkkkkkkkkkk=;=::;;kkkkkkkkkkkkkkkkkkkkkkkkkkkkkkkkkkkkkkk",
"kkkkkkkkkkkkkkkkkkkkkkkkkkkkkkkkkkkkkkkkkkkkkkkkkkkkkkkkkkkkkk;=:,,,:kkkkkkkkkkkkkkkkkkkkkkkkkkkkkkkkkkkkkkk",
"kkkkkkkkkkkkkkkkkkkkkkkkkkkkkkkkkkkkkkkkkkkkkkkkkkkkkkkkkkkkkk@==:,8,:kkkkkkkkkkkkkkkkkkkkkkkkkkkkkkkkkkkkkk",
"kkkkkkkkkkkkkkkkkkkkkkkkkkkkkkkkkkkkkkkkkkkkkkkkkkkkkkkkkkkkkkk;=:,89:kkkkkkkkkkkkkkkkkkkkkkkkkkkkkkkkkkkkkk",
"kkkkkkkkkkkkkkkkkkkkkkkkkkkkkkkkkkkkkkkkkkkkkkkkkkkkkkkkkkkkkkk@=:,,8,kkkkkkkkkkkkkkkkkkkkkkkkkkkkkkkkkkkkkk",
"kkkkkkkkkkkkkkkkkkkkkkkkkkkkkkkkkkkkkkkkkkkkkkkkkkkkkkkkkkkkkkk:;,9889,kkkkkkkkkkkkkkkkkkkkkkkkkkkkkkkkkkkkk",
"kkkkkkkkkkkkkkkkkkkkkkkkkkkkkkkkkkkkkkkkkkkkkkkkkkkkkkkkkkkkkkk@;:,,899kkkkkkkkkkkkkkkkkkkkkkkkkkkkkkkkkkkkk",
"kkkkkkkkkkkkkkkkkkkkkkkkkkkkkkkkkkkkkkkkkkkkkkkkkkkkkkkkkkkkkkk:;::,0tq,kkkkkkkkkkkkkkkkkkkkkkkkkkkkkkkkkkkk",
"kkkkkkkkkkkkkkkkkkkkkkkkkkkkkkkkkkkkkkkkkkkkkkkkkkkkkkkkkkkkkk@;,ppiitq9kkkkkkkkkkkkkkkkkkkkkkkkkkkkkkkkkkkk",
"kkkkkkkkkkkkkkkkkkkkkkkkkkkkkkkkkkkkkkkkkkkkkkkkkkkkkkkkkkkk;:9taipaa899kkkkkkkkkkkkkkkkkkkkkkkkkkkkkkkkkkkk",
"kkkkkkkkkkkkkkkkkkkkkkkkkkkkkkkkkkkkkkkkkkkkkkkkkkkkkkkkkk;:8qpppirtt9qqkkkkkkkkkkkkkkkkkkkkkkkkkkkkkkkkkkkk",
"kkkkkkkkkkkkkkkkkkkkkkkkkkkkkkkkkkkkkkkkkkkkkkkkkkkkkkkkk:8irpitt0,:,9q9kkkkkkkkkkkkkkkkkkkkkkkkkkkkkkkkkkkk",
"kkkkkkkkkkkkkkkkkkkkkkkkkkkkkkkkkkkkkkkkkkkkkkkkkkkkkkkkk:88::=;:,:#;;@kkkkkkkkkkkkkkkkkkkkkkkkkkkkkkkkkkkkk",
"kkkkkkkkkkkkkkkkkkkkkkkkkkkkkkkkkkkkkkkkkkkkkkkkkkkkkkkkkkkkkkkkkkkkkkkkkkkkkkkkkkkkkkkkkkkkkkkkkkkkkkkkkkkk",
"kkkkkkkkkkkkkkkkkkkkkkkkkkkkkkkkkkkkkkkkkkkkkkkkkkkkkkkkkkkkkkkkkkkkkkkkkkkkkkkkkkkkkkkkkkkkkkkkkkkkkkkkkkkk"
};
