/* XPM */
static char *_644325361182[] = {
/* columns rows colors chars-per-pixel */
"108 116 43 1 ",
"  c black",
". c gray3",
"X c #160A0A",
"o c #101010",
"O c #181818",
"+ c #210F0F",
"@ c #311717",
"# c #3D1F1B",
"$ c #202020",
"% c #282828",
"& c gray19",
"* c gray22",
"= c #4C241C",
"- c #583C10",
"; c #5A2F26",
": c #653A2B",
"> c #613E2F",
", c #74402C",
"< c #714A37",
"1 c #7D573B",
"2 c gray25",
"3 c #484848",
"4 c #505050",
"5 c #585858",
"6 c #606060",
"7 c #686868",
"8 c gray44",
"9 c #854E33",
"0 c #8A5236",
"q c #8D5A3B",
"w c #945B3C",
"e c #8D6643",
"r c #986340",
"t c #9D6E4B",
"y c #A1724F",
"u c #A57853",
"i c #AC825C",
"p c #AD8963",
"a c #B18E6F",
"s c #B39575",
"d c #B29A7E",
"f c #B8A288",
"g c None",
/* pixels */
"gggggggggggggggggggggggggggggggggggggggggggggggggggggggggggggggggggggggggggggggggggggggggggggggggggggggggggg",
"gggggggggggggggggggggggggggggggggggggggggggggggggggggggggggggggggggggggggggggggggggggggggggggggggggggggggggg",
"gggggggggggggggggggggggggggggggggggggggggggggggggggggggggggggggggggggggggggggggggggggggggggggggggggggggggggg",
"gggggggggggggggggggggggggggggggggg0ttqgggggggggggggggggggggggggggggggggggggggggggggggggggggggggggggggggggggg",
"gggggggggggggggggggggggggggggggg0yiiiaaygggggggggggggggggggggggggggggggggggggggggggggggggggggggggggggggggggg",
"ggggggggggggggggggggggggggggggg:wwq,9qifa0;;,0,:,,gggggggggggggggggggggggggggggggggggggggggggggggggggggggggg",
"gggggggggggggggggggggggggggggggggggg#;,ifaw9,,,::;;:gggggggggggggggggggggggggggggggggggggggggggggggggggggggg",
"gggggggggggggggggggggggggggggggggggg=;:,ussy00,,:==,,ggggggggggggggggggggggggggggggggggggggggggggggggggggggg",
"ggggggggggggggggggggggggggggggggggg;;,,:,afaprq,;::09:gggggggggggggggggggggggggggggggggggggggggggggggggggggg",
"gggggggggggggggggggggggggggggggggg:ipi:=,,uafdi,=,:=::gggggggggggggggggggggggggggggggggggggggggggggggggggggg",
"gggggggggggggggggggggggggggggggggg:yt,=9q,0uassp0,==::@ggggggggggggggggggggggggggggggggggggggggggggggggggggg",
"gggggggggggggggggggggggggggggggggggggg;0009wyafffu,,09=ggggggggggggggggggggggggggggggggggggggggggggggggggggg",
"gggggggggggggggggggggggggggggggggggggg=,,,,,pdaaffdiw9;ggggggggggggggggggggggggggggggggggggggggggggggggggggg",
"gggggggggggggggggggggggggggggggggggggg;,,w990aapdffsit;ggggggggggggggggggggggggggggggggggggggggggggggggggggg",
"ggggggggggggggggggggggggggggggggggggggg=:w,,:,ippadddit;gggggggggggggggggggggggggggggggggggggggggggggggggggg",
"ggggggggggggggggggggggggggggggggggggggg=#w9==;;,wyyafayyqggggggggggggggggggggggggggggggggggggggggggggggggggg",
"gggggggggggggggggggggggggggggggggggggggg#0u9:,,=:tyypdsii0gggggggggggggggggggggggggggggggggggggggggggggggggg",
"gggggggggggggggggggggggggggggggggggggggg=,yw,00:=:yuyupsai000ggggggggggggggggggggggggggggggggggggggggggggggg",
"gggggggggggggggggggggggggggggggggggggggg=##:0::=#=;,wywyupdait0ggggggggggggggggggggggggggggggggggggggggggggg",
"ggggggggggggggggggggggggggggggggggggggggg=####=:=#=:,0,:,0ryuiytqggggggggggggggggggggggggggggggggggggggggggg",
"gggggggggggggggggggggggggggggggggggggggggg@@=::=#==;,9,::99qtuuiiygggggggggggggggggggggggggggggggggggggggggg",
"ggggggggggggggggggggggggggggggggggggggggggg=#=,=###;::::::,,,9qttiyggggggggggggggggggggggggggggggggggggggggg",
"ggggggggggggg;0gggggggggggggggggggggggggggg=#@##@@#:9rt,=::,:,,:9tyqgggggggggggggggggggggggggggggggggggggggg",
"gggggggggggg,y;ggggggggggggggggggggggggggg@@;==##==,9wrr,;=@===;;:,;gggggggggggggggggggggggggggggggggggggggg",
"ggggggggggg:t0#@@;qggggggggggggggggggggg:,99,::##;;:,,,wy9=@@@@===;#gggggggggggggggggggggggggggggggggggggggg",
"ggggggggggg,9=@:,tqgggggggggggggggggggg:,0,:::#=:;:,9wyr9;;=@@@@==@;gggggggggggggggggggggggggggggggggggggggg",
"gggggggggg;9;#=0t:#ggggggggggggggggggg;,:9,,,,,qq99wyt9;#===@++++#@;gggggggggggggggggggggggggggggggggggggggg",
"gggggggggg;,:#;0y;ggggggggggggggggggg;,::,:::,,,,0,::;;=#==;=#++++@ggggggggggggggggggggggggggggggggggggggggg",
"gggggggggg;::,0wq;gggggggggggggggggg:9,:;;=;====::##=;;==:::;#+  +#ggggggggggggggggggggggggggggggggggggggggg",
"ggggggggggg::,,wq0gggggggggggggggg99tq,;#===:=========;;::;;=++ ++=ggggggggggggggggggggggggggggggggggggggggg",
"gggggggggggg=;9qtt0gggggggggggggyut0:,==@##::=========::::;=#++++@;ggggggggggggggggggggggggggggggggggggggggg",
"ggggggggggggg=;90wyqggggggggggupppy,=#=@++#::::====::::,::======@@:ggggggggggggggggggggggggggggggggggggggggg",
"gggggggggggggg#=;9wytgggggggtupdpur,=@@+  #::,,;==:,,,,,:;;=;::=#=:ggggggggggggggggggggggggggggggggggggggggg",
"ggggggggggggggg@=,9tyy0ggggtppapuyw,;+++ +=::,:;=#=,,,,,;=;;:,,:=::ggggggggggggggggggggggggggggggggggggggggg",
"gggggggggggggggg#;:,rty0gqupappuur9:#+Xggg;;::::;==,,,,:;:,::::::,:ggggggggggggggggggggggggggggggggggggggggg",
"ggggggggggggggggg=;,0writyuppuyrt9:=Xgggggg;,:::;=;,,:::=::::=:,,90ggggggggggggggggggggggggggggggggggggggggg",
"ggggggggggggggggg==;,,0wyuuppr09:=@+ggggggg==;:;=#=;::;=:::,::,09000gggggggggggggggggggggggggggggggggggggggg",
"gggggggggggggggggg==;::,ryrw99:=#+gggggggggg;=;=###======;:,,,,,000;gggggggggggggggggggggggggggggggggggggggg",
"ggggggggggggggggggg===::999,;##@gggggggggggg@;=#===:::::,00wqqqwr00;gggggggggggggggggggggggggggggggggggggggg",
"gggggggggggggggggggg==:;==:@@@ggggggggggggggg@=#::,,,,,::,,0,,0w0,:;gggggggggggggggggggggggggggggggggggggggg",
"ggggggggggggggggggggg@==#+@gggggggggggggggggg@;::,,:::::::::,,,,,,,;gggggggggggggggggggggggggggggggggggggggg",
"gggggggggggggggggggggggggggggggggggggggggggggg@;;:==###=:::,,,,,,99;gggggggggggggggggggggggggggggggggggggggg",
"gggggggggggggggggggggggggggggggggggggggggggggg@;;;#=:;==::::;::::,,,;ggggggggggggggggggggggggggggggggggggggg",
"ggggggggggggggggggggggggggggggggggggggggggggggg@;#=:,w,,0ww0,:=#=:0,;ggggggggggggggggggggggggggggggggggggggg",
"gggggggggggggggggggggggggggggggggggggggggggggggg;==:;:::,000,::;,999,ggggggggggggggggggggggggggggggggggggggg",
"ggggggggggggggggggggggggggggggggggggggggggggggggg;=#####==#==:,:,9q00;gggggggggggggggggggggggggggggggggggggg",
"gggggggggggggggggggggggggggggggggggggggggggggggggg===::=:,9rq:;:9qrrrw0ggggggggggggggggggggggggggggggggggggg",
"gggggggggggggggggggggggggggggggggggggggggggggggggg=,rww00999,::qrywr664ggggggggggggggggggggggggggggggggggggg",
"gggggggggggggggggggggggggggggggggggggggggggggggggg;::,:=::==;,0www666543gggggggggggggggggggggggggggggggggggg",
"gggggggggggggggggggggggggggggggggggggggggggggggggg%3*=:=###,00ww567eee<>gggggggggggggggggggggggggggggggggggg",
"gggggggggggggggggggggggggggggggggggggggggggggggggg->e6wyrww7875ee1e*&%%2gggggggggggggggggggggggggggggggggggg",
"ggggggggggggggggggggggggggggggggggggggggggggggggggO%>>e7787e111>&%%*4534gggggggggggggggggggggggggggggggggggg",
"gggggggggggggggggggggggggggggggggggggggggggggggggg$&*&>eee>>&%****4456342ggggggggggggggggggggggggggggggggggg",
"gggggggggggggggggggggggggggggggggggggggggggggggggg$$3**&%%&*57777643*3542ggggggggggggggggggggggggggggggggggg",
"ggggggggggggggggggggggggggggggggggggggggggggggggg&$%%*3**556776533*3*5442ggggggggggggggggggggggggggggggggggg",
"gggggggggggggggggggggggggggggggggggggggggggggggg*&%%o$&4445533333*****333ggggggggggggggggggggggggggggggggggg",
"gggggggggggggggggggggggggggggggggggggggggggggggg&*%O.O$33443***33******22ggggggggggggggggggggggggggggggggggg",
"ggggggggggggggggggggggggggggggggggggggggggggggg%&552%O&64333333**&&&&***&ggggggggggggggggggggggggggggggggggg",
"gggggggggggggggggggggggggggggggggggggggggggggg&%353453455*******&&&&%&***ggggggggggggggggggggggggggggggggggg",
"gggggggggggggggggggggggggggggggggggggggggggggg%%333444&*3&&*****&&&%&*&3*&gggggggggggggggggggggggggggggggggg",
"ggggggggggggggggggggggggggggggggggggggggggggg%%233****%O.$*****&&&%%%%&&%%gggggggggggggggggggggggggggggggggg",
"gggggggggggggggggggggggggggggggggggggggggggg%$33*******&$$$%&&%%%$$$%%%&&&*ggggggggggggggggggggggggggggggggg",
"ggggggggggggggggggggggggggggggggggggggggggg%$&*%*4**&%*33&O$****&%$$%&&&*%%ggggggggggggggggggggggggggggggggg",
"ggggggggggggggggggggggggggggggggggggggggg$$oo&riai**&o$&*%O$%*3443**&**&*2&gggggggggggggttqggggggggggggggggg",
"gggggggggggggggggggggggggggggggggggggggggo$&0ypaaa9Oo....oo.$$*33***&**&&*%*gggggggggggquiytgggggggggggggggg",
"gggggggggggggggggggggggggggggggggggggggg&$*yppuuuur$O%%o    .o%*333**&&*&&**ggggggggggg0rr0wyggggggggggggggg",
"ggggggggggggggggggggggggggggggggggggggggg9ryyuuyyy,&&%$o%O    O&3433**&&&&**3gggggggggg0y,,qttgggggggggggggg",
"ggggggggggggggggggggggggggggggggggggggggyuuuuyrrrr:$%%$OOooggg.$&*3333*&&&*&2ggggggggggr0,,0rwqggggggggggggg",
"gggggggggggggggggggggggggggggggggggggggupppuuwwrq0: .$%OoggggggO$&*3333**&&2*ggggggggg9w,,,0,990gggggggggggg",
"ggggggggggggggggggggggggggggggggggggguapuuywwwwyq9;  O%Oggggggg%o$&**33**%%2*3ggggggg9w,,,0,:;,0qggggggggggg",
"ggggggggggggggggggggggggggggggggggggpapppyw,wyw9==#  .$gggggggggO$$%&*3****3&*ggggggqtq00w9=##:0tqgggggggggg",
"ggggggggggggggggggggggggggggggggggguapaay00rww9;:@o   gggggggggg$$O$$&3*2232&&2ggggqtrttt9=@##=:,0gggggggggg",
"gggggggggggggggggggggggggggggggggggupaau0,0qqq99;@o .ggggggggggggO.  o&*33***&*90qiiyyytw:@+++@#=:gggggggggg",
"gggggggggggggggggggggggggggggggggggyuyyw,9999:::gg$OgggggggggggggO    .$$$&$$&*,ruiiyttt0@gg ++#@@gggggggggg",
"gggggggggggggggggggggggggggggggggggwyrw00w0:@@@ggg&gggggggggggggggo   ..O*3&oo#9yuiiyytw;gggX +++ggggggggggg",
"ggggggggggggggggggggggggggggggggggqwyuurtt:#gggggggggggggggggggggg%o   .O%&%;@#,wyyyyww;gggggXXXgggggggggggg",
"ggggggggggggggggggggggggggggggggggwwuuuuit;;ggggggggggggggggggggggg%......@#:::,,0rtww0ggggggggggggggggggggg",
"gggggggggggggggggggggggggggggggggqyyuyuppt0;gggggggggggggggggggggggg%ggOo@@#=:0,:,9tw,gggggggggggggggggggggg",
"gggggggggggggggggggggggggggggggggtuyuuuaiw0;gggggggggggggggggggggggggggg@@##=:9,::,t0ggggggggggggggggggggggg",
"gggggggggggggggggggggggggggggggggyuuuiaiw0;ggggggggggggggggggggggggggggg#@##==,,;#:0:ggggggggggggggggggggggg",
"ggggggggggggggggggggggggggggggggguuyuuttw0;gggggggggggggggggggggggggggggg++#==,9:#+=gggggggggggggggggggggggg",
"ggggggggggggggggggggggggggggggggguwryw0wt;gggggggggggggggggggggggggggggggg@+@==,9:+ggggggggggggggggggggggggg",
"ggggggggggggggggggggggggggggggggguwrw0rw,#gggggggggggggggggggggggggggggggggg+@+#;@gggggggggggggggggggggggggg",
"ggggggggggggggggggggggggggggggggqyrrqww0;ggggggggggggggggggggggggggggggggggggggggggggggggggggggggggggggggggg",
"ggggggggggggggggggggggggggggggggquyutt0;gggggggggggggggggggggggggggggggggggggggggggggggggggggggggggggggggggg",
"ggggggggggggggggggggggggggggggggqyuiw0,#gggggggggggggggggggggggggggggggggggggggggggggggggggggggggggggggggggg",
"ggggggggggggggggggggggggggggggggryiiw0@ggggggggggggggggggggggggggggggggggggggggggggggggggggggggggggggggggggg",
"ggggggggggggggggggggggggggggggggyuuw0#gggggggggggggggggggggggggggggggggggggggggggggggggggggggggggggggggggggg",
"ggggggggggggggggggggggggggggggg,yutw;@gggggggggggggggggggggggggggggggggggggggggggggggggggggggggggggggggggggg",
"ggggggggggggggggggggggggggggggg0yyt0#ggggggggggggggggggggggggggggggggggggggggggggggggggggggggggggggggggggggg",
"gggggggggggggggggggggggggggggg9tiiy,@ggggggggggggggggggggggggggggggggggggggggggggggggggggggggggggggggggggggg",
"gggggggggggggggggggggggggggggg,piyt:gggggggggggggggggggggggggggggggggggggggggggggggggggggggggggggggggggggggg",
"ggggggggggggggggggggggggggggg;wuii0;gggggggggggggggggggggggggggggggggggggggggggggggggggggggggggggggggggggggg",
"gggggggggggggggggggggggggggg;9uuyt0;gggggggggggggggggggggggggggggggggggggggggggggggggggggggggggggggggggggggg",
"gggggggggggggggggggggyyit09:qpuutt0;gggggggggggggggggggggggggggggggggggggggggggggggggggggggggggggggggggggggg",
"ggggggggggggggggggg:99:,,0yiuuupytw;gggggggggggggggggggggggggggggggggggggggggggggggggggggggggggggggggggggggg",
"ggggggggggggggggggg;#@@@#=,,,,yrqwq;gggggggggggggggggggggggggggggggggggggggggggggggggggggggggggggggggggggggg",
"gggggggggggggggggggg@##++@#:,,,ww0;ggggggggggggggggggggggggggggggggggggggggggggggggggggggggggggggggggggggggg",
"gggggggggggggggggggggggg+++@##:9wy0ggggggggggggggggggggggggggggggggggggggggggggggggggggggggggggggggggggggggg",
"ggggggggggggggggggggggggggg++@=;,w0ggggggggggggggggggggggggggggggggggggggggggggggggggggggggggggggggggggggggg",
"ggggggggggggggggggggggggggggg@++#=gggggggggggggggggggggggggggggggggggggggggggggggggggggggggggggggggggggggggg",
"gggggggggggggggggggggggggggggggggggggggggggggggggggggggggggggggggggggggggggggggggggggggggggggggggggggggggggg",
"gggggggggggggggggggggggggggggggggggggggggggggggggggggggggggggggggggggggggggggggggggggggggggggggggggggggggggg",
"gggggggggggggggggggggggggggggggggggggggggggggggggggggggggggggggggggggggggggggggggggggggggggggggggggggggggggg",
"gggggggggggggggggggggggggggggggggggggggggggggggggggggggggggggggggggggggggggggggggggggggggggggggggggggggggggg",
"gggggggggggggggggggggggggggggggggggggggggggggggggggggggggggggggggggggggggggggggggggggggggggggggggggggggggggg",
"gggggggggggggggggggggggggggggggggggggggggggggggggggggggggggggggggggggggggggggggggggggggggggggggggggggggggggg",
"gggggggggggggggggggggggggggggggggggggggggggggggggggggggggggggggggggggggggggggggggggggggggggggggggggggggggggg",
"gggggggggggggggggggggggggggggggggggggggggggggggggggggggggggggggggggggggggggggggggggggggggggggggggggggggggggg",
"gggggggggggggggggggggggggggggggggggggggggggggggggggggggggggggggggggggggggggggggggggggggggggggggggggggggggggg",
"gggggggggggggggggggggggggggggggggggggggggggggggggggggggggggggggggggggggggggggggggggggggggggggggggggggggggggg",
"gggggggggggggggggggggggggggggggggggggggggggggggggggggggggggggggggggggggggggggggggggggggggggggggggggggggggggg",
"gggggggggggggggggggggggggggggggggggggggggggggggggggggggggggggggggggggggggggggggggggggggggggggggggggggggggggg",
"gggggggggggggggggggggggggggggggggggggggggggggggggggggggggggggggggggggggggggggggggggggggggggggggggggggggggggg",
"gggggggggggggggggggggggggggggggggggggggggggggggggggggggggggggggggggggggggggggggggggggggggggggggggggggggggggg",
"gggggggggggggggggggggggggggggggggggggggggggggggggggggggggggggggggggggggggggggggggggggggggggggggggggggggggggg"
};
