/* XPM */
static char *_644325646425[] = {
/* columns rows colors chars-per-pixel */
"108 116 50 1 ",
"  c black",
". c gray3",
"X c #160A0A",
"o c #101010",
"O c #181818",
"+ c #210F0F",
"@ c #311717",
"# c #3D1F1B",
"$ c #202020",
"% c #282828",
"& c gray19",
"* c gray22",
"= c #4C241C",
"- c #452723",
"; c #5A2F26",
": c #5C2C24",
"> c #6A362E",
", c #653A2B",
"< c #613E2F",
"1 c #65471B",
"2 c #74402C",
"3 c #714A37",
"4 c #7D573B",
"5 c gray25",
"6 c #484848",
"7 c #505050",
"8 c #585858",
"9 c #606060",
"0 c #686868",
"q c gray44",
"w c #854E33",
"e c #805430",
"r c #8A5236",
"t c #8D5A3B",
"y c #945B3C",
"u c #8D6643",
"i c #986340",
"p c #9D6E4B",
"a c #9A6E4E",
"s c #96734A",
"d c #A1724F",
"f c #A57853",
"g c #A67E5A",
"h c #AC825C",
"j c #AD8963",
"k c #B18E6F",
"l c #B39575",
"z c #B29A7E",
"x c #B8A288",
"c c None",
/* pixels */
"cccccccccccccccccccccccccccccccccccccccccccccccccccccccccccccccccccccccccccccccccccccccccccccccccccccccccccc",
"cccccccccccccccccccccccccccccccccccccccccccccccccccccccccccccccccccccccccccccccccccccccccccccccccccccccccccc",
"cccccccccccccccccccccccccccccccccccccccccccccccccccccccccccccccccccccccccccccccccccccccccccccccccccccccccccc",
"cccccccccccccccccccccccccccccccccccccccccccccccccccccccccccccccccccccccccccccccccccccccccccccccccccccccccccc",
"cccccccccccccccccccccccccccccccccccccccccccccccccccccccccccccccccccccccccccccccccccccccccccccccccccccccccccc",
"cccccccccccccccccccccccccccccccccccccccccccccccccccccccwtrrw2ccccccccccccccccccccccccccccccccccccccccccccccc",
"ccccccccccccccccccccccccccccccccccccccccccccccccccccc22rrrrrry,ccccccccccccccccccccccccccccccccccccccccccccc",
"cccccccccccccccccccccccccccccccccccccccccccccccccccc,,2rydfddfy;cccccccccccccccccccccccccccccccccccccccccccc",
"ccccccccccccccccccccccccccccccccccccccccccccccccccc2,;wpjxzkhfpwcccccccccccccccccccccccccccccccccccccccccccc",
"ccccccccccccccccccccccccccccccccccccccccccccccccccc,2,,dzzkkfdiw;ccccccccccccccccccccccccccccccccccccccccccc",
"cccccccccccccccccccccccccccccccccccccccccccccccccc;=,;,ykkkjdyyt,ccccccccccccccccccccccccccccccccccccccccccc",
"cccccccccccccccccccccccccccccccccccccccccccccccccc2,==,ykhdidd22,ccccccccccccccccccccccccccccccccccccccccccc",
"cccccccccccccccccccccccccccccccccccccccccccccccccctw==2ydir2id22,ccccccccccccccccccccccccccccccccccccccccccc",
"cccccccccccccccccccccccccccccccccccccccccccccccccc;w=,yiyr;2ip;,,ccccccccccccccccccccccccccccccccccccccccccc",
"ccccccccccccccccccccccccccccccccccccccccccccccccccrt=2diw2rdkd2w,ccccccccccccccccccccccccccccccccccccccccccc",
"cccccccccccccccccccccccccccccccccccccccccccccccccccr,2yyyyyidpr2;ccccccccccccccccccccccccccccccccccccccccccc",
"ccccccccccccccccccccccccccccccccccccccccccccccccccc;,222rtwy;=,,;ccccccccccccccccccccccccccccccccccccccccccc",
"ccccccccccccccccccccccccccccccccccccccccccccccccccc;2:=#,,;==#=;cccccccccccccccccccccccccccccccccccccccccccc",
"cccccccccccccccccccccccccccccccccccccccccccccccccccc2=#=,,;,===;cccccccccccccccccccccccccccccccccccccccccccc",
"cccccccccccccccccccccccccccccccccccccccccccccccccccc;2;#=,2222,ccccccccccccccccccccccccccccccccccccccccccccc",
"cccccccccccccccccccccccccccccccccccccccccccccccccccc22;==,,,,=;ccccccccccccccccccccccccccccccccccccccccccccc",
"cccccccccccccccccccccccccccccccccccccccccccccccccccc,,,#=;#=;;cccccccccccccccccccccccccccccccccccccccccccccc",
"ccccccccccccccccccccccccccccccccccccccccccccccccccccry2###@=;ccccccccccccccccccccccccccccccccccccccccccccccc",
"ccccccccccccccccccccccccccccccccccccccccccccccccccctddydw;;@=ccccccccccccccccccccccccccccccccccccccccccccccc",
"cccccccccccccccccccccccccccccccccccccccccdkxzkkdidfdhhiyrddwtdfhkjjzzzlccccccccccccccccccccccccccccccccccccc",
"cccccccccccccccccccccccccccccccccccccccdkxxxzkjfffjkkfyyfjjkkkhdhklkzkkkkccccccccccccccccccccccccccccccccccc",
"ccccccccccccccccccccccccccccccccccccccpkxllklkfyyyifhhklkffiiiiddifjjjkffjcccccccccccccccccccccccccccccccccc",
"cccccccccccccccccccccccccccccccccccccdkzjjljkfdydjjdyykljfffdffffyyddfffjjpccccccccccccccccccccccccccccccccc",
"ccccccccccccccccccccccccccccccccccccdkzfdfkjkjffjklkjfjjjjjjjjjjfdydfddfhjftcccccccccccccccccccccccccccccccc",
"ccccccccccccccccccccccccccccccccccchhzkywwyfkkkkkkkkkkkkjjjlxxlkjfiiywwydhkjcccccccccccccccccccccccccccccccc",
"cccccccccccccccccccccccccccccccccchhllft2=,pkkzzkkkkkklkkkklxxkkkjfiw;,2tpjjwccccccccccccccccccccccccccccccc",
"ccccccccccccccccccccccccccccccccchhlzkpt,##rdhzzkzlkkkkkkjjkkkzklkfy;@=,wpfjiccccccccccccccccccccccccccccccc",
"ccccccccccccccccccccccccccccccccfhkzzjdr=##;pdhkzzxxkkhffkkkkkklkji2=@#,thkkjtcccccccccccccccccccccccccccccc",
"cccccccccccccccccccccccccccccccfhkkzjjd2#@c#,ydhllkkffddfjjkkkjkfiw;@##,ykxjfdcccccccccccccccccccccccccccccc",
"ccccccccccccccccccccccccccccccfhkkkjffw=@ccc@wypikkfddydyyijkkfii2,=@;c@rdxkffwccccccccccccccccccccccccccccc",
"cccccccccccccccccccccccccccccdhjhffddr=;cccc#2wyrydddiryy2rrriy22,#==cc#rplkffyccccccccccccccccccccccccccccc",
"ccccccccccccccccccccccccccccfhdffyiy2;=cccccc,wrrrrryrryyryiyr2rr2===ccc;pjzkfd,cccccccccccccccccccccccccccc",
"cccccccccccccccccccccccccccdhdddiy2;==ccccccc;wr2r2riydiffffdir2rr,==ccc;ydhljfrcccccccccccccccccccccccccccc",
"ccccccccccccccccccccccccccpdpypyw,#=;cccccccc:ryiiiiidfddjkkjjjdir2,;ccccwphjjff2ccccccccccccccccccccccccccc",
"ccccccccccccccccccccccccctpytww,;==;ccccccccc>ryiyryiyyyiidhfyryyiy2,cccc#wypffjd;cccccccccccccccccccccccccc",
"cccccccccccccccccccccccc;ddhp22,;=ccccccccccccrwrriyir,22rrriirr,,,=cccccc,2wydkjtcccccccccccccccccccccccccc",
"ccccccccccccccccccccccccthhkki,==cccccccccccccrtyiry2r2yidyyrriiy2,=ccccccc,2rijjhwccccccccccccccccccccccccc",
"ccccccccccccccccccccccccrdhkzj2=ccccccccccccccryyy2rfdfffdfdiyyii22;ccccccc,,wdjjjpccccccccccccccccccccccccc",
"cccccccccccccccccccccccc2ydlkkf2ccccccccccccccrrwyydfffdyiiiiir,,,,;cccccccc,rhkkkd,cccccccccccccccccccccccc",
"cccccccccccccccccccccccc,2rdkkkkzhpcccccccccccc,wyiydffir222rr2,=#=ccccccccccpkzkfy;cccccccccccccccccccccccc",
"ccccccccccccccccccccccccc;2rdkkkdpljccccccccccc-,w2,rrrr2yidiy22,=;ccccccccccpkljfr;cccccccccccccccccccccccc",
"cccccccccccccccccccccccccc;,rpfkki,fpcccccccccc>2rtdffffdkkkjffdr=;ccccccccccthklf2;cccccccccccccccccccccccc",
"ccccccccccccccccccccccccccc,rydiilf,,ccccccccccrrypffjzjriffyrr22;=ccccccccccthkky2=cccccccccccccccccccccccc",
"ccccccccccccccccccccccccccccyytiiyd,cccccccccccryyyyy2r2=,2222,,yy,cccccccccfhhldw,;cccccccccccccccccccccccc",
"ccccccccccccccccccccccccccccc2rtyy2;cccccccccc2344444rryryfdyyrryyr,ccccccc;trplp2;ccccccccccccccccccccccccc",
"cccccccccccccccccccccccccccccc,,=,=ccccccccccc*555<<34uuuu4r22ry8*&%ccccccccctkjfw=ccccccccccccccccccccccccc",
"cccccccccccccccccccccccccccccccccccccccccccccc6566*679qqqq87uau*&%%$ccccccccdzhitw;ccccccccccccccccccccccccc",
"cccccccccccccccccccccccccccccccccccccccccccccc%$%&&*****<u44uue<<<<<%cccccccthditw;ccccccccccccccccccccccccc",
"ccccccccccccccccccccccccccccccccccccccccccccccuuaggggsuau4441$44*&&5%ccccccc;rrwrwcccccccccccccccccccccccccc",
"ccccccccccccccccccccccccccccccccccccccccccccc67799890q9009<4%$&4*&&5%ccccccc;;222,cccccccccccccccccccccccccc",
"ccccccccccccccccccccccccccccccccccccccccccccc5556879900099u4**64u**5%cccccccc#@,,ccccccccccccccccccccccccccc",
"ccccccccccccccccccccccccccccccccccccccccccccc5*5678999000auu7666uu**%&cccccccccccccccccccccccccccccccccccccc",
"ccccccccccccccccccccccccccccccccccccccccccccc*****6788996<uu6666uu**%&cccccccccccccccccccccccccccccccccccccc",
"cccccccccccccccccccccccccccccccccccccccccccc5*5***67787%*&1$*774usu6*%cccccccccccccccccccccccccccccccccccccc",
"cccccccccccccccccccccccccccccccccccccccccccc*&5**667777*&$%*7664usa785%ccccccccccccccccccccccccccccccccccccc",
"cccccccccccccccccccccccccccccccccccccccccccc*&&**6666777778998876&&686%ccccccccccccccccccccccccccccccccccccc",
"cccccccccccccccccccccccccccccccccccccccccccc**5%&*6**6**5576778887889*%ccccccccccccccccccccccccccccccccccccc",
"ccccccccccccccccccccccccccccccccccccccccccc5556*679876*%$%**6789788885%ccccccccccccccccccccccccccccccccccccc",
"ccccccccccccccccccccccccccccccccccccccccccc667898887**&$$O567790976678%&cccccccccccccccccccccccccccccccccccc",
"ccccccccccccccccccccccccccccccccccccccccccc78999877**&%$O%666678766*7*%&cccccccccccccccccccccccccccccccccccc",
"ccccccccccccccccccccccccccccccccccccccccccc78898887*&$$$O%566**666****5%cccccccccccccccccccccccccccccccccccc",
"cccccccccccccccccccccccccccccccccccccccccc57089876*&%$.o.o%6***********%&ccccccccccccccccccccccccccccccccccc",
"cccccccccccccccccccccccccccccccccccccccccc7799876*%$%. OOc&56**********%&ccccccccccccccccccccccccccccccccccc",
"ccccccccccccccccccccccccccccccccccccccccc67878766&%$$.  cc$****&$*6****%*ccccccccccccccccccccccccccccccccccc",
"ccccccccccccccccccccccccccccccccccccccccc678876*&%$$$...ccc%$%*oo%&**&&*%%cccccccccccccccccccccccccccccccccc",
"ccccccccccccccccccccccccccccccccccccccccc7888*&**&$$O.Occcc$O%OopwO&&****Occcccccccccccccccccccccccccccccccc",
"cccccccccccccccccccccccccccccccccccccccc78868%o%55%$$.cccccco.o,pp2$$$%$$O&ccccccccccccccccccccccccccccccccc",
"cccccccccccccccccccccccccccccccccccccccc788%*o=@OO$OoOcccccc$O%2php;@oo..ccccccccccccccccccccccccccccccccccc",
"cccccccccccccccccccccccccccccccccccccccc56%&$%y,..ooo$cccccc5&#=pjkfr;#..Occcccccccccccccccccccccccccccccccc",
"cccccccccccccccccccccccccccccccccccccccOo.O5$thr#.oOOcccccccc$+;phkjyy2@.occcccccccccccccccccccccccccccccccc",
"ccccccccccccccccccccccccccccccccccccccc  ow,#dd2,#OoOcccccccc++,djkfdyi=+O&ccccccccccccccccccccccccccccccccc",
"ccccccccccccccccccccccccccccccccccccccc.o;p;wfr2,=@o%cccccccc++2ykljffy,;ccccccccccccccccccccccccccccccccccc",
"cccccccccccccccccccccccccccccccccccccccccypyfi2r,=#@cccccccccc#2tdlfdfd2=ccccccccccccccccccccccccccccccccccc",
"ccccccccccccccccccccccccccccccccccccccccctpdfdyy2;@#ccccccccccc2rplkdffr;ccccccccccccccccccccccccccccccccccc",
"cccccccccccccccccccccccccccccccccccccccccddfffdr2=#cccccccccccc2rpkkfffi;ccccccccccccccccccccccccccccccccccc",
"cccccccccccccccccccccccccccccccccccccccctdhkkhir,=@cccccccccccc2rrdjjffi,;cccccccccccccccccccccccccccccccccc",
"ccccccccccccccccccccccccccccccccccccccccthkljptw2,cccccccccccccc,wydjjfi2;cccccccccccccccccccccccccccccccccc",
"ccccccccccccccccccccccccccccccccccccccccthkhhttr2;cccccccccccccc,,tifkhd2=cccccccccccccccccccccccccccccccccc",
"ccccccccccccccccccccccccccccccccccccccccphddity,;;ccccccccccccccc;2yflkft,cccccccccccccccccccccccccccccccccc",
"cccccccccccccccccccccccccccccccccccccccctdpywtr;;;ccccccccccccccc;;tyhhdr,;ccccccccccccccccccccccccccccccccc",
"ccccccccccccccccccccccccccccccccccccccccrpywty2;;@cccccccccccccccc;2tppr22;ccccccccccccccccccccccccccccccccc",
"cccccccccccccccccccccccccccccccccccccccc,ww2wr2;=ccccccccccccccccc;,2ttw22;ccccccccccccccccccccccccccccccccc",
"cccccccccccccccccccccccccccccccccccccccc@,22222=;ccccccccccccccccc;;;,2222;@cccccccccccccccccccccccccccccccc",
"cccccccccccccccccccccccccccccccccccccccc2rwry,,=;ccccccccccccccccc=;,,,,,2;;cccccccccccccccccccccccccccccccc",
"ccccccccccccccccccccccccccccccccccccccccrwtiy,=;;ccccccccccccccccc,;,,,2=,;@cccccccccccccccccccccccccccccccc",
"ccccccccccccccccccccccccccccccccccccccccrw2rr,==;ccccccccccccccccc,,2,,22,;@cccccccccccccccccccccccccccccccc",
"cccccccccccccccccccccccccccccccccccccccc;22,,,==;ccccccccccccccccc;,22,r22,;cccccccccccccccccccccccccccccccc",
"cccccccccccccccccccccccccccccccccccccccc;,2,,,;=;ccccccccccccccccc;,222rr,;;cccccccccccccccccccccccccccccccc",
"ccccccccccccccccccccccccccccccccccccccccc,2,,===;ccccccccccccccccc,;2wrrr,;;cccccccccccccccccccccccccccccccc",
"ccccccccccccccccccccccccccccccccccccccccc,2,===;;cccccccccccccccccc;,wwtt2;@cccccccccccccccccccccccccccccccc",
"ccccccccccccccccccccccccccccccccccccccccc,,,;=;;ccccccccccccccccccc,;,2rr2=@cccccccccccccccccccccccccccccccc",
"ccccccccccccccccccccccccccccccccccccccccc,,,;==;cccccccccccccccccccc,,2rr2;@cccccccccccccccccccccccccccccccc",
"cccccccccccccccccccccccccccccccccccccccccc,,;;;;cccccccccccccccccccc,22tr,;@cccccccccccccccccccccccccccccccc",
"cccccccccccccccccccccccccccccccccccccccccc,,;;;@cccccccccccccccccccc;2wty2;ccccccccccccccccccccccccccccccccc",
"cccccccccccccccccccccccccccccccccccccccccc,,;=;;ccccccccccccccccccccc2wtr,;ccccccccccccccccccccccccccccccccc",
"cccccccccccccccccccccccccccccccccccccccccc,2,;=;ccccccccccccccccccccc2rrr,;ccccccccccccccccccccccccccccccccc",
"cccccccccccccccccccccccccccccccccccccccccc22,,,@ccccccccccccccccccccc2rtr2;ccccccccccccccccccccccccccccccccc",
"cccccccccccccccccccccccccccccccccccccccccc,,,,;;ccccccccccccccccccccc;rtt2;ccccccccccccccccccccccccccccccccc",
"cccccccccccccccccccccccccccccccccccccccccc,,,2,=ccccccccccccccccccccc;ryy2;ccccccccccccccccccccccccccccccccc",
"cccccccccccccccccccccccccccccccccccccccccc;,;,;;ccccccccccccccccccccc;ryd2;ccccccccccccccccccccccccccccccccc",
"ccccccccccccccccccccccccccccccccccccccccc;,w2,2;cccccccccccccccccccccrypd2=ccccccccccccccccccccccccccccccccc",
"cccccccccccccccccccccccccccccccccccccccctd2,rriwcccccccccccccccccccccrrw2,;ccccccccccccccccccccccccccccccccc",
"cccccccccccccccccccccccccccccccccccccccrdddpt2ttccccccccccccccccccccctddhhy;cccccccccccccccccccccccccccccccc",
"cccccccccccccccccccccccccccccccccccccctypyhfpt2;ccccccccccccccccccccctddjhhpw,cccccccccccccccccccccccccccccc",
"ccccccccccccccccccccccccccccccccccccccddtphdtt,;cccccccccccccccccccccrddhfyddp,ccccccccccccccccccccccccccccc",
"ccccccccccccccccccccccccccccccccccccccrrtyt2w=;ccccccccccccccccccccccrrrppiippy;cccccccccccccccccccccccccccc",
"ccccccccccccccccccccccccccccccccccccccc++XX@=#cccccccccccccccccccccccr,,=@@###;;cccccccccccccccccccccccccccc",
"cccccccccccccccccccccccccccccccccccccccccccccccccccccccccccccccccccccccccccccccccccccccccccccccccccccccccccc",
"cccccccccccccccccccccccccccccccccccccccccccccccccccccccccccccccccccccccccccccccccccccccccccccccccccccccccccc",
"cccccccccccccccccccccccccccccccccccccccccccccccccccccccccccccccccccccccccccccccccccccccccccccccccccccccccccc",
"cccccccccccccccccccccccccccccccccccccccccccccccccccccccccccccccccccccccccccccccccccccccccccccccccccccccccccc"
};
