/* XPM */
static char *_644325575140[] = {
/* columns rows colors chars-per-pixel */
"108 116 41 1 ",
"  c black",
". c gray3",
"X c #160A0A",
"o c #101010",
"O c #181818",
"+ c #210F0F",
"@ c #311717",
"# c #3D1F1B",
"$ c #202020",
"% c #282828",
"& c gray19",
"* c gray22",
"= c #4C241C",
"- c #5A2F26",
"; c #653A2B",
": c #613E2F",
"> c #74402C",
", c #7D573B",
"< c gray25",
"1 c #484848",
"2 c #505050",
"3 c #585858",
"4 c #606060",
"5 c #686868",
"6 c #854E33",
"7 c #8A5236",
"8 c #8D5A3B",
"9 c #945B3C",
"0 c #8D6643",
"q c #986340",
"w c #9D6E4B",
"e c #9A6E4E",
"r c #A1724F",
"t c #A57853",
"y c #A67E5A",
"u c #AC825C",
"i c #AD8963",
"p c #B18E6F",
"a c #B39575",
"s c #B29A7E",
"d c None",
/* pixels */
"dddddddddddddddddddddddddddddddddddddddddddddddddddddddddddddddddddddddddddddddddddddddddddddddddddddddddddd",
"ddddddddddddddddddddddddddddddrw99>ddddddddddddddddddd7886>ddddddddddddddddddddddddddddddddddddddddddddddddd",
"dddddddddddddddddddddddddddd7wrrwuw6dddddddddddddddd66>>>>>;;ddddddddddddddddddddddddddddddddddddddddddddddd",
"ddddddddddddddddddddddddddd7;-====;>-dddddddddddddd>6>7>>7>>;=dddddddddddddddddddddddddddddddddddddddddddddd",
"ddddddddddddddddddddddddddd7;#@@##=ddddddddddddddd;6779>9qq>;=ddddrpuw9ddddddddddddddddddddddddddddddddddddd",
"dddddddddddddddddddddddddd7>>;=@=;dddddddddddddddd;69qr9r97>===ddddppssuwddddddddddddddddddddddddddddddddddd",
"dddddddddddddddddddddddddd7768>;;>;-ddddddddddddd->wiapipir7;#=dddddrupaapwddddddddddddddddddddddddddddddddd",
"dddddddddddddddddddddddddd6;6>;;;>>dddddddddddddd-7upiittit>=#-ddddddd8paaawdddddddddddddddddddddddddddddddd",
"dddddddddddddddddddddddddd776;-==dddddddddddddddd=9wrtrqqqq6=#;=ddddddd69wuiuddddddddddddddddddddddddddddddd",
"ddddddddddddddddddddddddddwq;=-dddddddddddddddddd#79wqq9997>;=;;dddddddd->7waudddddddddddddddddddddddddddddd",
"ddddddddddddddddddddddddd9w7>;-dddddddddddddddddd;6677997>;7;=--ddddddddd=;7riwddddddddddddddddddddddddddddd",
"ddddddddddddddddddddddddd796;--dddddddddddddddddd;6;-=q7;;;67;-=dddddddddd;77rptdddddddddddddddddddddddddddd",
"dddddddddddddddddddddddd998>;=@dddddddddddddddddd;;=@=r7=#=6>=-ddddddddddd-;79uiwddddddddddddddddddddddddddd",
"dddddddddddddddddddddddd976>;-dddddddddddddddddddd;==;q9>=;;=#-dddddddddddd=79qtiwdddddddddddddddddddddddddd",
"dddddddddddddddddddddddd76>;--dddddddddddddddddddd#--;q9;;=##=dddddddddddddd;9wwuuwddddddddddddddddddddddddd",
"ddddddddddddddddddddddd>;-;;;-dddddddddddddddddddd+@#===-==##=ddddddddddddddd;99qruwdddddddddddddddddddddddd",
"ddddddddddddddddddddddd;-==-;-dddddddddddddddddd;>=@@+++@###=-dddddddddddddddd;677rt8ddddddddddddddddddddddd",
"ddddddddddddddddddddddd;>;-----ddddddddduiuw767wtw-@#--#=##=;>;-;79uuuw7dddddd#->8qrq-dddddddddddddddddddddd",
"ddddddddddddddddddddddd-;-;-;>689wwwuuruppppiq77ww;@@@###@=-;;>>8rpaapu9>>;;>;=@=;8q9;dddddddddddddddddddddd",
"ddddddddddddddddddddddd==>;-;79riitttrrtipiitt9>9r7#@+@@@@=##;-9tttiit7>-=-;;=###->67>dddddddddddddddddddddd",
"ddddddddddddddddddddddd##==-;>>riiur799rippppiq77797-++@@#=@=;>rttttr7;##=-=##@@@@==;-dddddddddddddddddddddd",
"dddddddddddddddddddddddX@##=;;6qwww6==;>9iitttr9999q9=@++##=8rtttiurq>=##=>;=-#@@+#==ddddddddddddddddddddddd",
"dddddddddddddddddddddddd+@##;;>7>;;-=##=;qrrr9>9rttur9;#=>wpauq9qr9>>>=###--=#@@+@=-dddddddddddddddddddddddd",
"ddddddddddddddddddddddddd+#@=---===##@++#7wq997;>7wuuutqqrrq8766>q>7>=#@@@@@+++==ddddddddddddddddddddddddddd",
"dddddddddddddddddddddddddddd++###@@@@@+XX7wwq9997>=;>9ww9>;;;>7>7>>>;@+ ++XX+ddddddddddddddddddddddddddddddd",
"dddddddddddddddddddddddddddddddddddddddd+-wwwrr9997>;>97777799777>>7#+++dddddddddddddddddddddddddddddddddddd",
"ddddddddddddddddddddddddddddddddddddddddd=7rwtr99779779>7997q99q979>++dddddddddddddddddddddddddddddddddddddd",
"ddddddddddddddddddddddddddddddddddddddddd-;7wwqq9977>97999q9rr97999=+ddddddddddddddddddddddddddddddddddddddd",
"dddddddddddddddddddddddddddddddddddddddddd=;9wurrq979999>7rrrr9997>#=ddddddddddddddddddddddddddddddddddddddd",
"ddddddddddddddddddddddddddddddddddddddddddd=>99www97>>>>79qrrrq9q6=#dddddddddddddddddddddddddddddddddddddddd",
"ddddddddddddddddddddddddddddddddddddddddddd+=>8wwww97>>>799999q86-==dddddddddddddddddddddddddddddddddddddddd",
"dddddddddddddddddddddddddddddddddddddddddddd#-->96>>>>>>7979977>=#==dddddddddddddddddddddddddddddddddddddddd",
"dddddddddddddddddddddddddddddddddddddddddddd====->>>;;;;-;6886;-===-dddddddddddddddddddddddddddddddddddddddd",
"dddddddddddddddddddddddddddddddddddddddddddd-=###==;;---##==--=#====dddddddddddddddddddddddddddddddddddddddd",
"dddddddddddddddddddddddddddddddddddddddddddd@;;=-====;;>;;;=####=--ddddddddddddddddddddddddddddddddddddddddd",
"ddddddddddddddddddddddddddddddddddddddddddddd;;;;==;>>;>777>>>;;;==ddddddddddddddddddddddddddddddddddddddddd",
"ddddddddddddddddddddddddddddddddddddddddddddd-==#====;;=-697>;====-ddddddddddddddddddddddddddddddddddddddddd",
"ddddddddddddddddddddddddddddddddddddddddddddd@;;-==##@@####-;;;;--@ddddddddddddddddddddddddddddddddddddddddd",
"ddddddddddddddddddddddddddddddddddddddddddddd@==-=;;==;;>;=##==;---ddddddddddddddddddddddddddddddddddddddddd",
"ddddddddddddddddddddddddddddddddddddddddddddd+#->7q777>;;>>;=#####dddddddddddddddddddddddddddddddddddddddddd",
"ddddddddddddddddddddddddddddddddddddddddddddd@@#-;;7>;######=#==#=dddddddddddddddddddddddddddddddddddddddddd",
"dddddddddddddddddddddddddddddddddddddddddddd2*&%$$%%%%$$&&<<%%%oO$dddddddddddddddddddddddddddddddddddddddddd",
"dddddddddddddddddddddddddddddddddddddddddddd00011*1<1244554232*&*&dddddddddddddddddddddddddddddddddddddddddd",
"dddddddddddddddddddddddddddddddddddddddddddd2eyeeee111&O%<1*12222*dddddddddddddddddddddddddddddddddddddddddd",
"ddddddddddddddddddddddddddddddddddddddddddd*****112eyy2*121****100dddddddddddddddddddddddddddddddddddddddddd",
"ddddddddddddddddddddddddddddddddddddddddddd11312442*1eeeye2***eye*dddddddddddddddddddddddddddddddddddddddddd",
"dddddddddddddddddddddddddddddddddddddddddd221*1244555322*yeeyye2*&dddddddddddddddddddddddddddddddddddddddddd",
"dddddddddddddddddddddddddddddddddddddddddd1*%&*1233455542,*1*1:%$&&ddddddddddddddddddddddddddddddddddddddddd",
"dddddddddddddddddddddddddddddddddddddddddd**%$$%12222443e,%$o*,%%%%ddddddddddddddddddddddddddddddddddddddddd",
"dddddddddddddddddddddddddddddddddddddddddd**&&*&$$122332e2*&%1,&&&%ddddddddddddddddddddddddddddddddddddddddd",
"ddddddddddddddddddddddddddddddddddddddddd**<23*11%$*2341e2***1e**&%ddddddddddddddddddddddddddddddddddddddddd",
"ddddddddddddddddddddddddddddddddddddddddd11132&*33*&***2,2321*e***%ddddddddddddddddddddddddddddddddddddddddd",
"dddddddddddddddddddddddddddddddddddddddd11233*$%2222**&%$%*1**e,*&%ddddddddddddddddddddddddddddddddddddddddd",
"dddddddddddddddddddddddddddddddddddddddd$o*39>>;******%%&%*1**00**%&dddddddddddddddddddddddddddddddddddddddd",
"ddddddddddddddddddddddddddddddddddddddd*o$wtrrrr>*****&&1121*%0y01&&dddddddddddddddddddddddddddddddddddddddd",
"ddddddddddddddddddddddddddddddddddddddd$.7uaaptt7*%**&%%*111*&,e,1&%dddddddddddddddddddddddddddddddddddddddd",
"dddddddddddddddddddddddddddddddddddddd&=7uupsptq9-%$ooO$&*11**%$$1<%dddddddddddddddddddddddddddddddddddddddd",
"ddddddddddddddddddddddddddddddddddddddO;urtpitq997$.  oo$<1111*%&1*%dddddddddddddddddddddddddddddddddddddddd",
"dddddddddddddddddddddddddddddddddddddd@7u9rit79rq>$o. Oo$&**221***1%dddddddddddddddddddddddddddddddddddddddd",
"dddddddddddddddddddddddddddddddddddddd=7rwrt99rt>#@.  .o%%**121****%&ddddddddddddddddddddddddddddddddddddddd",
"dddddddddddddddddddddddddddddddddddddd;7wwtt9qr9=++.oO .O$&&****&**$&ddddddddddddddddddddddddddddddddddddddd",
"dddddddddddddddddddddddddddddddddddddd>79wttrrq7#+@ddd$OO%%%%&***&&$&ddddddddddddddddddddddddddddddddddddddd",
"dddddddddddddddddddddddddddddddddddddd77wrrr999;@@ddddd$O$%$%%&**&%%&ddddddddddddddddddddddddddddddddddddddd",
"dddddddddddddddddddddddddddddddddddddd77wqrq97>#+dddddddOO$%*&&&&&&$&ddddddddddddddddddddddddddddddddddddddd",
"ddddddddddddddddddddddddddddddddddddd>77wqq>>>;=@ddddddd$OOO%&&%&&&%&ddddddddddddddddddddddddddddddddddddddd",
"ddddddddddddddddddddddddddddddddddddd>77qq797>=-dddddddd$OOoo$%%&&%%&ddddddddddddddddddddddddddddddddddddddd",
"ddddddddddddddddddddddddddddddddddddd>77qqq9>;=ddddddddddOOooo.o%&%%&ddddddddddddddddddddddddddddddddddddddd",
"ddddddddddddddddddddddddddddddddddddd7767997;--dddddddddd$OOoo.o%%%%$ddddddddddddddddddddddddddddddddddddddd",
"ddddddddddddddddddddddddddddddddddddd>77q7>>;-ddddddddddd$O$Oo.o%%%&**dddddddddddddddddddddddddddddddddddddd",
"ddddddddddddddddddddddddddddddddddddd>79w97>=;ddddddddddd&OOOo..$&%%%&$ddddddddddddddddddddddddddddddddddddd",
"ddddddddddddddddddddddddddddddddddddd>779>7>;dddddddddddd$oooO>-+$%$%&*ddddddddddddddddddddddddddddddddddddd",
"ddddddddddddddddddddddddddddddddddddd>779>>;-dddddddddddddo.o=66-OO.$&dddddddddddddddddddddddddddddddddddddd",
"ddddddddddddddddddddddddddddddddddddd>7987>--dddddddddddddO.+#66>#$O%ddddddddddddddddddddddddddddddddddddddd",
"ddddddddddddddddddddddddddddddddddddd;7997>;dddddddddddddddO@;76>>===ddddddddddddddddddddddddddddddddddddddd",
"ddddddddddddddddddddddddddddddddddddd;7997;-ddddddddddddddd;->7779>=-ddddddddddddddddddddddddddddddddddddddd",
"ddddddddddddddddddddddddddddddddddddd;89q7;;ddddddddddddddd;;>7>>>>==ddddddddddddddddddddddddddddddddddddddd",
"ddddddddddddddddddddddddddddddddddddd;8996;;ddddddddddddddd-;896>7>-=ddddddddddddddddddddddddddddddddddddddd",
"ddddddddddddddddddddddddddddddddddddd;897>;dddddddddddddddd--6w966;==ddddddddddddddddddddddddddddddddddddddd",
"ddddddddddddddddddddddddddddddddddddd;986;=dddddddddddddddd#=>896>;=-ddddddddddddddddddddddddddddddddddddddd",
"ddddddddddddddddddddddddddddddddddddd;96;;;dddddddddddddddd+#;>>>;-=-ddddddddddddddddddddddddddddddddddddddd",
"ddddddddddddddddddddddddddddddddddddd678;;;ddddddddddddddddX@=-;-====ddddddddddddddddddddddddddddddddddddddd",
"ddddddddddddddddddddddddddddddddddddd6qq76;ddddddddddddddddX@+#--=#=dddddddddddddddddddddddddddddddddddddddd",
"dddddddddddddddddddddddddddddddddddddwwq78>ddddddddddddddddX++@=-=#-dddddddddddddddddddddddddddddddddddddddd",
"ddddddddddddddddddddddddddddddddddddwrur77;ddddddddddddddddXX++@@@#ddddddddddddddddddddddddddddddddddddddddd",
"ddddddddddddddddddddddddddddddddddddruitq9>dddddddddddddddd+X ++X@dddddddddddddddddddddddddddddddddddddddddd",
"ddddddddddddddddddddddddddddddddddddruttr7>ddddddddddddddd@+XX X+ddddddddddddddddddddddddddddddddddddddddddd",
"ddddddddddddddddddddddddddddddddddd9wwwww8;ddddddddddddddd+XXXXXdddddddddddddddddddddddddddddddddddddddddddd",
"dddddddddddddddddddddddddddddddddd769ww8>8-ddddddddddddddd@+++++dddddddddddddddddddddddddddddddddddddddddddd",
"dddddddddddddddddddddddddddddddddd;;;899qq6ddddddddddddddd+++X+#dddddddddddddddddddddddddddddddddddddddddddd",
"ddddddddddddddddddddddddddddddddddd;--;;66ddddddddddddddddX++++#dddddddddddddddddddddddddddddddddddddddddddd",
"dddddddddddddddddddddddddddddddddddddddddddddddddddddddddd#++++==ddddddddddddddddddddddddddddddddddddddddddd",
"dddddddddddddddddddddddddddddddddddddddddddddddddddddddddd#=++@=-ddddddddddddddddddddddddddddddddddddddddddd",
"dddddddddddddddddddddddddddddddddddddddddddddddddddddddddd-6-#===ddddddddddddddddddddddddddddddddddddddddddd",
"dddddddddddddddddddddddddddddddddddddddddddddddddddddddddd;67===--dddddddddddddddddddddddddddddddddddddddddd",
"dddddddddddddddddddddddddddddddddddddddddddddddddddddddddd;67>=---dddddddddddddddddddddddddddddddddddddddddd",
"dddddddddddddddddddddddddddddddddddddddddddddddddddddddddd-796;----ddddddddddddddddddddddddddddddddddddddddd",
"dddddddddddddddddddddddddddddddddddddddddddddddddddddddddd;7ww6===-ddddddddddddddddddddddddddddddddddddddddd",
"dddddddddddddddddddddddddddddddddddddddddddddddddddddddddd;79wq;=--ddddddddddddddddddddddddddddddddddddddddd",
"dddddddddddddddddddddddddddddddddddddddddddddddddddddddddd76>8>>=-dddddddddddddddddddddddddddddddddddddddddd",
"dddddddddddddddddddddddddddddddddddddddddddddddddddddddddd>6;6-==ddddddddddddddddddddddddddddddddddddddddddd",
"ddddddddddddddddddddddddddddddddddddddddddddddddddddddddddd=##@#dddddddddddddddddddddddddddddddddddddddddddd",
"dddddddddddddddddddddddddddddddddddddddddddddddddddddddddddddddddddddddddddddddddddddddddddddddddddddddddddd",
"dddddddddddddddddddddddddddddddddddddddddddddddddddddddddddddddddddddddddddddddddddddddddddddddddddddddddddd",
"dddddddddddddddddddddddddddddddddddddddddddddddddddddddddddddddddddddddddddddddddddddddddddddddddddddddddddd",
"dddddddddddddddddddddddddddddddddddddddddddddddddddddddddddddddddddddddddddddddddddddddddddddddddddddddddddd",
"dddddddddddddddddddddddddddddddddddddddddddddddddddddddddddddddddddddddddddddddddddddddddddddddddddddddddddd",
"dddddddddddddddddddddddddddddddddddddddddddddddddddddddddddddddddddddddddddddddddddddddddddddddddddddddddddd",
"dddddddddddddddddddddddddddddddddddddddddddddddddddddddddddddddddddddddddddddddddddddddddddddddddddddddddddd",
"dddddddddddddddddddddddddddddddddddddddddddddddddddddddddddddddddddddddddddddddddddddddddddddddddddddddddddd",
"dddddddddddddddddddddddddddddddddddddddddddddddddddddddddddddddddddddddddddddddddddddddddddddddddddddddddddd",
"dddddddddddddddddddddddddddddddddddddddddddddddddddddddddddddddddddddddddddddddddddddddddddddddddddddddddddd",
"dddddddddddddddddddddddddddddddddddddddddddddddddddddddddddddddddddddddddddddddddddddddddddddddddddddddddddd",
"dddddddddddddddddddddddddddddddddddddddddddddddddddddddddddddddddddddddddddddddddddddddddddddddddddddddddddd",
"dddddddddddddddddddddddddddddddddddddddddddddddddddddddddddddddddddddddddddddddddddddddddddddddddddddddddddd",
"dddddddddddddddddddddddddddddddddddddddddddddddddddddddddddddddddddddddddddddddddddddddddddddddddddddddddddd",
"dddddddddddddddddddddddddddddddddddddddddddddddddddddddddddddddddddddddddddddddddddddddddddddddddddddddddddd"
};
