/* XPM */
static char *_644325544746[] = {
/* columns rows colors chars-per-pixel */
"108 116 42 1 ",
"  c black",
". c gray3",
"X c #160A0A",
"o c #101010",
"O c #181818",
"+ c #210F0F",
"@ c #311717",
"# c #3D1F1B",
"$ c #202020",
"% c #282828",
"& c gray19",
"* c gray22",
"= c #4C241C",
"- c #583C10",
"; c #5A2F26",
": c #653A2B",
"> c #613E2F",
", c #74402C",
"< c #7D573B",
"1 c gray25",
"2 c #484848",
"3 c #505050",
"4 c #585858",
"5 c #606060",
"6 c #686868",
"7 c #854E33",
"8 c #8A5236",
"9 c #8D5A3B",
"0 c #945B3C",
"q c #8D6643",
"w c #986340",
"e c #9D6E4B",
"r c #9A6E4E",
"t c #A1724F",
"y c #A57853",
"u c #AC825C",
"i c #AD8963",
"p c #B18E6F",
"a c #B39575",
"s c #B29A7E",
"d c #B8A288",
"f c None",
/* pixels */
"ffffffffffffffffffffffffffffffffffffffffffffffffffffffffffffffffffffffffffffffffffffffffffffffffffffffffffff",
"ffffffffffffffffffffffffffffffffffffffffffffffffffffffffffffffffffffffffffffffffffffffffffffffffffffffffffff",
"ffffffffffffffffffffffffffffffffffffffffffffffffffffffffffffffffffffffffffffffffffffffffffffffffffffffffffff",
"ffffffffffffffffffffffffffffffffffffffffffffffffffffffffffffffffffffffffffffffffuuufffffffffffffffffffffffff",
"ffffffffffffffffffffffffffffffffffffffffffffffffffffffffffffffffffffffffffffffupsiu0ffffffffffffffffffffffff",
"fffffffffffffffffffffffffffffffffffffffffffffffffffffffffffffffffffffffffffffuppt,::;fffffffffffffffffffffff",
"fffffffffffffffffffffffffffffffffffffffffffffffffffffffffffffffffffffffffffftppu,#ffffffffffffffffffffffffff",
"ffffffffffffffffffffffffffffffffffffffffffffffffffffffffffffffffffffffffffffpss9=fffffffffffffffffffffffffff",
"ffffffffffffffffffffffffffffffffffffffffffffffffffffffffff;,,,::fffffffffffuppu,=fffffffffffffffffffffffffff",
"ffffffffffffffffffffffffffffffffffffffffffffffffffffffff;,,7:::;:::fffffffupsi8,,@@fffffffffffffffffffffffff",
"fffffffffffffffffffffffffffffffffffffffffffffffffffffff;7770,::::,,;fffffupdpw:;:#ffffffffffffffffffffffffff",
"ffffffffffffffffffffffffffffffffffffffffffffffffffffff,:7w0w0w08:::,ffffupdpu0=@@fffffffffffffffffffffffffff",
"fffffffffffffffffffffffffffffffffffffffffffffffffffff;8,:00,8780,::,:ffupsppy7;fffffffffffffffffffffffffffff",
"fffffffffffffffffffffffffffffffffffffffffffffffffffff87:,,8,,,,7,::087tspppiy:ffffffffffffffffffffffffffffff",
"ffffffffffffffffffffffffffffffffffffffffffffffffffff#:,88,9ey0,,,:,wwipiyypiw=ffffffffffffffffffffffffffffff",
"ffffffffffffffffffffffffffffffffffffffffffffffffffff@;,8:,we0t,:==,wyiippiit,fffffffffffffffffffffffffffffff",
"ffffffffffffffffffffffffffffffffffffffffffffffffffff@#==;8ww0t,==:0ipsppst07ffffffffffffffffffffffffffffffff",
"ffffffffffffffffffffffffffffffffffffffffffffffffffff@=;;::8piy:=80yppdspe07;ffffffffffffffffffffffffffffffff",
"ffffffffffffffffffffffffffffffffffffffffffffffffffff@=::,0wtt8=8e0tpispte8;fffffffffffffffffffffffffffffffff",
"ffffffffffffffffffffffffffffffffffffffffffffffffffff;,,,,80808,wt0ypiie00:ffffffffffffffffffffffffffffffffff",
"fffffffffffffffffffffffffffffffffffffffffffffffffff88et00tipiipaapsy0,09;fffffffet7:ffffffffffffffffffffffff",
"fffffffffffffffffffffffffffffffffffffffffffffffffeuuiapiipppytt0wtw8::,;fffffff87==::fffffffffffffffffffffff",
"ffffffffffffffffffffffffffffffffffffffffffffffuuuuipiipiuyt9,,,;=;==;;;fffffe8e,###=;fffffffffffffffffffffff",
"ffffffffffffffffffffffffffffffffffffffffffffussiuuyipppiiyit0,,,,8::;;fffff;8ew:####=fffffffffffffffffffffff",
"fffffffffffffffffffffffffffffffffffffffffffuiiuewttyiyytw00yappu8;;;fffffff@:77,,;==ffffffffffffffffffffffff",
"ffffffffffffffffffffffffffffffffffffffffffuypyw88,88987,,:#=,,,:==ffffffff9878wee9,;ffffffffffffffffffffffff",
"fffffffffffffffffffffffffffffffffffffffffyyyttw9,::===#####@++ffffffffffffeewww07,;fffffffffffffffffffffffff",
"fffffffffffffffffffffffffffffffffffffffffytte08,,:=======;=@fffffffffffffttyt007==ffffffffffffffffffffffffff",
"ffffffffffffffffffffffffffffffffffffffffyttew8,:==@@@@;;;,:@fffffffffff080wt0w,;;fffffffffffffffffffffffffff",
"ffffffffffffffffffffffffffffffffffffffffuttw0,,:=@+++#::;;:@fffffffff099,,0,:;;@ffffffffffffffffffffffffffff",
"fffffffffffffffffffffffffffffffffffffffuytww087,=###@#:::;;;@ffffff0897::::;=@ffffffffffffffffffffffffffffff",
"fffffffffffffffffffffffffffffffffffffffuyyew809,##;,:::::;:,:;fff8877::===;;@fffffffffffffffffffffffffffffff",
"ffffffffffffffffffffffffffffffffffffffuytetw00,,==,808,:::;:,,:@:,,,;=====;fffffffffffffffffffffffffffffffff",
"ffffffffffffffffffffffffffffffffffffffuetw00088,,:,08007,:=::,,::::;===:=;ffffffffffffffffffffffffffffffffff",
"ffffffffffffffffffffffffffffffffffffffuee000880,,,,80889,:;;:,,:=;;;=;;;@fffffffffffffffffffffffffffffffffff",
"ffffffffffffffffffffffffffffffffffffffe00www0088,,888,,,,=#=;:::====#=;fffffffffffffffffffffffffffffffffffff",
"fffffffffffffffffffffffffffffffffffffeeewtttye0087,,::8,,=#=====;===;fffffffffffffffffffffffffffffffffffffff",
"fffffffffffffffffffffffffffffffffffffeeeyttty00088,,::;;:=@####===@fffffffffffffffffffffffffffffffffffffffff",
"fffffffffffffffffffffffffffffffffffffee0wtttw0ttew,::===;;@fffffffffffffffffffffffffffffffffffffffffffffffff",
"ffffffffffffffffffffffffffffffffffffetew0t000tytew8,:##=;;ffffffffffffffffffffffffffffffffffffffffffffffffff",
"ffffffffffffffffffffffffffffffffffffeeeettt08880w08,:=#==fffffffffffffffffffffffffffffffffffffffffffffffffff",
"ffffffffffffffffffffffffffffffffffffeeewtyyt0088,,:==;==@fffffffffffffffffffffffffffffffffffffffffffffffffff",
"fffffffffffffffffffffffffffffffffff9eeetttt00000,:;===;@ffffffffffffffffffffffffffffffffffffffffffffffffffff",
"fffffffffffffffffffffffffffffffffff9eetut0t08,,,:==;=;@fffffffffffffffffffffffffffffffffffffffffffffffffffff",
"fffffffffffffffffffffffffffffffffff9etytty00,:==;;===@ffffffffffffffffffffffffffffffffffffffffffffffffffffff",
"ffffffffffffffffffffffffffffffffff8eetyttt888,::,,:;=fffffffffffffffffffffffffffffffffffffffffffffffffffffff",
"ffffffffffffffffffffffffffffffffffe09wttyy08,,8:=;;;ffffffffffffffffffffffffffffffffffffffffffffffffffffffff",
"fffffffffffffffffffffffffffffffff907::,,00008,,8#=;@ffffffffffffffffffffffffffffffffffffffffffffffffffffffff",
"fffffffffffffffffffffffffffffffft07:,,,,80008,:,:=@fffffffffffffffffffffffffffffffffffffffffffffffffffffffff",
"fffffffffffffffffffffffffffffff31*&&*233455450,=;;ffffffffffffffffffffffffffffffffffffffffffffffffffffffffff",
"fffffffffffffffffffffffffffffff*&$$$*%***&&&&***;=ffffffffffffffffffffffffffffffffffffffffffffffffffffffffff",
"ffffffffffffffffffffffffffffff<<<<<<qrrrrrrr>$%$&&ffffffffffffffffffffffffffffffffffffffffffffffffffffffffff",
"ffffffffffffffffffffffffffffff43333434334656rq<%$%ffffffffffffffffffffffffffffffffffffffffffffffffffffffffff",
"fffffffffffffffffffffffffffff4422342*224455554rr>$ffffffffffffffffffffffffffffffffffffffffffffffffffffffffff",
"fffffffffffffffffffffffffffff432232****334552&*4<-ffffffffffffffffffffffffffffffffffffffffffffffffffffffffff",
"fffffffffffffffffffffffffffff3312**&&**23343*$%23&ffffffffffffffffffffffffffffffffffffffffffffffffffffffffff",
"fffffffffffffffffffffffffffff431**&&&**243322&$&2%%fffffffffffffffffffffffffffffffffffffffffffffffffffffffff",
"fffffffffffffffffffffffffffff311**&&&*2343222&%$&%%fffffffffffffffffffffffffffffffffffffffffffffffffffffffff",
"fffffffffffffffffffffffffffff2**2*&&**33443222*&$&*fffffffffffffffffffffffffffffffffffffffffffffffffffffffff",
"fffffffffffffffffffffffffffff1**2****2444332&***$&2%ffffffffffffffffffffffffffffffffffffffffffffffffffffffff",
"ffffffffffffffffffffffffffffff1*%******23432**22*%%%ffffffffffffffffffffffffffffffffffffffffffffffffffffffff",
"ffffffffffffffffffffffffffffff*1**&******244323331$&ffffffffffffffffffffffffffffffffffffffffffffffffffffffff",
"fffffffffffffffffffffffffffffff*112***22***2**2323&%ffffffffffffffffffffffffffffffffffffffffffffffffffffffff",
"fffffffffffffffffffffffffffffff*11*****2232******23%ffffffffffffffffffffffffffffffffffffffffffffffffffffffff",
"ffffffffffffffffffffffffffffffff%&&2****234323432231$fffffffffffffffffffffffffffffffffffffffffffffffffffffff",
"ffffffffffffffffffffffffffffffff&$%****&**2333442343%fffffffffffffffffffffffffffffffffffffffffffffffffffffff",
"fffffffffffffffffffffffffffffffff$o$*1**&&***23433352$ffffffffffffffffffffffffffffffffffffffffffffffffffffff",
"fffffffffffffffffffffffffffffffff%..$122******2443454&%fffffffffffffffffffffffffffffffffffffffffffffffffffff",
"ffffffffffffffffffffffffffffffffffo .$2********33356554&ffffffffffffffffffffffffffffffffffffffffffffffffffff",
"ffffffffffffffffffffffffffffffffff$. o$%2****&*222*5335*O$ffffffffffffffffffffffffffffffffffffffffffffffffff",
"fffffffffffffffffffffffffffffffffff.  O$%1**222322***&*34*%fffffffffffffffffffffffffffffffffffffffffffffffff",
"fffffffffffffffffffffffffffffffffffO. .O$%%&**35322**2&$%%&fffffffffffffffffffffffffffffffffffffffffffffffff",
"fffffffffffffffffffffffffffffffffff$.  o$$%&&*2432***8t7,:ffffffffffffffffffffffffffffffffffffffffffffffffff",
"ffffffffffffffffffffffffffffffffffff.   o$%OO$**132%&wyyywffffffffffffffffffffffffffffffffffffffffffffffffff",
"ffffffffffffffffffffffffffffffffffffO.  ooO.  .oO$$o;twtty9fffffffffffffffffffffffffffffffffffffffffffffffff",
"fffffffffffffffffffffffffffffffffffffO  OOoO     ..@7uwwwtyfffffffffffffffffffffffffffffffffffffffffffffffff",
"fffffffffffffffffffffffffffffffffffffOO .Ooo   oo@@==:088wu9ffffffffffffffffffffffffffffffffffffffffffffffff",
"fffffffffffffffffffffffffffffffffffffO%O. .O.%8euuue7;;000y0ffffffffffffffffffffffffffffffffffffffffffffffff",
"fffffffffffffffffffffffffffffffffffff%O.. .$8uipppaiw8:080t9ffffffffffffffffffffffffffffffffffffffffffffffff",
"ffffffffffffffffffffffffffffffffffffffO&OO,euypsspttt0,::7w,ffffffffffffffffffffffffffffffffffffffffffffffff",
"ffffffffffffffffffffffffffffffffffffff;0etpiuuiy0000wt0,;,,fffffffffffffffffffffffffffffffffffffffffffffffff",
"ffffffffffffffffffffffffffffffffffff78etpppputew0887:==#=:ffffffffffffffffffffffffffffffffffffffffffffffffff",
"fffffffffffffffffffffffffftt88800880eyppiuttew88,,,,:;:=;fffffffffffffffffffffffffffffffffffffffffffffffffff",
"fffffffffffffffffffffffffuut000000ypi970w00088,,,,:;===fffffffffffffffffffffffffffffffffffffffffffffffffffff",
"ffffffffffffffffffffffffeuuyww0wuipt089w07,:::==###@ffffffffffffffffffffffffffffffffffffffffffffffffffffffff",
"ffffffffffffffffffffffffetuaiyyt07,,,,::=##======#ffffffffffffffffffffffffffffffffffffffffffffffffffffffffff",
"ffffffffffffffffffffffffetiiiut,;==;==##===@@@@#;fffffffffffffffffffffffffffffffffffffffffffffffffffffffffff",
"ffffffffffffffffffffffff0tuttt8,:;===:89ww:=@+@=;fffffffffffffffffffffffffffffffffffffffffffffffffffffffffff",
"fffffffffffffffffffffffff0eeew07;fff;ettew,#@@#=ffffffffffffffffffffffffffffffffffffffffffffffffffffffffffff",
"fffffffffffffffffffffffff0eiyw7:ffff9ttut0:=##=fffffffffffffffffffffffffffffffffffffffffffffffffffffffffffff",
"fffffffffffffffffffffffff0tiiy7;fff8ettte7:=##=fffffffffffffffffffffffffffffffffffffffffffffffffffffffffffff",
"fffffffffffffffffffffffffftuiw,fff;9eeew8,;;==ffffffffffffffffffffffffffffffffffffffffffffffffffffffffffffff",
"fffffffffffffffffffffffffftpuw,fff9eee8:=#===fffffffffffffffffffffffffffffffffffffffffffffffffffffffffffffff",
"fffffffffffffffffffffffffffttw7ff;907,=##@@#ffffffffffffffffffffffffffffffffffffffffffffffffffffffffffffffff",
"fffffffffffffffffffffffffff;e8,ff89:=###@@@=ffffffffffffffffffffffffffffffffffffffffffffffffffffffffffffffff",
"ffffffffffffffffffffffffffff98,ff;=@@@@@@@#fffffffffffffffffffffffffffffffffffffffffffffffffffffffffffffffff",
"ffffffffffffffffffffffffffff@;:f@#@@@@@@@@ffffffffffffffffffffffffffffffffffffffffffffffffffffffffffffffffff",
"fffffffffffffffffffffffffffff#@f@+@@@@@+@#ffffffffffffffffffffffffffffffffffffffffffffffffffffffffffffffffff",
"ffffffffffffffffffffffffffffffff@++@#@@@#fffffffffffffffffffffffffffffffffffffffffffffffffffffffffffffffffff",
"ffffffffffffffffffffffffffffffff@X+@@@##ffffffffffffffffffffffffffffffffffffffffffffffffffffffffffffffffffff",
"ffffffffffffffffffffffffffffffff++@@@@#@ffffffffffffffffffffffffffffffffffffffffffffffffffffffffffffffffffff",
"fffffffffffffffffffffffffffffff@@+@#=##fffffffffffffffffffffffffffffffffffffffffffffffffffffffffffffffffffff",
"fffffffffffffffffffffffffffffff++@#==#@fffffffffffffffffffffffffffffffffffffffffffffffffffffffffffffffffffff",
"fffffffffffffffffffffffffffffff+@#====ffffffffffffffffffffffffffffffffffffffffffffffffffffffffffffffffffffff",
"ffffffffffffffffffffffffffffff++##===@ffffffffffffffffffffffffffffffffffffffffffffffffffffffffffffffffffffff",
"ffffffffffffffffffffffffffffff+@====;fffffffffffffffffffffffffffffffffffffffffffffffffffffffffffffffffffffff",
"fffffffffffffffffffffffffffff@#=====@fffffffffffffffffffffffffffffffffffffffffffffffffffffffffffffffffffffff",
"fffffffffffffffffffffffffffff@=;=#@@@fffffffffffffffffffffffffffffffffffffffffffffffffffffffffffffffffffffff",
"ffffffffffffffffffffffffffff;:;=;;::@@ffffffffffffffffffffffffffffffffffffffffffffffffffffffffffffffffffffff",
"ffffffffffffffffffffffffffff9e,;=;787::@@fffffffffffffffffffffffffffffffffffffffffffffffffffffffffffffffffff",
"fffffffffffffffffffffffffffftt8:=;7uput9,:;;ffffffffffffffffffffffffffffffffffffffffffffffffffffffffffffffff",
"ffffffffffffffffffffffffffffeue7;,000wtiiyw7:fffffffffffffffffffffffffffffffffffffffffffffffffffffffffffffff",
"fffffffffffffffffffffffffffff88;;;;;;;8eeeee0fffffffffffffffffffffffffffffffffffffffffffffffffffffffffffffff",
"ffffffffffffffffffffffffffffffffffffffffffffffffffffffffffffffffffffffffffffffffffffffffffffffffffffffffffff",
"ffffffffffffffffffffffffffffffffffffffffffffffffffffffffffffffffffffffffffffffffffffffffffffffffffffffffffff",
"ffffffffffffffffffffffffffffffffffffffffffffffffffffffffffffffffffffffffffffffffffffffffffffffffffffffffffff"
};
