/* XPM */
static char *_644325442688[] = {
/* columns rows colors chars-per-pixel */
"108 116 50 1 ",
"  c black",
". c gray3",
"X c #160A0A",
"o c #101010",
"O c #181818",
"+ c #210F0F",
"@ c #311717",
"# c #3D1F1B",
"$ c #202020",
"% c #282828",
"& c gray19",
"* c gray22",
"= c #4C241C",
"- c #583C10",
"; c #5A2F26",
": c #56322A",
"> c #653A2B",
", c #613E2F",
"< c #65471B",
"1 c #74402C",
"2 c #714337",
"3 c #714A37",
"4 c #7C483C",
"5 c #7D573B",
"6 c gray25",
"7 c #484848",
"8 c #505050",
"9 c #585858",
"0 c #606060",
"q c #686868",
"w c gray44",
"e c gray47",
"r c #854E33",
"t c #8A5236",
"y c #8D5A3B",
"u c #945B3C",
"i c #8D6643",
"p c #986340",
"a c #9D6E4B",
"s c #9A6E4E",
"d c #96734A",
"f c #A1724F",
"g c #A57853",
"h c #A67E5A",
"j c #A6875A",
"k c #AC825C",
"l c #AD8963",
"z c #B18E6F",
"x c #B39575",
"c c None",
/* pixels */
"cccccccccccccccccccccccccccccccccccccccccccccccccccccccccccccccccccccccccccccccccccccccccccccccccccccccccccc",
"cccccccccccccccccccccccccccccccccccccccccccccccccccccccccccccccccccccccccccccccccccccccccccccccccccccccccccc",
"cccccccccccccccccccccccccccccccccccccccccccccccccccccccccccccccccccccccccccccccccccccccccccccccccccccccccccc",
"cccccccccccccccccccccccccccccccccccccccccccccccccccccccccccccccccccccccccccccccccccccccccccccccccccccccccccc",
"cccccccccccccccccccccccccccccccccccccccccccccccccccccccc;ttyy1;ccccccccccccccccccccccccccccccccccccccccccccc",
"cccccccccccccccccccccccccccccccccccccccccccccccccccccc#1rrttt1>;;ccccccccccccccccccccccccccccccccccccccccccc",
"ccccccccccccccccccccccccccccccccccccccccccccccccccccc;>1r>>>>>>>=@cccccccccccccccccccccccccccccccccccccccccc",
"ccccccccccccccccccccccccccccccccccccccccccccccccccccc>>rtt11>>>>;;cccccccccccccccccccccccccccccccccccccccccc",
"cccccccccccccccccccccccccccccccccccccccccccccccccccc#;1ut1111111=;@ccccccccccccccccccccccccccccccccccccccccc",
"cccccccccccccccccccccccccccccccccccccccccccccccccccc@>11rrr111t1===ccccccccccccccccccccccccccccccccccccccccc",
"cccccccccccccccccccccccccccccccccccccccccccccccccccc@;>11>>11>>>=#;ccccccccccccccccccccccccccccccccccccccccc",
"cccccccccccccccccccccccccccccccccccccccccccccccccccc@;=;;>1>>>;>==>ccccccccccccccccccccccccccccccccccccccccc",
"cccccccccccccccccccccccccccccccccccccccccccccccccccc##=>;>1>===;;=ttcccccccccccccccccccccccccccccccccccccccc",
"cccccccccccccccccccccccccccccccccccccccccccccccccccc###;1>>#==###1kkaccccccccccccccccccccccccccccccccccccccc",
"cccccccccccccccccccccccccccccccccccccccccccccccccccc@#;>11>11=###yxxkacccccccccccccccccccccccccccccccccccccc",
"ccccccccccccccccccccccccccccccccccccccccccccccccccccc=;rtutut>===>ukzzpccccccccccccccccccccccccccccccccccccc",
"ccccccccccccccccccccccccccccccccccccccccccccccccccccc>>1pffgu1>>=#@>fllfyccccccccccccccccccccccccccccccccccc",
"cccccccccccccccccccccccccccccccccccccccccccccccccccccctufffgfu1>=cc#rkklkayccccccccccccccccccccccccccccccccc",
"ccccccccccccccccccccccccccccccccccccccccccccccccccccccakgkkffu5,=ccc1akllllgaycccccccccccccccccccccccccccccc",
"cccccccccccccccccccccccccccccccccccccccccccccccgfffffkkzkllkllggaauuruflzllzzkarcccccccccccccccccccccccccccc",
"ccccccccccccccccccccccccccccccccccccccccccakkzkkkffkxlglllzzlzzzllgapazzggfgzzkarccccccccccccccccccccccccccc",
"ccccccccccccccccccccccccccccccyatcccccccaklxllggggllggfgggzlgggllkfgggggffuggglgyrcccccccccccccccccccccccccc",
"cccccccccccccccccccccccccccccykkk>cccccfkklzgggglzzkzlgfglzlgglzzgggffgggffggfufkarccccccccccccccccccccccccc",
"ccccccccccccccccccccccccccccakkku>cccafkkklgffgfgzlzzzgpglzzgglzlgllgfffgfgggfufkfrccccccccccccccccccccccccc",
"cccccccccccccccccccccccccccakku1;>ctaklkgllguufufglzzzlfgzzlgglzzzzzggupfagfuttpp1>ccccccccccccccccccccccccc",
"ccccccccccccccccccccccccccykkkr>>1tkkkkffgguttptpfggzzlggzzzgglzzllgfft1ryut1>>>1>cccccccccccccccccccccccccc",
"ccccccccccccccccccccccccccakfp1>1uafaff5tt1>>1pupffggggggzzzggllgggfpu11111>;;==;ccccccccccccccccccccccccccc",
"ccccccccccccccccccccccccccfkku>>uaaaupu325;@=1yuupfggfugglzzffgggffutr>>#@##;;cccccccccccccccccccccccccccccc",
"ccccccccccccccccccccccccctkkkpryaapp13,,:;@##>tuttpfpffgkzzzffggfupuut>#cccccccccccccccccccccccccccccccccccc",
"cccccccccccccccccccccccccykkgupfput12::@+@ccc2tu11utpgggllzzfflgfuutt1>#cccccccccccccccccccccccccccccccccccc",
"cccccccccccccccccccccccccykffuuut5,::@+@ccccc25utttuugggfgzlffffgfuutu>=cccccccccccccccccccccccccccccccccccc",
"cccccccccccccccccccccccccyaau1113,:@@@ccccccc25uyuppuufgfgzzfkkpuuutt1;;cccccccccccccccccccccccccccccccccccc",
"cccccccccccccccccccccccccttr1>>>,#@@cccccccccc2ry51uufggglzlgklgfput1>=;cccccccccccccccccccccccccccccccccccc",
"ccccccccccccccccccccccccc2>1=#@@++cccccccccccc25r5tufffgggllffffffpu1;=ccccccccccccccccccccccccccccccccccccc",
"cccccccccccccccccccccccccc#+++@#cccccccccccccc24ruuuuufgglzlgggpuuut11;ccccccccccccccccccccccccccccccccccccc",
"cccccccccccccccccccccccccccccccccccccccccccccc23rtuuggggglzlgllgftt1t1=ccccccccccccccccccccccccccccccccccccc",
"cccccccccccccccccccccccccccccccccccccccccccccc221rpfpfffgglgfgggfut11;;ccccccccccccccccccccccccccccccccccccc",
"ccccccccccccccccccccccccccccccccccccccccccccccc1rruuuufggggfggffupt1>=@ccccccccccccccccccccccccccccccccccccc",
"ccccccccccccccccccccccccccccccccccccccccccccccc21r1tuffgglgfgggfut1t>;cccccccccccccccccccccccccccccccccccccc",
"ccccccccccccccccccccccccccccccccccccccccccccccc21trppffggllggfffut11>;cccccccccccccccccccccccccccccccccccccc",
"cccccccccccccccccccccccccccccccccccccccccccccccc>tyuuufgggggfffuuut>=ccccccccccccccccccccccccccccccccccccccc",
"cccccccccccccccccccccccccccccccccccccccccccccccc2tuypffggggggffuuft;;ccccccccccccccccccccccccccccccccccccccc",
"cccccccccccccccccccccccccccccccccccccccccccccccc2ryuaggggggggfffff1=;ccccccccccccccccccccccccccccccccccccccc",
"cccccccccccccccccccccccccccccccccccccccccccccccc2tuaggllgggggggu1t11;ccccccccccccccccccccccccccccccccccccccc",
"cccccccccccccccccccccccccccccccccccccccccccccccc:tyuuuuuuupuuuuuutt1>ccccccccccccccccccccccccccccccccccccccc",
"cccccccccccccccccccccccccccccccccccccccccccccccc@;%%&******77888111==@cccccccccccccccccccccccccccccccccccccc",
"ccccccccccccccccccccccccccccccccccccccccccccccccO%7dhhhjsiiisiii*$$$&@cccccccccccccccccccccccccccccccccccccc",
"cccccccccccccccccccccccccccccccccccccccccccccccc,iddewwwq0qwqq00si,<$%cccccccccccccccccccccccccccccccccccccc",
"ccccccccccccccccccccccccccccccccccccccccccccccc6689qqqqqqwqqq090099i,-cccccccccccccccccccccccccccccccccccccc",
"ccccccccccccccccccccccccccccccccccccccccccccccc*88000qqqqqqqq00090977%cccccccccccccccccccccccccccccccccccccc",
"ccccccccccccccccccccccccccccccccccccccccccccccc*800qqweqqqqqq000907&*&cccccccccccccccccccccccccccccccccccccc",
"cccccccccccccccccccccccccccccccccccccccccccccc*8890000qqq000009987&&*6%ccccccccccccccccccccccccccccccccccccc",
"cccccccccccccccccccccccccccccccccccccccccccccc68779900q0000099887*%&*7%ccccccccccccccccccccccccccccccccccccc",
"cccccccccccccccccccccccccccccccccccccccccccccc**7977800999877900*$$%*9%ccccccccccccccccccccccccccccccccccccc",
"ccccccccccccccccccccccccccccccccccccccccccccccOO&67989878877909*$$%*88*%cccccccccccccccccccccccccccccccccccc",
"cccccccccccccccccccccccccccccccccccccccccccccc$$&%*67***878qq8%$*7887*&%cccccccccccccccccccccccccccccccccccc",
"cccccccccccccccccccccccccccccccccccccccccccccc*&%%%&&%&77887&%*8998*&&&$cccccccccccccccccccccccccccccccccccc",
"cccccccccccccccccccccccccccccccccccccccccccccc&&%$%%$%977*%*888888*&*7&$cccccccccccccccccccccccccccccccccccc",
"cccccccccccccccccccccccccccccccccccccccccccccc%$%%$%%**%$O$&*&$$788887*$cccccccccccccccccccccccccccccccccccc",
"cccccccccccccccccccccccccccccccccccccccccccccc%%$%$$$$..   .oo%6*%%*7**%%ccccccccccccccccccccccccccccccccccc",
"ccccccccccccccccccccccccccccccccccccccccccccccOOO$OO..      .%6&$%78*&*%%ccccccccccccccccccccccccccccccccccc",
"ccccccccccccccccccccccccccccccccccccccccccccccoooo...      O6&%*688*&*7%%ccccccccccccccccccccccccccccccccccc",
"cccccccccccccccccccccccccccccccccccccccccccccOoooo..    . O***7887***77%%ccccccccccccccccccccccccccccccccccc",
"ccccccccccccccccccccccccccccccccccccccccccccc$o..o..    O.O%*788**77*77%%ccccccccccccccccccccccccccccccccccc",
"cccccccccccccccccccccccccccccccccccccccccccccOOOoo.    o .c%6**********&$ccccccccccccccccccccccccccccccccccc",
"cccccccccccccccccccccccccccccccccccccccccccccOOoo.     ..cc%&%&&***&&**%$ccccccccccccccccccccccccccccccccccc",
"cccccccccccccccccccccccccccccccccccccccccccccO%OO.     .Occ%%&&*****&&*%%ccccccccccccccccccccccccccccccccccc",
"cccccccccccccccccccccccccccccccccccccccccccccO$$$O.   .%cccc%&6****&&**%%ccccccccccccccccccccccccccccccccccc",
"cccccccccccccccccccccccccccccccccccccccccccccoO%$o.  .%ccccc%&&***&&*7*$%ccccccccccccccccccccccccccccccccccc",
"cccccccccccccccccccccccccccccccccccccccccccc#oO$...OoOOccccc$&&*&&&&79*%%ccccccccccccccccccccccccccccccccccc",
"cccccccccccccccccccccccccccccccccccccccccccc@OOo.  ..O%ccccc*&%6%ra7*7*%%ccccccccccccccccccccccccccccccccccc",
"cccccccccccccccccccccccccccccccccccccccccccc;t1o.....Occcccc6&6&*uay&%6*&ccccccccccccccccccccccccccccccccccc",
"cccccccccccccccccccccccccccccccccccccccccccctur;OooOo%cccccc*tr&>akf1$$*&ccccccccccccccccccccccccccccccccccc",
"ccccccccccccccccccccccccccccccccccccccccccccyakr##@#=@cccccccuy=>afap>$OOccccccccccccccccccccccccccccccccccc",
"ccccccccccccccccccccccccccccccccccccccccccccyaky1y1#==cccccccyapuupparcccccccccccccccccccccccccccccccccccccc",
"ccccccccccccccccccccccccccccccccccccccccccccuakkut1>=@cccccccyfaupupprcccccccccccccccccccccccccccccccccccccc",
"ccccccccccccccccccccccccccccccccccccccccccccaafkatr>=@cccccccyayuupff1cccccccccccccccccccccccccccccccccccccc",
"ccccccccccccccccccccccccccccccccccccccccccccuaakau1>;@cccccccyuputufftcccccccccccccccccccccccccccccccccccccc",
"ccccccccccccccccccccccccccccccccccccccccccccuuafpt1==cccccccyauutuufpycccccccccccccccccccccccccccccccccccccc",
"cccccccccccccccccccccccccccccccccccccccccccctuafu1>==cccccccaauffggffycccccccccccccccccccccccccccccccccccccc",
"cccccccccccccccccccccccccccccccccccccccccccctuafy>;=@cccccccuaafgggfpycccccccccccccccccccccccccccccccccccccc",
"cccccccccccccccccccccccccccccccccccccccccccctuya1>==ccccccccaaffzkkguycccccccccccccccccccccccccccccccccccccc",
"cccccccccccccccccccccccccccccccccccccccccccccutp>==@ccccccccafflzkkkaycccccccccccccccccccccccccccccccccccccc",
"ccccccccccccccccccccccccccccccccccccccccccccctyu>==cccccccccafflzkkgaycccccccccccccccccccccccccccccccccccccc",
"ccccccccccccccccccccccccccccccccccccccccccccctyu>=;cccccccccafklzlgfuycccccccccccccccccccccccccccccccccccccc",
"ccccccccccccccccccccccccccccccccccccccccccccctua>#;cccccccccyfklzgffpycccccccccccccccccccccccccccccccccccccc",
"ccccccccccccccccccccccccccccccccccccccccccccctuu>;=cccccccccyfklkfaaytcccccccccccccccccccccccccccccccccccccc",
"cccccccccccccccccccccccccccccccccccccccccccctuat>==ccccccccccfkkffaprccccccccccccccccccccccccccccccccccccccc",
"ccccccccccccccccccccccccccccccccccccccccccccufkp1==ccccccccccafkkaprrccccccccccccccccccccccccccccccccccccccc",
"cccccccccccccccccccccccccccccccccccccccccccyfffpt;=ccccccccccyffappyrccccccccccccccccccccccccccccccccccccccc",
"cccccccccccccccccccccccccccccccccccccccccccyaaarr;=ccccccccccufapuprcccccccccccccccccccccccccccccccccccccccc",
"cccccccccccccccccccccccccccccccccccccccccctttt11>=@ccccccccccufuupy1cccccccccccccccccccccccccccccccccccccccc",
"cccccccccccccccccccccccccccccccccccccccccc;;======@ccccccccccafytprrcccccccccccccccccccccccccccccccccccccccc",
"cccccccccccccccccccccccccccccccccccccccccc=+++@+@#@ccccccccccaaytu1ccccccccccccccccccccccccccccccccccccccccc",
"cccccccccccccccccccccccccccccccccccccccccc#@+++++#cccccccccccautuy>ccccccccccccccccccccccccccccccccccccccccc",
"cccccccccccccccccccccccccccccccccccccccccc+++++++@cccccccccccfart1>ccccccccccccccccccccccccccccccccccccccccc",
"ccccccccccccccccccccccccccccccccccccccccccX+++@+#@ccccccccccyfa1t1;ccccccccccccccccccccccccccccccccccccccccc",
"cccccccccccccccccccccccccccccccccccccccccc+@+++X+@cccccccccykkg1r1=ccccccccccccccccccccccccccccccccccccccccc",
"cccccccccccccccccccccccccccccccccccccccccc+@++  +@cccccccccfkzfutr=ccccccccccccccccccccccccccccccccccccccccc",
"cccccccccccccccccccccccccccccccccccccccccc+XXXXX+cccccccccctfappu1=ccccccccccccccccccccccccccccccccccccccccc",
"ccccccccccccccccccccccccccccccccccccccccccc@@@+@@cccccccccc1tyut11;ccccccccccccccccccccccccccccccccccccccccc",
"ccccccccccccccccccccccccccccccccccccccccccccccccccccccccccc;;1yt11;ccccccccccccccccccccccccccccccccccccccccc",
"ccccccccccccccccccccccccccccccccccccccccccccccccccccccccccc=;;>rr1;ccccccccccccccccccccccccccccccccccccccccc",
"ccccccccccccccccccccccccccccccccccccccccccccccccccccccccccc@@>;>t>=@cccccccccccccccccccccccccccccccccccccccc",
"ccccccccccccccccccccccccccccccccccccccccccccccccccccccccccc@##@#t>=@cccccccccccccccccccccccccccccccccccccccc",
"ccccccccccccccccccccccccccccccccccccccccccccccccccccccccccc+##;>1>>=cccccccccccccccccccccccccccccccccccccccc",
"ccccccccccccccccccccccccccccccccccccccccccccccccccccccccccc++#>>=>1=cccccccccccccccccccccccccccccccccccccccc",
"ccccccccccccccccccccccccccccccccccccccccccccccccccccccccccc##++;>>>;cccccccccccccccccccccccccccccccccccccccc",
"ccccccccccccccccccccccccccccccccccccccccccccccccccccccccccc++@@=>#@@cccccccccccccccccccccccccccccccccccccccc",
"ccccccccccccccccccccccccccccccccccccccccccccccccccccccccccccXX##+++ccccccccccccccccccccccccccccccccccccccccc",
"cccccccccccccccccccccccccccccccccccccccccccccccccccccccccccccccccccccccccccccccccccccccccccccccccccccccccccc",
"cccccccccccccccccccccccccccccccccccccccccccccccccccccccccccccccccccccccccccccccccccccccccccccccccccccccccccc",
"cccccccccccccccccccccccccccccccccccccccccccccccccccccccccccccccccccccccccccccccccccccccccccccccccccccccccccc",
"cccccccccccccccccccccccccccccccccccccccccccccccccccccccccccccccccccccccccccccccccccccccccccccccccccccccccccc",
"cccccccccccccccccccccccccccccccccccccccccccccccccccccccccccccccccccccccccccccccccccccccccccccccccccccccccccc",
"cccccccccccccccccccccccccccccccccccccccccccccccccccccccccccccccccccccccccccccccccccccccccccccccccccccccccccc"
};
