/* XPM */
static char *_644325565267[] = {
/* columns rows colors chars-per-pixel */
"108 116 43 1 ",
"  c black",
". c gray3",
"X c #160A0A",
"o c #101010",
"O c #181818",
"+ c #210F0F",
"@ c #311717",
"# c #3D1F1B",
"$ c #202020",
"% c #282828",
"& c gray19",
"* c gray22",
"= c #4C241C",
"- c #5C3414",
"; c #583C10",
": c #5A2F26",
"> c #653A2B",
", c #613E2F",
"< c #74402C",
"1 c #714A37",
"2 c #7D573B",
"3 c gray25",
"4 c #484848",
"5 c #505050",
"6 c #585858",
"7 c #606060",
"8 c #686868",
"9 c #854E33",
"0 c #8A5236",
"q c #8D5A3B",
"w c #945B3C",
"e c #8D6643",
"r c #986340",
"t c #9D6E4B",
"y c #9A6E4E",
"u c #A1724F",
"i c #A57853",
"p c #AC825C",
"a c #AD8963",
"s c #B18E6F",
"d c #B39575",
"f c #B29A7E",
"g c None",
/* pixels */
"gggggggggggggggggggggggggggggggggggggggggggggggggggggggggggggggggggggggggggggggggggggggggggggggggggggggggggg",
"gggggggggggggggggggggggggggggggggggggggggggggggggggggggggggggggggggggggggggggggggggggggggggggggggggggggggggg",
"gggggggggggggggggggggggggggggggggggggggggggggggggggggggggggggggggggggggggggggggggggggggggggggggggggggggggggg",
"gggggggggggggggggggggggggggggggggggggggggggggggggggggggggggggggggggggggggggggggggggggggggggggggggggggggggggg",
"gggggggggggggggggggggggggggggggggggggggggggggggggggggggggggggggggggggggggggggggggggggggggggggggggggggggggggg",
"ggggggggggggggggggggggggggggggggggggggggggggggggggggggggggggggggggggg99<<>>ggggggggggggggggggggggggggggggggg",
"ggggggggggggggggggggggggggggggggggggggggggggggggggggggggggggggggggg><<>>>==<9ggggggggggggggggggggggggggggggg",
"gggggggggggggggggggggggggggggggggggggggggggggggggggggggggggggggggg#><0w>><><<>>ggggggggggggggpspu<gggggggggg",
"ggggggggggggggggggggggggggggggggggggggggggggggggggggggggggggggggg#>99ww0<0<>><<>gggggggggggisfs0<q>ggggggggg",
"gggggggggggggggggggggggggggggggggggggggggggggggggggggggggggggggg:<>><0w<<00<><<0>gggggggggisfa<##:>@gggggggg",
"gggggggggggggggggggggggggggggggggggggggggggggggggggggggggggggggg<<:>><<><<<<><rtqggggggggpsfsw#@@#@#gggggggg",
"ggggggggggggggggggggggggggggggggggggggggggggggggggggggggggggggg#>>>>>9ww<<<>>0rtr>ggggguafsir>=ggggggggggggg",
"ggggggggggggggggggggggggggggggggggggggggggggggggggggggggggggggg@:><=>0ruw<:=><0r9=gggpasfsiw>>:@gggggggggggg",
"ggggggggggggggggggggggggggggggggggggggggggggggggggggggggggggggg@#:>=<w0wu<==>0r0<==0afsssai<#><=@ggggggggggg",
"ggggggggggggggggggggggggggggggggggggggggggggggggggggggggggggggg+##==<wurr==00ww<=>wpfdaaaau>=@###ggggggggggg",
"ggggggggggggggggggggggggggggggggggggggggggggggggggggggggggggggg@@=::>wiw0=<rrw<=>aaaassssptggggggggggggggggg",
"gggggggggggggggggggggggggggggggggggggggggggggggggggggggggggggggg==>>0w00<:wuu9#>uasdadatuqgggggggggggggggggg",
"gggggggggggggggggggggggggggggggggggggggggggggggggggggggggggggggg<90<<wrw>><00<=0sasfsirt9ggggggggggggggggggg",
"gggggggggggggggggggggggggggggggggggggggggggggggggggggggggggggg0wtw<>>www0wuiiiiaaiiirrt<gggggggggggggggggggg",
"gggggggggggggggggggggggggggggggggggggggggggggggggggggggggggggtttpurruiasssaauiiaiu0<ww<ggggggggggggggggggggg",
"gggggggggggggggggggggggggggggggggggggggggggggggggggggggggggtppsssdsssaaiuw000<>>>>><<=gggggggggggggggggggggg",
"gggggggggggggggggggggggggggggggggggggggggggggggggggggggggpupaaadsssssaasiw<<<000<:>>:ggggggggggggggggggggggg",
"gggggggggggggggggggggggggggggggggggggggggggggggggggggggguttuiiaaaassaiuiffsssu<>>=:ggggggggggggggggggggggggg",
"ggggggggggggggggggggggggggggggggggggggggggggggggggggggquutwrrruuuurrrw0<<www9>:=gggggggggggggggggggg00gggggg",
"gggggggggggggggggggggggggggggggggggggggggggggggggggggquut0rww00<<<>><<:##@@@@ggggggggggggggggggggg9<9<#ggggg",
"ggggggggggggggggggggggggggggggggggggggggggggggggggggguutw<<099<<<<<>=#=####ggggggggggggggggggq0><>>::::@gggg",
"ggggggggggggggggggggggggggggggggggggggggggggggggggggqutw<<<9<<>>:==##>>::gggggggggggggggggggg00<9::#+=:@gggg",
"ggggggggggggggggggggggggggggggggggggggggggggggggggggqtt0<<>=#@++@===#=q<=ggggggggggggggggggggg>w>#@++#:@gggg",
"ggggggggggggggggggggggggggggggggggggggggggggggggggggttr0<>=#++ +#:>:==::=@gggggggggggggggggggguq=#@+@:@ggggg",
"gggggggggggggggggggggggggggggggggggggggggggggggggggg0t0<<==#@@@@==>>>::>>@@ggggggggggggggggggtww>##@=:gggggg",
"gggggggggggggggggggggggggggggggggggggggggggggggggggg0w0w0<=#@#:>>>==>::><<>:ggggggggggggggguuup0:##=:ggggggg",
"ggggggggggggggggggggggggggggggggggggggggggggggggggg00ww0w<=##:900w<>>>=#=><<:=gggggggggggtpsapuw>##=gggggggg",
"ggggggggggggggggggggggggggggggggggggggggggggggggggg00qww0<>>==0w0w0<>>=#=::><>@gggggggtupsffptr9:=gggggggggg",
"ggggggggggggggggggggggggggggggggggggggggggggggggggg0q000<0<>><00>>00<>=@#=:>><:@gggg0tpfsdar9<=:gggggggggggg",
"gggggggggggggggggggggggggggggggggggggggggggggggggg00q<<<00>>>><<>><<>>=@#=:>><<:@@g:0taiiiw<<:gggggggggggggg",
"gggggggggggggggggggggggggggggggggggggggggggggggggg000q000w009<>>>>>=>>=@@@=>>>>>:>>9tuiuw0<>=ggggggggggggggg",
"gggggggggggggggggggggggggggggggggggggggggggggggggg0wwwwurww<w0>>>==#:>#++@@==><>=><0uww0<>==gggggggggggggggg",
"ggggggggggggggggggggggggggggggggggggggggggggggggg000w0wrrrw0<<<>>=##===gg@@@#=>==<rr00<>===ggggggggggggggggg",
"gggggggggggggggggggggggggggggggggggggggggggggggggqw0w0ww0wuw0<<<>=#==@gggg++@#==>>0>=>===ggggggggggggggggggg",
"ggggggggggggggggggggggggggggggggggggggggggggggggg0wtw0<0<w00w0<<>:=::ggggggg@+#:>:#=:==ggggggggggggggggggggg",
"ggggggggggggggggggggggggggggggggggggggggggggggggg00qrww<<<000<>=#==:@gggggggggg@++@@@ggggggggggggggggggggggg",
"ggggggggggggggggggggggggggggggggggggggggggggggggg000ww0000000>=###=@gggggggggggggggggggggggggggggggggggggggg",
"ggggggggggggggggggggggggggggggggggggggggggggggggg0qwwww<<<0<>=##==@ggggggggggggggggggggggggggggggggggggggggg",
"gggggggggggggggggggggggggggggggggggggggggggggggg0twww000<>=#=>>>==@ggggggggggggggggggggggggggggggggggggggggg",
"ggggggggggggggggggggggggggggggggggggggggggggggggwwr0ww<w<>==><>:=:gggggggggggggggggggggggggggggggggggggggggg",
"gggggggggggggggggggggggggggggggggggggggggggggggqtruuww00w<0>=##=:@gggggggggggggggggggggggggggggggggggggggggg",
"gggggggggggggggggggggggggggggggggggggggggggggg0<<wruiuurrw9<<:=:@ggggggggggggggggggggggggggggggggggggggggggg",
"gggggggggggggggggggggggggggggggggggggggggggggw<>>>9wwuuuuw000<::@ggggggggggggggggggggggggggggggggggggggggggg",
"gggggggggggggggggggggggggggggggggggggggggggg%%%><<<w0wwwwww<==::@ggggggggggggggggggggggggggggggggggggggggggg",
"gggggggggggggggggggggggggggggggggggggggggggg*%%%%*46770wwww>##::@ggggggggggggggggggggggggggggggggggggggggggg",
"ggggggggggggggggggggggggggggggggggggggggggg52eeye2*****5544<>==>@ggggggggggggggggggggggggggggggggggggggggggg",
"ggggggggggggggggggggggggggggggggggggggggggg555565eyee2,&%&**566:@ggggggggggggggggggggggggggggggggggggggggggg",
"ggggggggggggggggggggggggggggggggggggggggggg54****565882e,,%$$**$$ggggggggggggggggggggggggggggggggggggggggggg",
"ggggggggggggggggggggggggggggggggggggggggggg4*&&**67666556yy2,$$*%%gggggggggggggggggggggggggggggggggggggggggg",
"ggggggggggggggggggggggggggggggggggggggggggg3%%&**577764**45671-3%%gggggggggggggggggggggggggggggggggggggggggg",
"ggggggggggggggggggggggggggggggggggggggggggg*$%%*556665****444*,,%%gggggggggggggggggggggggggggggggggggggggggg",
"ggggggggggggggggggggggggggggggggggggggggggg%O%355444********&&&;%%gggggggggggggggggggggggggggggggggggggggggg",
"ggggggggggggggggggggggggggggggggggggggggggg%*6444******%&**&&%4*$%%ggggggggggggggggggggggggggggggggggggggggg",
"gggggggggggggggggggggggggggggggggggggggggg*&%***44**&&%%%&&*&$56*%%ggggggggggggggggggggggggggggggggggggggggg",
"gggggggggggggggggggggggggggggggggggggggggg4**544***4&&%%%&&&$$*454%%gggggggggggggggggggggggggggggggggggggggg",
"gggggggggggggggggggggggggggggggggggggggggg565555*$%&%%%%%%&%O.oO&43&**gggggggggggggggggggggggggggggggggggggg",
"gggggggggggggggggggggggggggggggggggggggggg&33*55****&%$$$%$$o%&$%&443***gggggggggggggggggggggggggggggggggggg",
"gggggggggggggtuwgggggggggggggggggggggggggg*&*4******%%$O$$$.O34**&***%O****ggggggggggggggggggggggggggggggggg",
"ggggggggggguppiarggggggggggggggggggggggggg3*44*&&4**&%%&34%O%&*4%&&$%%9=$$OOgggggggggggggggggggggggggggggggg",
"gggggggggguusiwwuqgggggggggggggggggggggggg3444******&%%*4*$O$o.O$$..$$ir>=gggggggggggggggggggggggggggggggggg",
"ggggggggguuiiu0<0w9ggggggggggggggggggggggg33444*&*&&%%*44*o....o%%OO$$ppitrggggggggggggggggggggggggggggggggg",
"ggggggggtwtuuiw0qrtqggggggggggggggggggggg3*3*55**%%%$*455$.$33$$&&&&&&siuiuggggggggggggggggggggggggggggggggg",
"gggggggut0<wuww0<<wu9gggggggggggggggggggg&*3544&**%$*44**o o*4%%3&%%%%uuuiiutggggggggggggggggggggggggggggggg",
"gggggguutw99999tuwwwwqqgggggggggggggggggg**454**&%%*454*$   O$&4*%%$OOqruuuuiirggggggggggggggggggggggggggggg",
"gggggipir0<<>==<tupirwwttggggggggggggggg334554*&%%*454*&o   OoO**$$O..wtupuuiiaarggggggggggggggggggggggggggg",
"ggggquq>>:#===:=:9wrupiuttqggggggggggggg35545***&*444*%$%%ggoo  *$o.oo>9wiuiuuiiiwgggggggggggggggggggggggggg",
"gggg0>=#@+++gggg=>><9uaaaautttggggggggg343******44444&$$$gggggg o..oo9<>>9ttw0<0wuwggggggggggggggggggggggggg",
"gggg#+@@@+gggggggg:<90usaiiiaspttggggg%*44*4***445*44O..ggggggggg%OOO0wq99tiuww<00iigggggggggggggggggggggggg",
"gggg@++#gggggggggggg>9wwuuuiiaaasptgg*335544*&%&*4%*%  ggggggggggggg@@<0tuw9wuw0<00iqggggggggggggggggggggggg",
"gggg+X@gggggggggggggg:<0rrruasaiaau9:00344*&%$o33O..  gggggggggggggggg@@>><==<w0<<wrrggggggggggggggggggggggg",
"gggggggggggggggggggggg=>9qwwtpsssai<<rr<OOO.ooo&*.    gggggggggggggggggg@++##@<q<0ww0ggggggggggggggggggggggg",
"ggggggggggggggggggggggg=:<<wrwtpsiu<9rr<>#O$$o..   ..gggggggggggggggggggggg#qw<9trww0<gggggggggggggggggggggg",
"gggggggggggggggggggggggg#:><900wuuu<0ww0<<>=#@OOOoOOgggggggggggggggggggggggg#quqturw009ggggggggggggggggggggg",
"gggggggggggggggggggggggggg=:<<<wrui090990w<=##gggggggggggggggggggggggggggggg@<uuppu0<09ggggggggggggggggggggg",
"ggggggggggggggggggggggggggg@=::=qw00<=:900=##gggggggggggggggggggggggggggggggg0tttutw0w09gggggggggggggggggggg",
"ggggggggggggggggggggggggggggg#===<>=@:<ww<@#ggggggggggggggggggggggggggggggggg:wtwttq0009gggggggggggggggggggg",
"ggggggggggggggggggggggggggggggg=#++@:0tw<=#gggggggggggggggggggggggggggggggggg@:0wwtw90q9gggggggggggggggggggg",
"ggggggggggggggggggggggggggggggggg@:>0q<=#=gggggggggggggggggggggggggggggggggggg@>0wtr09<<9ggggggggggggggggggg",
"ggggggggggggggggggggggggggggggggggg@::=#@ggggggggggggggggggggggggggggggggggggg##<qqq00<<qggggggggggggggggggg",
"ggggggggggggggggggggggggggggggggggggggggggggggggggggggggggggggggggggggggggggggg#<9q99q<<99gggggggggggggggggg",
"gggggggggggggggggggggggggggggggggggggggggggggggggggggggggggggggggggggggggggggggg:<9q00w099gggggggggggggggggg",
"gggggggggggggggggggggggggggggggggggggggggggggggggggggggggggggggggggggggggggggggg##<9qww0<9gggggggggggggggggg",
"ggggggggggggggggggggggggggggggggggggggggggggggggggggggggggggggggggggggggggggggggg@@>9wtw99<ggggggggggggggggg",
"gggggggggggggggggggggggggggggggggggggggggggggggggggggggggggggggggggggggggggggggggg@:>9twr99ggggggggggggggggg",
"ggggggggggggggggggggggggggggggggggggggggggggggggggggggggggggggggggggggggggggggggggg@@<qw0<<ggggggggggggggggg",
"gggggggggggggggggggggggggggggggggggggggggggggggggggggggggggggggggggggggggggggggggggg:>9rr0<:gggggggggggggggg",
"gggggggggggggggggggggggggggggggggggggggggggggggggggggggggggggggggggggggggggggggggggg@@<qtr9>gggggggggggggggg",
"ggggggggggggggggggggggggggggggggggggggggggggggggggggggggggggggggggggggggggggggggggggg@>0trr<:ggggggggggggggg",
"ggggggggggggggggggggggggggggggggggggggggggggggggggggggggggggggggggggggggggggggggggggg@:wwttt>ggggggggggggggg",
"gggggggggggggggggggggggggggggggggggggggggggggggggggggggggggggggggggggggggggggggggggggg:0twqtt>#ggggggggggggg",
"gggggggggggggggggggggggggggggggggggggggggggggggggggggggggggggggggggggggggggggggggggggg@<ttttpt<<0wwwurui<ggg",
"gggggggggggggggggggggggggggggggggggggggggggggggggggggggggggggggggggggggggggggggggggggg@>tapiupsssdsaau9<>ggg",
"ggggggggggggggggggggggggggggggggggggggggggggggggggggggggggggggggggggggggggggggggggggggg#0ttw0udu0<ww<=@@gggg",
"ggggggggggggggggggggggggggggggggggggggggggggggggggggggggggggggggggggggggggggggggggggggg:wwtttu0<><<:#@gggggg",
"ggggggggggggggggggggggggggggggggggggggggggggggggggggggggggggggggggggggggggggggggggggggg0ttuppw>=@#gggggggggg",
"ggggggggggggggggggggggggggggggggggggggggggggggggggggggggggggggggggggggggggggggggggggggg:wtr9>==ggggggggggggg",
"gggggggggggggggggggggggggggggggggggggggggggggggggggggggggggggggggggggggggggggggggggggggg@=###ggggggggggggggg",
"gggggggggggggggggggggggggggggggggggggggggggggggggggggggggggggggggggggggggggggggggggggggggggggggggggggggggggg",
"gggggggggggggggggggggggggggggggggggggggggggggggggggggggggggggggggggggggggggggggggggggggggggggggggggggggggggg",
"gggggggggggggggggggggggggggggggggggggggggggggggggggggggggggggggggggggggggggggggggggggggggggggggggggggggggggg",
"gggggggggggggggggggggggggggggggggggggggggggggggggggggggggggggggggggggggggggggggggggggggggggggggggggggggggggg",
"gggggggggggggggggggggggggggggggggggggggggggggggggggggggggggggggggggggggggggggggggggggggggggggggggggggggggggg",
"gggggggggggggggggggggggggggggggggggggggggggggggggggggggggggggggggggggggggggggggggggggggggggggggggggggggggggg",
"gggggggggggggggggggggggggggggggggggggggggggggggggggggggggggggggggggggggggggggggggggggggggggggggggggggggggggg",
"gggggggggggggggggggggggggggggggggggggggggggggggggggggggggggggggggggggggggggggggggggggggggggggggggggggggggggg",
"gggggggggggggggggggggggggggggggggggggggggggggggggggggggggggggggggggggggggggggggggggggggggggggggggggggggggggg",
"gggggggggggggggggggggggggggggggggggggggggggggggggggggggggggggggggggggggggggggggggggggggggggggggggggggggggggg",
"gggggggggggggggggggggggggggggggggggggggggggggggggggggggggggggggggggggggggggggggggggggggggggggggggggggggggggg",
"gggggggggggggggggggggggggggggggggggggggggggggggggggggggggggggggggggggggggggggggggggggggggggggggggggggggggggg",
"gggggggggggggggggggggggggggggggggggggggggggggggggggggggggggggggggggggggggggggggggggggggggggggggggggggggggggg",
"gggggggggggggggggggggggggggggggggggggggggggggggggggggggggggggggggggggggggggggggggggggggggggggggggggggggggggg"
};
