/* XPM */
static char *_644325642583[] = {
/* columns rows colors chars-per-pixel */
"108 116 53 1 ",
"  c black",
". c gray3",
"X c #160A0A",
"o c #101010",
"O c #181818",
"+ c #210F0F",
"@ c #311717",
"# c #3D1F1B",
"$ c #202020",
"% c #282828",
"& c gray19",
"* c gray22",
"= c #4C241C",
"- c #452723",
"; c #5A2F26",
": c #653A2B",
"> c #613E2F",
", c #65471B",
"< c #724826",
"1 c #74402C",
"2 c #714337",
"3 c #714A37",
"4 c #7C483C",
"5 c #7D573B",
"6 c gray25",
"7 c #484848",
"8 c #505050",
"9 c #585858",
"0 c #606060",
"q c #686868",
"w c gray44",
"e c gray47",
"r c #854E33",
"t c #805430",
"y c #8A5236",
"u c #8D5A3B",
"i c #945B3C",
"p c #8C603C",
"a c #8D6643",
"s c #986340",
"d c #9D6E4B",
"f c #9A6E4E",
"g c #96734A",
"h c #A1724F",
"j c #A57853",
"k c #A67E5A",
"l c #AC825C",
"z c #AD8963",
"x c #B18E6F",
"c c #B39575",
"v c #B29A7E",
"b c #B8A288",
"n c None",
/* pixels */
"nnnnnnnnnnnnnnnnnnnnnnnnnnnnnnnnnnnnnnnnnnnnnnnnnnnnnnnnnnnnnnnnnnnnnnnnnnnnnnnnnnnnnnnnnnnnnnnnnnnnnnnnnnnn",
"nnnnnnnnnnnnnnnnnnnnnnnnnnnnnnnnnnnnnnnnnnnnnnnnnnnnnnnnnnnnnnnnnnnnnnnnnnnnnnnnnnnnnnnnnnnnnnnnnnnnnnnnnnnn",
"nnnnnnnnnnnnnnnnnnnnnnnnnnnnnnnnnnnnnnnnnnnnnnnnnnnnnnnnnnnnnnnnnnnnnnnnnnnnnnnnnnnnnnnnnnnnnnnnnnnnnnnnnnnn",
"nnnnnnnnnnnnnnnnnnnnnnnnnnnnnnnnnnnnnnnnnnnnnnnnnnnnnnnnnnnnnnnnnnnnnnnnnnnnnnnnnnnnnnnnnnnnnnnnnnnnnnnnnnnn",
"nnnnnnnnnnnnnnnnnnnnnnnnnnnnnnnnnnnnnnnnnnnnnnnnnnnnnnnnnnnnnnnnnnnnnnnnnnnnnnnnnnnnnnnnnnnnnnnnnnnnnnnnnnnn",
"nnnnnnnnnnnnnnnnnnnnnnnnnnnnnnnnnnnnnnnnnnnnnnnnnndhddhdynnnnnnnnnnnnnnnnnnnnnnnnnnnnnnnnnnnnnnnnnnnnnnnnnnn",
"nnnnnnnnnnnnnnnnnnnnnnnnnnnnnnnnnnnnnnnnnnnnnnnnnlxcxzzxlunnnnnnnnnnnnnnnnnnnnnnnnnnnnnnnnnnnnnnnnnnnnnnnnnn",
"nnnnnnnnnnnnnnnnnnnnnnnnnnnnnnnnnnnnnnnnnnnnnnnndxlxxjjzzi:nnnnnnnnnnnnnnnnnnnnnnnnnnnnnnnnnnnnnnnnnnnnnnnnn",
"nnnnnnnnnnnnnnnnnnuuit3nnnnnnnnnnnnnnnnnnnnnnnnndlxjjzhssi:;nnnnnnnnnnnnnnnnnnnnnnnnnnnnnnnnnnnnnnnnnnnnnnnn",
"nnnnnnnnnnnnnnnnnuuir1;nnnnnnnnnnnnnnnnnnnnnnnn2ihhdlchyys1;nnnnnnnnnnnnnnnnnnnnnnnnnnnnnnnnnnnnnnnnnnnnnnnn",
"nnnnnnnnnnnnnnnnu1::=;nnnnnnnnnnnnnnnnnnnnnnnnn:ii1udxi:rs1;;nnnnnnnnnnnnnnnnnnnnnnnnnnnnnnnnnnnnnnnnnnnnnnn",
"nnnnnnnnnnnnnnnn:=@#=;;nnnnnnnnnnnnnnnnnnnnnnnn:yurijxhsiss1:nnnnnnnnnnnnnnnnnnnnnnnnnnnnnnnnnnnnnnnnnnnnnnn",
"nnnnnnnnnnnnnnnn@#;;rydy5nnnnnnnnnnnnnnnnnnnnnn1isiiyyihhssr:nnnnnnnnnnnnnnnnnnnnnnnnnnnnnnnnnnnnnnnnnnnnnnn",
"nnnnnnnnnnnnnnnn;:ydhhgi3nnnnnnnnnnnnnnnnnnnnnnyddiiiyyisyyr:nnnnnnnnnnnnnnnnnnnnnnnnnnddnnnnnnnnnnnnnnnnnnn",
"nnnnnnnnnnnnnnnnuphhhr::nnnnnnnnnnnnnnnnnnnnnnn:rry:==#:yy::;nnnnnnnnnnnnnnnnnnnnnnnnnn#ddnnnnnnnnnnnnnnnnnn",
"nnnnnnnnnnnnnnnnnphhd:=nnnnnnnnnnnnnnnnnnnnnnnnn1;::===;::=:;nnnnnnnnnnnnnnnnnnnnnnnnnn=:dynnnnnnnnnnnnnnnnn",
"nnnnnnnnnnnnnnnnntpdh1nnnnnnnnnnnnnnnnnnnnnnnnnn;:1yi1yy:=:;;nnnnnnnnnnnnnnnnnnnnnnndhy;=rinnnnnnnnnnnnnnnnn",
"nnnnnnnnnnnnnnnnnrpddr:nnnnnnnnnnnnnnnnnnnnnnnnn:;1yihh1===;nnnnnnnnnnnnnnnnnnnnnnnnnydy;1urnnnnnnnnnnnnnnnn",
"nnnnnnnnnnnnnnnnnrphdy1nnnnnnnnnnnnnnnnnnnnnnnnnn::1311==:;;nnnnnnnnnnnnnnnnnnnnnnnnnnid1rurnnnnnnnnnnnnnnnn",
"nnnnnnnnnnnnnnnnnrphlfunnnnnnnnnnnnnnnnnnnnnnnnnn:==#####==nnnnnnnnnnnnnnnnnnnnnnnnnnnndiuyrnnnnnnnnnnnnnnnn",
"nnnnnnnnnnnnnnnnnrpddhunnnnnnnnnnnnnnnnnnnnnnnnnnn:#####=;nnnnnnnnnnnnnnnnnnnnnnnnnnnnnuir::nnnnnnnnnnnnnnnn",
"nnnnnnnnnnnnnnnnnrpdddunnnnnnnnnnnnnnnnnnnnnnnnnnndiyy1yy:nnnnnnnnnnnnnnnnnnnnnnnnnnnnnddr;;nnnnnnnnnnnnnnnn",
"nnnnnnnnnnnnnnnnnripddu:nnnnnnnnnnnnnnnnnnnnnnnnnnhhjhjzh:;nnnnnnnnnnnnnnnnnnnnnnnnnnnnddr:;nnnnnnnnnnnnnnnn",
"nnnnnnnnnnnnnnnnntppdur:nnnnnnnnnnnnnnllzzllyyyyidlhsssjjiyiyryilllllinnnnnnnnnnnnnnnndyu1:nnnnnnnnnnnnnnnnn",
"nnnnnnnnnnnnnnnnnytpdur:nnnnnnnnnnnnlzvvvvvcxhllxxcxjhjjzjjjjhlxxccccxldynnnnnnnnnnnndddr11nnnnnnnnnnnnnnnnn",
"nnnnnnnnnnnnnnnnnyyiiir:nnnnnnnnnnndzvvvvxxzjhhjjjjzxcxzjhiiihhjxxxxxjzllliynnnnnnnnndiuy11nnnnnnnnnnnnnnnnn",
"nnnnnnnnnnnnnnnnnnyyryr:nnnnnnnnlxxbvczxvxzjhhhzxzjjjzjjjjhjjjhihjjxzjxxxcccxlhunnnnniy1:1:nnnnnnnnnnnnnnnnn",
"nnnnnnnnnnnnnnnnnn11rur:nnnnnxbbccxxzjjzvcxzjzzzjjjjjjjjjzxxxzjhihjiyizjzzzxcvvccxdidu1;=::nnnnnnnnnnnnnnnnn",
"nnnnnnnnnnnnnnnnnn:rr11::nnxbbvjhsdhdy1izccxcxxxzjjzzzjjjzcxxzljhhy#:ihishhjxxcbvbzzs:=#=:;nnnnnnnnnnnnnnnnn",
"nnnnnnnnnnnnnnnnnn;::111uxbvcxjhi1:;=:=#rjjzcccccxzlzzjjjzxxxxxxzj:@=;11:isszxjzcxzj1:##=:;nnnnnnnnnnnnnnnnn",
"nnnnnnnnnnnnnnnnnn;==::1dccxlhsyyy1:#@@@=rjxxxcccbxzjjjzzzxxxxxxjy#@++@=;1ryissshszs:=##;:;nnnnnnnnnnnnnnnnn",
"nnnnnnnnnnnnnnnnnn@@@;rixxzhsyy1::::#+X#=:uhjxxbvxxjhjzzzxxxxxxjs:#@+++++@=;;=;:::11;#@=;;nnnnnnnnnnnnnnnnnn",
"nnnnnnnnnnnnnnnnnn+@@=1ydliiy11:==#@nnnn+:1yhjijvbxxjzxjhzxzjhjs1#@@nnnnnn#@@@@#=====@#@@nnnnnnnnnnnnnnnnnnn",
"nnnnnnnnnnnnnnnnnnn@+##yr111:;;;;nnnnnnn@@1riiiijxxxzxxjhsshhyi1=#@;nnnnnnnnnnnnnnnnnnnnnnnnnnnnnnnnnnnnnnnn",
"nnnnnnnnnnnnnnnnnnnn#@@@=#;##nnnnnnnnnnnn#:1issssjjzzjzjzzjhsi11=#=@nnnnnnnnnnnnnnnnnnnnnnnnnnnnnnnnnnnnnnnn",
"nnnnnnnnnnnnnnnnnnnnnnnnnnnnnnnnnnnnnnnnn;:1yssisjxxxjxxxxxjssyy::;@nnnnnnnnnnnnnnnnnnnnnnnnnnnnnnnnnnnnnnnn",
"nnnnnnnnnnnnnnnnnnnnnnnnnnnnnnnnnnnnnnnnnn1yuijjjjzxxxxxxxzjjhy1::;nnnnnnnnnnnnnnnnnnnnnnnnnnnnnnnnnnnnnnnnn",
"nnnnnnnnnnnnnnnnnnnnnnnnnnnnnnnnnnnnnnnnnn>yihjhijjzzjzlzzjhshhi1:;nnnnnnnnnnnnnnnnnnnnnnnnnnnnnnnnnnnnnnnnn",
"nnnnnnnnnnnnnnnnnnnnnnnnnnnnnnnnnnnnnnnnnnyiiusshjjiiyihhshjiyyss1;nnnnnnnnnnnnnnnnnnnnnnnnnnnnnnnnnnnnnnnnn",
"nnnnnnnnnnnnnnnnnnnnnnnnnnnnnnnnnnnnnnnnnnniyyhjjhhhshhzjhshhhi111;nnnnnnnnnnnnnnnnnnnnnnnnnnnnnnnnnnnnnnnnn",
"nnnnnnnnnnnnnnnnnnnnnnnnnnnnnnnnnnnnnnnnnnnyishjhhzjjzxzjzjssjhy:=-nnnnnnnnnnnnnnnnnnnnnnnnnnnnnnnnnnnnnnnnn",
"nnnnnnnnnnnnnnnnnnnnnnnnnnnnnnnnnnnnnnnnnnn5diiijjzzzjjjjjjhiiii1;nnnnnnnnnnnnnnnnnnnnnnnnnnnnnnnnnnnnnnnnnn",
"nnnnnnnnnnnnnnnnnnnnnnnnnnnnnnnnnnnnnnnnnnnyyyishjjzzjiiiisss1111;nnnnnnnnnnnnnnnnnnnnnnnnnnnnnnnnnnnnnnnnnn",
"nnnnnnnnnnnnnnnnnnnnnnnnnnnnnnnnnnnnnnnnnnn341issssiihshjjhiyy3>;-nnnnnnnnnnnnnnnnnnnnnnnnnnnnnnnnnnnnnnnnnn",
"nnnnnnnnnnnnnnnnnnnnnnnnnnnnnnnnnnnnnnnnnnnn31yisjzzzlhzxzjjii::;nnnnnnnnnnnnnnnnnnnnnnnnnnnnnnnnnnnnnnnnnnn",
"nnnnnnnnnnnnnnnnnnnnnnnnnnnnnnnnnnnnnnnnnnnnuuddhjxbcxjhzzjjjhi;@nnnnnnnnnnnnnnnnnnnnnnnnnnnnnnnnnnnnnnnnnnn",
"nnnnnnnnnnnnnnnnnnnnnnnnnnnnnnnnnnnnnnnnnnnnyudidhjjzj11jhhiyis;@nnnnnnnnnnnnnnnnnnnnnnnnnnnnnnnnnnnnnnnnnnn",
"nnnnnnnnnnnnnnnnnnnnnnnnnnnnnnnnnnnnnnnnnnnn3uddshzjhjiiijjjhi1:#nnnnnnnnnnnnnnnnnnnnnnnnnnnnnnnnnnnnnnnnnnn",
"nnnnnnnnnnnnnnnnnnnnnnnnnnnnnnnnnnnnnnnnnnnnyudhjjjjjjhjjjhhhiypr#nnnnnnnnnnnnnnnnnnnnnnnnnnnnnnnnnnnnnnnnnn",
"nnnnnnnnnnnnnnnnnnnnnnnnnnnnnnnnnnnnnnnnnnnuudiishhjzjjjjhi111yi1;nnnnnnnnnnnnnnnnnnnnnnnnnnnnnnnnnnnnnnnnnn",
"nnnnnnnnnnnnnnnnnnnnnnnnnnnnnnnnnnnnnnnnnnn887799980qwwewq99909*%%nnnnnnnnnnnnnnnnnnnnnnnnnnnnnnnnnnnnnnnnnn",
"nnnnnnnnnnnnnnnnnnnnnnnnnnnnnnnnnnnnnnnnnnn6%%$******778985fft<,,,nnnnnnnnnnnnnnnnnnnnnnnnnnnnnnnnnnnnnnnnnn",
"nnnnnnnnnnnnnnnnnnnnnnnnnnnnnnnnnnnnnnnnnnn355agkkkggffttag*&5t**&&nnnnnnnnnnnnnnnnnnnnnnnnnnnnnnnnnnnnnnnnn",
"nnnnnnnnnnnnnnnnnnnnnnnnnnnnnnnnnnnnnnnnnnn9890qqqwwewqq9ta&%>a*&6%nnnnnnnnnnnnnnnnnnnnnnnnnnnnnnnnnnnnnnnnn",
"nnnnnnnnnnnnnnnnnnnnnnnnnnnnnnnnnnnnnnnnnnn7878800qqqqq098a***>5*&%&nnnnnnnnnnnnnnnnnnnnnnnnnnnnnnnnnnnnnnnn",
"nnnnnnnnnnnnnnnnnnnnnnnnnnnnnnnnnnnnnnnnnn886778800qqqqq0fa888*5a*%&nnnnnnnnnnnnnnnnnnnnnnnnnnnnnnnnnnnnnnnn",
"nnnnnnnnnnnnnnnnnnnnnnnnnnnnnnnnnnnnnnnnnn766***78000qq00fg988*5a5%*nnnnnnnnnnnnnnnnnnnnnnnnnnnnnnnnnnnnnnnn",
"nnnnnnnnnnnnnnnnnnnnnnnnnnnnnnnnnnnnnnnnnn766***7789008**>5*787*afa%&nnnnnnnnnnnnnnnnnnnnnnnnnnnnnnnnnnnnnnn",
"nnnnnnnnnnnnnnnnnnnnnnnnnnnnnnnnnnnnnnnnn766**777898997%$$&*87**agf&&nnnnnnnnnnnnnnnnnnnnnnnnnnnnnnnnnnnnnnn",
"nnnnnnnnnnnnnnnnnnnnnnnnnnnnnnnnnnnnnnnnn7*6***788888888778998888&*6%nnnnnnnnnnnnnnnnnnnnnnnnnnnnnnnnnnnnnnn",
"nnnnnnnnnnnnnnnnnnnnnnnnnnnnnnnnnnnnnnnnn*66*&&*777777*8999999998777&nnnnnnnnnnnnnnnnnnnnnnnnnnnnnnnnnnnnnnn",
"nnnnnnnnnnnnnnnnnnnnnnnnnnnnnnnnnnnnnnnn6679*77890988*%%*677890090q0*%nnnnnnnnnnnnnnnnnnnnnnnnnnnnnnnnnnnnnn",
"nnnnnnnnnnnnnnnnnnnnnnnnnnnnnnnnnnnnnnnn788889q0008***$$$*7880qq0890*&nnnnnnnnnnnnnnnnnnnnnnnnnnnnnnnnnnnnnn",
"nnnnnnnnnnnnnnnnnnnnnnnnnnnnnnnnnnnnnnnn78900000997*&%$.%678790098797%nnnnnnnnnnnnnnnnnnnnnnnnnnnnnnnnnnnnnn",
"nnnnnnnnnnnnnnnnnnnnnnnnnnnnnnnnnnnnnnn76899009987&%$%Oo%7*77*7877787&*nnnnnnnnnnnnnnnnnnnnnnnnnnnnnnnnnnnnn",
"nnnnnnnnnnnnnnnnnnnnnnnnnnnnnnnnnnnnnnn767909098*&%$.oO.$&*7****777*7%&nnnnnnnnnnnnnnnnnnnnnnnnnnnnnnnnnnnnn",
"nnnnnnnnnnnnnnnnnnnnnnnnnnnnnnnnnnnnnnn789900987&$$o .o.O%77**********%nnnnnnnnnnnnnnnnnnnnnnnnnnnnnnnnnnnnn",
"nnnnnnnnnnnnnnnnnnnnnnnnnnnnnnnnnnnnnn87800997*&%%%o..O.o%*6*&*7**7***%nnnnnnnnnnnnnnnnnnnnnnnnnnnnnnnnnnnnn",
"nnnnnnnnnnnnnnnnnnnnnnnnnnnnnnnnnnnnnn7880007****%%o  OnnoO%*6**O%7**7&*nnnnnnnnnnnnnnnnnnnnnnnnnnnnnnnnnnnn",
"nnnnnnnnnnnnnnnnnnnnnnnnnnnnnnnnnnnnn7890988$$$%&%$oonnnnn%%%$$$o&&7**%&*nnnnnnnnnnnnnnnnnnnnnnnnnnnnnnnnnnn",
"nnnnnnnnnnnnnnnnnnnnnnnnnnnnnnnnnnnnn689q9**$%.ooOOOnnnnnnn$%Oo.ri;***&*%%nnnnnnnnnnnnnnnnnnnnnnnnnnnnnnnnnn",
"nnnnnnnnnnnnnnnnnnnnnnnnnnnnnnnnnnnnn7888&$$:1=...Onnnnnnnnn&ooOrdy$$%*&$nnnnnnnnnnnnnnnnnnnnnnnnnnnnnnnnnnn",
"nnnnnnnnnnnnnnnnnnnnnnnnnnnnnnnnnnnn7&&7&*#;r1:@o.Onnnnnnnnn&o$$ihhr$OOonnnnnnnnnnnnnnnnnnnnnnnnnnnnnnnnnnnn",
"nnnnnnnnnnnnnnnnnnnnnnnnnnnnnnnnnnnn&OOO1i;iy1=#@OOnnnnnnnnnnOoodllli:$Onnnnnnnnnnnnnnnnnnnnnnnnnnnnnnnnnnnn",
"nnnnnnnnnnnnnnnnnnnnnnnnnnnnnnnnnnn*.:yuhlzsyr:=#O%nnnnnnnnnnO.@dlxlsiy1nnnnnnnnnnnnnnnnnnnnnnnnnnnnnnnnnnnn",
"nnnnnnnnnnnnnnnnnnnnnnnnnnnnnnnnnnn$+ihljjzsir1=##nnnnnnnnnnn.+;dxxjhsssunnnnnnnnnnnnnnnnnnnnnnnnnnnnnnnnnnn",
"nnnnnnnnnnnnnnnnnnnnnnnnnnnnnnnnnnnnydhxjjjhsu1=@#nnnnnnnnnnnO@rilxzhjjhdnnnnnnnnnnnnnnnnnnnnnnnnnnnnnnnnnnn",
"nnnnnnnnnnnnnnnnnnnnnnnnnnnnnnnnnnnnuhlxxzjhhr:=Xnnnnnnnnnnnnn;yiszzshjjdnnnnnnnnnnnnnnnnnnnnnnnnnnnnnnnnnnn",
"nnnnnnnnnnnnnnnnnnnnnnnnnnnnnnnnnnnnuhxcxldsh1:nnnnnnnnnnnnnnn;;ydzcjhjjdunnnnnnnnnnnnnnnnnnnnnnnnnnnnnnnnnn",
"nnnnnnnnnnnnnnnnnnnnnnnnnnnnnnnnnnnnulvxzdussr:nnnnnnnnnnnnnnnnryulclhhjsunnnnnnnnnnnnnnnnnnnnnnnnnnnnnnnnnn",
"nnnnnnnnnnnnnnnnnnnnnnnnnnnnnnnnnnnndhxzsuisy1nnnnnnnnnnnnnnnnn;yrsjjshhsdrnnnnnnnnnnnnnnnnnnnnnnnnnnnnnnnnn",
"nnnnnnnnnnnnnnnnnnnnnnnnnnnnnnnnnnnnilhsyysir:nnnnnnnnnnnnnnnnnn1:uhhsshsuynnnnnnnnnnnnnnnnnnnnnnnnnnnnnnnnn",
"nnnnnnnnnnnnnnnnnnnnnnnnnnnnnnnnnnnnydiyrss11:nnnnnnnnnnnnnnnnnn;:1iiidhsuunnnnnnnnnnnnnnnnnnnnnnnnnnnnnnnnn",
"nnnnnnnnnnnnnnnnnnnnnnnnnnnnnnnnnnn;1ry:1yyy:nnnnnnnnnnnnnnnnnnnn;;1udjhiyr;nnnnnnnnnnnnnnnnnnnnnnnnnnnnnnnn",
"nnnnnnnnnnnnnnnnnnnnnnnnnnnnnnnnnnn;1rr1r1yr:nnnnnnnnnnnnnnnnnnnn@;:rshhi1:#nnnnnnnnnnnnnnnnnnnnnnnnnnnnnnnn",
"nnnnnnnnnnnnnnnnnnnnnnnnnnnnnnnnnnn;yyuy1::1nnnnnnnnnnnnnnnnnnnnnn=;1ussy1:@nnnnnnnnnnnnnnnnnnnnnnnnnnnnnnnn",
"nnnnnnnnnnnnnnnnnnnnnnnnnnnnnnnnnnnyyryyy;=;nnnnnnnnnnnnnnnnnnnnnn@#;1y1:1:;nnnnnnnnnnnnnnnnnnnnnnnnnnnnnnnn",
"nnnnnnnnnnnnnnnnnnnnnnnnnnnnnnnnnnnyr1:11;=;nnnnnnnnnnnnnnnnnnnnnn:;=;:;:::;nnnnnnnnnnnnnnnnnnnnnnnnnnnnnnnn",
"nnnnnnnnnnnnnnnnnnnnnnnnnnnnnnnnnnn111;=;;=nnnnnnnnnnnnnnnnnnnnnnn1:=#==;:;;nnnnnnnnnnnnnnnnnnnnnnnnnnnnnnnn",
"nnnnnnnnnnnnnnnnnnnnnnnnnnnnnnnnnnn11::====nnnnnnnnnnnnnnnnnnnnnnn;::;;=::;;nnnnnnnnnnnnnnnnnnnnnnnnnnnnnnnn",
"nnnnnnnnnnnnnnnnnnnnnnnnnnnnnnnnnnn:1::====nnnnnnnnnnnnnnnnnnnnnnn#;;=;;;:=;nnnnnnnnnnnnnnnnnnnnnnnnnnnnnnnn",
"nnnnnnnnnnnnnnnnnnnnnnnnnnnnnnnnnnn#:::;==nnnnnnnnnnnnnnnnnnnnnnnn@==;=;;==;nnnnnnnnnnnnnnnnnnnnnnnnnnnnnnnn",
"nnnnnnnnnnnnnnnnnnnnnnnnnnnnnnnnnnn#::====nnnnnnnnnnnnnnnnnnnnnnnnn+#;;;:=;;nnnnnnnnnnnnnnnnnnnnnnnnnnnnnnnn",
"nnnnnnnnnnnnnnnnnnnnnnnnnnnnnnnnnnn#:;==#=nnnnnnnnnnnnnnnnnnnnnnnnn+#=;:;:;;nnnnnnnnnnnnnnnnnnnnnnnnnnnnnnnn",
"nnnnnnnnnnnnnnnnnnnnnnnnnnnnnnnnnnn;::;===nnnnnnnnnnnnnnnnnnnnnnnnn@+#=;::;@nnnnnnnnnnnnnnnnnnnnnnnnnnnnnnnn",
"nnnnnnnnnnnnnnnnnnnnnnnnnnnnnnnnnnn#:;===nnnnnnnnnnnnnnnnnnnnnnnnnnn#@#=:;;@nnnnnnnnnnnnnnnnnnnnnnnnnnnnnnnn",
"nnnnnnnnnnnnnnnnnnnnnnnnnnnnnnnnnnn;#;===nnnnnnnnnnnnnnnnnnnnnnnnnnn@;=;:;;@nnnnnnnnnnnnnnnnnnnnnnnnnnnnnnnn",
"nnnnnnnnnnnnnnnnnnnnnnnnnnnnnnnnnnn;::;=#nnnnnnnnnnnnnnnnnnnnnnnnnnn#@;;::;@nnnnnnnnnnnnnnnnnnnnnnnnnnnnnnnn",
"nnnnnnnnnnnnnnnnnnnnnnnnnnnnnnnnnnn#::;;;nnnnnnnnnnnnnnnnnnnnnnnnnnnn@;;:;;@nnnnnnnnnnnnnnnnnnnnnnnnnnnnnnnn",
"nnnnnnnnnnnnnnnnnnnnnnnnnnnnnnnnnnn#::;=;nnnnnnnnnnnnnnnnnnnnnnnnnnnn@;;:=;@nnnnnnnnnnnnnnnnnnnnnnnnnnnnnnnn",
"nnnnnnnnnnnnnnnnnnnnnnnnnnnnnnnnnnn;:;=;:nnnnnnnnnnnnnnnnnnnnnnnnnnnnn;;;=;@nnnnnnnnnnnnnnnnnnnnnnnnnnnnnnnn",
"nnnnnnnnnnnnnnnnnnnnnnnnnnnnnnnnnnn#:;==;nnnnnnnnnnnnnnnnnnnnnnnnnnnnn;:1:;;nnnnnnnnnnnnnnnnnnnnnnnnnnnnnnnn",
"nnnnnnnnnnnnnnnnnnnnnnnnnnnnnnnnnnn1:r1::;nnnnnnnnnnnnnnnnnnnnnnnnnnnn:1r1=;nnnnnnnnnnnnnnnnnnnnnnnnnnnnnnnn",
"nnnnnnnnnnnnnnnnnnnnnnnnnnnnnnnnnnndu11ry:nnnnnnnnnnnnnnnnnnnnnnnnnnn;yyu:=;nnnnnnnnnnnnnnnnnnnnnnnnnnnnnnnn",
"nnnnnnnnnnnnnnnnnnnnnnnnnnnnnnnnnnllhu11y:nnnnnnnnnnnnnnnnnnnnnnnnnnniyr:11;;nnnnnnnnnnnnnnnnnnnnnnnnnnnnnnn",
"nnnnnnnnnnnnnnnnnnnnnnnnnnnnnnnnnnlllxhs1;nnnnnnnnnnnnnnnnnnnnnnnnnnnddyidr1;nnnnnnnnnnnnnnnnnnnnnnnnnnnnnnn",
"nnnnnnnnnnnnnnnnnnnnnnnnnnnnnnnnnhllxxjr;;nnnnnnnnnnnnnnnnnnnnnnnnnnnfhhlxh1:;nnnnnnnnnnnnnnnnnnnnnnnnnnnnnn",
"nnnnnnnnnnnnnnnnnnnnnnnnnnnnnnnnhllzzxsy=;nnnnnnnnnnnnnnnnnnnnnnnnnnnppllxxhr;nnnnnnnnnnnnnnnnnnnnnnnnnnnnnn",
"nnnnnnnnnnnnnnnnnnnnnnnnnnnnnnnnhhhllls1;nnnnnnnnnnnnnnnnnnnnnnnnnnnnuflllzjs:@nnnnnnnnnnnnnnnnnnnnnnnnnnnnn",
"nnnnnnnnnnnnnnnnnnnnnnnnnnnnnnnudid1rhy:;nnnnnnnnnnnnnnnnnnnnnnnnnnnnnpfljjjh1;nnnnnnnnnnnnnnnnnnnnnnnnnnnnn",
"nnnnnnnnnnnnnnnnnnnnnnnnnnnnnnn;dddrllu;nnnnnnnnnnnnnnnnnnnnnnnnnnnnnnrpidyisr;#nnnnnnnnnnnnnnnnnnnnnnnnnnnn",
"nnnnnnnnnnnnnnnnnnnnnnnnnnnnnnnn;;;;ii;nnnnnnnnnnnnnnnnnnnnnnnnnnnnnnnrtyiuur1;@nnnnnnnnnnnnnnnnnnnnnnnnnnnn",
"nnnnnnnnnnnnnnnnnnnnnnnnnnnnnnnnnnnnnnnnnnnnnnnnnnnnnnnnnnnnnnnnnnnnnnnnnnnnnnnnnnnnnnnnnnnnnnnnnnnnnnnnnnnn",
"nnnnnnnnnnnnnnnnnnnnnnnnnnnnnnnnnnnnnnnnnnnnnnnnnnnnnnnnnnnnnnnnnnnnnnnnnnnnnnnnnnnnnnnnnnnnnnnnnnnnnnnnnnnn",
"nnnnnnnnnnnnnnnnnnnnnnnnnnnnnnnnnnnnnnnnnnnnnnnnnnnnnnnnnnnnnnnnnnnnnnnnnnnnnnnnnnnnnnnnnnnnnnnnnnnnnnnnnnnn",
"nnnnnnnnnnnnnnnnnnnnnnnnnnnnnnnnnnnnnnnnnnnnnnnnnnnnnnnnnnnnnnnnnnnnnnnnnnnnnnnnnnnnnnnnnnnnnnnnnnnnnnnnnnnn"
};
