/* XPM */
static char *_643879288782[] = {
/* columns rows colors chars-per-pixel */
"82 79 60 1 ",
"  c #333333",
". c #3C3C3C",
"X c #404041",
"o c #676767",
"O c #6C6C6C",
"+ c #737375",
"@ c #767879",
"# c #7C7C7C",
"$ c #807E80",
"% c #808080",
"& c #8E8D85",
"* c #8B8B8B",
"= c #908F86",
"- c #928F8B",
"; c #94928B",
": c #98978E",
"> c #918D91",
", c #969392",
"< c #9A9695",
"1 c #969997",
"2 c #9B9992",
"3 c #9E9B9A",
"4 c #A29E9D",
"5 c #A4A09F",
"6 c #A09FA1",
"7 c #A5A3A2",
"8 c #A9A5A4",
"9 c #A6A9A5",
"0 c #ACA8A7",
"q c #A7A7A9",
"w c #A9A7A8",
"e c #A7AAAA",
"r c #AEAAAA",
"t c #B2AEAD",
"y c #AFB0AE",
"u c #B4B0AF",
"i c #AEACB0",
"p c #B3AFB0",
"a c #AFB1B1",
"s c #B6B2B1",
"d c #BAB5B5",
"f c #BCB8B7",
"g c #B6B4B8",
"h c #BBB7B9",
"j c #B7B8B8",
"k c #BEBBBB",
"l c #C1BDBC",
"z c #BFC1BE",
"x c #C4C0BF",
"c c #BEBEC0",
"v c #C3BFC1",
"b c #BFC0C1",
"n c #C6C2C2",
"m c #C9C5C4",
"M c #C6C8C5",
"N c #CAC8C6",
"B c #C6C5C9",
"V c #C9C7C9",
"C c #C7C9C8",
"Z c #CAC9C9",
/* pixels */
"&&&=::;&;;2&:--=;:;&&=&;;:::--&;;;&-;2&:;;&;:;&&-&-;2;:=;;;-;=;;;&;:&-&;2&;&2&2&&&",
":++++++++++++++++++++++++++++++++++++++++++++++++++++++++++++++++++++++++++++++++;",
":+kcckczkcckcbbkzzzzzzkzcckckbzkzbzccckzccbkzckbcbbkckzbbzcckczccckckccckckbbckc+;",
":+cXXXXXXXXXXXXXXXXXXXXXXXXXXXXXXXXXXXXXXXXXXXXXXXXXXXXXXXXXXXXXXXXXXXXXXXXXXXXc+;",
"&+cXXXXXXXXXXXXXXXXXXXXXXXXXXXXXXXXXXXXXXXXXXX.XXXXXXXXXXXXXXXXX.XXXXXXXXXXXXXXb+=",
"=+cXX......X.X...XX..X.XX.X.X.X.X.X...X..X.X.X..X....X.X.X..X.X....X.....X...XXk+;",
";+kXX.......................................................... ..........X.XXXz+;",
":+cXXX.                                                      .  .         ...XXb+:",
"&+cXXX.            .                                                       ..XXc+&",
":+cXX..  kZCmmnnxxxxxxNxxxxxxxllnblkvvlN$kmBmnvnjzfzzzzzbnnmbcckxzzkxkBZB  .XXXc+:",
";+zXX..  jMkkchhlullxzdzxxlllltlssputttc$sssddddsdddysdddjdsssgsuuuuusuMs  ..XXc+;",
";+kXXX.  rfddssslsutsdssulutt0ltyrtrtttg$7ssssdsdssdussssssstpsrttttrrrd8  .XX.c+-",
"&+kXXX.  phpssssslulusulututttltttrtttth%euusssssddsddusuyuuttptrtttruyht   .XXc+=",
";+cXX..  phsssssuuuussuuuuuttt00trtttrph$quussssssssusssuusttpuutttrurugt  .XXXv+;",
":+cXX..  ghdsspslusdssuuuuuuttltttttttpk%rrussuussdsudsssuutuuttrturruphs  ..XXc+;",
";+cXX..  gvhsstsuuusssuluuuut00ttttrttpl%aguusssusssssdusuuuutttturrttpks  ..XXc+;",
"&+cXXX.  jzjuuutuuuusssuttlttt00ttttttul%ssusuupuuuuuuuuuutttttttrttttslg  ..XXc+&",
"&+cXX..  kxduuttttttusuutt0ttt0ltrttttsM%fsutuuuutuuutuututtttttttttttsld   XXXv+&",
"-+zXXX.  fnduutttttttttuttttttt00tttttuM%dsutttturttttttttttttttttttttsld  ..XXc+-",
"&+kXX..  zMhduttttttttttttttttt0tttuttgC%fsuutttuutrttttttttttttutuutuslg  ..XXc+&",
"-+cXXX.  kxfdptttt0tttt0rtttutttttutuufZ%hssptttuttrtuttttttttutptuupupvg  ...Xc+;",
";+cXX..  kndsspsutttttttrtuutuuttuuusujM%ksssttsuutttrt00ttuuuuuuuuuuspvp  ..XXc+;",
":+zXXX.  knldsttuuttttttrutuuuuttuuussdm%kjssuuuuuttttttttttuuuuppsuuspvs  .XXXv+:",
":+kXX..  xxldsstuuttttt0rtuuuuuuuuuuushM%hjssssuuuttrttttttutuuuspuusupls  ..XXv+;",
":+kXX..  znkdduuuuutttttttttuuutssuustll%khsdsuusuutttuttttuuuulsuussslva  ..XXc+:",
"=+bXXX.  jMxfddsuuttttuttttuuussusuusllx%lfjdsdusstutttutttttuttssssusplu  ..XXb+=",
"-+cXX..  knzdjduuuutttuustttssssssduusdx%ldssdddsuutttuututtuutusssssplli  .XXXk+;",
";+cXXX.  jMkjdddluutuuuuutttuusussuduulx$ldddssslstuususutttuuuussssslsl9  ..XXb+;",
";+kXX..  abxjdsstuuuuuuusttsssttsudusdfx$ldssttltusuuusuuuutuuulssdpdddz7  .XXXz+;",
";+bXXX.  gnzfjdsduduuuuusstssslsddsusfkM$lsdllususluuuusuuuultutsddddfdk7  ..XXb+;",
";+zXX..  sbzkddduuuduuddtussssssdssdsfzx$ldutssssuttuuuuuututlluddddddkk5  ..XXz+;",
"=+bXX..  yzxkdddlududuudssssltludddddjxx#lllsllsltlsutldudluuutlddddddjd7  ..XXz+=",
";+bXX..  sxxluullt0l0lllurlrtluldffdfflx%khffhhdddddssdsssslululddddldlf8  .XXXb+;",
";+cXXX.  uMxlllllll0l0lllltllulldfffffkM%kfflfffldddssldsltllslsldlddlll8  ..XXk+;",
"-+kXXX.  yxxldlllllllllllutlllllzffffllm%fllfldllffldllllsllllslllllllxx7  .XXXc+-",
"&+zXX..  yxllllll0tllllllllllllllflxxlxZ%fllvlllllflllllllllllllllllllxx0  ..XXc+&",
";+kXX..  yMnmvvlllllllvllllmllmlllvlxxxZ%lllllmllllnnllvvlxvlxxllnllnnvne  ..XXb+-",
"2+bXXX.  rnnvmmmllllmvmmlllmmvvlmlmvxxmN%llxmmmxxxlnnnnmmmmmllmmnxmmnnnnt  ..XXk+2",
"&+kXX..  aBBvNmmmmlmmmmmmmmNmmmlvmlmnnnZ%llmmmNmmnnmmmmmmmmmmmmmmnnmnmnVu  .XXXc+&",
";+bXX..  rCmNmNNmxmmmmNmNmmmmmmmmlnmmnnZ$lmNmmmNmmnmNmNmmmmmmmmmmmnnnmmNr  ..XXc+:",
";+kXXX.  0VmNmNmmmlNNmNmmNmNmmmmmlmmmmmN$xnMmmNmmmNmmNNmmmNmmmNmmnmmxmnNa  ..XXc+;",
"-+bXX..  rNvmNmmNNNNNNmmmmmNmNmmmmmlmnnZ%xnnNmmmNmmNmmmmNmmNmmmmmmlmmmmNy  .XXXc+-",
"=+bXXX.  8mmVNmmmmmmmmmmmmmmNmmmmmmvNmmm%lnmmmmmmmmmmmmmmmNmmmmvmxxmmmmmi  ..XXb+&",
";+bXX..  rmmmmmmmmmmmmmmmmmmmmmlvlmmnmnm%lnmmmmmmmmmmmmmmmmmmmmmmxmmlmmme  .XXXk+;",
";+cXX..  5vmmmmmmmmmmmmmmmmxmmmmmmmmxmmN%fnmNmmmmmmmmmmmmmmmmmmmxmxmnMBme  .XXXb+:",
";+cXX..  8mvmmmmmlmmmmmmmmmmmxmxmlmmmxvN%fnmmmmmmmvmmmmmmmlmmxmxmmmxnnxme  ..XXk+;",
"&+zXX..  5vlmmmmmmmmlmmmmlxmmxmmmmmmxllm%dnnnnnmmNmxxmlmmlxmxmmxmxmnxxnn9  .XXXc+&",
"&+bXXX.  8mmmlllmlmlmmmlmxxxmmmmlmlxmmml%lnxnnxxlxlmmvmmmlmlmxmmxnxnnnlvw  ..XXc+&",
"-+bXX..  6bxxnlxxxxxxxxxxxlmxxmxxnnnnMnn$llllllllNllllllllmlNmmlxxxnnmnv0  .XXXb+;",
"&+zXXX.  6zxlllxxllxxxxxxxlxxlxxlxlnnnkb$llllllllxlNllllmllllmllllnxnxln0  ..XXk+&",
"-+cXX... 3bxllllllllxxlllmllllllllxnlnln$dllllllllllllllllmllllllllxlxlv7  .XXXb+-",
";+kX...  3bzlfllllllllllllxlllllllllnlkb$dllllllllllllllllllllllllllxxln7  ..XXk+;",
"1+bXX..  6nfkllflllllllllllllllllllllxln$dflllsllllllll0lllllllllllllnlnw  .XXXc+:",
";+kXXX.  6clfllfdlllllffllldlddlllllllfx$dlflllsllllllllltlllllllffllkfkq  ..XXc+:",
":+zXX..  1kfdlffdlldlldllllllldddldllfkk%dflsllllllllllllllllllllllkflfc7   XXXc+:",
"=+zXX..  3klflfldllldllllddlddllllllllfk%sffllulllllllllltltllllhlllflkk7  ..XXc+&",
";+cXX..  1kdhfkfdllldlldlfllfflflllfldlf#ullslltllllllltlllllll0llllllkk6  .XXXk+;",
";+cXXX.  1hhffffdddfdllfllfflffllddldlfh#lluullul0lttllllllltlllflddfdff7  ..XXc+;",
";+zXXX.  1jddfdfdlddllfldlllffffdlllkdfh#utllull0lllllllllllllllfffffdff9  .XXXc+;",
";+zXX..  ,jdfdfdfddldldlldffflffddsdfkdh#8llulltlll0llll0lltlll0ffffdlff6  ..XXc+;",
";+kXX..  1hdhdfddfdfdldlddldfksddkdffffd$rltlll000lllltttlll0tl0ddffdkdj9  .XXXk+:",
"=+bXXX.  1gdffdffdfdsffddfddkdsddffdfdfj$8ll0tlllllt0lllll0lll0lddffdfdj7   .XXz+=",
"-+bXX..  >sdddddddddddddddddddsdsdddddds$ll0lt0ll0tllllttll00lllsdddddjs6  .XXXk+-",
";+cX...  ,sdsdsdddddsddssddddssdsdddddsg$00ltll0lll00ltlttl0ll00ddddddds6  ..XXz+-",
"-+cXX..  >assssssssdssssssssssussssssddp$rsssdssdsddssssl0ll0tl0l0tlt0lr3  ..XXc+;",
"&+bXX..  >rsssssrsssupuusussuuusuususspt$isssppsussspust0l0tlt0ttt0ltllr<  ..XXc+&",
";+zXX..  *rpssttrtssttttuuttuuuuttstusur$rtstpttussttutttttt0l0lpttttrr0>  ..XXc+-",
":+kXXX.  *rtrtttttttpttttttttuturtssusur%rttttttttttttttttt80t0tttl0tlpr>  .XXXk+:",
"&+bXXX.  *8ttr0trrttttttttrtttrttrtttptw%wtt0tttturuttttl80ltt8lrtppptt8*   .XXv+&",
"&+cXX..  *7trt0trrrtt0rtrtrtrrrtrrttttt8$0tttr0trrrrttr00t00008ttrttttt8*  ..XXv+&",
"++kXXX.  %0rr000rt0000rrrr00rr8rrrt000r0%8rr0rr0rrrrr0rr0t08000r00rrrrr8*  .XXXv++",
"zbbXX..  *8808800000888088886888w0008008%900w008880008808888888800088rr6*  ..XXlkb",
"XXXXX..  %798686888888888445585868888666$8888858808888888448558888888856$ ..XXXXXX",
"XXXXX..  %64444445445555444444446444444<$4445554444444444444444544445444$  ...XXXX",
".......  $334<34<444444<444<<<4444444444$4444<4<44444444<444<444444<<334$  ......X",
".......  #11<<<<<<<<<<4<<<,,<<<<<<-<4,-,#44<<<:4,<,4<<<4<4---<<<<<<<<<<<#  .......",
"     .   #1,;,;;<-<--<<--<----,,-,-,,,-<$<;,:,,--,,,-<---,---,,->>--<>-<#         ",
"         %##$$%%$#$$$++##+++O+OooOOOOOOO$&$$$$$$$$######@+++O+OoOOOOO+OOo         ",
"         +@#$$#$#$######+++++OOOOOOOOOOOo@@##$#########+@++++OOOoOoOOOOOo         "
};
