/* XPM */
static char *_643879303721[] = {
/* columns rows colors chars-per-pixel */
"82 79 128 2 ",
"   c #1D1108",
".  c #351F0C",
"X  c #37210C",
"o  c #3D250E",
"O  c #333333",
"+  c #3D3936",
"@  c #3C3C3C",
"#  c #452A10",
"$  c #4C2E12",
"%  c #502F14",
"&  c #543214",
"*  c #5A3516",
"=  c #5E3817",
"-  c #5B3718",
";  c #5E3918",
":  c #603917",
">  c #643C19",
",  c #693F1A",
"<  c #6D411A",
"1  c #75451C",
"2  c #78471C",
"3  c #7C491D",
"4  c #46433D",
"5  c #50473C",
"6  c #404041",
"7  c #454840",
"8  c #4E4C49",
"9  c #524D45",
"0  c #534D4B",
"q  c #535146",
"w  c #54524B",
"e  c #59554D",
"r  c #5A5A4E",
"t  c #565551",
"y  c #5B5652",
"u  c #545850",
"i  c #5D5A55",
"p  c #5F5D59",
"a  c #615D56",
"s  c #625E5A",
"d  c #5F6057",
"f  c #5E615B",
"g  c #636057",
"h  c #64625C",
"j  c #69645E",
"k  c #65685D",
"l  c #6A695E",
"z  c #666561",
"x  c #6A6662",
"c  c #676861",
"v  c #6C6A65",
"b  c #6F6768",
"n  c #6D6D6A",
"m  c #726E65",
"M  c #716D6A",
"N  c #6F7267",
"B  c #6F726B",
"V  c #727166",
"C  c #73726C",
"Z  c #74786C",
"A  c #79796E",
"S  c #726E70",
"D  c #737375",
"F  c #797573",
"G  c #767872",
"H  c #7A7A74",
"J  c #767879",
"K  c #7D7D7C",
"L  c #824A1E",
"P  c #84501F",
"I  c #865120",
"U  c #8D5522",
"Y  c #965622",
"T  c #935923",
"R  c #9C5B23",
"E  c #A25E25",
"W  c #A86126",
"Q  c #807F7D",
"!  c #82807D",
"~  c #807E80",
"^  c #808080",
"/  c #8E8D85",
"(  c #908F86",
")  c #928F89",
"_  c #94928B",
"`  c #98978E",
"'  c #969392",
"]  c #9A9695",
"[  c #9A9991",
"{  c #9E9B9A",
"}  c #A29E9D",
"|  c #A3A09E",
" . c #A6A3A3",
".. c #A9A5A4",
"X. c #A6A9A5",
"o. c #ACA8A7",
"O. c #A7A7A9",
"+. c #A9A7A8",
"@. c #AEABAA",
"#. c #B2AEAD",
"$. c #AFB0AE",
"%. c #B4B0AF",
"&. c #AEAEB1",
"*. c #B3AFB0",
"=. c #AFB1B1",
"-. c #B6B2B1",
";. c #BAB6B5",
":. c #BCB8B7",
">. c #BBB7B9",
",. c #BEBCBD",
"<. c #C1BDBC",
"1. c #BFC0BE",
"2. c #C4C0BF",
"3. c #BDBFC1",
"4. c #C3BFC0",
"5. c #C6C2C2",
"6. c #C9C5C4",
"7. c #C6C8C5",
"8. c #CACAC6",
"9. c #C6C6CA",
"0. c #C7C9C8",
"q. c #CAC8C9",
"w. c #DCDCDF",
"e. c #DFDFE2",
"r. c #E3E3E6",
"t. c #E6E6E9",
"y. c #EAEAED",
"u. c #F6F6F7",
/* pixels */
"/ / / ( ` _ _ / _ _ [ / ` _ ) ( _ ` _ / / ) / _ _ ` ` ` ) _ / _ ` _ / _ _ [ / ` _ _ / _ ` _ / / _ / _ _ ` _ ` ) _ _ _ _ _ ) _ _ _ / _ ` / ) / _ [ / _ / ` ( ` ( ( / ",
"` D D D D D D D D D D D D D D D D D D D D D D D D D D D D D D D D D D D D D D D D D D D D D D D D D D D D D D D D D D D D D D D D D D D D D D D D D D D D D D D D _ ",
"` D ,.3.3.,.3.<.3.,.3.3.,.3.,.3.3.<.3.3.3.3.,.3.3.3.3.,.3.<.3.,.,.3.,.3.,.3.,.3.3.,.4.3.3.3.3.,.3.3.3.,.3.3.,.3.,.3.3.3.3.,.,.3.3.<.,.,.3.,.3.3.3.3.3.,.3.3.<.3.D _ ",
"_ D ,.6 6 6 6 6 6 6 6 6 6 6 6 6 6 6 6 6 6 6 6 6 6 6 6 6 6 6 6 6 6 6 6 6 6 6 6 6 6 6 6 6 6 6 6 6 6 6 6 6 6 6 6 6 6 6 6 6 6 6 6 6 6 6 6 6 6 6 6 6 6 6 6 6 6 6 6 3.D ` ",
"/ D 3.6 6 6 6 6 6 6 6 6 6 6 6 6 6 6 6 6 6 6 6 6 6 6 6 6 6 6 6 6 6 6 6 6 6 6 6 6 @ 6 6 6 6 6 6 6 6 6 6 6 6 6 6 4 6 4 6 6 6 6 6 6 6 6 6 6 6 6 6 6 6 6 6 6 6 6 6 ,.D / ",
"_ D ,.6 6 @ @ @ @ 6 @ @ @ 6 @ @ 6 @ @ @ @ 6 @ @ 6 @ @ 6 6 @ 6 @ @ 6 @ @ @ 6 @ @ @ @ @ @ @ 6 @ @ @ @ @ 6 @ 6 @ 6 @ @ 6 @ @ 6 6 @ 6 @ @ 6 6 @ @ @ 6 @ 6 @ @ 6 6 3.D _ ",
"_ D ,.6 6 @ @ @ @ @ @ @ @ @ @ @ @ @ @ @ @ @ @ @ + @ @ @ @ @ @ @ @ @ + @ @ @ @ @ @ @ @ @ @ @ @ @ @ @ @ @ @ @ @ @ @ @ @ @ @ @ @ @ @ @ @ @ @ @ @ @ @ @ @ @ 6 6 6 ,.D _ ",
"[ D 3.6 6 6 @ O O O + O O O O O O O O O O O O O O O O O O O O O O O @ O O O O O @ O O O O O O O O O O O O O O O O O O O O O O O O O O O O O O O O O @ @ @ 6 6 <.D ` ",
"/ D 3.6 4 @ @ O O O O O O O O O O O O O O O O O O O O O O O O O O O O O O O O O O O O O O O O O O O O O O O O O O O O O O O O O O O O O O O O O O O O O @ 6 6 ,.D / ",
"` D ,.6 6 6 @ O O 5.6.7.5.5.3.,.4.4.,.4.6.K r.r.e.r.e.r.e.e.y.r.r.e.r.e.r.r.e.r.t.r.r.e.y.r.e.r.e.y.y.y.r.y.y.y.r.r.r.r.e.3.9.5.6.4.4.4.<.>.3.3.,.O O @ 6 6 6 3.D ` ",
"_ D 3.6 6 @ @ O O -.-.-.-.*.*.*.#.#.#.#.<.~ r.r.r.r.r.r.y.r.r.r.r.r.t.r.r.r.r.r.y.r.r.t.r.r.r.r.e.r.y.y.y.y.y.t.r.r.r.r.e.-.-.-.:.;.:.;.-.;.>.-.-.O @ @ @ 6 6 4.D _ ",
"_ D 3.6 6 @ @ O O #.%.%.#.#.#.#.#.#.#.#.>.~ r.r.r.r.r.y.r.r.r.r.y.r.r.r.r.r.r.r.r.r.y.y.y.y.r.r.e.y.r.r.y.y.y.r.r.r.r.r.r. .-.-.-.-.-.%.;.-.-.-.@.O O @ @ 6 6 ,.D ) ",
"/ D ,.6 6 @ @ O O #.%.#.#.#.@.#.@.#.#.@.:.^ r.r.y.r.r.y.r.e.w.y.t.y.r.r.e.r.r.r.r.r.r.y.y.u.y.r.r.r.y.r.r.r.y.y.y.r.r.r.y.O.%.-.-.-.-.;.-.-.-.-.-.O O @ 6 6 6 3.D / ",
"` D 3.6 6 6 @ O O #.#.%.#.#.#.#.#.#.#.#.:.Q y.r.y.r.y.y.w.w.r.r.r.y.e.r.r.r.r.r.r.y.y.y.y.y.r.y.r.r.y.y.y.t.r.y.y.y.y.r.y.O.%.%.-.-.-.-.-.-.:.-.=.O O O @ 6 6 ,.D _ ",
"` D ,.6 6 @ @ O O #.#.#.#.#.#.#.#.@.#.*.<.~ y.e.r.y.y.y.r.r.r.r.y.y.t.e.r.r.r.r.r.r.y.y.y.t.r.r.r.y.y.r.y.y.y.y.y.y.y.r.r.@.@.-.-.-.-.%.-.-.-.-.-.O O @ 6 6 6 3.D ` ",
"_ D 3.6 6 @ + O O #.#.#.#.#.#.@.#.#.#.-.4.^ y.r.r.r.y.y.u.y.r.e.y.r.y.y.r.r.r.t.r.r.r.r.y.y.y.y.r.r.e.y.y.y.y.y.r.r.y.r.r.=.-.%.#.%.-.-.-.-.-.-.-.O O @ @ 6 6 <.D ` ",
"/ D ,.6 6 6 @ O O @.#.#.#.@.#.@.#.#.#.<.<.Q * * * * % % * * % * & & & & * & * * * * * & * % % * - * * * * & & & * * * * * -.-.%.%.%.%.%.#.%.%.%.%.O O + 6 6 6 3.D / ",
"/ D 3.6 6 @ @ O O #.@.%.#.#.#.#.@.#.o.#.2.Q L L L L L L L L L L L L L L L L L L L L L L L L L L L L 3 L L L L L L L L L L -.-.%.%.%.%.#.#.%.%.#.%.O O + @ 6 6 ,.D / ",
") D 3.6 6 @ @ O O @.#.#.@.@.#.#.#.#.<.<.2.Q # X o o o # # o o o # X # . # . # . # o o o # o # o o o o o # . o # o o o o o :.-.%.#.#.%.#.#.#.#.#.#.O O @ 6 6 6 3.D _ ",
"/ D 3.6 6 @ @ O O #.#.#.@.#.#.#.#.#.o.%.8.Q                                                                               :.-.%.#.%.#.#.%.#.@.#.@.O O @ @ 6 6 ,.D / ",
"_ D 3.6 6 6 @ O O #.#.#.#.#.#.%.#.#.-.>.6.^ Y Y Y Y Y Y T Y Y Y Y Y Y Y R Y Y R Y Y Y Y Y Y Y Y T Y Y R Y Y Y Y Y Y Y T Y :.-.*.%.*.#.%.#.%.#.#.#.O O @ 6 6 6 3.D _ ",
") D 4.6 6 @ @ O O #.#.#.#.%.%.%.%.-.%.>.7.! % # % # = , , < < < , < < < , , , , $ # $ # - , , , , 1 < , , , , , < < $ # % :.-.-.%.*.#.%.%.%.#.#.@.O O + @ 6 6 3.D ) ",
"_ D ,.6 6 6 @ O O #.%.%.#.#.%.%.-.#.-.:.6.^ ; & = . . . . . . . . . . . . . . . : % - . . . . . . . . . . . . . X . = & = ,.>.-.;.#.%.*.#.-.#.#.@.O O @ 6 6 6 ,.D _ ",
"_ D 3.6 6 @ @ O O %.%.%.#.%.%.%.%.-.-.>.7.^ 1 > 2 . % $ $ * $ - $ * $ * $ $ $ & 2 > 2 . * $ # * $ - $ - % * $ $ $ & 2 : 1 ,.>.-.%.-.-.#.#.-.#.#.@.O O + @ 4 6 3.D _ ",
") D ,.6 6 @ @ O O %.%.%.%.-.%.%.-.*.-.:.5.^ P > I X * $ $ * $ > $ : $ : * $ , $ I > I X * $ $ * $ > $ = $ = * $ > $ I > I ,.:.-.;.-.-.-.-.-.%.#.@.O O @ @ 6 6 ,.D ) ",
"/ D 3.6 6 6 @ O O #.*.-.%.-.-.%.-.%.-.:.5.^ T < I X > - * * $ > * * * : * $ , * Y > I o > - * - $ > - * * > * $ < * T > I 2.:.>.;.-.-.-.-.%.#.#.#.O O @ 6 6 6 3.D / ",
"_ D 3.6 6 @ @ O O -.-.-.-.-.-.-.-.%.-.:.6.^ R 3 U o > - < - % < , , , , > : , * W 3 U o > = , = % < > > > < > = > ; R 3 U ,.:.-.-.;.;.-.-.%.#.#.#.O O @ @ 6 6 1.D ) ",
"' D ,.6 6 @ @ O O #.%.-.-.;.-.-.%.-.-.:.7.^ R 3 T o = < 3 > > < : : , 3 , : L < E 3 Y o = , 3 > > < > > , < , > 3 < E 3 T ,.:.-.;.-.-.-.-.-.%.%.#.O O @ 6 6 6 3.D ' ",
"/ D 3.6 6 @ @ O O #.-.-.-.-.-.;.-.-.%.,.2.^ R 3 T o : : 3 : > < , ; < < , : < < E 3 U o : = 3 : ; < > ; > < < ; < < R 3 U ,.:.;.;.-.;.-.-.-.%.-.%.O O @ 6 6 6 ,.D / ",
"_ D 3.6 6 6 @ O O -.-.;.;.-.-.-.%.;.;.,.7.^ T 1 U o > - < - $ < > > > < > : > : E 3 U o > = < ; & < > > > < > ; > - R 3 U 1.;.;.;.-.-.;.-.-.-.-.%.O O O @ 6 6 3.D ) ",
"/ D 1.6 4 6 @ O O -.-.-.-.-.;.-.-.-.:.,.7.^ T < P o : * * * $ > * * * : * % , * Y > I o > * * * $ > - - - ; - $ < * Y > I ,.:.;.;.;.;.;.;.-.-.-.-.O O @ @ 6 6 ,.D / ",
"_ D ,.6 6 @ @ O O #.-.;.;.;.;.;.;.;.:.,.2.! P < L o * $ $ * $ > $ : $ = * $ > $ I > I . * $ $ * $ > $ ; $ ; * $ > $ I > I ,.:.:.;.;.;.;.;.;.-.-.-.O O @ 6 6 6 1.D ` ",
"_ D 3.6 6 6 @ O O ;.;.;.;.;.;.;.:.:.:.:.7.^ 1 > 2 . & $ $ & $ - $ - $ & $ $ $ & 1 > 1 X * $ $ & $ - $ - $ * $ $ $ & 3 : 2 :.<.;.%.<.%.%.<.%.<.%.%.O O + 6 6 6 3.D _ ",
"_ D <.6 6 6 @ O O ;.<.;.;.:.;.<.:.:.:.,.9.~ - * = . . . . . . . . . . . . . . . > % = . . . . . . . . . . . . . . . * & : :.<.:.<.<.<.<.%.<.%.%.<.O O O @ 6 6 ,.D _ ",
"/ D ,.6 6 @ @ O O ;.>.;.:.:.:.:.:.<.,.<.5.~ % # % # * < < < 1 < < 1 , < < < < < % # & # * , < , , < < < , , , , , , & # & :.:.:.<.<.<.<.<.<.%.<.<.O O + 6 6 6 3.D / ",
"_ D ,.6 6 6 @ O O <.<.<.<.<.<.<.<.<.<.2.q.^ Y Y Y Y Y Y Y Y Y Y Y Y Y Y Y Y Y Y Y Y T Y T Y Y Y R Y Y Y Y R Y Y Y Y Y Y Y ,.<.<.<.<.<.<.<.<.<.<.<.O O @ @ 6 6 <.D _ ",
"_ D 3.6 6 + @ O O <.4.4.<.<.<.<.4.<.<.5.q.^                                                                               ,.<.2.<.6.<.<.2.<.4.4.<.O O @ @ 6 6 3.D _ ",
"[ D 3.6 6 6 @ O O <.6.4.5.<.4.6.6.5.5.5.7.^                                                                               ,.<.2.6.6.6.6.6.<.6.4.<.O O + @ 6 6 ,.D [ ",
"/ D ,.6 6 @ + O O 6.6.4.6.4.5.2.6.6.5.4.q.^ o o o # o o o o o o o o o o o o o o o o o o o o o o # o o o o o o o o o o o o <.5.6.6.6.6.6.6.4.4.6.6.O O @ 6 6 6 3.D / ",
"` D 3.6 6 6 @ O O 6.6.6.6.6.2.6.4.4.6.6.q.K L L L L L L L L L L L L L L L L L L L L L L L L L 3 L L L L L L L L L L L L L ,.5.6.6.6.6.6.6.6.6.6.6.O O @ @ 6 6 4.S ` ",
") D ,.6 6 6 @ O O 2.6.6.6.6.6.2.6.6.6.6.6.^ m v s b j v j H C s r h a a i k k e y C Z i D i y h a C C z n p r z z v v v z ,.5.7.6.6.6.8.6.6.6.6.6.O O @ @ 6 6 ,.D _ ",
") D 3.6 6 @ @ O O 6.6.6.6.2.5.6.4.6.6.6.8.~ n g a a n m l v n j j m n j s h z s h M z k C g i h m k m k p p y p z k m g s <.5.5.8.6.6.6.8.8.8.6.6.O O @ 6 6 6 4.D _ ",
") D ,.6 6 6 @ O O 6.5.6.6.2.5.6.6.6.6.6.6.^ M x j s w y i s D j j C C w M h h k M k i e h h a Q C j v B h i s v i v M x j <.5.6.6.7.6.6.6.6.6.6.6.O O @ @ 6 6 3.D / ",
"_ D 3.6 6 @ @ O O 6.6.6.5.6.2.6.6.6.4.6.0.! s y h n s e a e w e x s 9 x r w i h M c h s x M x H n m p i v w M c ^ F h y h <.5.6.6.6.6.6.6.6.6.6.6.O O @ @ 6 6 ,.D _ ",
"` D 3.6 6 6 @ O O 2.6.6.2.6.2.6.6.6.5.5.7.~ t k s c s w w y h u v v x C M z f z y z z s z i k M C k i j v e z w 7 s t k s ,.6.6.6.6.6.6.6.6.6.6.6.O O @ 6 6 6 3.D ' ",
"_ D 3.6 6 @ @ O O 6.2.6.6.5.6.5.6.5.5.5.7.~ 9 z h k v e y h i h z 7 G s v i z z D y h z w h g x j h g a v M v n F a 0 k h :.5.6.6.6.6.6.6.5.6.6.5.O O + @ 6 6 ,.D _ ",
"/ D ,.6 4 6 @ O O 2.2.6.6.2.6.6.5.2.5.4.5.~ M v v j n s h c h y v n s v z S z + c j m H f e k k k a F y z b s s s M b x v :.5.5.5.6.2.6.5.6.5.6.4.O O @ 6 6 6 3.D / ",
"/ D 3.6 6 @ @ O O 6.6.6.6.5.2.6.2.5.5.4.5.~ v z s s n z z i 0 z n C H j s b z n v a e C g t s w v q s y z C h h b s v x s :.2.5.5.5.2.2.5.5.<.5.5.O O @ @ 6 6 <.D / ",
") D ,.6 6 @ @ O O 5.6.5.2.6.<.6.2.6.6.2.5.! M y i s z k n a a s C n n p d h p g h v C p t i w n i i Z j w H v w C n b y i ;.<.<.<.<.<.<.4.<.6.<.2.O O + @ 6 6 3.D _ ",
"/ D 3.6 6 6 @ O O 5.5.4.2.<.<.2.6.2.2.2.5.^ a v x M x s n c g h n y s c h g v V v s w w Z N r h g v s v w n n A j a a m z <.<.<.<.<.<.6.<.2.<.6.6.O O @ 6 6 6 4.D / ",
") D 3.6 4 @ @ O O <.<.<.<.<.<.2.2.2.2.<.3.^ y x x M n k n y i m n f C b n a j q j j 5 e w c j M z z v h n B y z z y e x b ;.<.<.<.<.<.<.<.4.<.<.<.O O @ @ 6 6 3.D _ ",
"_ D 3.6 6 @ @ O O :.<.<.<.<.<.<.2.2.2.<.5.K p x s x C M v x i n C n n v z b z M c j k w v z k V M v M F v z v b i 0 s x a :.<.<.;.<.<.<.<.<.<.2.<.O O @ @ 6 6 ,.D _ ",
"` D 3.6 6 @ @ O O <.:.<.<.<.:.<.<.<.2.<.5.~ y i h a x k m i x v C g h p n j C n H k m v v x x x h s v C C p x z v i y a s :.:.,.<.<.<.<.;.<.<.<.<.O O @ 6 6 6 3.D ` ",
"` D 3.6 6 6 @ O O :.<.:.<.<.<.<.,.<.<.:.,.~ y k h v v m x s j s x D i h s m n n Z C C x M x s s a i i y i n F m s s e k h -.,.:.;.<.;.:.<.<.<.<.<.O O + @ 6 6 3.D _ ",
"` D 3.6 6 6 @ O O ;.<.:.:.:.<.:.:.<.,.>.,.^ s x v v H D h t s F n M n n s x z p z D s i a a x s a s z i t s z x v v s x v :.:.<.<.:.<.:.<.<.:.<.:.O O + 6 6 6 3.D ` ",
"/ D ,.6 6 @ @ O O :.:.:.<.<.<.<.<.<.,.,.,.^ m s 0 v i s z H M n h h v K v C 0 v x h i 0 M z h C i i s n b v z S j C v a 0 -.:.:.;.<.:.<.;.;.<.;.:.O O @ @ 6 6 3.D ( ",
"_ D 3.6 6 6 @ O O :.<.;.<.<.<.;.<.<.:.<.,.~ m e i p C C H G M z e j H i z j y i v a s e m j x 9 h y y z s j j C j C m e i -.;.>.:.:.<.:.:.<.<.<.:.O O @ @ 6 6 3.D _ ",
"_ S 3.6 6 @ @ O O <.;.;.<.;.:.<.:.:.:.:.>.~ C x u w z z v x z s i e g h a v v v s D s x a j G i c v n y a s h k M M C x i %.:.;.:.:.;.;.;.;.;.<.:.O O @ 6 6 6 ,.D _ ",
"` D <.6 6 @ @ O O :.;.<.:.;.<.;.:.:.:.:.>.^ ^ c i z p s z z H s h i k k i z z s i x h s x C C g i s i i i x n g n z ~ b i -.:.:.:.;.:.:.;.;.<.;.<.O O @ @ 6 6 3.D _ ",
") D <.6 6 6 @ O O -.<.;.;.;.<.;.:.:.:.:.,.^ ^ h M C n z z p v F p G M C v h w i z j s s x C c c y t v h y b j n p F ^ s n *.:.:.;.:.:.:.<.;.-.<.:.O O @ 6 6 6 3.D _ ",
"_ D 3.6 6 6 @ O O <.<.;.;.;.;.;.:.:.:.:.>.^ 8 c j M Z C h v h J z v a a n s j k a s j k s g H h d v v a a s D v k c 8 c x =.:.;.:.;.:.:.;.:.>.>.;.O O + @ 6 6 3.D ` ",
") D 3.6 6 @ @ O O ;.;.;.;.;.;.<.:.;.:.:.-.^ C a z v D C j t s n i y s x x x i y a s j F p n C a i c s m z h h l x C D a z $.:.:.:.>.:.;.:.;.:.;.;.O O + 6 6 6 3.D ) ",
"_ D ,.6 6 @ @ O O #.;.-.;.;.;.;.>.;.>.-.-.^ v h t h v v x x s b x p a h h h s i a i k b z s n g m v s M S s h i s y v h r &.;.;.;.;.;.;.;.:.>.;.-.O O @ @ 6 6 ,.D ) ",
"_ D 3.6 6 @ @ O O %.%.%.;.%.;.;.>.-.>.>.-.^ i s z i j s s k 9 s s M x v x g j D Z 8 s C g k v D b v l h j H s j y M i s h #.;.-.;.-.-.-.;.-.;.-.-.O O @ @ 6 6 3.D _ ",
"_ D ,.6 6 6 @ O O %.*.*.-.-.*.-.-.-.<.%.=.^ e w w i s s a e x j C s a b n a a v v r y s s M x H C z w i i i s z i 4 w w w @.-.-.-.-.-.-.;.;.-.;.*.O O @ @ 6 6 3.D ) ",
"/ D 3.6 6 @ @ O O #.%.#.-.*.%.%.%.-.-.%.@.^ z v z k s h a a l x y s a a h i h s a a e e h h s M 0 z s j G p s z M c s v z @.*.-.-.-.*.-.%.%.-.-.*.O O @ @ 6 6 3.D / ",
") D 3.6 6 6 @ O O #.*.*.-.%.#.%.%.%.-.%.@.^ v v s v z v j A F a a h a a a k h e i N Z a F i y k g C C v v s y k z v v v h @.*.-.%.#.*.#.%.-.%.%.@.O O @ 6 6 6 <.D _ ",
"` D 3.6 6 @ @ O O #.%.#.%.#.#.%.%.%.%.%.+.~ n g s i v M x m m j h m n j a h h s h C x f C s r s v k m j p s y i g k n h s @.#.#.#.#.#.%.#.#.#.#.&.O O + @ 6 6 3.D ` ",
"/ D 3.6 6 6 @ O O @.#.@.#.#.@.*.%.*.*.#...~ M j j g w y y s D j z M D w M h h c M k y e h z a Q C k v n z p p v a m M x j ..#.#.#.#.#.@.#.#.#.#.#.O O @ @ 6 6 3.D / ",
"( D <.6 6 @ @ O O @.o.@.#.@.@.*.#.#.#.#.+.~ j y s n s e s e w e z s 0 x r e i f v v h s c M v H m V i i c w M c Q F s y h ..@.#.@.@.@.@.#.o.@.@.@.O O @ 6 6 6 3.D / ",
"D D ,.6 6 6 @ O O ..o.@.o.o.@.@.o.o.o.@.+.~ y h j x s w w y s e v v v M C h f c y j z s h i k M Z h i k v e z t 4 x t h s X.@.@.@.@.@.@.o.#.#.o.o.O O @ @ 6 6 4.D D ",
"3.3.,.6 6 @ @ O O ......o.o.+.O.o.o.o.o. .~ 0 k h h l e i h i j z 7 H s v i h z D y z k w f s x z s h a v M v n D i q c h ..o.o.+.....+.o.o.o...+.O O + 6 6 6 4.3.4.",
"6 6 6 6 6 @ @ O O |  . .O. .O.O. . . . .| ~ b x n j n s h z z t v n s v z b z + x j m H f e k k k i H y z b p s p M b b v  .......................O O @ @ 6 6 6 6 6 ",
"6 6 6 6 6 6 @ O O { } } } O.{ } | | | { { ~ v v a h n z h i 0 z M B H x z b z B v a u D g y s w v q s y j C k s x h v c p  . .| } } } } } } } } } O O + @ 6 6 6 6 6 ",
"@ @ @ 6 @ @ @ O O { { { { } { { { { { { { ~ b y i g z k n s i p C n n i s h i g s v C f t i w v y r A x q Q c w M n M y y { } { } } } } { } { } { O O @ @ @ @ @ @ @ ",
"@ @ + @ @ + @ O O ' ' ' ] ] ' ' ] ' ] ] ] ~ a n j n v p n z h h n e h x s s v V v h 8 w Z B r h g b s v w M M F j a a b j { ] { ' ] ] ' { ] ] ' ' O O @ @ @ @ @ @ @ ",
"O O O O @ O O O O ) ' ' ' ) ' ' ' ' ) ) ] ^ y z x M M k N y i n n i C M M i k q j j 5 r 8 v c C v z v z n C t x z y y x x { ' ' _ ' ' ' ' ' ' ' ' O O O O O O O O O ",
"O O O O O O O O O S n n n n z n n S S S n ^ p b g c C M v x i n D M B v z v c M c j h w v z z B M v M D v f v v y 0 s x s ^ K ~ Q Q ~ ~ K K K K J O O O O O O O O O ",
"O O O O O O O O O n S b z n n n n n n n v z y s g h h z m a z c S s p s M z C n H j V v v z b z h i b C C i v z v i y s j H J K Q Q ~ K K K K K K O O O O O O O O O "
};
