/* XPM */
static char *_643878765297[] = {
/* columns rows colors chars-per-pixel */
"64 64 48 1 ",
"  c #070707",
". c #0B0B0B",
"X c #170F07",
"o c #1F170B",
"O c #131313",
"+ c #1B1B1B",
"@ c #2F1B0B",
"# c #2B230F",
"$ c #232B0F",
"% c #372313",
"& c #332B13",
"* c #3F2F17",
"= c #3F2B1B",
"- c #2F371F",
"; c #232323",
": c #272727",
"> c #2F2F2F",
", c #373F27",
"< c #373737",
"1 c gray23",
"2 c #432F1B",
"3 c #43331B",
"4 c #473323",
"5 c #4F3B27",
"6 c #4F3B2B",
"7 c #533F2F",
"8 c #3F472B",
"9 c #474F33",
"0 c #574333",
"q c #5F4B37",
"w c #53573B",
"e c #67533F",
"r c #434343",
"t c gray28",
"y c #4B4B4B",
"u c gray31",
"i c gray34",
"p c #5B5B5B",
"a c #6F5743",
"s c #775F4B",
"d c #5B6347",
"f c #676B4F",
"g c #7B634F",
"h c #6F7357",
"j c gray39",
"k c #6F6F6F",
"l c #777777",
"z c #8B8B8B",
/* pixels */
"<ippppjppjppjjpjjjuppppizjppppi16pppiupppjjppupppppppppjjljpppi1",
"r++OOOOOOOOOOXO+++++O+++O++OOX+0r;XXOOOOOO+++O++Oo.OXOO++++XO++0",
"t+.X$XO.X..X...Xo+oXX.....XX..Oy0O..XoOo@#oXXXoXoXXoX..oo.XXX.ot",
"y+X424>8&:--o#&%>,>%#&##%;;%@.OttOX=,,8,1*48&:44=<#4>&&;>=4,%Xoy",
"t+o49861r-,,,8,,8,-8,,8,-,:,#XOyyOX2899889998><919<-,>1:9w488o+y",
"yo#899,1<>98888,,,r88,98888,-X+yu+&888899ww989999w9918,>w1<84@+y",
"y+,9www98,99888919d9891988,-8@Ouy+-898w98999w9dwww998w8898<w9@+y",
"e+@9ddw99899888r9r988998888,8o+yy+#>999w9wwwwww9w99,899898wr1#+y",
"y+@9wdd989998r8w<8d989w9r988<ooryO;998wwwww9wdwww9898999w8ww<%+e",
"y;#wwwww999dwwwwww99w8ww,988<o+1y+%9999d9www9w8wdw998888w9rrw=+y",
"y+,,wdwdw8wwww9w99w998www988,oOyto-989wwwwww999ww999999rdddwr,+u",
"y+orw9wwd1wr8www99fw99w999981@Oyt+=t89wdwdw9wwwd9rw889dwwd9w9=+t",
"y+-9w9wwt9919w9ww9d9dw999w998o+yy+#ww9wwwwdwdwid99ww9ywwwdwww=+e",
"y+4wdw9dy99rww9dwwddddw9ww998#Oyy+@rw9wddwdwwduw9www9ddddddww=+y",
"y+4wdw9t9991dwywwwdwdwdyd99w8oOyyo=<w99wdwwwddw99wdwwwdwudwww4+y",
"eO=0du9w9w1>1twwwdwwdwdwd98r<:+yy+2199dwfddddd99wwdfwwdddwddd,+e",
"e+=tdd9wwwrr<dwwwddfddddddww1o+yy+ow8w9wwdwwwd9ywww8dedwddwdw4+a",
"y+29wwww9w9iwdwdddwddwdfwwww<o+yy+41w9dddfwwwtddwwdddwfuwddww8oe",
"e+4wwww9wwwwdwwwwddddddwddtdroOyt+@1dwddwdt9wwwwwddw9dd1dddwd8oe",
"e+3wdwydww9dwdwddddddwddddw9wo+tu+#1wdtfdw99wwwwdwdwuddfddwd98+e",
"u;4wwddwwiw999dfwdwddwdddwdd<o+eyO#rdddddww9w9dwdddwfdddwwfdw6oy",
"y+2wwwddddw8uwuddwdddddudwddr@+yy+%rwt9dwwwwddd9wyddfdwdwdwww4ou",
"y;%wwdwddddwdwwwwddddddwdd8w6o+eyO#>9999wdddddddwwddwwwwwdddw8Oi",
"u;=wwwdwwwddwduww9ydwdwddd8wy4+ea+@9wdwwdfdfdddddwddwddwddddw-+u",
"y+419ddiipdwww9ehdddddwdwdwd9=+ej+=8w99wdddddwddwddddfddwddww%+y",
"u+4wwfdwdiutwwypwddwwwddddddw8+ua+41wwwwwdwwdwwddddddddwwdwww=+e",
"uo4dwddirruyddwiydwwddwwdwwdw6Xp0+%18999w9fdddddddddwwdddwwww=+e",
"e+%6tww9yytyrwuwww9wwdwwdddww%+uy+o6>899yt91wwdwddrdddwdwyw1w=+u",
"y+X%r00w4dw6r00wwrw0ewwwwwrww@+uq+o%9244,wd61ww9www6dwdww0ww4@+u",
"uO.@@5644%04446=%266444679%4%o+yyoX@%@@=44=56646=6=40446===6=XOe",
"0=;%%#:%;;++@;%+;;;;+;%::%;;;;=t0+o++:;;:::o;%:;:@+;:;+#;+@@;+;t",
"=rtuyyeyqqeeqq0geyyyyy0qqyeee0i520yyyyeq0eqqyeqeq0yeey0qeyuqy00>",
"6ippjgjjjpjkgjjajsjjjjpjjjjggsh76eppjjgjjjjggsjjpjjjgjsjjpgjipi1",
"0++o++++++++++o+++o++++XO+;+++;00;OOO+++O++++++++O+OOOO+O+OOO+%q",
"y+..XX%&3#&-XXoXo@o#OoXO+X@o. +ut+XooooXoXX%X#X+Xo##@.-@@%%%o.oy",
"u+X%%=199wwr:wr69r1w>76===64oo+u1+@===2=146www91781r42r411064@;u",
"y+o44ywwdwwwwdtwddtwt,1u81r0%X+yy+o=6re99wwwwdwddwur91dwwwr19@+u",
"y+o489wdddddddddddw99wdw9d9w=X+ur+X288ddwudffdidd1999w9wddwwr%+u",
"y+X899wddwddwddw9ddwddww9ww8>@+yy+%49uwtw9ddwdwfddwwww9d9dwdw%+y",
"e+#6wddwwdddddwwwdddwwwwdd99r#+ey+owrdwwddddddddwwwwwwwfdyd98o+e",
"qo@<wdwwwwdwwdddddddddddddd91@Oyu+4wwddydddfddddddwwwywddwwwro+0",
"y+=<9ydwdfddwdfdddddwdddwdf8<@+eq+8ddddddfdddwdddwwwwd9wdt8d0=+u",
"y+21rrwdd9wtddhdddwwwwdw9dddw%+ue;,wwddddfdddddddwwdddwwdd9r04+u",
"yO%rrwddwyduyhhdddddw9dwwddd,=+7e+8wdwdddwdwdfddd9wdwd9wdww<0%+u",
"yO%1ddwwwwwwwdkwddwddwd9wddfw,+ue+=9wwwdwwfdddddwwwwwwiwtwwdr;+y",
"y+4rddww9wwwddfdddwddddwddwdr8X0e+8wwfdddwdfdddddw9wwdwd9wwyt%+u",
"q+=wuwdw9wwwwdd9ddddwdddddwwr%Ou0;4wwwdddddfdddddf9wdfdwwwwww=+u",
"y+%rwdrwwwdw9ww9dddddwdwddwdrX+ea;-dddddfwd99ddwfydwdddwwww9r%+u",
"t+21rdwwww99ww99dd9dddwdwd9w6=+ae;5wdwdddfywdww9ddwdddhdd9ww1=+e",
"e+4wdwwd98wwwww99d89wdd8wwww9%+eu+%wdwdwdddwww99wdffddwddw998=+0",
"y+4wd9ww9wwywwdf9w9wwwww9wdw9%+rq+=wwdwwdfddwddw89pdd9dddww81-+e",
"q+,9wfdw9www9wd9ww9dddwwdwww9#+ee+=9ddwwfddwwddwdwwwwdwddddww%+e",
"y+8www999998wdddw9dwwwwdwwwwd@+py+6wwddww9dww8wwd9d9dfddwddw6@+e",
"e+8www99www99hddw9ddddd99dww9=Oey+4wddw99dww99w9989ddwwwddwwy=Xa",
"yX=ddwdd9ww999wwy9dwwd9w9wrww@Ouy+8w9ddwwwwdddwwd99wdddddd99w4Oe",
"uO=wwwddd9wwdwdw9dddww999w9w9@+uy+-1wwwwwwdwdddwdwww9wwwddiww=oe",
"y+%ww9dww9wdwwdwwww99t8w9wwd9%Oyy+8www99wwwdwwwwww9wdddw9dwd98ou",
"e+@,wwd9w9www9w9ww9999899ww98=oyy+299wwwwwdw99dwwwdwwdww8dww8-+e",
"y+@0wwt998dw98wwww998r889w98w@+uy+=1ww9wwydwwwwwwwww9dww9wwd8%Oe",
"y+%=r9w,1,t1,99w99w81r,rr98r0=oqy+@=999wwy8w999www99r9ww91967%+y",
"y+X446=<=119=><98999>641=4064=+uq+X%69998r998794rr9>1>6618<42X+q",
"y+.@@X@ooo%826#@%=4=%=@X@@%%=&+ee+.@%=2%=4%=%%==2@%@@XX@==%%o.+y",
"r++O++;+++++;:;+;;;;;;++++++;+;00;++o+++++;++++++++++++O+++++++t",
"=r0yy6y0rrttyyttqt0yr1rtt6tqqtr44ty0rtty00ytyqtyttttttyrqy0ytrr4"
};
