/* XPM */
static char *_643879325653[] = {
/* columns rows colors chars-per-pixel */
"82 79 54 1 ",
"  c #333333",
". c #3C3C3C",
"X c #404041",
"o c #676767",
"O c #6C6C6C",
"+ c #737375",
"@ c #767879",
"# c #7B7B7B",
"$ c #807E80",
"% c #808080",
"& c #8E8D85",
"* c #908F86",
"= c #928F8A",
"- c #94938B",
"; c #98978E",
": c #969391",
"> c #9A9694",
", c #9B9992",
"< c #9E9B9A",
"1 c #A29E9D",
"2 c #A4A09F",
"3 c #A6A3A2",
"4 c #A9A5A4",
"5 c #A6A9A5",
"6 c #ACA8A7",
"7 c #A7A7A9",
"8 c #A9A7A8",
"9 c #AEAAAA",
"0 c #B2AEAD",
"q c #AFB0AE",
"w c #B4B0AF",
"e c #AEAEB1",
"r c #B3AFB0",
"t c #AFB1B1",
"y c #B6B2B1",
"u c #BAB6B5",
"i c #BCB8B7",
"p c #BBB7B9",
"a c #BEBCBC",
"s c #C1BDBC",
"d c #BFC0BE",
"f c #C4C0BF",
"g c #BDBFC1",
"h c #C3BEC1",
"j c #BFC0C4",
"k c #C6C2C2",
"l c #C9C5C4",
"z c #C6C8C5",
"x c #CAC8C6",
"c c #C6C6CA",
"v c #C8C7C9",
"b c #C7C9C8",
"n c #CAC8C9",
"m c None",
/* pixels */
"&&&*---&--,&;=**-;-&&=&*-,;;&**;--&--,%,--*-;-&&=&--;;;*=----=*--&-;&=&-;*-&,&,&&*",
";++++++++++++++++++++++++++++++++++++++++++++++++++++++++++++++++++++++++++++++++-",
";+agajjadajajajdajjadajaajjajddjdjdadjddjaafdgaggggaajjaddgaajjdjaagajajjaajgada+-",
"-+aXXXXXXXXXXXXXXXXXXXXXXXXXXXXXXXXXXXXXXXXXXXXX.XXXXXXXXXXXXXXXXXXXXXXXXXXXXXXj+-",
"&+aXXXXXXXXXXXXX.XXXXXX.XXXXXXXXXXXXXXXXXXXXXXX.XXXXXXXXXXXXXXXXXXXXXXXX.XXXXXXa+&",
"-+jXXX..X.X...X....X.X.....XX...X.X..XX......X..X.X.X.X.X.X....XX..XX.X.X.X..XXj+-",
"-+aXXX................................................................. ....XXXd+-",
",+aXX..         .                       .                                 ...XXd+;",
"&+dXX..                                                                    .XXXa+&",
"-+dXXX.  zzzjzzkllklkkkkshshsn%mmmmmmmmmmmmmmmmmmmmgzzzkjjadiadpdddfjkzja  ..XXd+;",
"-+dXX..  iiapaaasuiuyuqyr0000a%mmmmmmmmmmmmmmmmmmmmyryuuuuuuuutuyuuiuyuyy  ..XXa+-",
"*+dXXX.  wyyuuuyyww0w0w9900r9p%mmmmmmmmmmmmmmmmmmmm3ryuwwuuwuytuuwuwww009  .XXXd+*",
"*+dXX..  yquuuwqy000000009000p%mmmmmmmmmmmmmmmmmmmm5wuwyuyyuyytuywuqyw099  ..XXa+*",
"-+dXXX.  yyyywww0000000900900p%mmmmmmmmmmmmmmmmmmmm7wwwuwyyyuywuyywwy0wwr  .XXXd+-",
";+dXX..  wyyyyywy000r00000r90s%mmmmmmmmmmmmmmmmmmmm99wuwwyyyyuwyyuyw00w09  ..XXd+;",
"*+jXX..  yywuuww0y000000090rys%mmmmmmmmmmmmmmmmmmmmywwwwyywywywuywywwyww9  .XXXd+;",
"&+aXXX.  0wwww0w000000090090ys%mmmmmmmmmmmmmmmmmmmmpywwww0wwwwwywwww0w000  ..XXd+&",
"&+dXX..  0wwww00000000000000wk%mmmmmmmmmmmmmmmmmmmmpywwww00ww00www0w00000  .XXXf+&",
"=+jXXX.  600w000000000600w00uk%mmmmmmmmmmmmmmmmmmmmpyq9w000000000w0000009  ..X.d+-",
"&+dXX..  000ww00000006000w00uz%mmmmmmmmmmmmmmmmmmmmpuww00ww09000090090000  ..XXd+&",
"-+dXX..  9000090000w000000ywpb%mmmmmmmmmmmmmmmmmmmmpy0y00ww000009099000w0  ..XXf+=",
"-+aXX..  99009000www000wwwryib%mmmmmmmmmmmmmmmmmmmmauyy90www0090w90000w00  ..X.d+-",
";+dXX..  99009900wwwwwwwywwuiz%mmmmmmmmmmmmmmmmmmmmauytwwwww000009090wwy0  ..XXf+;",
"-+jXXX.  00009000www00wwwwwyiz%mmmmmmmmmmmmmmmmmmmmauyuyy0w00000w09w9wr00  .XXXf+-",
",+jXX..  9w90000w0ww000s6ws0if%mmmmmmmmmmmmmmmmmmmmayswsyywwww00000000ryw  ..XXj+;",
"&+dXXX.  q9yw0000www0swwwww0df%mmmmmmmmmmmmmmmmmmmmasyyyyyyww000y0000r0yw  .XXXa+*",
"*+aXX..  wy900y00wwywwswswwsif%mmmmmmmmmmmmmmmmmmmmayyyyuuww0ww00w0r09yrw  ..XXj+-",
";+jXX..  0wyyyr00wwww00w0w00dx%mmmmmmmmmmmmmmmmmmmmssyywyyuwwwwwyyy09yyy9  .XXXa+;",
"&+aXXX.  9wwyyrwwwwywy0wwwyysf%mmmmmmmmmmmmmmmmmmmmsswysywyywwwwywywr0yyu  .XXXd+&",
"=+jXX..  yw0y0y0wywywsswywyyff%mmmmmmmmmmmmmmmmmmmmhysyyysyyywwwyy0ywwywu   .XXa+*",
"&+dXXX.  wyyyyyyw0wywws0syywdf%mmmmmmmmmmmmmmmmmmmmauysysyyywwwyyywyyyyuu  .XXXj+*",
";+aXX..  wyyyyyys0swswwswyssif%mmmmmmmmmmmmmmmmmmmmaysyysyuyysyyyyyyyywuu  ..XXs+-",
"-+sXXX.  s6ss66swwyysuwsuuuiaz%mmmmmmmmmmmmmmmmmmmmaiiiusuyuuyyyws9s0s0s0   XXXg+;",
"-+sXX..  0s0ssssssssyuuyiaiiac%mmmmmmmmmmmmmmmmmmmmaaisuussyusys0ss09ssss   .XXa+=",
"*+sXX..  6ssssssyssysyssaisssl%mmmmmmmmmmmmmmmmmmmmaiisssusuiususssssss0s  .XXXs+&",
"=+sXXX.  sss6ssssssssssssssssn%mmmmmmmmmmmmmmmmmmmmasssssssssssssssssssss  ..XXs+=",
"-+sXXX.  sssslssslshfssssskskn$mmmmmmmmmmmmmmmmmmmmasskklsfsshskshlhfhlss  .XXXs+-",
";+sXX..  ssslhllshllhslshkkkkn$mmmmmmmmmmmmmmmmmmmmaffsklklsshfllllslhlls   XXXs+,",
"&+sXX..  lsflxlllxlhhlhlflkkhn%mmmmmmmmmmmmmmmmmmmmsflklllkkkllllllllllls  .XXXs+&",
";+hXX... lllllxllllllllflsllln%mmmmmmmmmmmmmmmmmmmmgkxxxlllllllllllllxllf ...XXs+;",
"=+gXX..  fllllxxllllllllklllll%mmmmmmmmmmmmmmmmmmmmflflllllllnlxllnlxxllx  ..XXa+-",
"=+gXX..  lllllxxlxlllllhkklkxx%mmmmmmmmmmmmmmmmmmmmfflxxllllllxxllllxxllx  ..XXg+=",
"*+aXXX.  llllllllllllfflkkkllx$mmmmmmmmmmmmmmmmmmmmsllllllllllllllllllllk  .XXXg+&",
"-+gXX..  llllllllllllllflkllkx$mmmmmmmmmmmmmmmmmmmmsllllllllllllllllllllk  ..XXa+-",
";+gXXX.  lllllllllllllflllklkz%mmmmmmmmmmmmmmmmmmmmallllllllllllllllllllk  ..XXg+-",
"-+gXX..  lflllllsllflflfkllfkz%mmmmmmmmmmmmmmmmmmmmilfllllllllllkllfkkllk   .XXk+-",
"&+sXXX.  sllsllfllfllflfkkkkhk%mmmmmmmmmmmmmmmmmmmmallflfllfslsllllkfkkkk  .XXXg+&",
"&+sXX..  lsflfflfslllllfkfkkhk%mmmmmmmmmmmmmmmmmmmmsfsllfslsllslfkfkfkklk  ..XXs+*",
"-+aXX..  kfffffksllflfffllflfk%mmmmmmmmmmmmmmmmmmmmpsfffsfskfkskshllshlsl  ..XXg+=",
"&+gXXX.  kfkfsfssslsslsssllssj%mmmmmmmmmmmmmmmmmmmmissssffssskffhssssffls  ..XXh+=",
"-+gXX... sssssskssssssssfssfsk%mmmmmmmmmmmmmmmmmmmmisisssssssssfssssfsfss  .XXXg+=",
"-+aX...  asssssssssssssssfffak%mmmmmmmmmmmmmmmmmmmmusssssssssfsssssssssss  ..XXa+-",
";+hXX..  ssssssssssssssssfssss%mmmmmmmmmmmmmmmmmmmmuaassssusssssisissssss  ..XXg+;",
";+gXX..  ssssiiissysyussssssss%mmmmmmmmmmmmmmmmmmmmuaiiauusssssssssusisuy  ..XXh+;",
";+gXX..  usssiissussssussssyia$mmmmmmmmmmmmmmmmmmmmuiaaisusssisssiususiss  ..XXs+;",
"*+a.XX.  iisisisssuysusssssssa$mmmmmmmmmmmmmmmmmmmmuiaisisusisssusssussuy  ..XXs+*",
"=+aXX..  iisiisissususssiaadaa%mmmmmmmmmmmmmmmmmmmmyysysiissyysssusssiusi  ..XXd+-",
"-+gXXX.  isissisussysiisiapiii%mmmmmmmmmmmmmmmmmmmmysysysyyssssssisusssua  .XXXa+-",
"-+sXX..  ussssssisususuiisiupi%mmmmmmmmmmmmmmmmmmmmywswsysyyysysssusususi  ..XXj+-",
"-+sXXX.  yiiuiiususuuuusuiiipa%mmmmmmmmmmmmmmmmmmmm9wsswsyusssysiussussuu  .XXXa+=",
"-+aXX..  sysusuuiissiyiiuiiiup%mmmmmmmmmmmmmmmmmmmmwyysssuysyysyiiiiiisiu  .XXXj+-",
"=+gXX..  uyuiuusiiuuyiyiiiiipp%mmmmmmmmmmmmmmmmmmmmqsyswywsyysysiuppiuuiy   .XXa+*",
"-+hXXX.  wussuyuiyyiyuyiuuuuuy%mmmmmmmmmmmmmmmmmmmmeyswsysysysysiuuuuuiyu  .XXXg+-",
"-+aXX..  yyyyyyuiyuyyyyuuuuuuy%mmmmmmmmmmmmmmmmmmmm9wsyyywwsyyyyyuyuuyyyy  ..XXa+-",
"-+gXX..  yyyryyyyyyyws0wwswswr$mmmmmmmmmmmmmmmmmmmm9yyyuyyuyuyyryyyyyyyyw  ..XXg+=",
"&+gXX..  ywwwwrrywwwww0000r0w0$mmmmmmmmmmmmmmmmmmmm9yyyyyryyyyywy0yyyyy09  ..XXh+&",
"=+gXX..  000wwwww0wwrwr00wwsy9%mmmmmmmmmmmmmmmmmmmm90r0000rry00w0rw0000y0  .XXXh+=",
";+aXXX.  www0000000w0w00wrwwr9%mmmmmmmmmmmmmmmmmmmm9rr000000w000000000000  ..XXs+;",
"*+gXX..  009000099009w99000007%mmmmmmmmmmmmmmmmmmmm4009009000000009000099  ..XXh+*",
"&+aXXX.  999699099999099000908%mmmmmmmmmmmmmmmmmmmm6009999996909909099996  ..XXs+*",
"++gXX..  669690699646999999997%mmmmmmmmmmmmmmmmmmmm5609996600699999996946  .XXXs++",
"sgdXXX.  646466443444469664947%mmmmmmmmmmmmmmmmmmmm3698464666454443444444  ..XXsag",
"XXXXXX.  344333322223333433343$mmmmmmmmmmmmmmmmmmmm3444424444444333112224  .XXXXXX",
"XXXXX..  11311111111223121111<%mmmmmmmmmmmmmmmmmmmm2332122121123133111111  ..XXXXX",
"...X.X.  1111>>11<>1111<11<1<<%mmmmmmmmmmmmmmmmmmmm<1<<<<111<11111111>>11  ....X.X",
".... ... >><1>>1:::>:><>:::>>>%mmmmmmmmmmmmmmmmmmmm<>><>:>,:><:11::1>::::  ..... .",
"         =::::;;===:::::::::=>%mmmmmmmmmmmmmmmmmmmm<:::::-::::::==1====:=         ",
"         ##+#@+@+++OOoooOOOOOO%mmmmmmmmmmmmmmmmmmmm&#$%%%$%######@+++++Oo         ",
"         ###@#++++O+OOOooOOOOOommmmmmmmmmmmmmmmmmmm@###$$#$##$##@@+++++Oo         "
};
