/* XPM */
static char *_643188005721[] = {
/* columns rows colors chars-per-pixel */
"64 64 61 1 ",
"  c #1B150D",
". c #1B160E",
"X c #131313",
"o c gray8",
"O c #161616",
"+ c gray9",
"@ c #1D1912",
"# c #1C1A16",
"$ c #1B1B1B",
"% c #1E1E1E",
"& c gray12",
"* c #232323",
"= c gray14",
"- c #252525",
"; c #272727",
": c #282828",
"> c #2A2A2A",
", c #2C2C2C",
"< c #2F2F2F",
"1 c #323232",
"2 c #343434",
"3 c #353535",
"4 c #373737",
"5 c gray23",
"6 c #3E3E3E",
"7 c #3F3F3F",
"8 c gray26",
"9 c #434343",
"0 c #444444",
"q c gray28",
"w c gray29",
"e c #4B4B4B",
"r c #4C4C4C",
"t c gray31",
"y c #505050",
"u c #535353",
"i c gray34",
"p c #585858",
"a c gray35",
"s c #5B5B5B",
"d c gray37",
"f c #5F5F5F",
"g c #626262",
"h c gray39",
"j c #646464",
"k c #676767",
"l c #6A6A6A",
"z c gray42",
"x c #6F6F6F",
"c c gray45",
"v c #777777",
"b c gray48",
"n c #7B7B7B",
"m c #7E7E7E",
"M c gray50",
"N c #808080",
"B c #838383",
"V c gray52",
"C c #888888",
"Z c gray54",
"A c #8B8B8B",
/* pixels */
"%$-5gmlmr5-$O-wjdbv5>$$$<8aaxi8<$O%5llag05*OX-rjggxw<%$%>wxaji5<",
"<$$%1axgm81>$O-rayxg6<$O$1gjdca8<$X%5ajwlw5-OX<wxigbw<*O$<gljgw3",
"3-$O%5abiar3-OO>iaibmw<*$$<alwrg6>OO-3ddaVi3-X$>iwwcl6<% $3iarga",
"r51%$*6gw8Va3-$$<8ggvx81-OO<alrxa8<$$$6lbaxr5-O$>ilxlg83-$O>8ajl",
"xa5<O$-5ldwV01-$$-wxgil6<*O$1agivj5<$X*5gc8va1-$$>wxxvmw3%X$3aja",
"gxd3*$O*0jxjv81-OO-wgivl6<-$O<axily6-%O$3jiib631$$>0gdxv5<%O%3al",
"lyxa5<$O*5ggjjw3-OO<rxjgd01%O%3diwrw3-%$%5iaami3%O$-wadxlw<%$$1a",
"igadg6-%O$3dagV83-$X*rj0gm8<%%$<rgwlg1<%$*5jxwxa5-XO>8aabV8<$$$5",
"3icyva5<$O-8lclg031$O-wggbl8<-O$1gxgvl3<%$%3yarlw1-$%-0rwvl6<-$$",
"$<drrxa5<%$*5lmgNy5-O$-wlldi61*$$<adivw3-%$-5ixdm0<-$O>waxxx6<%X",
"O$1r00ga5>$O*8jdgbr3-%$-rcvvg5<*O$<ilxva1<%$-8gxjmw6-O$>wxagc0<%",
"%O$5rrdvi3>$O*<8ajVa3-$X-8gcggw1-O$3adagi6<$$%6jcwma3-$%-rldvb0<",
"<*$$58lala5-$X$3ddwmw5-OO-8lxcN61%OO>8iwxl6>%$%5llgNr6-OX-rgici6",
"5<%$$1dcivx5>$$-8liaVw1-@$1ylljj8<-O$3arwvd6<$$$6lyrmi<-$O>wlggv",
"v5>*O%3rrixi5<$$*3wilv8<-$$>waidd85*$$3wawar3<$O*5rggm83-$X-allv",
"vg8<-$%1ygwiw5<$X%3wxglw5-$$10gdlvw<$O$3djwgw5<$X%6lcrgw1-$O-wll",
"lvv8<*$$<rarrd0>$$-3avwvr1-$O<rxjlj61*$$3yr0gg1-$O-8gNivw1<OO-6i",
"lavm81%X$<awaca<<%$$6lNwd01*$$-8gaalw1-O%5rllvg5>$O%5lgwbr5-%$-8",
"00jvg81%$$3wigxw<<%$$6xlam01>$O-rccac81$%$>rxgxi5<%O*8gvwjr5-$$>",
">wxgrl6<%$$1ixrli6<$$$5lciNy5-%$<ijrlgw<$OO<wiicd8-%O$6ljrby3*O$",
"$>ydwxZ01*O$-agiaa81$X%6iaiNi3>$O-8iwab0<%$$<ilgjw3<$X$8di0Vw>*$",
"$O-8dgvg8<-$$<iwwar8<$O$1grag6<-$$-wggbv81%O$1gxayr8-OX*8lgaVr3-",
"-$$<wjigv6<%$$>ijaji6<$$*5jgwvi3-$$-rxgvv03*O%<acwig6-$$$3lxgZr3",
"<-$$>0advx5>$OO5di8rl6-$$%6lbgm81-$O<wlxvvw3%$$<wgacr6<%O$8laaa0",
"w1>$O-aaavl8<-O$1arwca3<%O*8gggaw1-$$-5gxll81*O$1wxwri5<$X$3ajyb",
"mw<-$O<8laxNw3%O$1ajglr5>$O-6lcrZa5-O$-5aigx63$$$<wxjxa6<$X%8lNl",
"il81>$$-waaxg51-O$1axdaw3-$$*5ajjN61-%$<raggar3*$$-axadg6<$O%3ag",
"ayN03>$$-wllgl83*O$1djrva3>$O-1aNdgw1-$$<ixlxN01*$$>ax8ii5>%O%5i",
"jxavw3<O$>wxxllw1-O$<aggca5<%$$3lggc83>$$-8xdgg0<-$O3gwwaw51$$-6",
"5gjybw<-%O-0lwcg63-XO1ixavg6-$$*68vgmr3-X%-wlagl81-$$<wawgg6<$O%",
"*3rjlvw<-$O-wgrcgw<-$$<a80vg5>%$$3gbgZw5-#$<wcvvj8<-$$<dxrdw3<%$",
"$*5alavw<-$$>rjjgj83-$$3wralw5<$O%6wwac81-$%-8glcl53-X$1alwar5<$",
"$$-3rilxe<:$X>ylhzi83*$$4aaesj6<$O*5dmwl05>OX-8aaalw<*O$1dlavg5<",
"-$O$5lzij9<-$$>waydvw1&$$<wirva7-$$-8ldrly5-$$<iljvv8>-$$<ilabg5",
"5<%O%3sdrNu3>$$>rhxcm6<%O$3agach3-%O%5wvaj01-O$-rlgbl6<-OX-dd0ga",
"a5<$X*8dajb03*O$>qhvvxw<%$%<elgxw5>$$-8lawbw3-X$>0llvj8<>$$<yr0g",
"lh6<$$-5waaxy1:$$>6igzh6<*$%<5aiwl6-$O%3aggmr3-$O-0cllg65-O$1diw",
"aaw2>$$*4daexq3-O$-wgaxxw>%$$:dlyba3<$O%3ijdbi5-OO-rlxgx83*O$3gl",
"xexd5-$O*5ehyza<*$O:8lavM8<$+$<ixrri5<%$%3lvgxw1-$$<8aaxi03%O%3g",
"rwdvj6-$$*9hiagq1>O$<azlxz9<%$$1gx8xa5-$$-8xjrZa<-$X-wldaV6<%O$1",
"<qdaxs3<$$*6ad0by5>$$-7zzvMq<*O$<alaxj3-$$-5adibw<>$O-waxvx53%O$",
"$<ixszi9>%$$3axzBw4-XX-9xzvk6<%+O<rcjba5-$$%5aaam86<$$<wxjvg83*$",
"O$<agwau3<$$%3lBexe3-$+-ehwxx93-O$1adrcy3<%O%3alwl03-$O-6lclgw3-",
"*O$<aziii6<%$$5zsrgi5:$ -0hivve<%$$<0gyxr1-$O*8aagd03-O$-rlggg8<",
"<&$$<axwcg5<$X%1ffwkw5<O$<wagvn5<-$$<rjrar5<$$%6rdgZ83>$$<rgrcv8",
"8<*$$3siaji5<$X*1gcigw<-$O>rgevb51-%$1yjwcl6-$$$1yNjl86-$$>8yavm",
"l5>-$$1ys9ii5:$+$8kv0h93*X$<welvg5<-$$<rrlbg<-%O*5lrwbw5-$O-rric",
"ga93-$$<9ggca8<$X%6laaM9<-$O*9xzbd6<*$$30dgvw63%$-8dgwva5>$%>rgl",
"xxm0>%$$<wluxd5-$X*5imhgw3:$O>wlshl6<*X$10daai8-$$-8la0lr6>%$-al",
"shvb5<*O$3he8vh5>$O*5lvrve5-O$>weazZ0<$$$<wyidr<>$O*3ad6d83-OO<w",
"7jicm04-$%3ilgjr5<$$%8ghhv81-$O<9ayxm9<-$&<rglla81%$%5xbrvr1-$O-",
":euavx9<%+$<garyi6<$O-3ivwa91-O$>0rhvv51-X$>fllxi5-$$%8aaxV8<*$O",
"$:6llvg51&O$1wkwli5:$$*5zvsve1:$$<9lzhz0<$$$3dyegg5>$O-3icaca6<$",
"$X>rzijBr1%O$3fxsxg5>%$*4wxlBw3>$X>rzhvvw3-O$3wercg3<$$-6jrrmr5-",
"-++-0ighZ0-%$$<djdcf3-$O-4echz73:OX-wllvv01$ %3waryd3-$O%5ljdZw1",
"5-$$>whavb5<-$$<weaai5-$+$4adwsa3-OO-wxxag8<$$$<ilava5<$O*8dajv8",
"e5<O$-wldgv01*$$-axeae5-$O-8haeZw1-$$-9arxmw3-$$<rlxaa5<%O-5jlwl",
"b9<:O$:0swvN5<$+$<axisj9<$$-9rahZy1:$O>eaybm83$O$<alwdi5<$$%5daa",
"sl94-OX-wdzck0<$+$3glhxa5-$O*3smgb0<>O$<ralbx83-$O3wwrla3-%$%5gg",
"iixe5>$X-ezqcNq1*$$<rdyji5-$$%5hcabw3*$X-6lalv81*O$1idiaw5<$$*5a",
"gljc95-XO:wkkhvy<*X$<aggzd3-$$%3amfNe3<X$-wgyjm8<*$%<axiag5<$$%1",
"7zssme4:$O:wlyig6<-O$1igsva5>$$$4hlgBr5-O$<wwrvmw<*O$1axica6<%$%",
"$3dgiNi3&+$<reaxg6<-O%<wajcg5>$+%5iihb81>$$<yxlcb6<*$$1rrwxg51$O",
"$-59dgmw<:$$<ylcllw<*O$<9gage<<$X*5ed9v91<$O<rl8dd81-O%1yrgaw3>$"
};
