/* XPM */
static char *_643878454997[] = {
/* columns rows colors chars-per-pixel */
"64 64 19 1 ",
"  c #0B0B0B",
". c #0B1707",
"X c #171F07",
"o c #13230B",
"O c #17330F",
"+ c #232B0F",
"@ c #2F371F",
"# c #232323",
"$ c #272727",
"% c #373F27",
"& c #3F472B",
"* c #474F33",
"= c #53573B",
"- c gray31",
"; c gray34",
": c #5B5B5B",
"> c #5B6347",
", c #676B4F",
"< c #6F7357",
/* pixels */
"%=>>===*&***=>>>>>=>>==&>***=>=&%=>>=*=***=*=*>>>>>>>=***=***>>&",
"*+@@@X@++oo++.o@@@@@@+@+++++@.o**@@@@X@++++++Xo@@@@@+o@+@++++o+*",
"*%%%&+ @%@@@@@ +%&%%%. @@@@@%+X**@@%%+ @%@@@@@ +%%%%%+ @@@@@%+o*",
"*%%=**+ @%@@@%@ @***&&+ @%@%*@+&*@%***+.@%@%@@@.+*%**%+ @%%&@%@&",
"*@%*==*+ @%@@@%@.@*=***# @&@%@+%*@%*===+ @%%@@%%.@**=**+ @&@%@@&",
"*+@*>=**+ @%@%@%@ %===-*+.+&%@@&=oO*===*#.@%%%%%@ %=*=*&@ +&%@+&",
"&% @=>>=*+ @%%@%%@ @====*o @%@+&&% @==>=*@ @*%&%&% %*>===+ @%@@&",
"*@@ &>>=-*+ @%%%%%% @===%*+ @%+%%@@ @=>>>=@ @&&%&%@ @===&*@ @%@%",
"&@%@.&>=*==@ @&%@%&@ %;&>=&+ @@@%+%% @->>>*# @&&&%%% %>*>*=@ @@*",
"&%@&%.%-===>+ @&&&&&%.&>=-=*+.@%&@@&% @>>>>=+.@&&%%&%.@=>=-*@ @*",
"&@%%&%.&>=>>=@.@&%%%&@o&>===&+o*%@@%%%.%>>-;=@ @&%%&&@.%>>>>*++=",
"&@@%&%%.&>>==-@ @&**@&%.%=-==%@*%@%%%&%.%>-=>=@.@%&&@&%.%>=>=*@*",
"&+%%%%=% &==>>=@ @*%*&&@ &===%@**+@%%%&% &:>>>>@ @*@&&&% &>>>*@=",
"*o@&&&@&%.%=>>>>@.+**&&&%.@==&@**X+&%%%*% &>>:>=@.@*&&&&&.%>>*%=",
"=+ @*%%%%% @>>>>-@.@&&&&&% %=&@*=+ @&&%%*%.&>:>;=@.@&&&&&%.%>=%=",
"=%+ @&%%%&@ @=>>*>% @*&*&&@ @&@*=%+ @&&&&&% *:>=*>% @&&&%&%.&*%=",
"=%&@ @%&&%%% &>*>>>@.@&&&&&% +@**@%@.@&&&&&%.*;*>>=#.@&&&&%%.O&>",
"=%*=@ @&%&%&%o&>>,>>@ @*&&&&@ o**%**@ @*&&%&%.*>>>>;@ @&&&&&% +>",
">%*=>@ @&&&&&@.&>,>:>@.@*&%&&@X**%&=>@.@&&&%*@o%-:,>*@ @&&&&&%o=",
"=%*>>=@ @&&*%*%.&,>>,-@ @*%%&@+&=%&=>-@.@&%&%&%.&>,>>>@.@&%&%&@=",
"=%=>>>>@.%*@&&&% *>,:>>@.@&&@@@**@*>>>>@ @&@*&&@.*>>,,>@ @*&&%@&",
"*+@>>>>>% +&&%&&%.&:,>,>@ @&%@+&*o+=>>=>@.@*&&&%%.*>,,>>+ @&&%@*",
"&%.&>>>,>%.@*%&%&%.*:,>>:@ @%@@**@.@=->>=%.@*&&&&%.*>>>>=@.@&%@*",
"&%@.%>,>*>&.@*&%%&%.&>>,,>$ @&%*=@@ %>>>>,% @&&&&&%.&>:>>>@ @%+&",
"%@%%.*>=>,>@.@&&&&&%.*>>>,-@.@@*=@%@.%-*,,>@ @&&%&*&.*>>>:>@.@@%",
"&@%&%o&>>>>=@.@&&&&&%.&::>>>+.@*=%%%%.&=>,>>@ @*&&&*%.&>>:>-+ @*",
"*@%&&@o*==>==@.@&&&&&%.%>>>>=#o=%@%%&@.&>=,>>@ @&&&&&%.*>>>>=++=",
"*@%&%&% %>>>==@ @%%%%&%.&>>>>&@=&@%&@&%.%=-=>=@ @&%&&*%.%>>=>&@=",
"&+%@&%&% &>==>=@ @&%&%&%.%=>>&@=*@%@=%=@.%>==>=o @&%&%&% %>>**@=",
"*o+%@%%&@.%***<&+.@&@&%%% @=&&@=*o+%@@@&% @===**+.@%%@@%@ @=*%@=",
"*@+%&&&&&%+%&&&%&++@%%&&*%+%%&@**+o@%%%%&%@%&%&&&++@%%@**@o%&%@*",
"%&***&*&**=====,==*&&&&&&&=====&%**&&&*&&========****&%&*&==**=%",
"&>>>>>==**=>>>>>>>>>>>=***==>>>*&>>>>>===*==>>>>>>>>>>==**===>=&",
"*+@@@+@@@@@@@o+@%%@@@++++@@@@o+**+@@++@%+@@@@o+@@@@@@X@@++@+@o@=",
"*%%%%+ @&%@&@@ o&&&*%+ @@@%%%+o*=@%&%+ @%@@@@@.o%&&*&+ @%%%&%+o*",
"=%%**&+ @&&%@&% @==>*=+ @%%&@%@*&%&**&+ @%%%&&@ @*==*&+.@%&&@%%*",
"*@%**>>@ @%&&&%%.%=>>**@ @>@%@+&*@%*==>+.@&&%&&%.%>===>@ @&@&%@*",
"*++*==>>@ @&&*%&%.&==>>=@ +*%@+&&++*==>>@ @&&&&&%.%==>=>%.@&%@@*",
"&@ @=->,>@ @&*&%%%.&>,>>=@.@%@@%*@ @*>>=-@ @&&&&*%.%>>-:;% @&%@&",
"*@@ %>>>>>@.@&&%&*&.&->>->@ @@@*&@@.@>>>>>% @&&&&&%.&>>,==% @%@*",
"*@@@.&>>>>>@ @&&&&&%.*>-,,>@ @+&&@%%.&>=::>% @&&&&&%.&>=:>>@ @@&",
"&@@%%.&>,<:>@ @&&&&*%o*>>:,*+.@=&@%&% &>,,>>@ @&&&&&%o%<,==>@.@*",
"%@%%%%.&>->>:@.@&&&&&@o&->,>=++**@%&&%.&,,:>>@ @&&&&&@o&::>==+o*",
"&@%%%&%.&=>>>,&.@&**@&%.%>>>**@&*%%&&&%.&>:>>,@ @%&*%*%.&>>*>&@=",
"*+%%&&&%.%;>>><@ @*%*&*% &:,>=%=*@%%&&&%.&,,,:>% @*%&&&%.%->=*%*",
"*o@%&&&&% %>>>,>%.@*&&&&%.&>==@*=o@&&*&&%.&,,:>:@.@&&&%*%.%>=*%=",
"=+ @&&&%&% &>,>->%.%&&&*&% &=*@=*+.@&&&&&%.*,:,::&.@&*&&&% %>*%=",
"=@+ @&%&%&%.%>>-->% @&&%&*%.%%@=>%+ @*&&*&% %::<>>%.@&*%&&% %&@=",
"*%*@ @%&%%&%.&>*>>=@ @&&%&&% +%>=%*@ @*=&*&%.&>*><-@ @*&&&&% @@>",
">%*=@ @&%%%&%o&=====@ @%&&&&@ o>=%*=@ @&&&&&%.%>>,,>@ @&&&&%@.+*",
"=%=>>@.@%&&&&@o*=;-<=@ @%&&&%@o&=%*>=@ @&&&**@o&=-,>>@ @*&&%%@o=",
"=%*=>>@.@&&&%*% &>>:>>@.@&&%%%%*=%*>>>@ @&*&%*% &=>>>>@ @&&&%%@*",
"*%=>>>=@ @*@&&&%.%>>>>=@ @&&&@@==%=>>,>@.@*%&%&%.@>-,,>@.@&%%@@*",
"=+@>>>==@.@&&*&&%.&,,>>=+ @&%@@**o%>>>>*@.@&&%&%% %>:>>>@ @&%@@=",
"*@ &>>:,=@.@&%&&&%.@>>>>=@ @&@@&*% %=,:>=@ @*&&&&%.%>>,>>@ @>%@*",
"&@@.%>>>==% @&&&%&%.&-->=-+ @%@&&@@ %>>>*=& @&&%&&%.%>>>>>@ @%@*",
"&@%% %:=>>>% @*&&&&%.&*>*>=@ @@&&@&%.&>*>>>@.@&&%&&%.&,>>>=@.@@*",
"&@@%%.**>>>=@ @%&%%&%.@=*>>*+.@&&@%&%o%>>>>-# @&&&&&%.&>=>>=+.@*",
"&@@%&@o%==>>*+ @&%@%%@ @=>=*=+o*&@@%&@.&=>,>=@.@&&&%&%.%&>>=*+o=",
"&@@%@*% @*==*=+.@%%@@&@ @===>*@=&@%%@&%.%==>==+ @&%%%&% @*===&@*",
"*+%@%=%@.@=>***+ @%%@%%@.@==**%=*@%@&%%%.%====*+ @%@%@%@.@***%%=",
"*o+%@@@@@ @=*=&%+.@@@@@@@ +***@==X+%%@@%@.+****&+.@@@@@%@ +*=%@=",
"*+++%@@%%%+%%&%%&++@@%%%%%+*&&@**+o@@%%%%%+@%%%%%+o@@%@@%%+%%%@*",
"%&*&&%&%%&***=**=**&%%@%%&**=**%%**&%%%%&***==****&%%%%%&******%"
};
