/* XPM */
static char *_643878299817[] = {
/* columns rows colors chars-per-pixel */
"64 64 20 1 ",
"  c #372313",
". c #3F2F17",
"X c #3F2B1B",
"o c #432F1B",
"O c #43331B",
"+ c #4B371B",
"@ c #533F1F",
"# c #473323",
"$ c #4F3B23",
"% c #4F3B27",
"& c #4F3B2B",
"* c #533F2F",
"= c #5F4323",
"- c #5B472B",
"; c #574333",
": c #5F4B37",
"> c #675333",
", c #67533F",
"< c #775F3F",
"1 c #6F5743",
/* pixels */
"-$+$$-&#;--#,:--;$%$@%%#&%&--@@#@+&XXOo#++@$-*O$$&+$-:;;-$@-+$#%",
"oo#$$$-&*;*%*$%O&###-$#o$-%-$;@#@-*-$+&;%+@;*-X##@@$:;&::-&:+@-#",
"#*#-%%$O@-&-%-$&X*$O#$:&XO*+@$&%$@#X+%#$$##X#:&#$@&-#X-###+O$+@;",
"X@#%&&##$$;-X+=&;$#X##&-$@-$@X#$*+%X##:%$$$#$@%#$@#$#*:#:*-#$X$#",
"#+O$@$#%*#+#;;$#O$##+&#-@&-%&&*#*+@%$$%#@X*@$@%#@O@@##&:$*-o$#$$",
"$#o+-&$&-$@#%$#$O$@-+##-##&$$:*@-%o+&#*;&&+#-%-*@+@##%--$&&--*--",
"*@$$;;%#-$*-#&;#$&$*:&o$$$&;>&$*--#%::;-$+$$#%o@+#@#$-%+&*-%&;@*",
"+&-;#*-#;*&-$%>&$-$-*X$$X*::--@-&-%*&-$%@+$#&@o+@O@%@&-:&;%-#$&#",
"+#$::&;>&@@+---#+-&=#$%#%%::*++@-@#%&-::&@@@-$%$X+@-O#-&;*#;%#;$",
"$*&:@--:*=@$-&-;&*+@#%###%&&--@-@:;:;@$::$@$&-#O$+#*####&$X+#*$$",
"&$**=--<:-$$@@$@O%@%++@+&&%;+#%@@&&--*##$$-&-%O+&$@%@$##&&&$#O@$",
"$$%@@$-&-:;:#&&+#OX:;##&&**--$*=-+;-->--&-$@@$$X#X#&#$%-+&$%$+##",
";::*&*$&->*&::%->%;$&#&%@-&--$+=$*--@---$--@@+$#%###;&%o%+ %$+$%",
"#:*>-&-*:>,;-&#-&&#:&$Oo+-+@&&$-&;-@-%--1--:-&$#&%#&-&o$-*&O$%&%",
"$-&-;,--;*%--%%&&#;;**#$#&@-@-@=#%-@-@>-*;--*$%$%%$;&##+#*#@@@-$",
"-;*%&&;-;-&;:%-%;-:%&O%&&@$o@#%@@-@&%@#$:,;&@:*&&::&&%&@###@-@@&",
"&&>;&,;,;&-:$%-:;-+:-&;%>@+%o#&@@@@$*;-;::**%;;&;::&$&+++@$$%$-;",
"&:&-&@-->&#&>:;%%&##*@$*&$&*#:-@--=%#=&;--::;#&&----;$#@@###$$+-",
"$%$>:-@$@-@-$:::#$-@*@$-;&**-;*%-@@-&;>>:::---X%$@--@-#O+###&%$$",
"%$--:$*-*%&-;;*-;;%#X+-::;%%$$--$-&%&@%-:-->1*;-;*;-@*+-$#$O-%-%",
"#*-@@:-@@@-$&-&:,*$&&%@-::%&$%@@+%#*&$$@-&@---:-:$--$$%$&$@O#$%&",
"-:-@O---@#%:>:;*;O$O*;#***-$$%@;*:--*#@---;+%&-:-#&:-&-&$#X##@#%",
"%>&@---$@@$$@-:;@#$X%%#&-=%-*#%##->%%--$****$*:;@#-;*-;@;$O$$;;$",
"#--*&O@@-@%*>&%&&%&O&-%#$**:#$&&%#-;:*#$#@->;---+:--:&%;#%-@##$-",
"*%O-$*-:;;+#-:*##X#&%#%&#$+$@-;&-;**:-=%@;$---;*-%&-;:#;;O+@;&o#",
"-&@+$&@@$%#$@-&o#*#O&%**>@-&@$$-#>:&:::%@--;-;&*%$;;-&;%$#$#&&%@",
",--&$&;@+#+$X;#+#%#$$$@*@.*##-&&:%:>::<*---@#$%$$-*;*##@##+#%@-;",
";%@:&&--$+$@@#XXO#&$$@$--X$%&@@-:>,->>>->>:-%o--@$+%*-.-@-*%&-%$",
"#,1#$-:--&#-@;&%$*&@O@$$:#X#@@--;--->>,>::-@-#+@-;@#%-$;-*-&###&",
"::1-+-@@&-&;*;#$&####$#$-&%$%&#O#-@@->-----:&@>--*+%#$$$+-<&&@-$",
":,&*O@,>**%;@*#&o*X@@%##$##@@$&;;:-:*-#;-@*:---:--%o#$-@%@%&$#;-",
"&:--:->&&&;-@-&-;;&*#-@-%;#$@%&#-;>&->;-:&:--*:->>:%-%X@#@##+;%&",
"#>:-->>->-*-:#@*::;-$X#&*#;-@-&$-*-:,%--:-,-@###;::::-%#%@*$;*;;",
"$*-;;:%--;*::->:;$$###$#&#+-$@---:--*-@:-$*-+$#&&-::-#%#$--##*&-",
"*@-$@-@>#->:::*#&+@-+X+%-+%-@-&-*>;#,::-:;-*$$-%#&-;%;*%$$%&&:&-",
"&:%;#-X>;+%@::**-+$@#+%###+#$$:%:&--:--*#%*-#&;--;@-:&&&+$%*&&:*",
"-----:&&--:-&#;;#+X$#+@;#%#$%%-@-*:::--&#;-#&;::--@---$O@%&#%*;-",
":*$-&>&:-@#$&::&:%&##O$#X-$:&-&*$;-,*-@>-#&*::::@-@@;*&=-@-*&-*:",
"&*:*-@>%$$-=##*:=&-+-#$##@+#$;&#&--@::=@@;&#-*-:&&X-;$---@&&:*;*",
";:&:&-@-$#@$-&*-&#&&#%O+@.#X@##&:*@+-;%=*-:--&:>--@->@$%@--&$&:-",
"--@#&o&#%#--&->@&;&*-%&&&$$&:-@$>*-=*-&-@$;%--::-$-%##-$$-$*-:*-",
"-$$+@#-$+&--@%#@$#:%#$X##%-###*#---&+%--@-*-%-*&%$$*%#:%;%-%-@->",
"&-=---#$&@:-%$-$$;%:$$O###@&;#$*&#--%%>;&O#-&:;->&#-$+$@:-&;#$:>",
"--*@@--%%-#;%##&-%%-&*#$#O$&&#@**@@$&-@&*%-@#%##@#---$@$--**&;@@",
"#-&&#@X>$$--&;%%%%#-%&&##+#&@$&,--$##@@@$$-o-&;;>*-:>-@#---;-:-@",
"-%&@@@#&+-$@@@X-##$@@$@%&$%*-$%-&--&---%+@@%;%%-->-@---%*--&----",
"@$$-;*#%@@*O#O##;#o@@@$-;;###&&#:,;--:@-@#:-%-%$-%:-$$>$$>-;&:%&",
"&&-*&&#$-@@#X$#&;+o@+@++&,;&@=#::>:*--:-*&:>:-:;-;&:-@$-::;%;@@@",
"*;@@=&&@&#+$%+&;+;-+$$#$-*&&#$-:-&@O$1:-,;->::-%>::>$@%%-%-$;$@O",
";%@$+-$@@XX*&$$@$&*=@&#+$%#X&Oo&&#%&><:&>,-->>>:>:->-$%*&-+;:--&",
"&--@$+$-%#X@$-O$$&*;#-@-+&#&&&&&:-%-::;:-::>&-::--@->:;;--##**&:",
"*--@;$--&--$&--&*$--*o+&$****;&#%&X&:$@&,,>---:>>#&--:,;%$@#&,:&",
"-@->-&&#&&->$-$%&#:&##@o@&&;-$=;-&#:;--:;:---%-&-*--=::&&&+$:::&",
"$:,>%-&**&*&*-$:##&;@o$###&%&;&@-%#&-%-:-:*;&:--$%@-$-X#$%#+-&$+",
"--;@->:-;:;:;-@#-@o-$@*%@$#;*;;--:-;#-*;,,;-*>-%-;&=@@%#+$X+o##-",
"-@-*+@;-&-,,,::$#;*&%@@;*$%*;:-$%@>-&+-::1:--#**;&:--*#X##%o@&$&",
"&#$$;-%@:;,:---###&#-@*&&@-&#--;&-*#%-:;*&$-::;-%$#$#*OXX#&#+$$$",
":#@&---:,>:--;;+#$*##+@>&&-;:&#&:&;#::&+&%--:::&;+%@-$##@#&&#$&-",
":&o$----&*;=O-%$$&;$%%-;:%&*;%&;;::;%&+##;-&-:;$$*#@@&%$&%#@O$X#",
"$$#&-##&$&---@-$@$#&+-%-&*->--$;$@-;&##@.&*#%&@&*$#*$&#*o%#%$$%@",
"$X%%+@-&*;*##$O$+@$$O#;;&%$@@:;$$+&-;*##O*;%&--*:&&*#$#&#*X$#&##",
"*-#$@-$#-#::-*-$OO$#+X&&&&#%-:;@@--#%;%%&%%%#$$+-@@*&-%*;::-%#$-",
"&#@-@@-$*%:&-%o&#@-+$o+$##&;@$*%#@-:#+$OX%X*%-$%$$@*-o:-;&&%OO$#",
"##@-@=&:*:-%&--;---++#*-%$-:-$X@$$$#o&##%-*$*-O-##-;***;:--&#X$#"
};
