/* XPM */
static char *_643878338776[] = {
/* columns rows colors chars-per-pixel */
"64 64 19 1 ",
"  c #070707",
". c #0B0B0B",
"X c #131313",
"o c #1B1B1B",
"O c #232323",
"+ c #272727",
"@ c #2F2F2F",
"# c #373737",
"$ c gray23",
"% c #3F472B",
"& c #434343",
"* c gray28",
"= c #4B4B4B",
"- c gray31",
"; c gray34",
": c #5B5B5B",
"> c gray39",
", c gray42",
"< c #6F6F6F",
/* pixels */
"#$&&&*&#&&*&=&&&*===***$#*==*=&#$=&&**&&%&&&&*&$&$=**=&&&****&$$",
"##+##++@@o+@@++$$&+&$o+$$++&@++##o+@@+@&$++#$++$#++@#++#&=+#&+@$",
"$+ &$+ #$+ @#+ &-+ ==+ &&+ $$+ $# +## +&# +#= +$& +$& +&& +#& +&",
"$+ =$+ *$+ &$+ $=+ =-+ #*+ *$+ #$ +*$ +$& +&- +;& +$= +-- +$& +&",
"&+ -*+ &=+ =$+ *=+ --+ =;+ &$+ $$ +&& +$& +-= +-- +&= +-* +*$ +&",
"$+ &&+ *;+ &&+ &&+ -=+ -;+ -=+ =* +&* +&& +-* +-= +-& +-& +&* +*",
"$+ #$+ -*+ =&+ ==+ *;+ &;+ -*+ &* +*& +$$ +&- +;- +-; +&# +$& +&",
"$&$$*=;*-&==&#$*=;;**=$**;-***==**=$&$$*&$**--:;:::==:-&$*$$&=&#",
"#&#$&=-=*-&-*&$&$&**$$*$=*$*&$*#&*:-$$&&=&&$==-;-*==&$==>*$-&&&&",
"$+ =:+ ;=+ ;=+ *=+ *=+ $-+ *&+ &-.+-$.+=$.+=-.+:=.+=&.+=;.+*-.+&",
"$+ *-+ =;+ -*+ =*+ ;=+ =;+ -=+ *= +*= +*& +&= +=& +=& +*; +;; +*",
"$+ &-+ *;+ :=+ ;*+ ::+ **+ &*+ *: +:= +*= +&* +:& +-* +*: +-; +&",
"$+ *-+ =;+ ;:+ &*+ =;+ =*+ *&+ =* +;* +=- +*= +:; +=* +&; +=; +=",
"&+ =;+ -;+ ;-+ -=+ ::+ &=+ &*+ =- +:* +*; +=- +*& +&& +-- +-* +&",
"$+.&;+.**+.*:+.=&+.;;+.=;+.*&+.=: @@* @=- @-- @&& @&& @&= @-= @&",
"$$*$;*$;**$$*&===--=--=,=-*=-;:=;;-=>;:->>:::**=-:;;=-;=;*&:;=-&",
"$&#*=*&*&$&&$&$*=*--;-*-;-*==&&=-&$=&&*-;;-=----=&$*--&=;&&*-***",
"$+ =:+ =&+ *&+ &&+ ::+ =-+ -&+ =;.+$*.+;;.+:;.+::.+==.+=*.+=;.+=",
"*+ ;;+ ;*+ =&+ =-+ :>+ -:+ ::+ -: +*- +>= +:: +;: +;= +-* +*; +=",
"=+ ;-+ -*+ =*+ :>+ :>+ ;:+ ;>+ :: +*= +>: +:: +:: +;= +-= +-& +=",
"&@ ;=+ -;+ &*+ >:+ >:+ =>+ ::+ ;; +=; +=: +-; +-: +=> +** +=* +*",
"$+ =-+ =:+ $*+ ::+ >>+ ::+ :-+ == +*; +;= +;: +;= +:: +*& +=$ +*",
"$@ =*+.==+.&;+.&:+.:;+.;;+.=-+.=& +$* +*& +=> +:; +;; +&& +-$ +*",
"$-;*=;;;;==>;::=-;>>;:;;::;=>-;;;=&==&$=:>:;->>::=*-;;:=;=-==#@$",
"@=**&-=*=&&*-&&;;**;::=-;==;-==-;&&&*$$-;;;-:-;--;=;;=*:---*=$$#",
"&+ =;+ **+ &-+ :=+ *:+ ;:+ ;=+ -:.+&=.+-;X+;:.+*;.+::.+=-.+**.+*",
"*+ -;+ -&+ =;+ :=+ :;+ ;>+ ;=+ *> +=- +;> +:> +:; +;- +;= +** +=",
"*+ -;+ *=+ &-+ =-+ ;;+ ;:+ -=+ ;: +:- +:: +*: +:; +>; +;: +*& +=",
"$+ &-+ :=+ *;+ ;;+ :>+ ::+ ;-+ :- +=, +;: +=: +:: +-; +:= +== +*",
"&+ &;+ ;=+ =;+ -:+ >:+ ::+ :=+ := +=> +>: +;; +:: +:; +:* +&- +=",
"&+.;;+.:-+.&-+.--+.::+.;:+.=-+.;* @=- @;: @=: @-; @:> @== @&; @&",
"#=;-=;=::;;;==:;:>>::>=:>>:::>*:;-*:;>-::>>;::>;;-:::::;;&*==--#",
"#****;-;;==-;:-;:--;;*&:=;=;-==--=$==;;=-;-:;*;;-**=;*$==$$=$&&$",
"&+ --+ :;+ =:+ ::+ ;:+ =;+ ;;+ ;;.+-;.+-=.+::.+-*.+*-.+=:.+$*.+=",
"$+ -=+ >>+ -=+ ;;+ :;+ &:+ :=+ :- +=; +:: +>: +;= +-- +:: +=- +&",
"&+ *;+ :-+ :*+ -=+ -=+ *;+ :-+ >: +;: +:: +:: +:; +=- +-= +-* +&",
"$+ =-+ =:+ =;+ -:+ -:+ ;-+ ;-+ =; +:: +:: +:= +>: +&; +:* +;; +*",
"$+ -&+ ==+ ;-+ =-+ *=+ =-+ ::+ ;, +:= +:: +:: +=: +*= +:: +-= +*",
"$+ --+.&-+.:-+.=;+.=&+.**+.;;+.*; @;; @== @== @=; @:= @;; @=* @&",
"&&=*=::==*=::;;=;==-=&*=;:;;::;;:$-;;:*=;=;;-&&:-:::-=:>:-;=&*$&",
"$$$&---===>=--;::=*--=$=====-&$=;&::;=**-====$&=;=&=-&=-;>--$@$%",
"$@ =*+ --+ =;+ :-+ =*+ *-+ ;;+ ::.@>:.@:*.@*&.@&=.@*&.@;-.@-&.@&",
"$+ ;;+ ;>+ ;:+ :*+ :=+ -*+ >>+ :: +;: +:> +** +=; +=: +>= +;= +&",
"$+ =-+ ::+ ::+ :;+ >:+ -=+ :;+ :: +:> +;; +*= +=; +>- +*- +*; +&",
"&+ *;+ :;+ ::+ :-+ >:+ -:+ :>+ -= +;: +-- +== +*= +*= +;= +-; +&",
"&+ =>+ *-+ ;-+ ::+ :=+ :=+ ::+ &: +-: +=- +== +$= +*: +-* +;: +*",
"&+ &;+.==+.=*+.*-+.:=+.>&+.;=+.&* +=* +=* +=; +&= +&; +&; +=; +&",
"#*=$&-*--====*==,--:-::--=*:*$&;;:;:;;:;;*&*=:*-::>=:-=*=*-=&&&$",
"#$&$*&*-=-$**&$*=----=&-=&$=&$*;;::--==>;;&=:;==;:;;:-==-=&&&#&&",
"*@ &:+ ;;+ **+ $;+ *-+ >$+ &&+ :>.+==.+=;.+;:.+;;.+;;.+==.+*=.+$",
"&+ -=+ ;-+ **+ =*+ :;+ *&+ =&+ *: +=; +;: +:- +=; +;; +== +&& +=",
"*+ *=+ &&+ =-+ &-+ ::+ ;-+ =*+ =: +&: +:: +=: +;: +:; +-= +&* +*",
"&@ =*+ =*+ *=+ =&+ ;;+ ::+ ::+ *- O-: O:: O;- O:- O;: O=* O&& O*",
"=@ ==+ =-+ =;+ -;+ >>+ =&+ ;*+ =* O-; O== O-- O=* O=: O&= O=& O=",
"$+ &*+.:*+.&-+.*-+.;:+.$=+.&=+.&: +;& +&- +:= +&& +*: +&; +&$ +&",
"$*$*-;**::;*:::&-::<;==&=*$=;*:;:-:-=&&=-:;-=&==;-==-=&-;-&&&&$&",
"$&$&*&==&&*=--:==;=***$**&$=&&&==&*;;*****--=-=***-----&&&$=&$$&",
"&+ *&+ =&+ :;+ -;+ -&+ &&+ &$+ &=.+=-.+=*.+;;.+$&.+*;.+=#.+*&X+*",
"&+ *&+ *$+ -;+ ;;+ *=+ &*+ &*+ *= +-- +;: +=; +** +&* +=$ +*= +*",
"&+ #&+ *&+ &=+ ;;+ -=+ &&+ &-+ ;; @&- @:; @&& @&* @*& @-* @-- @*",
"&+ &$+ &=+ &&+ ;;+ =*+ =$+ &&+ -* +;$ +=$ +*& +$& +&& +&= +-= +*",
"$+ &&+ &*+ =;+ =;+ =-+ *$+ $&+ =* +=& +&$ +=$ +&& +&& +&= +-- +&",
"##+=;++:-++:>++>>&+:,++-:++*:++>:++;#++=;++::++-;++>:+o-:++--+$$",
"@#$$&$$$#$$$$&$$$$*=&$$$@&**$&&##&$&$$$&$$$$&&&##*&*&=$$$&&&&$#$"
};
