/* XPM */
static char *_643188022799[] = {
/* columns rows colors chars-per-pixel */
"64 64 28 1 ",
"  c #373F27",
". c #373737",
"X c gray23",
"o c #473323",
"O c #4F3B2B",
"+ c #533F2F",
"@ c #3F472B",
"# c #474F33",
"$ c #574333",
"% c #5F4B37",
"& c #53573B",
"* c #67533F",
"= c #434343",
"- c gray28",
"; c #4B4B4B",
": c gray31",
"> c gray34",
", c #5B5B5B",
"< c #6F5743",
"1 c #775F4B",
"2 c #5B6347",
"3 c #676B4F",
"4 c #7B634F",
"5 c #6F7357",
"6 c gray39",
"7 c #7B7F63",
"8 c #836B57",
"9 c None",
/* pixels */
"9999999999999999999999999999999999999999999999999999999999999999",
"#2&#&$&223&&2&2&&&#&@&##&12353&2@X&&2&&&322222O####&&2&522**&&&#",
"&##&&22&&2&222&32&3332#&2&23*3332##@&#232&&&&3&#.@#&2*3&&2:2,23&",
"#&@ &&2&##&2&&&22&&&32&*&*&&*2323&#&&&&&22&&&&#@###@23*&#23&222#",
"&&@#&@&#22&#&#@=22&&#&&2&*&*+&#2&&2#&5&3252&&&&&&2&&*-&##&&2&&2&",
"##&##&&&223&@@&#2232&#&##$*&#&&&3#&2&&322&&3&&$&&2&&2<2&&&3&&;%%",
"#&&*&&2#&2&###&&2&&2&&#@#&&#&&#&3&#@#&2&3323&#@##&2&22&&23&32&##",
"$#&&##22322223&#&&&&O&$##&&&&#&#3&&2*233&2333&=@@#&#&2&2#3&2&&&#",
"522&&&2&&&22&2&&&&##&&X#&&&&2&&*223&52&&2253&35&&&22&&323222&&&&",
"=323&&222&&&#22&@&22=2&=##*&##o&&&&22&,&&&&3&22&&&&&22&&&&23&2##",
"&&&&&&&&::& ###&@@#$O>223&&#&&23&223&&2324%*2@X@&#&2&&&&=3##X&&&",
"&#####&23>:&22&2&&&#&&@&&&2=#&23#3&&#&*7331*&&&@#&&2&&&&2&@& &#&",
"23##@##&&2&@&&#&2#223&2&&&213>222*.&@;&23322**2&&3X&&333& @#&&&#",
"&OX&@####&&22&3&3&2&3#&2&***<##3&&2@#&322*&&$$&@&*&335222*22#&##",
"&&&&@##&&&&&&&2&&&&&&&####<%3&52&#&&&2&#2X+#&$23532332232&#&&*2#",
"&&#&#&&*33&&##&335&&&#@&&&&&23&2&&2#&&*@#@&&&2:&#&332333&@#@#@&#",
"&&*&2&223&3222#333#&#&&##2-&&32&2&&&323&&-*&22353&=3#2352&2&##&@",
"2&2#2&*3253&&#&2&222@##&#3332&&2%&&#@&&&&2&*&&3,5*$2&*2&@#2&###&",
"&&&#&22&3235#&2#&#&@&&&&&32&22&3*233*232&#&222#2233*&2233&##&&&*",
"&&2*5&&237&2#&@&&&###&&52&222&&222&2222#&&&*3&7&23*32,$2&&&@@#&2",
"&3&22&&&&7&&23@ +##@&&##&@&2&#&&>*&22223&&%O*&&&#&#25&&&&&&##&#&",
"$*32$##&#322####&&&&&2#*&&#&23##2&&232&&&&& @#@#@#22& $&&@@#@#&&",
"%*&&&&&#&2&&22#&&#&*&&+&&&&:22#&&&&#&&&&&&@## &&&&3&@&2X=###&#&*",
"*332&##*222&## &232&%$$*2&&%&$&2322*3222#&&@&##&&22#2&#@#=&&&##*",
"23,53&322&&&&2&5&2&&%2$&2&:2&$&&&&**22&#&#&&&2&&##%@&&&&&3&2##2*",
"&&**,532&&#&&&&3&3*,2**&2,&22&&&&**&&&&&#X#&&&&-&2*3#&322&2&>&#2",
"&*$&&&22&X#2#2&32&&#&*&*&&2##&#2&22&#&&&&&&#&&#&&=*&2&2&&22##&&&",
"&&$*#&&&&=#&X&&&&2&2&*2&#&2&&@###*5&&222&#&X-##&32&&2&32&&&#&&#&",
"2&2&&&3&&&3#&@#&#&22*2&22@@.@&&&&22=&&#&&&@$-&&&&&#&&22&&*2&&&&&",
"&&2&&&&3222#X@O*-&2&&&#&2&& ##@&&@&&&2323&&3&:3#$&&&2&&222#&&#&&",
"#&2#&&2&&33323&22&&2322&###&@##&2&&@###*&&#&&=&$##2#&-&#&&#&&@&&",
"&&2#&;&#&&2222##52323&&2*&2&&##=# ###&&@#&&2>&$#&&&&3#2&&&&&&&22",
"&&&3&2&#$22222&2&323&23&&##&&&@&&&&##&222&&2&&&&&@@#2&#2#&$2&&32",
"##2**5*=$&&2##@#&32&222##@ #@&#&&@&###&35#&&#&&2&3&&&&###&&&#&&&",
"&#&22*3332,2&@322&2#*332&&#@#&##&&&&&333&323&##&&&##&##&@#&#=$@@",
"&O&&#2&#2#&*&5#33#&223&@#2&&##&2&2&2&23232&2&&#X#&&&##&2#=&;2&##",
"#&&&&5&2&&@*3&2&&2&&*332&##&&&&&&&#&2222&33&&2&&&&2##&#&&&#@$X#&",
"2X&222#@#&3@321&#33&3&&&#&@@#&2&#&:3&&&35&3&@&&##&&&## ####&&&#&",
"#&222322&&&&2&3#&&22#&2#&&@@&##&2222&##&7*225&#&#@#&&@@X@@@@####",
"*&33&&*23#223*2&#&22&#&&#@###&&#233#@@#@&2222&3&##&&#&&##&#@&&&&",
"2&3223222&2*&3&&&322&*+O##&&#&2**&2*&@#&2222322&#@#==&#&# &&&&2&",
"3&223322&&&&2222&3&2&#&&=&&&##&*322&##&22&&&&332&$O## #@##&&#&##",
"3@&&535&22&&&#3&&2#&&&&&3&2#&2*22253&3&&$&&&235&#2#&@##@#&&&##2&",
"&&##&722&5*&&##&2&3&&5&&&32>&&2&&**3523####22&3&&&&&&O@@@@###25&",
"#@#@@#233&23&@#&.&&&&2&#&2&&&&&#&$&&#&2&&&&23**2&#=&@@###@&&&*52",
"&&$223&2&32&&&#&##@&@&&2&###&##&&=&#&&&&&#32232&&## @#&#& &%&&&&",
"##X#2&23#*22&#2&&@ &&2&&23&&##&&&&###3&2&&&2&#2#&#@###@&&#+*2333",
"3352*##&2&3&&&&&&&33#&&&&&&&###&&##&&&3**&##&:&$O#&#&22&@&*$&2&5",
"223&#&#&2*3222&&22&222&&&#&& #&#&&&&&&&&&&33&#&&@##2#&22&&#2&%*3",
"#&&&=#&2&3*3&&2#2&#2&&222&*&&&&&*&##$&&&&&*2&&#&#2&&&#@#&#&$&&+&",
"&#2&3&#22#&&&2&&##&&&&##&;3&2&&&&&&&&&#&232255&#&22##@@@##@#*&$#",
"#&3222@&2#&22*2,&2#####@&$2&3&#&#&&233&&22&##2&&2&#&22&###&#&&##",
"2&22*2&&2&>&&&2#&&22&&@#26$$=@@&=&&&@5833&&& &2&#&&&2#@&&@&##&&&",
"2&&#&&3&2+&&&&232&2###&#&332<&2&;:3&5532=#2#&&2&@23#@##&#&&&%&+#",
"#***2&2&2&22222225&2&&22&#&&$X&2:&&&2*2#2&##&&232##-&&#2&&**<*#&",
"232&2&&&&232&&2#3332&&&&#@-#$&&&*#&22&&&#2&X#323&&@&#&&2:6&&&22*",
"223&&&&&#&22&222332&#&#&&&22$*&=&&2&&&&&#&223222&2&##2&2&2&#+&&&",
"#$2&&-&&#&52#2&2&&&@#@@@#@&&&&&##&&#&&#@&&&&&2#22&##&&2&*&&3***&",
"2&#.#&2&&22&&&2&5&#2&#&2##22*&323&##@@2@#&2&2&2@223#=&&&&2332***",
"2&&@ ##&&&&&&&3&2=&2&&@+&&22222&&2&##&#2$&2#&&&&233&+##&:&*22&&2",
"&#&&&#&2&2#&&&&&&2&@##&&&&#&%#2&&&2#23&2&*;$&2&&&&2&&3233222322$",
"&&&&2@#&&#&&&3&&&2&&#@#&2&&#3*3&##2#2&3&&*2+&3*&&&&&2&X&3332&&32",
"&@#&&2&&&&&&#&222&&&###@###432&&&@&22223***%&&2>32&&#&&2&2232&2&",
"@@ @###&&&&&&22&*&#@####2**252# &@#&,23:&&2&&22&##&2&&&&&22&222&"
};
