/* XPM */
static char *_643878271281[] = {
/* columns rows colors chars-per-pixel */
"128 128 43 1 ",
"  c #373737",
". c gray23",
"X c #4F3B27",
"o c #533F2F",
"O c #3F472B",
"+ c #5B472B",
"@ c #474F33",
"# c #574333",
"$ c #5F4B37",
"% c #53573B",
"& c #675333",
"* c #67533F",
"= c #775F3F",
"- c #434343",
"; c gray28",
": c #4B4B4B",
"> c gray31",
", c gray34",
"< c #5B5B5B",
"1 c #6F5743",
"2 c #775F4B",
"3 c #5B6347",
"4 c #676B4F",
"5 c #7B634F",
"6 c #6F7357",
"7 c gray39",
"8 c gray42",
"9 c #6F6F6F",
"0 c #7B7F63",
"q c #777777",
"w c gray50",
"e c #836B4B",
"r c #836B57",
"t c #8B735B",
"y c #937B63",
"u c #9F876F",
"i c #A78F77",
"p c #AF977F",
"a c #838383",
"s c #8B8B8B",
"d c #939393",
"f c #979797",
"g c #9F9F9F",
/* pixels */
",>:,<<,,<<,<,<>>>>:>>:::>:>:::::>>>>,,,>:,:::::>,>>,,,,>>:>>>>::::>,>:>>>>:,,,,,,<<<<9<<<<<<<<,>,,,,,<<<<777<<<7<7<<,,<<<<<<<,:;",
"8<889999999887877886889888887877778899878888686689999988888888888888887888888999999999qq999q98778989999899qqqq9899988898999999<7",
"7,7788878889877777777<7778777<7<77777777878777777788w88777777777777877777788899999999q99q99999777778899999qqqq9qq9877798999978,7",
",,739asssdsdsassa0swawaaassassas00swwaudu0u00aassssdsssssssassaassasssssssddsssddfddddfdsfdddasasssssddddffggffddfaaasssssf0<7:<",
"<:<%444466666444646444444444364444444446666444444666666444646444444446644444446600000000000000666666066906000000066660066600<7:<",
",:<%344444444444443444333443344444444444444343344444444443444333444444444444444460600000666660660666666666600006666666666660<7>>",
">:<%444444466446443434444444344334444444443333344464444444444443334444444444444660066006600666666660646466000660066666660600<7>>",
",:<%444444464444443434343444344444444444444333344444444444444333334444466444444606666666000666666466006666600060666646666660<<:<",
",:<%444666646444443333343444344344444444444443343446444444444343344444466666444066666666006666666664466666000006066666666660,<:<",
",:<%444466644444434333334443444436444444446433333446666444644433444446446666666606666666666660666444466666000000006466666660<<:>",
",><%444406664444434333433443363334464444444443434444466444444433344444466666064000066666666666066444466666000000066666666660<7>,",
"<>7%446644444444434434343443344344444444444443344446446444444433344443444466664606660006666666666444466666000000066666666660<7>>",
",>73460444444444434433333343334446664444444464444464466444444443344444446646644466660660666066666644466666000000000666066660<<>>",
"<>73444444444444444333333333334644444444444444444464666444444433344444446444664466006000660666666644666666000000000666066660<<>>",
",>73444444444444444344334333344444444444444443434644466444444443344444444444644466606600066666666644666666000000000666666060,<:<",
",><3464444444444443333444333334444444446444444344444444444444333364464444464444444606600666666666606666666000066000666646060,<:<",
",:<%446444444443434334444333334444444644444443444446646444444443444664444444444464466800066666666666666666066060066466646660<,:,",
":;<%466644444444444343333333344334644446644444444446444446444446466444446444446466466666660644664666606666000666666664644660,7:,",
",;,%466664644444344433333333444434444444446643444346444444444444646444444444444666644666666444364466006666000666686664444466><:;",
">;<3466664446443344333333333344444444443464343344446644444446464444466444444466666646666466644444466600000006606666666444460,,:<",
">:<3666664444436444334343333344446444444644343444446444444444664444464444444444466446666646644444444600000006066660666444440,,:<",
">:<%4466446434*3344433343333444443444444464444444444644444466444346464444444444444446644444464444466600000006644666646444446,<;:",
",:<%444463444433333344443443434444444444464344344444644444466444444444444444644444666666476664444666600000006066440666663346<<;>",
">:<%44444344443%344333346433444466464664444443334444644444446444444444434444444666460664446644444466600000006666666666*44440,7,<",
">:<334443334*3%3433333433444446446444666*44333334446644444466644344444444444444866666666444446444446600000006660660666664460,>;,",
"<>7%444444*44333443333333333446446446466444443334444664444664443444444644444464666006666444434464666000060060666666664064400<,;>",
">:<%344434444%33444433333333444466444446644433%%3334464464644643443444444466444406660064444664444446600000666666666444666660<4><",
">:<%3444444343334343333333344444466644646633&&&33$344444666646634333%4434466644666666664643444464466666666066666666*34606600<<>:",
">:<%4644644443434444434444444444466446664644344%3334444446646464444344443446444666666664444444444446666666060666666444660660,<:,",
">:<%444666644443334444334434444466644466664444433444444464444433334333443434444666666664444444444446666666600066666443434660<<;,",
">:<%446666666444434343343334444664644666664&46646444444444444433344433343344444666666666444444444344666606666006666444644460<7:<",
">:<%3444646664433333343333334446666664666636446444644444444444433333333%3444444666666666444444443446466060066660667794433460<7>,",
">><%34666466444334433333333344666664664444644466444464444446444433333%33434444466666666664646446663664600600606066683466436077,,",
",:<%44646646444333343333333334666646664646646444664446444466444333333%$33344444460046666644666666644446600000066606474466660,<>>",
"<,<%444444444444443333*33333334666666664664644466666644460664444344433%34344444466644666646666666644346066600000066644466066<7>,",
",,73466444444444433333333433344666644666646444446666444466666444444433333334433486434666666446646644346600000000006444646660<<:<",
"<>734644444444443333333333443346464446666644444446664446066664644443333433344446664636666636466666%6666600000000064664446600<,:>",
",>7346664444604443633333333334446644646444443644444644446606643344443333%3%444446663464644346466666446660000w000064446640606,<>,",
",>7366444444444464433443333434346664644444443333344444446666643344443344%343446464464444444446660066466066000000666463666644>,-<",
",,7366644444464444444443333344444646444646443444344444436666633344443333%%43444633444643634646066666646660000600066333344660:<>:",
"<,7%446444444644444444433333444444444464466433343444443466664344444444333%344444444646446444344666664660666600066684444*3346><;:",
"<,>%3664444646444434434333333344464444444444433344664446666643334444443433%%446664444466663463466644666666600000664444446440<>;:",
"<>,%3466666666643443364333334343444444444444433344646664664444334444443333444*4666343633463443666444666666660w00064433446430,<:<",
",>;%446666666644443343444443344444444464444344%34646666664444433444444333334*34446444434*6643346644466q666660000444434666444>>-:",
",:<%346646666644433333443333344444444464444444334646446666444333344644443344444446466433344433444444666666660004644444600w60<7-;",
",,<%4466604666444333334333343343444444666644443334466666646644434444446464464444466464434664443*4466666666666660046446660000<,>:",
",:<%446666466644433334433633444444444666644444434446666664664343344444444444444446446444334664444466606666666606464646660000<7>,",
",:<%36066666664444334334333333444444666664444444444144666464443334466444444444446666664344607466634666666666600643446660000077:<",
"<:,%46666064644443343333333334346346666666444444346644444444443364444364444444446666644466666666446666666666606003644660000077><",
",:7%%4460666444443333433333334444446646644444444344444444443444433644444444444446666664664464664446666666660066664346660000077><",
";:,%443666666444433333333333344446644366443344&4444644*33%44464434446444444444664666666664466444476660666660061436*446600000<7,<",
"::>%4643666644444333333333333334464434464*3334333444*344444440664344346444434466666666664666444444666066664*644446466666000077,<",
",::%33364666644334343333333333443444434464433334*33464444444446644443444443344466660066466666443466660066646660464666636460076,<",
"<,,%344466666044334334333%333%344434444446444$343334464444466444664334444444444666606666666664444466666660044360636666646600<<:<",
"<:>%3634660666643333344333433336433%4463466433343344344444464443446444644444446666666666666666474446666600066466644446444660<7:<",
",>7%3640606666443333343334444434433334444414&334333466444444433333644464*433446666660606666066333444466000060646664463666660,7:<",
",>7%46660066064433433334444444443*446444443333333446466444444433334446633444466666000064666666436434466000666664664684436660,7><",
",>73646666400634333333434444434444444464444334343666664644444433334464444444066666060064646666463434466600006660064467466660,7:<",
",:<3666664666664333333333444434444446444464334434666666444443333344464444346606666066666666066666434664660000006666464466660<,><",
">:<%466606666663443333333443333443446433&4&366444466604444444433444464443344666666066664666666666446666666000046466664466666<7:<",
",:<%466666666644333343344333333444444443344444444466664444464444644644433444666666606644646666666444606666600064464466666600<7><",
",:<%4666664666434343344443333%334444*34433343443446644444446444444444433344400606066644446464446466600666666666*46464646666077,<",
",:<%46666644644433443334444343333343434443444444444644444446444644444343344466066666664464446444666666066666660434346666644077,<",
",><34666666664444434343444443*%34*34334444434464446644443464443444334443333446644466664466464444666666666666600684606000666077<<",
",>7366666646644444333344444443444343334333444444444444444444443343343343333344464646664666664444440466666666600880000000066076,<",
"<,736066666444444344644444444334443433443444343434444446646644443334343333<644444466664464666444446606666660000660000000004077,,",
"<,73666666644444643344644334333444433364*%333334446444444446644443333433334444444466666446466744444660066660000660060000060077,,",
",,7366666644443444433444434443344443&4&3333333334444444644666443333433333334444446646066666666666444666666600000000006660000<7,>",
",>734600666444434344466436444464444333344&433343344444666666443343443333333434444466666666666666466666664666000066006060000077;:",
"<,73444466644444633433343446444444433*44444333444664666666664443433444333344444446666606666664664644644644466006400066006460<<><",
",><%446464444443344334333334444634464444444434464666666666664443333443334444444446660660006064646666336664444660004666666660<<>,",
"<><%4464644444333333444333444444663*4444464444444666666666646433333333343444464496666660660006666644466346444604646664366460<7;:",
",,<%446664444434343334443443334344443444444644460666666666444433433344333444444464606060000000666644666464434604433344406640<7>>",
"<><%4664644664444434434333444344&443444444444444466066466444434434444433434444446666666600660006664666666644606644444666064077:,",
"<>736444443664433333433334444444444444464444433446666666664444444444444433444444666466600066006666646664444440044466466444067677",
",>73466444466444443333333344444364444344466643334444664446446444444444444344444466666660006600664664666644666606636634440440<<,<",
",>7%466666643444433334333344444443344346464433334444444444444446444444444444464666666600006606444464606444446600010644340660<7,<",
",:<%46666666444433333433333366633*333466664443333444444446344444444444444434484746746600606066343444666643436604666644460660<7><",
",:<%466666666444443434333343334444443366666444433444334664444444464644446446644666466660066066444444664663446604464646440460<7,<",
",:<%466666646644444443333333436344646646666444334444333444444444444444644664444606666660600644444444646660666666404644466460<7><",
"<:<%46666446444444333333333%33%3464446666444444333444*4433444443444444440044446666666666666664444444446660000664646666606660<7,<",
"<><%666644444444433333333333%3334443666664443%334444444444444433344433466664444666446666666466464444444600000664466666060600<7,<",
"<,734666444444443333333333%333444444466664443%%34444444466444433344444644444444664466666666346444444466460000066666666660660<7,<",
"<,7%46644444444443333333333%43444444466664443344444644466664444334444444444444466686666646644664444466444000060046006600000077,<",
"<,7%4466644444443334333333*334344664444664433334344466066666444444346446444444446646666606*664444444666446600w00000666600000<7,7",
"<,7%44644444444433333333433333344643446664433434346666606666644444446444444644446464666666466466666446666666000w00000000000077<<",
"<:<%4446444444433333433333433334466446666433333333466660606664444444644444644444644666606646666666666666000000000w000000006076<7",
"<:<%44666464444344443333334333434664444664433333446666666466644444444444444444446444606666444666666666600000000000000000000076,7",
"<:<%666644444443444333%33433333%4463464444344434366646666666646444444444444444446646600666664666666666606000000w00006000060077<7",
",:<34666434*444344333%%33333333344433444644444444444444666666446344444444444446664666666666666666666666066600000060660000660,7,<",
",;<*%43644%366444433%%333334344*4443344444334344466444446666644444444444444444466664660066666666066666666666000006066060006077,<",
",-<343444444464444444343333336436433*646433433333446004466666446446444444444446466646660060666666666666446666006660066606000<7,7",
",-,344444444444443333434333333344644&466644434333444446006644444446444443444444466466460660000606666066446666686666660666600<7,<",
">>7%3344446444464434343333333333444446666444433%4444446446004444444443443346444464676600066000666666666666666646666666666000<7><",
",><%344466444444333334333343334446444666644333333444444444446664644444344344674444466660006066606066666476666666666666606600<7><",
",,73644664464443333433333343344466413666644333334444444444464444666466333444444446466000000066660666664476866686866806666660<7,<",
":<7%4666646644433%3333333334446446664460444333333344444444444434446664434444444664446660000066666064666464666466666666666660<7<<",
",><366666666444433333433333444444666446444433333634444446444443344443444444444666646066600006666666666646666699688666660666078,<",
",:7346664444644343334333334644444664443464433333644444464444444343333333344066446666666000006060666446666666668686666600666076,<",
",>7344666644444433334333346464446666444&46433333344444444444443333334443343344446666660000006666666446666666066666466660000076><",
"<,73466664464443343333333344444466664664464443444440444666444333333333444646444460666060000000666644446660666068666666000000,7:<",
",>74606666666433333334343344446446466666666443333464444464444333344343334646646446660660006006066444466660060641666666000060,7:<",
"<:73666666644443334333443443444446666666664444444434444444444444434343434446664660666600006600666334446660000646666660000000>7,<",
",:7%666644464333333343333443444346666666444444333444444464444434444444434446666666666600600060664444464666004434666666000060<7:<",
",>73466604644433333333333333444444466664444443334344444444444433433343434444646666666060666606644464644666660606466006000000<7:<",
"<>73666664664333333%3333%%33334444444644334433333344464644444433343333433434466606600666646606666666464406660660660066000660<7,<",
",>7%44444443443%33%%%%%%%%333333344333333333343%33333433444433333333334333334444664466446646644444444434446664600w6666666666<7><",
"<-<%%%+++%@@#@#%o#ooo@Xoo@#####@+&+++#@++@+++++++@@+++++@@@@@+@#@###+$####O#%+%%&%%%%%%%%%%%$%%%%%%%$%%+%%%$%%%14%*&&%&%&$%%:6:,",
",-<,,,,,,<>,>,,,,>::>>>>>,,,,,,>,,,,,,>>,,,,,,,,,,,,,,,,,,,,,>,,,,>,,,,,,,:,>,<<<<,,,<<<<<<<><<<,,,,,,,,<,<<<<7<<<<<<,<,,<,,,<-<",
">::,,<,,,,,,,>:::::;:::::::>:>>>>>>>>,>;:>::,,>>>>>>>>>>>>,,,>>>>>>>>:;>>-;>>,><<,,,,,,,<<<<,,,,>,,,>,,,,,<<78<<<<<<<<<<7<,,>>,>",
"97899999998999888777777778788888887<888877788886868888889978989878888887,8888889999999999999999989999989999w8999qqqqqqqq999998<7",
"7,798999999788777<<<,<<<<777777777778888879777777777887888877777777777<>><7778889989999999999998889999879qqq899qqqq99qq9898876<8",
",,7,qsdpsawaawwqsaaiiiuiaqwaaaaassssssipaqwwawaasiiippppsssssawaaiissww68wawawawsdpipppfsawasaswspppdpdddssassswsppppfdssdd8,7><",
"<>7,7786t7,77>,>:,45er,2r1>,<,,77787rrtr4<7>,<,<<745r6r8697777,,,<<<,*5r4<<<<<,7,8trrt0yt5777,<<<4r88tryy0<<888<76tttt099778,7><",
"<:7<<577577<<,,:,:*2>,1555*;,:<<<774errr544>>,,,>,<788777777<<>,,,<5*125451>>::,<<2rrrrrtr8<,,<,,,4555tttr5,7<<7,,5ttrt88877<<><",
",>7,4555r57<><::,>;,,**555e*>,,7777745e7411::>>,>,<76577677<<,>><7>1*53425e1>,>8>,>2ttrtrrt2,,,>>:>3yr5rtyt0,8,,,<,4rrr88r99,7><",
"<:7><rr5e547<:::,:>:*51*5255*>,777<,<251<2**1->>><,<75447677<<>,<<,:*212<5e547,7,,,>4tttrrrr4::>>>,>1rrrr90t5<,<,<,<4rr5r57r,7,<",
"<>7>,<5ee77744>>,,,;;**#e5*55<<77<<<<251<*,11$-:,>,<776<777<7<,,,,>:;>1$*155r*:787<7>4tttrr6t<,:><:>:<5rrrrtt5,<,7,<<4t5trtr,7><",
",:7,,,15e755553>,>:;;:%:2212553<7<<,<,<r2>,<31$-->777747764<<7<,<::-:-%*2552*14<887<<,8ttttr55<<>,>>::46609ttt8>,,>,<<6rrrrt<<><",
",><:;::16rr5eee1,:;;:>:;555=555<7<8:,7,411:<,*1$:;><<77<4r52<5e4<>:;:--*552212r5<7<,,>86ttrrttr<:,:>,,>4ttttttt2,,<,,<,8trt6,7:<",
"<><:,>>7<r5rre55,:;;>>>,<35rr5<677<>,<>,,**,1125*;,,<7<:*55r5552:;:,-;-:*5r*5r5r777>>><<5rrrtr5r1>,7<,>,6ttrrttr78,7<,,,5ttt,7:<",
",>7:;>><,35<75ee5*::::;:,,3<5<4q7<<:<>,>,**2225251,<,::,,,54r5514>>:<>:>;*14555rr6:><,>,<4tttr55r7,<><>,,2trrtttr4,,,,,<,4tt,7><",
",>7><:7<,,,<<2255r1>>,:;:,<5<5r2<47<,<:><:375e5e551,:,>>>:555e522*$-;::>>,*4ee5rr6<,,>><><9trr75r67,>,,<<,5rtrr6rr1,,,,,<<6t<7><",
",,<>>::,:7:,2555525*:,-;::,<2re55541,<><<::<5ee25453,,7>:,<<224,55r1;:::>>:,45rrrr74,<,<>,,4rr5r5rr7<,<,<7,4ttttrrr5,,7,,,86<7><",
"<,7>1>::<<,,*r5,5525,,,-;-:<12224e5e<<::7,<:3521<<5r7:<<:<,,1*1142243::;::::455rtrrr4,>,>:>:4rr555r54:>>79>>4trttrrr77<,,8<<<7,<",
",:7<54:;;:;;;$21*1*21*;--;-:<:2,22255<;:,;;;-%,153<241;::,:-;*12**=1=*-----;-*55eerrr4:>;:>:;*55525553,:,,:,<45rrr5rr<<<7<<:,<:,",
"<-,-;>,:;--..-.----.-...--... .  .-;-:-----.------------;;- ..--.-..-  . .. ..----;::::----------------;;;:::::::;:::;:>::>;:7->",
">;,<<,,<<<,<,>,,,,,,>>,<,,>,:,,>:,,,,,<,,,,,,,,,<,<<,,<,>::::,,<>>,,:-:,::,>:>,><><<<,<,<,,,<,,,,,,,<,,,,<<<<<<<<<<<<<<<<,<<,<-,"
};
