/* XPM */
static char *_644319755313[] = {
/* columns rows colors chars-per-pixel */
"150 48 253 2 ",
"   c #010302",
".  c #010802",
"X  c #020608",
"o  c #0B060A",
"O  c #030C0E",
"+  c #0A0C0C",
"@  c #0C0404",
"#  c #110609",
"$  c #140A0B",
"%  c #150809",
"&  c #04100F",
"*  c #060E10",
"=  c #090F11",
"-  c #041216",
";  c #091416",
":  c #051419",
">  c #081519",
",  c #071A1F",
"<  c #171313",
"1  c #1C0C13",
"2  c #291218",
"3  c #391516",
"4  c #290A10",
"5  c #0C1D25",
"6  c #0C1F29",
"7  c #071B20",
"8  c #101F25",
"9  c #2C1826",
"0  c #0C222C",
"q  c #0E2027",
"w  c #12242C",
"e  c #14242A",
"r  c #0C2632",
"t  c #0C2936",
"y  c #0D2C39",
"u  c #112634",
"i  c #132935",
"p  c #1A2D35",
"a  c #16273B",
"s  c #162A3D",
"d  c #1B2D3B",
"f  c #182635",
"g  c #16313B",
"h  c #1D333B",
"j  c #1B3236",
"k  c #21343B",
"l  c #2D2934",
"z  c #481A18",
"x  c #571E18",
"c  c #55231D",
"v  c #4D231B",
"b  c #4D1C2E",
"n  c #6E1E2A",
"m  c #5A2638",
"M  c #542F30",
"N  c #6D272B",
"B  c #78272A",
"V  c #6C2A35",
"C  c #642A3B",
"Z  c #682938",
"A  c #772C35",
"S  c #783437",
"D  c #7E332E",
"F  c #6A2619",
"G  c #484C3C",
"H  c #1A2E44",
"J  c #162D44",
"K  c #1B3146",
"L  c #1E3A43",
"P  c #1B334C",
"I  c #163347",
"U  c #1B3552",
"Y  c #1B3954",
"T  c #1B3659",
"R  c #162F52",
"E  c #213C45",
"W  c #233E49",
"Q  c #253749",
"!  c #243953",
"~  c #312E43",
"^  c #1D3966",
"/  c #1D3D72",
"(  c #223F67",
")  c #4A2445",
"_  c #403B44",
"`  c #642B42",
"'  c #234444",
"]  c #23454E",
"[  c #2B434B",
"{  c #294047",
"}  c #244751",
"|  c #254953",
" . c #284A5B",
".. c #394F53",
"X. c #3A5054",
"o. c #354A4D",
"O. c #274866",
"+. c #2F536D",
"@. c #2E596B",
"#. c #2A5163",
"$. c #30536D",
"%. c #274777",
"&. c #2E5674",
"*. c #315571",
"=. c #375973",
"-. c #1F4178",
";. c #4D554C",
":. c #744B4F",
">. c #77716B",
",. c #5F6360",
"<. c #22403F",
"1. c #862B2C",
"2. c #962C29",
"3. c #8C312B",
"4. c #893025",
"5. c #94332C",
"6. c #9B352C",
"7. c #9B3728",
"8. c #842D34",
"9. c #863536",
"0. c #993A34",
"q. c #942F31",
"w. c #A4382C",
"e. c #A43931",
"r. c #B43E2F",
"t. c #9D2E1F",
"y. c #934437",
"u. c #A74429",
"i. c #A84735",
"p. c #B54A37",
"a. c #B95437",
"s. c #B25133",
"d. c #B1613B",
"f. c #C05335",
"g. c #C26B3F",
"h. c #8C3D41",
"j. c #9A4C45",
"k. c #90504A",
"l. c #A74A44",
"z. c #B34D45",
"x. c #B95847",
"c. c #AD594C",
"v. c #8F695B",
"b. c #B76849",
"n. c #B06952",
"m. c #B17973",
"M. c #956163",
"N. c #C45842",
"B. c #C2674A",
"V. c #C6774A",
"C. c #C56958",
"Z. c #CD7355",
"A. c #C87466",
"S. c #CD7571",
"D. c #B78A48",
"F. c #BB9851",
"G. c #90886F",
"H. c #BA8867",
"J. c #CC874A",
"K. c #D89947",
"L. c #C88757",
"P. c #D78E58",
"I. c #D79456",
"U. c #D68D49",
"Y. c #DAA649",
"T. c #DBA658",
"R. c #DDB454",
"E. c #DFBA5A",
"W. c #DCB34F",
"Q. c #E0B95F",
"!. c #D48F6E",
"~. c #EB9C6A",
"^. c #DBA665",
"/. c #D0AC71",
"(. c #E3BA67",
"). c #E5B374",
"_. c #E19259",
"`. c #E3C35D",
"'. c #E7C76A",
"]. c #E7C878",
"[. c #EBD277",
"{. c #2D538C",
"}. c #386C90",
"|. c #3A67AC",
" X c #305AA6",
".X c #476FBB",
"XX c #3D75D5",
"oX c #4477C9",
"OX c #BB7F88",
"+X c #4F8789",
"@X c #4A8A8D",
"#X c #42878D",
"$X c #528689",
"%X c #528B8D",
"&X c #58858A",
"*X c #5094CF",
"=X c #59A9CE",
"-X c #55A3CD",
";X c #5BADD4",
":X c #54A2D1",
">X c #5DB0D8",
",X c #61A8CC",
"<X c #6DB5D2",
"1X c #69AFCE",
"2X c #549EE3",
"3X c #70CDE3",
"4X c #3C8388",
"5X c #909285",
"6X c #B58A8A",
"7X c #DD9595",
"8X c #D88F88",
"9X c #E69992",
"0X c #CCB892",
"qX c #E7B88A",
"wX c #CABBAA",
"eX c #E59BA4",
"rX c #E8CB86",
"tX c #EBD384",
"yX c #ECD68C",
"uX c #EDD899",
"iX c #EFD695",
"pX c #F0E19A",
"aX c #D6CBB1",
"sX c #EED9A4",
"dX c #F1DCA7",
"fX c #E9D6BA",
"gX c #F2DDBB",
"hX c #E7C9B2",
"jX c #F2E3AA",
"kX c #F2E3B4",
"lX c #F5E8BB",
"zX c #F2E7BA",
"xX c #DAC185",
"cX c #B9D7DF",
"vX c #99DDE8",
"bX c #81D7E3",
"nX c #A7DBE7",
"mX c #BADDE4",
"MX c #B6DBE4",
"NX c #BEE3EA",
"BX c #B7E1E9",
"VX c #A8E0EC",
"CX c #9EE0EC",
"ZX c #F2DFC2",
"AX c #F3E3C5",
"SX c #F3E3CA",
"DX c #F8EAC9",
"FX c #F7EBD1",
"GX c #CBDAE3",
"HX c #D0DCE5",
"JX c #C0E6EB",
"KX c #C8D6DF",
"LX c None",
/* pixels */
"LXLXLXLXLXLXLXLXLXLXLXLXLXLXLXLXLXLXLXLXLXLXLXLXLXLXLXLXLXLXLXLXLXLXLXLXLXLXLXLXLXLXLXLXLXLXLXLXLXLXLXLXLXLXLXLXLXLXLXLXLXLXLXLXLXLXLXLXLXLXLXLXLXLXLXLXLXLXLXLXLXLXLXLXLXLXLXLXLXLXLXLXLXLXLXLXLXLXLXLXLXLXLXLXLXLXLXLXLXLXLXLXLXLXLXLXLXLXLXLXLXLXLXLXLXLXLXLXLXLXLXLXLXLXLXLXLXLXLXLXLXLXLXLXLXLXLXLXLXLX",
"LXLXLXLXLXLXLXLXLXLXLXLXLXLXLXLXLXLXLXLXLXLXLXLXLXLXLXLXLXLXLXLXLXLXLXLXLXLXLXLXLXLXLXLXLXLXLXLXLXLXLXLXLXLXLXLXLXLXLXLXLXLXLXLXLXLXLXLXLXLXLXLXLXLXLXLXLXLXLXLXLXLXLXLXLXLXLXLXLXLXLXLXLXLXLXLXLXLXLXLXLXLXLXLXLXLXLXLXLXLXLXLXLXLXLXLXLXLXLXLXLXLXLXLXLXLXLXLXLXLXLXLXLXLXLXLXLXLXLXLXLXLXLXLXLXLXLXLXLXLX",
"LXLXLXLXLXLXLXLXLXLXLXLXLXLXLXLXLXLXLXLXLXLXLXLXLXLXLXLXLXLXLXLXLXLXLXLXLXLXLXLXLXLXLXLXLXLXLXLXLXLXLXLXLXLXLXLXLXLXLXLXLXLXLXLXLXLXLXLXLXLXLXLXLXLXLXLXLXLXLXLXLXLXLXLXLXLXLXLXLXLXLXLXLXLXLXLXLXLXLXLXLXLXLXLXLXLXLXLXLXLXLXLXLXLXLXLXLXLXLXLXLXLXLXLXLXLXLXLXLXLXLXLXLXLXLXLXLXLXLXLXLXLXLXLXLXLXLXLXLXLX",
"LXLXLXLXLXLXLXLXLXLXLX> ; ; ; ; ; ; ; ; > > , , > > > > > > > > ; ; ; , , ; ; ; > > > , > > , 7 ; ; , ; ; > , ; > , ; , ; , ; , , ; , ; > , > > > > > 5 , ; , ; > > ; ; > > > ; > ; ; ; ; ; ; - ; ; ; ; ; > ; ; ; ; ; ; ; ; ; ; ; ; ; ; ; ; ; ; ; ; ; ; ; ; > ; > > < < , > > > > 7 LXLXLXLXLXLXLXLXLXLXLXLX",
"LXLXLXLXLXLXLXLXLX= ^ {.&.}.#X}.#X#X4X#X#X#X#X#X#X#X#X#X@X@X@X@X@X@X@X@X@X@X%X%X%X%X%X%X%X%X%X%X%X%X%X%X%X%X%X%X%X%X%X%X%X%X%X%X%X%X%X%X%X%X%X%X%X%X%X%X%X$X$X%X+X+X+X+X+X+X+X+X%X+X$X+X+X%X+X$X+X+X+X+X+X+X+X+X+X+X+X+X+X+X$X+X&X%X$X$X$X&X$X$X$X$X&X&X&X&X&X&X}.&X&X&X}.@X}.}.}.%.: LXLXLXLXLXLXLXLXLXLXLX",
"LXLXLXLXLXLXLXLX* / XX2X:X3X3XbXnXvXvXvXvXvXvXbXCXCXCXbXCXnXnXvXnXnXVXnXVXBXnXMXBXBXVXMXBXBXnXMXNXMXmXMXBXJXmXmXNXNXNXmXJXBXJXBXmXJXJXJXmXJXBXNXJXmXNXNXmXmXJXNXNXNXcXNXcXcXMXGXcXmXmXcXcXcXmXmXmXcXcXcXmXMXmXMXmXcXmXmXMXmXKXKXmXGXcXGXKXKXGXGXHXHXHXHXHXHXHXHXHXHXHXHXNXvXbX3X2X*X{.7 LXLXLXLXLXLXLXLXLXLX",
"LXLXLXLXLXLXLX; / XXoX|.{.{.{.}.|.*X*X:X:X:X:X:X;X-X:X*X:X:X-X:X:X:X*X,X:X:X:X=X;X=X;X>X>X;X;X;X>X;X;X>X;X;X;X>X;X>X>X;X;X;X>X;X>X;X>X>X;X>X;X>X>X>X>X;X;X;X=X;X=X=X=X=X;X;X,X=X;X;X=X=X=X=X=X;X=X=X;X-X=X=X-X=X-X,X,X,X=X,X=X,X,X,X,X,X,X=X1X<X1X1X1X1X<X<X<X<X1X<X,X*X.X.X|.}.oXoXoX-.7 LXLXLXLXLXLXLXLXLX",
"LXLXLXLXLXLX; T |.{.| K p p d d j L I | | #. .O.#.#.#.#. .#. .O.#.#.#.#.#.$.#.#.#.#.#.#.+.+.+.+.+.+.&.+.+.+.*.*.+.+.*.*.*.*.*.*.*.*.*.*.*.*.*.*.*.*.*.*.*.$.$.$.$.$.$.$.$.@.$.$.#.$.$.$.#.*.+.#.$.#.$.+.#.@.@.@.@.@.@.@.@.@.@.@.$.@.@.@.@.@.@.#.@.=.@.=.=.=.=.=.=.$.! W Q Q H H U (  X.X/ 7 LXLXLXLXLXLXLXLX",
"LXLXLXLXLX; R  X%.Q f w 8 8 8 f e e e j h k ' ' <.' ' ' ' ' ' ' ' ' ' ' ' ' ' ' } } } } } | } } | | } | } } } } } } | } | } | | | | | | | } |  .| | | | | | | } | | | | | } ] ] ] ] ] [ } } ] [ } } ] ] ] ] } } } ] ] ] ] ] ] ] ] } } [ ] ] ] ] [ [ o.[ [ o.! ! Q d d d p f f f f a U {. X^ 7 LXLXLXLXLXLXLX",
"LXLXLXLX; R {.%.d 8 8 8 5 8 8 8 e e e e p p j k g L E k h ' E E E E E E E W E E L E L W L W L ' L W W L { E L ] W W W W W W W W W ] W W W W ] W ] { ] W W W W E W L W L E E E W W W ' E E E E E E E E E E E E E L ' E E E E E L E E L E E E E E ! W W Q ! Q d k p f w w w w 6 f 6 w w H %.{.R - LXLXLXLXLXLX",
"LXLXLX> a -.%.H 8 5 5 5 5 5 5 8 8 8 8 8 e e f p g h h E L L h E Q E E Q E E E k E L E E W E E E L ] E L Q E W ' W W W E W W W E E W W W W W W W W W W W L W W E ' ..X. .X...X...X.X...............o.o.o.k E E E E E E E E E E E L L <.E L E E E E E Q Q K s p p e f e e w 6 6 8 6 8 6 u R %.{.R 7 LXLXLXLXLX",
"LXLXLX* ^ %.U 6 8 5 5 5 5 5 8 8 8 q e 8 ,.AXAXAXAXFXDXgXZXhXfXfXDXDXZXSXAXAXZX0X;.L L E L L E E E L >.SXSXDX0X;.L L E E ' L E W W E L W W W W W L W W L W E E o.G.uXAXZXAXFXDXDXZXfXfXsXlXkXgXZXAXZXZX/.;.E E E L L E L L E >.SXAXDXwX;.L E E E k k j d p >.SXZXgX0XG e 6 w 6 8 8 6 6 6 u T %./ : LXLXLXLXLX",
"LXLXLX- T ( J 6 5 5 5 1 6 5 8 8 e e 8 G.jXzXSXSXDX).d.c.9.A V V v.0XDXSXAXAXDX).l.l [ ' E L E E L 5XjXkXAXSXiXZ.~ [ W L W E W E E W W E W ] E W E W W ' E E E 5XZXuXkXSXDXrXb.c.y.B N S v.0XlXdXAXAXkX(.k.M ' E E E k { k 5XdXAXAXSXuXL._ k k h j y p p G.dXSXSXDX].c.l 8 w 6 6 w 6 8 6 0 J ( ( : LXLXLXLXLX",
"LXLXLX- T ! u 6 5 5 5 5 5 5 8 8 e e q AXSXkXZXFX/.f.M   X o @ o . 3 qXDXAXDXiXb.8.3 j L E L h L E SXSXkXSXlX^.l.z k L E E L L E L E W L L W L W L W L L L W L wXSXgXyXzX/.a.v   @ @ @     v hXlXsXSXuXB.A < l E E E W E { AXZXlXSXlX^.z.z p j g j p p p SXAXAXSXuXZ.8.3 8 6 6 8 6 6 6 8 6 a ^ ( : LXLXLXLXLX",
"LXLXLX: T T a 6 5 5 5 5 5 6 w l p e q gXAXAXSXlXu.z.M . , q q q p l P.dXAXDXqXq.3.1 . E L L L L L gXAXAXSXlXb.2.z X L L L L L E E L L L W L ' L L W L E E E W wXAXSXuX[.c.p.M   k l k j k ;.L.kXsX[.xX0.4.o X E { [ { { { lXAXkXAXlXb.2.z + k h j k j k zXAXzXFXrXe.2.1 X w 6 6 6 5 6 5 0 a T ^ : 7 LXLXLXLX",
"LXLXLX> R T u 6 5 5 5 5 6 6 w f e q q (.tXlXAXuX7.w.z   q q q e w w Y.uXlXlX/.2.5.$   h h L L <.L (.uXAXkXuXi.0.z   L h L L L L L L E L L L L L L L E L E ' ] L.tXAXSX].7.e.z . k W W W [ ' D.uXfX[.J.q.4.$ . { [ [ o.W { (.iXSXAXkXz.e.z   d p p p p p (.dXkXlXI.2.6.% X 6 6 6 6 6 6 6 6 u Y ^ : 7 LXLXLXLX",
"LXLXLX: R U u 0 6 7 6 6 6 6 w 0 e q q K.W.sXpX].5.0.z   6 6 q q 0 0 Y.].sXtXJ.2.5.$   g h h L h h Y.(.dXyX'.7.w.z . L L L h L L L L L L L L L L L L L L L E E D.W.uXFXrX7.e.3   k ' ' { { { D.].DXpXV.2.5.# . k k k k j p Y.'.gXjXyXu.e.z   w w i e 0 r Y.].jXyXJ.2.6.1   0 6 6 6 6 6 6 0 r U T : : LXLXLXLX",
"LXLXLX> P U u 0 6 6 7 6 6 5 5 0 q q 5 K.Y.uXtXR.e.r.z   6 6 q q 7 0 K.E.sX`.L.w.w.$   i u i i y g K.E.sXtXT.e.r.z . h L L I L L L L L L L L L L ' L L I L L L F.R.].FXxX7.w.z   k ' Q E ' k D.R.dXzXA.t.7.% . w p i i u w K.W.rXyX].7.r.z   e 0 0 0 q 0 Y.T.sX[.J.7.u.$   0 0 0 0 6 6 6 q a U T > : LXLXLXLX",
"LXLXLX> U U i 0 6 6 6 6 6 q q 0 0 q q K.Y.yXuXT.p.f.c   6 6 6 6 q q Y.E.uX'.J.p.s.%   w 0 t t r u K.W.uXdXT.r.p.v   <.h L L h ' L L L L W L L W L L L L L L h D.R.(.DXrXu.f.z   h h h h j j D.W.sXzXA.u.u.#   0 i e 0 e 0 K.Y.yXiX(.s.a.c   6 0 q q 0 0 Y.R.uXtXU.p.B.4   q 0 6 0 6 6 0 0 i Y T - , LXLXLXLX",
"LXLXLX> R U s 0 0 r 0 r 0 0 6 0 7 0 q U.W.].jXQ.s.a.c   6 0 6 q q q Y.E.uXyXI.A.A.1   0 0 0 0 0 r K.E.yXjX(.f.Z.c   i i y y j y s g g g g g g g g g g j p g g D.E.E.yXtXs.s.z   e i i u i w F.E.tXpXJ.s.c.$   q 0 q q 0 0 Y.`.rXpX].s.f.c   0 0 0 q 0 0 E.W.yXpXI.A.A.<   0 0 r r 0 r 0 r y Y Y : , LXLXLXLX",
"LXLXLX> R Y y 0 r 0 0 r r 0 r 0 r 0 0 W.E.].jX].u.p.3 < 0 6 0 7 0 0 [.[.pXjX~.P.P.<   q 0 r 0 0 0 R.'.'.lX].B.9X`   0 i r r r r t r r r r r t i t r t r t r t F.].].].yXV.w.3   q 0 e 0 0 0 /.'.].yXI.S.8X+   5 0 0 0 q 0 ).P.^.lXiXg.r.3 < 0 6 0 6 0 6 rX'.pXpX^._.I.2   r r r r r r 0 r t R Y : , LXLXLXLX",
"LXLXLX: R Y g t r 0 r r r r r r r r r ].yXtXjXuXB.2.4 G 0 6 0 0 0 0 xXv.y.j.` y.b.%   q q q 0 0 0 [.yX].jXrX!.9XG @ q 0 0 0 0 0 0 0 0 r t 0 r w 0 r r r r 0 r /.uX].].yXV.2.4 G k 7 0 q 0 r 0XxX].yX^.8XL.$ X 5 q q q 0 0 :.b ` :.k.n.x.4 G 0 q r 0 r 6 rXn.:.:.S y.b.1   r r r r r r r t y Y T - : LXLXLXLX",
"LXLXLX> U Y J t t r t r r r t r r r r ].].tXSXjX_.A.c.d.0XaXwXwX6Xv.Z 8.r.w.6.8.z X   0 0 6 0 6 q rXiXiXkXtXI.~.M   0 0 0 0 0 0 0 0 0 0 0 0 0 0 0 0 0 0 q 0 0 /.yXtXyXzX).Z.p.!.G.>.>.>.G.G.uXyXyXFX(.P.L.$ X 7 0 0 0 0 0 l ) S 2.1.8.y.^.aXaXaXaXaXaXaXc.A 4.2.8.8.z X   r r t r t r r r s U T - , LXLXLXLX",
"LXLXLX- R U J t t r r t t t t r r t r K.I.^.[.).Z.b.k.N A 9.S S 9.B 3.7.7.7.7.c + o   0 0 r 0 0 0 Y.W.tXFXsXK.~.M   0 0 0 0 0 0 0 0 0 0 0 0 0 0 0 0 0 0 0 0 r D.Y.R.yXuXL.c.k.N y.y.y.:.M S c.B.].sX(.U.L.$   0 0 0 0 0 0 q m N 4.1.3.n M.FXFXAXAXAXuXm.N 4.4.B 1.c + o . r t t t r r r t J Y Y - > LXLXLXLX",
"LXLXLX- P Y I y t t t y t t t t t t t !.A.n.P.c.3.A 1 X # # # # o $ $ o o $ @ X X X 7 r 0 0 r 0 r P.P.T.AXrXP.~.M . i r r r r r r 0 r r r r r r r r r 0 r 0 r n.!.Z.U.U.9.n 1   # @ @ @ X 1 Z 1.V.I.V.!.L.$ . q 0 r 0 0 r 0 0 2 o o o   9 c.iXDXAXxXB.b . o o o + . + . q t t t y r y y y y Y T - , LXLXLXLX",
"LXLXLX: R Y g y y y t i y y y t t t t l.w.5.i.V 8.9.2   = O O O O O O & O O & O * r r r r r r r 0 b.C.!.(.U.A.9XM   r r r 0 0 r r r r 0 0 r r r r q 0 r r r r j.c.w.6.i.A q.2 X = : : ; < l A 0.e.b.0.C.S.<   0 r 0 r r 0 r r 0 - & O 9 m B i.!.V.y.q.N   O & O & & & y y t y t t y y y y I Y T - : LXLXLXLX",
"LXLXLX; R Y J y y y y y y y t t t y y 2.e.z.e.Z A e.z   t r t t r r t t r t t r r r r t r r r r r 6.2.p.Z.c.2.p.z X r r r r r r t t r r r r r r r r r t r r r B w.p.5.1.B 6.3 X 0 r r r r r B i.6.7.A 2.7.o   0 r r r r r r 0 r 0 0 r r b 7.e.2.5.A 0.F   5 t t t t t y y y t y y y y y y I Y Y - - LXLXLXLX",
"LXLXLX- P Y g y i y y y y y t t t y t r.x.p.6.V C S 3 X t r t t t t t t r r r t r r r r r r r r r p.B.A.z.1.Z 8.3   r t r t r t r r r t r r t r t r t r r r r j.A.C.u.3.C A 4   0 t r r r r j.C.i.w.A Z N o . r r r r r r r r r r r r r M b.f.8.Z C A m X 7 t t t y y y y y y y y y y y y y Y Y - - LXLXLXLX",
"LXLXLX- P Y y y i y y y y t y t t t t S.8Xx.2.A m C 2   t t t t t t t t t t t t t r t t t t t t r !.9XA.p.9.m ` 9   r r r r t t t t t t t t t t r t t t r t r OX9X8XN.5.m C 2   r t t r t t m.7Xs.7.C ` m @   0 t t r r r r r 0 r t r r :.7XS.8.C m C b   6 t t t y y y y y y y y y y y y I Y Y - - LXLXLXLX",
"LXLXLX; U Y g y t t t y t t i y i y t eX7Xi.A V C ` 9   y y t t J t t t t t t t t t t t t t t t t 9X8XS.p.0.m ` 2   t t t t t t r t t t t t t t t t t t t t t m.!.7XS.0.m ` 2   0 t t t t t OX7XS.w.V m m   X r t t t t t t t t t t r t ,.8X!.6.S m ` b X 7 t t y y t y y y y y y y y y y g P P - > LXLXLXLX",
"LXLXLX> P Y g g i y t i i y i p i i t 7XC.p.A C C ` 9   t y y y t t t t J t t t t t t t t t t t t 7X7X8Xw.8.` ` 2   t t t t t t t fXAXSXzX).:.i t t t t t t t OX7X7XeXj.m ` 2   r t t t t t OX7X8Xp.N m m o   r t t t t t t t t t r t t ,.eX8Xj.V C C b . q t t y y y y y y g y y y y y y g P P - > LXLXLXLX",
"LXLXLX; R Y g j p i i y i i p g g s i z.w.0.A S V C 2 . y t t t t t t t t t t t t t t t t t t t J c.p.c.0.V m ` 2 ; r r r t t y G.FXFXzX/.n.` l t t t y t t t M.b.C.S.y.N C 2   r t t t t t k.l.l.w.B C m o . r y t t t t y t t t t t t :.N.n.9.C V Z b X 7 t t y y y y y y y y g y y y t s U P ; - LXLXLXLX",
"LXLXLX; I Y L j j p p u i p p j j p i B m m 6.w.3.8.9   t y y t t t t t t t y y t t t t t t t t r B m C q.0.1.Z 4 ;.r t y t t y qXH.c.x.q.N C o 7 t y t t y t n Z m B z.5.1.2   r y y y t t b C N e.p.1.N @ X r r t t t t t t y t y t t M N m A A 5.8.c X 5 r r t i y t i y y t i i y t i s U ! ; - LXLXLXLX",
"LXLXLX- R Y P k h p i i t i i p j p i ) ) 9.p.p.r.5.%   t y t y t t t t t t t y t y t y t t t t r ) ) S p.N.C.0.A n.,.,.,.,.;.o.S 1.e.N.x.r.c X X y t t t t t ) ) m 6.S.S.2.# X t t t y t t ) ) A x.8Xf.x X   r y y t t t y t t t t t t d ) Z e.5.e.r.3 X 5 r r r r t t t y t i t t i t r J W Q = ; LXLXLXLX",
"LXLXLX, s Y ! k d i u t i u t p p i i p m N u.p.4.4 X . t t t t t t t t y t y y t t t t t t t t t d b N w.s.n.A.n.i.y.i.i.i.y.B 3.i.i.n.A.F % o . t t r y t t d b m 4.A.m.3   o r t t t t y l 9 N i.8X:.@ X o r y t r t t t t t t t t t t m N 5.1.3.z X o 7 r r r u r r t t r r t u t u a L ! d = - LXLXLXLX",
"LXLXLXLX- s ! P d u w w w 0 r w f i w u l z o $ o X $ , t t r r t t t t r y r r t t t t t t r t r r l z $ $ # $ 8 < $ + # # % $ $ $ # $ # X X @ 7 r t t r t r r l o @ < @ X @ 5 r r r r t r u f @ o o     @ 5 r r r y r t t r t r t r r r r c % # o X o   r 0 r 0 r w u 0 w u 0 w r r i H P a = + = LXLXLXLX",
"LXLXLXLXLX> J ! K f u w w 0 0 i w w i w u 6 X X . . 6 r r r r r t t r r r r r r r r r r t r r r r r 0 8   X     @                     .   . . 5 r t r r r r r r r 7 - = * = 5 r r r r r r r r r 5 = = = = 5 6 u r r r r r r r r r r r 0 r r r 5     . = 0 0 0 0 6 w 0 6 6 w 0 w 0 r i H P a O O = O LXLXLXLX",
"LXLXLXLXLXLX> s ! H a w 0 0 w w f f w w w 6 6 0 r w r r r r r r r t r r r r u r r u r r r r r 0 r r r r 0 6 r 0 0 u 0 r 0 r r r 0 t 0 r r r r u r r u r r r r u r 0 r 0 6 r r r r r r r r r r r r r 0 r r r r r r r r r r u r r r u u r r 0 w 0 0 0 w 6 w 0 0 w 6 6 6 u w 6 6 0 w f H U s ; O * O X LXLXLXLX",
"LXLXLXLXLXLXq > s ! H H a u p p l k d a f u f u i a u u u a u a r a t a a a r t a r r i a t r r i u u u u r u u u u u r i u u i a r i i i y t a t a u i t a a t a t u i t a r a a t a a t a r a a u u i i a u u t a a i u a i t u u u r u u u u f u u u w u w u w f f w u 6 u u a H P a = O O O X X LXLXLXLX",
"LXLXLXLXLXLXLX5 ; a ! P P P Q Q ! ! Q Q H H H H H H K K H H H H J J K H H H H H K K H H J H K J J H H H H H J J H H H H K H H H J H H I H H H K H K K H K H K H K H K K K K K I H K K J K K K J K K K K P H P H H K J J H H K J H H H H H H H H K H d H J d H s H d J H H H H H P H a = O = O X X LXLXLXLXLX",
"LXLXLXLXLXLXLXLX5 ; f d d d H H H K H s s a J a a J a J J a a J a J a J a J a J J a J a a a a J a a a a a a a a a a a a s a a a s s a J a a J a J a J a s J J a J a J a J a J a a J a a J a J a J a s J a J a a J a s J a s s a J s a a a a a a p a a a a a a u a a u a a a a f a w = O * O O X LXLXLXLXLXLX",
"LXLXLXLXLXLXLXLXLXLX; = = = + # = * # + = = O O O * O * O O * * O O O * O * * * * * * * * * O O * * * O O O * O O * * * = * * * = = * * * * * * * * O * * o * * * * * * O * * = * * * = * = * * O = = + * * = * O = + O * * * = * * * * * * * * = O * * * * O = * * = * O O O O O O O O O X X LXLXLXLXLXLXLX",
"LXLXLXLXLXLXLXLXLXLXLX, ; ; ; - * - - - * - - - - - - - * - - - - - - - - - - - * - - - - - * - - - * : * - - - * : - - : * - - - * : - - - * : - - - : - - - - - - - - - - * - - - - - * - - - - - - : - - : - : * - - - - - - * : * - : * * : * * : * * * * - * * - * - - O - * * O O X X LXLXLXLXLXLXLXLX",
"LXLXLXLXLXLXLXLXLXLXLXLXLXO O O O O O * O O O O O O O O O O * * O O O O O O * * * * O O O O O * O * * * * O O O O * O * * * * * O * * * O O O * O O * * * O O O O O O O O O O * O O * * * * * O O O O O O O O * * * O * O O O * O * O O * * * * * O O O * O O O O O O O + X X O O X X X X LXLXLXLXLXLXLXLXLX",
"LXLXLXLXLXLXLXLXLXLXLXLXLXLXLXLXLXLXLXLXLXLXLXLXLXLXLXLXLXLXLXLXLXLXLXLXLXLXLXLXLXLXLXLXLXLXLXLXLXLXLXLXLXLXLXLXLXLXLXLXLXLXLXLXLXLXLXLXLXLXLXLXLXLXLXLXLXLXLXLXLXLXLXLXLXLXLXLXLXLXLXLXLXLXLXLXLXLXLXLXLXLXLXLXLXLXLXLXLXLXLXLXLXLXLXLXLXLXLXLXLXLXLXLXLXLXLXLXLXLXLXLXLXLXLXLXLXLXLXLXLXLXLXLXLXLXLXLXLXLX",
"LXLXLXLXLXLXLXLXLXLXLXLXLXLXLXLXLXLXLXLXLXLXLXLXLXLXLXLXLXLXLXLXLXLXLXLXLXLXLXLXLXLXLXLXLXLXLXLXLXLXLXLXLXLXLXLXLXLXLXLXLXLXLXLXLXLXLXLXLXLXLXLXLXLXLXLXLXLXLXLXLXLXLXLXLXLXLXLXLXLXLXLXLXLXLXLXLXLXLXLXLXLXLXLXLXLXLXLXLXLXLXLXLXLXLXLXLXLXLXLXLXLXLXLXLXLXLXLXLXLXLXLXLXLXLXLXLXLXLXLXLXLXLXLXLXLXLXLXLXLX",
"LXLXLXLXLXLXLXLXLXLXLXLXLXLXLXLXLXLXLXLXLXLXLXLXLXLXLXLXLXLXLXLXLXLXLXLXLXLXLXLXLXLXLXLXLXLXLXLXLXLXLXLXLXLXLXLXLXLXLXLXLXLXLXLXLXLXLXLXLXLXLXLXLXLXLXLXLXLXLXLXLXLXLXLXLXLXLXLXLXLXLXLXLXLXLXLXLXLXLXLXLXLXLXLXLXLXLXLXLXLXLXLXLXLXLXLXLXLXLXLXLXLXLXLXLXLXLXLXLXLXLXLXLXLXLXLXLXLXLXLXLXLXLXLXLXLXLXLXLXLX",
"LXLXLXLXLXLXLXLXLXLXLXLXLXLXLXLXLXLXLXLXLXLXLXLXLXLXLXLXLXLXLXLXLXLXLXLXLXLXLXLXLXLXLXLXLXLXLXLXLXLXLXLXLXLXLXLXLXLXLXLXLXLXLXLXLXLXLXLXLXLXLXLXLXLXLXLXLXLXLXLXLXLXLXLXLXLXLXLXLXLXLXLXLXLXLXLXLXLXLXLXLXLXLXLXLXLXLXLXLXLXLXLXLXLXLXLXLXLXLXLXLXLXLXLXLXLXLXLXLXLXLXLXLXLXLXLXLXLXLXLXLXLXLXLXLXLXLXLXLXLX"
};
