/* XPM */
static char *_644319747310[] = {
/* columns rows colors chars-per-pixel */
"150 48 256 2 ",
"   c #020506",
".  c #020609",
"X  c #030B0E",
"o  c #0A0C0D",
"O  c #080707",
"+  c #170B0B",
"@  c #060E10",
"#  c #0B0D12",
"$  c #051216",
"%  c #091316",
"&  c #051419",
"*  c #081519",
"=  c #0B191E",
"-  c #06191F",
";  c #1C1313",
":  c #1C1B1B",
">  c #171616",
",  c #13100D",
"<  c #271719",
"1  c #351518",
"2  c #2E0C0F",
"3  c #2B2519",
"4  c #0D1D24",
"5  c #0C1F29",
"6  c #081A20",
"7  c #121E24",
"8  c #171C27",
"9  c #311829",
"0  c #0C222C",
"q  c #0D2027",
"w  c #12242C",
"e  c #16252A",
"r  c #0C2632",
"t  c #0C2935",
"y  c #0D2B39",
"u  c #112633",
"i  c #132934",
"p  c #1B2C34",
"a  c #16273B",
"s  c #162A3D",
"d  c #1B2C3B",
"f  c #1A2732",
"g  c #1C323B",
"h  c #1A3137",
"j  c #282729",
"k  c #372629",
"l  c #292C34",
"z  c #37283B",
"x  c #233234",
"c  c #25363C",
"v  c #353437",
"b  c #2B332F",
"n  c #481918",
"m  c #511716",
"M  c #771A1C",
"N  c #56221A",
"B  c #4D231B",
"V  c #782A1F",
"C  c #67231E",
"Z  c #5A1B2A",
"A  c #491A37",
"S  c #451525",
"D  c #562629",
"F  c #492436",
"G  c #582538",
"H  c #553835",
"J  c #4E312C",
"K  c #672729",
"L  c #792929",
"P  c #662636",
"I  c #782B34",
"U  c #793638",
"Y  c #713631",
"T  c #6C1B22",
"R  c #2D403A",
"E  c #564637",
"W  c #674439",
"Q  c #7D453A",
"!  c #704E33",
"~  c #67663D",
"^  c #1A2E44",
"/  c #162D44",
"(  c #1B3146",
")  c #1E3942",
"_  c #1B334C",
"`  c #163347",
"'  c #1B3552",
"]  c #1B3954",
"[  c #1B3659",
"{  c #162F52",
"}  c #213C45",
"|  c #233E49",
" . c #253749",
".. c #243953",
"X. c #323544",
"o. c #1D3966",
"O. c #1D3D72",
"+. c #223F67",
"@. c #5A2943",
"#. c #473040",
"$. c #692F42",
"%. c #234444",
"&. c #23454E",
"*. c #2C434A",
"=. c #2C4247",
"-. c #36474B",
";. c #244751",
":. c #254953",
">. c #284A5B",
",. c #3B4F52",
"<. c #274866",
"1. c #2F536D",
"2. c #2E596B",
"3. c #2A5163",
"4. c #30536D",
"5. c #2E5674",
"6. c #315571",
"7. c #375973",
"8. c #274777",
"9. c #1F4178",
"0. c #524C4A",
"q. c #774B43",
"w. c #6D4C4A",
"e. c #706651",
"r. c #6A5D62",
"t. c #757569",
"y. c #50605D",
"u. c #8F291F",
"i. c #882C29",
"p. c #982C26",
"a. c #863929",
"s. c #98362B",
"d. c #893535",
"f. c #983935",
"g. c #852E34",
"h. c #A6372A",
"j. c #A8342B",
"k. c #811E1C",
"l. c #904C38",
"z. c #A94737",
"x. c #B64738",
"c. c #B25238",
"v. c #B2653D",
"b. c #C64F33",
"n. c #C46035",
"m. c #963E45",
"M. c #875648",
"N. c #885B56",
"B. c #955754",
"V. c #8E5146",
"C. c #A75548",
"Z. c #BA5546",
"A. c #AE514A",
"S. c #96645C",
"D. c #917452",
"F. c #B86746",
"G. c #BB6957",
"H. c #AF7350",
"J. c #93726A",
"K. c #AB7574",
"L. c #8A5F63",
"P. c #C25B4F",
"I. c #C46956",
"U. c #CA734F",
"Y. c #D07A6A",
"T. c #E07F6E",
"R. c #7B826B",
"E. c #A58656",
"W. c #A88752",
"Q. c #98876B",
"!. c #928B74",
"~. c #AA9967",
"^. c #AD8D72",
"/. c #B2A573",
"(. c #968158",
"). c #D7965A",
"_. c #D38952",
"`. c #DBAC59",
"'. c #D79B75",
"]. c #D58E6C",
"[. c #E8996E",
"{. c #DBB06E",
"}. c #E8A96A",
"|. c #E7BC78",
" X c #E4B36F",
".X c #E6A757",
"XX c #E6C979",
"oX c #E7C86E",
"OX c #BE853F",
"+X c #2D538C",
"@X c #386C90",
"#X c #3A67AC",
"$X c #305AA6",
"%X c #476FBB",
"&X c #3D75D5",
"*X c #4477C9",
"=X c #4F8789",
"-X c #46898D",
";X c #528689",
":X c #528B8D",
">X c #58858A",
",X c #5094CF",
"<X c #59A9CE",
"1X c #55A3CD",
"2X c #5BADD4",
"3X c #54A2D1",
"4X c #5DB0D8",
"5X c #61A8CC",
"6X c #6DB5D2",
"7X c #69AFCE",
"8X c #549EE3",
"9X c #70CDE3",
"0X c #3C8388",
"qX c #939485",
"wX c #AF9B8A",
"eX c #B2A691",
"rX c #B5B2A1",
"tX c #CCB08F",
"yX c #E8B986",
"uX c #E6BB97",
"iX c #C9BDA9",
"pX c #D2BBA5",
"aX c #E29690",
"sX c #E5C887",
"dX c #EAD688",
"fX c #E9C995",
"gX c #EAD997",
"hX c #F2D096",
"jX c #EEE39A",
"kX c #D8CAA8",
"lX c #D1C9AF",
"zX c #EAD8A5",
"xX c #EDD9BB",
"cX c #EFD6AC",
"vX c #EDE3A8",
"bX c #F5E9B7",
"nX c #F1E6B0",
"mX c #D8C593",
"MX c #B9D7DF",
"NX c #99DDE8",
"BX c #81D7E3",
"VX c #A7DBE7",
"CX c #BADDE4",
"ZX c #B6DBE4",
"AX c #BEE3EA",
"SX c #B7E1E9",
"DX c #A8E0EC",
"FX c #9EE0EC",
"GX c #F4E9C9",
"HX c #F9F3CC",
"JX c #FCF7D5",
"KX c #F5EBCB",
"LX c #CBDAE3",
"PX c #D0DCE5",
"IX c #D1E1DC",
"UX c None",
/* pixels */
"UXUXUXUXUXUXUXUXUXUXUXUXUXUXUXUXUXUXUXUXUXUXUXUXUXUXUXUXUXUXUXUXUXUXUXUXUXUXUXUXUXUXUXUXUXUXUXUXUXUXUXUXUXUXUXUXUXUXUXUXUXUXUXUXUXUXUXUXUXUXUXUXUXUXUXUXUXUXUXUXUXUXUXUXUXUXUXUXUXUXUXUXUXUXUXUXUXUXUXUXUXUXUXUXUXUXUXUXUXUXUXUXUXUXUXUXUXUXUXUXUXUXUXUXUXUXUXUXUXUXUXUXUXUXUXUXUXUXUXUXUXUXUXUXUXUXUXUXUXUX",
"UXUXUXUXUXUXUXUXUXUXUXUXUXUXUXUXUXUXUXUXUXUXUXUXUXUXUXUXUXUXUXUXUXUXUXUXUXUXUXUXUXUXUXUXUXUXUXUXUXUXUXUXUXUXUXUXUXUXUXUXUXUXUXUXUXUXUXUXUXUXUXUXUXUXUXUXUXUXUXUXUXUXUXUXUXUXUXUXUXUXUXUXUXUXUXUXUXUXUXUXUXUXUXUXUXUXUXUXUXUXUXUXUXUXUXUXUXUXUXUXUXUXUXUXUXUXUXUXUXUXUXUXUXUXUXUXUXUXUXUXUXUXUXUXUXUXUXUXUXUX",
"UXUXUXUXUXUXUXUXUXUXUXUXUXUXUXUXUXUXUXUXUXUXUXUXUXUXUXUXUXUXUXUXUXUXUXUXUXUXUXUXUXUXUXUXUXUXUXUXUXUXUXUXUXUXUXUXUXUXUXUXUXUXUXUXUXUXUXUXUXUXUXUXUXUXUXUXUXUXUXUXUXUXUXUXUXUXUXUXUXUXUXUXUXUXUXUXUXUXUXUXUXUXUXUXUXUXUXUXUXUXUXUXUXUXUXUXUXUXUXUXUXUXUXUXUXUXUXUXUXUXUXUXUXUXUXUXUXUXUXUXUXUXUXUXUXUXUXUXUXUX",
"UXUXUXUXUXUXUXUXUXUXUX* * * % % % % % % * * - - * * * * * * * * * * * * * * * * * * * * * & * & * * * * * * * * * * * - * * * * = * * * = * * = * * * = * * * * * * * $ * * * * * & % * % & % % % & % * % % & % * % % % % * % * % % * % % * % # * % * % % * % * * * * * * * * * * 6 UXUXUXUXUXUXUXUXUXUXUXUX",
"UXUXUXUXUXUXUXUXUX$ o.+X+X@X0X-X0X-X0X0X-X-X-X-X-X-X-X-X-X-X-X-X:X-X-X:X:X-X:X:X:X:X:X:X:X:X:X:X:X:X:X:X:X:X:X:X:X:X:X:X:X:X:X:X:X:X:X:X:X:X:X:X:X:X:X:X:X:X:X:X=X;X;X=X=X;X;X;X:X=X=X=X=X=X=X=X=X=X=X=X=X=X=X=X=X=X=X=X=X=X>X>X;X;X>X=X>X=X;X;X;X;X>X>X>X;X>X>X>X>X>X>X:X-X@X@X@X8.- UXUXUXUXUXUXUXUXUXUXUX",
"UXUXUXUXUXUXUXUX@ O.&X8X4X6X9XBXVXNXNXNXFXBXNXBXNXFXFXBXFXVXVXVXVXVXDXVXDXZXVXSXDXSXZXSXSXDXZXSXAXCXSXCXSXAXSXSXAXAXAXCXAXSXAXAXSXAXAXAXAXAXAXAXAXAXAXAXCXSXAXCXAXSXMXAXMXCXMXCXMXCXAXMXMXMXAXMXSXMXMXMXCXZXCXMXCXMXCXCXMXCXMXMXCXLXMXLXMXLXLXLXPXPXPXIXPXPXPXPXPXPXPXLXVXNXNX6X8X,X+X6 UXUXUXUXUXUXUXUXUXUX",
"UXUXUXUXUXUXUX% o.&X*X#X+X5.+X@X#X*X1X1X3X3X3X3X3X3X3X1X3X3X1X3X3X3X3X<X3X3X1X2X2X<X2X2X4X2X2X2X2X2X2X2X2X2X2X2X2X4X4X2X2X4X4X2X4X2X4X4X4X2X2X4X4X4X2X2X2X2X<X2X2X<X<X7X<X<X5X<X<X<X<X<X<X<X<X<X<X<X2X1X<X<X1X<X<X5X5X5X5X5X<X5X5X5X5X5X5X5X7X6X7X7X7X6X6X6X6X6X6X6X5X,X%X%X#X#X*X*X*X9.6 UXUXUXUXUXUXUXUXUX",
"UXUXUXUXUXUX& [ #X+X>.` s y d p g ) | >.3.>.>.3.3.3.>.3.<.>.3.3.3.3.3.>.3.4.3.3.3.4.3.3.1.1.1.1.1.1.6.1.6.4.6.4.5.1.1.6.6.6.1.6.6.6.6.6.6.6.6.6.7.4.6.6.6.6.4.4.1.1.1.4.4.2.4.4.1.4.4.1.1.1.1.3.3.1.1.3.1.2.2.2.2.2.2.2.2.4.2.2.1.2.2.2.2.2.3.2.7.4.4.7.7.7.7.7.7.<.....) ) ^ ^ { 8.$X#XO.6 UXUXUXUXUXUXUXUX",
"UXUXUXUXUX* { $X8.{ f 8 w q e w w e e p h %.%.%.%.%.%.%.%.%.%.%.%.%.%.%.%.&.&.%.&.;.;.;.;.:.;.;.:.:.;.:.:.;.:.:.:.:.:.:.:.;.:.:.:.:.:.:.:.>.:.:.:.:.:.:.:.:.:.;.&.;.;.;.*.;.;.;.&.;.*.&.*.&.&.&.;.;.;.&.;.;.&.&.&.&.&.&.%.&.&.;.&.&.&.&.&.&.&.;.*.*.*.*.:.,.>. . .d d p p a u w f a ( +X$Xo.6 UXUXUXUXUXUXUX",
"UXUXUXUX# { +X8.l w 5 5 4 7 7 7 e e e e e p h c ) g c %.g %.} ) ) ) %.} } } } } ) | ) | ) %.) | ) | | ) | %.) | | ) | | %.| | | | | &.| | | | &.| %.&.| | | | | | =.| | | %.| | | | } | | | | } } } } } } } } } } %.} } } } ) } } } } } } } } }  .|  . . . .x d p f w u w w w w w w u { 9.+X{ 6 UXUXUXUXUXUX",
"UXUXUX& a 9.8./ 8 7 4 4 = 7 4 4 = q q e e e r p y g ) g ) ) c ) } c } ) } } ) } ) ) | } | ) } } | ) ) | | ) | | } | | | | | | %.| | | | | | | | | | | | ) | | } | } } | | } } } | } } } } } } } } } } } } } } } } } } } } } } } ) } } } ) } } ) | } }  .x d a p i u u w w 5 8 0 5 8 5 u { 8.+X/ 6 UXUXUXUXUX",
"UXUXUX@ o.8._ u 4 6 4 4 4 4 = 7 7 q 7 q q q e e t h h g ) c ) ) } g } } ) ) ) ) ) ) ) ) | ) } ) ) | ) ) | ) ) ) | ) | ) } | ) | | } ) | | | ) | | | | ) | } } } } } } } } } } } } } } } } } } } } } c } } } } c ) ) } ) } } } } ) ) ) } ) } } ) } h d d s p u u f e w w 8 0 0 4 5 5 5 8 u ] 8.O.& UXUXUXUXUX",
"UXUXUX% [ +.a 5 4 4 4 6 6 4 7 w e q = q q q q e e r r u h h g %.} ) } } g } ) } | ) ) } ) } ) %.) | } } } } | ) ) ) | ) ) | | } } | ) | | | | | | | | ) } } } } } | } } } } } } } } c } } } } } } } } } } } } } } } ) ) ) )  .c } %.} } } } g g h i h y s p f i f w i w w 5 0 5 5 5 4 5 r / O.+.& UXUXUXUXUX",
"UXUXUX$ [ ..a 5 4 4 4 4 4 4 e e e e e q q = 7 q q q e 0 w r i p i ) g g } } g } ) ) ) ) ) ) ) ) ) ) }  .c } ) ) ) ) ) | | ) ) %.) | ) | | ] ) | ) %._  .) | } | |  .=.}  .} } } } } } | | | } } %.} } } }  .} } | -.,.,.*.*.=.| *.:.,.-.X.c c c h h i g c c c c p f e w w w 4 4 4 5 4 5 8 u o.o.& UXUXUXUXUX",
"UXUXUX$ [ [ a 5 4 c !.tXwX^.K.J.J.Q.tXkXlXiXwXJ.! e 5 5 c !.tXwX!.^.J.J.J.iXlXlXiXwXJ.e.=.g ` -.qXtX!.e.=.) ) ) ) ) ,.qXeXJ.e.=.) | -.qXiXiXiXiXlXlXlXiXiXlXpXwXQ.e.-.%.} 0.qXpXwXwX^.J.L.!.iXxXlXpXeXQ.e.-.%.-.y.!.wX!.!.Q.J.t.J.eXrXrXeX!.Q.R.R c } 0.!.^.Q.t.x u i w w 5 5 5 5 5 5 4 0 a [ o.$ 6 UXUXUXUX",
"UXUXUX& { [ r 5 4 t.kXKXJXyXH.w.q.$.E D.hXJXJXsXl.k 5 5 !.kXGXHXuXH.q.W Y H L.kXHXHXgXC.F ) ) !.kXHXGX^.H c ) ) ) ) qXlXJXhXC.k ) | t.KXGXKXJXKXGXGXxXKXJXHXJXJXfXl.H *.%.qXkXGXHXyXH.q.w.Y H Q.xXKXKXhXC.H -.,.qXkXJXJXhXH.q.w.w.E e.kXJXJXgXl.H l } !.kXJXnX^.w.e w w 0 5 5 5 5 5 5 5 0 u [ [ & 6 UXUXUXUX",
"UXUXUX& { ' u 0 5 eXxXvXyXc.N O # $ % 9 $.K.].I.l.+ & q eXxXKXpXc.N O % % * b /.GXxX'.M ; e g rXxXKXfXz.< x ) ) ) ) rXxXGX].V ; e ) J.K.wX'.^.tXvXGXGXnXtX^.^.K.U.h.3 7 %.rXxXKXuXc.N O q e e E tXKXbX].V < e ,.eXxXGXuXz.n O % & % v tXHXxX].M 2 j R wXxXGXfXz.2 k : q 0 q 0 5 5 5 5 5 5 u [ [ $ - UXUXUXUX",
"UXUXUX& { ' u 0 5 ~.hXjX_.p.B   5 8 e p X.n f.s.B   X q ~.zXHX'.u.B   q w p h wXbXxXF.T , o i /.zXJXsXz.1 E ) ) ) g wXGXxXI.M ; @ ) 0.S g.p.T $.'.jXfX).a.i.i.u.a.N O = c /.gXHX}.u.B o c  .=.-.~.vXzXF.M , o R !.gXHX'.u.B O 7 w p x /.bXcXG.T ; , x Q.zXHX'.s.1 , e q 0 0 0 5 q 0 5 5 r u ' [ $ - UXUXUXUX",
"UXUXUX& ' ' i 0 5 D.oXvX_.i.n O q 5 0 0 l 1 n 1   X * 0 W.oXnX).u.m X 0 0 0 0 ~.gXfXv.k.+ o q W.|.nXdX).z.D.y h y g ~.dXgXF.M + % ) =.k n m + 9 _.oX.XU.a.1 n n 2   @ e g W.{.jX_.p.B @ h h h i ~.XXXXc.k.+ o c D.XXjX).p.B o q 0 0 0 /.hXsXv.k.2 ; x (.oXjX_.p.2 3 0 0 0 0 q 0 5 0 5 5 0 u ' [ $ - UXUXUXUX",
"UXUXUX$ ' ' s 0 w D.`.nX'.p.B > q q q 0 0 e $ @ @ & q q D.{.gX_.h.B > q q 0 q E.XXXXn.p.+ $ q E.{.gXdXXXoXOXE e i t ~.XXsXn.u.+ o h i v : 4 z l..XXX).].l.% , > @ % 7 h h W.{.dX_.z.N , e i r 0 ~. X XU.s.+ @ x D.`.dX_.h.N @ e 5 5 5 ~.XXXXn.i.< : x D.{.gX_.h.n j w 0 0 r 0 r r 0 r 0 r y ] ] & & UXUXUXUX",
"UXUXUX& ` ] y r w W.`.jXaXP.D < r r q 0 0 0 q 0 5 0 5 5 W. XgX`.Z.D < q q q 5 ~.XXsXU.C.; O 0 E.{.zXjXdXdX{.v.b i w ~.XXsXU.A.; o r w t r u x ! `.dX{.].V.% q u 0 i r 0 q W.oXdX).z.m 3 w 0 0 5 ~.XXXX[.G.3   j (.oXgX).P.N 3 e q q 0 E.XXXXU.A.3 > x (.{.jX{.c.J 3 e r r r r 0 r r 0 0 r y ] ] & & UXUXUXUX",
"UXUXUX& { ] / t r ~.XXXX}.].W ; r r r r 0 r q r r 0 0 0 ~.oXgXyXT.W : q 5 5 5 ~.dXsX[.Y.< o 0 ~.oXjXnXtXE.`.`.`.R e /.dXsX[.K.2 O r w r 5 r p e.oXdXdX[.M.> 4 0 0 0 0 0 0 ~.oXjX Xp.1 E e e f x /.dX|.U.v.; O x Q.XXgXyX].H 3 e 0 q 0 ~.dXmX}.G.3 > x !.oXdXyXT.W 3 e t r r r r r r r r r y ' [ & & UXUXUXUX",
"UXUXUX* ] ] s t r ~.gXgX|._.H : r r r r r r r r r 0 0 0 ~.fXzXsX_.E > q 0 0 0 ~.jXzX}.H.; O q ~.XXbXfXl.M d.W.XX/.-./.jXgX}.H.; @ 0 0 0 0 0 p ~ XXvXfX}.l.@ w 0 0 0 0 0 r ~.sXbXcXI.H.eXt.t.t.t.mXgX'.c.D   3 p ~.sXvXsX_.W 3 w 0 0 0 ~.jXzX}.H.3 < x ~.dXzXsX].J 3 u t r r r t r r t r y s [ ] & & UXUXUXUX",
"UXUXUX$ ` ] ` t r W.{.dX|._.W ; r r t r r r r r r r r r W..XfX|._.W > r r r 0 E.{.|.[.H.; O r E..XgX'.L Z Z @.~.bXJXGXbXsX}.U.; X 0 0 0 0 0 h ~ ).sXyX.Xl.$ 8 0 0 0 r 0 0 E.).sX{.C.C.G.K.Y.K.L.S.{.}.C.< 1 l x D.`.fXyX_.E ; w r 0 r (.{.XX[.H.< : b (. XcXhX_.E > 0 t t t t t t r t r y y ' [ $ - UXUXUXUX",
"UXUXUX$ _ ] ` t r B.I.).)._.W O t t t t t t r r r r r r N.I.H.I.I.Q @ r r r 0 L.Z.v.I.Y.; . t S.G.G.F.i.1 k @.F N.aXuX).v.I.U.: X 0 0 r r r h E P.U.G.].M., w 0 r r t 0 r S.Z.c.f.G S 2 2 1 2 < Z z.].P.i.w.0 h S.P.U.I.Y.W , 0 0 r r L.Z.F.I.H.3 # d N.U.XX XT.W o r t t t y y y t t t y y ] ] & & UXUXUXUX",
"UXUXUX$ ' ] ` y y V.h.G.C.f.Z # y t t t t t t t t r t t Q p.f.g.d.D # r r r r q.h.d.g.f., . r U p.z.f.g.1 k ,.F A $.l.h.L g.d.+ X 0 0 r r r p J s.x.L f.Y # 5 r r 0 0 r u $.p.f.I G 1   @ @ @ 9 i.f.V.I.Z.k 6 p $.p.f.g.f.B % 0 r 5 r M.h.d.d.d.2 # x w.h.U.A.m.D # t t y t y y y t y t y ` ] ] & & UXUXUXUX",
"UXUXUX* ' ] s y y N.I.x.g.G 1 # y y y t t t t t t t t t B.Z.s.I P 1 @ r r r r B.z.L P G + X r B.Z.s.I P 2 8 i 0.A A K i.I P Z + X r r r r r i H I.z.I P S o r r r r t t r M.Z.f.P P 1   5 5 f p S.Z.L $.U O o p N.A.p.I G 1 % 0 r 0 r V.x.L P Z , * l N.P.A.i.Z 1 % t y y y y i y y y y y ` ] ] $ & UXUXUXUX",
"UXUXUX$ _ ] y y / K.aXA.I @.< . y t y y t t t t t t t t K.Y.s.P @.< . t r t r J.G.L $.A O @ y K.T.s.P G < # r r l X.P d.I @.G O X t t t r r i w.aXZ.L @.9 @ 8 r r r 0 t r K.aXf.P @.1 o r r r t K.Y.T G A o o f J.Y.p.P $.< . 0 r r t S.G.L $.F ; % f K.aXZ.I @.< O t y y y y y y y y y y ` ] ] $ & UXUXUXUX",
"UXUXUX& ' ] ` t t S.aXA.I A : : t y t y 0.r.y.v 8 l y y B.P.I G G < > y r t y S.G.Z P A + . r B.P.g.P @.< # r r r l P i.P P A O X r t t t t p r.T.A.K $.9 # 0 r t t t t t N.I.g.P G 9 o r r y t N.A.K P F + X d M.G.I G G < : p r r r S.G.Z G A + % p L.T.z.P A < : g y y y 0.r.0.b j l y ` ] ' $ & UXUXUXUX",
"UXUXUX& ` ] y i p $.m.l.f.G 1 E t t t y r.xXuXY.d.8 r y P I g.f.G 1 E y t t y Q C.L g.P O X t K I g.s.g.1 X t r t r G Y g.f.K + X r t t r t ( E I g.I d.S # 5 t t t t t t Y L U d.I 1 . t t t t P U g.i.K o X x K U g.f.Z k E f t r t Q C.i.d.K + % x $.d.d.d.Z k 0.d y y y J.xXtXY.$.: p y ' ' $ $ UXUXUXUX",
"UXUXUX& ` ] ) i p #.9 s.P.A.V.N.e f t r D j.P.A.S X - y X.F h.b.s.U M.i u -.c K z.x.j.K   X r z A z.b.g.+ X r r r t z I b.x.C   X t t t t t y l A g.j.h.n @ 0 r t t t t t X.A h.b.i.2 . t t t t 9 P j.x.K   X d z F h.b.f.d.M.b j 0.X.K s.x.j.C O # p F S f.P.f.l.q.c v v v K z.x.h.N o = a _ _ % $ UXUXUXUX",
"UXUXUX- { ] g h d z A K f.B.B.V.N.e.q.J m V S.N.2   # r z G V a.l.a.Q q.M.H B K V a.V 2   $ t z F i.a.n O $ t r t r k D a.L +   @ t t t t t y h #.L i.m O @ 0 y t t t t t l Z i.V n   @ t t t y z P u.C +   o a F D V Y a.Y Y Q M.W n K V l.L +   6 t F G V l.V.V.d.q.q.! N N V l.U + O 4 i _ _ % $ UXUXUXUX",
"UXUXUX& _ ] ( g d x k O               O O         $ q y a k                             $ q t u k .   . @ q r r t r t 3       $ 5 t t t y y y y d ;     . 6 r t y t t t t a k .   X @ 0 y t y y p j     . & q t f J < > > > ; ; , + ; > > , @ X * 8 r p J < > 8 : , ; ; ; ; > < * % O * u s _  .% $ UXUXUXUX",
"UXUXUX$ _ ] ) g g i i 4 > = 7 : 7 : = = 7 = = * 6 0 t y y r 5 4 = = = = 4 4 = 4 4 * = 6 0 r y y t 6 * 6 0 t r t r t r t 5 6 6 0 y y t y y r y y y r & 6 6 r t y y t y y t y u 4 = 6 0 y t y t t t r 4 4 6 q t y y y i 0 0 w 0 0 0 0 5 w q q 0 0 r r t r u e 5 w 7 w w 5 5 0 w w w q 0 0 r g .. .% $ UXUXUXUX",
"UXUXUX- s [ ] ) p i i u e r u i h i u u u t t i t t t y t t y y t t t t y r y y r y y t y y r t t r a t r r r t r t r t t t t y t t r t r t y r r y y r t t y r t t t t t t y y t t t t t t t t t t t t t t t t y r r y r y r t t t r t t t t u t r r t r r r 0 r r r r r r u u t u t u i _ ..d # $ UXUXUXUX",
"UXUXUXUX$ s .. .d i w w u r r e i e r u r r r r t r t t y r r r t t t t y r r r r t t t t r t r t r r r r r r r r r r r r r r r t t t r t t r r t r y r r y r a t t r t r t r r r r r t t t u t t t r t t r t t y r r r r y t r r t r r t 0 t t r r r 0 r 0 r w 0 0 r r u r 0 r 0 0 t i / _ a # o @ UXUXUXUX",
"UXUXUXUXUX$ s ..( s f u r 0 w r u f w 0 0 r r 0 r r r r r r r r t u t r r i r r r r t r r r r r r r r r r r r r 0 r 0 r r r r r r r r r r r r r r r r r r r r r r r r r r r r r r r r r r r r r r r r t t r r r r r r u r r r r r r r r r 0 r r r 0 0 r w 0 w 0 5 0 0 r 8 r w 5 w r a s ' s X X o X UXUXUXUX",
"UXUXUXUXUXUX% s  .^ u u w 0 w e f p u w w 0 w 0 0 r r r r r r r 0 t r r r r r r r r r r r r 0 r 0 r 0 w 0 0 0 0 0 r r r r r r r r r r r r r r u u r r u r r w r r r u r r y u r r r u r r r r r u r r r r r r r r r r r r r r r r u r 0 0 r 0 0 u r 0 5 0 0 0 0 5 5 w 8 0 5 5 5 w a s ..s # X @ X X UXUXUXUX",
"UXUXUXUXUXUX5 & s ' ^ s a a p s ^ l a a a u a u u i i u u a u a i u a r u u y a u u i u r u t t r u a r u u r u r r u u u u u u y u r r u y u y s u u u u y a r a y u u u u a y u y u i a t u u u i a y a u i u u u u u u u y u u r u u u u u u u u w f u w u w u f f u u u u u i ^ _ s % X @ X .   UXUXUXUX",
"UXUXUXUXUXUXUX5 * s ' _  .(  . .X... . .( ^ ^ / ( ( ^ ( ^ ^ ( ^ ^ ^ ( ^ ( ( ^ ^ ^ ( ^ ^ ( ( ^ ^ ^ ^ / ^ ^ ^ / / ^ ^ ^ ^ ^ ^ ^ ^ ^ ^ / ( ( / ( ^ _ ( ( ( ( ^ ^ ^ ^ ( ( ( / ^ ^ ( ( ( ( ( ^ ( { / ^ ( ( ( ( ( ( ( { ( ( ( ^ ( ^ ^ ^ ^ ^ ( ( ^ ^ ^ ^ s ^ ^ s ^ s ^ s ^ s s ^ ^ ^ / ( _ a @ X o X .   UXUXUXUXUX",
"UXUXUXUXUXUXUXUX7 % f ^ a d ^ ^ ^ ^ ^ l / a / a a / / / / a / a a / / / a / a / / a / a a a a a a a a a a a a a a a a / u a a / a / / / a / a a / a / a / a / / a / / a a / a a a / a a / a / a / s s / / a a / a a / a / a a s s s a a a s a s d a a s u a a a a a u a a u a a a u $ . @ @ . . UXUXUXUXUXUX",
"UXUXUXUXUXUXUXUXUXUX% % # o o o @ @ o o X X @ X X @ . @ X X X @ X @ . @ @ @ @ @ @ @ @ @ @ @ @ @ @ @ @ @ @ . @ @ X @ X @ @ @ @ @ @ @ @ @ @ @ @ @ @ @ X @ @ @ @ @ @ X @ @ @ @ @ @ @ @ @ @ @ @ @ @ o @ @ o @ @ @ @ @ @ @ @ @ @ @ @ @ @ @ @ @ @ o @ # X @ @ @ @ @ o @ @ @ # # @ @ @ X . @ @ @ . . UXUXUXUXUXUXUX",
"UXUXUXUXUXUXUXUXUXUXUX* $ $ % # $ $ $ @ # $ $ $ $ $ $ $ @ $ $ $ $ $ $ $ @ $ $ $ $ $ $ $ $ $ $ $ $ $ $ & $ $ $ $ @ & $ $ & $ $ $ @ $ $ $ $ $ $ $ $ $ $ & @ $ $ $ $ @ & $ $ $ $ $ $ $ $ & $ @ & $ & @ $ $ @ & & $ $ $ $ $ @ & $ $ $ $ $ $ $ $ $ $ $ @ $ @ $ @ $ @ @ @ $ @ @ @ $ @ # @ @ . . . UXUXUXUXUXUXUXUX",
"UXUXUXUXUXUXUXUXUXUXUXUXUXX @ X X X @ @ X X X X X X X X @ @ @ @ X X X X X X @ @ @ X X X X X X @ X X X @ X X X X X X X X X @ @ @ X X X X X X X X X X @ @ @ @ X X X @ @ X X X @ @ X @ X X @ @ @ X @ @ X @ @ X X @ X X @ X X @ X @ @ X X X X X X X X X X X @ X X X @ . @ @ @ . @ . . . . . . UXUXUXUXUXUXUXUXUX",
"UXUXUXUXUXUXUXUXUXUXUXUXUXUXUXUXUXUXUXUXUXUXUXUXUXUXUXUXUXUXUXUXUXUXUXUXUXUXUXUXUXUXUXUXUXUXUXUXUXUXUXUXUXUXUXUXUXUXUXUXUXUXUXUXUXUXUXUXUXUXUXUXUXUXUXUXUXUXUXUXUXUXUXUXUXUXUXUXUXUXUXUXUXUXUXUXUXUXUXUXUXUXUXUXUXUXUXUXUXUXUXUXUXUXUXUXUXUXUXUXUXUXUXUXUXUXUXUXUXUXUXUXUXUXUXUXUXUXUXUXUXUXUXUXUXUXUXUXUXUX",
"UXUXUXUXUXUXUXUXUXUXUXUXUXUXUXUXUXUXUXUXUXUXUXUXUXUXUXUXUXUXUXUXUXUXUXUXUXUXUXUXUXUXUXUXUXUXUXUXUXUXUXUXUXUXUXUXUXUXUXUXUXUXUXUXUXUXUXUXUXUXUXUXUXUXUXUXUXUXUXUXUXUXUXUXUXUXUXUXUXUXUXUXUXUXUXUXUXUXUXUXUXUXUXUXUXUXUXUXUXUXUXUXUXUXUXUXUXUXUXUXUXUXUXUXUXUXUXUXUXUXUXUXUXUXUXUXUXUXUXUXUXUXUXUXUXUXUXUXUXUX",
"UXUXUXUXUXUXUXUXUXUXUXUXUXUXUXUXUXUXUXUXUXUXUXUXUXUXUXUXUXUXUXUXUXUXUXUXUXUXUXUXUXUXUXUXUXUXUXUXUXUXUXUXUXUXUXUXUXUXUXUXUXUXUXUXUXUXUXUXUXUXUXUXUXUXUXUXUXUXUXUXUXUXUXUXUXUXUXUXUXUXUXUXUXUXUXUXUXUXUXUXUXUXUXUXUXUXUXUXUXUXUXUXUXUXUXUXUXUXUXUXUXUXUXUXUXUXUXUXUXUXUXUXUXUXUXUXUXUXUXUXUXUXUXUXUXUXUXUXUXUX",
"UXUXUXUXUXUXUXUXUXUXUXUXUXUXUXUXUXUXUXUXUXUXUXUXUXUXUXUXUXUXUXUXUXUXUXUXUXUXUXUXUXUXUXUXUXUXUXUXUXUXUXUXUXUXUXUXUXUXUXUXUXUXUXUXUXUXUXUXUXUXUXUXUXUXUXUXUXUXUXUXUXUXUXUXUXUXUXUXUXUXUXUXUXUXUXUXUXUXUXUXUXUXUXUXUXUXUXUXUXUXUXUXUXUXUXUXUXUXUXUXUXUXUXUXUXUXUXUXUXUXUXUXUXUXUXUXUXUXUXUXUXUXUXUXUXUXUXUXUXUX"
};
