/* XPM */
static char *_646067640136[] = {
/* columns rows colors chars-per-pixel */
"150 48 253 2 ",
"   c #030303",
".  c #0A0505",
"X  c #020609",
"o  c #030B0E",
"O  c #0B0B0C",
"+  c #0D0907",
"@  c #130A0C",
"#  c #1B0D0B",
"$  c #150906",
"%  c #1A140C",
"&  c #060E10",
"*  c #090E12",
"=  c #090F18",
"-  c #140D15",
";  c #051216",
":  c #091316",
">  c #06151A",
",  c #081519",
"<  c #09191E",
"1  c #141618",
"2  c #270D0C",
"3  c #251816",
"4  c #2A1211",
"5  c #2F2117",
"6  c #160E24",
"7  c #0C1D25",
"8  c #0D1F29",
"9  c #071920",
"0  c #101F25",
"q  c #161728",
"w  c #311927",
"e  c #0C232D",
"r  c #0E2027",
"t  c #12242C",
"y  c #18262B",
"u  c #0C2632",
"i  c #0C2935",
"p  c #0D2C39",
"a  c #122633",
"s  c #132935",
"d  c #1B2C34",
"f  c #16273B",
"g  c #162A3D",
"h  c #1B2C3B",
"j  c #1B2735",
"k  c #1C323B",
"l  c #1B3136",
"z  c #272528",
"x  c #352728",
"c  c #222D35",
"v  c #2A2B37",
"b  c #24343B",
"n  c #2A3738",
"m  c #333938",
"M  c #322D35",
"N  c #70171A",
"B  c #79241C",
"V  c #46162A",
"C  c #471B39",
"Z  c #501429",
"A  c #621A28",
"S  c #6E1F2D",
"D  c #472729",
"F  c #562528",
"G  c #452937",
"H  c #58263A",
"J  c #583635",
"K  c #4C3632",
"L  c #67252B",
"P  c #782828",
"I  c #642A3B",
"U  c #672837",
"Y  c #762B34",
"T  c #763733",
"R  c #431E1C",
"E  c #37423C",
"W  c #29403C",
"Q  c #6E523B",
"!  c #5A593E",
"~  c #1A2E44",
"^  c #162D44",
"/  c #1B3146",
"(  c #1F3942",
")  c #1B334C",
"_  c #163347",
"`  c #1B3552",
"'  c #1B3954",
"]  c #1B3659",
"[  c #162F52",
"{  c #223C45",
"}  c #2A3D43",
"|  c #233E49",
" . c #243648",
".. c #243953",
"X. c #333341",
"o. c #1D3966",
"O. c #1D3D72",
"+. c #223F67",
"@. c #562E43",
"#. c #793C42",
"$. c #234444",
"%. c #23454E",
"&. c #2B434A",
"*. c #2A4146",
"=. c #374546",
"-. c #244751",
";. c #254953",
":. c #284A5B",
">. c #3C5052",
",. c #274866",
"<. c #2F536D",
"1. c #2E596B",
"2. c #2A5163",
"3. c #30536D",
"4. c #315571",
"5. c #375973",
"6. c #2A4E76",
"7. c #1F4178",
"8. c #424A4A",
"9. c #465656",
"0. c #505350",
"q. c #6B4F4D",
"w. c #6D6C51",
"e. c #6D736A",
"r. c #5A6359",
"t. c #86251D",
"y. c #882927",
"u. c #942C26",
"i. c #89372A",
"p. c #95342B",
"a. c #883435",
"s. c #973835",
"d. c #852C30",
"f. c #A73C2A",
"g. c #AA3C33",
"h. c #831E22",
"j. c #98463A",
"k. c #864937",
"l. c #A74639",
"z. c #B54835",
"x. c #B65539",
"c. c #A74F36",
"v. c #B3703C",
"b. c #9E6D32",
"n. c #C24B37",
"m. c #C46E3A",
"M. c #8B3B44",
"N. c #955546",
"B. c #92504C",
"V. c #A75749",
"C. c #B85A4A",
"Z. c #AF524C",
"A. c #966B53",
"S. c #BA6A48",
"D. c #B86856",
"F. c #BB7959",
"G. c #AC714A",
"H. c #906E68",
"J. c #A87668",
"K. c #B0766D",
"L. c #C35D4E",
"P. c #C76657",
"I. c #C97A57",
"U. c #C8744F",
"Y. c #C76C67",
"T. c #CC796F",
"R. c #7B8575",
"E. c #CC9039",
"W. c #E0A33D",
"Q. c #AD8E56",
"!. c #958675",
"~. c #928A72",
"^. c #B0916A",
"/. c #ACA479",
"(. c #D48759",
"). c #CC8B4F",
"_. c #D7AE59",
"`. c #E3B755",
"'. c #D58A66",
"]. c #D89768",
"[. c #D18B70",
"{. c #E49870",
"}. c #D9A867",
"|. c #DAB270",
" X c #E4B96A",
".X c #E4A875",
"XX c #E5AD6B",
"oX c #E5C677",
"OX c #E7CE76",
"+X c #DDC26D",
"@X c #BF863C",
"#X c #2D538C",
"$X c #386C90",
"%X c #3A67AC",
"&X c #305AA6",
"*X c #476FBB",
"=X c #3D75D5",
"-X c #4477C9",
";X c #4F8789",
":X c #46898D",
">X c #528689",
",X c #528B8D",
"<X c #58858A",
"1X c #5094CF",
"2X c #59A9CE",
"3X c #55A3CD",
"4X c #5BADD4",
"5X c #54A2D1",
"6X c #5DB0D8",
"7X c #61A8CC",
"8X c #6DB5D2",
"9X c #69AFCE",
"0X c #549EE3",
"qX c #70CDE3",
"wX c #3C8388",
"eX c #939282",
"rX c #ABA796",
"tX c #B1AA99",
"yX c #ADAC8F",
"uX c #AFA393",
"iX c #D4898A",
"pX c #CBB290",
"aX c #E0A58F",
"sX c #E6CC83",
"dX c #EAD488",
"fX c #EBD997",
"gX c #EAC799",
"hX c #F0E39C",
"jX c #D6CBAB",
"kX c #ECDAA7",
"lX c #F3DAA5",
"zX c #F1DBB8",
"xX c #E8D6B4",
"cX c #F7E5A9",
"vX c #F2E5B8",
"bX c #F2E6B0",
"nX c #DCC696",
"mX c #B9D7DF",
"MX c #99DDE8",
"NX c #81D7E3",
"BX c #A7DBE7",
"VX c #BADDE4",
"CX c #B6DBE4",
"ZX c #BBE2E9",
"AX c #A8E0EC",
"SX c #9EE0EC",
"DX c #F0DFC5",
"FX c #F4E7C8",
"GX c #F3ECCC",
"HX c #CBDAE3",
"JX c #D0DCE5",
"KX c #C2E2E8",
"LX c None",
/* pixels */
"LXLXLXLXLXLXLXLXLXLXLXLXLXLXLXLXLXLXLXLXLXLXLXLXLXLXLXLXLXLXLXLXLXLXLXLXLXLXLXLXLXLXLXLXLXLXLXLXLXLXLXLXLXLXLXLXLXLXLXLXLXLXLXLXLXLXLXLXLXLXLXLXLXLXLXLXLXLXLXLXLXLXLXLXLXLXLXLXLXLXLXLXLXLXLXLXLXLXLXLXLXLXLXLXLXLXLXLXLXLXLXLXLXLXLXLXLXLXLXLXLXLXLXLXLXLXLXLXLXLXLXLXLXLXLXLXLXLXLXLXLXLXLXLXLXLXLXLXLXLX",
"LXLXLXLXLXLXLXLXLXLXLXLXLXLXLXLXLXLXLXLXLXLXLXLXLXLXLXLXLXLXLXLXLXLXLXLXLXLXLXLXLXLXLXLXLXLXLXLXLXLXLXLXLXLXLXLXLXLXLXLXLXLXLXLXLXLXLXLXLXLXLXLXLXLXLXLXLXLXLXLXLXLXLXLXLXLXLXLXLXLXLXLXLXLXLXLXLXLXLXLXLXLXLXLXLXLXLXLXLXLXLXLXLXLXLXLXLXLXLXLXLXLXLXLXLXLXLXLXLXLXLXLXLXLXLXLXLXLXLXLXLXLXLXLXLXLXLXLXLXLX",
"LXLXLXLXLXLXLXLXLXLXLXLXLXLXLXLXLXLXLXLXLXLXLXLXLXLXLXLXLXLXLXLXLXLXLXLXLXLXLXLXLXLXLXLXLXLXLXLXLXLXLXLXLXLXLXLXLXLXLXLXLXLXLXLXLXLXLXLXLXLXLXLXLXLXLXLXLXLXLXLXLXLXLXLXLXLXLXLXLXLXLXLXLXLXLXLXLXLXLXLXLXLXLXLXLXLXLXLXLXLXLXLXLXLXLXLXLXLXLXLXLXLXLXLXLXLXLXLXLXLXLXLXLXLXLXLXLXLXLXLXLXLXLXLXLXLXLXLXLXLX",
"LXLXLXLXLXLXLXLXLXLXLX, : : : : : : : : , > < < , , , , , , , , , , , > , , , , , , , , , , , > , , , , , , , , , , , , , , , , , , 9 , , < , < , , < > , , , , , , , , , , , : , > : , , : : ; : ; , : : : , : : : : : , : : , : , : : : : : ; : : , : : : , : > > 6 = , , , , > 9 LXLXLXLXLXLXLXLXLXLXLXLX",
"LXLXLXLXLXLXLXLXLX; o.#X#X$XwX:XwX:XwXwX:XwX:X:X:X:X:X:X:X:X:X,X:X,X:X,X:X:X,X,X,X,X,X,X,X,X,X,X,X,X,X,X,X,X,X,X,X,X,X,X,X,X,X,X,X,X,X,X,X,X,X,X,X,X,X,X,X,X,X,X>X>X>X>X;X;X>X>X,X;X>X;X;X;X,X>X;X;X;X;X;X;X;X;X;X>X;X;X;X;X>X<X>X>X>X>X>X<X>X>X<X>X<X<X<X<X<X<X$X<X<X<X<X;X$X$X$X6.= LXLXLXLXLXLXLXLXLXLXLX",
"LXLXLXLXLXLXLXLX; O.=X0X5XqXqXNXBXMXMXMXMXMXMXNXMXSXSXNXSXBXBXMXBXBXAXBXAXCXBXZXZXAXCXZXZXAXBXZXZXCXZXCXZXZXVXZXZXZXZXZXZXZXZXZXZXZXKXKXZXKXZXZXKXZXZXZXVXZXKXVXZXVXmXZXmXVXmXKXmXVXVXmXmXmXVXmXZXmXmXmXVXCXVXmXVXmXVXVXCXHXmXmXHXmXmXHXmXHXHXHXJXJXJXJXJXJXJXJXJXJXGXJXBXMXNXqX0X1X#X9 LXLXLXLXLXLXLXLXLXLX",
"LXLXLXLXLXLXLX: o.=X-X%X#X6.#X$X%X-X3X3X5X5X5X5X5X5X5X3X5X5X3X5X5X5X1X7X2X5X5X4X4X2X4X4X4X4X4X4X6X2X4X4X4X4X4X4X4X6X6X4X6X6X4X4X6X4X6X6X6X6X4X6X6X6X6X4X4X4X2X4X4X2X2X4X2X2X2X2X2X2X2X2X2X2X3X2X3X2X2X2X2X2X3X3X2X7X7X7X2X7X2X7X7X7X7X7X7X7X9X9X9X9X8X8X8X8X8X9X8X8X7X1X-X*X%X$X-X-X-X#X9 LXLXLXLXLXLXLXLXLX",
"LXLXLXLXLXLX> ] %X#X:./ g s s k k ( | :.2.:.:.2.2.2.,.2.:.2.:.2.2.2.2.2.2.3.2.2.2.3.2.2.<.<.<.<.<.<.4.4.<.<.4.4.<.4.<.4.4.4.4.4.4.4.4.4.4.4.4.4.4.3.4.4.4.4.3.3.1.3.3.3.3.3.3.3.1.3.3.3.<.1.3.<.3.2.<.<.1.1.1.1.1.1.1.1.1.1.1.1.1.1.3.1.1.1.1.1.1.3.1.5.5.5.5.5.5.,...../  .~ ~ [ O.&X%XO.9 LXLXLXLXLXLXLXLX",
"LXLXLXLXLX: [ &X6.) j q t r t y y y y l l $.$.W $.$.$.$.$.$.$.$.$.$.$.$.%.$.%.$.%.-.%.%.-.-.-.-.;.;.;.;.-.-.-.-.-.;.-.;.;.-.;.;.;.;.;.;.;.;.;.;.;.;.-.;.;.-.;.-.;.-.-.;.;.;.;.%.-.-.-.-.%.-.%.-.%.%.-.-.%.%.%.-.-.-.%.%.%.%.%.%.-.-.%.-.%.%.%.-.&.&.&.&.&.:...}  .k d j d s j f f f ) #X&Xo.9 LXLXLXLXLXLXLX",
"LXLXLXLX* ^ #XO.c t 8 8 0 0 1 r r r y y y l l k ( k $.k k { { { { { ( { $.{ ( { ( | ( %.( %.( | ( | | ( { | | | ( %.| | { %.| *.%.| | | | | | %.*.%.%.| | | { | | { } ( | { { { { | } { | { | $.{ { { $.{ { { { ( { { { | ( ( | ( ( ( | ( | ( $...} ..| &. .c  .j a a a t t 8 t 8 t a ~ 7.#X[ ; LXLXLXLXLXLX",
"LXLXLX> f #X7.^ 8 7 7 7 < 0 r 1 r r r r e y s l p k k $.{ k b ( ( ( ( { { ( { { ( (  .( { { ( | | ( ( | ( | ( | { %.| { | { { |  .| | | | | | | | %.| %.| ( | { { { %.( { | { %.{ { { { } ( { b { { { { { { ( { { ( { { { { { | ( | ( ( ( ( | ( } (  . .b h j s y a t t t 8 t 8 0 8 8 a [ 6.#X[ 9 LXLXLXLXLX",
"LXLXLX& o.7...8 q 1 7 7 0 < r r 0 r 0 r r r y y i l l k b { ( ( b ( { ( ( ( ( ( | ( | ( ( ( | ( ( | ( ( %.( | ( ( ( | ( { | { | | { | | | | | | ( |  .( ( | { { { { { | } ( { ( { { { { { { { { { k { { { { { { { { ( ( { ( ( ( ( ( | ( ( | ( ( ( k l d s s s j j a t t 8 8 8 0 8 8 8 q a ] 6.O.> LXLXLXLXLX",
"LXLXLX: ] +.^ 8 7 7 7 0 7 < r r r r 1 r r r r e e y a s l l k ( ( ( ( ( { ( ( { ( ( ( | ( ( ( | ( | { { ( { { { { | { ( | ( { { ( %.| | | | ( | | | %.| | { { { { } | { } { { { { ( ( { { { { { { { { { { { { { { ( ( $.( ( ( ( ( { ( { $.( k l l s l s j g s d a a y t t t 0 e 8 8 8 8 8 ~ O.+.; LXLXLXLXLX",
"LXLXLX; ] ..f 8 7 7 7 r 7 0 r r y y r r 7 r 1 r r r t e u s s l l b ( ( k ( ( ( ( ( ( ( ( ( ( ( ( ( ( ( ( ( { ( ( ( ( ( ( | |  .( ( ( ( %.*.| ( ( ( ( { ( | { | | } { } | { { } { } { | { { { { { { { } { } | } { *.$.%.{ $.} { *.%.*.k k k l k l l l l d d d d d s d t t 8 8 7 0 7 7 7 8 g o.o.> LXLXLXLXLX",
"LXLXLX; ] ] a 8 7 0 y z y z z d c b c c d y y r r r r y d y y d y j b { &.*.n b { ( ( ( *.} { } ( ( ( ( ( ( | *.{ } { ( | %.&.;.&.;.&.;.;.&.;.&.&.{ &.( $.%.&.=.&.&.%.*.| } &.=.=.} &.} *.*.*.*.*.*.=.} &.W *.&.*.&.&.>.&.&.&.} { b ( b { k b k l k k b n k b b j d l y d d r r 8 8 8 8 e a ] o.; 9 LXLXLXLX",
"LXLXLX> [ ] a 8 8 8.!.uX!.!.J.H.H.^.yXjXpXuX~.Q x y } ~.uX/.~.H.H.e.H.yXtXrXuX!.w.=.{ 9.!.rX!.r.| { ( ( ( &.e.tX!.w.=. .>.eXtXtXtXtXtXtXtXtXtXtXtX!.w.=.( >.rXxX/.=.>.*.*.&.9.eXrX!.r.&.*.&.&.&.>.R.tX!.e.0.=.&.9.R.tX~.r.} { b b b { e.rX/.e.n d l W e.rXyXuX/.eX~./.yXyXrXrX/.0.y 7 8 e a ` o.; < LXLXLXLX",
"LXLXLX> [ ` a r d eXjXGXvX].k.J K x K ^.FXGXlXc.D m uXkXDXvX[.Q J J D K yXvXDXcXV.D m rXkXGXlXk.M ( ( ( ( e.jXFXcXV.D X.pXcXvXFXFXGXFXDXFXGXGXvXGXkXc.K b tXkXDXlXD.K }  .>.tXkXGXlXj.m } *.$.&.e.jXGXvXV.D m >.rXzXDXlXc.K l d l d 9.kXFXlXC.5 y n rXxXFXxXI.T F 5 2 J pXzXDXgXZ.5 0 0 e f ` ] > < LXLXLXLX",
"LXLXLX; [ ` a e c rXzXfX(.i.# O ; 1 y @.q.D.L.i.% x xXFXGX[.u.. o ; : z A.zXGX[.y.% z jXDXGX].P - b ( k { R.DXFX].y.# c J.H.K.K.F.nXzXGXzXaXK.F.D.c.c.% 7 jXFXGX.Xh.# c } 9.xXDXGX].P - *.} b &.R.FXGX[.u.# 7 8.zXFXGX].y.$ y s e e 9.zXGXaXy.2 z =.FXzXfX(.s.. q z K 0.q.q.F.C.j.% 9 8 e u ) ] > > LXLXLXLX",
"LXLXLX> ` ` s e b Q.fXdXx.y.% : 7 t d } 4 y.p.5 o z _.kXFXS.t.% 9 r r l R.kXvXI.u.# 1 }.kXGX.Xp.x m s s l w.lXGXT.y.# 1 X.V B t.V #. XdX Xc.N B t.P R + 7 ^.kXcXI.h.$ 3 { 9.|.kXFXXXu.x =.l l l w.kXGX).y.# ; E  XfXbXI.y.+ y r e e 8.fXGX).u.$ 6 E _.fXsXx.u.% r e e e X.w u.u.D . 6 8 e a ' ] ; > LXLXLXLX",
"LXLXLX> ` ` g e n A.oXkXL.B 4 , e r e y x 4 % X o n ).OXfXm.y.2 r r r t ! OXhXv.u.% < @XsXfXdX}.v.E i e s w.oXhXS.u.- = v x 3 4 - T  X+X).U.5 4 3 % o & 8 Q.sXsXv.u.$ z s =.).sXcXOX}.S.E y a d w. XhXS.u.# O E E.sXOXv.u.+ y e r e =. XhXm.u.% 6 E E.OXkXS.u.+ 8 e e e 8 j 4 2   o 8 e u p ` ] > > LXLXLXLX",
"LXLXLX> _ ' p i b Q._.bXY.u.2 z e e e e e 9 > > 9 n ).oXdXm.p.2 t r r u Q  XfXm.f.2 1 @XoXkXOXdX Xb.E y d ! OXdXm.f.# ; e t t a E b. XOX(.Y.3 : r r r r u Q.sXfXU.g.# z a E E.oXhXoXdX+Xb.E e y ! oXdXm.f.# : m E.oXdXm.l.+ y r r r 8.`.fXm.z.% 6 n W.OXhXI.f.$ t e e u u u 7 7 7 q e e u p ' ' > > LXLXLXLX",
"LXLXLX> ` ' g i l Q.+XOX{.D.3 c u e u e e u i e e W E.OXfX(.D.3 y r r e ! +XfX(.Y.3 % Q.+XbXcXdXOX`.b.m y ! OXfX(.Y.3 O e e e u x Q.|.hX].Y.3 1 e e e e e Q.oXhX).D.3 5 e m ).+XbXcXdXOX`.b.m y Q OXfX(.Y.3 * m `.oXfX].Y.@ y r e e 8.+XhX}.Y.3 6 n v.F.sX).u.O l e u u u u u u u u u u u g ' ' > > LXLXLXLX",
"LXLXLX> ` ' p i l /.dXsX.XF.3 M u u u u i i e e u W |.hXfX.X[.3 l r e y w.dXkX.X[.3 % |.dXcXnXN.c.Q.`.^.b w.OXfX.X'.3 ; 9 u e e W Q.sXkX.X(.5 > e e e e e /.sXhX.XT.3 y e n oXdXcXgXN.j.).`.^.n w.sXfX.X'.3 O n OXfXhX.X'.O d e e e =.dXfXaX].3 1 l V S |.].N K s i i i i u u i u u i u i g ' ] > > LXLXLXLX",
"LXLXLX; ` ' _ p k Q.sXkXXXv.3 M i i i u i e u u e W _.oXxX{.U.3 l e e r w.OXkXXX).4 1 _.oXvX^.N P U ^.cXjX~.bXzXXX(.% * e e e e W Q.+XDX}.).5 > e e e e y ^.dXvX XI.3 3 e W _.+XvX^.A B H ^.cXjX~.bXbX}.).4 ; E `.OXFX.X).% d e e e =.OXvX|.(.5 6 e E ^.cX.XS.c.A.K.J.a.3 i i i i i i u i g ' ' > > LXLXLXLX",
"LXLXLX: ) ' ^ p k A.).+XXXF.3 q i i i i i u i i u E I.'.}.T.(.4 t u u s q.(.).I.].3 1 D.(.}.L.S % H C K.DXFXlX}.'.'.3 & e u u e W b.).|.'.'.5 > u u u e 8 G.}.bXXX'.3 - u W I.(.}.L.L % H C J.DXGXfX}.'.'.3 o m U.{.oX{.(.% t e e e 8.'.dX{.(.5 6 e w.vXcXI.Y # $ 2 2 # o : i i i i i i p p ' ' ; > LXLXLXLX",
"LXLXLX> [ ' _ p k B.z.U.C.V.4 t p p i i i i i i u W M.z.N.s.Z.4 e u u i K j.l.a.C.3 : s.l.c.p.i.@ n @.w #.S.x.u.a.C.3 o e u u u l T g.l.s.C.3 > u u u u 8 B.Z.(.L.D.3 - e m M.l.l.s.u.# b @.w #.S.x.s.a.C.3 o m g.C.U.Z.D.% e u e e =.g.S.c.P.3 6 m dXgX].p.P @ & ; ; o o , p p p i p i p _ ' ' > > LXLXLXLX",
"LXLXLX; ) ' p p b B.Z.Z.Y A $ q i p i p i i i i u n s.c.u.Y L # a u u s J Z.s.L P $ : s.c.p.Y L + d c G C A u.d.U Y $ & u u u u d T C.a.U S - > u u u u u B.L.g.Y S $ , u v s.z.p.Y U $ j c C C L u.d.U P $ ; M g.L.M.A P . t e e e E z.a.H Y $ q =.x.Y.Z.T Y $ e p i p p p p p p p p p p _ ' ' ; > LXLXLXLX",
"LXLXLX: _ ' _ p  .K.T.f.Y @.$ 7 i p p p p i p p p c iXP.y.I H - u i i i q.D.y.I @.@ * iXY.y.I H O a u j X.@.Y d.I H @ & u u u u d J.T.u.I H - 9 u i u u e K.[.Z.Y H @ 1 u c iXY.y.U H + a i j X.@.Y d.I H @ & c aXT.u.#.H . u u e i X.T.p.I H + q n iX[.g.U H + e p p p p p p p p p p p p _ ' ' ; > LXLXLXLX",
"LXLXLX; ` ' p p c J.iXg.U Z o z i i p ^ 8.8.v 8 c X.iXC.Y H H . k i i p r.T.Y I I + - T.C.P I H . a u i j H y.U I H @ ; u u i i  .K.T.u.U H - > u i i i i J.aXZ.@.H O 1 u b iXL.P I H   a u i j G p.U I H O = n aXY.u.@.H . a u i u m iXY I H + 6 M aXiXl.L @.. d i p p h 9.r.X.K v p p p _ ' ' ; ; LXLXLXLX",
"LXLXLX; ) ' ^ l  .#.V.M.Y w z m p i p n tXpXK.T j n p.d.Y Y V * k i i g q.V.P P U @ 6 a.a.d.Y U @ u i i a G Y d.Y U @ & u i i i X.q.a.Y Y H - 9 i i i i i B.Z.s.S U @ = i X.s.d.d.Y U + s i i u G Y d.P I @ o X.V.a.Y Y C 1 d i i i m K.Y Y U @ 6 X.C.B.s.U V 1 l p p p n DXgX'.q.D s p p _ ) ` ; > LXLXLXLX",
"LXLXLX, ) ` p l  .C V z.P.M.A.K d y t z Z.P.P.L O z C I z.x.d.Q m X.} =.q.u.n.z.P . > M I z.n.P X u i i u v H z.z.P . & u i i p h w @.g.f.y.O 9 i i i i i @.Z C.L.y.. = i b C @.z.n.P + u i i s v H z.n.P + ; n Z I f.z.y.k.a s i i M s.f.f.d.+ q X.V H z.P.M.B.e p i p >.s.P.L.L   e p p p ) ) ; : LXLXLXLX",
"LXLXLX> _ ' _ l c M V y.N.B.N.q.q.q.K V N B.B.5   = v L y.s.i.p.k.q.Q F F P i.d.4 X - v L i.P 2 X e i i u j F i.i.2   = u i i i u M L y.B 2 X 9 i i i i i ~ A k.B.2   = i s v A i.T 2   u i p i j F i.i.2   ; a v P B P B T 5 w D J F B P B 4   6 j v L P N.B.N.K D D q.J B N.B.4   q f p s `  .; ; LXLXLXLX",
"LXLXLX, _ ' / k l M x . . @ O @ 1 % - O o O O O & r d 5   . . .           . .     o 7 d x       > u i i u a z . X   o 9 i i i i i d D o     * e p i i i i d M @     * u i i c x X   X > i p p p j M o .   o r i s w O . + . $ @ +   . . .   .   t i s z $ . + O @ # $   . $ O .     a u s s ' ..* > LXLXLXLX",
"LXLXLX; ) ' ) b k d y < < < < 1 1 1 1 < < , ; < r i p i 8 8 7 7 7 7 7 7 8 8 7 9 9 e i i e e 7 r u i u i u u u e 9 r e i i i i i i i s e 9 7 e i p p i i i i s p i u u i i i i u 8 7 8 u i p i i i i e 7 9 e i i p s s s s s s s s s a d i e u u i u u s y s a y y f s s s s s u u a s i i / |  .* ; LXLXLXLX",
"LXLXLX< g ' ..( d s s s i s d s s s s u s i i i i i p i i i p p i i i i i i i i i i i p i i i i i i u i i u i u u i u i i i u p i i i i i i p i i i i i p i p u i i i i i i p p u i i i i i i i i i i p i i i i i i i i i i i i i i u i i i i i i u u i u u u e e u u u i i i i u u u i s / ..h * : LXLXLXLX",
"LXLXLXLX; g '  .h s t e e e a y s y a a u u a u i i i i i i i u i i i i u i i i i i i i i i i i u u i u u u u u u u u u u u i i i i i i i i u u i i i i i i u u i i i i i i u u u u i i i i u u i i u i i i i i i u i u i i i i u u i u i e i u u u u e e a e u e a e a t e t e a u a s ~ ) f * * & LXLXLXLX",
"LXLXLXLXLX> g ../ f a t t e e a t a y t u u u u e i u u u u u u u u i u u u i u u u u i i i u e u u e u u u u u e e u u u u u u i u u u u u u u i u u u u u u u u u u u u u u u u u u u u u i u u u u u i i e u u u u u e u u u u e u e u u u u u u e a e e e e 8 a 8 8 e e t e e e f g ` s o o & o LXLXLXLX",
"LXLXLXLXLXLX> g  .~ f t e t t y y j a t 8 8 t u e e u u u u u u u u u u u u u u u u u u e u u u u u u e 8 e e e e u e e e u u u u u u u u u u a u u u u u u u u u u u a u u a u a u a u u u u u u u u i e u u u u u u u u u u u e a u e a e t e e t e 8 t e e t 8 8 8 a 8 8 8 e t f ^ ` ^ : o & o X LXLXLXLX",
"LXLXLXLXLXLXr > g ` / ~ s f s j b b j j f f f u s f a a f a f a a f a f s s i f a f f u u a u a u a f a a u a a i u a a a s u a f i a a f i s a i f a f i f i f f a a a f u u f p f f u f i f a a f s f g s s s f i u f a s a f s a a a a a u a a a a t a t t a a t t a a a t a s ~  .f * O & o X   LXLXLXLX",
"LXLXLXLXLXLXLXr : h ` `  .)  . ..... . ./ ~ ~ ~ / / ~ ~ ^ / ^ ~ ~ / ~ ~ ~ ~ ~ ~ ~ ~ ~ / ~ _ ~ ~ ~ ~ ~ ~ ^ ~ ^ ^ _ ^ ~ ~ ~ ~ ~ ~ ~ ~ ~ ~ _ ~ ~ ~ _ / / ~ / / ~ ~ ~ [ ~ ~ _ / / / ~ ~ / / ~ ~ _ ~ ~ _ / ~ _ / / ~ ~ ~ ~ _ ~ / _ ~ _ ~ ~ _ ~ ~ ~ ~ ~ ^ ^ ^ h ^ ^ h ~ h ~ ~ h ~ ~ ~ / ) f & o o o X X LXLXLXLXLX",
"LXLXLXLXLXLXLXLX7 : j h ~ h ~ ~  .~ c f f ~ f f f ^ f ^ f g g g ^ g f g g ^ g f g g f f ^ g g f f f f s f f a f f f f f f g g g g g g g ^ g f f g f ^ g g g g g g g g g f ^ g g f ^ g g g g ^ f ^ h g g g ^ g f ^ g g ^ f g g g g g g g g g g s f f s h f f f f s f f f j s f f f a & o & o X X LXLXLXLXLXLX",
"LXLXLXLXLXLXLXLXLXLX: * O & O @ * o & o o O o & o o o & & & & & o & & & o & & & & & & & & o o o o o o o o & & & o o & & & & & & o & & & o & & * & & o & & & & & & & & & & & & & & & & & & & & & o * & & & & & o O & & O & & & & & o & o & & * o & O & o & & O o & o o * & & & o o o o o o X X LXLXLXLXLXLXLX",
"LXLXLXLXLXLXLXLXLXLXLX9 > ; = ; & ; = = = = & ; = ; ; ; ; ; ; ; = = ; ; = ; ; ; ; = ; ; ; ; > ; = = ; ; ; ; ; ; ; ; ; ; ; ; ; ; ; = ; ; ; ; > ; = ; ; ; > = ; ; > ; ; = = = ; ; ; ; ; ; ; ; ; ; ; ; > = ; ; ; ; ; = ; ; ; ; ; ; ; ; ; ; = = ; ; ; ; ; ; = & & ; ; & ; & = ; & & o & o o   X LXLXLXLXLXLXLXLX",
"LXLXLXLXLXLXLXLXLXLXLXLXLXo o o o o o & o o o o o o o o o & o o o o o o o o o & & & o o & o o o & o & o & o & o & o o o & o o o & o o o & o o & & o & o o o o o o o & o o o o & o & & o & o o o & o o o o o & o o o o & & o o o o o o o X o o o o o X o o o o o o X o o o X o X o X X X X LXLXLXLXLXLXLXLXLX",
"LXLXLXLXLXLXLXLXLXLXLXLXLXLXLXLXLXLXLXLXLXLXLXLXLXLXLXLXLXLXLXLXLXLXLXLXLXLXLXLXLXLXLXLXLXLXLXLXLXLXLXLXLXLXLXLXLXLXLXLXLXLXLXLXLXLXLXLXLXLXLXLXLXLXLXLXLXLXLXLXLXLXLXLXLXLXLXLXLXLXLXLXLXLXLXLXLXLXLXLXLXLXLXLXLXLXLXLXLXLXLXLXLXLXLXLXLXLXLXLXLXLXLXLXLXLXLXLXLXLXLXLXLXLXLXLXLXLXLXLXLXLXLXLXLXLXLXLXLXLX",
"LXLXLXLXLXLXLXLXLXLXLXLXLXLXLXLXLXLXLXLXLXLXLXLXLXLXLXLXLXLXLXLXLXLXLXLXLXLXLXLXLXLXLXLXLXLXLXLXLXLXLXLXLXLXLXLXLXLXLXLXLXLXLXLXLXLXLXLXLXLXLXLXLXLXLXLXLXLXLXLXLXLXLXLXLXLXLXLXLXLXLXLXLXLXLXLXLXLXLXLXLXLXLXLXLXLXLXLXLXLXLXLXLXLXLXLXLXLXLXLXLXLXLXLXLXLXLXLXLXLXLXLXLXLXLXLXLXLXLXLXLXLXLXLXLXLXLXLXLXLX",
"LXLXLXLXLXLXLXLXLXLXLXLXLXLXLXLXLXLXLXLXLXLXLXLXLXLXLXLXLXLXLXLXLXLXLXLXLXLXLXLXLXLXLXLXLXLXLXLXLXLXLXLXLXLXLXLXLXLXLXLXLXLXLXLXLXLXLXLXLXLXLXLXLXLXLXLXLXLXLXLXLXLXLXLXLXLXLXLXLXLXLXLXLXLXLXLXLXLXLXLXLXLXLXLXLXLXLXLXLXLXLXLXLXLXLXLXLXLXLXLXLXLXLXLXLXLXLXLXLXLXLXLXLXLXLXLXLXLXLXLXLXLXLXLXLXLXLXLXLXLX",
"LXLXLXLXLXLXLXLXLXLXLXLXLXLXLXLXLXLXLXLXLXLXLXLXLXLXLXLXLXLXLXLXLXLXLXLXLXLXLXLXLXLXLXLXLXLXLXLXLXLXLXLXLXLXLXLXLXLXLXLXLXLXLXLXLXLXLXLXLXLXLXLXLXLXLXLXLXLXLXLXLXLXLXLXLXLXLXLXLXLXLXLXLXLXLXLXLXLXLXLXLXLXLXLXLXLXLXLXLXLXLXLXLXLXLXLXLXLXLXLXLXLXLXLXLXLXLXLXLXLXLXLXLXLXLXLXLXLXLXLXLXLXLXLXLXLXLXLXLXLX"
};
