/* XPM */
static char *_644319797410[] = {
/* columns rows colors chars-per-pixel */
"150 48 183 2 ",
"   c #010507",
".  c #010609",
"X  c #030B0F",
"o  c #080E0F",
"O  c #060E10",
"+  c #090F11",
"@  c #041216",
"#  c #091416",
"$  c #051419",
"%  c #081519",
"&  c #06191F",
"*  c #071A20",
"=  c #0D1D25",
"-  c #0C1F28",
";  c #101F25",
":  c #0E2027",
">  c #0B222C",
",  c #112127",
"<  c #12242D",
"1  c #17292E",
"2  c #0C2632",
"3  c #0C2935",
"4  c #0D2C39",
"5  c #112633",
"6  c #132A34",
"7  c #192D35",
"8  c #16273B",
"9  c #162A3C",
"0  c #1B2D3B",
"q  c #182635",
"w  c #1B3236",
"e  c #16313B",
"r  c #1C333B",
"t  c #21353C",
"y  c #20383F",
"u  c #22403F",
"i  c #162F42",
"p  c #1A2E44",
"a  c #162A48",
"s  c #133141",
"d  c #1B3245",
"f  c #1E3942",
"g  c #17324C",
"h  c #1B334C",
"j  c #1F3B4C",
"k  c #182F53",
"l  c #142E50",
"z  c #1B3552",
"x  c #1B3954",
"c  c #1B3559",
"v  c #1C3859",
"b  c #173256",
"n  c #202E42",
"m  c #223343",
"M  c #223C45",
"N  c #283F46",
"B  c #22354C",
"V  c #233E49",
"C  c #293C4D",
"Z  c #213752",
"A  c #223A53",
"S  c #2D3C52",
"D  c #20395D",
"F  c #1A3662",
"G  c #1E3A64",
"H  c #1E3B6A",
"J  c #1D3D72",
"K  c #223F67",
"L  c #234445",
"P  c #294047",
"I  c #23454E",
"U  c #2B434A",
"Y  c #244751",
"T  c #2B4355",
"R  c #254953",
"E  c #264D5E",
"W  c #1F4075",
"Q  c #1F417B",
"!  c #264F60",
"~  c #29446F",
"^  c #264365",
"/  c #265062",
"(  c #2F5265",
")  c #2F536D",
"_  c #2E596B",
"`  c #30536D",
"'  c #274576",
"]  c #26477A",
"[  c #294875",
"{  c #2F5470",
"}  c #2E5974",
"|  c #2C537F",
" . c #315571",
".. c #375873",
"X. c #385974",
"o. c #264884",
"O. c #294D89",
"+. c #2C5988",
"@. c #325788",
"#. c #2B5095",
"$. c #345B9D",
"%. c #335B92",
"&. c #386B8F",
"*. c #34638F",
"=. c #39738C",
"-. c #3B689D",
";. c #305AA6",
":. c #3B64A3",
">. c #3765B7",
",. c #3C75B2",
"<. c #466EB9",
"1. c #4770BD",
"2. c #396ECA",
"3. c #3E72D2",
"4. c #3F7EE2",
"5. c #416EC1",
"6. c #4178C8",
"7. c #497ED2",
"8. c #3C8388",
"9. c #41858B",
"0. c #4F8789",
"q. c #43898E",
"w. c #4A8A8D",
"e. c #528689",
"r. c #58858A",
"t. c #528B8D",
"y. c #59888F",
"u. c #4282C6",
"i. c #4F9ECC",
"p. c #579ECE",
"a. c #589FCF",
"s. c #488CDF",
"d. c #5686D1",
"f. c #54A3CD",
"g. c #58A4CE",
"h. c #59A9CE",
"j. c #51A1D1",
"k. c #59A1D1",
"l. c #5BADD4",
"z. c #5DAFD8",
"x. c #5CB0D7",
"c. c #5DB1D9",
"v. c #61A7CB",
"b. c #62A9CD",
"n. c #6BB2CD",
"m. c #62B1CC",
"M. c #64A5D1",
"N. c #6DB4D0",
"B. c #66BCDF",
"V. c #4C96E4",
"C. c #58A3E2",
"Z. c #6DD7DF",
"A. c #72C3E6",
"S. c #B5D7DF",
"D. c #BED6DF",
"F. c #B6D9DF",
"G. c #81D7E3",
"H. c #9BDBE5",
"J. c #93DEE9",
"K. c #9DDEEA",
"L. c #93DCE7",
"P. c #A3DAE5",
"I. c #ABDBE6",
"U. c #A6DEEB",
"Y. c #AFDDE9",
"T. c #B7D7E1",
"R. c #BFD7E0",
"E. c #B7DAE1",
"W. c #BADDE4",
"Q. c #B0DEE9",
"!. c #BADFE8",
"~. c #9EE0EC",
"^. c #A8E0EC",
"/. c #BBE1E6",
"(. c #B3E1EC",
"). c #BEE3EA",
"_. c #C8D6DF",
"`. c #C3DAE3",
"'. c #CEDBE4",
"]. c #C9D6E0",
"[. c #D0DCE5",
"{. c #C0E6EB",
"}. c None",
/* pixels */
"}.}.}.}.}.}.}.}.}.}.}.}.}.}.}.}.}.}.}.}.}.}.}.}.}.}.}.}.}.}.}.}.}.}.}.}.}.}.}.}.}.}.}.}.}.}.}.}.}.}.}.}.}.}.}.}.}.}.}.}.}.}.}.}.}.}.}.}.}.}.}.}.}.}.}.}.}.}.}.}.}.}.}.}.}.}.}.}.}.}.}.}.}.}.}.}.}.}.}.}.}.}.}.}.}.}.}.}.}.}.}.}.}.}.}.}.}.}.}.}.}.}.}.}.}.}.}.}.}.}.}.}.}.}.}.}.}.}.}.}.}.}.}.}.}.}.}.}.}.}.",
"}.}.}.}.}.}.}.}.}.}.}.}.}.}.}.}.}.}.}.}.}.}.}.}.}.}.}.}.}.}.}.}.}.}.}.}.}.}.}.}.}.}.}.}.}.}.}.}.}.}.}.}.}.}.}.}.}.}.}.}.}.}.}.}.}.}.}.}.}.}.}.}.}.}.}.}.}.}.}.}.}.}.}.}.}.}.}.}.}.}.}.}.}.}.}.}.}.}.}.}.}.}.}.}.}.}.}.}.}.}.}.}.}.}.}.}.}.}.}.}.}.}.}.}.}.}.}.}.}.}.}.}.}.}.}.}.}.}.}.}.}.}.}.}.}.}.}.}.}.}.",
"}.}.}.}.}.}.}.}.}.}.}.}.}.}.}.}.}.}.}.}.}.}.}.}.}.}.}.}.}.}.}.}.}.}.}.}.}.}.}.}.}.}.}.}.}.}.}.}.}.}.}.}.}.}.}.}.}.}.}.}.}.}.}.}.}.}.}.}.}.}.}.}.}.}.}.}.}.}.}.}.}.}.}.}.}.}.}.}.}.}.}.}.}.}.}.}.}.}.}.}.}.}.}.}.}.}.}.}.}.}.}.}.}.}.}.}.}.}.}.}.}.}.}.}.}.}.}.}.}.}.}.}.}.}.}.}.}.}.}.}.}.}.}.}.}.}.}.}.}.}.",
"}.}.}.}.}.}.}.}.}.}.}.# # # # # # # # # % % % % % % % % % % % % % % % % % # % % % % % % % % % % % % % % % % % % % % % $ % % % % % % % * % % & & % & % % & % % % % % # # % % % # % # % % % # # % # # % # # % # # % # # # # # % # # % # # # % % # % # # % # % # # % % % % % % % % % * }.}.}.}.}.}.}.}.}.}.}.}.",
"}.}.}.}.}.}.}.}.}.# K O.| =.=.9.9.9.8.9.q.q.8.q.q.q.q.q.w.w.w.w.w.w.w.w.w.w.t.w.t.t.w.t.t.t.t.w.t.t.t.w.t.t.t.t.t.t.t.t.t.t.t.t.t.t.t.t.t.t.t.t.t.t.t.t.y.e.t.e.e.0.e.0.e.e.e.e.e.0.0.0.0.0.0.e.0.e.0.0.0.e.0.0.0.0.0.0.0.0.r.r.r.e.r.0.r.0.e.r.0.r.r.r.r.r.r.r.r.r.r.y.y.q.=.&.*.[ * }.}.}.}.}.}.}.}.}.}.}.",
"}.}.}.}.}.}.}.}.@ W 4.V.j.A.Z.G.P.H.H.H.H.L.J.~.K.~.~.K.~.P.P.K.^.U.^.I.Q.(.I.(.(.(.Q.Q.(.(.Q./.).W.!.!.!.{.!.!.).).).W.)./.).).).).{.)./.{./.).)./.).).W./.{./././.W./.F.F.F.{.F.W.W.F.F.D.W.E.W.F.F.F.E.E.W.F.W.D.W.W.F.D.D.D.`.D.`.`._._._._.[.[.[.[.[.[.[.[.'.'.'.`.I.K.G.A.C.s.o.* }.}.}.}.}.}.}.}.}.}.",
"}.}.}.}.}.}.}.# F 2.6.:.@.+.@.-.,.u.p.i.j.j.j.j.f.i.j.i.i.j.i.j.j.k.p.g.k.p.g.h.l.h.l.l.l.l.l.l.l.l.l.l.l.l.l.l.l.z.z.l.l.c.z.l.z.z.z.z.z.l.l.c.x.x.x.l.l.l.h.l.l.h.h.m.h.h.h.h.l.h.h.h.h.h.h.l.h.h.h.f.h.h.h.h.h.v.b.v.h.v.h.b.v.v.b.v.h.v.m.n.n.n.n.n.N.N.n.N.N.N.M.d.1.<.:.:.5.7.3.] * }.}.}.}.}.}.}.}.}.",
"}.}.}.}.}.}.# c >.%.^ p 7 6 0 0 0 f j E E E E / / / / / / / / / / / / / ( ( ( ( ( ( ( ( ( ) { ) { ) ) { { )  . .{ {  .} { { { { {  .{ {  . .{  . . . . . . .` ` ) ` ` ` ` ` ` ` ) ` ` ` ` ` ( ( ( ) ) ) ) _ _ _ _ _ _ _ _ _ _ _ _ _ _ _ _ _ _ _ } _ } X.X.X.X.X...! T B V d p p x ~ $.>.J * }.}.}.}.}.}.}.}.",
"}.}.}.}.}.% k $.[ B q ; ; ; q ; 1 1 1 w w u u L L u L u L L L L L L L L L L L L I I Y Y I Y Y I Y Y Y Y Y Y Y Y Y R R R Y R R R R R R R R R R R R R R R R R R R I R I I Y Y Y Y I I R I I I I I I Y I I R I I Y I Y I I I I I I I I I I I I I I I U U R U T T C m r 0 6 7 5 8 q q 8 B O.;.F * }.}.}.}.}.}.}.",
"}.}.}.}.+ a #.~ p , ; = % ; ; ; , , , < 1 w r r y M M y M r M M M L j L M f j M M M j M M j L M j M V M M L V V L V V V L V V V V I V V V V I V V I V I V V M M M V V V V N V M V V V M N V V M M M M M M L M M M M j M M M f M f M j M M M M M C C C C C C t 7 q 5 1 q q , ; q - < 5 g ] #.b * }.}.}.}.}.}.",
"}.}.}.% a o.' a ; ; = = ; = ; ; ; ; ; , , 1 1 w 7 r f M M M y M M r f M M f M M j M L M M M M j j M M M M f j L M M j M M V M M V V M V V V V V V V V V j V M V V M V M N M M M N M M M M M M M M M j M M M M M M f M M M f f M f f f M f j M f M M m m t 0 7 q q q < 5 ; - - ; ; - - q h ' o.l * }.}.}.}.}.",
"}.}.}.O F ' h < ; % = = ; ; ; ; ; ; ; ; , , , < 1 7 7 r r r M r M M r M f M f f f f r M j f M M M M f j M j M M j M j M L M j L M M j V V V V L M V V M M M M M M M M M M M M M M M y M M M f M M y M M r M M M f M M r M f M M f M f M y M M M y r 7 0 7 q 5 5 q 1 ; ; < - ; - - ; ; - 5 z ] H @ }.}.}.}.}.",
"}.}.}.@ c K i - ; = = = = % ; ; , , , , : : : , , < 1 1 w r f f L r M f M M M j f j M f L f f M f M M M f M L M M M M j L M M M V M M M M L V M L M V L M M M M V V N M M M M M M M y M M y M M M M M M M y N y M M M M y M M f M M y M M M r r w 6 6 1 7 q 6 q 1 1 1 < ; ; - ; - - - - < a ~ H @ }.}.}.}.}.",
"}.}.}.@ c D 8 = = = = = = = ; ; , , : ; = = = : , > > < < < 6 7 w r r f r f r u r u f f f f f f f f f M f f r M f f f M f j j M j M j M j u j M j j j M f M M V L U N M M N y M M M M M N V M N y M N L M N V P M N N N M N N N L V L y r t 7 e w 7 w 7 7 7 7 7 q q 6 1 q 5 - - - ; = ; - 5 F H @ }.}.}.}.}.",
"}.}.}.@ c D 5 = = = = = = ; q q 1 1 , : = : : : : : : : > , < 1 < 6 6 e r f r r M r r f f f f f f f f f f f f j f f f f f f M f f M f j u j j M f M M f M M V P U U P P P V N N N V N N V N P P P P P P P U U U L U P U P P P N M t y t y t r t r t r t t t t 7 7 q 5 1 - - - - - = - - < 8 v G % * }.}.}.}.",
"}.}.}.% b z 5 = = * = = = ; ; q 1 , : : : = : * : : : : > > > > > 2 1 1 1 e e r f f r f f f r f r f f f f f r f f f f f r f f M f f f y M f f f f f M r M N V P U U U P P P N N V N N N P P U U U U U U U U U U U U U U P N y y t t t t w w 7 7 7 7 7 7 1 q 1 1 1 < < > q - - - - - = - > 5 v v % & }.}.}.}.",
"}.}.}.$ k z 3 > * - - - = - , < < : : : > * > * * > * > - > : : > : > > > 6 6 6 6 4 w r r r f r f f f r r f f u f f f f r f f f M f f f f f f j f f f f f j M L P U N N V N N M L N V P N N L N P U P P P P P L u r r w w w w 1 q 1 1 6 > 2 < 1 1 < > > > > > > > > > > - - - > - - - - - 5 c c $ $ }.}.}.}.",
"}.}.}.# k z 5 : - - - - - = > > : : * > * > - > : > > > - * - > > > > > > > > > > < 2 6 1 6 4 7 e r f f f f f r f f f f f f f f f f f f f f f f L f f f f f M M N V N N M M N y M L M y y N M M N L r r r w 7 6 w 6 1 1 2 < < > < < > < > > > > > > > > : > > : > > - > > > > - - - - - > 5 z c % $ }.}.}.}.",
"}.}.}.% z z 6 > - - - - - : - : > * > > * > > > * - > * > - - - > * * > > > > > > < > > 4 2 > > 2 6 2 6 4 7 e e e e r u f f j f f f f f j u f j f f f f f f f u y f M L M M y y f r r r r e w 7 6 1 1 1 < < > > < < : < < > > > > > > : - > * > > : > > > > > > > > > > > > > - - - - > > 5 z v % & }.}.}.}.",
"}.}.}.% k z 9 2 > > - > 2 > > > > - > - > - > * > > - - * - - > - - > > : : : > > > < > > > > > < 2 1 2 4 2 2 3 2 4 6 6 4 4 4 6 e 7 e e e e e e r e e e e 7 4 7 7 7 6 6 6 6 7 6 1 6 6 2 1 < < < < > > < 2 > > > > > > : > > > * : > : : > > > > : > > > > > > > > > > > 2 > > 2 2 2 > 2 2 4 x v @ $ }.}.}.}.",
"}.}.}.% b x 6 2 2 > 2 2 2 2 > > > > > > > > > > > * > > > - - - > - - - - > > - > > > > > > > > > > > > > > > 3 2 < 2 2 2 2 2 2 2 < < 3 3 3 < 2 3 6 4 < 4 2 2 2 2 1 > > 1 1 > < > > > > > > > 2 > > > > > > > > > > : > > > > > > > > > > * > > > > > > > > > > > > 2 2 > 2 3 > 2 2 > > 3 4 h v $ @ }.}.}.}.",
"}.}.}.@ h x 9 2 2 > 2 2 2 2 2 2 2 2 2 2 2 > 2 > > > > > > > - > - > > - - - - - : > > > > * > > > > > > > > > > > > > < - 2 > > 2 2 2 2 > 3 2 < > 2 > 2 > > > > < 2 > > > > > > > > > > > > > - > > > > > * > * > : > > > > > > * > > > > > > > > > > 2 > > > > 3 > 2 2 4 2 2 2 2 2 2 2 8 4 x x $ & }.}.}.}.",
"}.}.}.% b x i 8 2 2 2 2 2 2 2 2 2 2 2 2 2 2 > 2 2 > > 2 > 2 > 2 > > > > > 2 - > > > > > > > > > > > > > > > > > > > > > 2 - > > > > > > > > > > > > > > > > > > > > > > > > > > - > > > - > - - > > : : > > > > > > > > > > > > > > > 2 > > > > > 2 > > > 2 > 2 > 3 3 3 3 3 3 > 2 2 3 2 3 4 x c @ & }.}.}.}.",
"}.}.}.@ g b s 4 2 3 2 3 3 3 3 2 2 3 3 2 2 2 2 2 2 2 2 > 2 > 2 > > 2 2 > 2 > > 2 > > > > > > > > > > > > > > > > > > > > - 2 > - > > > > > > > > > > > > > > > > > > > > > > > > > > > 2 > > 2 2 > 3 > > > > > > > > > > > > > 2 > > 2 > > 2 2 2 > 2 2 2 2 2 2 2 3 3 > > 3 3 3 3 2 2 3 2 3 9 x c @ $ }.}.}.}.",
"}.}.}.# g v s 4 4 3 3 3 4 4 4 2 3 3 3 3 3 3 2 3 2 2 2 2 2 2 2 2 2 2 2 2 2 > 2 2 2 > > 2 > 2 2 > > > 2 > 2 2 > 2 2 2 2 2 2 2 2 2 2 3 > 3 2 2 > 2 > 2 > 2 > 2 2 2 > > > 3 2 > 2 > 2 2 2 2 2 2 2 - > > > 2 > > 2 > > 2 > > > 2 > > > 2 > 2 > 2 2 2 2 2 2 2 2 2 2 3 3 3 3 3 3 3 3 3 2 4 4 4 4 s x v % & }.}.}.}.",
"}.}.}.@ g x s 4 6 3 4 4 4 4 4 2 3 3 3 4 3 3 3 3 3 3 3 2 2 2 2 2 2 2 2 2 2 2 2 2 > 2 2 2 2 > 2 2 2 3 2 2 2 2 2 2 2 2 2 > 2 - 2 2 > > > > 2 2 2 2 2 2 2 2 2 2 > 2 > 3 3 > 2 2 2 2 2 > 2 > 2 2 2 2 2 2 2 2 2 2 2 2 2 2 2 2 2 2 > > 2 > 2 > 2 2 > 2 2 2 2 2 2 2 3 2 3 3 3 3 3 4 4 4 4 4 4 4 4 4 x v @ @ }.}.}.}.",
"}.}.}.@ z x s 6 4 4 e 4 4 4 4 4 3 4 4 3 3 3 3 3 3 3 3 3 3 2 3 2 3 2 3 3 2 2 2 2 2 2 2 2 2 2 2 2 3 2 2 2 2 2 2 2 2 2 2 2 2 2 2 2 > 3 3 3 2 2 2 2 2 2 2 2 2 2 2 2 2 2 3 > 2 2 2 2 2 2 2 2 2 2 2 2 2 2 2 2 2 2 2 2 2 2 2 2 > 2 2 2 > 2 2 2 2 2 2 2 2 2 3 3 3 2 3 3 3 3 3 4 4 4 4 4 4 6 4 4 4 s x v $ $ }.}.}.}.",
"}.}.}.% h x s 4 3 4 4 4 4 4 4 2 3 4 4 4 4 4 4 4 3 3 3 3 3 3 3 3 3 3 2 3 2 2 2 2 3 2 2 3 2 3 3 2 2 2 2 2 3 2 3 2 3 2 3 2 2 2 3 2 3 3 > 3 3 2 2 2 2 2 2 2 3 2 3 2 2 2 3 3 3 2 3 2 2 3 2 2 2 2 3 3 2 2 3 2 2 2 2 2 2 2 2 2 2 2 2 2 2 2 2 > 2 2 2 2 2 2 2 2 3 3 3 3 3 3 4 4 4 4 4 4 4 4 4 4 4 s x x @ $ }.}.}.}.",
"}.}.}.@ g x e 3 4 4 4 3 4 4 3 3 3 3 4 4 3 4 4 4 4 4 4 3 3 3 3 4 3 3 3 3 3 3 3 3 3 2 3 3 3 3 2 3 3 3 2 3 3 3 2 3 2 2 3 2 2 3 3 3 3 2 3 3 2 3 3 3 3 3 3 3 2 3 3 2 2 3 3 2 3 2 3 2 3 3 3 3 3 3 3 3 3 2 3 3 3 2 3 3 3 2 2 2 2 2 2 2 2 2 2 2 3 2 3 2 3 2 2 3 2 2 3 3 4 4 4 4 4 4 4 4 4 4 4 e 4 s x x @ % }.}.}.}.",
"}.}.}.% b x e 6 6 4 4 2 3 3 6 4 4 3 3 3 4 4 4 4 4 4 4 4 3 4 4 3 3 4 4 3 3 3 3 3 3 3 3 3 3 3 3 3 3 3 3 3 3 2 2 3 2 3 3 3 3 3 2 3 3 3 3 3 2 3 3 3 3 3 3 3 3 3 3 3 3 3 3 3 3 3 3 3 3 2 3 3 3 3 3 3 3 3 3 3 3 3 3 2 3 3 3 3 3 3 3 3 2 3 2 3 2 2 2 3 3 2 3 2 3 3 3 3 4 4 4 4 4 4 s 4 4 4 4 4 4 s x h @ @ }.}.}.}.",
"}.}.}.# h x s e 6 4 6 4 6 4 4 7 6 6 4 3 4 4 4 4 4 4 4 4 4 4 4 4 4 4 3 4 3 3 3 3 3 3 3 3 3 3 3 3 3 3 3 3 3 2 2 3 3 2 3 3 3 3 3 3 3 3 3 3 3 3 3 3 3 3 3 3 3 3 4 3 3 3 3 3 3 3 3 3 3 3 3 3 3 3 3 3 3 3 3 3 3 4 3 3 3 3 3 3 3 3 3 3 3 3 3 3 2 2 3 3 2 2 2 3 3 3 3 3 4 4 4 4 4 4 4 e 4 4 4 4 4 9 h h @ @ }.}.}.}.",
"}.}.}.# h x e 7 6 6 6 6 6 4 7 w e 4 4 3 4 3 4 3 3 4 4 4 3 3 3 3 3 4 3 4 3 3 3 3 3 3 3 3 3 3 3 3 3 2 2 3 2 2 3 2 2 3 2 3 2 3 3 3 3 3 4 3 3 3 3 4 3 3 4 3 3 3 3 4 3 3 4 4 3 4 3 4 3 3 3 3 3 3 3 3 4 3 4 3 4 3 4 3 3 4 3 3 3 3 3 3 3 3 3 3 2 3 3 3 3 3 3 2 2 3 3 3 4 4 4 4 4 4 4 4 4 4 e 4 4 6 h B # @ }.}.}.}.",
"}.}.}.# g x r 0 w 6 6 6 6 7 7 e r 7 6 4 4 4 4 4 2 3 3 3 3 3 3 3 3 4 3 3 3 3 3 3 3 3 3 3 3 3 3 3 3 3 3 3 2 3 3 3 2 2 3 3 3 2 3 3 3 3 3 3 3 3 2 4 3 4 4 3 4 3 3 4 3 4 3 3 4 3 3 4 4 4 4 4 4 4 4 4 4 3 4 4 4 4 3 4 3 3 3 3 3 4 3 3 3 3 3 3 4 4 2 4 2 2 2 2 2 2 4 2 3 3 3 4 4 4 6 4 4 4 4 2 6 8 j B # # }.}.}.}.",
"}.}.}.@ g v j t r 7 6 6 2 6 6 7 7 7 6 3 2 4 4 4 4 4 4 4 4 3 3 3 3 3 4 4 4 4 3 3 3 4 3 4 4 4 3 3 3 3 3 2 3 > 2 3 2 3 2 3 3 3 3 3 3 3 3 4 3 3 4 4 4 4 3 3 3 4 3 3 3 3 4 4 3 3 4 4 3 4 3 3 3 3 3 3 4 3 3 4 4 3 4 3 3 3 3 3 3 4 4 3 4 3 3 3 2 4 4 2 4 2 4 2 2 2 2 2 2 8 3 6 3 3 2 4 4 5 4 5 3 0 A B @ # }.}.}.}.",
"}.}.}.& 9 x A f 7 q 6 6 2 6 6 6 6 6 6 5 2 4 4 6 4 4 3 4 3 3 3 3 3 3 4 4 3 3 3 3 3 3 3 3 3 3 3 3 3 3 3 2 3 3 2 2 2 2 2 2 3 3 3 3 3 3 4 3 3 3 4 4 3 3 3 3 3 3 3 3 4 3 3 5 3 3 3 3 3 3 3 5 3 3 3 3 3 3 3 3 3 3 3 3 3 3 3 3 3 3 3 3 3 3 5 3 4 2 2 5 2 2 2 6 2 6 2 < 5 2 2 2 2 2 5 5 5 4 5 2 8 h Z 0 o @ }.}.}.}.",
"}.}.}.}.@ 9 A B 0 6 < > < 2 < < 1 6 < 5 < 2 > 2 2 3 2 2 3 3 3 3 3 3 3 3 3 3 3 3 3 3 3 3 3 3 3 3 > 8 2 2 > 3 > 2 2 2 2 3 2 2 3 3 3 3 2 2 4 3 2 2 3 3 2 3 3 3 2 2 3 3 2 2 3 3 3 2 3 3 3 2 3 3 2 3 3 3 3 2 3 2 3 3 3 3 2 2 3 3 3 2 2 2 3 3 2 2 2 2 2 5 2 > 2 > 2 > > > 5 5 < 2 > 2 > > 5 6 p z q + o O }.}.}.}.",
"}.}.}.}.}.% 9 A d 8 5 < > 2 < < 1 1 5 < > > 5 2 > 2 2 5 2 2 2 2 2 2 2 3 5 2 5 2 2 2 3 5 2 2 2 2 2 2 2 2 2 2 2 2 2 2 > 2 2 2 2 2 2 2 2 2 2 5 2 2 2 2 2 5 5 2 3 2 3 2 2 2 2 2 2 2 2 2 2 2 2 2 2 2 5 2 5 3 3 2 2 2 2 3 2 2 2 2 2 2 5 2 2 2 2 > 2 2 2 > > 5 > > < > - < < - - 5 - < > 5 5 i h 0 X X O X }.}.}.}.",
"}.}.}.}.}.}.% 9 A p q 5 < > < 5 1 q < < < 5 > - 5 2 2 3 2 2 2 3 2 2 2 3 2 2 2 3 2 5 2 3 2 2 2 2 > > > 5 5 - 2 - > 2 5 > 5 2 2 2 2 2 > 5 > 2 2 5 5 2 2 2 2 3 2 5 2 5 5 > 2 2 5 2 2 5 > 5 3 3 5 2 2 2 2 2 2 2 2 2 2 3 2 5 2 5 2 3 5 > < 2 < 2 2 > 5 5 - - , > < > - ; - < < - - > < 5 p z i O X O X . }.}.}.}.",
"}.}.}.}.}.}.- # 8 z p i q 5 q 7 0 0 q q q 5 5 5 6 5 5 5 q q 3 q 3 5 5 8 q 5 3 5 5 5 5 5 3 5 2 5 5 5 5 5 5 5 2 5 3 2 5 3 5 5 5 5 5 4 6 5 4 3 8 5 9 5 8 5 5 5 5 3 5 5 5 5 8 4 8 5 5 5 8 5 5 5 5 3 5 5 3 5 6 8 3 5 5 5 8 5 5 5 5 5 5 5 5 3 5 5 2 q 5 5 5 5 < < 5 5 5 5 < q 5 - < 5 8 p B 8 + X O X .   }.}.}.}.",
"}.}.}.}.}.}.}.- % 0 Z B h B B B S S B B B p p a p p h p p a p a p a p p p d p p p p p a p p p p p p p p i i i a i a p p i p p p p p p p d a d g p p p p h p p p h g p p p p h p g p g p h p p p p h d h d p h p g p p p p p p p a p d p p p p p p 0 0 p a i i 0 i 0 p p p p p p h h q O O O X     }.}.}.}.}.",
"}.}.}.}.}.}.}.}.= # q 0 0 p 0 n n n p 8 8 8 8 a a 8 8 a 8 8 8 a 8 8 a 8 8 i 8 9 a 8 a 5 a 8 8 8 8 8 8 8 8 8 8 8 8 5 8 8 8 9 8 9 a 8 8 i 8 8 a 8 8 a 8 8 9 i a 8 i a a 8 8 8 i 8 a 8 8 8 9 i a 8 8 i 8 i a 8 8 9 i 8 8 i a 5 9 i i 9 8 9 8 8 9 8 8 8 8 8 5 8 8 8 5 8 q 8 8 8 8 8 q 5 O X O X .   }.}.}.}.}.}.",
"}.}.}.}.}.}.}.}.}.}.# # + + o o + O o o X o O O X X X O O o X O O X X O O O O O o o O O X o o X O O O X X X O O O X O O O O O O o o O O O O o o O O o O O O O O o X O O O O O O O O o O O O O O + O O + O O O O O O O + O O O O O O O O O O O O O o O O O O O O O O O O O o X X X X X X X . . }.}.}.}.}.}.}.",
"}.}.}.}.}.}.}.}.}.}.}.% % @ + + O @ @ O O O @ @ O @ @ @ @ @ @ @ @ @ @ @ @ @ @ @ @ @ @ O @ @ @ @ @ @ @ @ O @ @ @ @ @ @ @ @ @ @ @ @ @ @ @ @ @ @ @ @ @ @ @ O @ @ @ O O @ @ @ @ @ @ @ @ @ @ O @ @ @ @ @ O @ @ @ @ @ @ @ O @ O @ @ @ O @ @ O @ @ O @ O O @ O O O O @ @ O @ O O O O O O O X X . . }.}.}.}.}.}.}.}.",
"}.}.}.}.}.}.}.}.}.}.}.}.}.X X X X X O X O O O X X O X X O O O O O O X X X O X X X X O O O O X O X X O O O X X X O O X X O O X X X X O X O X O X X O O O O O X X O O O O X X O O X O O O O O X X X X X O X O O O X X O O O X O O O O X X X X O O O X O X O X X O . X X X X X X X X . . .   }.}.}.}.}.}.}.}.}.",
"}.}.}.}.}.}.}.}.}.}.}.}.}.}.}.}.}.}.}.}.}.}.}.}.}.}.}.}.}.}.}.}.}.}.}.}.}.}.}.}.}.}.}.}.}.}.}.}.}.}.}.}.}.}.}.}.}.}.}.}.}.}.}.}.}.}.}.}.}.}.}.}.}.}.}.}.}.}.}.}.}.}.}.}.}.}.}.}.}.}.}.}.}.}.}.}.}.}.}.}.}.}.}.}.}.}.}.}.}.}.}.}.}.}.}.}.}.}.}.}.}.}.}.}.}.}.}.}.}.}.}.}.}.}.}.}.}.}.}.}.}.}.}.}.}.}.}.}.}.}.",
"}.}.}.}.}.}.}.}.}.}.}.}.}.}.}.}.}.}.}.}.}.}.}.}.}.}.}.}.}.}.}.}.}.}.}.}.}.}.}.}.}.}.}.}.}.}.}.}.}.}.}.}.}.}.}.}.}.}.}.}.}.}.}.}.}.}.}.}.}.}.}.}.}.}.}.}.}.}.}.}.}.}.}.}.}.}.}.}.}.}.}.}.}.}.}.}.}.}.}.}.}.}.}.}.}.}.}.}.}.}.}.}.}.}.}.}.}.}.}.}.}.}.}.}.}.}.}.}.}.}.}.}.}.}.}.}.}.}.}.}.}.}.}.}.}.}.}.}.}.}.",
"}.}.}.}.}.}.}.}.}.}.}.}.}.}.}.}.}.}.}.}.}.}.}.}.}.}.}.}.}.}.}.}.}.}.}.}.}.}.}.}.}.}.}.}.}.}.}.}.}.}.}.}.}.}.}.}.}.}.}.}.}.}.}.}.}.}.}.}.}.}.}.}.}.}.}.}.}.}.}.}.}.}.}.}.}.}.}.}.}.}.}.}.}.}.}.}.}.}.}.}.}.}.}.}.}.}.}.}.}.}.}.}.}.}.}.}.}.}.}.}.}.}.}.}.}.}.}.}.}.}.}.}.}.}.}.}.}.}.}.}.}.}.}.}.}.}.}.}.}.}.",
"}.}.}.}.}.}.}.}.}.}.}.}.}.}.}.}.}.}.}.}.}.}.}.}.}.}.}.}.}.}.}.}.}.}.}.}.}.}.}.}.}.}.}.}.}.}.}.}.}.}.}.}.}.}.}.}.}.}.}.}.}.}.}.}.}.}.}.}.}.}.}.}.}.}.}.}.}.}.}.}.}.}.}.}.}.}.}.}.}.}.}.}.}.}.}.}.}.}.}.}.}.}.}.}.}.}.}.}.}.}.}.}.}.}.}.}.}.}.}.}.}.}.}.}.}.}.}.}.}.}.}.}.}.}.}.}.}.}.}.}.}.}.}.}.}.}.}.}.}.}."
};
