/* XPM */
static char *_645604917756[] = {
/* columns rows colors chars-per-pixel */
"128 128 25 1 ",
"  c black",
". c #151515",
"X c #202020",
"o c gray25",
"O c #911717",
"+ c #932020",
"@ c #942121",
"# c #DC2323",
"$ c #D73535",
"% c #D73F3F",
"& c #BC6038",
"* c #F0A078",
"= c #808080",
"- c #8D8D8D",
"; c #8E8E8E",
": c gray56",
"> c gray57",
", c #929292",
"< c gray58",
"1 c gray59",
"2 c #F8E0B8",
"3 c #C0C0C0",
"4 c #D8D8D8",
"5 c white",
"6 c None",
/* pixels */
"66666666666666666666666666666666666666666666666666666666666666666666666666666666666666666666666666666666666666666666666666666666",
"66666666666666666666666666666666666666666666666666666666666666666666666666666666666666666666666666666666666666666666666666666666",
"666666666666666666666666666666666666666666666666XXXXXXXXXXXXXXXXXXXXXXXX66666666666666666666666666666666666666666666666666666666",
"666666666666666666666666666666666666666666666666XXXXXXXXXXXXXXXXXXXXXXXX66666666666666666666666666666666666666666666666666666666",
"666666666666666666666666666666666666666666XXXXXXXXooooooooooooooooooooooXXXXXX66666666666666666666666666666666666666666666666666",
"666666666666666666666666666666666666666666XXXXXXXXooooooooooooooooooooooXXXXXX66666666666666666666666666666666666666666666666666",
"66666666666666666666666666666666XXXXXXXXXXXXooooooooooooooooooooooooooooooooXX  666666666666666666666666666666666666666666666666",
"66666666666666666666666666666666XXXXXXXXXXXXooooooooooooooooooooooooooooooooXX  666666666666666666666666666666666666666666666666",
"6666666666666666666666666666666666XXooooooooooooooooooooooooooooooooooooooooooXX  6666666666666666666666666666666666666666666666",
"6666666666666666666666666666666666XXooooooooooooooooooooooooooooooooooooooooooXX  6666666666666666666666666666666666666666666666",
"6666666666666666666666666666XXXXXX    XXooooooooooooooooooooooooooooooooooooooooXX  66666666666666666666666666666666666666666666",
"6666666666666666666666666666XXXXXX    XXooooooooooooooooooooooooooooooooooooooooXX  66666666666666666666666666666666666666666666",
"6666666666666666666666XXXXXXooooooooooooooooooooooooooooooooooooooooooooooooooooXXXX  666666666666666666666666666666666666666666",
"6666666666666666666666XXXXXXooooooooooooooooooooooooooooooooooooooooooooooooooooXXXX  666666666666666666666666666666666666666666",
"66666666666666666666666666  XXXXooooooooooooooooooooooooooooooooooooooooooooooXXXXXXooXX6666666666666666666666666666666666666666",
"66666666666666666666666666  XXXXooooooooooooooooooooooooooooooooooooooooooooooXXXXXXooXX6666666666666666666666666666666666666666",
"6666666666666666666666666666    XXooooooooooooooooooooooooooooooooooooooooooooXXooooooooXXXX666666666666666666666666666666666666",
"6666666666666666666666666666    XXooooooooooooooooooooooooooooooooooooooooooooXXooooooooXXXX666666666666666666666666666666666666",
"66666666666666666666666666XXXXXXXXXXooooooooooooooooooooooooooooooooooooooooooooooooooooooooXXXX66666666666666666666666666666666",
"66666666666666666666666666XXXXXXXXXXooooooooooooooooooooooooooooooooooooooooooooooooooooooooXXXX66666666666666666666666666666666",
"666666666666666666666666XX  XXXXXXXXXXXXooooooooooXXooooooooooooooooooooooooooooooooooooooooooXX66666666666666666666666666666666",
"666666666666666666666666XX  XXXXXXXXXXXXooooooooooXXooooooooooooooooooooooooooooooooooooooooooXX66666666666666666666666666666666",
"6666666666666666666666XXXXXXXXXXooooooooooooooooXXooooooooooooooooooooooooXXooooooooooooooooooooXX666666666666666666666666666666",
"6666666666666666666666XXXXXXXXXXooooooooooooooooXXooooooooooooooooooooooooXXooooooooooooooooooooXX666666666666666666666666666666",
"66666666666666666666XXooooooooooooooXXooooooooooooooooooooooXXooooooooooXXXXooooooooooooooooooooXX666666666666666666666666666666",
"66666666666666666666XXooooooooooooooXXooooooooooooooooooooooXXooooooooooXXXXooooooooooooooooooooXX666666666666666666666666666666",
"6666666666666666XXXXooooooooooooooXXooooooooooXXoooooooooo  XXooooooXXXXXXXXooooooooXXooooooooooooXX6666666666666666666666666666",
"6666666666666666XXXXooooooooooooooXXooooooooooXXoooooooooo  XXooooooXXXXXXXXooooooooXXooooooooooooXX6666666666666666666666666666",
"66666666666666    XXXXXXoooooooo  XXooooooXXXXooooooooXX    XXooooXXXXXXXXooooooooooooXXXXXXooooooooXX66666666666666666666666666",
"66666666666666    XXXXXXoooooooo  XXooooooXXXXooooooooXX    XXooooXXXXXXXXooooooooooooXXXXXXooooooooXX66666666666666666666666666",
"66666666666666666666    XXooooooXXooooXXXXXXooooooooXX      ooooXX  XXXXXXooooooooooooooooXXXXXXoooooo  666666666666666666666666",
"66666666666666666666    XXooooooXXooooXXXXXXooooooooXX      ooooXX  XXXXXXooooooooooooooooXXXXXXoooooo  666666666666666666666666",
"6666666666666666666666  ooXXoo  XXoooo  XXXXooooooXX  &&  XXooXXXX**  XXXXooooooooooooooooooXXXXoo  XX    6666666666666666666666",
"6666666666666666666666  ooXXoo  XXoooo  XXXXooooooXX  &&  XXooXXXX**  XXXXooooooooooooooooooXXXXoo  XX    6666666666666666666666",
"66666666666666666666  ooooooooXXooXX    XXooooXX    ****  ooXX  ****&&XXXXooooooooooooooooooXXXXoooo  66666666666666666666666666",
"66666666666666666666  ooooooooXXooXX    XXooooXX    ****  ooXX  ****&&XXXXooooooooooooooooooXXXXoooo  66666666666666666666666666",
"666666666666666666XXoooooooooo  XX  &&XXooXX    **222222  XX  **22****XXXXooooooooXXooooXXooooXXXXoo  66666666666666666666666666",
"666666666666666666XXoooooooooo  XX  &&XXooXX    **222222  XX  **22****XXXXooooooooXXooooXXooooXXXXoo  66666666666666666666666666",
"666666666666666666XXooooXXooXXXX  ****XXXX  **2222222222    **2222****  XXooooooooooooooXXooXXXXXXoo  66666666666666666666666666",
"666666666666666666XXooooXXooXXXX  ****XXXX  **2222222222    **2222****  XXooooooooooooooXXooXXXXXXoo  66666666666666666666666666",
"6666666666666666XXoooooooo  XX  ******    **222222222222222222**&&XX22&&XXooooooooXXooXXXXooXXXXXXXX  66666666666666666666666666",
"6666666666666666XXoooooooo  XX  ******    **222222222222222222**&&XX22&&XXooooooooXXooXXXXooXXXXXXXX  66666666666666666666666666",
"6666666666666666XX  ooXXooXX  XX********222222222222222222**XXXXXX**22**XXooooooooXXooXXXXXXXXXXXXXXXX66666666666666666666666666",
"6666666666666666XX  ooXXooXX  XX********222222222222222222**XXXXXX**22**XXooooooooXXooXXXXXXXXXXXXXXXX66666666666666666666666666",
"66666666666666666666  XXooXX  XX&&**22222222222222222222XXXXXX&&**222222XXooooooooooXXXXXXXXXXXXXXXXXX  666666666666666666666666",
"66666666666666666666  XXooXX  XX&&**22222222222222222222XXXXXX&&**222222XXooooooooooXXXXXXXXXXXXXXXXXX  666666666666666666666666",
"66666666666666666666  XXooXX  &&XX&&**222222222222**&&XXXX****2222222222XXXXoooo  ooXXXXXX  XXXXXXXXXX  666666666666666666666666",
"66666666666666666666  XXooXX  &&XX&&**222222222222**&&XXXX****2222222222XXXXoooo  ooXXXXXX  XXXXXXXXXX  666666666666666666666666",
"66666666666666666666XXoooooo  **22XXXX**&&22222222XXXX********2222222222**XXooXX  ooXXXX  XXXXXXXXXXoo  666666666666666666666666",
"66666666666666666666XXoooooo  **22XXXX**&&22222222XXXX********2222222222**XXooXX  ooXXXX  XXXXXXXXXXoo  666666666666666666666666",
"666666666666666666XXooooXXoo  **2222****  2222222222**************22222222XXooXX  ooXX  XXXXXXXX  XXXX  666666666666666666666666",
"666666666666666666XXooooXXoo  **2222****  2222222222**************22222222XXooXX  ooXX  XXXXXXXX  XXXX  666666666666666666666666",
"666666666666666666XXoooo  oo  22**&&      **22222222**&&      &&******22**XXooXX  XXXXXX      XXXX  XXXX  6666666666666666666666",
"666666666666666666XXoooo  oo  22**&&      **22222222**&&      &&******22**XXooXX  XXXXXX      XXXX  XXXX  6666666666666666666666",
"666666666666666666XXoooo  XX  **22222222&&**22222222222222222222**&&**22&&XXooXX  XXXX  ******  XX  XXoo  6666666666666666666666",
"666666666666666666XXoooo  XX  **22222222&&**22222222222222222222**&&**22&&XXooXX  XXXX  ******  XX  XXoo  6666666666666666666666",
"666666666666666666XXooXX  XX  2222222222&&**2222222222222222222222222222XXooooXXXXXX  &&&&&&****XXXX  XX  6666666666666666666666",
"666666666666666666XXooXX  XX  2222222222&&**2222222222222222222222222222XXooooXXXXXX  &&&&&&****XXXX  XX  6666666666666666666666",
"666666666666666666XXoo    XXXX2222222222**222222222222222222222222222222XXoooo  ooXX  &&****&&**  oo      6666666666666666666666",
"666666666666666666XXoo    XXXX2222222222**222222222222222222222222222222XXoooo  ooXX  &&****&&**  oo      6666666666666666666666",
"666666666666666666XXXX  --  XX**22222222**222222222222222222222222222222  ooXX  ooXX  **&&**&&**  oo  --  6666666666666666666666",
"666666666666666666XXXX  --  XX**22222222**222222222222222222222222222222  ooXX  ooXX  **&&**&&**  oo  --  6666666666666666666666",
"666666666666666666XX  ----  XX**222222**222222222222222222222222222222**ooooXX  ooXX  ********    XX  --666666666666666666666666",
"666666666666666666XX  ----  XX**222222**222222222222222222222222222222**ooooXX  ooXX  ********    XX  --666666666666666666666666",
"666666666666666666  ------  XX&&222222&&222222222222222222222222222222  ooXX  ooXXXX  &&**&&  XX  XX  ----6666666666666666666666",
"666666666666666666  ------  XX&&222222&&222222222222222222222222222222  ooXX  ooXXXX  &&**&&  XX  XX  ----6666666666666666666666",
"66666666666666666666------  XX&&222222&&**2222**2222222222222222222222  XXXX  XXXX  &&**&&  XX    XX  ----6666666666666666666666",
"66666666666666666666------  XX&&222222&&**2222**2222222222222222222222  XXXX  XXXX  &&**&&  XX    XX  ---16666666666666666666666",
"6666666666666666666666>>----XX  **222222  22&&222222222222222222222222  XX  XXXXXX  &&    XXXX    XX  ----6666666666666666666666",
"66666666666666666666661>----XX  **222222  22&&222222222222222222222222  XX  XXXXXX  &&    XXXX    XX  ----6666666666666666666666",
"6666666666666666666666------  XX**222222222222222222222222222222222222    **  XXXX      XXXXXX    XX  ------66666666666666666666",
"6666666666666666666666------  XX**222222222222222222222222222222222222    **  XXXX      XXXXXX    XX  ------66666666666666666666",
"666666666666666666666666----  XX&&2222222222222222**&&&&**2222222222**  **    XX    XX  XXXX    --    ------66666666666666666666",
"666666666666666666666666----  XX&&2222222222222222**&&&&**2222222222**  **    XX    XX  XXXX    --    ------66666666666666666666",
"6666666666666666666666661>--  XX  **2222&&&&&&****33555555&&22222222  2222  XX    XXXX  XXXX  ----    ------66666666666666666666",
"666666666666666666666666>1--  XX  **2222&&&&&&****33555555&&22222222  2222  XX    XXXX  XXXX  ----    ------66666666666666666666",
"666666666666666666666666------  XX&&**2222&&555555555533==55&&2222222222  XX  XX  XX    XXXX  ------  --------666666666666666666",
"666666666666666666666666------  XX&&**2222&&555555555533==55&&2222222222  XX  XX  XX    XXXX  ------  --------666666666666666666",
"66666666666666666666666666----  XX  &&2222&&3333====33555533&&222222**  XX      XX      XXXX---------------->>666666666666666666",
"66666666666666666666666666----  XX  &&2222&&3333====33555533&&222222**  XX      XX      XXXX---------------->>666666666666666666",
"66666666666666666666666666------    --&&22**55555555555533&&**222222        XX    XX  XXXX  ------------------446666666666666666",
"66666666666666666666666666------    --&&22**55555555555533&&**222222        XX    XX  XXXX  ------------------446666666666666666",
"66666666666666666666666666------  ----  &&22****&&&&&&&&&&22222222**&&          XXXX  XXXX  --------------------6666666666666666",
"66666666666666666666666666------  ----  &&22****&&&&&&&&&&22222222**&&          XXXX  XXXX  --------------------6666666666666666",
"6666666666666666666666666666------------  **22222222222222222222**    &&**  &&  XX    XX  --------------------->6666666666666666",
"6666666666666666666666666666------------  **22222222222222222222**    &&**  &&  XX    XX  -------------------->-6666666666666666",
"6666666666666666666666666666--------------  **2222222222****      &&********&&        XX  ------------------------66666666666666",
"6666666666666666666666666666--------------  **2222222222****      &&********&&        XX  ------------------------66666666666666",
"6666666666666666666666666666----------------                &&********2222**          XX  ------------------------66666666666666",
"6666666666666666666666666666----------------                &&********2222**          XX  ------------------------66666666666666",
"666666666666666666666666666666------------    OO  &&********************&&  OOOO    XX----------------------------66666666666666",
"666666666666666666666666666666------------    OO  &&********************&&  OOOO    XX----------------------------66666666666666",
"666666666666666666666666666666----------  OO  OO  ****222222**********    OO##OO  --  ----------------------------66666666666666",
"666666666666666666666666666666----------  OO  OO  ****222222**********    OO##OO  --  ----------------------------66666666666666",
"666666666666666666666666666666--------OO######    &&************      OO######  OO  --------------------------666666666666666666",
"666666666666666666666666666666--------OO######    &&************      OO######  OO  --------------------------666666666666666666",
"66666666666666666666666666666666------  ########OO              OO##########OO  OO  ----------------->----6666666666666666666666",
"66666666666666666666666666666666------  ########OO              OO##########OO  OO  ---------------->>----6666666666666666666666",
"66666666666666666666666666666666------  OO##################################  OOOO    --------->----6666666666666666666666666666",
"66666666666666666666666666666666------  OO##################################  OOOO    --------------6666666666666666666666666666",
"66666666666666666666666666666666--------  OOOO############################  OOOO  OO  --------6666666666666666666666666666666666",
"66666666666666666666666666666666--------  OOOO############################  OOOO  OO  --------6666666666666666666666666666666666",
"6666666666666666666666666666666666------  OOOOOOOOOOOOOOOOOOOOOO########OOOOOO  OO  ..--6666666666666666666666666666666666666666",
"6666666666666666666666666666666666------  OOOOOOOOOOOOOOOOOOOOOO########OOOOOO  OO  ..--6666666666666666666666666666666666666666",
"6666666666666666666666666666666666----        OOOOOOOOOOOO############OOOOOOOOOO    66666666666666666666666666666666666666666666",
"6666666666666666666666666666666666----        OOOOOOOOOOOO############OOOOOOOOOO    66666666666666666666666666666666666666666666",
"6666666666666666666666666666666666--        OOOOOOOOOOOO############OOOOOO@@OO  666666666666666666666666666666666666666666666666",
"6666666666666666666666666666666666--        OOOOOOOOOOOO############OOOOOO@@OO  666666666666666666666666666666666666666666666666",
"6666666666666666666666666666666666--    OO  OOOOOOOO############OOOOOOOO     666666666666666666666666666666666666666666666666666",
"6666666666666666666666666666666666--    OO  OOOOOOOO############OOOOOOOO     666666666666666666666666666666666666666666666666666",
"666666666666666666666666666666666666  ##OO    OO############OOOOOO     666666666666666666666666666666666666666666666666666666666",
"666666666666666666666666666666666666  ##OO    OO############OOOOOO     666666666666666666666666666666666666666666666666666666666",
"666666666666666666666666666666666666  ######    OOOOOOOOOOOO     666666666666666666666666666666666666666666666666666666666666666",
"666666666666666666666666666666666666  ######    OOOOOOOO++OO     666666666666666666666666666666666666666666666666666666666666666",
"666666666666666666666666666666666666  ############%%       666666666666666666666666666666666666666666666666666666666666666666666",
"666666666666666666666666666666666666  ############%%       666666666666666666666666666666666666666666666666666666666666666666666",
"66666666666666666666666666666666666666  ####$$     66666666666666666666666666666666666666666666666666666666666666666666666666666",
"66666666666666666666666666666666666666  ####$$     66666666666666666666666666666666666666666666666666666666666666666666666666666",
"6666666666666666666666666666666666666666     66666666666666666666666666666666666666666666666666666666666666666666666666666666666",
"66666666666666666666666666666666666666666666666666666666666666666666666666666666666666666666666666666666666666666666666666666666",
"66666666666666666666666666666666666666666666666666666666666666666666666666666666666666666666666666666666666666666666666666666666",
"66666666666666666666666666666666666666666666666666666666666666666666666666666666666666666666666666666666666666666666666666666666",
"66666666666666666666666666666666666666666666666666666666666666666666666666666666666666666666666666666666666666666666666666666666",
"66666666666666666666666666666666666666666666666666666666666666666666666666666666666666666666666666666666666666666666666666666666",
"66666666666666666666666666666666666666666666666666666666666666666666666666666666666666666666666666666666666666666666666666666666",
"66666666666666666666666666666666666666666666666666666666666666666666666666666666666666666666666666666666666666666666666666666666",
"66666666666666666666666666666666666666666666666666666666666666666666666666666666666666666666666666666666666666666666666666666666",
"66666666666666666666666666666666666666666666666666666666666666666666666666666666666666666666666666666666666666666666666666666666"
};
