/* XPM */
static char *_645605351034[] = {
/* columns rows colors chars-per-pixel */
"128 128 25 1 ",
"  c black",
". c #151515",
"X c #202020",
"o c #2F2F2F",
"O c gray25",
"+ c #911717",
"@ c #932020",
"# c #942121",
"$ c #DC2323",
"% c #D73535",
"& c #D73F3F",
"* c #BC6038",
"= c #EFA078",
"- c #F0A078",
"; c #8D8D8D",
": c #8E8E8E",
"> c #909090",
", c gray57",
"< c #F3B890",
"1 c #F3C098",
"2 c #F5C9A0",
"3 c #F6D4AC",
"4 c #F7E0B8",
"5 c #F8E0B8",
"6 c None",
/* pixels */
"66666666666666666666666666666666666666666666666666666666666666666666666666666666666666666666666666666666666666666666666666666666",
"66666666666666666666666666666666666666666666666666666666666666666666666666666666666666666666666666666666666666666666666666666666",
"666666666666666666666666666666666666666666666666666666XXXXXXXXXXXXXXXX6666666666666666666666666666666666666666666666666666666666",
"666666666666666666666666666666666666666666666666666666XXXXXXXXXXXXXXXX6666666666666666666666666666666666666666666666666666666666",
"6666666666666666666666666666666666666666666666XXXXXXXXXXOOOOOOOOOOOOOOXXXXXX6666666666666666666666666666666666666666666666666666",
"6666666666666666666666666666666666666666666666XXXXXXXXXXOOOOOOOOOOOOOOXXXXXX6666666666666666666666666666666666666666666666666666",
"6666666666666666666666666666666666666666XXXXXXOOOOOOOOOOOOOOOOOOOOOOOOOOOOXX  66666666666666666666666666666666666666666666666666",
"6666666666666666666666666666666666666666XXXXXXOOOOOOOOOOOOOOOOOOOOOOOOOOOOXX  66666666666666666666666666666666666666666666666666",
"666666666666666666666666666666XXXXXXXXXXXXOOOOOOOOOOOOOOOOOOOOOOOOOOOOOOOOOOXX  666666666666666666666666666666666666666666666666",
"666666666666666666666666666666XXXXXXXXXXXXOOOOOOOOOOOOOOOOOOOOOOOOOOOOOOOOOOXX  666666666666666666666666666666666666666666666666",
"66666666666666666666666666666666XXOOOOOOOOOOOOOOOOOOOOOOOOOOOOOOOOOOOOOOOOOOOOXX    66666666666666666666666666666666666666666666",
"66666666666666666666666666666666XXOOOOOOOOOOOOOOOOOOOOOOOOOOOOOOOOOOOOOOOOOOOOXX    66666666666666666666666666666666666666666666",
"66666666666666666666666666XXXXXX    XXOOOOOOOOOOOOOOOOOOOOOOOOOOOOOOOOOOOOOOOOXXXXOOXX666666666666666666666666666666666666666666",
"66666666666666666666666666XXXXXX    XXOOOOOOOOOOOOOOOOOOOOOOOOOOOOOOOOOOOOOOOOXXXXOOXX666666666666666666666666666666666666666666",
"66666666666666666666XXXXXXOOOOOOOOOOOOOOOOOOOOOOOOOOOOOOOOOOOOOOOOOOOOOOOOOOXXXXXXOOOOXXXX66666666666666666666666666666666666666",
"66666666666666666666XXXXXXOOOOOOOOOOOOOOOOOOOOOOOOOOOOOOOOOOOOOOOOOOOOOOOOOOXXXXXXOOOOXXXX66666666666666666666666666666666666666",
"666666666666666666666666  XXXXOOOOOOOOOOOOOOOOOOOOOOOOOOOOOOOOOOOOOOOOOOOOOOXXOOOOOOOOOOOOXXXX6666666666666666666666666666666666",
"666666666666666666666666  XXXXOOOOOOOOOOOOOOOOOOOOOOOOOOOOOOOOOOOOOOOOOOOOOOXXOOOOOOOOOOOOXXXX6666666666666666666666666666666666",
"66666666666666666666666666    XXOOOOOOOOOOOOOOOOOOOOOOOOOOOOOOOOOOOOOOOOOOOOOOOOOOOOOOOOOOOOXX6666666666666666666666666666666666",
"66666666666666666666666666    XXOOOOOOOOOOOOOOOOOOOOOOOOOOOOOOOOOOOOOOOOOOOOOOOOOOOOOOOOOOOOXX6666666666666666666666666666666666",
"666666666666666666666666  XXXXXXXXOOOOOOOOOOOOOOXXOOOOOOOOOOOOOOOOOOOOOOOOOOOOOOOOOOOOOOOOOOOOXX66666666666666666666666666666666",
"666666666666666666666666  XXXXXXXXOOOOOOOOOOOOOOXXOOOOOOOOOOOOOOOOOOOOOOOOOOOOOOOOOOOOOOOOOOOOXX66666666666666666666666666666666",
"6666666666666666666666XXXXXXXXOOOOOOOOOOOOOOOOXXOOOOOOOOOOOOOOOOOOOOOOOOXXOOOOOOOOOOOOOOOOOOOOXX66666666666666666666666666666666",
"6666666666666666666666XXXXXXXXOOOOOOOOOOOOOOOOXXOOOOOOOOOOOOOOOOOOOOOOOOXXOOOOOOOOOOOOOOOOOOOOXX66666666666666666666666666666666",
"66666666666666666666XXXXOOOOOOOOOOXXOOOOOOOOOOOOOOOOOOOOOOXXOOOOOOOOOOXXXXOOOOOOOOOOOOOOOOOOOOOOXX666666666666666666666666666666",
"66666666666666666666XXXXOOOOOOOOOOXXOOOOOOOOOOOOOOOOOOOOOOXXOOOOOOOOOOXXXXOOOOOOOOOOOOOOOOOOOOOOXX666666666666666666666666666666",
"666666666666666666XXOOOOOOOOOOOOXXOOOOOOOOOOXXOOOOOOOOOO  XXOOOOOOXXXXXXXXOOOOOOOOXXOOOOOOOOOOOOOOXX6666666666666666666666666666",
"666666666666666666XXOOOOOOOOOOOOXXOOOOOOOOOOXXOOOOOOOOOO  XXOOOOOOXXXXXXXXOOOOOOOOXXOOOOOOOOOOOOOOXX6666666666666666666666666666",
"66666666666666XXXXOOOOOOOOOOOO  XXOOOOOOXXXXOOOOOOOOXX    XXOOOOXXXXXXXXOOOOOOOOOOOOXXXXXXOOOOOOOOOO  66666666666666666666666666",
"66666666666666XXXXOOOOOOOOOOOO  XXOOOOOOXXXXOOOOOOOOXX    XXOOOOXXXXXXXXOOOOOOOOOOOOXXXXXXOOOOOOOOOO  66666666666666666666666666",
"666666666666    XXXXXXOOOOOOOOXXOOOOXXXXXXOOOOOOOOXX      OOOOXX  XXXXXXOOOOOOOOOOOOOOOOXXXXXXOO  XX    666666666666666666666666",
"666666666666    XXXXXXOOOOOOOOXXOOOOXXXXXXOOOOOOOOXX      OOOOXX  XXXXXXOOOOOOOOOOOOOOOOXXXXXXOO  XX    666666666666666666666666",
"666666666666666666    XXXXOO  XXOOOO  XXXXOOOOOOXX  **  XXOOXXXX--  XXXXOOOOOOOOOOOOOOOOOOXXXXOOOO  6666666666666666666666666666",
"666666666666666666    XXXXOO  XXOOOO  XXXXOOOOOOXX  **  XXOOXXXX--  XXXXOOOOOOOOOOOOOOOOOOXXXXOOOO  6666666666666666666666666666",
"66666666666666666666  OOOOOOXXOOXX    XXOOOOXX    ----  OOXX  ----**XXXXOOOOOOOOOOOOOOOOOOXXXXXXOO  6666666666666666666666666666",
"66666666666666666666  OOOOOOXXOOXX    XXOOOOXX    ----  OOXX  ----**XXXXOOOOOOOOOOOOOOOOOOXXXXXXOO  6666666666666666666666666666",
"666666666666666666  OOOOOOOO  XX  **XXOOXX    --555555  XX  --55----XXXXOOOOOOOOXXOOOOXXOOOOXXXXOO  6666666666666666666666666666",
"666666666666666666  OOOOOOOO  XX  **XXOOXX    --555555  XX  --55----XXXXOOOOOOOOXXOOOOXXOOOOXXXXOO  6666666666666666666666666666",
"6666666666666666XXOOOOOOOOXXXX  ----XXXX  --5555555555    --5555----  XXOOOOOOOOOOOOOOXXOOXXXXXXXX  6666666666666666666666666666",
"6666666666666666XXOOOOOOOOXXXX  ----XXXX  --5555555555    --5555----  XXOOOOOOOOOOOOOOXXOOXXXXXXXX  6666666666666666666666666666",
"6666666666666666XXOOOOXX  XX  ------    --555555555555----55555555--**XXOOOOOOOOXXOOXXXXOOXXXXXXXXXX6666666666666666666666666666",
"6666666666666666XXOOOOXX  XX  ------    --555555555555----55555555--**XXOOOOOOOOXXOOXXXXOOXXXXXXXXXX6666666666666666666666666666",
"66666666666666XXOOOOOOOOXX  XXXX**55----555555555555--XXXX**--555555--XXOOOOOOOOXXOOXXXXXXXXXXXXXXXX  66666666666666666666666666",
"66666666666666XXOOOOOOOOXX  XXXX**55----555555555555--XXXX**--555555--XXOOOOOOOOXXOOXXXXXXXXXXXXXXXX  66666666666666666666666666",
"66666666666666XX  OOXXOOXX  XX------55555555555555XXXXXXXXXXXX**555555XXOOOOOOOOOOXXXXXXXXXXXXXXXXXX  66666666666666666666666666",
"66666666666666XX  OOXXOOXX  XX------55555555555555XXXXXXXXXXXX**555555XXOOOOOOOOOOXXXXXXXXXXXXXXXXXX  66666666666666666666666666",
"666666666666666666  XXOOXX  **--------5555555555------------**XX**5555XXXXOOOO  OOXXXXXX  XXXXXXXXOO  66666666666666666666666666",
"666666666666666666  XXOOXX  **--------5555555555------------**XX**5555XXXXOOOO  OOXXXXXX  XXXXXXXXOO  66666666666666666666666666",
"666666666666666666  XXOOOO  ----------**55555555----------------XXXX55--XXOOXX  OOXXXX  XXXXXX  XXXX  66666666666666666666666666",
"666666666666666666  XXOOOO  ----------**55555555----------------XXXX55--XXOOXX  OOXXXX  XXXXXX  XXXX  66666666666666666666666666",
"666666666666666666XXOOOOOO  **    **--  5555555555------------5555555555XXOOXX  OOXX  XXXXXXXXXX  XXXX  666666666666666666666666",
"666666666666666666XXOOOOOO  **    **--  5555555555------------5555555555XXOOXX  OOXX  XXXXXXXXXX  XXXX  666666666666666666666666",
"6666666666666666XXOOOOXXOO  **5555      --55555555**        **--555555--XXOOXX  XXXXXX      XXXX  XXOO  666666666666666666666666",
"6666666666666666XXOOOOXXOO  **5555      --55555555**        **--555555--XXOOXX  XXXXXX      XXXX  XXOO  666666666666666666666666",
"6666666666666666XXOOOO  XX  5555555555**--55555555555555555555****--55**XXOOXX  XXXX  ------  XXXX  XX  666666666666666666666666",
"6666666666666666XXOOOO  XX  5555555555**--55555555555555555555****--55**XXOOXX  XXXX  ------  XXXX  XX  666666666666666666666666",
"6666666666666666XXOOOO  XX  5555555555**--5555555555555555555555555555XXOOOOXXXXXX  ******----  OO      666666666666666666666666",
"6666666666666666XXOOOO  XX  5555555555**--5555555555555555555555555555XXOOOOXXXXXX  ******----  OO      666666666666666666666666",
"6666666666666666XXOOOO  XXXX5555555555--555555555555555555555555555555XXOOOO  OOXX  **----**--  OO  ;;  666666666666666666666666",
"6666666666666666XXOOOO  XXXX5555555555--555555555555555555555555555555XXOOOO  OOXX  **----**--  OO  ;;  666666666666666666666666",
"6666666666666666XXOOXX    XX--55555555--555555555555555555555555555555  OOXX  OOXX  --**--**--  XX  ;;;;666666666666666666666666",
"6666666666666666XXOOXX    XX--55555555--555555555555555555555555555555  OOXX  OOXX  --**--**--  XX  ;;;;666666666666666666666666",
"6666666666666666XXOO  ;;  XX--555555--555555555555555555555555555555--OOOOXX  OOXX  --------    XX  ;;;;666666666666666666666666",
"6666666666666666XXOO  ;;  XX--555555--555555555555555555555555555555--OOOOXX  OOXX  --------    XX  ;;;;666666666666666666666666",
"6666666666666666XX  ;;;;  XX**555555**555555555555555555555555555555  OOXX  OOXXXX  **--**  XX  XX  ;;;;;;6666666666666666666666",
"6666666666666666XX  ;;;;  XX**555555**555555555555555555555555555555  OOXX  OOXXXX  **--**  XX  XX  ;;;;;;6666666666666666666666",
"6666666666666666  66;;;;  XX**555555**--5555--5555555555555555555555  XXXX  XXXX  **--**  XXXX  XX  ;;;;;;6666666666666666666666",
"6666666666666666  66;;;;  XX**555555**--5555--5555555555555555555555  XXXX  XXXX  **--**  XXXX  XX  ;;;;;;6666666666666666666666",
"6666666666666666666666;;  XX  --555555  55**555555555555555555555555  XX  XXXXXX  **    XXXXXX  XX  ;;;;;;6666666666666666666666",
"6666666666666666666666;;  XX  --555555  55**555555555555555555555555  XX  XXXXXX  **    XXXXXX  XX  ;;;;;;6666666666666666666666",
"6666666666666666666666;;  XXXX--555555555555555555555555555555555555    --  XXXX      XXXXXXXX;;    ;;;;;;;;66666666666666666666",
"6666666666666666666666;;  XXXX--555555555555555555555555555555555555    --  XXXX      XXXXXXXX;;    ;;;;;;;;66666666666666666666",
"666666666666666666666666;;  XX**55555555555555555555555555--555555--  --    XX      XX  XXXX  ;;    ;;;;;;;;66666666666666666666",
"666666666666666666666666;;  XX**55555555555555555555555555--555555--  --    XX      XX  XXXX  ;;    ;;;;;;;;66666666666666666666",
"666666666666666666666666;;  XX  --555555--555555555555--**55555555  5555  XX    XXXXXX  XXXX  ;;;;  ;;;;;;;;66666666666666666666",
"666666666666666666666666;;  XX  --555555--555555555555--**55555555  5555  XX    XXXXXX  XXXX  ;;;;  ;;;;;;;;66666666666666666666",
"666666666666666666666666;;  XXXX**--555555**      **--5555555555555555  XX  XX  XXXXXX  XXXX  ;;;;;;;;;;;;;;;;666666666666666666",
"666666666666666666666666;;  XXXX**=-555555**      **--5555555555555555  XX  XX  XXXXXX  XXXX  ;;;;;;;;;;;;;;;;666666666666666666",
"66666666666666666666666666;;  XX  **555555555555555555555555555555--  XX      XX  XX    XXXX;;;;;;;;;;;;;;;;;;666666666666666666",
"66666666666666666666666666;;  XX  **555525555555555555555555555555--  XX      XX  XX    XXXX;;;;;;;;;;;;;;;;;;;;6666666666666666",
"66666666666666666666666666;;  XX  ;;**55545555----55555555555555-<        XX    XXXX  XXXX  ;;;;;;;;;;;;;;;;;;;;6666666666666666",
"66666666666666666666666666;;  XX  ;;**55553555----5555555555555515        XX    XXXX  XXXX  ;;;;;;;;;;;;;;;;;;;;6666666666666666",
"66666666666666666666666666;;;;  ;;;;;;  555555555555555555555555--**          XXXXXX  XXXX  ;;;;;;;;;;;;;;;;;;;,6666666666666666",
"66666666666666666666666666;;;;  ;;;;;;  555455555555555555555555--**          XXXXXX  XXXX  ;;;;;;;;;;;;;;;;;;;,6666666666666666",
"6666666666666666666666666666;;  ;;;;;;;;  555555555555555555----    **--  **  XXXX    XX  ;;;;;;;;;;;;;;;;;;;;;;6666666666666666",
"6666666666666666666666666666;;  ;;;;;;;;  555555555555555555----    **--  **  XXXX    XX  ;;;;;;;;;;;;;;;;;;;;;;6666666666666666",
"6666666666666666666666666666;;;;;;;;;;;;;;  5555555555----      **--------**    XX  ;;XX  ;;;;;;;;;;;;;;;;;;;;;;,;66666666666666",
"6666666666666666666666666666;;;;;;;;;;;;;;  5555555555----      **--------**    XX  ;;XX  ;;;;;;;;;;;;;;;;;;;;;;;,66666666666666",
"6666666666666666666666666666;;;;;;;;;;;;;;;;              **--------5555--      XX  ;;XX  ;;;;;;;;;;;;;;;;;;;;;;;,66666666666666",
"6666666666666666666666666666;;;;;;;;;;;;;;;;              **--------5555--      XX  ;;XX  ;;;;;;;;;;;;;;;;;;;;;;;;66666666666666",
"666666666666666666666666666666;;;;;;;;;;;;    ++  **--------------------**  ++++    ;;XX;;;;;;;;;;;;;;;;;;;;;;;;;;66666666666666",
"666666666666666666666666666666;;;;;;;;;;;;    ++  **--------------------**  ++++    ;;XX;;;;;;;;;;;;;;;;;;;;;;;;;;66666666666666",
"666666666666666666666666666666;;;;;;;;;;  ++  ++  ----555555----------    ++$$++  ;;;;  ;;;;;;;;;;;;;;;;;;;;;;;;;;66666666666666",
"666666666666666666666666666666;;;;;;;;;;  ++  ++  ----555555----------    ++$$++  ;;;;  ;;;;;;;;;;;;;;;;;;;;;;;;;;66666666666666",
"666666666666666666666666666666;;;;;;;;++$$$$$$    **------------      ++$$$$$$  ++  ;;;;;;;;;;;;;;;;;;;;;;;;;;666666666666666666",
"66666666666666666666666666666666;;;;;;++$$$$$$    **==----------      ++$$$$$$  ++  ;;;;;;;;;;;;;;;;;;;;;;;;;;666666666666666666",
"66666666666666666666666666666666;;;;;;  $$$$$$$$++              ++$$$$$$$$$$++  ++  ;;;;;;;;;;;;;;;;;;;;;;6666666666666666666666",
"66666666666666666666666666666666;;;;;;  $$$$$$$$++              ++$$$$$$$$$$++  ++  ;;;;;;;;;;;;;;;;;;;;;;6666666666666666666666",
"66666666666666666666666666666666;;;;;;  ++$$$$$$$$$$$$$$$$$$$$$$$$$$$$$$$$$$  ++++    ;;;;;;;;;;;;;;6666666666666666666666666666",
"66666666666666666666666666666666;;;;;;  ++$$$$$$$$$$$$$$$$$$$$$$$$$$$$$$$$$$  ++++    ;;;;;;;;;;;;;;6666666666666666666666666666",
"66666666666666666666666666666666;;;;;;;;  ++++$$$$$$$$$$$$$$$$$$$$$$$$$$$$  ++++  ++  ;;;;;;;;6666666666666666666666666666666666",
"66666666666666666666666666666666;;;;;;;;  ++++$$$$$$$$$$$$$$$$$$$$$$$$$$$$  ++++  ++  ;;;;;;;;6666666666666666666666666666666666",
"6666666666666666666666666666666666;;;;;;  ++++++++++++++++++++++$$$$$$$$++++++  ++  ..;;6666666666666666666666666666666666666666",
"6666666666666666666666666666666666;;;;;;  ++++++++++++++++++++++$$$$$$$$++++++  ++  ..;;6666666666666666666666666666666666666666",
"6666666666666666666666666666666666;;;;        ++++++++++++$$$$$$$$$$$$++++++++++    66666666666666666666666666666666666666666666",
"6666666666666666666666666666666666;;;;        ++++++++++++$$$$$$$$$$$$++++++++++    66666666666666666666666666666666666666666666",
"6666666666666666666666666666666666;;        ++++++++++++$$$$$$$$$$$$++++++##++  666666666666666666666666666666666666666666666666",
"6666666666666666666666666666666666;;        ++++++++++++$$$$$$$$$$$$++++++##++  666666666666666666666666666666666666666666666666",
"6666666666666666666666666666666666;;    ++  ++++++++$$$$$$$$$$$$++++++++     666666666666666666666666666666666666666666666666666",
"6666666666666666666666666666666666;;    ++  ++++++++$$$$$$$$$$$$++++++++     666666666666666666666666666666666666666666666666666",
"666666666666666666666666666666666666  $$++    ++$$$$$$$$$$$$++++++     666666666666666666666666666666666666666666666666666666666",
"666666666666666666666666666666666666  $$++    ++$$$$$$$$$$$$++++++     666666666666666666666666666666666666666666666666666666666",
"66666666666666666666666666666666666o  $$$$$$    ++++++++++++     666666666666666666666666666666666666666666666666666666666666666",
"666666666666666666666666666666666666  $$$$$$    ++++++++##++     666666666666666666666666666666666666666666666666666666666666666",
"666666666666666666666666666666666666  $$$$$$$$$$$$&&       666666666666666666666666666666666666666666666666666666666666666666666",
"666666666666666666666666666666666666  $$$$$$$$$$$$&&       666666666666666666666666666666666666666666666666666666666666666666666",
"666666666666666666666666666666666666    $$$$%%     66666666666666666666666666666666666666666666666666666666666666666666666666666",
"666666666666666666666666666666666666    $$$$%%     66666666666666666666666666666666666666666666666666666666666666666666666666666",
"6666666666666666666666666666666666666666     66666666666666666666666666666666666666666666666666666666666666666666666666666666666",
"66666666666666666666666666666666666666666666666666666666666666666666666666666666666666666666666666666666666666666666666666666666",
"66666666666666666666666666666666666666666666666666666666666666666666666666666666666666666666666666666666666666666666666666666666",
"66666666666666666666666666666666666666666666666666666666666666666666666666666666666666666666666666666666666666666666666666666666",
"66666666666666666666666666666666666666666666666666666666666666666666666666666666666666666666666666666666666666666666666666666666",
"66666666666666666666666666666666666666666666666666666666666666666666666666666666666666666666666666666666666666666666666666666666",
"66666666666666666666666666666666666666666666666666666666666666666666666666666666666666666666666666666666666666666666666666666666",
"66666666666666666666666666666666666666666666666666666666666666666666666666666666666666666666666666666666666666666666666666666666",
"66666666666666666666666666666666666666666666666666666666666666666666666666666666666666666666666666666666666666666666666666666666",
"66666666666666666666666666666666666666666666666666666666666666666666666666666666666666666666666666666666666666666666666666666666"
};
