/* XPM */
static char *_645528677939[] = {
/* columns rows colors chars-per-pixel */
"128 128 76 1 ",
"  c black",
". c #151515",
"X c #202020",
"o c #2F2F2F",
"O c #353535",
"+ c #3C3C3C",
"@ c #023368",
"# c gray25",
"$ c #585858",
"% c gray44",
"& c gray49",
"* c #911717",
"= c #932020",
"- c #942121",
"; c #9A3636",
": c #DC2323",
"> c #D73535",
", c #D73F3F",
"< c #BC6038",
"1 c #AB5555",
"2 c #B26161",
"3 c #B36969",
"4 c #DF5252",
"5 c #F0A078",
"6 c #045EBF",
"7 c #7291FC",
"8 c #808080",
"9 c #868686",
"0 c #8D8D8D",
"q c #8E8E8E",
"w c gray56",
"e c gray57",
"r c #929292",
"t c gray58",
"y c gray59",
"u c #979797",
"i c gray60",
"p c gray61",
"a c #9F9F9F",
"s c gray63",
"d c #ACACAC",
"f c #B1B1B1",
"g c gray70",
"h c #B4B4B4",
"j c #B6B6B6",
"k c #B9B9B9",
"l c #BBBBBB",
"z c #BCBCBC",
"x c gray",
"c c #E29393",
"v c #E3AFAF",
"b c #F8E0B8",
"n c #9FCCFD",
"m c #C0C0C0",
"M c #C1C1C1",
"N c gray77",
"B c #C6C6C6",
"V c gray84",
"C c #D8D8D8",
"Z c gray85",
"A c #DADADA",
"S c gray86",
"D c #DDDDDD",
"F c gray87",
"G c gray88",
"H c #E1E1E1",
"J c gray89",
"K c gray90",
"L c #E6E6E6",
"P c gray91",
"I c #F8F8F8",
"U c gray98",
"Y c #FBFBFB",
"T c #FDFDFD",
"R c #FEFEFE",
"E c None",
/* pixels */
"EEEEEEEEEEEEEEEEEEEEEEEEEEEEEEEEEEEEEEEEEEEEEEEEEEEEEEEEEEEEEEEEEEEEEEEEEEEEEEEEEEEEEEEEEEEEEEEEEEEEEEEEEEEEEEEEEEEEEEEEEEEEEEEE",
"EEEEEEEEEEEEEEEEEEEEEEEEEEEEEEEEEEEEEEEEEEEEEEEEEEEEEEEEEEEEEEEEEEEEEEEEEEEEEEEEEEEEEEEEEEEEEEEEEEEEEEEEEEEEEEEEEEEEEEEEEEEEEEEE",
"EEEEEEEEEEEEEEEEEEEEEEEEEEEEEEEEEEEEEEEEEEEEEEEEEEEEEEXXXXXXXXXXXXXXXXEEEEEEEEEEEEEEEEEEEEEEEEEEEEEEEEEEEEEEEEEEEEEEEEEEEEEEEEEE",
"EEEEEEEEEEEEEEEEEEEEEEEEEEEEEEEEEEEEEEEEEEEEEEEEEEEEEEXXXXXXXXXXXXXXXXEEEEEEEEEEEEEEEEEEEEEEEEEEEEEEEEEEEEEEEEEEEEEEEEEEEEEEEEEE",
"EEEEEEEEEEEEEEEEEEEEEEEEEEEEEEEEEEEEEEEEEEEEEEXXXXXXXXXX##############XXXXXXEEEEEEEEEEEEEEEEEEEEEEEEEEEEEEEEEEEEEEEEEEEEEEEEEEEE",
"EEEEEEEEEEEEEEEEEEEEEEEEEEEEEEEEEEEEEEEEEEEEEEXXXXXXXXXX##############XXXXXXEEEEEEEEEEEEEEEEEEEEEEEEEEEEEEEEEEEEEEEEEEEEEEEEEEEE",
"EEEEEEEEEEEEEEEEEEEEEEEEEEEEEEEEEEEEEEEEXXXXXX############################XX  EEEEEEEEEEEEEEEEEEEEEEEEEEEEEEEEEEEEEEEEEEEEEEEEEE",
"EEEEEEEEEEEEEEEEEEEEEEEEEEEEEEEEEEEEEEEEXXXXXX############################XX  EEEEEEEEEEEEEEEEEEEEEEEEEEEEEEEEEEEEEEEEEEEEEEEEEE",
"EEEEEEEEEEEEEEEEEEEEEEEEEEEEEEXXXXXXXXXXXX##################################XX  EEEEEEEEEEEEEEEEEEEEEEEEEEEEEEEEEEEEEEEEEEEEEEEE",
"EEEEEEEEEEEEEEEEEEEEEEEEEEEEEEXXXXXXXXXXXX##################################XX  EEEEEEEEEEEEEEEEEEEEEEEEEEEEEEEEEEEEEEEEEEEEEEEE",
"EEEEEEEEEEEEEEEEEEEEEEEEEEEEEEEEXX############################################XX    EEEEEEEEEEEEEEEEEEEEEEEEEEEEEEEEEEEEEEEEEEEE",
"EEEEEEEEEEEEEEEEEEEEEEEEEEEEEEEEXX############################################XX    EEEEEEEEEEEEEEEEEEEEEEEEEEEEEEEEEEEEEEEEEEEE",
"EEEEEEEEEEEEEEEEEEEEEEEEEEXXXXXX    XX########################################XXXX##XXEEEEEEEEEEEEEEEEEEEEEEEEEEEEEEEEEEEEEEEEEE",
"EEEEEEEEEEEEEEEEEEEEEEEEEEXXXXXX    XX########################################XXXX##XXEEEEEEEEEEEEEEEEEEEEEEEEEEEEEEEEEEEEEEEEEE",
"EEEEEEEEEEEEEEEEEEEEXXXXXX##################################################XXXXXX####XXXXEEEEEEEEEEEEEEEEEEEEEEEEEEEEEEEEEEEEEE",
"EEEEEEEEEEEEEEEEEEEEXXXXXX##################################################XXXXXX####XXXXEEEEEEEEEEEEEEEEEEEEEEEEEEEEEEEEEEEEEE",
"EEEEEEEEEEEEEEEEEEEEEEEE  XXXX##############################################XX############XXXXEEEEEEEEEEEEEEEEEEEEEEEEEEEEEEEEEE",
"EEEEEEEEEEEEEEEEEEEEEEEE  XXXX##############################################XX############XXXXEEEEEEEEEEEEEEEEEEEEEEEEEEEEEEEEEE",
"EEEEEEEEEEEEEEEEEEEEEEEEEE    XX############################################################XXEEEEEEEEEEEEEEEEEEEEEEEEEEEEEEEEEE",
"EEEEEEEEEEEEEEEEEEEEEEEEEE    XX############################################################XXEEEEEEEEEEEEEEEEEEEEEEEEEEEEEEEEEE",
"EEEEEEEEEEEEEEEEEEEEEEEE  XXXXXXXX##############XX############################################XXEEEEEEEEEEEEEEEEEEEEEEEEEEEEEEEE",
"EEEEEEEEEEEEEEEEEEEEEEEE  XXXXXXXX##############XX############################################XXEEEEEEEEEEEEEEEEEEEEEEEEEEEEEEEE",
"EEEEEEEEEEEEEEEEEEEEEEXXXXXXXX################XX########################XX####################XXEEEEEEEEEEEEEEEEEEEEEEEEEEEEEEEE",
"EEEEEEEEEEEEEEEEEEEEEEXXXXXXXX################XX########################XX####################XXEEEEEEEEEEEEEEEEEEEEEEEEEEEEEEEE",
"EEEEEEEEEEEEEEEEEEEEXXXX##########XX######################XX##########XXXX######################XXEEEEEEEEEEEEEEEEEEEEEEEEEEEEEE",
"EEEEEEEEEEEEEEEEEEEEXXXX##########XX######################XX##########XXXX######################XXEEEEEEEEEEEEEEEEEEEEEEEEEEEEEE",
"EEEEEEEEEEEEEEEEEEXX############XX##########XX##########  XX######XXXXXXXX########XX##############XXEEEEEEEEEEEEEEEEEEEEEEEEEEEE",
"EEEEEEEEEEEEEEEEEEXX############XX##########XX##########  XX######XXXXXXXX########XX##############XXEEEEEEEEEEEEEEEEEEEEEEEEEEEE",
"EEEEEEEEEEEEEEXXXX############  XX######XXXX########XX    XX####XXXXXXXX############XXXXXX##########  EEEEEEEEEEEEEEEEEEEEEEEEEE",
"EEEEEEEEEEEEEEXXXX############  XX######XXXX########XX    XX####XXXXXXXX############XXXXXX##########  EEEEEEEEEEEEEEEEEEEEEEEEEE",
"EEEEEEEEEEEE    XXXXXX########XX####XXXXXX########XX      ####XX  XXXXXX################XXXXXX##  XX    EEEEEEEEEEEEEEEEEEEEEEEE",
"EEEEEEEEEEEE    XXXXXX########XX####XXXXXX########XX      ####XX  XXXXXX################XXXXXX##  XX    EEEEEEEEEEEEEEEEEEEEEEEE",
"EEEEEEEEEEEEEEEEEE    XXXX##  XX####  XXXX######XX  <<  XX##XXXX55  XXXX##################XXXX####  EEEEEEEEEEEEEEEEEEEEEEEEEEEE",
"EEEEEEEEEEEEEEEEEE    XXXX##  XX####  XXXX######XX  <<  XX##XXXX55  XXXX##################XXXX####  EEEEEEEEEEEEEEEEEEEEEEEEEEEE",
"EEEEEEEEEEEEEEEEEEEE  ######XX##XX    XX####XX    5555  ##XX  5555<<XXXX##################XXXXXX##  EEEEEEEEEEEEEEEEEEEEEEEEEEEE",
"EEEEEEEEEEEEEEEEEEEE  ######XX##XX    XX####XX    5555  ##XX  5555<<XXXX##################XXXXXX##  EEEEEEEEEEEEEEEEEEEEEEEEEEEE",
"EEEEEEEEEEEEEEEEEE  ########  XX  <<XX##XX    55bbbbbb  XX  55bb5555XXXX########XX####XX####XXXX##  EEEEEEEEEEEEEEEEEEEEEEEEEEEE",
"EEEEEEEEEEEEEEEEEE  ########  XX  <<XX##XX    55bbbbbb  XX  55bb5555XXXX########XX####XX####XXXX##  EEEEEEEEEEEEEEEEEEEEEEEEEEEE",
"EEEEEEEEEEEEEEEEXX########XXXX  5555XXXX  55bbbbbbbbbb    55bbbb5555  XX##############XX##XXXXXXXX  EEEEEEEEEEEEEEEEEEEEEEEEEEEE",
"EEEEEEEEEEEEEEEEXX########XXXX  5555XXXX  55bbbbbbbbbb    55bbbb5555  XX##############XX##XXXXXXXX  EEEEEEEEEEEEEEEEEEEEEEEEEEEE",
"EEEEEEEEEEEEEEEEXX####XX  XX  555555    55bbbbbbbbbbbbbbbbbb<<XXbb55<<XX########XX##XXXX##XXXXXXXXXXEEEEEEEEEEEEEEEEEEEEEEEEEEEE",
"EEEEEEEEEEEEEEEEXX####XX  XX  555555    55bbbbbbbbbbbbbbbbbb<<XXbb55<<XX########XX##XXXX##XXXXXXXXXXEEEEEEEEEEEEEEEEEEEEEEEEEEEE",
"EEEEEEEEEEEEEEXX########XX  XXXXXX<<5555bbbbbbbbbbbbbb<<XXXX55bbbb5555XX########XX##XXXXXXXXXXXXXXXX  EEEEEEEEEEEEEEEEEEEEEEEEEE",
"EEEEEEEEEEEEEEXX########XX  XXXXXX<<5555bbbbbbbbbbbbbb<<XXXX55bbbb5555XX########XX##XXXXXXXXXXXXXXXX  EEEEEEEEEEEEEEEEEEEEEEEEEE",
"EEEEEEEEEEEEEEXX  ##XX##XX  <<5555XXXXbbbbbbbbbb55XXXXXX<<5555555555bbXX##########XXXXXXXXXXXXXXXXXX  EEEEEEEEEEEEEEEEEEEEEEEEEE",
"EEEEEEEEEEEEEEXX  ##XX##XX  <<5555XXXXbbbbbbbbbb55XXXXXX<<5555555555bbXX##########XXXXXXXXXXXXXXXXXX  EEEEEEEEEEEEEEEEEEEEEEEEEE",
"EEEEEEEEEEEEEEEEEE  XX##XX  <<    <<55<<bbbbbb55XXXX<<555555555555bbbbXXXX####  ##XXXXXX  XXXXXXXX##  EEEEEEEEEEEEEEEEEEEEEEEEEE",
"EEEEEEEEEEEEEEEEEE  XX##XX  <<    <<55<<bbbbbb55XXXX<<555555555555bbbbXXXX####  ##XXXXXX  XXXXXXXX##  EEEEEEEEEEEEEEEEEEEEEEEEEE",
"EEEEEEEEEEEEEEEEEE  XX####  55  77  <<<<bbbbbbbb55555555<<        bbbb55XX##XX  ##XXXX  XXXXXX  XXXX  EEEEEEEEEEEEEEEEEEEEEEEEEE",
"EEEEEEEEEEEEEEEEEE  XX####  55  77  <<<<bbbbbbbb55555555<<        bbbb55XX##XX  ##XXXX  XXXXXX  XXXX  EEEEEEEEEEEEEEEEEEEEEEEEEE",
"EEEEEEEEEEEEEEEEEEXX######  <<77EE77@@  bbbbbbbbbb      EE@@@@EE  bbbbbbXX##XX  ##XX  XXXXXXXXXX  XXXX  EEEEEEEEEEEEEEEEEEEEEEEE",
"EEEEEEEEEEEEEEEEEEXX######  <<77EE77@@  bbbbbbbbbb      EE@@@@EE  bbbbbbXX##XX  ##XX  XXXXXXXXXX  XXXX  EEEEEEEEEEEEEEEEEEEEEEEE",
"EEEEEEEEEEEEEEEEXX####XX##  55EE66@@66  55bbbbbbbb557766  66nnEE55bbbb55XX##XX  XXXXXX      XXXX  XX##  EEEEEEEEEEEEEEEEEEEEEEEE",
"EEEEEEEEEEEEEEEEXX####XX##  55EE66@@66  55bbbbbbbb557766  66nnEE55bbbb55XX##XX  XXXXXX      XXXX  XX##  EEEEEEEEEEEEEEEEEEEEEEEE",
"EEEEEEEEEEEEEEEEXX####  XX  bb55nnnnEE<<55bbbbbbbbEEEE@@66nnnn55bbbbbb<<XX##XX  XXXX  555555  XXXX  XX  EEEEEEEEEEEEEEEEEEEEEEEE",
"EEEEEEEEEEEEEEEEXX####  XX  bb55nnnnEE<<55bbbbbbbbEEEE@@66nnnn55bbbbbb<<XX##XX  XXXX  555555  XXXX  XX  EEEEEEEEEEEEEEEEEEEEEEEE",
"EEEEEEEEEEEEEEEEXX####  XX  bbbbbbbbbb<<55bbbbbbbbbbEEEEEEEE55bbbbbbbbXX####XXXXXX  <<<<<<5555  ##      EEEEEEEEEEEEEEEEEEEEEEEE",
"EEEEEEEEEEEEEEEEXX####  XX  bbbbbbbbbb<<55bbbbbbbbbbEEEEEEEE55bbbbbbbbXX####XXXXXX  <<<<<<5555  ##      EEEEEEEEEEEEEEEEEEEEEEEE",
"EEEEEEEEEEEEEEEEXX####  XXXXbbbbbbbbbb55bbbbbbbbbbbbbbbbbbbbbbbbbbbbbbXX####  ##XX  <<5555<<55  ##  00  EEEEEEEEEEEEEEEEEEEEEEEE",
"EEEEEEEEEEEEEEEEXX####  XXXXbbbbbbbbbb55bbbbbbbbbbbbbbbbbbbbbbbbbbbbbbXX####  ##XX  <<5555<<55  ##  00  EEEEEEEEEEEEEEEEEEEEEEEE",
"EEEEEEEEEEEEEEEEXX##XX    XX55bbbbbbbb55bbbbbbbbbbbbbbbbbbbbbbbbbbbbbb  ##XX  ##XX  55<<55<<55  XX  00iiEEEEEEEEEEEEEEEEEEEEEEEE",
"EEEEEEEEEEEEEEEEXX##XX    XX55bbbbbbbb55bbbbbbbbbbbbbbbbbbbbbbbbbbbbbb  ##XX  ##XX  55<<55<<55  XX  00iiEEEEEEEEEEEEEEEEEEEEEEEE",
"EEEEEEEEEEEEEEEEXX##  00  XX55bbbbbb55bbbbbbbbbbbbbbbbbbbbbbbbbbbbbb55####XX  ##XX  55555555    XX  0000GGEEEEEEEEEEEEEEEEEEEEEE",
"EEEEEEEEEEEEEEEEXX##  00  XX55bbbbbb55bbbbbbbbbbbbbbbbbbbbbbbbbbbbbb55####XX  ##XX  55555555    XX  0000GGEEEEEEEEEEEEEEEEEEEEEE",
"EEEEEEEEEEEEEEEEXX  fj00  XX<<bbbbbb<<bbbbbbbbbbbbbbbbbbbbbbbbbbbbbb  ##XX  ##XXXX  <<55<<  XX  XX  0000zkEEEEEEEEEEEEEEEEEEEEEE",
"EEEEEEEEEEEEEEEEXX  jj00  XX<<bbbbbb<<bbbbbbbbbbbbbbbbbbbbbbbbbbbbbb  ##XX  ##XXXX  <<55<<  XX  XX  0000zzEEEEEEEEEEEEEEEEEEEEEE",
"EEEEEEEEEEEEEEEE  EESV00  XX<<bbbbbb<<55bbbb55bbbbbbbbbbbbbbbbbbbbbb  XXXX  XXXX  <<55<<  XXXX  XX  0000itEEEEEEEEEEEEEEEEEEEEEE",
"EEEEEEEEEEEEEEEE  EESS00  XX<<bbbbbb<<55bbbb55bbbbbbbbbbbbbbbbbbbbbb  XXXX  XXXX  <<55<<  XXXX  XX  0000ttEEEEEEEEEEEEEEEEEEEEEE",
"EEEEEEEEEEEEEEEEEEEETTtt  XX  55bbbbbb  bb<<bbbbbbbbbbbbbbbbbbbbbbbb  XX  XXXXXX  <<    XXXXXX  XX  000000FFEEEEEEEEEEEEEEEEEEEE",
"EEEEEEEEEEEEEEEEEEEETTee  XX  55bbbbbb  bb<<bbbbbbbbbbbbbbbbbbbbbbbb  XX  XXXXXX  <<    XXXXXX  XX  000000FFEEEEEEEEEEEEEEEEEEEE",
"EEEEEEEEEEEEEEEEEEEEEEjj  XXXX55bbbbbbbbbbbbbbbbbbbbbbbbbbbbbbbbbbbb    55  XXXX      XXXXXXXX00    000000kkEEEEEEEEEEEEEEEEEEEE",
"EEEEEEEEEEEEEEEEEEEEEEjj  XXXX55bbbbbbbbbbbbbbbbbbbbbbbbbbbbbbbbbbbb    55  XXXX      XXXXXXXX00    000000kkEEEEEEEEEEEEEEEEEEEE",
"EEEEEEEEEEEEEEEEEEEEEESS00  XX<<bbbbbbbbbbbbbbbb55<<<<55bbbbbbbbbb55  55    XX      XX  XXXX  00    000000ttEEEEEEEEEEEEEEEEEEEE",
"EEEEEEEEEEEEEEEEEEEEEESS00  XX<<bbbbbbbbbbbbbbbb55<<<<55bbbbbbbbbb55  55    XX      XX  XXXX  00    000000ttEEEEEEEEEEEEEEEEEEEE",
"EEEEEEEEEEEEEEEEEEEEEEEEtt  XX  55bbbb<<<<<<5555NzEEEEEE<<bbbbbbbb  bbbb  XX    XXXXXX  XXXX  0000  00000000SSEEEEEEEEEEEEEEEEEE",
"EEEEEEEEEEEEEEEEEEEEEEEEtt  XX  55bbbb<<<<<<5555zNEEEEEE<<bbbbbbbb  bbbb  XX    XXXXXX  XXXX  0000  00000000SSEEEEEEEEEEEEEEEEEE",
"EEEEEEEEEEEEEEEEEEEEEEEEkk  XXXX<<55bbbb<<EEEEEEEEEENz88EE<<bbbbbbbbbb  XX  XX  XXXXXX  XXXX  00000000000000jjEEEEEEEEEEEEEEEEEE",
"EEEEEEEEEEEEEEEEEEEEEEEEkk  XXXX<<55bbbb<<EEEEEEEEEEzN88EE<<bbbbbbbbbb  XX  XX  XXXXXX  XXXX  00000000000000jjEEEEEEEEEEEEEEEEEE",
"EEEEEEEEEEEEEEEEEEEEEEEEFF00  XX  <<bbbb<<NzNz8888NzEEEENz<<bbbbbb55  XX      XX  XX    XXXX0000000000000000eeTTEEEEEEEEEEEEEEEE",
"EEEEEEEEEEEEEEEEEEEEEEEEFF00  XX  <<bbbb<<zNzN8888zNEEEEzN<<bbbbbb55  XX      XX  XX    XXXX0000000000000000eeTTEEEEEEEEEEEEEEEE",
"EEEEEEEEEEEEEEEEEEEEEEEEEEti  XX  00<<bb55EEEEEEEEEEEENz<<55bbbbbb        XX    XXXX  XXXX  000000000000000000VVEEEEEEEEEEEEEEEE",
"EEEEEEEEEEEEEEEEEEEEEEEEEEti  XX  00<<bb55EEEEEEEEEEEEzN<<55bbbbbb        XX    XXXX  XXXX  000000000000000000SSEEEEEEEEEEEEEEEE",
"EEEEEEEEEEEEEEEEEEEEEEEEEEzz00  000000  bb5555<<<<<<<<<<bbbbbbbb55<<          XXXXXX  XXXX  000000000000000000jfEEEEEEEEEEEEEEEE",
"EEEEEEEEEEEEEEEEEEEEEEEEEEzz00  000000  bb5555<<<<<<<<<<bbbbbbbb55<<          XXXXXX  XXXX  000000000000000000fjEEEEEEEEEEEEEEEE",
"EEEEEEEEEEEEEEEEEEEEEEEEEEGL00  00000000  bbbbbbbbbbbbbbbbbb5555    <<55  <<  XXXX    XX  00000000000000000000e0TYEEEEEEEEEEEEEE",
"EEEEEEEEEEEEEEEEEEEEEEEEEEGG00  00000000  bbbbbbbbbbbbbbbbbb5555    <<55  <<  XXXX    XX  000000000000000000000eYYEEEEEEEEEEEEEE",
"EEEEEEEEEEEEEEEEEEEEEEEEEEEEii000000000000  bbbbbbbbbb5555      <<55555555<<    XX  00XX  0000000000000000000000VVEEEEEEEEEEEEEE",
"EEEEEEEEEEEEEEEEEEEEEEEEEEEEii000000000000  bbbbbbbbbb5555      <<55555555<<    XX  00XX  0000000000000000000000VVEEEEEEEEEEEEEE",
"EEEEEEEEEEEEEEEEEEEEEEEEEEEENz00000000000000              <<55555555bbbb55      XX  00XX  0000000000000000000000ffEEEEEEEEEEEEEE",
"EEEEEEEEEEEEEEEEEEEEEEEEEEEEzz00000000000000              <<55555555bbbb55      XX  00XX  0000000000000000000000ffEEEEEEEEEEEEEE",
"EEEEEEEEEEEEEEEEEEEEEEEEEEEEGL000000000000    **  <<55555555555555555555<<  ****    00XX00000000000000000000000000IIEEEEEEEEEEEE",
"EEEEEEEEEEEEEEEEEEEEEEEEEEEELG000000000000    **  <<55555555555555555555<<  ****    00XX00000000000000000000000000IYEEEEEEEEEEEE",
"EEEEEEEEEEEEEEEEEEEEEEEEEEEEEEai00000000  **  **  5555bbbbbb5555555555    **::**  0000  000000000000000000000000ttLLEEEEEEEEEEEE",
"EEEEEEEEEEEEEEEEEEEEEEEEEEEEEEia00000000  **  **  5555bbbbbb5555555555    **::**  0000  000000000000000000000000tiLLEEEEEEEEEEEE",
"EEEEEEEEEEEEEEEEEEEEEEEEEEEEEENz000000**::::::    <<555555555555      **::::::  **  0000000000000000000000ttkkFSEEEEEEEEEEEEEEEE",
"EEEEEEEEEEEEEEEEEEEEEEEEEEEEEENN000000**::::::    <<555555555555      **::::::  **  0000000000000000000000tekkFFEEEEEEEEEEEEEEEE",
"EEEEEEEEEEEEEEEEEEEEEEEEEEEEEELL000000  ::::::::**              **::::::::::**  **  0000000000000000eejjSSEEEEEEEEEEEEEEEEEEEEEE",
"EEEEEEEEEEEEEEEEEEEEEEEEEEEEEELL000000  ::::::::**              **::::::::::**  **  0000000000000000eejjSSEEEEEEEEEEEEEEEEEEEEEE",
"EEEEEEEEEEEEEEEEEEEEEEEEEEEEEEEEaa0000  **::::::::::::::::::::::::::::::::::  ****    0000000000ffSVTTEEEEEEEEEEEEEEEEEEEEEEEEEE",
"EEEEEEEEEEEEEEEEEEEEEEEEEEEEEEEEaa0000  **::::::::::::::::::::::::::::::::::  ****    0000000000fjVSTTEEEEEEEEEEEEEEEEEEEEEEEEEE",
"EEEEEEEEEEEEEEEEEEEEEEEEEEEEEEEENN000000  ****::::::::::::::::::::::::::::  ****  **  0000ffVVYYEEEEEEEEEEEEEEEEEEEEEEEEEEEEEEEE",
"EEEEEEEEEEEEEEEEEEEEEEEEEEEEEEEENB000000  ****::::::::::::::::::::::::::::  ****  **  0000ffVVYYEEEEEEEEEEEEEEEEEEEEEEEEEEEEEEEE",
"EEEEEEEEEEEEEEEEEEEEEEEEEEEEEEEEPP000000  **********************::::::::******  **  ..%%IIEEEEEEEEEEEEEEEEEEEEEEEEEEEEEEEEEEEEEE",
"EEEEEEEEEEEEEEEEEEEEEEEEEEEEEEEEPP000000  **********************::::::::******  **  ..%%IYEEEEEEEEEEEEEEEEEEEEEEEEEEEEEEEEEEEEEE",
"EEEEEEEEEEEEEEEEEEEEEEEEEEEEEEEEEEss00        ************::::::::::::**********++&&EEEEEEEEEEEEEEEEEEEEEEEEEEEEEEEEEEEEEEEEEEEE",
"EEEEEEEEEEEEEEEEEEEEEEEEEEEEEEEEEEss00        ************::::::::::::**********++&&EEEEEEEEEEEEEEEEEEEEEEEEEEEEEEEEEEEEEEEEEEEE",
"EEEEEEEEEEEEEEEEEEEEEEEEEEEEEEEEEEBB        ************::::::::::::****::--22EEEEEEEEEEEEEEEEEEEEEEEEEEEEEEEEEEEEEEEEEEEEEEEEEE",
"EEEEEEEEEEEEEEEEEEEEEEEEEEEEEEEEEEBB        ************::::::::::::****::--22EEEEEEEEEEEEEEEEEEEEEEEEEEEEEEEEEEEEEEEEEEEEEEEEEE",
"EEEEEEEEEEEEEEEEEEEEEEEEEEEEEEEEEE99XX  **  ********::::::::::::****--44EEEEEEEEEEEEEEEEEEEEEEEEEEEEEEEEEEEEEEEEEEEEEEEEEEEEEEEE",
"EEEEEEEEEEEEEEEEEEEEEEEEEEEEEEEEEE99XX  **  ********::::::::::::****--44EEEEEEEEEEEEEEEEEEEEEEEEEEEEEEEEEEEEEEEEEEEEEEEEEEEEEEEE",
"EEEEEEEEEEEEEEEEEEEEEEEEEEEEEEEEEEEE  ::**    **::::::::::::**;;11EEEEEEEEEEEEEEEEEEEEEEEEEEEEEEEEEEEEEEEEEEEEEEEEEEEEEEEEEEEEEE",
"EEEEEEEEEEEEEEEEEEEEEEEEEEEEEEEEEEEE  ::**    **::::::::::::**;;11EEEEEEEEEEEEEEEEEEEEEEEEEEEEEEEEEEEEEEEEEEEEEEEEEEEEEEEEEEEEEE",
"EEEEEEEEEEEEEEEEEEEEEEEEEEEEEEEEEEEEoo::::::    ********==33EEEEEEEEEEEEEEEEEEEEEEEEEEEEEEEEEEEEEEEEEEEEEEEEEEEEEEEEEEEEEEEEEEEE",
"EEEEEEEEEEEEEEEEEEEEEEEEEEEEEEEEEEEEoo::::::    ********==33EEEEEEEEEEEEEEEEEEEEEEEEEEEEEEEEEEEEEEEEEEEEEEEEEEEEEEEEEEEEEEEEEEEE",
"EEEEEEEEEEEEEEEEEEEEEEEEEEEEEEEEEEEEdd::::::::::::,,ccEEEEEEEEEEEEEEEEEEEEEEEEEEEEEEEEEEEEEEEEEEEEEEEEEEEEEEEEEEEEEEEEEEEEEEEEEE",
"EEEEEEEEEEEEEEEEEEEEEEEEEEEEEEEEEEEEdd::::::::::::,,ccEEEEEEEEEEEEEEEEEEEEEEEEEEEEEEEEEEEEEEEEEEEEEEEEEEEEEEEEEEEEEEEEEEEEEEEEEE",
"EEEEEEEEEEEEEEEEEEEEEEEEEEEEEEEEEEEEEE  ::::>>vvEEEEEEEEEEEEEEEEEEEEEEEEEEEEEEEEEEEEEEEEEEEEEEEEEEEEEEEEEEEEEEEEEEEEEEEEEEEEEEEE",
"EEEEEEEEEEEEEEEEEEEEEEEEEEEEEEEEEEEEEE  ::::>>vvEEEEEEEEEEEEEEEEEEEEEEEEEEEEEEEEEEEEEEEEEEEEEEEEEEEEEEEEEEEEEEEEEEEEEEEEEEEEEEEE",
"EEEEEEEEEEEEEEEEEEEEEEEEEEEEEEEEEEEEEE$$OOEEEEEEEEEEEEEEEEEEEEEEEEEEEEEEEEEEEEEEEEEEEEEEEEEEEEEEEEEEEEEEEEEEEEEEEEEEEEEEEEEEEEEE",
"EEEEEEEEEEEEEEEEEEEEEEEEEEEEEEEEEEEEEE$$OOEEEEEEEEEEEEEEEEEEEEEEEEEEEEEEEEEEEEEEEEEEEEEEEEEEEEEEEEEEEEEEEEEEEEEEEEEEEEEEEEEEEEEE",
"EEEEEEEEEEEEEEEEEEEEEEEEEEEEEEEEEEEEEEEEEEEEEEEEEEEEEEEEEEEEEEEEEEEEEEEEEEEEEEEEEEEEEEEEEEEEEEEEEEEEEEEEEEEEEEEEEEEEEEEEEEEEEEEE",
"EEEEEEEEEEEEEEEEEEEEEEEEEEEEEEEEEEEEEEEEEEEEEEEEEEEEEEEEEEEEEEEEEEEEEEEEEEEEEEEEEEEEEEEEEEEEEEEEEEEEEEEEEEEEEEEEEEEEEEEEEEEEEEEE",
"EEEEEEEEEEEEEEEEEEEEEEEEEEEEEEEEEEEEEEEEEEEEEEEEEEEEEEEEEEEEEEEEEEEEEEEEEEEEEEEEEEEEEEEEEEEEEEEEEEEEEEEEEEEEEEEEEEEEEEEEEEEEEEEE",
"EEEEEEEEEEEEEEEEEEEEEEEEEEEEEEEEEEEEEEEEEEEEEEEEEEEEEEEEEEEEEEEEEEEEEEEEEEEEEEEEEEEEEEEEEEEEEEEEEEEEEEEEEEEEEEEEEEEEEEEEEEEEEEEE",
"EEEEEEEEEEEEEEEEEEEEEEEEEEEEEEEEEEEEEEEEEEEEEEEEEEEEEEEEEEEEEEEEEEEEEEEEEEEEEEEEEEEEEEEEEEEEEEEEEEEEEEEEEEEEEEEEEEEEEEEEEEEEEEEE",
"EEEEEEEEEEEEEEEEEEEEEEEEEEEEEEEEEEEEEEEEEEEEEEEEEEEEEEEEEEEEEEEEEEEEEEEEEEEEEEEEEEEEEEEEEEEEEEEEEEEEEEEEEEEEEEEEEEEEEEEEEEEEEEEE",
"EEEEEEEEEEEEEEEEEEEEEEEEEEEEEEEEEEEEEEEEEEEEEEEEEEEEEEEEEEEEEEEEEEEEEEEEEEEEEEEEEEEEEEEEEEEEEEEEEEEEEEEEEEEEEEEEEEEEEEEEEEEEEEEE",
"EEEEEEEEEEEEEEEEEEEEEEEEEEEEEEEEEEEEEEEEEEEEEEEEEEEEEEEEEEEEEEEEEEEEEEEEEEEEEEEEEEEEEEEEEEEEEEEEEEEEEEEEEEEEEEEEEEEEEEEEEEEEEEEE"
};
