/* XPM */
static char *_645606293916[] = {
/* columns rows colors chars-per-pixel */
"128 128 29 1 ",
"  c black",
". c gray5",
"X c gray10",
"o c gray17",
"O c #323232",
"+ c #3E3E3E",
"@ c #003068",
"# c #921010",
"$ c #941A1A",
"% c #951B1B",
"& c #DD1E1E",
"* c #D83232",
"= c #D83D3D",
"- c #BD6035",
"; c #EFA179",
": c #F0A179",
"> c #005EC0",
", c #7392FC",
"< c #818181",
"1 c #8D8D8D",
"2 c #8E8E8E",
"3 c gray56",
"4 c gray57",
"5 c #F8E1B9",
"6 c #A0CDFD",
"7 c #C1C1C1",
"8 c gray77",
"9 c white",
"0 c None",
/* pixels */
"00000000000000000000000000000000000000000000000000000000000000000000000000000000000000000000000000000000000000000000000000000000",
"00000000000000000000000000000000000000000000000000000000000000000000000000000000000000000000000000000000000000000000000000000000",
"000000000000000000000000000000000000000000000000000000XXXXXXXXXXXXXXXX0000000000000000000000000000000000000000000000000000000000",
"000000000000000000000000000000000000000000000000000000XXXXXXXXXXXXXXXX0000000000000000000000000000000000000000000000000000000000",
"0000000000000000000000000000000000000000000000XXXXXXXXXX++++++++++++++XXXXXX0000000000000000000000000000000000000000000000000000",
"0000000000000000000000000000000000000000000000XXXXXXXXXX++++++++++++++XXXXXX0000000000000000000000000000000000000000000000000000",
"0000000000000000000000000000000000000000XXXXXX++++++++++++++++++++++++++++XX  00000000000000000000000000000000000000000000000000",
"0000000000000000000000000000000000000000XXXXXX++++++++++++++++++++++++++++XX  00000000000000000000000000000000000000000000000000",
"000000000000000000000000000000XXXXXXXXXXXX++++++++++++++++++++++++++++++++++XX  000000000000000000000000000000000000000000000000",
"000000000000000000000000000000XXXXXXXXXXXX++++++++++++++++++++++++++++++++++XX  000000000000000000000000000000000000000000000000",
"00000000000000000000000000000000XX++++++++++++++++++++++++++++++++++++++++++++XX    00000000000000000000000000000000000000000000",
"00000000000000000000000000000000XX++++++++++++++++++++++++++++++++++++++++++++XX    00000000000000000000000000000000000000000000",
"00000000000000000000000000XXXXXX    XX++++++++++++++++++++++++++++++++++++++++XXXX++XX000000000000000000000000000000000000000000",
"00000000000000000000000000XXXXXX    XX++++++++++++++++++++++++++++++++++++++++XXXX++XX000000000000000000000000000000000000000000",
"00000000000000000000XXXXXX++++++++++++++++++++++++++++++++++++++++++++++++++XXXXXX++++XXXX00000000000000000000000000000000000000",
"00000000000000000000XXXXXX++++++++++++++++++++++++++++++++++++++++++++++++++XXXXXX++++XXXX00000000000000000000000000000000000000",
"000000000000000000000000  XXXX++++++++++++++++++++++++++++++++++++++++++++++XX++++++++++++XXXX0000000000000000000000000000000000",
"000000000000000000000000  XXXX++++++++++++++++++++++++++++++++++++++++++++++XX++++++++++++XXXX0000000000000000000000000000000000",
"00000000000000000000000000    XX++++++++++++++++++++++++++++++++++++++++++++++++++++++++++++XX0000000000000000000000000000000000",
"00000000000000000000000000    XX++++++++++++++++++++++++++++++++++++++++++++++++++++++++++++XX0000000000000000000000000000000000",
"000000000000000000000000  XXXXXXXX++++++++++++++XX++++++++++++++++++++++++++++++++++++++++++++XX00000000000000000000000000000000",
"000000000000000000000000  XXXXXXXX++++++++++++++XX++++++++++++++++++++++++++++++++++++++++++++XX00000000000000000000000000000000",
"0000000000000000000000XXXXXXXX++++++++++++++++XX++++++++++++++++++++++++XX++++++++++++++++++++XX00000000000000000000000000000000",
"0000000000000000000000XXXXXXXX++++++++++++++++XX++++++++++++++++++++++++XX++++++++++++++++++++XX00000000000000000000000000000000",
"00000000000000000000XXXX++++++++++XX++++++++++++++++++++++XX++++++++++XXXX++++++++++++++++++++++XX000000000000000000000000000000",
"00000000000000000000XXXX++++++++++XX++++++++++++++++++++++XX++++++++++XXXX++++++++++++++++++++++XX000000000000000000000000000000",
"000000000000000000XX++++++++++++XX++++++++++XX++++++++++  XX++++++XXXXXXXX++++++++XX++++++++++++++XX0000000000000000000000000000",
"000000000000000000XX++++++++++++XX++++++++++XX++++++++++  XX++++++XXXXXXXX++++++++XX++++++++++++++XX0000000000000000000000000000",
"00000000000000XXXX++++++++++++  XX++++++XXXX++++++++XX    XX++++XXXXXXXX++++++++++++XXXXXX++++++++++  00000000000000000000000000",
"00000000000000XXXX++++++++++++  XX++++++XXXX++++++++XX    XX++++XXXXXXXX++++++++++++XXXXXX++++++++++  00000000000000000000000000",
"000000000000    XXXXXX++++++++XX++++XXXXXX++++++++XX      ++++XX  XXXXXX++++++++++++++++XXXXXX++  XX    000000000000000000000000",
"000000000000    XXXXXX++++++++XX++++XXXXXX++++++++XX      ++++XX  XXXXXX++++++++++++++++XXXXXX++  XX    000000000000000000000000",
"000000000000000000    XXXX++  XX++++  XXXX++++++XX  --  XX++XXXX::  XXXX++++++++++++++++++XXXX++++  0000000000000000000000000000",
"000000000000000000    XXXX++  XX++++  XXXX++++++XX  --  XX++XXXX::  XXXX++++++++++++++++++XXXX++++  0000000000000000000000000000",
"00000000000000000000  ++++++XX++XX    XX++++XX    ::::  ++XX  ::::--XXXX++++++++++++++++++XXXXXX++  0000000000000000000000000000",
"00000000000000000000  ++++++XX++XX    XX++++XX    ::::  ++XX  ::::--XXXX++++++++++++++++++XXXXXX++  0000000000000000000000000000",
"000000000000000000  ++++++++  XX  --XX++XX    ::555555  XX  ::55::::XXXX++++++++XX++++XX++++XXXX++  0000000000000000000000000000",
"000000000000000000  ++++++++  XX  --XX++XX    ::555555  XX  ::55::::XXXX++++++++XX++++XX++++XXXX++  0000000000000000000000000000",
"0000000000000000XX++++++++XXXX  ::::XXXX  ::5555555555    ::5555::::  XX++++++++++++++XX++XXXXXXXX  0000000000000000000000000000",
"0000000000000000XX++++++++XXXX  ::::XXXX  ::5555555555    ::5555::::  XX++++++++++++++XX++XXXXXXXX  0000000000000000000000000000",
"0000000000000000XX++++XX  XX  ::::::    ::555555555555555555--XX55::--XX++++++++XX++XXXX++XXXXXXXXXX0000000000000000000000000000",
"0000000000000000XX++++XX  XX  ::::::    ::555555555555555555--XX55::--XX++++++++XX++XXXX++XXXXXXXXXX0000000000000000000000000000",
"00000000000000XX++++++++XX  XXXXXX--::::55555555555555--XXXX::5555::::XX++++++++XX++XXXXXXXXXXXXXXXX  00000000000000000000000000",
"00000000000000XX++++++++XX  XXXXXX--::::55555555555555--XXXX::5555::::XX++++++++XX++XXXXXXXXXXXXXXXX  00000000000000000000000000",
"00000000000000XX  ++XX++XX  --::::XXXX5555555555::XXXXXX--::::::::::55XX++++++++++XXXXXXXXXXXXXXXXXX  00000000000000000000000000",
"00000000000000XX  ++XX++XX  --::::XXXX5555555555::XXXXXX--::::::::::55XX++++++++++XXXXXXXXXXXXXXXXXX  00000000000000000000000000",
"000000000000000000  XX++XX  --    --::--555555::XXXX--::::::::::::5555XXXX++++  ++XXXXXX  XXXXXXXX++  00000000000000000000000000",
"000000000000000000  XX++XX  --    --::--555555::XXXX--::::::::::::5555XXXX++++  ++XXXXXX  XXXXXXXX++  00000000000000000000000000",
"000000000000000000  XX++++  ::  ,,  ----55555555::::::::--        5555::XX++XX  ++XXXX  XXXXXX  XXXX  00000000000000000000000000",
"000000000000000000  XX++++  ::  ,,  ----55555555::::::::--        5555::XX++XX  ++XXXX  XXXXXX  XXXX  00000000000000000000000000",
"000000000000000000XX++++++  --,,99,,@@  5555555555      99@@@@99  555555XX++XX  ++XX  XXXXXXXXXX  XXXX  000000000000000000000000",
"000000000000000000XX++++++  --,,99,,@@  5555555555      99@@@@99  555555XX++XX  ++XX  XXXXXXXXXX  XXXX  000000000000000000000000",
"0000000000000000XX++++XX++  ::99>>@@>>  ::55555555::,,>>  >>6699::5555::XX++XX  XXXXXX      XXXX  XX++  000000000000000000000000",
"0000000000000000XX++++XX++  ::99>>@@>>  ::55555555::,,>>  >>6699::5555::XX++XX  XXXXXX      XXXX  XX++  000000000000000000000000",
"0000000000000000XX++++  XX  55::666699--::555555559999@@>>6666::555555--XX++XX  XXXX  ::::::  XXXX  XX  000000000000000000000000",
"0000000000000000XX++++  XX  55::666699--::555555559999@@>>6666::555555--XX++XX  XXXX  ::::::  XXXX  XX  000000000000000000000000",
"0000000000000000XX++++  XX  5555555555--::555555555599999999::55555555XX++++XXXXXX  ------::::  ++      000000000000000000000000",
"0000000000000000XX++++  XX  5555555555--::555555555599999999::55555555XX++++XXXXXX  ------::::  ++      000000000000000000000000",
"0000000000000000XX++++  XXXX5555555555::555555555555555555555555555555XX++++  ++XX  --::::--::  ++  22  000000000000000000000000",
"0000000000000000XX++++  XXXX5555555555::555555555555555555555555555555XX++++  ++XX  --::::--::  ++  22  000000000000000000000000",
"0000000000000000XX++XX    XX::555555::55555555555555555555555555555555  ++XX  ++XX  ::--::--::  XX  2222000000000000000000000000",
"0000000000000000XX++XX    XX::555555::55555555555555555555555555555555  ++XX  ++XX  ::--::--::  XX  2222000000000000000000000000",
"0000000000000000XX++  22  XX::555555--555555555555555555555555555555::++++XX  ++XX  ::::::::    XX  2222000000000000000000000000",
"0000000000000000XX++  22  XX::555555--555555555555555555555555555555::++++XX  ++XX  ::::::::    XX  2222000000000000000000000000",
"0000000000000000XX  2222  XX--555555--::5555::5555555555555555555555  ++XX  ++XXXX  --::--  XX  XX  2222220000000000000000000000",
"0000000000000000XX  2222  XX--555555--::5555::5555555555555555555555  ++XX  ++XXXX  --::--  XX  XX  2222220000000000000000000000",
"0000000000000000  002222  XX--55555555  55--555555555555555555555555  XXXX  XXXX  --::--  XXXX  XX  2222220000000000000000000000",
"0000000000000000  002222  XX--55555555  55--555555555555555555555555  XXXX  XXXX  --::--  XXXX  XX  2222220000000000000000000000",
"000000000000000000000022  XX  ::555555555555555555555555555555555555  XX  XXXXXX  --    XXXXXX  XX  2222220000000000000000000000",
"000000000000000000000022  XX  ::555555555555555555555555555555555555  XX  XXXXXX  --    XXXXXX  XX  2222220000000000000000000000",
"000000000000000000000022  XXXX::5555555555555555::----::555555555555    ::  XXXX      XXXXXXXX22    2222222200000000000000000000",
"000000000000000000000022  XXXX::5555555555555555::----::555555555555    ::  XXXX      XXXXXXXX22    2222222200000000000000000000",
"00000000000000000000000022  XX--555555------::::77999999--55555555::  ::    XX      XX  XXXX  22    2222222200000000000000000000",
"00000000000000000000000022  XX--555555------::::77999999--55555555::  ::    XX      XX  XXXX  22    2222222200000000000000000000",
"00000000000000000000000022  XX  ::555555--99999977<<++++<<--555555  5555  XX    XXXXXX  XXXX  2222  2222222200000000000000000000",
"00000000000000000000000022  XX  ::555555--99999977<<++++<<--555555  5555  XX    XXXXXX  XXXX  2222  2222222200000000000000000000",
"00000000000000000000000022  XXXX--::5555--<<++++++++++++<<--5555555555  XX  XX  XXXXXX  XXXX  2222222222222222000000000000000000",
"00000000000000000000000022  XXXX--::5555--<<++++++++++++<<--5555555555  XX  XX  XXXXXX  XXXX  2222222222222222000000000000000000",
"0000000000000000000000000022  XX  --5555::--77++++<<779977--555555::  XX      XX  XX    XXXX222222222222222222000000000000000000",
"0000000000000000000000000022  XX  --5555::--77++++<<779977--555555::  XX      XX  XX    XXXX222222222222222222220000000000000000",
"0000000000000000000000000022  XX  22--5555::999999999977--::555555        XX    XXXX  XXXX  222222222222222222220000000000000000",
"0000000000000000000000000022  XX  22--5555::999999999977--::555555        XX    XXXX  XXXX  222222222222222222220000000000000000",
"000000000000000000000000002222  222222  5555::----------55555555::--          XXXXXX  XXXX  222222222222222222240000000000000000",
"000000000000000000000000002222  222222  5555::----------55555555::--          XXXXXX  XXXX  222222222222222222240000000000000000",
"000000000000000000000000000022  22222222  555555555555555555::::    --::  --  XXXX    XX  22222222222222222222220000000000000000",
"000000000000000000000000000022  22222222  555555555555555555::::    --::  --  XXXX    XX  22222222222222222222240000000000000000",
"000000000000000000000000000022222222222222  5555555555::::      --::::::::--    XX  22XX  22222222222222222222224800000000000000",
"000000000000000000000000000022222222222222  5555555555::::      --::::::::--    XX  22XX  22222222222222222222222400000000000000",
"00000000000000000000000000002222222222222222              --::::::::5555::      XX  22XX  22222222222222222222222400000000000000",
"00000000000000000000000000002222222222222222              --::::::::5555::      XX  22XX  22222222222222222222222200000000000000",
"000000000000000000000000000000222222222222    ##  --::::::::::::::::::::--  ####    22XX2222222222222222222222222200000000000000",
"000000000000000000000000000000222222222222    ##  --::::::::::::::::::::--  ####    22XX2222222222222222222222222200000000000000",
"0000000000000000000000000000002222222222  ##  ##  ::::555555::::::::::    ##&&##  2222  2222222222222222222222222200000000000000",
"0000000000000000000000000000002222222222  ##  ##  ::::555555::::::::::    ##&&##  2222  2222222222222222222222222200000000000000",
"00000000000000000000000000000022222222##&&&&&&    --::::::::::::      ##&&&&&&  ##  22222222222222222222222222000000000000000000",
"00000000000000000000000000000022222222##&&&&&&    --;;;:::::::::      ##&&&&&&  ##  22222222222222222222222222000000000000000000",
"00000000000000000000000000000000222222  &&&&&&&&##              ##&&&&&&&&&&##  ##  22222222222222222222220000000000000000000000",
"00000000000000000000000000000000222222  &&&&&&&&##              ##&&&&&&&&&&##  ##  22222222222222222222220000000000000000000000",
"00000000000000000000000000000000222222  ##&&&&&&&&&&&&&&&&&&&&&&&&&&&&&&&&&&  ####    222222224222220000000000000000000000000000",
"00000000000000000000000000000000222222  ##&&&&&&&&&&&&&&&&&&&&&&&&&&&&&&&&&&  ####    222222222222220000000000000000000000000000",
"0000000000000000000000000000000022222222  ####&&&&&&&&&&&&&&&&&&&&&&&&&&&&  ####  ##  222222220000000000000000000000000000000000",
"0000000000000000000000000000000022222222  ####&&&&&&&&&&&&&&&&&&&&&&&&&&&&  ####  ##  222222220000000000000000000000000000000000",
"0000000000000000000000000000000000222222  ######################&&&&&&&&######  ##  ..220000000000000000000000000000000000000000",
"0000000000000000000000000000000000222222  ######################&&&&&&&&######  ##  ..220000000000000000000000000000000000000000",
"00000000000000000000000000000000002222        ############&&&&&&&&&&&&##########    00000000000000000000000000000000000000000000",
"00000000000000000000000000000000002222        ############&&&&&&&&&&&&##########    00000000000000000000000000000000000000000000",
"000000000000000000000000000000000022        ############&&&&&&&&&&&&######%%##  000000000000000000000000000000000000000000000000",
"000000000000000000000000000000000022        ############&&&&&&&&&&&&######%%##  000000000000000000000000000000000000000000000000",
"000000000000000000000000000000000022    ##  ########&&&&&&&&&&&&########     000000000000000000000000000000000000000000000000000",
"000000000000000000000000000000000022    ##  ########&&&&&&&&&&&&########     000000000000000000000000000000000000000000000000000",
"000000000000000000000000000000000000  &&##    ##&&&&&&&&&&&&######     000000000000000000000000000000000000000000000000000000000",
"000000000000000000000000000000000000  &&##    ##&&&&&&&&&&&&######     000000000000000000000000000000000000000000000000000000000",
"00000000000000000000000000000000000o  &&&&&&    ############     000000000000000000000000000000000000000000000000000000000000000",
"000000000000000000000000000000000000  &&&&&&    ########$%##     000000000000000000000000000000000000000000000000000000000000000",
"000000000000000000000000000000000000  &&&&&&&&&&&&==       000000000000000000000000000000000000000000000000000000000000000000000",
"000000000000000000000000000000000000  &&&&&&&&&&&&==       000000000000000000000000000000000000000000000000000000000000000000000",
"000000000000000000000000000000000000    &&&&**     00000000000000000000000000000000000000000000000000000000000000000000000000000",
"000000000000000000000000000000000000    &&&&**     00000000000000000000000000000000000000000000000000000000000000000000000000000",
"0000000000000000000000000000000000000000     00000000000000000000000000000000000000000000000000000000000000000000000000000000000",
"0000000000000000000000000000000000000000OO00000000000000000000000000000000000000000000000000000000000000000000000000000000000000",
"00000000000000000000000000000000000000000000000000000000000000000000000000000000000000000000000000000000000000000000000000000000",
"00000000000000000000000000000000000000000000000000000000000000000000000000000000000000000000000000000000000000000000000000000000",
"00000000000000000000000000000000000000000000000000000000000000000000000000000000000000000000000000000000000000000000000000000000",
"00000000000000000000000000000000000000000000000000000000000000000000000000000000000000000000000000000000000000000000000000000000",
"00000000000000000000000000000000000000000000000000000000000000000000000000000000000000000000000000000000000000000000000000000000",
"00000000000000000000000000000000000000000000000000000000000000000000000000000000000000000000000000000000000000000000000000000000",
"00000000000000000000000000000000000000000000000000000000000000000000000000000000000000000000000000000000000000000000000000000000",
"00000000000000000000000000000000000000000000000000000000000000000000000000000000000000000000000000000000000000000000000000000000"
};
