/* XPM */
static char *_645526202840[] = {
/* columns rows colors chars-per-pixel */
"128 128 74 1 ",
"  c black",
". c #151515",
"X c #202020",
"o c #2F2F2F",
"O c #353535",
"+ c #3C3C3C",
"@ c #023368",
"# c gray25",
"$ c #585858",
"% c gray44",
"& c gray49",
"* c #911717",
"= c #932020",
"- c #942121",
"; c #9A3636",
": c #DC2323",
"> c #D73535",
", c #D73F3F",
"< c #BC6038",
"1 c #AB5555",
"2 c #B26161",
"3 c #B36969",
"4 c #DF5252",
"5 c #F0A078",
"6 c #045EBF",
"7 c #7291FC",
"8 c #868686",
"9 c #8D8D8D",
"0 c #8E8E8E",
"q c gray56",
"w c gray57",
"e c #929292",
"r c gray58",
"t c gray59",
"y c #979797",
"u c gray60",
"i c gray61",
"p c #9F9F9F",
"a c gray63",
"s c #ACACAC",
"d c #B1B1B1",
"f c gray70",
"g c #B4B4B4",
"h c #B6B6B6",
"j c #B9B9B9",
"k c #BBBBBB",
"l c #BCBCBC",
"z c gray",
"x c #E29393",
"c c #E3AFAF",
"v c #F8E0B8",
"b c #9FCCFD",
"n c #C1C1C1",
"m c gray77",
"M c #C6C6C6",
"N c gray84",
"B c #D8D8D8",
"V c gray85",
"C c #DADADA",
"Z c gray86",
"A c #DDDDDD",
"S c gray87",
"D c gray88",
"F c #E1E1E1",
"G c gray89",
"H c gray90",
"J c #E6E6E6",
"K c gray91",
"L c #F8F8F8",
"P c gray98",
"I c #FBFBFB",
"U c #FDFDFD",
"Y c #FEFEFE",
"T c None",
/* pixels */
"TTTTTTTTTTTTTTTTTTTTTTTTTTTTTTTTTTTTTTTTTTTTTTTTTTTTTTTTTTTTTTTTTTTTTTTTTTTTTTTTTTTTTTTTTTTTTTTTTTTTTTTTTTTTTTTTTTTTTTTTTTTTTTTT",
"TTTTTTTTTTTTTTTTTTTTTTTTTTTTTTTTTTTTTTTTTTTTTTTTTTTTTTTTTTTTTTTTTTTTTTTTTTTTTTTTTTTTTTTTTTTTTTTTTTTTTTTTTTTTTTTTTTTTTTTTTTTTTTTT",
"TTTTTTTTTTTTTTTTTTTTTTTTTTTTTTTTTTTTTTTTTTTTTTTTTTTTTTXXXXXXXXXXXXXXXXTTTTTTTTTTTTTTTTTTTTTTTTTTTTTTTTTTTTTTTTTTTTTTTTTTTTTTTTTT",
"TTTTTTTTTTTTTTTTTTTTTTTTTTTTTTTTTTTTTTTTTTTTTTTTTTTTTTXXXXXXXXXXXXXXXXTTTTTTTTTTTTTTTTTTTTTTTTTTTTTTTTTTTTTTTTTTTTTTTTTTTTTTTTTT",
"TTTTTTTTTTTTTTTTTTTTTTTTTTTTTTTTTTTTTTTTTTTTTTXXXXXXXXXX##############XXXXXXTTTTTTTTTTTTTTTTTTTTTTTTTTTTTTTTTTTTTTTTTTTTTTTTTTTT",
"TTTTTTTTTTTTTTTTTTTTTTTTTTTTTTTTTTTTTTTTTTTTTTXXXXXXXXXX##############XXXXXXTTTTTTTTTTTTTTTTTTTTTTTTTTTTTTTTTTTTTTTTTTTTTTTTTTTT",
"TTTTTTTTTTTTTTTTTTTTTTTTTTTTTTTTTTTTTTTTXXXXXX############################XX  TTTTTTTTTTTTTTTTTTTTTTTTTTTTTTTTTTTTTTTTTTTTTTTTTT",
"TTTTTTTTTTTTTTTTTTTTTTTTTTTTTTTTTTTTTTTTXXXXXX############################XX  TTTTTTTTTTTTTTTTTTTTTTTTTTTTTTTTTTTTTTTTTTTTTTTTTT",
"TTTTTTTTTTTTTTTTTTTTTTTTTTTTTTXXXXXXXXXXXX##################################XX  TTTTTTTTTTTTTTTTTTTTTTTTTTTTTTTTTTTTTTTTTTTTTTTT",
"TTTTTTTTTTTTTTTTTTTTTTTTTTTTTTXXXXXXXXXXXX##################################XX  TTTTTTTTTTTTTTTTTTTTTTTTTTTTTTTTTTTTTTTTTTTTTTTT",
"TTTTTTTTTTTTTTTTTTTTTTTTTTTTTTTTXX############################################XX    TTTTTTTTTTTTTTTTTTTTTTTTTTTTTTTTTTTTTTTTTTTT",
"TTTTTTTTTTTTTTTTTTTTTTTTTTTTTTTTXX############################################XX    TTTTTTTTTTTTTTTTTTTTTTTTTTTTTTTTTTTTTTTTTTTT",
"TTTTTTTTTTTTTTTTTTTTTTTTTTXXXXXX    XX########################################XXXX##XXTTTTTTTTTTTTTTTTTTTTTTTTTTTTTTTTTTTTTTTTTT",
"TTTTTTTTTTTTTTTTTTTTTTTTTTXXXXXX    XX########################################XXXX##XXTTTTTTTTTTTTTTTTTTTTTTTTTTTTTTTTTTTTTTTTTT",
"TTTTTTTTTTTTTTTTTTTTXXXXXX##################################################XXXXXX####XXXXTTTTTTTTTTTTTTTTTTTTTTTTTTTTTTTTTTTTTT",
"TTTTTTTTTTTTTTTTTTTTXXXXXX##################################################XXXXXX####XXXXTTTTTTTTTTTTTTTTTTTTTTTTTTTTTTTTTTTTTT",
"TTTTTTTTTTTTTTTTTTTTTTTT  XXXX##############################################XX############XXXXTTTTTTTTTTTTTTTTTTTTTTTTTTTTTTTTTT",
"TTTTTTTTTTTTTTTTTTTTTTTT  XXXX##############################################XX############XXXXTTTTTTTTTTTTTTTTTTTTTTTTTTTTTTTTTT",
"TTTTTTTTTTTTTTTTTTTTTTTTTT    XX############################################################XXTTTTTTTTTTTTTTTTTTTTTTTTTTTTTTTTTT",
"TTTTTTTTTTTTTTTTTTTTTTTTTT    XX############################################################XXTTTTTTTTTTTTTTTTTTTTTTTTTTTTTTTTTT",
"TTTTTTTTTTTTTTTTTTTTTTTT  XXXXXXXX##############XX############################################XXTTTTTTTTTTTTTTTTTTTTTTTTTTTTTTTT",
"TTTTTTTTTTTTTTTTTTTTTTTT  XXXXXXXX##############XX############################################XXTTTTTTTTTTTTTTTTTTTTTTTTTTTTTTTT",
"TTTTTTTTTTTTTTTTTTTTTTXXXXXXXX################XX########################XX####################XXTTTTTTTTTTTTTTTTTTTTTTTTTTTTTTTT",
"TTTTTTTTTTTTTTTTTTTTTTXXXXXXXX################XX########################XX####################XXTTTTTTTTTTTTTTTTTTTTTTTTTTTTTTTT",
"TTTTTTTTTTTTTTTTTTTTXXXX##########XX######################XX##########XXXX######################XXTTTTTTTTTTTTTTTTTTTTTTTTTTTTTT",
"TTTTTTTTTTTTTTTTTTTTXXXX##########XX######################XX##########XXXX######################XXTTTTTTTTTTTTTTTTTTTTTTTTTTTTTT",
"TTTTTTTTTTTTTTTTTTXX############XX##########XX##########  XX######XXXXXXXX########XX##############XXTTTTTTTTTTTTTTTTTTTTTTTTTTTT",
"TTTTTTTTTTTTTTTTTTXX############XX##########XX##########  XX######XXXXXXXX########XX##############XXTTTTTTTTTTTTTTTTTTTTTTTTTTTT",
"TTTTTTTTTTTTTTXXXX############  XX######XXXX########XX    XX####XXXXXXXX############XXXXXX##########  TTTTTTTTTTTTTTTTTTTTTTTTTT",
"TTTTTTTTTTTTTTXXXX############  XX######XXXX########XX    XX####XXXXXXXX############XXXXXX##########  TTTTTTTTTTTTTTTTTTTTTTTTTT",
"TTTTTTTTTTTT    XXXXXX########XX####XXXXXX########XX      ####XX  XXXXXX################XXXXXX##  XX    TTTTTTTTTTTTTTTTTTTTTTTT",
"TTTTTTTTTTTT    XXXXXX########XX####XXXXXX########XX      ####XX  XXXXXX################XXXXXX##  XX    TTTTTTTTTTTTTTTTTTTTTTTT",
"TTTTTTTTTTTTTTTTTT    XXXX##  XX####  XXXX######XX  <<  XX##XXXX55  XXXX##################XXXX####  TTTTTTTTTTTTTTTTTTTTTTTTTTTT",
"TTTTTTTTTTTTTTTTTT    XXXX##  XX####  XXXX######XX  <<  XX##XXXX55  XXXX##################XXXX####  TTTTTTTTTTTTTTTTTTTTTTTTTTTT",
"TTTTTTTTTTTTTTTTTTTT  ######XX##XX    XX####XX    5555  ##XX  5555<<XXXX##################XXXXXX##  TTTTTTTTTTTTTTTTTTTTTTTTTTTT",
"TTTTTTTTTTTTTTTTTTTT  ######XX##XX    XX####XX    5555  ##XX  5555<<XXXX##################XXXXXX##  TTTTTTTTTTTTTTTTTTTTTTTTTTTT",
"TTTTTTTTTTTTTTTTTT  ########  XX  <<XX##XX    55vvvvvv  XX  55vv5555XXXX########XX####XX####XXXX##  TTTTTTTTTTTTTTTTTTTTTTTTTTTT",
"TTTTTTTTTTTTTTTTTT  ########  XX  <<XX##XX    55vvvvvv  XX  55vv5555XXXX########XX####XX####XXXX##  TTTTTTTTTTTTTTTTTTTTTTTTTTTT",
"TTTTTTTTTTTTTTTTXX########XXXX  5555XXXX  55vvvvvvvvvv    55vvvv5555  XX##############XX##XXXXXXXX  TTTTTTTTTTTTTTTTTTTTTTTTTTTT",
"TTTTTTTTTTTTTTTTXX########XXXX  5555XXXX  55vvvvvvvvvv    55vvvv5555  XX##############XX##XXXXXXXX  TTTTTTTTTTTTTTTTTTTTTTTTTTTT",
"TTTTTTTTTTTTTTTTXX####XX  XX  555555    55vvvvvvvvvvvv5555vvvvvvvv55<<XX########XX##XXXX##XXXXXXXXXXTTTTTTTTTTTTTTTTTTTTTTTTTTTT",
"TTTTTTTTTTTTTTTTXX####XX  XX  555555    55vvvvvvvvvvvv5555vvvvvvvv55<<XX########XX##XXXX##XXXXXXXXXXTTTTTTTTTTTTTTTTTTTTTTTTTTTT",
"TTTTTTTTTTTTTTXX########XX  XXXXXX<<55vvvvvvvvvv55XXXXXXXX<<55vvvvvv55XX########XX##XXXXXXXXXXXXXXXX  TTTTTTTTTTTTTTTTTTTTTTTTTT",
"TTTTTTTTTTTTTTXX########XX  XXXXXX<<55vvvvvvvvvv55XXXXXXXX<<55vvvvvv55XX########XX##XXXXXXXXXXXXXXXX  TTTTTTTTTTTTTTTTTTTTTTTTTT",
"TTTTTTTTTTTTTTXX  ##XX##XX  XX<<5555vvvvvvvvvvXXXXXXXXXXXXXXXX<<5555vvXX##########XXXXXXXXXXXXXXXXXX  TTTTTTTTTTTTTTTTTTTTTTTTTT",
"TTTTTTTTTTTTTTXX  ##XX##XX  XX<<5555vvvvvvvvvvXXXXXXXXXXXXXXXX<<5555vvXX##########XXXXXXXXXXXXXXXXXX  TTTTTTTTTTTTTTTTTTTTTTTTTT",
"TTTTTTTTTTTTTTTTTT  XX##XX  <<      55vvvvvvvv55555555555555555555vvvvXXXX####  ##XXXXXX  XXXXXXXX##  TTTTTTTTTTTTTTTTTTTTTTTTTT",
"TTTTTTTTTTTTTTTTTT  XX##XX  <<      55vvvvvvvv55555555555555555555vvvvXXXX####  ##XXXXXX  XXXXXXXX##  TTTTTTTTTTTTTTTTTTTTTTTTTT",
"TTTTTTTTTTTTTTTTTT  XX####  55  77@@  <<vvvvvvvv5555<<            vvvv55XX##XX  ##XXXX  XXXXXX  XXXX  TTTTTTTTTTTTTTTTTTTTTTTTTT",
"TTTTTTTTTTTTTTTTTT  XX####  55  77@@  <<vvvvvvvv5555<<            vvvv55XX##XX  ##XXXX  XXXXXX  XXXX  TTTTTTTTTTTTTTTTTTTTTTTTTT",
"TTTTTTTTTTTTTTTTTTXX######  <<77TT77@@  vvvvvvvvvv  @@TT77@@@@TT  vvvvvvXX##XX  ##XX  XXXXXXXXXX  XXXX  TTTTTTTTTTTTTTTTTTTTTTTT",
"TTTTTTTTTTTTTTTTTTXX######  <<77TT77@@  vvvvvvvvvv  @@TT77@@@@TT  vvvvvvXX##XX  ##XX  XXXXXXXXXX  XXXX  TTTTTTTTTTTTTTTTTTTTTTTT",
"TTTTTTTTTTTTTTTTXX####XX##  55TT66@@66  55vvvvvvvv557766  66bbTT55vvvv55XX##XX  XXXXXX      XXXX  XX##  TTTTTTTTTTTTTTTTTTTTTTTT",
"TTTTTTTTTTTTTTTTXX####XX##  55TT66@@66  55vvvvvvvv557766  66bbTT55vvvv55XX##XX  XXXXXX      XXXX  XX##  TTTTTTTTTTTTTTTTTTTTTTTT",
"TTTTTTTTTTTTTTTTXX####  XX  vv55bbbbTT<<55vvvvvvvvTTTT@@66bbbb55vvvvvv<<XX##XX  XXXX  555555  XXXX  XX  TTTTTTTTTTTTTTTTTTTTTTTT",
"TTTTTTTTTTTTTTTTXX####  XX  vv55bbbbTT<<55vvvvvvvvTTTT@@66bbbb55vvvvvv<<XX##XX  XXXX  555555  XXXX  XX  TTTTTTTTTTTTTTTTTTTTTTTT",
"TTTTTTTTTTTTTTTTXX####  XX  vvvvvvvvvv<<55vvvvvvvvvvTTTTTTTT55vvvvvvvvXX####XXXXXX  <<<<<<5555  ##      TTTTTTTTTTTTTTTTTTTTTTTT",
"TTTTTTTTTTTTTTTTXX####  XX  vvvvvvvvvv<<55vvvvvvvvvvTTTTTTTT55vvvvvvvvXX####XXXXXX  <<<<<<5555  ##      TTTTTTTTTTTTTTTTTTTTTTTT",
"TTTTTTTTTTTTTTTTXX####  XXXXvvvvvvvvvv55vvvvvvvvvvvvvvvvvvvvvvvvvvvvvvXX####  ##XX  <<5555<<55  ##  99  TTTTTTTTTTTTTTTTTTTTTTTT",
"TTTTTTTTTTTTTTTTXX####  XXXXvvvvvvvvvv55vvvvvvvvvvvvvvvvvvvvvvvvvvvvvvXX####  ##XX  <<5555<<55  ##  99  TTTTTTTTTTTTTTTTTTTTTTTT",
"TTTTTTTTTTTTTTTTXX##XX    XX55vvvvvvvv55vvvvvvvvvvvvvvvvvvvvvvvvvvvvvv  ##XX  ##XX  55<<55<<55  XX  99uuTTTTTTTTTTTTTTTTTTTTTTTT",
"TTTTTTTTTTTTTTTTXX##XX    XX55vvvvvvvv55vvvvvvvvvvvvvvvvvvvvvvvvvvvvvv  ##XX  ##XX  55<<55<<55  XX  99uuTTTTTTTTTTTTTTTTTTTTTTTT",
"TTTTTTTTTTTTTTTTXX##  99  XX55vvvvvv55vvvvvvvvvvvvvvvvvvvvvvvvvvvvvv55####XX  ##XX  55555555    XX  9999DDTTTTTTTTTTTTTTTTTTTTTT",
"TTTTTTTTTTTTTTTTXX##  99  XX55vvvvvv55vvvvvvvvvvvvvvvvvvvvvvvvvvvvvv55####XX  ##XX  55555555    XX  9999DDTTTTTTTTTTTTTTTTTTTTTT",
"TTTTTTTTTTTTTTTTXX  dh99  XX<<vvvvvv<<vvvvvvvvvvvvvvvvvvvvvvvvvvvvvv  ##XX  ##XXXX  <<55<<  XX  XX  9999ljTTTTTTTTTTTTTTTTTTTTTT",
"TTTTTTTTTTTTTTTTXX  hh99  XX<<vvvvvv<<vvvvvvvvvvvvvvvvvvvvvvvvvvvvvv  ##XX  ##XXXX  <<55<<  XX  XX  9999llTTTTTTTTTTTTTTTTTTTTTT",
"TTTTTTTTTTTTTTTT  TTZN99  XX<<vvvvvv<<55vvvv55vvvvvvvvvvvvvvvvvvvvvv  XXXX  XXXX  <<55<<  XXXX  XX  9999urTTTTTTTTTTTTTTTTTTTTTT",
"TTTTTTTTTTTTTTTT  TTZZ99  XX<<vvvvvv<<55vvvv55vvvvvvvvvvvvvvvvvvvvvv  XXXX  XXXX  <<55<<  XXXX  XX  9999rrTTTTTTTTTTTTTTTTTTTTTT",
"TTTTTTTTTTTTTTTTTTTTUUrr  XX  55vvvvvv  vv<<vvvvvvvvvvvvvvvvvvvvvvvv  XX  XXXXXX  <<    XXXXXX  XX  999999SSTTTTTTTTTTTTTTTTTTTT",
"TTTTTTTTTTTTTTTTTTTTUUww  XX  55vvvvvv  vv<<vvvvvvvvvvvvvvvvvvvvvvvv  XX  XXXXXX  <<    XXXXXX  XX  999999SSTTTTTTTTTTTTTTTTTTTT",
"TTTTTTTTTTTTTTTTTTTTTThh  XXXX55vvvvvvvvvvvvvvvvvvvvvvvvvvvvvvvvvvvv    55  XXXX      XXXXXXXX99    999999jjTTTTTTTTTTTTTTTTTTTT",
"TTTTTTTTTTTTTTTTTTTTTThh  XXXX55vvvvvvvvvvvvvvvvvvvvvvvvvvvvvvvvvvvv    55  XXXX      XXXXXXXX99    999999jjTTTTTTTTTTTTTTTTTTTT",
"TTTTTTTTTTTTTTTTTTTTTTZZ99  XX<<vvvvvvvvvvvvvvvvvvvvvvvvvvvvvvvvvv55  55    XX      XX  XXXX  99    999999rrTTTTTTTTTTTTTTTTTTTT",
"TTTTTTTTTTTTTTTTTTTTTTZZ99  XX<<vvvvvvvvvvvvvvvvvvvvvvvvvvvvvvvvvv55  55    XX      XX  XXXX  99    999999rrTTTTTTTTTTTTTTTTTTTT",
"TTTTTTTTTTTTTTTTTTTTTTTTrr  XX  55vvvvvvvvvvvvvvvvvvvv5555vvvvvvvv  vvvv  XX    XXXXXX  XXXX  9999  99999999ZZTTTTTTTTTTTTTTTTTT",
"TTTTTTTTTTTTTTTTTTTTTTTTrr  XX  55vvvvvvvvvvvvvvvvvvvv5555vvvvvvvv  vvvv  XX    XXXXXX  XXXX  9999  99999999ZZTTTTTTTTTTTTTTTTTT",
"TTTTTTTTTTTTTTTTTTTTTTTTjj  XXXX<<55vvvvvv<<      <<<<55vvvvvvvvvvvvvv  XX  XX  XXXXXX  XXXX  99999999999999hhTTTTTTTTTTTTTTTTTT",
"TTTTTTTTTTTTTTTTTTTTTTTTjj  XXXX<<55vvvvvv<<      <<<<55vvvvvvvvvvvvvv  XX  XX  XXXXXX  XXXX  99999999999999hhTTTTTTTTTTTTTTTTTT",
"TTTTTTTTTTTTTTTTTTTTTTTTSS99  XX  <<vvvvvvvvvvvvvvvvvvvvvvvvvvvvvv55  XX      XX  XX    XXXX9999999999999999wwUUTTTTTTTTTTTTTTTT",
"TTTTTTTTTTTTTTTTTTTTTTTTSS99  XX  <<vvvvvvvvvvvvvvvvvvvvvvvvvvvvvv55  XX      XX  XX    XXXX9999999999999999wwUUTTTTTTTTTTTTTTTT",
"TTTTTTTTTTTTTTTTTTTTTTTTTTru  XX  99<<vvvvvvvv5555vvvvvvvvvvvvvv55        XX    XXXX  XXXX  999999999999999999NNTTTTTTTTTTTTTTTT",
"TTTTTTTTTTTTTTTTTTTTTTTTTTru  XX  99<<vvvvvvvv5555vvvvvvvvvvvvvv55        XX    XXXX  XXXX  999999999999999999ZZTTTTTTTTTTTTTTTT",
"TTTTTTTTTTTTTTTTTTTTTTTTTTll99  999999  vvvvvvvvvvvvvvvvvvvvvvvv<<    <<      XXXXXX  XXXX  999999999999999999hdTTTTTTTTTTTTTTTT",
"TTTTTTTTTTTTTTTTTTTTTTTTTTll99  999999  vvvvvvvvvvvvvvvvvvvvvvvv<<    <<      XXXXXX  XXXX  999999999999999999dhTTTTTTTTTTTTTTTT",
"TTTTTTTTTTTTTTTTTTTTTTTTTTDJ99  99999999  vvvvvvvvvvvvvvvvvv55    <<5555  <<  XXXX    XX  99999999999999999999w9UITTTTTTTTTTTTTT",
"TTTTTTTTTTTTTTTTTTTTTTTTTTDD99  99999999  vvvvvvvvvvvvvvvvvv55    <<5555  <<  XXXX    XX  999999999999999999999wIITTTTTTTTTTTTTT",
"TTTTTTTTTTTTTTTTTTTTTTTTTTTTuu999999999999  vvvvvv555555      <<5555555555<<    XX  99XX  9999999999999999999999NNTTTTTTTTTTTTTT",
"TTTTTTTTTTTTTTTTTTTTTTTTTTTTuu999999999999  vvvvvv555555      <<5555555555<<    XX  99XX  9999999999999999999999NNTTTTTTTTTTTTTT",
"TTTTTTTTTTTTTTTTTTTTTTTTTTTTml99999999999999            <<5555555555vvvv55      XX  99XX  9999999999999999999999ddTTTTTTTTTTTTTT",
"TTTTTTTTTTTTTTTTTTTTTTTTTTTTll99999999999999            <<5555555555vvvv55      XX  99XX  9999999999999999999999ddTTTTTTTTTTTTTT",
"TTTTTTTTTTTTTTTTTTTTTTTTTTTTDJ999999999999    **  <<55555555555555555555<<  ****    99XX99999999999999999999999999LLTTTTTTTTTTTT",
"TTTTTTTTTTTTTTTTTTTTTTTTTTTTJD999999999999    **  <<55555555555555555555<<  ****    99XX99999999999999999999999999LITTTTTTTTTTTT",
"TTTTTTTTTTTTTTTTTTTTTTTTTTTTTTpu99999999  **  **  5555vvvvvv5555555555    **::**  9999  999999999999999999999999rrJJTTTTTTTTTTTT",
"TTTTTTTTTTTTTTTTTTTTTTTTTTTTTTup99999999  **  **  5555vvvvvv5555555555    **::**  9999  999999999999999999999999ruJJTTTTTTTTTTTT",
"TTTTTTTTTTTTTTTTTTTTTTTTTTTTTTml999999**::::::    <<555555555555      **::::::  **  9999999999999999999999rrjjSZTTTTTTTTTTTTTTTT",
"TTTTTTTTTTTTTTTTTTTTTTTTTTTTTTmm999999**::::::    <<555555555555      **::::::  **  9999999999999999999999rwjjSSTTTTTTTTTTTTTTTT",
"TTTTTTTTTTTTTTTTTTTTTTTTTTTTTTJJ999999  ::::::::**              **::::::::::**  **  9999999999999999wwhhZZTTTTTTTTTTTTTTTTTTTTTT",
"TTTTTTTTTTTTTTTTTTTTTTTTTTTTTTJJ999999  ::::::::**              **::::::::::**  **  9999999999999999wwhhZZTTTTTTTTTTTTTTTTTTTTTT",
"TTTTTTTTTTTTTTTTTTTTTTTTTTTTTTTTpp9999  **::::::::::::::::::::::::::::::::::  ****    9999999999ddZNUUTTTTTTTTTTTTTTTTTTTTTTTTTT",
"TTTTTTTTTTTTTTTTTTTTTTTTTTTTTTTTpp9999  **::::::::::::::::::::::::::::::::::  ****    9999999999dhNZUUTTTTTTTTTTTTTTTTTTTTTTTTTT",
"TTTTTTTTTTTTTTTTTTTTTTTTTTTTTTTTmm999999  ****::::::::::::::::::::::::::::  ****  **  9999ddNNIITTTTTTTTTTTTTTTTTTTTTTTTTTTTTTTT",
"TTTTTTTTTTTTTTTTTTTTTTTTTTTTTTTTmM999999  ****::::::::::::::::::::::::::::  ****  **  9999ddNNIITTTTTTTTTTTTTTTTTTTTTTTTTTTTTTTT",
"TTTTTTTTTTTTTTTTTTTTTTTTTTTTTTTTKK999999  **********************::::::::******  **  ..%%LLTTTTTTTTTTTTTTTTTTTTTTTTTTTTTTTTTTTTTT",
"TTTTTTTTTTTTTTTTTTTTTTTTTTTTTTTTKK999999  **********************::::::::******  **  ..%%LITTTTTTTTTTTTTTTTTTTTTTTTTTTTTTTTTTTTTT",
"TTTTTTTTTTTTTTTTTTTTTTTTTTTTTTTTTTaa99        ************::::::::::::**********++&&TTTTTTTTTTTTTTTTTTTTTTTTTTTTTTTTTTTTTTTTTTTT",
"TTTTTTTTTTTTTTTTTTTTTTTTTTTTTTTTTTaa99        ************::::::::::::**********++&&TTTTTTTTTTTTTTTTTTTTTTTTTTTTTTTTTTTTTTTTTTTT",
"TTTTTTTTTTTTTTTTTTTTTTTTTTTTTTTTTTMM        ************::::::::::::****::--22TTTTTTTTTTTTTTTTTTTTTTTTTTTTTTTTTTTTTTTTTTTTTTTTTT",
"TTTTTTTTTTTTTTTTTTTTTTTTTTTTTTTTTTMM        ************::::::::::::****::--22TTTTTTTTTTTTTTTTTTTTTTTTTTTTTTTTTTTTTTTTTTTTTTTTTT",
"TTTTTTTTTTTTTTTTTTTTTTTTTTTTTTTTTT88XX  **  ********::::::::::::****--44TTTTTTTTTTTTTTTTTTTTTTTTTTTTTTTTTTTTTTTTTTTTTTTTTTTTTTTT",
"TTTTTTTTTTTTTTTTTTTTTTTTTTTTTTTTTT88XX  **  ********::::::::::::****--44TTTTTTTTTTTTTTTTTTTTTTTTTTTTTTTTTTTTTTTTTTTTTTTTTTTTTTTT",
"TTTTTTTTTTTTTTTTTTTTTTTTTTTTTTTTTTTT  ::**    **::::::::::::**;;11TTTTTTTTTTTTTTTTTTTTTTTTTTTTTTTTTTTTTTTTTTTTTTTTTTTTTTTTTTTTTT",
"TTTTTTTTTTTTTTTTTTTTTTTTTTTTTTTTTTTT  ::**    **::::::::::::**;;11TTTTTTTTTTTTTTTTTTTTTTTTTTTTTTTTTTTTTTTTTTTTTTTTTTTTTTTTTTTTTT",
"TTTTTTTTTTTTTTTTTTTTTTTTTTTTTTTTTTTToo::::::    ********==33TTTTTTTTTTTTTTTTTTTTTTTTTTTTTTTTTTTTTTTTTTTTTTTTTTTTTTTTTTTTTTTTTTTT",
"TTTTTTTTTTTTTTTTTTTTTTTTTTTTTTTTTTTToo::::::    ********==33TTTTTTTTTTTTTTTTTTTTTTTTTTTTTTTTTTTTTTTTTTTTTTTTTTTTTTTTTTTTTTTTTTTT",
"TTTTTTTTTTTTTTTTTTTTTTTTTTTTTTTTTTTTss::::::::::::,,xxTTTTTTTTTTTTTTTTTTTTTTTTTTTTTTTTTTTTTTTTTTTTTTTTTTTTTTTTTTTTTTTTTTTTTTTTTT",
"TTTTTTTTTTTTTTTTTTTTTTTTTTTTTTTTTTTTss::::::::::::,,xxTTTTTTTTTTTTTTTTTTTTTTTTTTTTTTTTTTTTTTTTTTTTTTTTTTTTTTTTTTTTTTTTTTTTTTTTTT",
"TTTTTTTTTTTTTTTTTTTTTTTTTTTTTTTTTTTTTT  ::::>>ccTTTTTTTTTTTTTTTTTTTTTTTTTTTTTTTTTTTTTTTTTTTTTTTTTTTTTTTTTTTTTTTTTTTTTTTTTTTTTTTT",
"TTTTTTTTTTTTTTTTTTTTTTTTTTTTTTTTTTTTTT  ::::>>ccTTTTTTTTTTTTTTTTTTTTTTTTTTTTTTTTTTTTTTTTTTTTTTTTTTTTTTTTTTTTTTTTTTTTTTTTTTTTTTTT",
"TTTTTTTTTTTTTTTTTTTTTTTTTTTTTTTTTTTTTT$$OOTTTTTTTTTTTTTTTTTTTTTTTTTTTTTTTTTTTTTTTTTTTTTTTTTTTTTTTTTTTTTTTTTTTTTTTTTTTTTTTTTTTTTT",
"TTTTTTTTTTTTTTTTTTTTTTTTTTTTTTTTTTTTTT$$OOTTTTTTTTTTTTTTTTTTTTTTTTTTTTTTTTTTTTTTTTTTTTTTTTTTTTTTTTTTTTTTTTTTTTTTTTTTTTTTTTTTTTTT",
"TTTTTTTTTTTTTTTTTTTTTTTTTTTTTTTTTTTTTTTTTTTTTTTTTTTTTTTTTTTTTTTTTTTTTTTTTTTTTTTTTTTTTTTTTTTTTTTTTTTTTTTTTTTTTTTTTTTTTTTTTTTTTTTT",
"TTTTTTTTTTTTTTTTTTTTTTTTTTTTTTTTTTTTTTTTTTTTTTTTTTTTTTTTTTTTTTTTTTTTTTTTTTTTTTTTTTTTTTTTTTTTTTTTTTTTTTTTTTTTTTTTTTTTTTTTTTTTTTTT",
"TTTTTTTTTTTTTTTTTTTTTTTTTTTTTTTTTTTTTTTTTTTTTTTTTTTTTTTTTTTTTTTTTTTTTTTTTTTTTTTTTTTTTTTTTTTTTTTTTTTTTTTTTTTTTTTTTTTTTTTTTTTTTTTT",
"TTTTTTTTTTTTTTTTTTTTTTTTTTTTTTTTTTTTTTTTTTTTTTTTTTTTTTTTTTTTTTTTTTTTTTTTTTTTTTTTTTTTTTTTTTTTTTTTTTTTTTTTTTTTTTTTTTTTTTTTTTTTTTTT",
"TTTTTTTTTTTTTTTTTTTTTTTTTTTTTTTTTTTTTTTTTTTTTTTTTTTTTTTTTTTTTTTTTTTTTTTTTTTTTTTTTTTTTTTTTTTTTTTTTTTTTTTTTTTTTTTTTTTTTTTTTTTTTTTT",
"TTTTTTTTTTTTTTTTTTTTTTTTTTTTTTTTTTTTTTTTTTTTTTTTTTTTTTTTTTTTTTTTTTTTTTTTTTTTTTTTTTTTTTTTTTTTTTTTTTTTTTTTTTTTTTTTTTTTTTTTTTTTTTTT",
"TTTTTTTTTTTTTTTTTTTTTTTTTTTTTTTTTTTTTTTTTTTTTTTTTTTTTTTTTTTTTTTTTTTTTTTTTTTTTTTTTTTTTTTTTTTTTTTTTTTTTTTTTTTTTTTTTTTTTTTTTTTTTTTT",
"TTTTTTTTTTTTTTTTTTTTTTTTTTTTTTTTTTTTTTTTTTTTTTTTTTTTTTTTTTTTTTTTTTTTTTTTTTTTTTTTTTTTTTTTTTTTTTTTTTTTTTTTTTTTTTTTTTTTTTTTTTTTTTTT"
};
