/* XPM */
static char *_645604909206[] = {
/* columns rows colors chars-per-pixel */
"128 128 60 1 ",
"  c black",
". c #020202",
"X c #040404",
"o c #060606",
"O c gray3",
"+ c gray4",
"@ c #0F0A08",
"# c #0C0C0C",
"$ c gray8",
"% c #151515",
"& c #161616",
"* c #181818",
"= c gray10",
"- c gray11",
"; c #1E1E1E",
": c #2D1E17",
"> c #3C281E",
", c #202020",
"< c #222222",
"1 c gray14",
"2 c #2F2A23",
"3 c #282828",
"4 c #2F2F2F",
"5 c gray19",
"6 c #343434",
"7 c gray22",
"8 c #3E3E3E",
"9 c #023368",
"0 c gray25",
"q c #5D5445",
"w c #7B705C",
"e c #7C705C",
"r c #911717",
"t c #932020",
"y c #942121",
"u c #DC2323",
"i c #D73535",
"p c #D73F3F",
"a c #BC6038",
"s c #9B8C73",
"d c #E59872",
"f c #EFA078",
"g c #F0A078",
"h c #F1A47C",
"j c #045EBF",
"k c #7291FC",
"l c #8D8D8D",
"z c #8E8E8E",
"x c #909090",
"c c #F2AD85",
"v c #E2B088",
"b c #F5C9A0",
"n c #E8D2AC",
"m c #F6D4AC",
"M c #F4D8AF",
"N c #F7E0B8",
"B c #F8E0B8",
"V c #9FCCFD",
"C c white",
"Z c None",
/* pixels */
"ZZZZZZZZZZZZZZZZZZZZZZZZZZZZZZZZZZZZZZZZZZZZZZZZZZZZZZZZZZZZZZZZZZZZZZZZZZZZZZZZZZZZZZZZZZZZZZZZZZZZZZZZZZZZZZZZZZZZZZZZZZZZZZZZ",
"ZZZZZZZZZZZZZZZZZZZZZZZZZZZZZZZZZZZZZZZZZZZZZZZZZZZZZZZZZZZZZZZZZZZZZZZZZZZZZZZZZZZZZZZZZZZZZZZZZZZZZZZZZZZZZZZZZZZZZZZZZZZZZZZZ",
"ZZZZZZZZZZZZZZZZZZZZZZZZZZZZZZZZZZZZZZZZZZZZZZZZZZZZZZ,,,,,,,,,,,,,,,,ZZZZZZZZZZZZZZZZZZZZZZZZZZZZZZZZZZZZZZZZZZZZZZZZZZZZZZZZZZ",
"ZZZZZZZZZZZZZZZZZZZZZZZZZZZZZZZZZZZZZZZZZZZZZZZZZZZZZZ,,,,,,,,,,,,,,,,ZZZZZZZZZZZZZZZZZZZZZZZZZZZZZZZZZZZZZZZZZZZZZZZZZZZZZZZZZZ",
"ZZZZZZZZZZZZZZZZZZZZZZZZZZZZZZZZZZZZZZZZZZZZZZ,,,,,,,,,,00000000000000,,,,,,ZZZZZZZZZZZZZZZZZZZZZZZZZZZZZZZZZZZZZZZZZZZZZZZZZZZZ",
"ZZZZZZZZZZZZZZZZZZZZZZZZZZZZZZZZZZZZZZZZZZZZZZ,,,,,,,,,,00000000000000,,,,,,ZZZZZZZZZZZZZZZZZZZZZZZZZZZZZZZZZZZZZZZZZZZZZZZZZZZZ",
"ZZZZZZZZZZZZZZZZZZZZZZZZZZZZZZZZZZZZZZZZ,,,,,,0000000000000000000000000000,,  ZZZZZZZZZZZZZZZZZZZZZZZZZZZZZZZZZZZZZZZZZZZZZZZZZZ",
"ZZZZZZZZZZZZZZZZZZZZZZZZZZZZZZZZZZZZZZZZ,,,,,,0000000000000000000000000000,,  ZZZZZZZZZZZZZZZZZZZZZZZZZZZZZZZZZZZZZZZZZZZZZZZZZZ",
"ZZZZZZZZZZZZZZZZZZZZZZZZZZZZZZ,,,,,,,,,,,,0000000000000000000000000000000000,,  ZZZZZZZZZZZZZZZZZZZZZZZZZZZZZZZZZZZZZZZZZZZZZZZZ",
"ZZZZZZZZZZZZZZZZZZZZZZZZZZZZZZ,,,,,,,,,,,,0000000000000000000000000000000000,,  ZZZZZZZZZZZZZZZZZZZZZZZZZZZZZZZZZZZZZZZZZZZZZZZZ",
"ZZZZZZZZZZZZZZZZZZZZZZZZZZZZZZZZ,,00000000000000000000000000000000000000000000,,    ZZZZZZZZZZZZZZZZZZZZZZZZZZZZZZZZZZZZZZZZZZZZ",
"ZZZZZZZZZZZZZZZZZZZZZZZZZZZZZZZZ,,00000000000000000000000000000000000000000000,,    ZZZZZZZZZZZZZZZZZZZZZZZZZZZZZZZZZZZZZZZZZZZZ",
"ZZZZZZZZZZZZZZZZZZZZZZZZZZ,,,,,,    ,,0000000000000000000000000000000000000000,,,,00,,ZZZZZZZZZZZZZZZZZZZZZZZZZZZZZZZZZZZZZZZZZZ",
"ZZZZZZZZZZZZZZZZZZZZZZZZZZ,,,,,,    ,,0000000000000000000000000000000000000000,,,,00,,ZZZZZZZZZZZZZZZZZZZZZZZZZZZZZZZZZZZZZZZZZZ",
"ZZZZZZZZZZZZZZZZZZZZ,,,,,,00000000000000000000000000000000000000000000000000,,,,,,0000,,,,ZZZZZZZZZZZZZZZZZZZZZZZZZZZZZZZZZZZZZZ",
"ZZZZZZZZZZZZZZZZZZZZ,,,,,,00000000000000000000000000000000000000000000000000,,,,,,0000,,,,ZZZZZZZZZZZZZZZZZZZZZZZZZZZZZZZZZZZZZZ",
"ZZZZZZZZZZZZZZZZZZZZZZZZ  ,,,,0000000000000000000000000000000000000000000000,,000000000000,,,,ZZZZZZZZZZZZZZZZZZZZZZZZZZZZZZZZZZ",
"ZZZZZZZZZZZZZZZZZZZZZZZZ  ,,,,0000000000000000000000000000000000000000000000,,000000000000,,,,ZZZZZZZZZZZZZZZZZZZZZZZZZZZZZZZZZZ",
"ZZZZZZZZZZZZZZZZZZZZZZZZZZ    ,,000000000000000000000000000000000000000000000000000000000000,,ZZZZZZZZZZZZZZZZZZZZZZZZZZZZZZZZZZ",
"ZZZZZZZZZZZZZZZZZZZZZZZZZZ    ,,000000000000000000000000000000000000000000000000000000000000,,ZZZZZZZZZZZZZZZZZZZZZZZZZZZZZZZZZZ",
"ZZZZZZZZZZZZZZZZZZZZZZZZ  ,,,,,,,,00000000000000,,00000000000000000000000000000000000000000000,,ZZZZZZZZZZZZZZZZZZZZZZZZZZZZZZZZ",
"ZZZZZZZZZZZZZZZZZZZZZZZZ  ,,,,,,,,00000000000000,,00000000000000000000000000000000000000000000,,ZZZZZZZZZZZZZZZZZZZZZZZZZZZZZZZZ",
"ZZZZZZZZZZZZZZZZZZZZZZ,,,,,,,,0000000000000000,,000000000000000000000000,,00000000000000000000,,ZZZZZZZZZZZZZZZZZZZZZZZZZZZZZZZZ",
"ZZZZZZZZZZZZZZZZZZZZZZ,,,,,,,,0000000000000000,,000000000000000000000000,,00000000000000000000,,ZZZZZZZZZZZZZZZZZZZZZZZZZZZZZZZZ",
"ZZZZZZZZZZZZZZZZZZZZ,,,,0000000000,,0000000000000000000000,,0000000000,,,,0000000000000000000000,,ZZZZZZZZZZZZZZZZZZZZZZZZZZZZZZ",
"ZZZZZZZZZZZZZZZZZZZZ,,,,0000000000,,0000000000000000000000,,0000000000,,,,0000000000000000000000,,ZZZZZZZZZZZZZZZZZZZZZZZZZZZZZZ",
"ZZZZZZZZZZZZZZZZZZ,,000000000000,,0000000000,,0000000000  ,,000000,,,,,,,,00000000,,00000000000000,,ZZZZZZZZZZZZZZZZZZZZZZZZZZZZ",
"ZZZZZZZZZZZZZZZZZZ,,000000000000,,0000000000,,0000000000  ,,000000,,,,,,,,00000000,,00000000000000,,ZZZZZZZZZZZZZZZZZZZZZZZZZZZZ",
"ZZZZZZZZZZZZZZ,,,,000000000000  ,,000000,,,,00000000,,    ,,0000,,,,,,,,000000000000,,,,,,0000000000  ZZZZZZZZZZZZZZZZZZZZZZZZZZ",
"ZZZZZZZZZZZZZZ,,,,000000000000  ,,000000,,,,00000000,,    ,,0000,,,,,,,,000000000000,,,,,,0000000000  ZZZZZZZZZZZZZZZZZZZZZZZZZZ",
"ZZZZZZZZZZZZ    ,,,,,,00000000,,0000,,,,,,00000000,,      0000,,  ,,,,,,0000000000000000,,,,,,00  ,,    ZZZZZZZZZZZZZZZZZZZZZZZZ",
"ZZZZZZZZZZZZ    ,,,,,,00000000,,0000,,,,,,00000000,,      0000,,  ,,,,,,0000000000000000,,,,,,00  ,,    ZZZZZZZZZZZZZZZZZZZZZZZZ",
"ZZZZZZZZZZZZZZZZZZ    ,,,,00  ,,0000  ,,,,000000,,  aa  ,,00,,,,gg  ,,,,000000000000000000,,,,0000  ZZZZZZZZZZZZZZZZZZZZZZZZZZZZ",
"ZZZZZZZZZZZZZZZZZZ    ,,,,00  ,,0000  ,,,,000000,,  aa  ,,00,,,,gg  ,,,,000000000000000000,,,,0000  ZZZZZZZZZZZZZZZZZZZZZZZZZZZZ",
"ZZZZZZZZZZZZZZZZZZZZ  000000,,00,,    ,,0000,,    gggg  00,,  ggggaa,,,,000000000000000000,,,,,,00  ZZZZZZZZZZZZZZZZZZZZZZZZZZZZ",
"ZZZZZZZZZZZZZZZZZZZZ  000000,,00,,    ,,0000,,    gggg  00,,  ggggaa,,,,000000000000000000,,,,,,00  ZZZZZZZZZZZZZZZZZZZZZZZZZZZZ",
"ZZZZZZZZZZZZZZZZZZ  00000000  ,,  aa,,00,,    ggBBBBBB  ,,  ggBBgggg,,,,00000000,,0000,,0000,,,,00  ZZZZZZZZZZZZZZZZZZZZZZZZZZZZ",
"ZZZZZZZZZZZZZZZZZZ  00000000  ,,  aa,,00,,    ggBBBBBB  ,,  ggBBgggg,,,,00000000,,0000,,0000,,,,00  ZZZZZZZZZZZZZZZZZZZZZZZZZZZZ",
"ZZZZZZZZZZZZZZZZ,,00000000,,,,  gggg,,,,  ggBBBBBBBBBB    ggBBBBgggg  ,,00000000000000,,00,,,,,,,,  ZZZZZZZZZZZZZZZZZZZZZZZZZZZZ",
"ZZZZZZZZZZZZZZZZ,,00000000,,,,  gggg,,,,  ggBBBBBBBBBB    ggBBBBgggg  ,,00000000000000,,00,,,,,,,,o&  ZZZZZZZZZZZZZZZZZZZZZZZZZZ",
"ZZZZZZZZZZZZZZZZ,,0000,,  ,,  gggggg    ggBBBBBBBBBBBBggggBBBBBBBBggaa,,00000000,,00,,,,00,,,,,,,,,,,,ZZZZZZZZZZZZZZZZZZZZZZZZZZ",
"ZZZZZZZZZZZZZZZZ,,0000,,  ,,  gggggg    ggBBBBBBBBBBBBggggBBBBBBBBggaa,,00000000,,00,,,,00,,,,,,,,,,,,ZZZZZZZZZZZZZZZZZZZZZZZZZZ",
"ZZZZZZZZZZZZZZ,,00000000,,  ,,,,,,aaggBBBBBBBBBBgg,,,,,,,,aaggBBBBBBgg,,00000000,,00,,,,,,,,,,,,,,,,,,  ZZZZZZZZZZZZZZZZZZZZZZZZ",
"ZZZZZZZZZZZZZZ,,00000000,,  ,,,,,,aaggBBBBBBBBBBgg,,,,,,,,aaggBBBBBBgg,,00000000,,00,,,,,,,,,,,,,,,,,,  ZZZZZZZZZZZZZZZZZZZZZZZZ",
"ZZZZZZZZZZZZZZ,,  00,,00,,  ,,aaggggBBBBBBBBBB,,,,,,,,,,,,,,,,aaggggBB,,0000000000,,,,,,,,,,,,,,,,,,,,  ZZZZZZZZZZZZZZZZZZZZZZZZ",
"ZZZZZZZZZZZZZZ,,  00,,00,,  ,,aaggggBBBBBBBBBB,,,,,,,,,,,,,,,,aaggggBB,,0000000000,,,,,,,,,,,,,,,,,,,,  ZZZZZZZZZZZZZZZZZZZZZZZZ",
"ZZZZZZZZZZZZZZZZZZ  ,,00,,  aa      ggBBBBBBBBggggggggggggggggggggBBBB,,,,0000  00,,,,,,#,  ,,,,,,,,00  ZZZZZZZZZZZZZZZZZZZZZZZZ",
"ZZZZZZZZZZZZZZZZZZ  ,,00,,  aa      ggBBBBBBBBggggggggggggggggggggBBBB,,,,0000  00,,,,,,;,  ,,,,,,,,00  ZZZZZZZZZZZZZZZZZZZZZZZZ",
"ZZZZZZZZZZZZZZZZZZ  ,,0000  gg  kk99  aaBBBBBBBBggggaa            BBBBgg,,00,,  00,,,, &  ,,,,,,  ,,,,  ZZZZZZZZZZZZZZZZZZZZZZZZ",
"ZZZZZZZZZZZZZZZZZZ  +;0000  gg  kk99  aaBBBBBBBBggggaa            BBBBgg,,00,,  00,,,,+,  ,,,,,,  ,,,,  ZZZZZZZZZZZZZZZZZZZZZZZZ",
"ZZZZZZZZZZZZZZZZZZ,,370000  aakkCCkk99  BBBBBBBBBB  99CCkk9999CC  BBBBBB,,00,,  00,,  o ,,,,,,,,,,  ,,,,  ZZZZZZZZZZZZZZZZZZZZZZ",
"ZZZZZZZZZZZZZZZZZZ,,,10000  aakkCCkk99  BBBBBBBBBB  99CCkk9999CC  BBBBBB,,00,,  00,, +  ,,,,,,,,,,  ,,,,  ZZZZZZZZZZZZZZZZZZZZZZ",
"ZZZZZZZZZZZZZZZZ,,,,000858  ggCCjj99jj  ggBBBBBBBBggkkjj  jjVVCCggBBBBgg,,00,,  ,,,,,,,,      ,,,,  ,,00  ZZZZZZZZZZZZZZZZZZZZZZ",
"ZZZZZZZZZZZZZZZZ,,,,0000,1= ggCCjj99jj  ggBBBBBBBBggkkjj  jjVVCCggBBBBgg,,00,,  ,,,,,,,,      ,,,,  ,,00  ZZZZZZZZZZZZZZZZZZZZZZ",
"ZZZZZZZZZZZZZZZZ,,,,0000  ,=nBggVVVVCCaaggBBBBBBBBCCCC99jjVVVVggBBBBBBaa,,00,,  ,,,,&;  gggggg  ,,,,  ,,  ZZZZZZZZZZZZZZZZZZZZZZ",
"ZZZZZZZZZZZZZZZZ,,,,0000  ,,2nggVVVVCCaaggBBBBBBBBCCCC99jjVVVVggBBBBBBaa,,00,,  ,,,,,,  gggggg  ,,,,  ,,  ZZZZZZZZZZZZZZZZZZZZZZ",
"ZZZZZZZZZZZZZZZZ,,,,0000  ,, 2BBBBBBBBaaggBBBBBBBBBBCCCCCCCCggBBBBBBBB,,0000,,,,,, &  aaaaaagggg  00      ZZZZZZZZZZZZZZZZZZZZZZ",
"ZZZZZZZZZZZZZZZZ,,,,0000  ,,  BBBBBBBBaaggBBBBBBBBBBCCCCCCCCggBBBBBBBB,,0000,,,,,,o;  aaaaaagggg  00      ZZZZZZZZZZZZZZZZZZZZZZ",
"ZZZZZZZZZZZZZZZZ,,,,0000  ,,,,BBBBBBBBggBBBBBBBBBBBBBBBBBBBBBBBBBBBBBB,,0000  00,,&,  aaggggaagg  00  ll  ZZZZZZZZZZZZZZZZZZZZZZ",
"ZZZZZZZZZZZZZZZZ,,,,0000  ,,,,BBBBBBBBggBBBBBBBBBBBBBBBBBBBBBBBBBBBBBB,,0000  00,1;,  aaggggaagg  00  ll  ZZZZZZZZZZZZZZZZZZZZZZ",
"ZZZZZZZZZZZZZZZZ,,,,00,,    ,,ggBBBBggggBBBBBBBBBBBBBBBBBBBBBBBBBBBBBB  00,,  00,6,,  ggaaggaagg  ,,  llllZZZZZZZZZZZZZZZZZZZZZZ",
"ZZZZZZZZZZZZZZZZ,,,,00,,    ,,ggBBBBggggBBBBBBBBBBBBBBBBBBBBBBBBBBBBBB  00,,  0030,,  ggaaggaagg  ,,  llllZZZZZZZZZZZZZZZZZZZZZZ",
"ZZZZZZZZZZZZZZZZ,,,,00  ll  ,,ggBBBBaaBBBBBBBBBBBBBBBBBBBBBBBBBBBBBBgg0000,,  0070,,  gggggggg    ,,  llllZZZZZZZZZZZZZZZZZZZZZZ",
"ZZZZZZZZZZZZZZZZ,,,,00  ll  ,,ggBBBBaaBBBBBBBBBBBBBBBBBBBBBBBBBBBBBBgg0000,,  0700,,  gggggggg    ,,  llllZZZZZZZZZZZZZZZZZZZZZZ",
"ZZZZZZZZZZZZZZZZ,,,,  llll  ,,aaBBBBaaBBBBBBBBBBBBBBBBBBBBBBBBBBBBBB  00,,  00,5,,,,  aaggaa  ,,  ,,  llllllZZZZZZZZZZZZZZZZZZZZ",
"ZZZZZZZZZZZZZZZZ,,,,  llll  ,,aaBBBBaaBBBBBBBBBBBBBBBBBBBBBBBBBBBBBB  00,,  00,8,,,,  aaggaa  ,,  ,,  llllllZZZZZZZZZZZZZZZZZZZZ",
"ZZZZZZZZZZZZZZZZ    ZZllll  ,,aaBBBBBBggBBBBggBBBBBBBBBBBBBBBBBBBBBB  ,,,,  ,,,,,,  aaggaa  ,,,,  ,,  llllllZZZZZZZZZZZZZZZZZZZZ",
"ZZZZZZZZZZZZZZZZ    ZZllll  ,,aaBBBBBBggBBBBggBBBBBBBBBBBBBBBBBBBBBB  ,,,,  ,;,,,,  aaggaa  ,,,,  ,,  llllllZZZZZZZZZZZZZZZZZZZZ",
"ZZZZZZZZZZZZZZZZZZZZZZZZll  ,,  ggBBBB  BBaaBBBBBBBBBBBBBBBBBBBBBBBB  ,,  ,,,,,,,,  aa    ,,,,,,  ,,  llllllZZZZZZZZZZZZZZZZZZZZ",
"ZZZZZZZZZZZZZZZZZZZZZZZZll  ,,  ggBBBB  BBaaBBBBBBBBBBBBBBBBBBBBBBBB  ,,  ,,,,,,,,  aa    ,,,,,,  ,,  llllllZZZZZZZZZZZZZZZZZZZZ",
"ZZZZZZZZZZZZZZZZZZZZZZZZll  ,,,,ggBBBBBBBBBBBBBBBBBBBBBBBBBBBBBBBBBB    gg  # ,,,,      ,,,,,,,,ll    llllllllZZZZZZZZZZZZZZZZZZ",
"ZZZZZZZZZZZZZZZZZZZZZZZZll  ,,,,ggBBBBBBBBBBBBBBBBBBBBBBBBBBBBBBBBBB    gg >  ,,,,      ,,,,,,,,ll    llllllllZZZZZZZZZZZZZZZZZZ",
"ZZZZZZZZZZZZZZZZZZZZZZZZZZll  ,,aaBBBBBBBBBBBBBBBBBBBBBBBBBBBBBBBBgg  gg      ,,      ,,  ,,,,  ll    llllllllZZZZZZZZZZZZZZZZZZ",
"ZZZZZZZZZZZZZZZZZZZZZZZZZZll  ,,aaBBBBBBBBBBBBBBBBBBBBBBBBBBBBBBBBgg  gg @    ,,      ,,  ,,,,  ll    llllllllZZZZZZZZZZZZZZZZZZ",
"ZZZZZZZZZZZZZZZZZZZZZZZZZZll  ,,  ggBBBBBBBBBBBBBBBBBBggggBBBBBBBB  BBBB s  ,,    ,,,,,,  ,,,,  llll  llllllllZZZZZZZZZZZZZZZZZZ",
"ZZZZZZZZZZZZZZZZZZZZZZZZZZll  ,,  ggBBBBBBBBBBBBBBBBBBggggBBBBBBBB  BBBBeB  ,,    ,,,,,,  ,,,,  llll  llllllllZZZZZZZZZZZZZZZZZZ",
"ZZZZZZZZZZZZZZZZZZZZZZZZZZll  ,,,,aagmBBBBaa      aaaaggBBBBBBBBBBBBBB q  ,,  ,,  ,,,,,,  ,,,,  llllllllllllllllZZZZZZZZZZZZZZZZ",
"ZZZZZZZZZZZZZZZZZZZZZZZZZZll  ,,,,aafcBBBBaa      aaaaggBBBBBBBBBBBBBBqB  ,,  ,,  ,,,,,,  ,,,,  llllllllllllllllZZZZZZZZZZZZZZZZ",
"ZZZZZZZZZZZZZZZZZZZZZZZZZZZZll  ,,  aaBBBBBBBBBBBBBBBBBBBBBBBBBBBBgg :  ,,      ,,  ,,    ,,,,llllllllllllllllllZZZZZZZZZZZZZZZZ",
"ZZZZZZZZZZZZZZZZZZZZZZZZZZZZll  ,,  aaNBBBbBBBBBBBBBBBBBBBBBBBBBBBgg@d  ,,      ,,  ,,    ,,,,llllllllllllllllllllZZZZZZZZZZZZZZ",
"ZZZZZZZZZZZZZZZZZZZZZZZZZZZZll  ,,  llaaBBBNBBggggBBBBBBBBBBBBBBgg q        ,,    ,,,,  ,,,,  llllllllllllllllllllZZZZZZZZZZZZZZ",
"ZZZZZZZZZZZZZZZZZZZZZZZZZZZZll  ,,  llaaBBBBmBggggBBBBBBBBBBBBBBgheB        ,,    ,,,,  ,,,,  llllllllllllllllllllZZZZZZZZZZZZZZ",
"ZZZZZZZZZZZZZZZZZZZZZZZZZZZZllll  llllll  BBBBBBBBBBBBBBBBBBBBBBvMggaa          ,,,,,,  ,,,,  lllllllllllllllllllxZZZZZZZZZZZZZZ",
"ZZZZZZZZZZZZZZZZZZZZZZZZZZZZllll  llllll  BBBNBBBBBBBBBBBBBBBBBBBBggaa          ,,,,,,  ,,,,  lllllllllllllllllllxZZZZZZZZZZZZZZ",
"ZZZZZZZZZZZZZZZZZZZZZZZZZZZZZZll  llllllll  BBBBBBBBBBBBBBBBBBgggg    aagg  aa  ,,,,    ,,  llllllllllllllllllllllZZZZZZZZZZZZZZ",
"ZZZZZZZZZZZZZZZZZZZZZZZZZZZZZZll  llllllll  BBBBBBBBBBBBBBBBBBgggg    aagg  aa  ,,,,    ,,  lllllllllllllllllllllxZZZZZZZZZZZZZZ",
"ZZZZZZZZZZZZZZZZZZZZZZZZZZZZZZllllllllllllll  BBBBBBBBBBffgg      aaggggggggaa    ,,  ll,,  llllllllllllllllllllllllZZZZZZZZZZZZ",
"ZZZZZZZZZZZZZZZZZZZZZZZZZZZZZZllllllllllllll  BBBBBBBBBBgggg      aaggggggggaa    ,,  ll,,  lllllllllllllllllllllllxZZZZZZZZZZZZ",
"ZZZZZZZZZZZZZZZZZZZZZZZZZZZZZZllllllllllllllll              aaggggggggBBBBgg      ,,  ll,,  lllllllllllllllllllllllxZZZZZZZZZZZZ",
"ZZZZZZZZZZZZZZZZZZZZZZZZZZZZZZllllllllllllllll              aaggggggggBBBBgg      ,,  ll,,  llllllllllllllllllllllllZZZZZZZZZZZZ",
"ZZZZZZZZZZZZZZZZZZZZZZZZZZZZZZZZllllllllllll    rr  aaggggggggggggggggggggaa  rrrr    ll,,llllllllllllllllllllllllllZZZZZZZZZZZZ",
"ZZZZZZZZZZZZZZZZZZZZZZZZZZZZZZZZllllllllllll    rr  aaggggggggggggggggggggaa  rrrr    ll,,llllllllllllllllllllllllllZZZZZZZZZZZZ",
"ZZZZZZZZZZZZZZZZZZZZZZZZZZZZZZZZllllllllll  rr  rr  ggggBBBBBBgggggggggg    rruurr  llll  llllllllllllllllllllllllllZZZZZZZZZZZZ",
"ZZZZZZZZZZZZZZZZZZZZZZZZZZZZZZZZllllllllll  rr  rr  ggggBBBBBBgggggggggg    rruurr  llll  llllllllllllllllllllllllllZZZZZZZZZZZZ",
"ZZZZZZZZZZZZZZZZZZZZZZZZZZZZZZZZllllllllrruuuuuu    aagggggggggggg      rruuuuuu  rr  llllllllllllllllllllllllllZZZZZZZZZZZZZZZZ",
"ZZZZZZZZZZZZZZZZZZZZZZZZZZZZZZZZllllllllrruuuuuu    aagggggggggggg      rruuuuuu  rr  llllllllllllllllllllllllllZZZZZZZZZZZZZZZZ",
"ZZZZZZZZZZZZZZZZZZZZZZZZZZZZZZZZZZllllll  uuuuuuuurr              rruuuuuuuuuurr  rr  llllllllllllllllllllllZZZZZZZZZZZZZZZZZZZZ",
"ZZZZZZZZZZZZZZZZZZZZZZZZZZZZZZZZZZllllll  uuuuuuuurr              rruuuuuuuuuurr  rr  llllllllllllllllllllllZZZZZZZZZZZZZZZZZZZZ",
"ZZZZZZZZZZZZZZZZZZZZZZZZZZZZZZZZZZllllll  rruuuuuuuuuuuuuuuuuuuuuuuuuuuuuuuuuu  rrrr    llllllllllllllZZZZZZZZZZZZZZZZZZZZZZZZZZ",
"ZZZZZZZZZZZZZZZZZZZZZZZZZZZZZZZZZZllllll  rruuuuuuuuuuuuuuuuuuuuuuuuuuuuuuuuuu  rrrr    llllllllxlllllZZZZZZZZZZZZZZZZZZZZZZZZZZ",
"ZZZZZZZZZZZZZZZZZZZZZZZZZZZZZZZZZZllllllll  rrrruuuuuuuuuuuuuuuuuuuuuuuuuuuu  rrrr  rr  llllllllZZZZZZZZZZZZZZZZZZZZZZZZZZZZZZZZ",
"ZZZZZZZZZZZZZZZZZZZZZZZZZZZZZZZZZZllllllll  rrrruuuuuuuuuuuuuuuuuuuuuuuuuuuu  rrrr  rr  llllllllZZZZZZZZZZZZZZZZZZZZZZZZZZZZZZZZ",
"ZZZZZZZZZZZZZZZZZZZZZZZZZZZZZZZZZZZZllllll  rrrrrrrrrrrrrrrrrrrrrruuuuuuuurrrrrr  rr  &&llZZZZZZZZZZZZZZZZZZZZZZZZZZZZZZZZZZZZZZ",
"ZZZZZZZZZZZZZZZZZZZZZZZZZZZZZZZZZZZZllllll  rrrrrrrrrrrrrrrrrrrrrruuuuuuuurrrrrr  rr  $&llZZZZZZZZZZZZZZZZZZZZZZZZZZZZZZZZZZZZZZ",
"ZZZZZZZZZZZZZZZZZZZZZZZZZZZZZZZZZZZZllll        rrrrrrrrrrrruuuuuuuuuuuurrrrrrrrrr    ZZZZZZZZZZZZZZZZZZZZZZZZZZZZZZZZZZZZZZZZZZ",
"ZZZZZZZZZZZZZZZZZZZZZZZZZZZZZZZZZZZZllll        rrrrrrrrrrrruuuuuuuuuuuurrrrrrrrrr    ZZZZZZZZZZZZZZZZZZZZZZZZZZZZZZZZZZZZZZZZZZ",
"ZZZZZZZZZZZZZZZZZZZZZZZZZZZZZZZZZZZZll        rrrrrrrrrrrruuuuuuuuuuuurrrrrryyrr  ZZZZZZZZZZZZZZZZZZZZZZZZZZZZZZZZZZZZZZZZZZZZZZ",
"ZZZZZZZZZZZZZZZZZZZZZZZZZZZZZZZZZZZZll        rrrrrrrrrrrruuuuuuuuuuuurrrrrryyrr  ZZZZZZZZZZZZZZZZZZZZZZZZZZZZZZZZZZZZZZZZZZZZZZ",
"ZZZZZZZZZZZZZZZZZZZZZZZZZZZZZZZZZZZZll    rr  rrrrrrrruuuuuuuuuuuurrrrrrrr     ZZZZZZZZZZZZZZZZZZZZZZZZZZZZZZZZZZZZZZZZZZZZZZZZZ",
"ZZZZZZZZZZZZZZZZZZZZZZZZZZZZZZZZZZZZll    rr  rrrrrrrruuuuuuuuuuuurrrrrrrr     ZZZZZZZZZZZZZZZZZZZZZZZZZZZZZZZZZZZZZZZZZZZZZZZZZ",
"ZZZZZZZZZZZZZZZZZZZZZZZZZZZZZZZZZZZZZZ  uurr    rruuuuuuuuuuuurrrrrr     ZZZZZZZZZZZZZZZZZZZZZZZZZZZZZZZZZZZZZZZZZZZZZZZZZZZZZZZ",
"ZZZZZZZZZZZZZZZZZZZZZZZZZZZZZZZZZZZZZZ  uurr    rruuuuuuuuuuuurrrrrr     ZZZZZZZZZZZZZZZZZZZZZZZZZZZZZZZZZZZZZZZZZZZZZZZZZZZZZZZ",
"ZZZZZZZZZZZZZZZZZZZZZZZZZZZZZZZZZZZZ44  uuuuuu    rrrrrrrrrrrr     ZZZZZZZZZZZZZZZZZZZZZZZZZZZZZZZZZZZZZZZZZZZZZZZZZZZZZZZZZZZZZ",
"ZZZZZZZZZZZZZZZZZZZZZZZZZZZZZZZZZZZZZZ  uuuuuu    rrrrrrrrttrr     ZZZZZZZZZZZZZZZZZZZZZZZZZZZZZZZZZZZZZZZZZZZZZZZZZZZZZZZZZZZZZ",
"ZZZZZZZZZZZZZZZZZZZZZZZZZZZZZZZZZZZZZZ  uuuuuuuuuuuupp       ZZZZZZZZZZZZZZZZZZZZZZZZZZZZZZZZZZZZZZZZZZZZZZZZZZZZZZZZZZZZZZZZZZZ",
"ZZZZZZZZZZZZZZZZZZZZZZZZZZZZZZZZZZZZZZ  uuuuuuuuuuuupp       ZZZZZZZZZZZZZZZZZZZZZZZZZZZZZZZZZZZZZZZZZZZZZZZZZZZZZZZZZZZZZZZZZZZ",
"ZZZZZZZZZZZZZZZZZZZZZZZZZZZZZZZZZZZZZZ    uuuuii     ZZZZZZZZZZZZZZZZZZZZZZZZZZZZZZZZZZZZZZZZZZZZZZZZZZZZZZZZZZZZZZZZZZZZZZZZZZZ",
"ZZZZZZZZZZZZZZZZZZZZZZZZZZZZZZZZZZZZZZ    uuuuii     ZZZZZZZZZZZZZZZZZZZZZZZZZZZZZZZZZZZZZZZZZZZZZZZZZZZZZZZZZZZZZZZZZZZZZZZZZZZ",
"ZZZZZZZZZZZZZZZZZZZZZZZZZZZZZZZZZZZZZZZZZZ     ZZZZZZZZZZZZZZZZZZZZZZZZZZZZZZZZZZZZZZZZZZZZZZZZZZZZZZZZZZZZZZZZZZZZZZZZZZZZZZZZZ",
"ZZZZZZZZZZZZZZZZZZZZZZZZZZZZZZZZZZZZZZZZZZZZZZZZZZZZZZZZZZZZZZZZZZZZZZZZZZZZZZZZZZZZZZZZZZZZZZZZZZZZZZZZZZZZZZZZZZZZZZZZZZZZZZZZ",
"ZZZZZZZZZZZZZZZZZZZZZZZZZZZZZZZZZZZZZZZZZZZZZZZZZZZZZZZZZZZZZZZZZZZZZZZZZZZZZZZZZZZZZZZZZZZZZZZZZZZZZZZZZZZZZZZZZZZZZZZZZZZZZZZZ",
"ZZZZZZZZZZZZZZZZZZZZZZZZZZZZZZZZZZZZZZZZZZZZZZZZZZZZZZZZZZZZZZZZZZZZZZZZZZZZZZZZZZZZZZZZZZZZZZZZZZZZZZZZZZZZZZZZZZZZZZZZZZZZZZZZ",
"ZZZZZZZZZZZZZZZZZZZZZZZZZZZZZZZZZZZZZZZZZZZZZZZZZZZZZZZZZZZZZZZZZZZZZZZZZZZZZZZZZZZZZZZZZZZZZZZZZZZZZZZZZZZZZZZZZZZZZZZZZZZZZZZZ",
"ZZZZZZZZZZZZZZZZZZZZZZZZZZZZZZZZZZZZZZZZZZZZZZZZZZZZZZZZZZZZZZZZZZZZZZZZZZZZZZZZZZZZZZZZZZZZZZZZZZZZZZZZZZZZZZZZZZZZZZZZZZZZZZZZ",
"ZZZZZZZZZZZZZZZZZZZZZZZZZZZZZZZZZZZZZZZZZZZZZZZZZZZZZZZZZZZZZZZZZZZZZZZZZZZZZZZZZZZZZZZZZZZZZZZZZZZZZZZZZZZZZZZZZZZZZZZZZZZZZZZZ",
"ZZZZZZZZZZZZZZZZZZZZZZZZZZZZZZZZZZZZZZZZZZZZZZZZZZZZZZZZZZZZZZZZZZZZZZZZZZZZZZZZZZZZZZZZZZZZZZZZZZZZZZZZZZZZZZZZZZZZZZZZZZZZZZZZ",
"ZZZZZZZZZZZZZZZZZZZZZZZZZZZZZZZZZZZZZZZZZZZZZZZZZZZZZZZZZZZZZZZZZZZZZZZZZZZZZZZZZZZZZZZZZZZZZZZZZZZZZZZZZZZZZZZZZZZZZZZZZZZZZZZZ",
"ZZZZZZZZZZZZZZZZZZZZZZZZZZZZZZZZZZZZZZZZZZZZZZZZZZZZZZZZZZZZZZZZZZZZZZZZZZZZZZZZZZZZZZZZZZZZZZZZZZZZZZZZZZZZZZZZZZZZZZZZZZZZZZZZ"
};
