/* XPM */
static char *_645608790574[] = {
/* columns rows colors chars-per-pixel */
"128 128 46 1 ",
"  c black",
". c gray5",
"X c gray10",
"o c #1B1B1B",
"O c gray11",
"+ c #1D1D1D",
"@ c #1E1E1E",
"# c gray12",
"$ c #202020",
"% c gray17",
"& c #3E3E3E",
"* c #3F3F3F",
"= c #023368",
"- c gray25",
"; c #921010",
": c #941A1A",
"> c #951B1B",
", c #DD1E1E",
"< c #D83232",
"1 c #D83D3D",
"2 c #BD6035",
"3 c #BC6038",
"4 c #D0794F",
"5 c #EFA179",
"6 c #F0A078",
"7 c #F0A079",
"8 c #F0A179",
"9 c #045EBF",
"0 c #7291FC",
"q c #818181",
"w c #8E8E8E",
"e c gray56",
"r c gray57",
"t c #929292",
"y c #F3C199",
"u c #F6D5AD",
"i c #F7E0B8",
"p c #F8E0B8",
"a c #F8E1B8",
"s c #F8E0B9",
"d c #F8E1B9",
"f c #9FCCFD",
"g c #C1C1C1",
"h c #FCEEE7",
"j c white",
"k c None",
/* pixels */
"kkkkkkkkkkkkkkkkkkkkkkkkkkkkkkkkkkkkkkkkkkkkkkkkkkkkkkkkkkkkkkkkkkkkkkkkkkkkkkkkkkkkkkkkkkkkkkkkkkkkkkkkkkkkkkkkkkkkkkkkkkkkkkkk",
"kkkkkkkkkkkkkkkkkkkkkkkkkkkkkkkkkkkkkkkkkkkkkkkkkkkkkkkkkkkkkkkkkkkkkkkkkkkkkkkkkkkkkkkkkkkkkkkkkkkkkkkkkkkkkkkkkkkkkkkkkkkkkkkk",
"kkkkkkkkkkkkkkkkkkkkkkkkkkkkkkkkkkkkkkkkkkkkkkkkkkkkkkXXXXXXXXXXXXXXXXkkkkkkkkkkkkkkkkkkkkkkkkkkkkkkkkkkkkkkkkkkkkkkkkkkkkkkkkkk",
"kkkkkkkkkkkkkkkkkkkkkkkkkkkkkkkkkkkkkkkkkkkkkkkkkkkkkkXXXXXXXXXXXXXXXXkkkkkkkkkkkkkkkkkkkkkkkkkkkkkkkkkkkkkkkkkkkkkkkkkkkkkkkkkk",
"kkkkkkkkkkkkkkkkkkkkkkkkkkkkkkkkkkkkkkkkkkkkkkXXXXXXXXXX&&&&&&&&&&&&&&XXXXXXkkkkkkkkkkkkkkkkkkkkkkkkkkkkkkkkkkkkkkkkkkkkkkkkkkkk",
"kkkkkkkkkkkkkkkkkkkkkkkkkkkkkkkkkkkkkkkkkkkkkkXXXXXXXXXX&&&&&&&&&&&&&&XXXXXXkkkkkkkkkkkkkkkkkkkkkkkkkkkkkkkkkkkkkkkkkkkkkkkkkkkk",
"kkkkkkkkkkkkkkkkkkkkkkkkkkkkkkkkkkkkkkkkXXXXXX&&&&&&&&&&&&&&&&&&&&&&&&&&&&XX  kkkkkkkkkkkkkkkkkkkkkkkkkkkkkkkkkkkkkkkkkkkkkkkkkk",
"kkkkkkkkkkkkkkkkkkkkkkkkkkkkkkkkkkkkkkkkXXXXXX&&&&&&&&&&&&&&&&&&&&&&&&&&&&XX  kkkkkkkkkkkkkkkkkkkkkkkkkkkkkkkkkkkkkkkkkkkkkkkkkk",
"kkkkkkkkkkkkkkkkkkkkkkkkkkkkkkXXXXXXXXXXXX&&&&&&&&&&&&&&&&&&&&&&&&&&&&&&&&&&XX  kkkkkkkkkkkkkkkkkkkkkkkkkkkkkkkkkkkkkkkkkkkkkkkk",
"kkkkkkkkkkkkkkkkkkkkkkkkkkkkkkXXXXXXXXXXXX&&&&&&&&&&&&&&&&&&&&&&&&&&&&&&&&&&XX  kkkkkkkkkkkkkkkkkkkkkkkkkkkkkkkkkkkkkkkkkkkkkkkk",
"kkkkkkkkkkkkkkkkkkkkkkkkkkkkkkkkXX&&&&&&&&&&&&&&&&&&&&&&&&&&&&&&&&&&&&&&&&&&&&XX    kkkkkkkkkkkkkkkkkkkkkkkkkkkkkkkkkkkkkkkkkkkk",
"kkkkkkkkkkkkkkkkkkkkkkkkkkkkkkkkXX&&&&&&&&&&&&&&&&&&&&&&&&&&&&&&&&&&&&&&&&&&&&XX    kkkkkkkkkkkkkkkkkkkkkkkkkkkkkkkkkkkkkkkkkkkk",
"kkkkkkkkkkkkkkkkkkkkkkkkkkXXXXXX    XX&&&&&&&&&&&&&&&&&&&&&&&&&&&&&&&&&&&&&&&&XXXX&&XXkkkkkkkkkkkkkkkkkkkkkkkkkkkkkkkkkkkkkkkkkk",
"kkkkkkkkkkkkkkkkkkkkkkkkkkXXXXXX    XX&&&&&&&&&&&&&&&&&&&&&&&&&&&&&&&&&&&&&&&&XXXX&&XXkkkkkkkkkkkkkkkkkkkkkkkkkkkkkkkkkkkkkkkkkk",
"kkkkkkkkkkkkkkkkkkkkXXXXXX&&&&&&&&&&&&&&&&&&&&&&&&&&&&&&&&&&&&&&&&&&&&&&&&&&XXXXXX&&&&XXXXkkkkkkkkkkkkkkkkkkkkkkkkkkkkkkkkkkkkkk",
"kkkkkkkkkkkkkkkkkkkkXXXXXX&&&&&&&&&&&&&&&&&&&&&&&&&&&&&&&&&&&&&&&&&&&&&&&&&&XXXXXX&&&&XXXXkkkkkkkkkkkkkkkkkkkkkkkkkkkkkkkkkkkkkk",
"kkkkkkkkkkkkkkkkkkkkkkkk  XXXX&&&&&&&&&&&&&&&&&&&&&&&&&&&&&&&&&&&&&&&&&&&&&&XX&&&&&&&&&&&&XXXXkkkkkkkkkkkkkkkkkkkkkkkkkkkkkkkkkk",
"kkkkkkkkkkkkkkkkkkkkkkkk  XXXX&&&&&&&&&&&&&&&&&&&&&&&&&&&&&&&&&&&&&&&&&&&&&&XX&&&&&&&&&&&&XXXXkkkkkkkkkkkkkkkkkkkkkkkkkkkkkkkkkk",
"kkkkkkkkkkkkkkkkkkkkkkkkkk    XX&&&&&&&&&&&&&&&&&&&&&&&&&&&&&&&&&&&&&&&&&&&&&&&&&&&&&&&&&&&&XXkkkkkkkkkkkkkkkkkkkkkkkkkkkkkkkkkk",
"kkkkkkkkkkkkkkkkkkkkkkkkkk    XX&&&&&&&&&&&&&&&&&&&&&&&&&&&&&&&&&&&&&&&&&&&&&&&&&&&&&&&&&&&&XXkkkkkkkkkkkkkkkkkkkkkkkkkkkkkkkkkk",
"kkkkkkkkkkkkkkkkkkkkkkkk  XXXXXXXX&&&&&&&&&&&&&&XX&&&&&&&&&&&&&&&&&&&&&&&&&&&&&&&&&&&&&&&&&&&&XXkkkkkkkkkkkkkkkkkkkkkkkkkkkkkkkk",
"kkkkkkkkkkkkkkkkkkkkkkkk  XXXXXXXX&&&&&&&&&&&-&-$$-------------&-&&&&&&&&&&&&&&&&&&&&&&&&&&&&&XXkkkkkkkkkkkkkkkkkkkkkkkkkkkkkkkk",
"kkkkkkkkkkkkkkkkkkkkkkXXXXXXXX&&&&&&&&&&&-----$$-------------------&&&&&XX&&&&&&&&&&&&&&&&&&&&XXkkkkkkkkkkkkkkkkkkkkkkkkkkkkkkkk",
"kkkkkkkkkkkkkkkkkkkkkkXXXXXXXX&&&&&&----------$$----------------------&&XX&&&&&&&&&&&&&&&&&&&&XXkkkkkkkkkkkkkkkkkkkkkkkkkkkkkkkk",
"kkkkkkkkkkkkkkkkkkkkXXXX&&&&&&&&&&$$----------------------$$----------+XXX&&&&&&&&&&&&&&&&&&&&&&XXkkkkkkkkkkkkkkkkkkkkkkkkkkkkkk",
"kkkkkkkkkkkkkkkkkkkkXXXX&&&&&&&---$$----------------------$$----------$+XX&&&&&&&&&&&&&&&&&&&&&&XXkkkkkkkkkkkkkkkkkkkkkkkkkkkkkk",
"kkkkkkkkkkkkkkkkkkXX&&&&&&&&----$$----------$$----------  $$------$$$$$$+X&&&&&&&&XX&&&&&&&&&&&&&&XXkkkkkkkkkkkkkkkkkkkkkkkkkkkk",
"kkkkkkkkkkkkkkkkkkXX&&&&&&&-----$$----------$$----------  $$------$$$$$$+X&&&&&&&&XX&&&&&&&&&&&&&&XXkkkkkkkkkkkkkkkkkkkkkkkkkkkk",
"kkkkkkkkkkkkkkXXXX&&&&&&&&----  $$------$$$$--------$$    $$----$$$$$$$$-&&&&&&&&&&&XXXXXX&&&&&&&&&&  kkkkkkkkkkkkkkkkkkkkkkkkkk",
"kkkkkkkkkkkkkkXXXX&&&&&&&-----  $$------$$$$--------$$    $$----$$$$$$$$-&&&&&&&&&&&XXXXXX&&&&&&&&&&  kkkkkkkkkkkkkkkkkkkkkkkkkk",
"kkkkkkkkkkkk    XXXXXX&&------$$----$$$$$$--------$$      ----$$  $$$$$$--&&&&&&&&&&&&&&XXXXXX&&  XX    kkkkkkkkkkkkkkkkkkkkkkkk",
"kkkkkkkkkkkk    XXXXXX&&&-----$$----$$$$$$--------$$      ----$$  $$$$$$--&&&&&&&&&&&&&&XXXXXX&&  XX    kkkkkkkkkkkkkkkkkkkkkkkk",
"kkkkkkkkkkkkkkkkkk    XX+$--  $$----  $$$$------$$  33  $$--$$$$68  $$$$--&&&&&&&&&&&&&&&&XXXX&&&&  kkkkkkkkkkkkkkkkkkkkkkkkkkkk",
"kkkkkkkkkkkkkkkkkk    XX+$--  $$----  $$$$------$$  33  $$--$$$$68  $$$$---&&&&&&&&&&&&&&&XXXX&&&&  kkkkkkkkkkkkkkkkkkkkkkkkkkkk",
"kkkkkkkkkkkkkkkkkkkk  &&----$$--$$    $$----$$    6686  --$$  666633$$$$---&&&&&&&&&&&&&&&XXXXXX&&  kkkkkkkkkkkkkkkkkkkkkkkkkkkk",
"kkkkkkkkkkkkkkkkkkkk  &&----$$--$$    $$----$$    6666  --$$  666633$$$$----&&&&&&&&&&&&&&XXXXXX&&  kkkkkkkkkkkkkkkkkkkkkkkkkkkk",
"kkkkkkkkkkkkkkkkkk  &&&-----  $$  33$$--$$    86pppppp  $$  86pp6666$$$$---&&&&&XX&&&&XX&&&&XXXX&&  kkkkkkkkkkkkkkkkkkkkkkkkkkkk",
"kkkkkkkkkkkkkkkkkk  &&&-----  $$  33$$--$$    66pppppd  $$  66pp6666$$$$----&&&&XX&&&&XX&&&&XXXX&&  kkkkkkkkkkkkkkkkkkkkkkkkkkkk",
"kkkkkkkkkkkkkkkkXX&&&&&---$$$$  8666$$$$  66pppppppppp    86pppp6666  $$----&&&&&&&&&&XX&&XXXXXXXX  kkkkkkkkkkkkkkkkkkkkkkkkkkkk",
"kkkkkkkkkkkkkkkkXX&&&&----$$$$  6666$$$$  66pppppppppp    66pppp6666  $$----&&&&&&&&&&XX&&XXXXXXXX  kkkkkkkkkkkkkkkkkkkkkkkkkkkk",
"kkkkkkkkkkkkkkkkXX&&&&$$  $$  666666    86pppppppppppppppppp33$$pp6633$$-----&&&XX&&XXXX&&XXXXXXXXXXkkkkkkkkkkkkkkkkkkkkkkkkkkkk",
"kkkkkkkkkkkkkkkkXX&&&&$$  $$  666666    66pppppppppppppppppp33$$pp6633$$-----&&&XX&&XXXX&&XXXXXXXXXXkkkkkkkkkkkkkkkkkkkkkkkkkkkk",
"kkkkkkkkkkkkkkXX&&&&&&--$$  $$$$$$338666pppppppppppppp33$$$$66pppp6666$$-----&&&XX&&XXXXXXXXXXXXXXXX  kkkkkkkkkkkkkkkkkkkkkkkkkk",
"kkkkkkkkkkkkkkXX&&&&&&--$$  $$$$$$336666pppppppppppppp33$$$$66pppp6666$$-----&&&XX&&XXXXXXXXXXXXXXXX  kkkkkkkkkkkkkkkkkkkkkkkkkk",
"kkkkkkkkkkkkkkXX  &&XX--$$  338666$$$$pppppppppp66$$$$$$336666666666pp$$-----&&&&&XXXXXXXXXXXXXXXXXX  kkkkkkkkkkkkkkkkkkkkkkkkkk",
"kkkkkkkkkkkkkkXX  &&XX--$$  336666$$$$pppppppppp66$$$$$$336666666666pp$$-----&&&&&XXXXXXXXXXXXXXXXXX  kkkkkkkkkkkkkkkkkkkkkkkkkk",
"kkkkkkkkkkkkkkkkkk  XX--$$  33    336633pppppp66$$$$33666666666666pppp$$$$---&  &&XXXXXX  XXXXXXXX&&  kkkkkkkkkkkkkkkkkkkkkkkkkk",
"kkkkkkkkkkkkkkkkkk  XX&-$$  33    336633pppppp66$$$$33666666666866pppp$$$$--&&  &&XXXXXX  XXXXXXXX&&  kkkkkkkkkkkkkkkkkkkkkkkkkk",
"kkkkkkkkkkkkkkkkkk  XX----  86  00  3333pppppppp6666666633        dppp66$$--+X  &&XXXX  XXXXXX  XXXX  kkkkkkkkkkkkkkkkkkkkkkkkkk",
"kkkkkkkkkkkkkkkkkk  XX&---  66  00  3333pppppppp6668666633        pppp66$$--+X  &&XXXX  XXXXXX  XXXX  kkkkkkkkkkkkkkkkkkkkkkkkkk",
"kkkkkkkkkkkkkkkkkkXX&&----  3300jj00==  pppppppppp      jj====jj  pppppp$$--+X  &&XX  XXXXXXXXXX  XXXX  kkkkkkkkkkkkkkkkkkkkkkkk",
"kkkkkkkkkkkkkkkkkkXX&&&---  3300jj00==  pppppppppp      jj====jj  pppppp$$--oX  &&XX  XXXXXXXXXX  XXXX  kkkkkkkkkkkkkkkkkkkkkkkk",
"kkkkkkkkkkkkkkkkXX&&&&+$--  66jj99==99  66pppppppp660099  99ffjj86pppp66$$--XX  XXXXXX      XXXX  XX&&  kkkkkkkkkkkkkkkkkkkkkkkk",
"kkkkkkkkkkkkkkkkXX&&&&X$--  66jj99==99  66pppppppp680099  99ffjj66pppp66$$--XX  XXXXXX      XXXX  XX&&  kkkkkkkkkkkkkkkkkkkkkkkk",
"kkkkkkkkkkkkkkkkXX&&&&  $$  pp66ffffjj3366ppppppppjjjj==99ffff66pppppp33$$--XX  XXXX  888888  XXXX  XX  kkkkkkkkkkkkkkkkkkkkkkkk",
"kkkkkkkkkkkkkkkkXX&&&&  $$  pp66ffffjj3366ppppppppjjjj==99ffff66pppppp33$$-&XX  XXXX  888888  XXXX  XX  kkkkkkkkkkkkkkkkkkkkkkkk",
"kkkkkkkkkkkkkkkkXX&&&&  $$  ppppdppppp3366ppppppppppjjjjjjjj66pppppppd$$---&XXXXXX  2222228888  &&      kkkkkkkkkkkkkkkkkkkkkkkk",
"kkkkkkkkkkkkkkkkXX&&&&  $$  pppppppppp3366ppppppppppjjjjjjjj66pppppppd$$-&&&XXXXXX  2222228888  &&      kkkkkkkkkkkkkkkkkkkkkkkk",
"kkkkkkkkkkkkkkkkXX&&&&  XXXXpdpdpppppp66pppppppppppppppppppppppppppppdXX&&&&  &&XX  2288882288  &&  ww  kkkkkkkkkkkkkkkkkkkkkkkk",
"kkkkkkkkkkkkkkkkXX&&&&  XXXXdddddpiiii66ppppppppppppppppppppppppppddddXX&&&&  &&XX  2288882288  &&  ww  kkkkkkkkkkkkkkkkkkkkkkkk",
"kkkkkkkkkkkkkkkkXX&&XX    XX88dddddddd88dddddddddddddddddddddddddddddd  &&XX  &&XX  8822882288  XX  wwwwkkkkkkkkkkkkkkkkkkkkkkkk",
"kkkkkkkkkkkkkkkkXX&&XX    XX88dddddddd88dddddddddddddddddddddddddddddd  &&XX  &&XX  8822882288  XX  wwwwkkkkkkkkkkkkkkkkkkkkkkkk",
"kkkkkkkkkkkkkkkkXX&&  ww  XX88dddddd88dddddddddddddddddddddddddddddd88&&&&XX  &&XX  88888888    XX  wwwwkkkkkkkkkkkkkkkkkkkkkkkk",
"kkkkkkkkkkkkkkkkXX&&  ww  XX88dddddd88dddddddddddddddddddddddddddddd88&&&&XX  &&XX  88888888    XX  wwwwkkkkkkkkkkkkkkkkkkkkkkkk",
"kkkkkkkkkkkkkkkkXX  wwww  XX22dddddd22dddddddddddddddddddddddddddddd  &&XX  &&XXXX  228822  XX  XX  wwwwwwkkkkkkkkkkkkkkkkkkkkkk",
"kkkkkkkkkkkkkkkkXX  wwww  XX22dddddd22dddddddddddddddddddddddddddddd  &&XX  &&XXXX  228822  XX  XX  wwwwwwkkkkkkkkkkkkkkkkkkkkkk",
"kkkkkkkkkkkkkkkk  kkwwww  XX22dddddd2288dddd88dddddddddddddddddddddd  XXXX  XXXX  228822  XXXX  XX  wwwwwwkkkkkkkkkkkkkkkkkkkkkk",
"kkkkkkkkkkkkkkkk  kkwwww  XX22dddddd2288dddd88dddddddddddddddddddddd  XXXX  XXXX  228822  XXXX  XX  wwwwwwkkkkkkkkkkkkkkkkkkkkkk",
"kkkkkkkkkkkkkkkkkkkkkkww  XX  88dddddd  dd22dddddddddddddddddddddddd  XX  XXXXXX  22    XXXXXX  XX  wwwwwwkkkkkkkkkkkkkkkkkkkkkk",
"kkkkkkkkkkkkkkkkkkkkkkww  XX  88dddddd  dd22dddddddddddddddddddddddd  XX  XXXXXX  22    XXXXXX  XX  wwwwwwkkkkkkkkkkkkkkkkkkkkkk",
"kkkkkkkkkkkkkkkkkkkkkkww  XXXX88dddddddddddddddddddddddddddddddddddd    88  XXXX      XXXXXXXXww    wwwwwwwwkkkkkkkkkkkkkkkkkkkk",
"kkkkkkkkkkkkkkkkkkkkkkww  XXXX88dddddddddddddddddddddddddddddddddddd    88  XXXX      XXXXXXXXww    wwwwwwwwkkkkkkkkkkkkkkkkkkkk",
"kkkkkkkkkkkkkkkkkkkkkkkkww  XX22dddddddddddddddd88222288dddddddddd88  88    XX      XX  XXXX  ww    wwwwwwwwkkkkkkkkkkkkkkkkkkkk",
"kkkkkkkkkkkkkkkkkkkkkkkkww  XX22dddddddddddddddd88222288dddddddddd88  88    XX      XX  XXXX  ww    wwwwwwwwkkkkkkkkkkkkkkkkkkkk",
"kkkkkkkkkkkkkkkkkkkkkkkkww  XX  88dddd2222228888ggjjjjjj22dddddddd  dddd  XX    XXXXXX  XXXX  wwww  wwwwwwwwkkkkkkkkkkkkkkkkkkkk",
"kkkkkkkkkkkkkkkkkkkkkkkkww  XX  88dddd2222228888ggjjjjjj22dddddddd  dddd  XX    XXXXXX  XXXX  wwww  wwwwwwwwkkkkkkkkkkkkkkkkkkkk",
"kkkkkkkkkkkkkkkkkkkkkkkkww  XXXX2288dddd22jjjjjjjjjjggqqjj22dddddddddd  XX  XX  XXXXXX  XXXX  wwwwwwwwwwwwwwwwkkkkkkkkkkkkkkkkkk",
"kkkkkkkkkkkkkkkkkkkkkkkkww  XXXX2258dddd22jjjjjjjjjjggqqjj22dddddddddd  XX  XX  XXXXXX  XXXX  wwwwwwwwwwwwwwwwkkkkkkkkkkkkkkkkkk",
"kkkkkkkkkkkkkkkkkkkkkkkkkkww  XX  22dddd22ggggqqqqggjjjjgg22dddddd88  XX      XX  XX    XXXXwwwwwwwwwwwwwwwwwwkkkkkkkkkkkkkkkkkk",
"kkkkkkkkkkkkkkkkkkkkkkkkkkww  XX  22dddd42ggggqqqqggjjjjgg22dddddd88  XX      XX  XX    XXXXwwwwwwwwwwwwwwwwwwwwkkkkkkkkkkkkkkkk",
"kkkkkkkkkkkkkkkkkkkkkkkkkkww  XX  ww22dddyjjjjjjjjjjjjgg2288dddddd        XX    XXXX  XXXX  wwwwwwwwwwwwwwwwwwwwkkkkkkkkkkkkkkkk",
"kkkkkkkkkkkkkkkkkkkkkkkkkkww  XX  ww22ddddhjjjjjjjjjjjgg2288dddddd        XX    XXXX  XXXX  wwwwwwwwwwwwwwwwwwwwkkkkkkkkkkkkkkkk",
"kkkkkkkkkkkkkkkkkkkkkkkkkkwwww  wwwwww  ddu8882222222222dddddddd8822          XXXXXX  XXXX  wwwwwwwwwwwwwwwwwwwtkkkkkkkkkkkkkkkk",
"kkkkkkkkkkkkkkkkkkkkkkkkkkwwww  wwwwww  dddy882222222222dddddddd8822          XXXXXX  XXXX  wwwwwwwwwwwwwwwwwwwtkkkkkkkkkkkkkkkk",
"kkkkkkkkkkkkkkkkkkkkkkkkkkkkww  wwwwwwww  dddddddddddddddddd8888    2288  22  XXXX    XX  wwwwwwwwwwwwwwwwwwwwwwkkkkkkkkkkkkkkkk",
"kkkkkkkkkkkkkkkkkkkkkkkkkkkkww  wwwwwwww  dddddddddddddddddd8888    2288  22  XXXX    XX  wwwwwwwwwwwwwwwwwwwwwtkkkkkkkkkkkkkkkk",
"kkkkkkkkkkkkkkkkkkkkkkkkkkkkwwwwwwwwwwwwww  dddddddddd8888      228888888822    XX  wwXX  wwwwwwwwwwwwwwwwwwwwwwtwkkkkkkkkkkkkkk",
"kkkkkkkkkkkkkkkkkkkkkkkkkkkkwwwwwwwwwwwwww  dddddddddd8888      228888888822    XX  wwXX  wwwwwwwwwwwwwwwwwwwwwwwtkkkkkkkkkkkkkk",
"kkkkkkkkkkkkkkkkkkkkkkkkkkkkwwwwwwwwwwwwwwww              2288888888dddd88      XX  wwXX  wwwwwwwwwwwwwwwwwwwwwwwtkkkkkkkkkkkkkk",
"kkkkkkkkkkkkkkkkkkkkkkkkkkkkwwwwwwwwwwwwwwww              2288888888dddd88      XX  wwXX  wwwwwwwwwwwwwwwwwwwwwwwwkkkkkkkkkkkkkk",
"kkkkkkkkkkkkkkkkkkkkkkkkkkkkkkwwwwwwwwwwww    ;;  228888888888888888888822  ;;;;    wwXXwwwwwwwwwwwwwwwwwwwwwwwwwwkkkkkkkkkkkkkk",
"kkkkkkkkkkkkkkkkkkkkkkkkkkkkkkwwwwwwwwwwww    ;;  228888888888888888888822  ;;;;    wwXXwwwwwwwwwwwwwwwwwwwwwwwwwwkkkkkkkkkkkkkk",
"kkkkkkkkkkkkkkkkkkkkkkkkkkkkkkwwwwwwwwww  ;;  ;;  8888dddddd8888888888    ;;,,;;  wwww  wwwwwwwwwwwwwwwwwwwwwwwwwwkkkkkkkkkkkkkk",
"kkkkkkkkkkkkkkkkkkkkkkkkkkkkkkwwwwwwwwww  ;;  ;;  8888dddddd8888888888    ;;,,;;  wwww  wwwwwwwwwwwwwwwwwwwwwwwwwwkkkkkkkkkkkkkk",
"kkkkkkkkkkkkkkkkkkkkkkkkkkkkkkwwwwwwww;;,,,,,,    22888888888888      ;;,,,,,,  ;;  wwwwwwwwwwwwwwwwwwwwwwwwwwkkkkkkkkkkkkkkkkkk",
"kkkkkkkkkkkkkkkkkkkkkkkkkkkkkkwwwwwwww;;,,,,,,    22555888888888      ;;,,,,,,  ;;  wwwwwwwwwwwwwwwwwwwwwwwwwwkkkkkkkkkkkkkkkkkk",
"kkkkkkkkkkkkkkkkkkkkkkkkkkkkkkkkwwwwww  ,,,,,,,,;;              ;;,,,,,,,,,,;;  ;;  wwwwwwwwwwwwwwwwwwwwwwkkkkkkkkkkkkkkkkkkkkkk",
"kkkkkkkkkkkkkkkkkkkkkkkkkkkkkkkkwwwwww  ,,,,,,,,;;              ;;,,,,,,,,,,;;  ;;  wwwwwwwwwwwwwwwwwwwwwwkkkkkkkkkkkkkkkkkkkkkk",
"kkkkkkkkkkkkkkkkkkkkkkkkkkkkkkkkwwwwww  ;;,,,,,,,,,,,,,,,,,,,,,,,,,,,,,,,,,,  ;;;;    wwwwwwwwtwwwwwkkkkkkkkkkkkkkkkkkkkkkkkkkkk",
"kkkkkkkkkkkkkkkkkkkkkkkkkkkkkkkkwwwwww  ;;,,,,,,,,,,,,,,,,,,,,,,,,,,,,,,,,,,  ;;;;    wwwwwwwwwwwwwwkkkkkkkkkkkkkkkkkkkkkkkkkkkk",
"kkkkkkkkkkkkkkkkkkkkkkkkkkkkkkkkwwwwwwww  ;;;;,,,,,,,,,,,,,,,,,,,,,,,,,,,,  ;;;;  ;;  wwwwwwwwkkkkkkkkkkkkkkkkkkkkkkkkkkkkkkkkkk",
"kkkkkkkkkkkkkkkkkkkkkkkkkkkkkkkkwwwwwwww  ;;;;,,,,,,,,,,,,,,,,,,,,,,,,,,,,  ;;;;  ;;  wwwwwwwwkkkkkkkkkkkkkkkkkkkkkkkkkkkkkkkkkk",
"kkkkkkkkkkkkkkkkkkkkkkkkkkkkkkkkkkwwwwww  ;;;;;;;;;;;;;;;;;;;;;;,,,,,,,,;;;;;;  ;;  ..wwkkkkkkkkkkkkkkkkkkkkkkkkkkkkkkkkkkkkkkkk",
"kkkkkkkkkkkkkkkkkkkkkkkkkkkkkkkkkkwwwwww  ;;;;;;;;;;;;;;;;;;;;;;,,,,,,,,;;;;;;  ;;  ..wwkkkkkkkkkkkkkkkkkkkkkkkkkkkkkkkkkkkkkkkk",
"kkkkkkkkkkkkkkkkkkkkkkkkkkkkkkkkkkwwww        ;;;;;;;;;;;;,,,,,,,,,,,,;;;;;;;;;;    kkkkkkkkkkkkkkkkkkkkkkkkkkkkkkkkkkkkkkkkkkkk",
"kkkkkkkkkkkkkkkkkkkkkkkkkkkkkkkkkkwwww        ;;;;;;;;;;;;,,,,,,,,,,,,;;;;;;;;;;    kkkkkkkkkkkkkkkkkkkkkkkkkkkkkkkkkkkkkkkkkkkk",
"kkkkkkkkkkkkkkkkkkkkkkkkkkkkkkkkkkww        ;;;;;;;;;;;;,,,,,,,,,,,,;;;;;;>>;;  kkkkkkkkkkkkkkkkkkkkkkkkkkkkkkkkkkkkkkkkkkkkkkkk",
"kkkkkkkkkkkkkkkkkkkkkkkkkkkkkkkkkkww        ;;;;;;;;;;;;,,,,,,,,,,,,;;;;;;>>;;  kkkkkkkkkkkkkkkkkkkkkkkkkkkkkkkkkkkkkkkkkkkkkkkk",
"kkkkkkkkkkkkkkkkkkkkkkkkkkkkkkkkkkww    ;;  ;;;;;;;;,,,,,,,,,,,,;;;;;;;;     kkkkkkkkkkkkkkkkkkkkkkkkkkkkkkkkkkkkkkkkkkkkkkkkkkk",
"kkkkkkkkkkkkkkkkkkkkkkkkkkkkkkkkkkww    ;;  ;;;;;;;;,,,,,,,,,,,,;;;;;;;;     kkkkkkkkkkkkkkkkkkkkkkkkkkkkkkkkkkkkkkkkkkkkkkkkkkk",
"kkkkkkkkkkkkkkkkkkkkkkkkkkkkkkkkkk    ,,;;    ;;,,,,,,,,,,,,;;;;;;     kkkkkkkkkkkkkkkkkkkkkkkkkkkkkkkkkkkkkkkkkkkkkkkkkkkkkkkkk",
"kkkkkkkkkkkkkkkkkkkkkkkkkkkkkkkkkk    ,,;;    ;;,,,,,,,,,,,,;;;;;;     kkkkkkkkkkkkkkkkkkkkkkkkkkkkkkkkkkkkkkkkkkkkkkkkkkkkkkkkk",
"kkkkkkkkkkkkkkkkkkkkkkkkkkkkkkkkkk%%  ,,,,,,    ;;;;;;;;;;;;     kkkkkkkkkkkkkkkkkkkkkkkkkkkkkkkkkkkkkkkkkkkkkkkkkkkkkkkkkkkkkkk",
"kkkkkkkkkkkkkkkkkkkkkkkkkkkkkkkkkkkk  ,,,,,,    ;;;;;;;;:>;;     kkkkkkkkkkkkkkkkkkkkkkkkkkkkkkkkkkkkkkkkkkkkkkkkkkkkkkkkkkkkkkk",
"kkkkkkkkkkkkkkkkkkkkkkkkkkkkkkkkkkkk  ,,,,,,,,,,,,11       kkkkkkkkkkkkkkkkkkkkkkkkkkkkkkkkkkkkkkkkkkkkkkkkkkkkkkkkkkkkkkkkkkkkk",
"kkkkkkkkkkkkkkkkkkkkkkkkkkkkkkkkkkkk  ,,,,,,,,,,,,11       kkkkkkkkkkkkkkkkkkkkkkkkkkkkkkkkkkkkkkkkkkkkkkkkkkkkkkkkkkkkkkkkkkkkk",
"kkkkkkkkkkkkkkkkkkkkkkkkkkkkkkkkkkkk    ,,,,<<     kkkkkkkkkkkkkkkkkkkkkkkkkkkkkkkkkkkkkkkkkkkkkkkkkkkkkkkkkkkkkkkkkkkkkkkkkkkkk",
"kkkkkkkkkkkkkkkkkkkkkkkkkkkkkkkkkkkk    ,,,,<<     kkkkkkkkkkkkkkkkkkkkkkkkkkkkkkkkkkkkkkkkkkkkkkkkkkkkkkkkkkkkkkkkkkkkkkkkkkkkk",
"kkkkkkkkkkkkkkkkkkkkkkkkkkkkkkkkkkkkkkkk     kkkkkkkkkkkkkkkkkkkkkkkkkkkkkkkkkkkkkkkkkkkkkkkkkkkkkkkkkkkkkkkkkkkkkkkkkkkkkkkkkkk",
"kkkkkkkkkkkkkkkkkkkkkkkkkkkkkkkkkkkkkkkkkkkkkkkkkkkkkkkkkkkkkkkkkkkkkkkkkkkkkkkkkkkkkkkkkkkkkkkkkkkkkkkkkkkkkkkkkkkkkkkkkkkkkkkk",
"kkkkkkkkkkkkkkkkkkkkkkkkkkkkkkkkkkkkkkkkkkkkkkkkkkkkkkkkkkkkkkkkkkkkkkkkkkkkkkkkkkkkkkkkkkkkkkkkkkkkkkkkkkkkkkkkkkkkkkkkkkkkkkkk",
"kkkkkkkkkkkkkkkkkkkkkkkkkkkkkkkkkkkkkkkkkkkkkkkkkkkkkkkkkkkkkkkkkkkkkkkkkkkkkkkkkkkkkkkkkkkkkkkkkkkkkkkkkkkkkkkkkkkkkkkkkkkkkkkk",
"kkkkkkkkkkkkkkkkkkkkkkkkkkkkkkkkkkkkkkkkkkkkkkkkkkkkkkkkkkkkkkkkkkkkkkkkkkkkkkkkkkkkkkkkkkkkkkkkkkkkkkkkkkkkkkkkkkkkkkkkkkkkkkkk",
"kkkkkkkkkkkkkkkkkkkkkkkkkkkkkkkkkkkkkkkkkkkkkkkkkkkkkkkkkkkkkkkkkkkkkkkkkkkkkkkkkkkkkkkkkkkkkkkkkkkkkkkkkkkkkkkkkkkkkkkkkkkkkkkk",
"kkkkkkkkkkkkkkkkkkkkkkkkkkkkkkkkkkkkkkkkkkkkkkkkkkkkkkkkkkkkkkkkkkkkkkkkkkkkkkkkkkkkkkkkkkkkkkkkkkkkkkkkkkkkkkkkkkkkkkkkkkkkkkkk",
"kkkkkkkkkkkkkkkkkkkkkkkkkkkkkkkkkkkkkkkkkkkkkkkkkkkkkkkkkkkkkkkkkkkkkkkkkkkkkkkkkkkkkkkkkkkkkkkkkkkkkkkkkkkkkkkkkkkkkkkkkkkkkkkk",
"kkkkkkkkkkkkkkkkkkkkkkkkkkkkkkkkkkkkkkkkkkkkkkkkkkkkkkkkkkkkkkkkkkkkkkkkkkkkkkkkkkkkkkkkkkkkkkkkkkkkkkkkkkkkkkkkkkkkkkkkkkkkkkkk",
"kkkkkkkkkkkkkkkkkkkkkkkkkkkkkkkkkkkkkkkkkkkkkkkkkkkkkkkkkkkkkkkkkkkkkkkkkkkkkkkkkkkkkkkkkkkkkkkkkkkkkkkkkkkkkkkkkkkkkkkkkkkkkkkk"
};
