/* XPM */
static char *_645604932426[] = {
/* columns rows colors chars-per-pixel */
"128 128 78 1 ",
"  c black",
". c #020202",
"X c #040404",
"o c #060606",
"O c gray3",
"+ c gray4",
"@ c #0C0C0C",
"# c #170C07",
"$ c #100E0C",
"% c #101010",
"& c gray7",
"* c #151515",
"= c #161616",
"- c #1E1E1E",
"; c #2E180E",
": c #3B281E",
"> c #202020",
", c #2A2A2A",
"< c #2C2C2C",
"1 c #2F2F2F",
"2 c #3E382E",
"3 c gray19",
"4 c gray22",
"5 c #4A3225",
"6 c #77503C",
"7 c #023368",
"8 c gray25",
"9 c #565046",
"0 c #7B705C",
"q c #7C705C",
"w c #7D705C",
"e c #911717",
"r c #932020",
"t c #942121",
"y c #DC2323",
"u c #D73535",
"i c #D73F3F",
"p c #8E482A",
"a c #965032",
"s c #9F5433",
"d c #9E583A",
"f c #B05A34",
"g c #BC6038",
"h c #C96F48",
"j c #C37048",
"k c #CF7850",
"l c #BC8062",
"z c #CF8860",
"x c #C98867",
"c c #D28C69",
"v c #F09F78",
"b c #EFA078",
"n c #F0A078",
"m c #F1A47C",
"M c #045EBF",
"N c #7291FC",
"B c #808080",
"V c #8D8D8D",
"C c #8E8E8E",
"Z c #909090",
"A c gray57",
"S c #F1A880",
"D c #F2AC84",
"F c #F2B088",
"G c #F3B38C",
"H c #E5B990",
"J c #E9C098",
"K c #F3C098",
"L c #F5CCA4",
"P c #F6D4AC",
"I c #F7DCB4",
"U c #F7E0B8",
"Y c #F8E0B8",
"T c #9FCCFD",
"R c #C0C0C0",
"E c #FCEDE6",
"W c white",
"Q c None",
/* pixels */
"QQQQQQQQQQQQQQQQQQQQQQQQQQQQQQQQQQQQQQQQQQQQQQQQQQQQQQQQQQQQQQQQQQQQQQQQQQQQQQQQQQQQQQQQQQQQQQQQQQQQQQQQQQQQQQQQQQQQQQQQQQQQQQQQ",
"QQQQQQQQQQQQQQQQQQQQQQQQQQQQQQQQQQQQQQQQQQQQQQQQQQQQQQQQQQQQQQQQQQQQQQQQQQQQQQQQQQQQQQQQQQQQQQQQQQQQQQQQQQQQQQQQQQQQQQQQQQQQQQQQ",
"QQQQQQQQQQQQQQQQQQQQQQQQQQQQQQQQQQQQQQQQQQQQQQQQQQQQQQ>>>>>>>>>>>>>>>>QQQQQQQQQQQQQQQQQQQQQQQQQQQQQQQQQQQQQQQQQQQQQQQQQQQQQQQQQQ",
"QQQQQQQQQQQQQQQQQQQQQQQQQQQQQQQQQQQQQQQQQQQQQQQQQQQQQQ>>>>>>>>>>>>>>>>QQQQQQQQQQQQQQQQQQQQQQQQQQQQQQQQQQQQQQQQQQQQQQQQQQQQQQQQQQ",
"QQQQQQQQQQQQQQQQQQQQQQQQQQQQQQQQQQQQQQQQQQQQQQ>>>>>>>>>>88888888888888>>>>>>QQQQQQQQQQQQQQQQQQQQQQQQQQQQQQQQQQQQQQQQQQQQQQQQQQQQ",
"QQQQQQQQQQQQQQQQQQQQQQQQQQQQQQQQQQQQQQQQQQQQQQ>>>>>>>>>>88888888888888>>>>>>QQQQQQQQQQQQQQQQQQQQQQQQQQQQQQQQQQQQQQQQQQQQQQQQQQQQ",
"QQQQQQQQQQQQQQQQQQQQQQQQQQQQQQQQQQQQQQQQ>>>>>>8888888888888888888888888888>>  QQQQQQQQQQQQQQQQQQQQQQQQQQQQQQQQQQQQQQQQQQQQQQQQQQ",
"QQQQQQQQQQQQQQQQQQQQQQQQQQQQQQQQQQQQQQQQ>>>>>>8888888888888888888888888888>>  QQQQQQQQQQQQQQQQQQQQQQQQQQQQQQQQQQQQQQQQQQQQQQQQQQ",
"QQQQQQQQQQQQQQQQQQQQQQQQQQQQQQ>>>>>>>>>>>>8888888888888888888888888888888888>>  QQQQQQQQQQQQQQQQQQQQQQQQQQQQQQQQQQQQQQQQQQQQQQQQ",
"QQQQQQQQQQQQQQQQQQQQQQQQQQQQQQ>>>>>>>>>>>>8888888888888888888888888888888888>>  QQQQQQQQQQQQQQQQQQQQQQQQQQQQQQQQQQQQQQQQQQQQQQQQ",
"QQQQQQQQQQQQQQQQQQQQQQQQQQQQQQQQ>>88888888888888888888888888888888888888888888>>    QQQQQQQQQQQQQQQQQQQQQQQQQQQQQQQQQQQQQQQQQQQQ",
"QQQQQQQQQQQQQQQQQQQQQQQQQQQQQQQQ>>88888888888888888888888888888888888888888888>>    QQQQQQQQQQQQQQQQQQQQQQQQQQQQQQQQQQQQQQQQQQQQ",
"QQQQQQQQQQQQQQQQQQQQQQQQQQ>>>>>>    >>8888888888888888888888888888888888888888>>>>88>>QQQQQQQQQQQQQQQQQQQQQQQQQQQQQQQQQQQQQQQQQQ",
"QQQQQQQQQQQQQQQQQQQQQQQQQQ>>>>>>    >>8888888888888888888888888888888888888888>>>>88>>QQQQQQQQQQQQQQQQQQQQQQQQQQQQQQQQQQQQQQQQQQ",
"QQQQQQQQQQQQQQQQQQQQ>>>>>>88888888888888888888888888888888888888888888888888>>>>>>8888>>>>QQQQQQQQQQQQQQQQQQQQQQQQQQQQQQQQQQQQQQ",
"QQQQQQQQQQQQQQQQQQQQ>>>>>>88888888888888888888888888888888888888888888888888>>>>>>8888>>>>QQQQQQQQQQQQQQQQQQQQQQQQQQQQQQQQQQQQQQ",
"QQQQQQQQQQQQQQQQQQQQQQQQ  >>>>8888888888888888888888888888888888888888888888>>888888888888>>>>QQQQQQQQQQQQQQQQQQQQQQQQQQQQQQQQQQ",
"QQQQQQQQQQQQQQQQQQQQQQQQ  >>>>8888888888888888888888888888888888888888888888>>888888888888>>>>QQQQQQQQQQQQQQQQQQQQQQQQQQQQQQQQQQ",
"QQQQQQQQQQQQQQQQQQQQQQQQQQ    >>888888888888888888888888888888888888888888888888888888888888>>QQQQQQQQQQQQQQQQQQQQQQQQQQQQQQQQQQ",
"QQQQQQQQQQQQQQQQQQQQQQQQQQ    >>888888888888888888888888888888888888888888888888888888888888>>QQQQQQQQQQQQQQQQQQQQQQQQQQQQQQQQQQ",
"QQQQQQQQQQQQQQQQQQQQQQQQ  >>>>>>>>88888888888888>>88888888888888888888888888888888888888888888>>QQQQQQQQQQQQQQQQQQQQQQQQQQQQQQQQ",
"QQQQQQQQQQQQQQQQQQQQQQQQ  >>>>>>>>88888888888888>>88888888888888888888888888888888888888888888>>QQQQQQQQQQQQQQQQQQQQQQQQQQQQQQQQ",
"QQQQQQQQQQQQQQQQQQQQQQ>>>>>>>>8888888888888888>>888888888888888888888888>>88888888888888888888>>QQQQQQQQQQQQQQQQQQQQQQQQQQQQQQQQ",
"QQQQQQQQQQQQQQQQQQQQQQ>>>>>>>>8888888888888888>>888888888888888888888888>>88888888888888888888>>QQQQQQQQQQQQQQQQQQQQQQQQQQQQQQQQ",
"QQQQQQQQQQQQQQQQQQQQ>>>>8888888888>>8888888888888888888888>>8888888888>>>>8888888888888888888888>>QQQQQQQQQQQQQQQQQQQQQQQQQQQQQQ",
"QQQQQQQQQQQQQQQQQQQQ>>>>8888888888>>8888888888888888888888>>8888888888>>>>8888888888888888888888>>QQQQQQQQQQQQQQQQQQQQQQQQQQQQQQ",
"QQQQQQQQQQQQQQQQQQ>>888888888888>>8888888888>>8888888888  >>888888>>>>>>>>88888888>>88888888888888>>QQQQQQQQQQQQQQQQQQQQQQQQQQQQ",
"QQQQQQQQQQQQQQQQQQ>>888888888888>>8888888888>>8888888888  >>888888>>>>>>>>88888888>>88888888888888>>QQQQQQQQQQQQQQQQQQQQQQQQQQQQ",
"QQQQQQQQQQQQQQ>>>>888888888888  >>888888>>>>88888888>>    >>8888>>>>>>>>888888888888>>>>>>8888888888  QQQQQQQQQQQQQQQQQQQQQQQQQQ",
"QQQQQQQQQQQQQQ>>>>888888888888  >>888888>>>>88888888>>    >>8888>>>>>>>>888888888888>>>>>>8888888888  QQQQQQQQQQQQQQQQQQQQQQQQQQ",
"QQQQQQQQQQQQ    >>>>>>88888888>>8888>>>>>>88888888>>      8888>>  >>>>>>8888888888888888>>>>>>88  >>    QQQQQQQQQQQQQQQQQQQQQQQQ",
"QQQQQQQQQQQQ    >>>>>>88888888>>8888>>>>>>88888888>>      8888>>  >>>>>>8888888888888888>>>>>>88  >>    QQQQQQQQQQQQQQQQQQQQQQQQ",
"QQQQQQQQQQQQQQQQQQ    >>>>88  >>8888  >>>>888888>>  gg  >>88>>>>nn  >>>>888888888888888888>>>>8888  QQQQQQQQQQQQQQQQQQQQQQQQQQQQ",
"QQQQQQQQQQQQQQQQQQ    >>>>88  >>8888  >>>>888888>>  gg  >>88>>>>nn  >>>>888888888888888888>>>>8888  QQQQQQQQQQQQQQQQQQQQQQQQQQQQ",
"QQQQQQQQQQQQQQQQQQQQ  888888>>88>>    >>8888>>    nnnn  88>>  nnnngg>>>>888888888888888888>>>>>>88  QQQQQQQQQQQQQQQQQQQQQQQQQQQQ",
"QQQQQQQQQQQQQQQQQQQQ  888888>>88>>    >>8888>>    nnnn  88>>  nnnngg>>>>888888888888888888>>>>>>88  QQQQQQQQQQQQQQQQQQQQQQQQQQQQ",
"QQQQQQQQQQQQQQQQQQ  88888888  >>  gg>>48>> 56wKKYYYww9-  x6$nnYYnnnn>>>>88888888>>8888>>8888>>>>88  QQQQQQQQQQQQQQQQQQQQQQQQQQQQ",
"QQQQQQQQQQQQQQQQQQ  88888888  >>  sd<>,&+o nnYYYYYY  >>  nnYLnIYnnnn>>>>88888888>>8888>>8888>>>>88  QQQQQQQQQQQQQQQQQQQQQQQQQQQQ",
"QQQQQQQQQQQQQQQQ>>88888888>=+lcnn>>>>  nbUYYYYYYYYY    nnYYYYnmInnnn  >>88888888888888>>88>>>>>>>>  QQQQQQQQQQQQQQQQQQQQQQQQQQQQ",
"QQQQQQQQQQQQQQQQ>>88888884>  nnnn>>>>  nnYYYYYYYYYY    nnYYYYnnDnnnn  >>88888888888888>>88>>>>>>>>  QQQQQQQQQQQQQQQQQQQQQQQQQQQQ",
"QQQQQQQQQQQQQQQQ>>8888>>   nnnnnn    nnYYYYYYYYYYYYYYYYYYgg>>YYnKYnngg>>88888888>>88>>>>88>>>>>>>>>>QQQQQQQQQQQQQQQQQQQQQQQQQQQQ",
"QQQQQQQQQQQQQQQQ>>8888>>o  nnnnnn    nnYYYYYYYYYYYYYYYYYYgg>>YYnSYnngg>>88888888>>88>>>>88>>>>>>>>>>QQQQQQQQQQQQQQQQQQQQQQQQQQQQ",
"QQQQQQQQQQQQQQ>>88888888@>>>>>>ggnnnnYYYYYYYYYYYYYYgg>>>>nnYYYYnnYnnnn>>88888888>>88>>>>>>>>>>>>>>>>  QQQQQQQQQQQQQQQQQQQQQQQQQQ",
"QQQQQQQQQQQQQQ>>88888888o>>>>>>ggnnnnYYYYYYYYYYYYYYgg>>>>nnYYYYnnPnnnn>>88888888>>88>>>>>>>>>>>>>>>>  QQQQQQQQQQQQQQQQQQQQQQQQQQ",
"QQQQQQQQQQQQQQ>>  88>>84 ggnnnn>>>>YYYYYYYYYYnn>>>>>>ggnnnnnnnnnnFnnYY>>8888888888>>>>>>>>>>>>>>>>>>  QQQQQQQQQQQQQQQQQQQQQQQQQQ",
"QQQQQQQQQQQQQQ>>  88>>83 ggnnnn>>>>YYYYYYYYYYnn>>>>>>ggnnnnnnnnnnFnnYY>>8888888888>>>>>>>>>>>>>>>>>>  QQQQQQQQQQQQQQQQQQQQQQQQQQ",
"QQQQQQQQQQQQQQQQQQ  >>83 gg    ggnnggYYYYYYnn>>>>ggnnnnnnnnnnnnYYFYYYY>>>>8888  88>>>>>>  >>>>>>>>88  QQQQQQQQQQQQQQQQQQQQQQQQQQ",
"QQQQQQQQQQQQQQQQQQ  >>88&ap ;; pgnnggYYYYYYnn>>>>ggnnnnnnnnnnnnYYFYYYY>>>>8888  88>>>>>>  >>>>>>>>88  QQQQQQQQQQQQQQQQQQQQQQQQQQ",
"QQQQQQQQQQQQQQQQQQ  >>8888  nn  NN  gzHJYYYYYnnnnnnvvhh:#      YY$YYYYnn>>88>>  88>>>>  >>>>>>  >>>>  QQQQQQQQQQQQQQQQQQQQQQQQQQ",
"QQQQQQQQQQQQQQQQQQ  >>8888  nn  NN  gggjUYYYYGKLnnnnnnnngf     w2 YYYYnn>>88>>  88>>>>  >>>>>>  >>>>  QQQQQQQQQQQQQQQQQQQQQQQQQQ",
"QQQQQQQQQQQQQQQQQQ>>888888  ggNNWWNN77  YYYYYYYYYY      WW7777WW  YYYYYY>>88>>  88>>  >>>>>>>>>>  >>>>  QQQQQQQQQQQQQQQQQQQQQQQQ",
"QQQQQQQQQQQQQQQQQQ>>888888  ggNNWWNN77  YYYYYYYYYY      WW7777WW  YYYYYY>>88>>  88>>  >>>>>>>>>>  >>>>  QQQQQQQQQQQQQQQQQQQQQQQQ",
"QQQQQQQQQQQQQQQQ>>8888>>88  nnWWMM77MM  nnYYYYYYYYnnNNMM  MMTTWWnnYYYYnn>>88>>  >>>>>>      >>>>  >>88  QQQQQQQQQQQQQQQQQQQQQQQQ",
"QQQQQQQQQQQQQQQQ>>8888>>88  nnWWMM77MM  nnYYYYYYYYnnNNMM  MMTTWWnnYYYYnn>>88>>  >>>>>>      >>>>  >>88  QQQQQQQQQQQQQQQQQQQQQQQQ",
"QQQQQQQQQQQQQQQQ>>8888  >>  YYnnTTTTWWggnnYYYYYYYYWWWW77MMTTTTnnYYYYYYgg>>88>>  >>>>  nnnnnn  >>>>  >>  QQQQQQQQQQQQQQQQQQQQQQQQ",
"QQQQQQQQQQQQQQQQ>>8888  >>  YYnnTTTTWWggnnYYYYYYYYWWWW77MMTTTTnnYYYYYYgg>>88>>  >>>>  nnnnnn  >>>>  >>  QQQQQQQQQQQQQQQQQQQQQQQQ",
"QQQQQQQQQQQQQQQQ>>8888  >>  YYYYYYYYYYggnnYYYYYYYYYYWWWWWWWWnnYYYYYYYY>>8888>>>>>>  ggggggnnnn  88      QQQQQQQQQQQQQQQQQQQQQQQQ",
"QQQQQQQQQQQQQQQQ>>8888  >>  YYYYYYYYYYggnnYYYYYYYYYYWWWWWWWWnnYYYYYYYY>>8888>>>>>>  ggggggnnnn  88      QQQQQQQQQQQQQQQQQQQQQQQQ",
"QQQQQQQQQQQQQQQQ>>8888  >>>>YYYYYYYYYYnnYYYYYYYYYYYYYYYYYYYYYYYYYYYYYY>>8888  88>>  ggnnnnggnn  88  VV  QQQQQQQQQQQQQQQQQQQQQQQQ",
"QQQQQQQQQQQQQQQQ>>8888  >>>>YYYYYYYYYYnnYYYYYYYYYYYYYYYYYYYYYYYYYYYYYY>>8888  88>>  ggnnnnggnn  88  VV  QQQQQQQQQQQQQQQQQQQQQQQQ",
"QQQQQQQQQQQQQQQQ>>88>>    >>nnYYYYYYYYnnYYYYYYYYYYYYYYYYYYYYYYYYYYYYYY  88>>  88>>  nnggnnggnn  >>  VVVVQQQQQQQQQQQQQQQQQQQQQQQQ",
"QQQQQQQQQQQQQQQQ>>88>>    >>nnYYYYYYYYnnYYYYYYYYYYYYYYYYYYYYYYYYYYYYYY  88>>  88>>  nnggnnggnn  >>  VVVVQQQQQQQQQQQQQQQQQQQQQQQQ",
"QQQQQQQQQQQQQQQQ>>88  VV  >>nnYYYYYYnnYYYYYYYYYYYYYYYYYYYYYYYYYYYYYYnn8888>>  88>>  nnnnnnnn    >>  VVVVQQQQQQQQQQQQQQQQQQQQQQQQ",
"QQQQQQQQQQQQQQQQ>>88  VV  >>nnYYYYYYnnYYYYYYYYYYYYYYYYYYYYYYYYYYYYYYnn8888>>  88>>  nnnnnnnn    >>  VVVVQQQQQQQQQQQQQQQQQQQQQQQQ",
"QQQQQQQQQQQQQQQQ>>  VVVV  >>ggYYYYYYggYYYYYYYYYYYYYYYYYYYYYYYYYYYYYY  88>>  88>>>>  ggnngg  >>  >>  VVVVVVQQQQQQQQQQQQQQQQQQQQQQ",
"QQQQQQQQQQQQQQQQ>>  VVVV  >>ggYYYYYYggYYYYYYYYYYYYYYYYYYYYYYYYYYYYYY  88>>  88>>>>  ggnngg  >>  >>  VVVVVVQQQQQQQQQQQQQQQQQQQQQQ",
"QQQQQQQQQQQQQQQQ  QQVVVV  >>ggYYYYYYggnnYYYYnnYYYYYYYYYYYYYYYYYYYYYY  >>>>  >>>>  ggnngg  >>>>  >>  VVVVVVQQQQQQQQQQQQQQQQQQQQQQ",
"QQQQQQQQQQQQQQQQ  QQVVVV  >>ggYYYYYYggnnYYYYnnYYYYYYYYYYYYYYYYYYYYYY  >>>>  >>>>  ggnngg  >>>>  >>  VVVVVVQQQQQQQQQQQQQQQQQQQQQQ",
"QQQQQQQQQQQQQQQQQQQQQQVV  >>  nnYYYYYY  YYggYYYYYYYYYYYYYYYYYYYYYYYY  >>  >>>>>>  gg    >>>>>>  >>  VVVVVVQQQQQQQQQQQQQQQQQQQQQQ",
"QQQQQQQQQQQQQQQQQQQQQQVV  >>  nnYYYYYY  YYggYYYYYYYYYYYYYYYYYYYYYYYY  >>  >>>>>>  gg    >>>>>>  >>  VVVVVVQQQQQQQQQQQQQQQQQQQQQQ",
"QQQQQQQQQQQQQQQQQQQQQQVV  >>>>nnYYYYYYYYYYYYYYYYYYYYYYYYYYYYYYYYYYYY    nn  >>>>      >>>>>>>>VV    VVVVVVVVQQQQQQQQQQQQQQQQQQQQ",
"QQQQQQQQQQQQQQQQQQQQQQVV  >>>>nnYYYYYYYYYYYYYYYYYYYYYYYYYYYYYYYYYYYY    nn  >>>>      >>>>>>>>VV    VVVVVVVVQQQQQQQQQQQQQQQQQQQQ",
"QQQQQQQQQQQQQQQQQQQQQQQQVV  >>ggYYYYYYYYYYYYYYYYnnggggnnYYYYYYYYYYnn  nn    >>      >>  >>>>  VV    VVVVVVVVQQQQQQQQQQQQQQQQQQQQ",
"QQQQQQQQQQQQQQQQQQQQQQQQVV  >>ggYYYYYYYYYYYYYYYYnnggggnnYYYYYYYYYYnn  nn    >>      >>  >>>>  VV    VVVVVVVVQQQQQQQQQQQQQQQQQQQQ",
"QQQQQQQQQQQQQQQQQQQQQQQQVV  >>  nnYYYYggggggnnnnRRWWWWWWggYYYYYYYY  YYYY  >>    >>>>>>  >>>>  VVVV  VVVVVVVVQQQQQQQQQQQQQQQQQQQQ",
"QQQQQQQQQQQQQQQQQQQQQQQQVV  >>  nnYYYYggggggnnnnRRWWWWWWggYYYYYYYY  YYYY  >>    >>>>>>  >>>>  VVVV  VVVVVVVVQQQQQQQQQQQQQQQQQQQQ",
"QQQQQQQQQQQQQQQQQQQQQQQQVV  >>>>ggnnYYYYggWWWWWWWWWWRRBBWWggYYYYYYYYYY  >>  >>  >>>>>>  >>>>  VVVVVVVVVVVVVVVVQQQQQQQQQQQQQQQQQQ",
"QQQQQQQQQQQQQQQQQQQQQQQQVV  >>>>ggbnYYYYggWWWWWWWWWWRRBBWWggYYYYYYYYYY  >>  >>  >>>>>>  >>>>  VVVVVVVVVVVVVVVVQQQQQQQQQQQQQQQQQQ",
"QQQQQQQQQQQQQQQQQQQQQQQQQQVV  >>  ggYYYYggRRRRBBBBRRWWWWRRggYYYYYYnn  >>      >>  >>    >>>>VVVVVVVVVVVVVVVVVVQQQQQQQQQQQQQQQQQQ",
"QQQQQQQQQQQQQQQQQQQQQQQQQQVV  >>  ggYYYYkgRRRRBBBBRRWWWWRRggYYYYYYnn  >>      >>  >>    >>>>VVVVVVVVVVVVVVVVVVVVQQQQQQQQQQQQQQQQ",
"QQQQQQQQQQQQQQQQQQQQQQQQQQVV  >>  VVggYYYKWWWWWWWWWWWWRRggnnYYYYYY        >>    >>>>  >>>>  VVVVVVVVVVVVVVVVVVVVQQQQQQQQQQQQQQQQ",
"QQQQQQQQQQQQQQQQQQQQQQQQQQVV  >>  VVggYYYYEWWWWWWWWWWWRRggnnYYYYYY        >>    >>>>  >>>>  VVVVVVVVVVVVVVVVVVVVQQQQQQQQQQQQQQQQ",
"QQQQQQQQQQQQQQQQQQQQQQQQQQVVVV  VVVVVV  YYPnnnggggggggggYYYYYYYYnngg          >>>>>>  >>>>  VVVVVVVVVVVVVVVVVVVAQQQQQQQQQQQQQQQQ",
"QQQQQQQQQQQQQQQQQQQQQQQQQQVVVV  VVVVVV  YYYKnnggggggggggYYYYYYYYnngg          >>>>>>  >>>>  VVVVVVVVVVVVVVVVVVVAQQQQQQQQQQQQQQQQ",
"QQQQQQQQQQQQQQQQQQQQQQQQQQQQVV  VVVVVVVV  YYYYYYYYYYYYYYYYYYnnnn    ggnn  gg  >>>>    >>  VVVVVVVVVVVVVVVVVVVVVVQQQQQQQQQQQQQQQQ",
"QQQQQQQQQQQQQQQQQQQQQQQQQQQQVV  VVVVVVVV  YYYYYYYYYYYYYYYYYYnnnn    ggnn  gg  >>>>    >>  VVVVVVVVVVVVVVVVVVVVVVQQQQQQQQQQQQQQQQ",
"QQQQQQQQQQQQQQQQQQQQQQQQQQQQVVVVVVVVVVVVVV  YYYYYYYYYYnnnn      ggnnnnnnnngg    >>  VV>>  VVVVVVVVVVVVVVVVVVVVVVAVQQQQQQQQQQQQQQ",
"QQQQQQQQQQQQQQQQQQQQQQQQQQQQVVVVVVVVVVVVVV  YYYYYYYYYYnnnn      ggnnnnnnnngg    >>  VV>>  VVVVVVVVVVVVVVVVVVVVVVVAQQQQQQQQQQQQQQ",
"QQQQQQQQQQQQQQQQQQQQQQQQQQQQVVVVVVVVVVVVVVVV              ggnnnnnnnnYYYYnn      >>  VV>>  VVVVVVVVVVVVVVVVVVVVVVVAQQQQQQQQQQQQQQ",
"QQQQQQQQQQQQQQQQQQQQQQQQQQQQVVVVVVVVVVVVVVVV              ggnnnnnnnnYYYYnn      >>  VV>>  VVVVVVVVVVVVVVVVVVVVVVVVQQQQQQQQQQQQQQ",
"QQQQQQQQQQQQQQQQQQQQQQQQQQQQQQVVVVVVVVVVVV    ee  ggnnnnnnnnnnnnnnnnnnnngg  eeee    VV>>VVVVVVVVVVVVVVVVVVVVVVVVVVQQQQQQQQQQQQQQ",
"QQQQQQQQQQQQQQQQQQQQQQQQQQQQQQVVVVVVVVVVVV    ee  ggnnnnnnnnnnnnnnnnnnnngg  eeee    VV>>VVVVVVVVVVVVVVVVVVVVVVVVVVQQQQQQQQQQQQQQ",
"QQQQQQQQQQQQQQQQQQQQQQQQQQQQQQVVVVVVVVVV  ee  ee  nnnnYYYYYYnnnnnnnnnn    eeyyee  VVVV  VVVVVVVVVVVVVVVVVVVVVVVVVVQQQQQQQQQQQQQQ",
"QQQQQQQQQQQQQQQQQQQQQQQQQQQQQQVVVVVVVVVV  ee  ee  nnnnYYYYYYnnnnnnnnnn    eeyyee  VVVV  VVVVVVVVVVVVVVVVVVVVVVVVVVQQQQQQQQQQQQQQ",
"QQQQQQQQQQQQQQQQQQQQQQQQQQQQQQVVVVVVVVeeyyyyyy    ggnnnnnnnnnnnn      eeyyyyyy  ee  VVVVVVVVVVVVVVVVVVVVVVVVVVQQQQQQQQQQQQQQQQQQ",
"QQQQQQQQQQQQQQQQQQQQQQQQQQQQQQVVVVVVVVeeyyyyyy    ggbnnnnnnnnnnn      eeyyyyyy  ee  VVVVVVVVVVVVVVVVVVVVVVVVVVQQQQQQQQQQQQQQQQQQ",
"QQQQQQQQQQQQQQQQQQQQQQQQQQQQQQQQVVVVVV  yyyyyyyyee              eeyyyyyyyyyyee  ee  VVVVVVVVVVVVVVVVVVVVVVQQQQQQQQQQQQQQQQQQQQQQ",
"QQQQQQQQQQQQQQQQQQQQQQQQQQQQQQQQVVVVVV  yyyyyyyyee              eeyyyyyyyyyyee  ee  VVVVVVVVVVVVVVVVVVVVVVQQQQQQQQQQQQQQQQQQQQQQ",
"QQQQQQQQQQQQQQQQQQQQQQQQQQQQQQQQVVVVVV  eeyyyyyyyyyyyyyyyyyyyyyyyyyyyyyyyyyy  eeee    VVVVVVVVVVVVVVQQQQQQQQQQQQQQQQQQQQQQQQQQQQ",
"QQQQQQQQQQQQQQQQQQQQQQQQQQQQQQQQVVVVVV  eeyyyyyyyyyyyyyyyyyyyyyyyyyyyyyyyyyy  eeee    VVVVVVVVVVVVVVQQQQQQQQQQQQQQQQQQQQQQQQQQQQ",
"QQQQQQQQQQQQQQQQQQQQQQQQQQQQQQQQVVVVVVVV  eeeeyyyyyyyyyyyyyyyyyyyyyyyyyyyy  eeee  ee  VVVVVVVVQQQQQQQQQQQQQQQQQQQQQQQQQQQQQQQQQQ",
"QQQQQQQQQQQQQQQQQQQQQQQQQQQQQQQQVVVVVVVV  eeeeyyyyyyyyyyyyyyyyyyyyyyyyyyyy  eeee  ee  VVVVVVVVQQQQQQQQQQQQQQQQQQQQQQQQQQQQQQQQQQ",
"QQQQQQQQQQQQQQQQQQQQQQQQQQQQQQQQQQVVVVVV  eeeeeeeeeeeeeeeeeeeeeeyyyyyyyyeeeeee  ee  ==VVQQQQQQQQQQQQQQQQQQQQQQQQQQQQQQQQQQQQQQQQ",
"QQQQQQQQQQQQQQQQQQQQQQQQQQQQQQQQQQVVVVVV  eeeeeeeeeeeeeeeeeeeeeeyyyyyyyyeeeeee  ee  ==VVQQQQQQQQQQQQQQQQQQQQQQQQQQQQQQQQQQQQQQQQ",
"QQQQQQQQQQQQQQQQQQQQQQQQQQQQQQQQQQVVVV        eeeeeeeeeeeeyyyyyyyyyyyyeeeeeeeeee    QQQQQQQQQQQQQQQQQQQQQQQQQQQQQQQQQQQQQQQQQQQQ",
"QQQQQQQQQQQQQQQQQQQQQQQQQQQQQQQQQQVVVV        eeeeeeeeeeeeyyyyyyyyyyyyeeeeeeeeee    QQQQQQQQQQQQQQQQQQQQQQQQQQQQQQQQQQQQQQQQQQQQ",
"QQQQQQQQQQQQQQQQQQQQQQQQQQQQQQQQQQVV        eeeeeeeeeeeeyyyyyyyyyyyyeeeeeettee  QQQQQQQQQQQQQQQQQQQQQQQQQQQQQQQQQQQQQQQQQQQQQQQQ",
"QQQQQQQQQQQQQQQQQQQQQQQQQQQQQQQQQQVV        eeeeeeeeeeeeyyyyyyyyyyyyeeeeeettee  QQQQQQQQQQQQQQQQQQQQQQQQQQQQQQQQQQQQQQQQQQQQQQQQ",
"QQQQQQQQQQQQQQQQQQQQQQQQQQQQQQQQQQVV    ee  eeeeeeeeyyyyyyyyyyyyeeeeeeee     QQQQQQQQQQQQQQQQQQQQQQQQQQQQQQQQQQQQQQQQQQQQQQQQQQQ",
"QQQQQQQQQQQQQQQQQQQQQQQQQQQQQQQQQQVV    ee  eeeeeeeeyyyyyyyyyyyyeeeeeeee     QQQQQQQQQQQQQQQQQQQQQQQQQQQQQQQQQQQQQQQQQQQQQQQQQQQ",
"QQQQQQQQQQQQQQQQQQQQQQQQQQQQQQQQQQ    yyee    eeyyyyyyyyyyyyeeeeee     QQQQQQQQQQQQQQQQQQQQQQQQQQQQQQQQQQQQQQQQQQQQQQQQQQQQQQQQQ",
"QQQQQQQQQQQQQQQQQQQQQQQQQQQQQQQQQQ    yyee    eeyyyyyyyyyyyyeeeeee     QQQQQQQQQQQQQQQQQQQQQQQQQQQQQQQQQQQQQQQQQQQQQQQQQQQQQQQQQ",
"QQQQQQQQQQQQQQQQQQQQQQQQQQQQQQQQQQ<3  yyyyyy    eeeeeeeeeeee     QQQQQQQQQQQQQQQQQQQQQQQQQQQQQQQQQQQQQQQQQQQQQQQQQQQQQQQQQQQQQQQ",
"QQQQQQQQQQQQQQQQQQQQQQQQQQQQQQQQQQQQ  yyyyyy    eeeeeeeerree     QQQQQQQQQQQQQQQQQQQQQQQQQQQQQQQQQQQQQQQQQQQQQQQQQQQQQQQQQQQQQQQ",
"QQQQQQQQQQQQQQQQQQQQQQQQQQQQQQQQQQQQ  yyyyyyyyyyyyii       QQQQQQQQQQQQQQQQQQQQQQQQQQQQQQQQQQQQQQQQQQQQQQQQQQQQQQQQQQQQQQQQQQQQQ",
"QQQQQQQQQQQQQQQQQQQQQQQQQQQQQQQQQQQQ  yyyyyyyyyyyyii       QQQQQQQQQQQQQQQQQQQQQQQQQQQQQQQQQQQQQQQQQQQQQQQQQQQQQQQQQQQQQQQQQQQQQ",
"QQQQQQQQQQQQQQQQQQQQQQQQQQQQQQQQQQQQ    yyyyuu     QQQQQQQQQQQQQQQQQQQQQQQQQQQQQQQQQQQQQQQQQQQQQQQQQQQQQQQQQQQQQQQQQQQQQQQQQQQQQ",
"QQQQQQQQQQQQQQQQQQQQQQQQQQQQQQQQQQQQ    yyyyuu     QQQQQQQQQQQQQQQQQQQQQQQQQQQQQQQQQQQQQQQQQQQQQQQQQQQQQQQQQQQQQQQQQQQQQQQQQQQQQ",
"QQQQQQQQQQQQQQQQQQQQQQQQQQQQQQQQQQQQQQQQ     QQQQQQQQQQQQQQQQQQQQQQQQQQQQQQQQQQQQQQQQQQQQQQQQQQQQQQQQQQQQQQQQQQQQQQQQQQQQQQQQQQQ",
"QQQQQQQQQQQQQQQQQQQQQQQQQQQQQQQQQQQQQQQQQQQQQQQQQQQQQQQQQQQQQQQQQQQQQQQQQQQQQQQQQQQQQQQQQQQQQQQQQQQQQQQQQQQQQQQQQQQQQQQQQQQQQQQQ",
"QQQQQQQQQQQQQQQQQQQQQQQQQQQQQQQQQQQQQQQQQQQQQQQQQQQQQQQQQQQQQQQQQQQQQQQQQQQQQQQQQQQQQQQQQQQQQQQQQQQQQQQQQQQQQQQQQQQQQQQQQQQQQQQQ",
"QQQQQQQQQQQQQQQQQQQQQQQQQQQQQQQQQQQQQQQQQQQQQQQQQQQQQQQQQQQQQQQQQQQQQQQQQQQQQQQQQQQQQQQQQQQQQQQQQQQQQQQQQQQQQQQQQQQQQQQQQQQQQQQQ",
"QQQQQQQQQQQQQQQQQQQQQQQQQQQQQQQQQQQQQQQQQQQQQQQQQQQQQQQQQQQQQQQQQQQQQQQQQQQQQQQQQQQQQQQQQQQQQQQQQQQQQQQQQQQQQQQQQQQQQQQQQQQQQQQQ",
"QQQQQQQQQQQQQQQQQQQQQQQQQQQQQQQQQQQQQQQQQQQQQQQQQQQQQQQQQQQQQQQQQQQQQQQQQQQQQQQQQQQQQQQQQQQQQQQQQQQQQQQQQQQQQQQQQQQQQQQQQQQQQQQQ",
"QQQQQQQQQQQQQQQQQQQQQQQQQQQQQQQQQQQQQQQQQQQQQQQQQQQQQQQQQQQQQQQQQQQQQQQQQQQQQQQQQQQQQQQQQQQQQQQQQQQQQQQQQQQQQQQQQQQQQQQQQQQQQQQQ",
"QQQQQQQQQQQQQQQQQQQQQQQQQQQQQQQQQQQQQQQQQQQQQQQQQQQQQQQQQQQQQQQQQQQQQQQQQQQQQQQQQQQQQQQQQQQQQQQQQQQQQQQQQQQQQQQQQQQQQQQQQQQQQQQQ",
"QQQQQQQQQQQQQQQQQQQQQQQQQQQQQQQQQQQQQQQQQQQQQQQQQQQQQQQQQQQQQQQQQQQQQQQQQQQQQQQQQQQQQQQQQQQQQQQQQQQQQQQQQQQQQQQQQQQQQQQQQQQQQQQQ",
"QQQQQQQQQQQQQQQQQQQQQQQQQQQQQQQQQQQQQQQQQQQQQQQQQQQQQQQQQQQQQQQQQQQQQQQQQQQQQQQQQQQQQQQQQQQQQQQQQQQQQQQQQQQQQQQQQQQQQQQQQQQQQQQQ"
};
