/* XPM */
static char *_643878427468[] = {
/* columns rows colors chars-per-pixel */
"64 64 56 1 ",
"  c #070707",
". c #0B0B0B",
"X c #170F07",
"o c #0F1700",
"O c #0B1707",
"+ c #171F07",
"@ c #1F170B",
"# c #131313",
"$ c #1B1B1B",
"% c #2F1B0B",
"& c #13230B",
"* c #2B230F",
"= c #232B0F",
"- c #372313",
"; c #332B13",
": c #3F2F17",
"> c #3F2B1B",
", c #2F371F",
"< c #232323",
"1 c #272727",
"2 c #2F2F2F",
"3 c #373F27",
"4 c #373737",
"5 c gray23",
"6 c #432F1B",
"7 c #43331B",
"8 c #4B371B",
"9 c #473323",
"0 c #4F3B27",
"q c #4F3B2B",
"w c #533F2F",
"e c #3F472B",
"r c #474F33",
"t c #574333",
"y c #5F4B37",
"u c #53573B",
"i c #67533F",
"p c #434343",
"a c gray28",
"s c #4B4B4B",
"d c gray31",
"f c gray34",
"g c #5B5B5B",
"h c #6F5743",
"j c #775F4B",
"k c #5B6347",
"l c #676B4F",
"z c #6F7357",
"x c gray39",
"c c gray42",
"v c #6F6F6F",
"b c #7B7F63",
"n c #777777",
"m c gray50",
"M c #838383",
"N c #939393",
/* pixels */
"15pppppp5pp5tappttqppp5ppwpppp5>>wpp55pppttpw4pp5ppppp5paipp5pt>",
"2--111><-<<1<<<11111$1<$<1<11$-92>-%->>-1->1$<>-11<1<<1$>1---$%9",
"2>9tkdffdsdsssssffdfd5daddd5p5$2914psfffggfdfffddfdfddsffddsp2$9",
"9>p4   .                    25<22>p4                        2p-9",
"94s +@@@=o#@@@@@$X#@@#$#X+.X s124>s .=;+==;=+#$=@=@@##$#=;X. s>9",
"99f ,e3431ee3333,3e33,re33,@ s>qq6f =3eeerueereeeree4e31r31= f>9",
"99k.@ere3,ee33,e33ue33,3,,;..s>q90d.+,re,eeeweuerree,r,333*@.s2q",
"q>ad4r3332442223423233422222sp124>aa223e3eee3rree43242433242sp19",
"91quzzzlkllvlxxlskzlklxlgkuks5>241skkllzzzzllzzzllklklxlNklxap>q",
"995kzkkkuuskkkkkkkkkkukkuuuup9->99tuuuulkkkkukuklksusausksudkt>9",
"99urkkkkkalkkkukasusuufkkuuup4192>tuuukkkkkuuuuuksuauuuskkkkua>q",
"9>4ukukkkdkaukkkuuzkuskuuuursq>422puuukkkkkkkukludkuualkklskua12",
"21pkkklkkkuskkkkkklklkkkfkuus4>4q>wdfukkkllklklkuukkugkkklklka6q",
"9>ilaa4sppp555puauuaurp5p454kp199>pc55ppp5p5pppp5ppp5auaurppls59",
"q>g$                        $s1299g$                     .  $h>q",
"q9l =,=,=,$#$<,,,,,,,,,,e=+X g>4qqg +=3,r,3333,=,,,q,,3,3:3= z9q",
"w9g 3r3ree23<uerrruurrruuue= d>992d =eeerreerreerre,utrerue, gqt",
"09f$.o.O.O +O+@+++@=+++=O#o $a>49qg$ O++&@#oO.+@O.+O+O=&O@+.$l9t",
"wqulppaprapppapaasururpauuppgq<29>pfppprrap5apappaaa4pr5aspszl>t",
"w9yklkkkkkklklklkzlllkllllkkk4<441qskkkzkkfkkkkllklkkzlzzgklkk9t",
"q0ukkklkkkksudklkzkzlklklkllp91q015dklkkkkuakslkklkklllkdkllkk>0",
"46skkkklllkrkkklkkkglklkkkkksq1qq>wukdulkkkkkklukkllzlkkklkkfy>q",
"99wlklkllllklkkkkklzlllkzkuks9>q01qpuukkkgllzlllkklzkkkkkkllku6w",
"q9slzzzzlzzMlnczzlzzzzzzvzklgs9wt95kxzxxvblzzzzzzxzzzzzzzzzzks>q",
"29is244244442244w44454444444fs9wd9ds22244454445444344e124442ks>9",
"q9g.X33,3431,,,5,33,,,3e33,@.g9qy9g..=,,,3,,3,,e3,,e,,e,,3=..g>q",
"q9j ,uuu55sruuusrkrruurrurr3 z9p99f =errrekuuuuuuukuuuukuur, g9q",
"w0i 1eeerqq53rrrre3eruuruur, i9q99d X3eer4e,rruruu3uurrrrtq@ h>q",
"99p1...X.+@ .XXX.X+XX@XXX+..1t>qq>a4....XXX .X .XXXXXX@@..X.1t6q",
"9-2wsxdsssflglfdfggfdgxsdddssu9qq<9pdfggggffffgfgddddssdggfxd9-9",
"2>994495445qqq95q55q9q45qq4q05>99>229qqqqqqq055q44421444qqq99219",
"-299960922990q49q9992>>29999q9>>>29922999909q99422222242qq99922>",
"15pppppp5pp5tappttqppp55pwpppp5>>wpp55pppttpw4pp5ppppp5paipp5pt>",
"2--111><-<<1<<<11111$1<$<1<11$-92>-%->>-1->1$<>-11<1<<1$>1---$%9",
"2>9tkdffdsdsssssffdfd5daddd5p5$2914psfffggfdfffddfdfddsffddsp2$9",
"9>p4   .                    25<22>p4                        2p-9",
"91s .1,,e7;,33<,331,1@$,==*@ p19q2s .$91<;,3,e,e3,3=**3,,,*X f>q",
"9>d *euuuuuuuuuuukureukrrue, d1q99s =3uuruukkksukerreuruuku, f>q",
"92s.@3ruururrurreuuraurrere..d94q1d.Xrrereukrkruurrrrreueue,.f>9",
"q>ps2errerrurrrrrarrr545ru22sa>qq1as25eerrrrurrr,eeereeua5e2sp>w",
"q>qslzzzzzMzzbzzbzzvvbzzzbzlsq19q1illlzgzzzzzzbzzzzzzxzzzmxlk59q",
"91tpuflklzllklzlzlllkllkklzsp5>tq9ullllllzlllkkklkkkklklgkalsa9q",
"29asssfkluudllzkklkkkkkkukllkq9qt9ukkllllzkklkklkkkkkkkklkussu>q",
"42tsukllkukkfzblklllkukkkklkpt>9wqkklklklklkkzlklskzkkkklkupdw65",
"92wslzkkkkkkllbkllklllldkllzfu9qq9tkkkklklzlzlxlkkkkkkkkfkkldp>4",
"q9igappaaaaasasaaapapusppaaafk99w9klrurasassuspvc5p55aru4x5plu>q",
"q>f$                   .    $d6qq9l$   .                    $f9q",
"51g +3=,,,,,=,,=33,e,,e,33,= s>qtqg =3eer,e==ee,e,3,3ee,;,;@ f9q",
"99l =rereeeeere3ureruurrer3, g0tw0l eeurrkeeuer3urrurulruee* g9w",
"tql$ .OOO XOOO..oOO+X+&.+Oo $f>wq9f$+.+X@O=+oXOOO===++X+OOO $f>9",
"q0ixp5p55ppp5pap555sapup5pspla>>q>szpurpasuuaps545aps5aaupa5gs1w",
"q9sukzlkuklkkkldkkflklklkkkkkq9qq9aulkkkzzzklklklkkkklkllllkkp>q",
"9qkkuusuuuurklkkudkkkkkkkkkkkq6t09ikklkukukukukkkskulzklkklkpq>q",
"t9uukkaskkuuuzkkkulllkksukkkut6w91uklkkukkkuuskusudkkkkklkkudt>y",
"0>tklkklkkksukkkkulkkkukkkkkk59909uusllkukkzzkkklkkkllllllkkzi>q",
"0>slbzzzbllxzxzllzlNxlzlxxllk5>q09udllzlzgvzzzzlzzxzxzzzzzclky9q",
"q9sd424442254454242222222423ks>40>kka24424122444442444422442kl9q",
"q9d..=3=;,,,,=,=,,=;====;;=..f6900g.X,,,,,3,=,,,,,3,,3,,=,=X.g5w",
"q>d ;rrre3srr3rrurer3e33ere@ f>096k ;errrukurruuurrrruurrrr8 f>q",
"q1y *ee,,,e,;eee3ee,,3,34e,* g>09>d *3errr3reeeeruee3eree23@ f>0",
"q1p2...  ..X...X..X. ..X .X.4i>0q>w5 ...X. X.X...X.... .X...5a>q",
"9-2wsxdsssflglfdfggfdgxsdddssu9qq<9pdfggggffffgfgddddssdggfxd9-9",
"2>994495445qqq95q55q9q45qq4q05>99>229qqqqqqq055q44421444qqq99219",
"-299960922990q49q9992>>29999q9>>>29922999909q99422222242qq99922>"
};
