/* XPM */
static char *_643878433642[] = {
/* columns rows colors chars-per-pixel */
"64 64 46 1 ",
"  c #070707",
". c #0B0B0B",
"X c #170F07",
"o c #0B1707",
"O c #171F07",
"+ c #1F170B",
"@ c #131313",
"# c #1B1B1B",
"$ c #232B0F",
"% c #332B13",
"& c #3F2B1B",
"* c #2F371F",
"= c #232323",
"- c #272727",
"; c #2F2F2F",
": c #373F27",
"> c #373737",
", c gray23",
"< c #432F1B",
"1 c #473323",
"2 c #4F3B27",
"3 c #4F3B2B",
"4 c #533F2F",
"5 c #3F472B",
"6 c #474F33",
"7 c #574333",
"8 c #5F4B37",
"9 c #53573B",
"0 c #67533F",
"q c #434343",
"w c gray28",
"e c #4B4B4B",
"r c gray31",
"t c gray34",
"y c #5B5B5B",
"u c #5B6347",
"i c #676B4F",
"p c #6F7357",
"a c gray39",
"s c gray42",
"d c #6F6F6F",
"f c #7B7F63",
"g c #777777",
"h c gray50",
"j c #838383",
"k c #939393",
/* pixels */
"-,qqqqqqqwqqqwqqqq,qqqq,aqqqqq,;;qqq,,qqqqeqq,qqqq,,qq,qwrqq,qq;",
";------=-===-===-=-;#====-==-#=;;-==-----=;-==;---====-#----===>",
";-;wtrttreeeeeeettrtr,rqrre,q,=;>->qrtttyytrtttrrtrttrettrreq;#;",
";;q>   .                    ;,=;;;q;                        ;q->",
">>e @####X@@@+@@@@@+@@#@@@.X e-;>;e .#$###$#@@###=@#@@#@$%X..e;,",
";>t *,*>>-,:::::*;,>:*6:::*@ e->,;t $:555695:q,5565>>:*-q>;$ t;,",
",>y.#56>;-5:::*:::9:::;:***..e;3>3t.@*6::55:q5965655;6**:*=#.e;>",
"3;er>6>>>;>>;;;>>;>;>>>;;;;;ew-;>;ww;;>,>5,,>q6,5>>;>>>>>;,;ew->",
">-,rissiyyydysayeysytaayytrte>;;>-etyyaisiaaapapaayyyyaakyaaeq-4",
">1,tauuurreutytttuutuetuerewq>-;,;qrr9wiuuuuuyeyitereeeeuereuw;,",
">;rwtyuuueyt9u9ueereretturewq>-;;;weeeuuuuu9rrerte9eeereuuutew;,",
">->rtetuyereeuuuerptrerrreewe,->;;wrerturuuuuruyeetwweyuuueueq-;",
";-qrtuayrtrettuuutuuyttuttrrw>->,;qrtruuuuauutyueruuryuuuauuuw;4",
",-raww>eq,q,,,qeqwwwwqq,q,,,yq->>;qd,,qqqqqqqqqq,qqqqwwweqqqae,>",
",;y#                        #e-;,,y#                     .  #y;,",
"3>y $*$*$*#@#=-**:**:*:*:$#@ y;>,>y #=**6*::::-$**:3**::>**$ s>7",
"q;y :6:655;;=9556699666w965- r;>;;t #::56665565,66:*ww6669:* y4w",
"3>y#.X.@.@ @.O@@@+@+OoO+o.o #e->;,y# .@@O#.@..@@..@@@@+#@#@.#y>w",
"w,ryqqqqwqqqqqqqwwwwewqqeeqqyq=>>;qtwqqwqw,,wqwqqeww>qw,eeqwpu;7",
"q>euityytttauiuiyiiuauiyiitrt,-;,-,wtytpytttuuuiauiyyiippytiru>7",
",,eruuiuuyuerruiuiuiuuuuityuq>-4>-,eyyyutureteyuuuutaiiuttaiur;,",
">;euuuuiautwyrtiuuuaiuyyytuye,-,,-qetreutuuuuuaettauiuuuuiuute-3",
">1qutiuyiiitattttyiiaiutpyrtw>;3,-,qrrruuaayiiiyutiiuuuuuuuuue;w",
"3>eyapdsaadjygsaaaadspapdsyaye,77>,rasaaddassppssapppppsppspue-,",
">>te;>>;>>>>>;>>q>,>>,>>>,>>te;7r;re;;>>>>,>>>,,>>>,>,->>>>;te;>",
"4>y.X:;-:>;-*;*,*::***:5::*+.y>,8,y..#:**:**:**5:**5:*:**:$..y;3",
"7;a *e9r,,eqre6ewu6w999w9w6: a;q1>t #:566,u9999999u96w999e6* y17",
"q,t -5,>q,,,>qqq6,>,w996996* r;,>>r .*>>,>,-669699>966695q,+ y&4",
">;q-...X.O@ ..XX..@.@@XXX@..;e&,3;w>....XX+..X..X.X.XX@@..X.-e&,",
"3-;wraaaytsyyyjyraaatdatartyeq13>-,wrrrayyyyaayarayysyyayyyyr,-4",
",-,wewqw,>q,7q7,q,,q,,wqew1q,7>;>->;>>,,,,w3qqwqewq,>,1re,77q3;,",
"-;>3,>w,q43733,e7,,>>,,q3>4733e1&,>;>,q3,7433334,,>443>3q,33>,3-",
";qqqwewewweteew7eewwwqqwqweeewt317qqweeeeww0eweewwwwrw7eeqeeww,;",
",-===;;&>;,;>;;;33;;;----;>>-&#,,=----;3;;;;1-;--->;;-;>;;>-&&-3",
">-;qetaysaaatttryyyyttrtttytq;-,,-,wrrttyrtytyrtttyyyrayaaaye,&,",
",-qq                        >e;3;>e-                        ;e1>",
";;e .-:*:***;:=*:;-*-@@;####.q->,;e .#>==$-**:*::*;===:***=. t-q",
">;r =,ee999999e99uw65wtqq9,* r-,;>e #*99wwruuueru>6,5e5e9u6* t;,",
">;e.+:69666969wq,r9qer66,65..t;>,-r.Xq6,65eu6969w66q66:e595*.t;,",
"7;we;,5q566e66qqqewwq,,,qe>;ew;q,;we;,5,q66w966w;5,,q,,9w,,;eq;7",
"q;,easapspjssfspdssdddsdpdsyeq;,,;ryyasydpppdpdsssaspaasshaat,;3",
">-wqrtyuipiuuupipayyuiayuypeq,;73;riiiiiipyiiuuyayutuataareyee>,",
">;ewewtuyrreiupuuituutuuetuitq1,w>euuuuiiiuuuuuauyutyyttyyreee;,",
">;qeeruitruttpfiuyaau9tttuuuqw;17,uuiuuuuuiuupyyieuattrtyurqrq;,",
">;qeiiuuttttuudtiiuiayartyaitr>,4>etuuuiuipiiiaaytttutyttttyrq;>",
",>tyewqqqqqwwqewqwqwqweqqwqwtt>27,taweqqwwewewqds,q,,eqe,s,qye;3",
"3;t#                   .    #t;,3;y#   .             .      #t;,",
",-y @:=***:*$**=::::**5*::*$ e;4w,y $:556*:$$::*5*:*:5:*$*$@ t1,",
",,y =6:6555556::wq:69eq656:* y377,a :5966u,5e5q:w66669i6w55$ y,w",
"73y# ..o. X@@...X@.@XOO.@.X #t;w,;t#@.+@@@O@oX..@+$$O+X@@@. #t;3",
"4,raq,q,qqqqqqww,q,wwqwq,qwqye;;3;eiqwqqweeewqw,,,qww,wwewq>ye-7",
"4,erupaueuuuuuartttyuayuyuuur4>33>eriyuupipuuyatityutyyaiiitrq;3",
">,ruuue9eruwuyutrruuuttyutuuu,;e,>ruuiyruru9uwttyeuruiuyuuirq,;3",
"w>rruueeuuu99syuueuiiuteeuuuew;q,;etyuuetuu9eetee6rtuuttiuurtw&e",
"3;wuiuuiruueetuutrarturtrtrtuq;,,;rreiuurutpautuatttyiiuiuuusr;3",
"3;eudisagaaapasaaaakaaaaaayatq;>3;eraaaaaadpsssipsaaapaasdsate13",
"3>er>;>>>;>,>>,>;>>>;;;;;>;>re;>,;ttw;>>;>-;>>>,>>>>>>>>;>>>ru>q",
"3>r..$:$*****$*$**$$$-#$**=..t1>>3y.X*****:*$-****:**:**$*$X.y,w",
",;t %6q65>ew5:669656:,>:565# t;3>;t %5666wu966696w666966q65: y;q",
",-r #:,**-,;-5:5::5*;>*;>>*# y;3>;r $:565,;6:>5566:5>:65>;:+ t;3",
",-w;.......X......X. .......>r;33;q,...... .............X...>w;3",
">-;qearrrrtyyatrtyyttyaetrtee9>43->qrtyyyytyttyyyrttreetyytar;-,",
";->>>>>,>>,,qq,,,,,,>,>,,,,q,,;13-;;,,,,,4,3,,,>>>;;->>>,q,>>;-;",
"-;>>>;3>;;;>33>;,,3,;;;;>>>33>;&<;;>;;;;>3,,,3>>;;;;;;>;3,>,>;;&"
};
