/* XPM */
static char *_643878749129[] = {
/* columns rows colors chars-per-pixel */
"64 64 25 1 ",
"  c #070707",
". c #0B0B0B",
"X c #131313",
"o c #1B1B1B",
"O c #2F371F",
"+ c #232323",
"@ c #272727",
"# c #2F2F2F",
"$ c #373F27",
"% c #373737",
"& c gray23",
"* c #434343",
"= c gray28",
"- c #4B4B4B",
"; c gray31",
": c gray34",
"> c #5B5B5B",
", c gray39",
"< c gray42",
"1 c #6F6F6F",
"2 c #777777",
"3 c #838383",
"4 c #8B8B8B",
"5 c #939393",
"6 c #979797",
/* pixels */
"#*=*&*=*&=*&=-=*-=**&**&:==**=*=*-=*&&***=;*-#**********-:=-**=%",
"#&%O%#%#%+####@##=#%%@#@#%#####%#%%#&&&%%%&#@#&%%%##@##@&:%%%##&",
"#&%-:-;;--------;;-:-%;*---&-*@@%%&=;:;;:>;-;;;;-:-;:;-:;;--=##&",
"%*-    .              .     .=&%%=;                          =%&",
"&=; XXXXo.XX.XXXXXXXXXoX.... :*&&*: .ooXoooXXXXoXX.XXXoXoo.. ;&&",
"%=: @#@#@+##@@@@@@%#@@&#@@@X >-=-;, +%%%&**%#&%&%&%###@@&@@o :%&",
"%*> X%%#@+##@@+###*#@#@@@@@. ,--=>, o#&##&%%&#=&&*%&@&@@@@oo ;&&",
"*&-#%&%#%#%%%###%####%%###%##>=*=->#%%%&%&&&%&*&&%%#%%%##%%##-%&",
"&%*:,<<,>>,2>1,,;><,>,,>,:;>>:;%==<,,,,<<<<,,1<1<,,>>,,,5>,,;=%=",
"%=%-,;::;;;>:>>>>>::>;>>-;--;;;*-;:::;->:>::;>->,:;;----:---;*&&",
"%*=&-:;>:-,>;:;:-;;;;-:::----:--=;:;-->::::;-;-;:-;----->:;-**%*",
"%&%=-=;:>-:-->:>--,:;-;;--;-:;---:>>-;:>:>:::;:>--:==->:;:*;=&%%",
"%%*---,:;>;;;>::::>:>:::::::;---:;:,>;>>>><>>>>>;;>:;>>>>>;>:*&=",
"&&-%*&%=*&&&&&&=****=&&&*&&&&::::-:;&&&&*&*&*&*&&&*&&****&&&&=-&",
"&&:                          ,>:>><                      .   :&&",
"**> X+X+o@oXo@@@@%##%###%ooX <>-:>1 o+#@*###%%@+@#%&@#%##@@o <*=",
"**: +&#%&&##@=&&*=--*==-;=&@ ,>:::, +&%&*=*&*=&&**&#=-*&=&#+ >--",
"&*:    ... X.XXXXXXoo.Xo.XX. ,>;:,1  .XXoXX...XX..XXXXoX.XX. >=-",
"=--%&&&&&&*&&&*&****=*&&==***>>::>>&=**=&=&&*&*&&=**%*=&**&*&:*-",
"==*;>-:::::,>,>>,,,,,>,,,,>:,:>->-:>>,:1,:::>:>>,>,>>,,,,:-:-:*-",
"*-=-;;>::>:--:>,>,>,>:>>,:,,--;;>:;>>,>>>:;-:;,:>>>:,,,>:;::;-&&",
"%**-::>>,>:=>::>>>>,,>,>>:>,>>>:>;>:>:->::::>>,;::,>,>>>;>:;-=%*",
"%=&;:>:>,,,>,>:::,>,,,,:<>;>>:>>,-:-:::::,,,,,,,>>,,>>>>:>>>;-*=",
"*=-><<<<<<14,2<<<,<1<1<121,11,>,,,,,11<<22,111111<1111111<<<>-%&",
"%*>#%&&#%&&%%#%&=&&&&&%&%&&&%<,,>><#%%%&&&&%&&&&%&%&&&@%%%&%#;&&",
"*-> X#@@#%%@@##&#%%###%&%%%# 1>>,,1 o@###&##%##*%##*%#%###+X >&*",
"=*, #=-;&*;=:;-:-:--:;--:--* 1,:,,1 #&==-*,::-::::>:-;;:-==# >==",
"=-> @&&*--==&----==-;:-;-:-%.1,>,1< +&=*--=&--;--;*:--=-==*o >&*",
"%*-  .XoXXo.XXooXoXXoooXXX.. 1,,,,, . XXXXoXXo.XoXoXXXXo..X. :**",
"&%&:><111112115<<222,31<2>11<>,,;;,,<<1111121111<1111<1<1<<<>=&=",
"*&*:>>>,,,<,,,,,>,>,,><>,<>,>,>>>:>>>1>,>>>,,,>>>>,,<>>>,;>>;-&&",
"&&&;;;>>>,>,>,,<>,,>>,,,,>>>>,:,:,:>:<,,>,<,>>,,,:>>,,,>,>::**-&",
"&&&*->;>>>>>,,>,,,>,,:->;>>>>>>,>>;>:,<>>,>,>>,,>>>>,>>>>;>;-&%&",
"&*%*=:>,>,,>,>>><,,>,>>::,,,,,:,,:>>>:<,>,,,<:>:::,><:,<1>>;-=*=",
"%&&;:<112211<<<<2111<<<<<<11,::>,:,,<<<<<<<2<<<<111<1<12111<>=&&",
"&%-                          <,>:,1             .            :-&",
"%%: .@##&%##&&#&&&#&#o+&@@#@ ,:->>< o@*####&%*#=*%&###&%##o. >&*",
"%&: o%=;;;--;:::;>--=->-=:=& <:>>>, #&:;--:>>>::>&-=*:*-;;=@ :&*",
"%&; X#&--=--=;-=&:-=-:==&=*+ 1,;>>< +-=&=*;:=:=---=*==&-&*%# :&&",
"=&-##&&&&**--=**&--=*&&&=-&%%,>>,<<#%*&&***==**-#&&&&&&-=%&##-#=",
"*#*;,<<<<<4<<21121122111111<<>;;>;<1<<1,1111111111<<<<<<13,,:***",
"&&**=;>>,<,>>,<,,,>>>,,,>,<;;:>,>:><,,,,,,,,,>>,,>>>>,:,,-=>=**&",
"%*****;>>;;;,><>>,:>::>:->>,,><,>>>>>,>>,,>>>>>,>>>>,>:>>>-*-=&*",
"%&***-:>>;>>:<1,>,,,>;>::>>>;>>>>>>>,>,>>>>>><,>,;:<:>::>-=&-&&&",
"&&&=:,:>:>>>>>1>,,>,,>,::,<,,>>,>>>>>>>,>><,,,,,>>>>>>>:;:-;-&&%",
"&=-%=&&*&&&***=*&***&*=&*=&=&,>>,,,&*-****===*&1<&&&&=&=%,&&&-&*",
"&&;                    .     <,,>>1    .             .       ;&*",
"&%: .@o+@@##+@@+%%#%##&##%@@ ,>,,,<.+&&%&#%++&&@*#%@%%%++oo. :**",
"&-> X&#&&&&&**&%-=&*-;*=&=&# ,>>><2 &&-=*:&&-&*%-=*-=->*=#@X >=-",
"-->   ... .XX....X.X.Xo.X..  1,>,>< X.X.XXoX....XoooXo.XXX   :&&",
"*--&&%&&&&&*&&==&&&=*&**&**&&,>;:>,*&*&&*-==***%&&***&*&=&*%%-%=",
"*==-;,,;-:>>:>,;>::,>,,>>>>>::,>>,,:,,>><,,>>,,>,:>>:>>,>>>;-&%*",
"&---;----;:=:>>>;;>:>::,>:>>>:,:>>,>>,,;>;>;:-::>->->,>>;::=&&%*",
"=--=;-=-;::;;<>>:->,,>>;;>>>::>;>-,,,>>->>;;-->;;-;>>:>;>::=-&$;",
"&**:>;:,;>>;;:>>:-,::>;::>:>>:::>>,>:,>>;>>1<>>>,:::>>,>,>;;<-&*",
"&&=,1,<<2,<<1<1,,<<6<<<,,,,<,:::>>>,<<<<<,1<<1<,1<<<,<<<<<,,>=**",
"&*;#%%%%%%%&%%&%%%%%#%#%#%%%#,:;::,%-%%%%%##%&%&%%%%%&&%#%%%#>==",
"*=: Xo@Xo+@@@o+o++o+ooXo+@+X <>=:,< o@++@+@@++@+@#@+@#+@XooX >*-",
"&&: o%&###==%#&**&%%@%#@&&%o ,;;;;> #&**&&-=&*&=*=*&&=&&%%#@ :%=",
"&%; X@#o+o#@o##%##%@@#o@###o.,;-**> o#%&&%@%###%&&##@#&&#+@. :&*",
"&%-  .   . .   . ..  ...  .  >-=-=-  . ... ..... .. . . .    -&*",
"%%%-:<::::>,>,::>>>>>>1;::>::;-*=%=;>>>>>>>>>>>>>:>:::;:>>>1>&%&",
"#&>:>;,,>,,,<,,,<2,,<,,,,,,-,,>>;>:::,,><<,,,,,,:>,=>>*>,,<,>:&%",
"@#%%%#&%###%&&#%&&&%####%%%&&&%&&%%%###%%&&%&&%%####%###*&%&%###"
};
