/* XPM */
static char *_643878754390[] = {
/* columns rows colors chars-per-pixel */
"64 64 97 2 ",
"   c #3E3A37",
".  c #3E3B38",
"X  c #423429",
"o  c #4F3B2B",
"O  c #523E2E",
"+  c #453C35",
"@  c #493D33",
"#  c #4E4137",
"$  c #45413E",
"%  c #4C433C",
"&  c #564233",
"*  c #594634",
"=  c #564935",
"-  c #5B4B37",
";  c #514439",
":  c #574F39",
">  c #5B4E39",
",  c #56533B",
"<  c #5B523B",
"1  c #624E3B",
"2  c #66533F",
"3  c #464341",
"4  c #4A4643",
"5  c #4D4B46",
"6  c #4D4D4C",
"7  c #504740",
"8  c #514A41",
"9  c #5A4F43",
"0  c #514E49",
"q  c #4F5143",
"w  c #4F5049",
"e  c #545245",
"r  c #5B5244",
"t  c #51514A",
"y  c #5F554C",
"u  c #575A4E",
"i  c #5C5A4E",
"p  c #575756",
"a  c #5B5652",
"s  c #5B5B55",
"d  c #5B5B5A",
"f  c #635343",
"g  c #6B5642",
"h  c #665943",
"j  c #6B5A44",
"k  c #63574B",
"l  c #63594D",
"z  c #695A49",
"x  c #745E49",
"c  c #635C52",
"v  c #676047",
"b  c #65654A",
"n  c #6B654C",
"m  c #676B4F",
"M  c #6B694E",
"N  c #73644D",
"B  c #7A644F",
"V  c #626454",
"C  c #6B6654",
"Z  c #666953",
"A  c #6C6B55",
"S  c #65655C",
"D  c #6A665B",
"F  c #66685C",
"G  c #6B6B5B",
"H  c #756653",
"J  c #796551",
"K  c #736D54",
"L  c #7C6E57",
"P  c #746E5C",
"I  c #7C6D59",
"U  c #6F7357",
"Y  c #6E715A",
"T  c #727257",
"R  c #72715A",
"E  c #7D795F",
"W  c #646462",
"Q  c #676862",
"!  c #6D6E63",
"~  c #6D6E6D",
"^  c #746D63",
"/  c #726D69",
"(  c #777166",
")  c #7B7161",
"_  c #777A67",
"`  c #797B65",
"'  c #74766A",
"]  c #797C6B",
"[  c gray45",
"{  c #787973",
"}  c gray50",
"|  c #826C57",
" . c #816F5A",
".. c #82725B",
"X. c #807E63",
"o. c #847F7A",
"O. c #818181",
/* pixels */
"i Z Z s m ! s & 5 ; 5 ; ; g V e e Z f f 0 8 2 0 0 a ; f s % t 6 p i s 2 0 f 2 J J 2 Z J k m ^ d K F r s f 5 j D ` T h N y i Z f ",
"5 I r a F a V i < e 8 h , F V r 0 s k H f e 2 e k 9 + ; 5 + * 2 d s 6 r s t 2 2 Z 2 I Z d G Y A ! F 4 6 t V r ! F m P d s i Z V ",
"t t k y e r d d k c w R m G F % 0 0 V V 5 y ; r l c + 5 O e & 6 & s d C Z 5 2 t t L J i d V S T d 5 5 w a < k Y P _ A s P G m w ",
"m 2 h s g w m f f V V { s S D W Z C Z f t ; r 2 ; W e o e o & * 1 5 2 i f l k v Z V ] ' s / ' ' F 0 5 l S F O s R V Z V D P G m ",
"V 2 : 2 e 2 g V 0 n n V d d F W m s i c w g a s 0 l 5 5 O s 5 2 p   2 0 s t 2 s s Z i s S W d V ! 0 l k V D s : d d s g _ V V 2 ",
"r ; 2 q * f c D f F F T 2 F K c p n 5 ; s 5 a F s a a ; 5 2 2 2 ; & l 5 % g s % s k Z I F d 6 6 r 3 O d s V V s V F % n s r a 2 ",
"< : & e k e < q Z F K H F s K r r r ; 5 0 0 a s ; 5 ; 5 s e r r e 5 6 0 l s i 0 Z t w s b r V y W 0 4 d g % s r p F 5 , 2 y l V ",
"e e ; s 2 s g m P S m Z s F s s 0 , e e e i e i ; & s ; . % q & & * 4 5 % 5 5 5 i % 2 4 2 6 p y r 0 Z Z V f 5 ; d 0 * & & e Z 9 ",
"e 8 r ; e s S 2 h Z 2 n m 0 H N i 0 0 * r d ; ; * 5 7 ; Z ; * e A T 4 t 0 5 % 5 t t & s 6 p 6 6 s S r f S s a r 6 > f r - e u 2 ",
"w q 2 e Z s S w d r d s m 2 s H s 5 4 s 2 a s i s & l c q $ ; V s s V w i t 5 k t w 5 d W d n > S Z 2 g d s T V k V d t 2 m e h ",
"V * f l ; 2 2 V d S 5 < g & g a 7 0 0 ; 2 s K d & i e 6 4 * * S d d H w Z d 0 0 Z H w w W p a S G U % w r F F y z C V f h 6 a s ",
"Z s 2 Z 8 r g t t H > V j r 0 3 ; 7 4 s 5 Z i r V s d e e q g p 6 - p p , r * f Z i d V d d W f d D V F H H a g 5 Z 5 & # q s m ",
"V i V i i < r f V N N U J k t ; ; 7 & > r r d Z V z l ; Y W 3 3 - 4 4 6 h V 6 r d O F y W p p ~ D a a m V d Z U F ' % 5 % * h V ",
"i e r J K s k r s f < , < V f % 6 a d A Z A p d p f V 5 Y W d w 2 d 6 F S d 6 % f k p a W 0 p 6 { ] s a d t s t F s t f 6 s s s ",
"q s s V U Z e e l H : j > V i t s S ~ V W V W 6 , f C V { p G f d l 6 a 6 d 3 3 3 d f d ~ d p d Q W F r 5 5 D s Z 5 f > @ 4 % e ",
"l T f B m q g q q * N j < e s 6 d ! c 0 h g Z d s $ n N V V Z Q G 6 0 + + l 6 d W G W d d W l V S V Z t 0 5 y h r g r 6 O y V q ",
"Z H D U m = : m H 0 K U r s a s V % d 9 i f g , : f C S A g G ^ S Z J l 6 d r a R d p W d d V R Z V t & 2 s t y d a y p & C s a ",
"s Z H c < r r h J P m Z 7 > Z C a 2 ; - a * 2 f : f m H A W d ! a p d 0 p ! d S F s s p e G R H i s s 4 t a O m 6 S 6 0 D m r s ",
"^ X.` J i f f f J g j f r g % N r r t s 5 f f g : f d 6 S d W V S d p d W S 0 6 t s K Z Z Z r & s t k 5 + 6 t e 6 F 6 6 6 ' ( s ",
"W c H ) m m Z  .H f > f ; g s + % * 2 m Z % - 2 O f 6 a i a d d D W W P D p l t 5 r d i R a , 5 Z 5 X % % % l w p ~ d y d F V Z ",
"d 5 k V T K n H n j < f f K Z < f > % d N > d g 6 4 3 6 p p ~ V W Q F V d Z f r % o s H a 5 a a 5 t t 5 s Z H Z p d W r Z F V m ",
"f k q f m d ` H j L : k r g m m ; d d ^ n M W M f 4 3 6 p ! g Q ! d p m 6 5 c d S s & a S d w e V f s w f H s l S d d V ^ F Z w ",
"t k 8 O d L m Z m N K m m m 2 : ; % d f f * * - + r Z W ~ ! W d ! f f f % w i a s s s s d f t t s y H s Z Z d s s y ~ ' ( S t 8 ",
"f Z H c : c V n g ` f h h e N E 2 t s ; N * 2 * r 4 V ! W F c W d d 0 6 6 f 5 w $ s r a j a % 4 q Z m t 5 t i H Z S F d m Y t f ",
"s s V m l m H * N M 8 O & K ` 2 2 g w w O M f 2 4 < ~ ! l Z Z 0 R K p 0 6 * 0 d w 5 r d d W S Z C C y f t 6 5 d y L d w w r 4 O ",
"s 2 ; s 2 l K V T % f 2 Z I m m f s s t d f m 1 6 V ~ d W d Z r d D d 6 6 p g Z p g i U d S S Z c s V 2 t % o k H s s Z r Z 4 * ",
"s s e e % s Z < g u s H X.m s s I K t V p a c Z F d ! ~ p < V & a s y t v t 0 s f m T f S K s d n 5 ; s s Z k O y i y 2 g < e V ",
"2 m 2 f e g d l d U h m K Z t ; f V t d g > Y 6 j F G L < S g G d V s Y m 8 c 5 s Z K S p P t e r 4 0 f i s s i s Z % z i w Z r ",
"2 w e Z g r d i S Z 2 m : r : H 0 > f R % g g 2 0 6 p W D Q r d K F s W f e ; s d 5 S d W d d 0 5 5 r 5 t % i 0 y Z y Z   y Z t ",
"Z s i s t 4 l L t v h | V s Z t ; ; g r f n Z r Z a 6 p 6 7 5 2 d s f 1 i t a d S a m m 6 K K r t 6 * r d 5 5 % p s 5 6 t 2 y t ",
"% Z d w Z t % s y s p m i 2 t ; > h a t g M g f 2 d p ; p p 4 O 5 p g 4 % d 5 V ! m d Z < p D d 5 0 d 2 Z k i t t i t t y y w i ",
"Z s i s s f s 5 % + j i h i 8 O 2 * s e g , - f f 3 ! d S V 6 s # ; 6 % 6 f 6 V Z 6 r g & k a f 0 v t 2 a k H y 5 k 5 l 4 y s k ",
"5 y Z y i 2 g . 5 % f k V e ; S H f m 0 j g > g m d [ p V f p 6 r 6 7 6 9 5 d p V 6 V h K d V V Y n g 0 s Z Z w s 5 i s t i 0 0 ",
"Z y Z 5 & 2 w t s t k f g 5 4 a d g k s d z > l V n p > z l 6 M Z f 6 4 * r V 6 6 g W r a K S s W s c t J K d l 4 i d H s Z s i ",
"H g s 5 & % w 5 t % m m $ l r s l d Z d f Z * t Z D i p p g > i S p 5 5 d 2 d S V S * 5 2 d s _ F s T Z Z Z H s s s y Z y Z k H ",
"d w s k 2 0 5 w s 5 2 2 e 4 0 S & H l G G m a g F A ^ 6 > g & g a % 6 6 % 2 F ^ F , p 6 o d U V V d F s Z s H Z Z 0 4 J s H d Z ",
"5 0 Z p s w w w s v f 0 & > r C c d l K [ | c W F S L 2 V g e 0 % @ 6 5 d 6 G d i F s d 0 9 F d d V V i k Z ] L Z i 5 s Z H H i ",
"i r t 0 k y w g i 7 p s d T Z ( p r P P z S ! V G / | T ~ H a t ; ; 5 & < p s S N h D Z f 0 c l Z > d i 6 ] } s Z t 5 L H s r 6 ",
"w Z Z d s H < m s s V A / Z ^ W f 2 s a < R D H Z P m 2 k > V k @ 6 p d ! F ! W d Y ! Y ; q e Z d f Z e j m Z Z Z s Z J V 0 l I ",
"p s H l L m 2 y m t Z / Z 0 m 6 m P D c 2 W J _ V H | 2 > 8 S p y d F ~ F W W W D f m K D Z N Z 2 h f s d s 2 H Z Z ] _ s H ' s ",
"H s ! s ~ ~ s Z d d Z 5 d f t c D U f r f 0 W Y s f 2 5 f k l H 6 V ~ W i M ~ p d / R p l Z V d Z s V d d S f ' ~ L L Z H s Z s ",
"w s t ~ Q G e 2 F U d h 6 e n p s Z s 0 f d Z N s R 2 2 H 2 n V w f 6 S p M ! a r r { ] s i s 5 s Z 2 Y i V ` Z } H L y F H H i ",
"v w w H H m s s $ Y a @ ; 2 V 0 a Z p I Z c m d V T ^ V Z C H Z & < S P f Z / Z d V G W G 2 5 6 Z d i T 5 v H H ] J i y H y s + ",
"w g i s H y H u d # 2 e 6 a , 2 2 J ^ H V s T c d J z a V S i 8 e r l A ^ V s F y Z F m W V r ; ; W I I w s s / W d 3 V G s f y ",
"t Z i Z Z Z H w K Z 2 d 5 2 h n D Z S i 2 l m F  .H f ~ ) ) D g 2 f i J z g k a C L m m H Z < m < K s s V 2 c / ! ( t f d 2 j t ",
"Z Z w 2 H L Z H g l y d d i g T ' ^ _ 6 a H F s C l f Z a V I V m m I B k > s T T U Y U n e 1 Z < 2 A V A T d Z W Y 0 d r m 6 w ",
"d s y s 5 L Z Z f 0 > F y 4 s < ! F Z 5 r s s ^ F l H a 0 9 s K S k H z f 0 y s 2 z n s K ] Z d 4 Z d s r N x A ] _ W s D Z 5 s ",
"0 i w s Z ( 2 = * d Z V d r > < U m V 5 O s K c s i V f r 0 e s i  .Z f K * r % s * * ( O.d Z M p d 6 s F j  .! G Y d r * ~ Z Z ",
"w s s I H F s & O d U s U y t 2 d w s F s = i i i 2 V q r % o i B c z z m H d 5 s d K ] Y Y V Z ! ~ d ' p Z z ( s < : V T S i Z ",
"w s i s H F < h , Z r y 4 ( G % % < 2 s s y s Z # i y s V Z f & f 2 g 2 ..g s t m ^ ] U W G X.` ] G a K F ! { F p & & m Y T d H ",
"I H H H v t > g , , h d 6 ! F y % e 8 % f q f F a u , h l % s f f s O g h 2 5 s z H P U p w Z ! Z ' p d n S d Z < j < M 2 M F K ",
"s v j i H X.d a 3 z s V V ] k d # 2 f q % % s p G p d d h e f V ; 5 ; g 2 k K K h F 2 d r ' d h D { ] a f * e 5 * j < , g f g p ",
"w * & L } s s s 6 p 8 m C d s 6 6 % s , r q t s F Q 6 , h & r d r w s 2 H Z m Z 2  .V S Y s t p ' Y Z G 2 d H Z s r % j a n 2 5 ",
"a s H _ H H s s S W p W W A - r % % ; e m < e p f U < W h R r V f U r s 2 K r * 5 d d d d y g g / G U n v d k ! Z s q r & 2 r V ",
"m I ] H Z Z ..I ^ d 6 p ! ! Z 6 q V F U s e % r ! F R ~ d q , M ! m d W ` d r O O d f d a s s C F s 2 d n d d _ W d S m 5 g Z e ",
"h H L K y 5 s Z k W 6 n R G Z Z 2 s U s k , , % s f d T g z S d V r g p 2 d : h < m i d 0 ' ~ 5 5 g 5 w y v y F ! S _ d % 0 s 6 ",
"v H 2 i t L y 2 s ~ p D Y W Z s V S S d e = z s 4 # . i 5 Z ! ! _ 5 - O 5 ; * h , , h Z i _ ! F a s W l D D S s d c F D 6 l - Z ",
"v ..C Z H y 5 t d p S f V Z c V s q 0 c K l s 2 * 5 % 0 2 L s d d V * f n d k t 3 V d S S o.S ! s S s 5 s i D y c Q 5 / c & d > ",
"s H Z s y t 2 v Z a d Z I m V w f r q > s i L 7 4 w s t Z ] ] s V g f < q G d s 6 s e N H W D D / ~ a l 3 % s S ^ A d S u a > Y ",
"M Z b d r & f f d r ! I I Z w ; q r ; O i J l k h V C Z V G d r 6 r g r 2 R Z s G W s Y G _ n / _ D V K i w F y F ^ S Z F t s n ",
"d d G a ; U f m Z V V y d G w r r c F s & y f f 2 T e j S ! P M 6 5 e f q V U V ' m 6 d ( ' ! D _ s d d 5 i c y F F e y e i G c ",
"V m s f 6 V 2 2 s V f 4 4 5 # O s a s s k s Z & g 2 g r r d W 2 < % & l k r g F G Y t N ! / S ~ D G s f l a y Z s V q 2 Z A s y ",
"K K 4 V s / s s d f , d w V ; ; s e ; r e f m f m + r n r 6 p 6 * d i s g ; r m e ' H A K W c d _ _ Z d k < s G e t g f g H c d ",
"a s i 5 l j s 5 , , 3 w w w q d s d 9 5 % u s 7 4 5 O 1 5 s 9 6 & i Z H 5 w y H H w l 6 s a S D S ' F r f F g Z H C H 2 a g l 0 "
};
