/* XPM */
static char *_643878422276[] = {
/* columns rows colors chars-per-pixel */
"64 64 32 1 ",
"  c #070707",
". c #0B0B0B",
"X c #170F07",
"o c #1F170B",
"O c #1B1B1B",
"+ c #2F1B0B",
"@ c #2B230F",
"# c #372313",
"$ c #332B13",
"% c #3F2B1B",
"& c #232323",
"* c #272727",
"= c #2F2F2F",
"- c #373737",
"; c gray23",
": c #432F1B",
"> c #473323",
", c #4F3B27",
"< c #4F3B2B",
"1 c #533F2F",
"2 c #574333",
"3 c #5F4B37",
"4 c #67533F",
"5 c #434343",
"6 c gray28",
"7 c #4B4B4B",
"8 c gray31",
"9 c gray34",
"0 c #5B5B5B",
"q c #6F5743",
"w c #775F4B",
"e c gray39",
/* pixels */
">688772<<61128494428766<9<16272>>748716<<1262689888887522221677>",
"<&%**X&&ooo@&Xo%*%%*&o*&ooOO&Xo<<&#*&X#&#@#@&Xo%*%**&o&O#O&@&XO<",
"<%%>>O.&%*&@**.O><>>%X.&%**&=&X<2%=%>O.&%%%*%*.O>>%>>O.*%$#%>&o<",
"1%>22<O.&%*%*=%.@22<<>O &=%>6*&;5%><2<O.*:%%**%.&2%21>O.*%>>*>%<",
"2%>232<O.&=%%%%*.*<222<O.*>*%%O>6*>1222O.*>%%*=%.%<221<O.%-=>%#>",
"<o&23721O.*>%=%=%.%22271O.&>%*&>2o#22222O.%>%:>>%.%2222<*.&<=%&>",
",%.%74471O.*>%%>>%.%22222o.*>$&,,>.$22422&.*<><>-:.:28222O.%>*#>",
"<%%.>43271&.*:%%:>%.%272>2&.*%@>>#%.%23432*.*<>%>>%.%222<2%.*%#>",
">#%%.<93222&.*>>%%<%.:8,72<O.&%%>&%=.%78482O.%<<>=>%.%31427#.*%<",
">%%<>X>72728&.%<>><<:X>42721O.#>>#%>=.#48482&.*-<>=>%X%29372&.%<",
">%:=<>X<42942#.%>>>><&o>8362<Oo<>#%%:=.>84782%.%<==><*X%49482OO2",
">*#:>>=.>88627#.*>1<=<=X:2722>*2>%=>%-=X>47387#.%>--=;>X:4282<%1",
">O>%>%2=.<26382&.%1=<>>%.>272>%6<#%>%:<=.>94988%.%<=;;>%.<8442%2",
"1X#<<>%<>X%28434%X&5<<>>>X%22<%6<X&>>:><>.>48992%.&<><<<>.>44<>2",
"2O.*<>>=>=.%49447%X%<>><<=.>2>*62O.&>>%%<>X,99882%X%-->;;>X>32:2",
"2%O.%;%>><%.#78424:.%5;2>>%.#<%22>O.%>>>;<>.298228>.*;<>>;>X,2:2",
"2%<&.%>>>>>%.<32994%.%;<<<<%.O%61%=$.*>>><;:X<82442O.%<>><>:X+>3",
"2%<2#.*;>>>;>o<99044%.%5><>-%.o61>22&.%<<<>;=X<48898%.%;><<;>.o3",
"3=238*.*<>>><*X<4q494%.%1<>>-*X<2%<28#X%><>>1*X>79042%.*<;-<<:o2",
"2>2442*.%-><%5>X<094w7%.%<>:>%#;2%<287*.%>-<%<>X<40944%.%<><>>%2",
"2>23444%.%1=<<<>.<40944$.*<<%##<2%<7844%.%<=<><%X<94004%.%1>>>#,",
"<O#44494>.&;<>>;>X<90908%.%;%#&>2o#24874%.&5<<<>=X<90q44o.*>>:#<",
";>.>84804>X%<>>>;>X<9048q%.%>##<<&.&27833>X%<>;<>=X<44942$.%<>%<",
"<>%X>40913>X%2->>>=X<49q08&.%>%<2%%.>88480>.%<;><<>X,49444%.%>#>",
">%>%.147904*.%>;<><>X149403%.*%12#>%.>72004%.%<<>;<>X189494*.*#>",
"<%%>=o<89996$.*;>->-=X<99444&.%<2%:>=X<74q43%.%<->><>X>44947&.%<",
"<#><<*o<27976*.%;><-<=.>44442&X2>%%>;&X>37w94#.%<<;<<=X<44442OO2",
"1%>>%<=.:87827&.%>:%><=X,4448>%2<%%-*;%X:77242#.*<%<>2=X>8423>%2",
";&>*->-%.<42782@.*<:>>>>X>233>%2<$>*2%7%X>42242o.#>%>><=.>342<%2",
"2oO>%%>>%.>222e>OX*>%>:%%.#2,>%2<oO>%%$>%.#22222O.&:>%%>%.#22>%2",
"2#O%,>>>>:o:>>>>>&@%>>>><>&>>>%<<Oo%>>>>;>#%->>>>&O%:>%1<%o>->#2",
"%;<1<>2,<122222q221<>>><<;22222>%1<>><<,>22222222211<,>><<22122:",
">788842221247494999987621222744<,7888422222274998944q8222<22272>",
"1&%%#O%%%###%oo%%%#%%O&@#%%%#o&22&%%&O%%###%#oO%*%%%*X&%###&#o#2",
"2%%%%O.%<:%>%%.o;><2%O.&%%%%=&o22%><>O.*%##%%%.o>-><;O.*>::<>&o2",
"2%:<<<O.*<>%*-%.%678<2O.*%>>*>%<>:><2<O.*>=>><%.#<272<&.*>>;%>:<",
"<%>2283$.%>>>>>=X>74812$.%8%>#&-2%:<264&.*-->>;=X>46668&.%;=<=#<",
"<OO<2784%.%<<1>->X>33897*.&<%#&,<OO<2243#.%<<<>;>.>27478:X&<%%#<",
";%.#67904#.%;<->>>X>90442%X*=%%><%.#29477*.%;;><<>.>84798:.%>%#>",
"1%%.%49948%.%->>>1>X,74873*.*%%<<%%.*48493:.%<<<<;>.>49027:.*%#<",
"<#%%X<84448$.%<<<<<>X147q04*.*&>,#>>X,92994>.%<>-<<>X>82998*.*%<",
">#%%=X<40w98$.%<<<-<=o1949w2O.#2<%><=.<40093%.%<<->-=o:e0228@.%<",
">%%%>%X,47879%X%<<-;<*o>79q47OO22%%><>X<00998%.%;<><;*X<99826&o2",
">*%%%;>X>7998q,.%<<5=<=X>4992<%<2>>><<>X<4949q%.%><5>5>.<8328<%2",
"<&%%><>>X>8444w&.%1%<<<=.<9q42>21#>>>>;>X,wq094:.%<=;<;>X>797<%2",
"2o#><<;>=.>494w4:X&1;<>->.>472%12o#-><><>.<00994%X&<;;>5:X>871%2",
"2O.%;;>>;=.>80974,.%<>;5;>.>7<%21&.*<>>;<>X1q9099<X%<<>><=.%42%2",
"2%O.*>=>>->.%84779:.%<<>-5>.%%%27>O.%<;<<<>.%90088:.%<<=><=.%<%2",
"2:<&.%>>%><=X<81492$.%-->>>=.O>42>1@.%<2>1-=X>819e7%.%5<<->%.#%7",
"3:12%.*;>%><>o>22722*.%>>>><%.o32%<2%.%-<<><>X>840w4%.%<<>>>%.O<",
"2:283*X%>>;;<*o2287e2*.%>><>>%o>2>232%.%<<<<<*o<27q94*.%<-<=>%o2",
"2=2784%.*;;<%<>.>88944*.%<>>:%%12>2348%.%<<<=1=.<29884*.%<<>%%%<",
"2%23432#.%<*<<<>.:44432%.%<>>%%22%23404&.%2:;>;=X%47q03%.%>>%%#<",
"2O%84422%X*<<<><=X<qw492O.%<:%#<1o:34442%X&<>><>%.%44498%.%->%#2",
"<%.>44902%X%>:>>;%X%89382*.%<%#><%.%2w943%.%1;><<=.:44094%.*8%#<",
",#%X>39822%.%-<<=<>X>77837&.*>#>,%%.>34423>.*<;>><=X%44494%.*=%<",
",%>%.%92433%.%<>>>>%.>23282#.&%>>#>>.>81893%.%<>:>->X>q4842%.*%<",
"<%%>=X<23493&.%>>:><=.#22832O.%<>%>>>X>34497&.%<>>><:X>32482OX%2",
">#%><*X:22941O.*<>%>>%.$23222Oo2>#%>>*X>38092*.%<->>>%X>;8322OX2",
",#%>=<:.$27252&.*>>%=-%.%7223<#2>#%>%<%X>76322&.*<=%><%.%2322>%2",
"<&>*>2%%.%281<<&.*>:*%>%.#2221%2<$=*->>%X%22262O.*>*%*=%.%<21>%2",
"<oO>%*$%*.&212>%O.&%%%#*%.@<<1%22XO>%%%%*X#<<<<>O.&%*&*%%.&<2%%2",
"<&o#%%%>=%O=>->>>OO#%>%%>%o<>>#11#o#%%%%>%@%>====Oo&&%%%>%O=>:&<",
"%;<;>>>>>>;22211221;>:%:>><222<>><<,>>>>><1122225<;>>>>=<<<2<<;>"
};
