/* XPM */
static char *_643878345958[] = {
/* columns rows colors chars-per-pixel */
"64 64 38 1 ",
"  c black",
". c #070707",
"X c #0B0B0B",
"o c #1F170B",
"O c #131313",
"+ c #1B1B1B",
"@ c #3F2B1B",
"# c #2F371F",
"$ c #232323",
"% c #272727",
"& c #2F2F2F",
"* c #373F27",
"= c #373737",
"- c gray23",
"; c #432F1B",
": c #473323",
"> c #4F3B23",
", c #4F3B27",
"< c #4F3B2B",
"1 c #533F2F",
"2 c #3F472B",
"3 c #474F33",
"4 c #574333",
"5 c #5F4B37",
"6 c #53573B",
"7 c #67533F",
"8 c #434343",
"9 c gray28",
"0 c #4B4B4B",
"q c gray31",
"w c gray34",
"e c #5B5B5B",
"r c #6F5743",
"t c #775F4B",
"y c #5B6347",
"u c #676B4F",
"i c #6F7357",
"p c gray39",
/* pixels */
"=2--<8-=3-8-4<<33666131:=364142:*31843<<><<<-1<:3<633632233833::",
"&=%@&%%%*+%&&%%:,-%<:o%=:%%-&%%=&+$&&%%2:%%=:%%::%%&&%%=-0%=<%&2",
"*% <=% &=% &&% <5% 41% <<% *=% ==.%&=.%-=.%&4.%=<.%=<.%<1.%=<.%-",
"=% 4*% 8=% -:% =4% 45% ;8% 8:% ==.%8=.%--.%-4.%5-.%-1.%45.%=-.%-",
"-%.58%.-4%.4-%.14%.64%.45%.8:%.==.%--.%--.%64.%65.%-4.%58.%8-.%<",
":%.--%.85%.8-%.--%.04%.65%.64%.98.%-8.%--.%64.%55.%6-.%5-.%81.%8",
"*#.==#.04#.4-#.44#.85#.-5#.68#.-8.%8-.%*=.%86.%60.%65.%-*.%*<.%-",
"2<:*3368q-468==8067989=885088848880-8--8--88q67qy779670--8==24-=",
"*-=*-46386-08-=-=888==8-41*88=8=-8w0-=--8---366q0843-=68e8=6--,3",
":#.4e#.q8#.q4#.84#.89#.-5#.8-#.-6.%6-.%0-.%96.%79X%9-X%45X%45.%-",
"<%.85%.6q%.08%.08%.q9%.90%.08%.84.%88.%88.%-4.%9-.%08.%8q.%75.%8",
":%.85%.8q%.74%.q8%.w7%.88%.88%.87.%y9.%89.%88.%y8.%08.%8y.%67.%-",
"=% 84% 06% 57% 88% 9q% 98% 88% 08.%q8.%90.%89.%y6.%68.%-q.%37.%4",
"<%.66%.07%.70%.00%.wy%.-9%.88%.60.%w8.%8q.%80.%88.%88.%0q.%64.%<",
"2%X86%X84%X47%X0-%Xqq%X96%X88%X0q.%#8.%90.%00.%--.%8-.%-8.%64.%<",
"2*12q8=q88==8-988009009i90800qy9qq09eqy0yyywy88907qy90q908-w7653",
"2<&86888-=-8=-=808q00080q6890--008-3--80qqq6006098-8068908-36133",
"2%.97#.9-#.8-#.--#.yy#.90#.08#.86X%-8.%qqX%y7X%q7X%99.%98X%47.%6",
"3%.77%.q8%.98%.8q%.yr%.0y%.y6%.07.%80.%e6.%yy.%q7.%q8.%08.%87.%6",
"3% 76%.08%.98%.yy%.ye%.qy%.qe%.6y.%80.%e7.%yy.%y6.%q9.%08.%6-.%6",
"<#.74% 0q% 88% u7% uy% 0r% w7% qq.%9q.%9q.%07.%6y.%6e.%88.%38.%1",
":% 66%.0y%.-8%.uy%.ey%.qy%.q0%.09.%8q.%q9.%q7.%09.%ey.%8-.%6<.%3",
"*%.68%X90%X-q%X-7%Xyq%Xqw%X90%X68.%-8.%8-.%8y.%w7.%y7.%--.%q-.%1",
"25586qqqq69eqw690qyeqyq0wq09e0qqq0-89--9eue00yeww880qqy9qq033&&:",
"@433864888-80-86q88qwq60096q0809q--88==0qqy0y6q00q6qq68y06089=:=",
"<%.45#.88#.-6#.78#.87#.w7#.q9#.0eX%89.%00O%qyX%87X%yyX%q0X%88X%3",
"3%.65%.0-%.9q%.y0%.qq%.qe%.q9%.8r.%80.%qr %ee.%yq.%qq.%w9.%88.%6",
"8% 67%.89%.80%.90%.6q%.qy%.09%.q7.%w6.%6y.%8y.%e6.%uq.%q6.%88.%4",
"<%.-0% y8% 8q% yq% we% y7% q0% w0.%0u.%y7.%06.%ee.%0q.%w6.%64.%1",
"<%.-5%.q0%.0q%.07%.u7%.wy%.y0%.w9.%97.%ey.%qq.%q7.%yq.%y8.%86.%4",
"<%X66%Xy0%X8q%X00%Xw6%Xqy%X06%X78.%90.%q7.%37.%05.%wu.%90.%-5.%2",
":456678ywyq099wqwuewwu9qeeywwu9wq08wqu0qyuuqyyuqqqwywwyyq-83455:",
":113866q0960qy0qw66qq8-w0q8q099006-996q99q0yq8qq088908-89=-32<<*",
"<%.55#.77#.97#.qy#.q7#.65#.q7#.qq.#06X#09.#yy.#68X#8qX#9w.#=1.#3",
"-% 54%.ee%.00%.qq%.e0%.87%.w9%.70.%06.%y7.%e7.%q9.%00.%ey.%65.%1",
"-%.85%.y6%.y8%.00%.08%.87%.y0%.77.%q7.%77.%yq.%eq.%90.%09.%61.%8",
":% 45% 9e% 9q% 0y% 0w% q0% q0% 90.%w7.%w7.%w0.%ew.%-q.%e8.%55.%4",
":%.5<%.09%.q0%.80%.89%.90%.q7%.qt.%70.%y7.%yy.%9y.%80.%w7.%64.%3",
":%.55%X-0%Xq0%X96%X98%X88%X65%X80.%77.%40.%89.%3q.%60.%q7.%68.%<",
"3<414yy9980wqqq9q8009-88qyqqyy0qw:0qqw89q9q09-8w07yq087ey57981,<",
",:<-660889e900qyq98090-9909908=0q8yyq08806099-88q0880860qe06=&:>",
":%.44#.00#.66#.yq#.98#.80#.05#.yyX#uyX#w8.#88.#-9.#8-.#q0X#5<X#<",
":%.55%.q7%.qy%.y8%.y9%.08%.er%.yy.%qy.%ey.%88.%9q.%0e.%e0.%54.%<",
":% 45%.yy%.77%.yq%.ey%.60%.e0%.y6.%wy.%yq.%80.%9q.%e6.%80.%85.%<",
"<% 85% w7% y7% wq% ey% 07% yr% 00.%wy.%00.%99.%80.%8q.%q4.%65.%-",
"<% 4r%.86%.q0%.wy%.y8%.70%.y7%.-y.%07.%90.%90.%:0.%87.%q8.%57.%1",
"2%.-5%X04%X98%X80%Xy4%Xe8%X00%X88.%08.%98.%8q.%-0.%-q.%85.%45.%<",
":44=-68000099809p0qw0ye0008y8=-0qyqqqyw0q8--8y89w7e0y6880863-<<:",
"*2<:48806q--8--80000q8-00--88-8qqyy0999w0q-8wq08q7qqyq9804821:33",
"3%.-7#.76#.88#.=6#.80#.e-#.--#.w7.%90.%9qX%67.%07.%qqX%09X%14X%<",
"<%.64%.70%.88%.08%.e0%.88%.08%.87.%9q.%q7.%y0.%67.%qq.%69.%--.%6",
"3% 84%.2-%.00%.80%.w7%.60%.98%.8y.%-y.%ye.%97.%q7.%y5.%00.%84.%3",
"2% 98% 98% 80% 0-% qq% qy% yq% 80.$0y.$77.$q0.$q0.$07.$08.$8-.$3",
"3%.44%.90%.86%.q6%.uy%.9-%.q8%.08.$0q.$98.$q0.$88.$9q.$-6.$4-.$6",
"2%.28%Xy8%X-0%X80%X77%X-8%X-9%X-7.%q-.%80.%w9.%-8.%87.%8q.%2:.%3",
"*4<86688e7q8y7y-0y7pq08-08=9q8yqy0y08888q7009-89qq6966-0q0---<22",
"2<*-8-988-800660904888-388=8---3888qq88888603668880006q8---332*2",
"2%.4-%.4-%.y7%.65%.08%.-8%.-=%.84X%05X%08X%q5.%=-X%87X%9=.%8-X%3",
"-%.8<%.8=% 05% q6%.85%.-8% -8% 88.%05.%57.%05.%88.%88.%4:.%44.%3",
"-% :-%.8-% -4% 67% 04%.8-% -6% 66.%85.%77.%8-.%-8.%8-.%01.%45.%8",
"-% <<%.-4% 8-%.55% 41%.4=% --%.68.%7-.%4:.%8-.%--.%--.%-4.%54.%3",
"=%.<<% <1% 45%.45% 45%.4=% <-%.68.%4-.%--.%4-.%-<.%-<.%-4.%00.%3",
"&=%9q%%w0%%yu%%7t-%7t%%07%%8w%%uw%%0*%%4q%%qy%%07%%w7%o97%%00%=:",
"#&*=-:*2*:<:=<222233<:*2@<38<<<::<--:::3,:::<<2:*3<3232*22---=&:"
};
