/* XPM */
static char *_643878416853[] = {
/* columns rows colors chars-per-pixel */
"64 64 17 1 ",
"  c #272727",
". c #2F2F2F",
"X c #373737",
"o c gray23",
"O c #434343",
"+ c gray28",
"@ c #4B4B4B",
"# c gray31",
"$ c gray34",
"% c #5B5B5B",
"& c gray39",
"* c gray42",
"= c #6F6F6F",
"- c #777777",
"; c gray50",
": c #838383",
"> c #8B8B8B",
/* pixels */
"&$o:&+.>&+.:&@&&&$o:&OX:&O.:&@&&&$o:&+.>&+.:&@&*&$o>&O ;&O.:%@%*",
"=$O.:&O.>&+.=&&-=$OX:&+.:&O =&*-=%+.>&+.>&+ =&*--%+.:&O.>&+ &&*-",
"=&$O.:&O.:&@&&&X=&$O.:&O.:&@&*&o=*$+.>&+.:&@&&&O=*$O.:&+.:&@%&&o",
"&-=$O.:&O *&&&.@&-=$O.:&O **&&.#&-=$+.>&+ *&*&.@&-=$O.:&+ *&&&.@",
"&X=&$O.:%@%&&.@%&X=&$O.:&@&*&.@&&O=&%+.>&@&*&.@&&o=&$O.:&@&&&.@%",
".@&-=$O =&&&.@%&.@&-=$O *%&&.@%&.@&--%+ =&&&.@&&.@&==$O =&&&.@%&",
"@%&X=&$@&&&.@%&.@&&X=*$@&&&.@%&.@%&o-=$@&&&.@%&.@%&o=&$@&&&.@%&.",
"%&.@&-=&&$X@&&X@%&.@&-=&&#X@%&.@%&.@&-=&&$o@&&.@%%.#&-=&&$X@%&.@",
"&.@%&o***%@%&.@%&.@%&o=**%@%&.@%&.@&&X-&*$@%$.@%&.@&&X=&*%@%&.@%",
".@%&.@&*--&$X@%&.@&&.@&*--&$X@&&.@&& @%&-=&$X@&&.@%&.@&*--&$o@%&",
"@%&.@%&$o>-$@%&.@%&.@%*$o>-$@%&.#&&.@%&$X>=%@%&.@%&.@%&%X>-$@%&.",
"%&O@%&-&+.>-&$X@%%.@%*-&O :=&$.@%&.@%&-&O.:=&$X@%&.#%&-&+.>=&$X@",
"&.@%&$X:&+.>-%@%%.@%&$X:&O.:=$@%&.@%&$X:&O.>-%@%&.@%&#o:&+.>-%@%",
"X@%&-&+.;&+.>-&$X@%&=&O.:&O.:=&$X@%*-&+.:&O.>=%$X@%&=&O.:&+.>-&$",
"+%&$o:&+.>&+.:=$@%&#o:&O.:&+X>=$@&&%o>&+.-&O.:=%@%&$X:&O.:&+.>-%",
"&&-&+.>&+X:&+ =*&&-&O.:&OX:&+.*&&&-*+X>&+.:&+ =&%&-&O.:&+.:&+ =&",
"&$o:&+X>&+.:&@&*&$X:&O.>&+.:&#&**$o>&+.>&O.:&@&*&$X:&+.:&+.:&@&&",
"=$O.>&+.:%+X=**-=$Oo:&O.&&+.*&*--$+.>&+.>&O *&&-=$O%>&+.>&+ *&*-",
"=*$+.:&+.:&#&**o=&$O.-&O.:&+&&&X=&$+X>&+.:&@&&&X=&$O.>&+.:&@&&&o",
"&-=$+.>&+ *&&&.@&-=$O.:&O *&&&.@&;*$+.:&O =&&&.@&-=$OX:&O *&*&.@",
"&X=*$O.>&@%&&.@%&X=&$O.:&@%*&.@%&X=&$+X>&@&*&X@%&X=&$O.:&@&&&.@&",
".@&-=$+.*&&&.@%&.@&-=$+ =&&%.@%&.#&-=$+ *&&&.@%&.#&-=$O =**&.@&&",
"@&&X=&$@&&&.@%&.@%&o=*$@&&&.@&&.@&&X=*$@&&&.@%&.@&&o-&$@&&&.@&&.",
"&&.@&-=&&$o@&&.@%&.@&-=%&$X@%&.@&%.@&--&&$X@%&.@&&X@&-=&&$X@&&.@",
"&.#&&o=&&$@%%.@%%.@&&#-=*$@%%.#&&.@%&X=**$@%&X@&&X@&&X*&&%@%&X#&",
"X#&&.@&&-=&#o@%$.@&&.@&=--&$X@&&.@%&.@&*-=&$o@&%.@&&.@&*--&$X@%&",
"@&&.@%&$O;=$+%&.@%&.@&&$o>-%@%&.@%&.@%&$o>-%@%&.@%&X@%*% :-%@%%.",
"%&.@%&-&O.:=&#X@%&.@%&-&+X>-&#X@%%.@%&-&+X>-&$.@&&o@%*-&O.>-*#X@",
"&.@%&$o:&O.:=$@%% @%&$o:&+.:-$@%&X@%&$X:&+.>-$@%&X#%&$o:&+.>=%@%",
"X@%&-&++:&+.:-&$o@%&-&Oo>&+.:=&$.@%&-&O :&+.:-&#X#&*=&+.:&+.;=&$",
"@&&$o>&+X:&+.:=%@%&$o:%+X>*+.:=%+%*$o:&O.:&O.:=$@&*$o:&+.:&+.:=%",
"&*-&+.>*+.:&O.=&&&-&+.>&+X>&O =&&&-&+.;&O.:&O *&&*-&+.:&+.:&+ *&",
"&$@:&+.:&+.>&#&*&$o:&+.:&+.:&#%&&$o:&+.:&+X:&@&&&$o>&O.:&+X>&@&*",
"=%+.>&+$>&O.*&*-=$+X:&+.:&+ *&*-=$+.:&+.>&+ *&&-=$+X:&+.:&+ =&*-",
"=*$+X:&+.:&@&&&o=&$O.:&+.:&#&&*o=&$O.:&O.:&@&&&@-&$O.:&O.:&@%&&X",
"*-=$+o>&+ *&&&.@&-=$O.:&+X***&.@&-=$O.:&+ =&&&.#&-=$O.:&+ =&&&.@",
"&o=*$+.:&@%&&.@%&o*&$O%>&@&*&.@&&o=&$O.>&@%&&.@&&o=%$O.:%@&&&.@&",
".#&-=$O *&&&.#&&.@&-=$+ =*&=.@&&.#&-=$O *&*&.@&&.@&-=$O *&&*.@&&",
"#&&+=&$@&*&.@&&X@%*+=&$#&*& @%&.@&&X=*$@&&$.@%&.@&&o=*$@%&%o@&&.",
"&&.@&-=&&$X@&*.@&& @&-=**$X@&& @&&.@&-=&&$X@%&.@%&.#&==&&#X@&&.@",
"&.@%&o=**%+%&.@&&.@%&X==*%#&&.@%&.@%&+=*&%@%&.@%&.@&&o=&&$@%%.@&",
".@%&.@&*-=&%X#&&.@&&.@&*--*$X@&&.@%&.@&&-=&$X@%&.@%&.@&&-=&#X@%&",
"@&&.@%&$o>-%@&&.#&&.@%&$X>-%@%*.@%&X#%$$o>-%+%&.@&&.@&&$o>-%@%&.",
"&&.#%&-&+.>-*%X@%&.@%*-&O.:-&#+@%&X@%&-&O.>-&$o@%&.@&&-&+.>-$#o@",
"&.@%&$o:&+ >-&@%&.@%&$o:&+.:=%@%&.@%&$X>&+.>=%@%%.@%&$X>&+X>-$@%",
"X@%&-&+.:&+.>-*%X@%&-&+X:&+.:=&$X@%&=&+.:&O.:-&$.@&*-&+o:&+.>-&$",
"@%&$X:&O.:&+.>-%@%&$o;&+.>&+.>=%@&&$o:&+.:&O.>=$@%&$X:&+X-&+.:-%",
"&&-&O.:&+.:&O =*&&-&+.:&+.:&O =*&*-&O.:&O.:&+ =&&&-&+.:&+.>&+X=*",
"*$o:&+.:&+.:&@&&&$o>&+.=&O.:&@&**$o:&O.:&O.:&@%&&$o=&+.-*+.>&#&*",
"=$O.:&O.:&O =&*-=$O.:&+.:&O =&*-=$O.:&+.:&O *&*-=%O.>&+.>&+ =&*-",
"=*$+.:&+.:&@&*&o=&$O.>&+.:&@&&&o=&$O.:&+.:&@&*&o=&$+.:&+X>&@%*&o",
"&-=$+.:&+ =&*&.@&-=$O.:&O *&&&.@&-=$O.:&+ =%&%.@&-=$+.:&+.=&*&.#",
"&o=&$O.:&@&&&.#&&O=&$O.:&@&&&X@%&X=*%+.:&@#&& @%&o=&$O.:&@&*&X#&",
".#&;=$O *&*&.#&&X@&-=$O *&&&.@&&.@&--%+ *&&& @%&X@&-=$+ =*&&.@%&",
"#&&&=&$@&&&.#&&.#&&X=*$@%&%.@%&.#&&X=*$@%*&.#%&.@&&X=*%@&*&.@%&.",
"&&X@&-=&&$X@&&.@&&.@&-=&&#X@%%.@%&X#&-*&&#.@%&.@%&.#*--&&$X@%&.@",
"&.@%&.*&*%#%&.@%&.@%&.=*&$@%&.@&&X@&&.=&&$@%&.@&&.@&&o=&*%@%&X@&",
".@&&.@&*--*$X@%&.@%&.@%&-=&#X@%%.@&&.@&&-=&$.@&&.@&&.#&*-=&#X@%&",
"#&& @%&$o:=%@%&.@%& @%&$X:=$@%%.@&&X#&*$o>-%@%*.@%&.#&*%@>-%+%&.",
"%&.@&&-&O.:-&$X@%%.@%&=&O.:=&#X@%&X@%&-*+.>=&$.@%&.@&*-*+.>-&#X@",
"&.@%&$o:&+.>-%+%%.@%&$o:&O.:=%@%&.@&&$+>&O.>=%@%%.@%&%o>&+.:-%@%",
" @%*-&+.:&+X>-&$X@%*-&+.:&O.:-&$X@%&-&+.>&+.:=&$.@%&-&+X;&+.:=&$",
"@&&$o:&+X>&+X>=$@%&$o:&+.:&O.>-%@%&$X:&+.:&+.:=$@%&$o:&+X:&+o>=%",
"&&-&+.:++.>&+.*&&&-&+.:&O.:%O =&&*-&O.:&+.:&O =&&&-&+.:%O.:&+ =&"
};
