/* XPM */
static char *_643182710209[] = {
/* columns rows colors chars-per-pixel */
"128 128 45 1 ",
"  c #373737",
". c gray23",
"X c #4B371B",
"o c #533F1F",
"O c #4F3B23",
"+ c #4F3B2B",
"@ c #533F2F",
"# c #5F4323",
"$ c #5B472B",
"% c #574333",
"& c #5F4B37",
"* c #53573B",
"= c #675333",
"- c #67533F",
"; c #775F3F",
": c #434343",
"> c gray28",
", c #4B4B4B",
"< c gray31",
"1 c gray34",
"2 c #5B5B5B",
"3 c #6F5743",
"4 c #775F4B",
"5 c #5B6347",
"6 c #676B4F",
"7 c #7B634F",
"8 c #6F7357",
"9 c gray39",
"0 c gray42",
"q c #6F6F6F",
"w c #7B7F63",
"e c #777777",
"r c gray50",
"t c #836B4B",
"y c #836B57",
"u c #8B735B",
"i c #937B63",
"p c #9B7F6B",
"a c #9F876F",
"s c #A78F77",
"d c #AF977F",
"f c #838383",
"g c #8B8B8B",
"h c #939393",
"j c #979797",
/* pixels */
"1<,12211221212<<<<,<<,,,<,<,,,,,<<<<111<,1,,,,,<1<<1111<<,<<<<,,,,<1<,<<<<,1111112222q222222221<111112222999222929221122222221,>",
"0200qqqqqqq00909900800q0000090999900qq09000080880qqqqq00000000000000009000000qqqqqqqqqeeqqqeq0990q0qqqq0qqeeeeq0qqq000q0qqqqqq29",
"91990009000q0999999992999099929299999999090999999900r009999999999990999999000qqqqqqqqeqqeqqqqq9999900qqqqqeeeeqeeq0999q0qqqq9019",
"119&7iparaaapiiiiuiiiwiiiipiiiwiuuiwwipapwiyyiiiiipapippiiiiipiiiiipppppiiaaappassaasssaasaaawaipppaaaaaassddsssahiwipiiaasu29,2",
"2,2%-333344763333333---------4-----3--333;;3---3-344;463-36333----333333333333647y77yyyy77y7y7773744744776yyy878774777y4778829,2",
"1,2%--3-33-333-3-----3&---3&&--3333-3-3--;---&=------3;---------3---3---33---333477yy77744444744y4444444447y777774434444446y29<<",
"<,2%--33333633-33----3---3-3-----33--------&=&=---;-3-3--3---------3---33---3-34477447y47774777444474343447y74477444344474y829<<",
"1,2%-3333333-33-------=-&3--------;--3-3;3-=-&=--3--333---------------334-333334744444447yy7744443447744447y774774433444746y22,2",
"1,2%---6444343------------------33333-33;33---=---3;333-3------&---33-3343443-37444474477y474444434-34744477y7y774433444444812,2",
"1,2%---3447-3------------33----3-;;3-333--43==&=-3;36;3---4---=&-----3-343444447774744444444474443--344447y7y7y777433474447822,<",
"1<2%---3y743-3---=--------3==4&---;;-33------=-=---334;3-------&---3---34344743777y447747474447433--344444yyuyyy74444744444729<1",
"2<9%-374333-333-------------=-3--3333-3-------=---;;-;3--------&&333----3364443474777yy44444444443-3-344747yyyyuy4744777443729<<",
"1<9&347--33-3--3--3-------3&&----;33-3------4----34-;433-------&&3----3-343643334747747y74774444443334444477yyyyyy747774447822<<",
"2<9-3-3--333-3-33--&-------=&--3--33--333-33------4-46333-------&3-----36---4733347777774474444444-33444437y7yyy7y774774444822<<",
"1<9&--333333---------------&----3-3333-3;33--=---43-;433---33--&*----3------333347774477y44444444433344474777777y7744744474812,2",
"1<2&333-333333-----==-3----&=----33--3-4;-33--=-------3---3----&-43333----4-33333347447y744447447474444444yy7747y7774443474y12,2",
"1,2%-3433-33---=---=&---------------33;3;;3-3=3----;3-33---------3-43-3---3-3-33433447y774444444444444464777777774734773434721,1",
",>2%-443333--------=------------&-4-33;;73;;------33-33-333----4333----33----333443344444474-34334744744447y734774774343347719,1",
"1>1%-334334333--------&---------=-3333=---43;=-33-3;---33-3-3---3343333-3------4444334344443-3-33-447y4447yy74444477433-3347<2,>",
"<>2&344433333--=-------------3----333--=34-====----;;--3---3333---3346----3--344443343443443-3----3347yy77yy777774444333333711,2",
"<,2&347443-3;-=43---&-=----------3333---;-==-=3---3;;3------3333-3-33------333337433434343443-3333-34yy777yy477477774733-33711,2",
"<,2&-344-34-=-&-=--3&&---------3-=3-33-3-333-=-;---33-3----363--=3433------3333333334433333343-3334347yyy7yy473-7447474333-712>,",
"1,2%--3-4-----=-=&-&3333&-3------3-3--33-33==-=--333;3----3333-----3--------43-3334444443343433334444yyy77y7477733744444---622><",
"<,2%--333&3-3-&&=---=&&34--&-3-364333;;3;;=3-===---;3;---33343----333-3-3-3--33443347443334433-3334477yyyyy77777444744=333371912",
"<,2&-3-3--=-=-$=----&&-&--33-3333;3333;;=-======---33--3--33333-=-----33-3---3-4344444443333-4--333448yyyyy7447774777444-3;71<>1",
"2<9%--33--&-3===---=&-=-=-----4333-3334;;;---===--3=;;-33333333-------33----3433447774443333=--4343477y77774777777444;74;37y21><",
"<,2%--33-3---$==-----&&&&=&----363;--33643;-==$$===3-4-3333333-&--=3-3-333443--37474yy43333443-333344777yy744777744--344447y26<2",
"<,2%-3333--=-=-=----&&&-=&&3-3333466;33;4;==&$$==$=333333343-43=-==-&3----343--47474443333=33--43344444744747444474==337447u22<,",
"<,2%-43-33---=-=---3------3-3;-33743-6433;=-=--$-==---3-346-3-33333=-------33--44444443333333--33334474447777477777---44777812,1",
"<,2@-33464433--==-33-------3-3-;7743-3447;;--3-==-------4333--&&--3&==-----3-3344444444333333333333444747747777777433-3=;;4y22>1",
"<,2%--4463343-----3=-&--&=-33333434-3;3;;;3==;33;--3---33--3---&--------&&-333344474444433-333333=-33474744477y44443534-3-7u29,2",
"<,2%--33333333-----=&-&--&&--3334;6433;;;;=;3-;;333-33----33--------&&&$=--333344744444433-33333&33433474777477y7433833==37y29<1",
"<<2%-34333343--------&&---&&-3344433;3=;;=;3-34;;3;333--3-33----=---&$&=---33334444444443343433443=4437777y777777444-3443-4w9911",
"1,2%--433333------&--&&&=&-&-364443;;4;3;;;-4-334;;;;6333-4433--&----$#&------334774444443;7444444333-4777777y7447733334446y12<<",
"212&-333333-33---3&&--&&&-&&---;3446;6;-4;-4--=;43;;33-367733-------&=$&-------3374334444347444444-3-3477777yyyyy4343333474429<1",
"119&3443--33-3----=&&&&&&---=3-344633;;;;;4----36;44-33-4447433-3-33-&=--&&3-&-344-=3444444=344;43---347y77yyyyyy7333333446y22,2",
"2<9&343-333333---=&&&&--&&--&-3;;73334;;333-33;3-;;;;-36y3343-33-----&&--&=-3--44434=34444=4344444&44344yyyyyyyyy43743-344wt21,<",
"1<9&3433---34y-3-&4&&&-----&----;43;4-;-33---4--3-373--346y63--&--33----$$&-33-3444=34333-=3434744433344y7yyuyyu74333343747712<1",
"1<9&34-33-3--3334-3----&&-------;;4;6-3---33-&-------3-3644443-&--------$&-&-34-33343333333333447744334y477yyuyy74333=7477;;<1:2",
"119&44433333333---333--&&&-------33;;33;-;-3&-----3-3-3=;4643--&3-----&&$$-=33-3==33-43=3=-43474444443444777y7y7y44-=-=-;448,2<,",
"219%3-433333333-3----3-&&-&-3---33333343-;3-&&&3=3---3--64663----3-3--=-=&&-3333333434334-33=3-444443477744777y7744-3-3==-3;<2>,",
"21<%&343-333363---=-3---&&&------33-333--=;3-&&=3-3;---764633-----3-3---&&$&3-333333--3343=33=344433344474777yy74433-3--4--82<>,",
"2<1@&3463336343------6--&-&&----3-3-----------&=-3;346436433------3-3--&&&--3=3443=3=4$=34-33=44433344437474yuy777-3&&-343=712,2",
"1<>@-3434364443-3-=&-------------33---4----=--&=-;;;4;64633---&&---3---&&&&-&=3334-3--=3=433-=34433344y4444477y73333=-443-3;<<:,",
"1,2%-344334644-3--&-&&----=&&---------;;;-----=--;;4=3;444----&----3-----&--3-3334-343===333==-33--3444474447y7343333-37uu4729:>",
"112@-344373446---&&&&&--&&-3---&-----3;;;;3333---3;444446333---&--3---3-33-6-3333333433&-4333-&=--443447477777;77-33344777wu21<,",
"1,2%-33343343333--&&&--&-6-------3---;4;;-33-3---=;;;4464346-=---333---3-3--33333433633--=347--33-444y44774777y4-434344478yu29<1",
"1,2+&77444366433--&&-&=-&----------33;443;-333---;;=;3;;3343---&--34433--3--33334447433---4733347--4744474747773-=334447yy8u99,2",
"2,1@-4444y6-333--&--=&-=&-&&----3-34;;;4;;-=----=-4;;-3----3---&3--33-43333-3-33444443333744443433747443774447777-333447887u99<2",
"1,9%$--3744433---===&--&&&-&&--3=3334-443-3-3-----=3;3--3--=--3-&-43------3---3334444433333334433-464744747777774-&347477yyy99<2",
">,1$--=3344363---====&&&&&&&&--334433=64=3==3-=---=43-&$=$33-333----3--3---333443444444463344333334477444747y7=3=4=-347yyy7u2912",
",,<%-43=43363-----==&=&-&&&-&-=--;-3=-3;===-=;===-3;==--3-3-3733------4------34444447443344433--33444y44443=44334434447;y7yy9912",
"1,,%=-=434334-----=-=&--&&&&&&33=----=33;;;====-====;--33-3--3443---------=&-3343447y4434444433--434477774344473333444=4;77y9812",
"211&=333444468--=&--&3&&&&-&&$----=---=-=4-=-$=-===;-3-3---643--33-------3---3344447443444443333--444744477;3=477=44444-437y22,2",
"2,<%=4-344y6444-&&&=-----&-=$$-3-$&$--;=;3;-===-=====------3-3--3363-333-3-3--443444474744444433333344477y777-4;7-3--433344729,2",
"1<9%=3374u3464--&&&&=-&=&---33---====3==-;==$==-====;4-33-33---&&-333-3-=3==--4437447474344747===333334yyyy;74;744334-34444719,2",
"1<9%37677763743--&3&&&&----3--33==-36=;-=;=-======3;-;;3--3---&-&=---33==33-3444477777734337763=4--3344y7y4444;344-443--444819<2",
"1<9&337636;8y4--&&&&&&------------3-3-;=;;-==-===;4;4;33--3---&=-&-3333--3-3y74444y7774333474434=---3344yyyy774yy4334334444719,2",
"1,2&64466334434-&&&&&&&&&--3----3--33-=-3;3==--=3;4;633333---=-&&--333--3-34474447744444347y744333&3443477yy7y77444-4--4447y21<2",
"<,2%3344y734643-33-&&&-----====-3=33;-==&-&=66--3;4468;-333--3-&-3334-3----34444447443333444444433334444447yy7=434443334474729,2",
"1,2%-4466446643---&-3-----===&=333=-=--=--3----3-;;44433--34---333-333-&---3747447773433434434446333774444477743343-7344447y29<2",
"1,2%-446633464---&--=-----&$=$==33-;=---===----=-3;;-33333-333--------------7y4y7744433334333334377777444444747=37-4343437489912",
"1,2%3467663333---=-----33----&&===----3-3=-------33;;33-33333--63---3-------37y46443443343337333334474y444444773=-=3474443-y9912",
"1<2&3646633643--3-=-=-----3--=$=-&=-==--------;--;;;33----4333=3--------&&--34433333443344343-334344444444444y774-377y77474u9922",
"1<9&666664344-----&&&----3-33----=-===-===---------33---333333-=3-------*---33-433344334333333333373444444447y7747y777y7y3789812",
"219&4y674433--33----4-----3-------=-$&33=---&---=--3--3;33343---&---&--*&&-4333333444433434733333344y7444447yyy44yyyyy7yy7-89911",
"219&46443343---33-----3--&---&&----===3-=&==--&--34---3;3-334-3-------&&-&--3--33344474334344333333347y44447y7y74y77777y77789911",
"119&3674643----3---------&--3&--3---$-&=====-&&&--3--333334;3-----=3--&&&&&---333443474447764344433344777747yyyy777777477yyy291<",
"1<9&-477733-3----&---33-&4--3-4----=$==--=-=---&----3-36633433---------&-&----3-334447444434333333334444-3347yy777y74747778u99>,",
"219&-333646-----3-&3&-&-&--3-3-33--==&-3----&&-=-;43;3467446------------------33344477744444433333333334333447y7;7774478434u22<2",
"1<2&-3333----------=&---&-&33-33=--43----------33447466444343-3&---3---&-----33333447777774743433433==43433337477y344447444y22<1",
"2<2@-3337-------&-&&--3&=&----3-4;=&-3-3-4-----3-;4744;3;4334----------------433737747774777744344---34=3433-773437733=74;4729>,",
"112%334333-33---=-&&--------=--=-=-------3-4---6847743364;----&--------------3-343474777777yyy4744334443333=-7u3--==3338773u29<<",
"2<2%-33333-333----&--=-=&&-3----$3-=--3---=-33---7464;334333----&3-----------3334444477777777yu44433444444334y743-3-34;774=y99,1",
"2<9&333333=363----&&-&-&&--3--3--;33---3---3-==--;43;67643----3--33-3--3*----3-3434337477774yy74444-444-3-4347y33344377;;;y79899",
"1<9&333333334----3&&=-&&&&-----=;=---=33-;;;-=&=--3-343333--3----3---3-3-----3-3334444477747774434434444;34444u74=;3=33;7;;t2212",
"1<9%-434333-=---3&&&=--&&&--3----==-3=-;;;3-==-&------333-3333-3----3---3----4344334347777447333334347433-3343yy7=7433=-y7;72912",
"1,2%-444643633-3--&-=--=&&&-663======-;4;;;3-&-&=----33334=3---3---3----3---343333534477777744=-=33347443=-=447-4744-3-7y47729<2",
"1,2%-36474433-333--3---&&&-&==3--3--==;;;;43---&----=&-333-----334-3-3--7--433334434444777774433333374334-3-34y;3734-4-3y;782912",
"1,2%3646443333--3----&=&$&&&-=3=3-3-;;;;4;;----=---3=&-333-33----3-3334--47---3474744447777433--333343444747474;-73433377;7y29<2",
"2,2%-4464-343-----&&--&&&&$&-=&--4---;47;;3-----==33-=--==-3-----3--3---yy---344447744444444433333-3333447yy747;434744777;682912",
"2<2%3346-3-3------=&&&&&&&=&$===-33=;4;44---=$-&------3-;-----&-----=--4334--33444337733443-443333---3347yyyy4;;344777y477782912",
"219&3343-----3--&=&&=&&&&&$&&=---3333;44;-3-&$$&--3-----3;3---&------3333333333443344437444=3433333334337yyyy7744447444477682912",
"219%-333-3---3--3-&&&&&&&&&$----3;33;6;4;---&&-----3-333443-3-------3--33333-33344444434347334333333443337y7y7y7;4y74477y8789912",
"219%33433--3----&&&-&&&&&&&==-=3-4;=-3;;4--&&&------;674464333-33---4-333333--333433444774$44-33333344433447yuy7yyy7447yy78y2919",
"219%-333-33-------&&&&&&-&&=&-&3-4;=33;;;3--&-&---;7474y6;446-------3---3-33-3334343447477344344444337447747yyyuyyyyyy7y8y8u9922",
"2,2%-33333-3----&-&--&&&&=-$--&-3;;-;;64;3-&&&&====4;;;66y4643-33---3-3--34--3333334777744334444444447447y77yyyyywyyyyyy777y9829",
"2,2%-336333---------==&&&&-&&&-=33;--=344---&-&--;;443444;6643-----333--3-3--3333333477774333444444444777yy7yyyyyyyyyyyy777y9819",
"2,2&34363-------3--&=$$&&--&&&&$3-4=-3;=-;-3---3-36;;3476644633--3-3---3----333344344777444434444444444777yyyyyuuyyy7y77y6789929",
"1,2&34343--=----3--==&$&&&&&&====-3==--34---33----33-334744443-4---33--------343434447774447444774434777447yyy7yy77747yyy7671912",
"1>2&&-=63-$-3433---=$$&&&&&-&-3=3;===--3--&&-=-3-463----777443-33--3---------3343443647744747474y744447444477y7y74774y77y74y9912",
"1:2&-=---3--33333----&-&&&-&&3-=4====63;-==-===----7873344664-33-3333---3----3337443337777y7444744444443-44747777477474777y82919",
"1:1&--33--33-333--==&---&&-&&----;3;=3;7;-----=------368y34333-33-3-3--------3334434437y747yy767744474433774744777444y44477y2912",
"<<9&--33333-3-333-&---&&&&-&=---33;3;44;;3---=&$--3-333334y73--3--3--------4-3333343447y74477777446444433444473344744444477y29<2",
"1<2&=3-3343-3333=&-=--&&&--&----34-3-4;44--=&===---3-3-33333374333-3--=-----43333334444y7y774747474444433447474444444447447u29<2",
"119&33343333--3-&&&-&&&&-&-&--3-3;;==;44;--=$$&&------333334----634344&------333333447yy777y4444y4344433364444444437747447482912",
",29%34443333---=&$&&&&&&&&&--343-674-348;--=&=&&&---3--333--3-----664--------3343333444yy77y744447434443434773474444444744482922",
"1<2&343444433----&&&&-&&&&----3-;;46-;;3;--=&&&&3=----33633--------3-----33--34444347447y78y6447443444434444777444474777447y9012",
"1,9&3474333-7----&---&&&&&-6-33-;4;--==;43-=&&&=8--3--3333-3-------&--&&---743334444444yyy7777777443-44434474744744744y777689812",
"1<9&-343333-33-----&-&=&=-3-333347743====;--&&&&-----33-33-3--&--------------333434477yyy77y777444433347444774444437444y7y7898<2",
"219&334473333-3&-----=&&&=--3-337;76=44;;3-3-&-33=-833-4733-3------=-----333-33347447767y7yy7743443333444y4447444474447yyy7819,2",
"1<9-674446433---&&&==---&=--3-3--43;;;;;;;;---&-=3;3--3343-33------------434433334447377yy78747443-33344477774;=744474yy786719,2",
"2,9&46433343---&=&-&&=-3------3--4;644;;4;-3----3-=--333-3-3--------------3344347y44777yy74777444-&-333447y77437744747yy777t<912",
"1,9&64743-33-&-&=&&&-&&=&-----3--64;4;34-333---=&---3-3363--3-------------344633474444777777474433-3333447y7;-=4447747y7777y29,2",
"1<9&3466733--3--&&&&&&&&&&==--3--3-6;4433--;-==----3-3333333---------------3444774477747747774433343333444447477344777y7777829,2",
"2<9&33643-44-=&&&-&&&&&&&%-==&----3-373-==-3==&&==-3-3-3----3------&--------33447447744433777444444434-37444747747yy47y777772912",
"1<9%-3----3=--=%&&%%%$$&%&&&&&&&=-3===-==$===-&$$&==--==-3--==&=&&&&&--&&&&&--3344333333443743333-33----33444347wu474477344429<2",
"2:2o$oooooooooooOoXXXoXXOoooooooo$ooooooooooooooooooooooooooooOoooooooooooXooo$$$#$$$#$$o$$$$$$$$$$o$oooo#$$$$$==$=$$$$$$$$$,8,1",
"1:21111112<1<1111<,,<<<<<111111<111111<<111111111111111111111<1111<1111111,1<122221112222222<222111111112122229222222121121112:2",
"<,,1121111111<,,,,,>,,,,,,,<,<<<<<<<<1<>,<,,11<<<<<<<<<<<<111<<<<<<<<,><<:><<1<22111111122221111<111<11111229022222222229211<<1<",
"q90qqqqqqq0qqq000999999990900000009200009990000808000000qq90q0q0900000091000000qqqqqqqqqqqqqqqqq0qqqqq0qqqqr0qqqeeeeeeeeqqqqq029",
"919q0qqqqqq9009992221222299999999999000009q9999999990090000999999999992<<2999000qq0qqqqqqqqqqqq000qqqq09qeee0qqeeeeqqeeq0q009820",
"1191eghdgfrffrregffsssasferfffffggggggsdferrfrffgsssddddgggggfrffssggrr80rfrfrfrghdsdddjgfrfgfgrgdddhdhhhggfgggrgddddjhgghh019<2",
"2<919908u9199<1<,167ty14y3<121199909yyuy629<12122967y8y08q99991112221-7y6222221910uyyuwiu799912226y00uyiiw22000298uuuuwqq99019<2",
"2,9227997992211,1,-4<13777->1,222996tyyy766<<111<1290099999922<11127-347673<<,,1224yyyyyuy021121116777uuuy719229117uuyu0009922<2",
"1<916777y792<2,,1<>11--777t-<119999967t9633,,<<1<1298799899221<<29<3-75647t3<1<0<1<4uuyuyyu4111<<,<5iy7yuiuw10111216yyy00yqq19<2",
"2,9<2yy7t7692,,,1,<,-73-7477-<199921247324--3:<<<2129766989922<1221,-43427t76919111<6uuuyyyy6,,<<<1<3yyyyqwu721212126yy7y79y1912",
"2<9<127tt99966<<111>>--%t7-77229922224732-133&:,1<1299829992921111<,><3&-377y-,90929<6uuuyy8u21,<2,<,27yyyyuu712191226u7uyuy19<2",
"1,911137t977775<1<,>>,*,443477529221212y4<1253&::<999969986229212,,:,:*-4774-3620092210uuuuy7722<1<<,,688wquuu0<11<1228yyyyu22<2",
"1<2,>,,38yy7ttt31,>>,<,>777;7772920,191633,21-3&,><229926y7427t62<,>,::-774434y729211<08uuyyuuy2,1,<11<6uuuuuuu411211210uyu819,2",
"2<2,1<<92y7yyt771,>><<<1257yy728992<12<11--13347->11292,-77y7774,>,1:>:,-7y-7y7y999<<<227yyyuy7y3<1921<18uuyyuuy901921117uuu19,2",
"1<9,><<2157297tt7-,,,,>,1152726e922,2<1<1--4447473121,,11176y7736<<,2<,<>-36777yy8,<21<126uuuy77y912<2<114uyyuuuy611111216uu19<2",
"1<9<2,92111224477y3<<1,>,12727y4269212,<2,597t7t7731,1<<<,777t744-&:>,,<<1-6tt7yy8211<<2<2quyy97y891<112217yuyy8yy311111228u29<2",
"112<<,,1,9,14777747-,1:>,,124yt7776312<22,,27tt47675119<,122446177y3>,,,<<,167yyyy961212<116yy7y7yy921212916uuuuyyy71191110829<2",
"219<3<,,2211-y717747111:>:,234446t7t22,,912,5743227y9,22,2113-3364465,,>,,,,677yuyyy61<1<,<,6yy777y76,<<9q<<6uyuuyyy992110222912",
"1,9276,>>,>>>&43-3-43->::>:,2,41444772>,1>>>:*13752463>,,1,:>-34--;3;-:::::>:-77ttyyy6,<>,<,>-777477751,11,1267yyy7yy222922,12,1",
"2:1:><1,>::..:.::::.:...::... .  .:>:,:::::.::::::::::::>>: ..::.:..:  . .. ..::::>,,,,::::::::::::::::>>>,,,,,,,>,,,>,<,,<>,9:<",
"<>12211222121<111111<<1211<1,11<,11111211111111121221121<,,,,112<<11,:,1,,1<,<1<2<22212121112111111121111222222222222222212212:1"
};
