/* XPM */
static char *_643879346686[] = {
/* columns rows colors chars-per-pixel */
"82 79 28 1 ",
"  c #313131",
". c #343434",
"X c #353535",
"o c #3A3A3A",
"O c #3E3E3E",
"+ c gray25",
"@ c #404041",
"# c #727375",
"$ c #737375",
"% c #8B8A83",
"& c #8D8C85",
"* c #8E8C85",
"= c #8E8D85",
"- c #8F8E85",
"; c #908F86",
": c #928F88",
"> c #929089",
", c #92918A",
"< c #93928B",
"1 c #95948B",
"2 c #96948B",
"3 c #96948C",
"4 c #97968D",
"5 c #98978E",
"6 c #9A9890",
"7 c #9A9990",
"8 c #BEBEBF",
"9 c None",
/* pixels */
"----222->,7%5<>>232--:->,537;<;222->>7%5<>;252--:->,355;>33>3>1>>->5;>->7-,-5;5;;-",
"3$$$###$$#$$$$###$#$$$$$######$$$$$$##$#$$######$$$$$$####$#####$$##$$$$##$$#$$$#2",
"2$888888888888888888888888888888888888888888888888888888888888888888888888888888$2",
"2$8@@@@@@@@@@@@@@@@@@@@@@@@@@@@@@@@@@@@@@@@@@@@@@@@@@@@@@@@@@@@@@@@@@@@@@@@@@@@8$2",
"-$8@@@@+++++@++++++++@@@@@+++++++++@@@@+@++++++@@@@+++++++++@++++++++++@@@@@@+@8$-",
">$8@@OOOOOOOOOOOO+OOOOOOOOOOOOOOOOO+OOOOO+OOOOO+OOOOOOOOOO+++OOOOOOOOOO+OOOOO+@8$>",
",$8@+OooooOooooooooooooooooOoooOoooooooooooooooooooOoooOooooooooooooooooooOOO+@8$>",
"7$8@+Oo...XX....XXXXX.............XXX...XXX...............XXX.....o.......ooO+@8#7",
"%#8@+OOX                        .                                          oO+@8#%",
"5#8@+OoX 9999999999999999999999999999999999999999999999999999999999999999..oO+@8$5",
"<$8@+Oo. 9999999999999999999999999999999999999999999999999999999999999999 .oO+@8#3",
">#8@+Oo. 9999999999999999999999999999999999999999999999999999999999999999 .oO+@8#>",
";#8@+Oo. 9999999999999999999999999999999999999999999999999999999999999999 .oO+@8#;",
"2#8@+Oo. 9999999999999999999999999999999999999999999999999999999999999999 .oO+@8#3",
"5#8@+OO. 9999999999999999999999999999999999999999999999999999999999999999 .OO+@8#3",
"2#8@+Oo. 9999999999999999999999999999999999999999999999999999999999999999 .oO+@8#3",
"-$8@@Oo. 9999999999999999999999999999999999999999999999999999999999999999 .OO+@8$%",
"%$8@@Oo. 9999999999999999999999999999999999999999999999999999999999999999 .oO+@8$-",
">#8@+Oo. 9999999999999999999999999999999999999999999999999999999999999999 .oO+@8$>",
">#8@+OOX 9999999999999999999999999999999999999999999999999999999999999999 .oO+@8$,",
"2#8@+Oo. 9999999999999999999999999999999999999999999999999999999999999999 .oO@@8$,",
";#8@+Oo. 9999999999999999999999999999999999999999999999999999999999999999 .oO@@8$>",
",#8@+Oo. 9999999999999999999999999999999999999999999999999999999999999999 .oO+@8#,",
"<$8@+OO. 9999999999999999999999999999999999999999999999999999999999999999 ooO+@8#,",
">#8@+Oo..9999999999999999999999999999999999999999999999999999999999999999 .oO+@8$,",
"-#8@+Oo. 9999999999999999999999999999999999999999999999999999999999999999 .oO+@8$>",
",$8@+OoX 9999999999999999999999999999999999999999999999999999999999999999 .oO+@8$,",
"7$8@++oX 9999999999999999999999999999999999999999999999999999999999999999 .oO+@8$3",
"-$8@@OoX 9999999999999999999999999999999999999999999999999999999999999999 .OO+@8#-",
":$8@@OoX 9999999999999999999999999999999999999999999999999999999999999999 .oO+@8#>",
"-$8@@Oo. 9999999999999999999999999999999999999999999999999999999999999999 .oO@@8#;",
"<$8@+Oo. 9999999999999999999999999999999999999999999999999999999999999999 .oO@@8$3",
"2$8@++oX 9999999999999999999999999999999999999999999999999999999999999999 .oO+@8#2",
"2$8@++oX 9999999999999999999999999999999999999999999999999999999999999999 .oO+@8#2",
"&$8@+Oo. 9999999999999999999999999999999999999999999999999999999999999999 .OO+@8$-",
">$8++Oo. 9999999999999999999999999999999999999999999999999999999999999999 .oO+@8$>",
">#8@+Oo. 9999999999999999999999999999999999999999999999999999999999999999 .OO@@8#>",
"7#8@+Oo. 9999999999999999999999999999999999999999999999999999999999999999 .oO+@8$7",
"-$8@++o. 9999999999999999999999999999999999999999999999999999999999999999 .oO+@8$%",
"3#8@@+o. 9999999999999999999999999999999999999999999999999999999999999999 .oO+@8$5",
"<#8@@Oo. 9999999999999999999999999999999999999999999999999999999999999999 .oO+@8$3",
">#8@@+o. 9999999999999999999999999999999999999999999999999999999999999999..oO+@8#>",
";#8@++o. 9999999999999999999999999999999999999999999999999999999999999999 .oO+@8#;",
"3#8@++oX 9999999999999999999999999999999999999999999999999999999999999999 .oO+@8#3",
"3$8@+Oo. 9999999999999999999999999999999999999999999999999999999999999999 .oO+@8#3",
"1$8@+Oo. 9999999999999999999999999999999999999999999999999999999999999999 .oO+@8#3",
"&#8+++o. 9999999999999999999999999999999999999999999999999999999999999999 .OO+@8#-",
"-#8+++o. 9999999999999999999999999999999999999999999999999999999999999999 .oO+@8#-",
">$8@+Oo. 9999999999999999999999999999999999999999999999999999999999999999 .oO+@8$>",
"-$8@+Oo. 9999999999999999999999999999999999999999999999999999999999999999 .oO+@8$;",
">$8@++oX 9999999999999999999999999999999999999999999999999999999999999999 .OO+@8$>",
">$8@@+oX 9999999999999999999999999999999999999999999999999999999999999999 .oO+@8#2",
"5#8@@OoX 9999999999999999999999999999999999999999999999999999999999999999 XOO+@8#5",
"5#8@@Oo. 9999999999999999999999999999999999999999999999999999999999999999 .oO+@8#5",
"5#8@+Oo. 9999999999999999999999999999999999999999999999999999999999999999 .oO+@8$5",
";#8@+Oo. 9999999999999999999999999999999999999999999999999999999999999999 .oO+@8$;",
">$8@++oX 9999999999999999999999999999999999999999999999999999999999999999 XoO+@8$>",
"2$8@++oX 9999999999999999999999999999999999999999999999999999999999999999.XoO+@8#3",
"2#8@+Oo. 9999999999999999999999999999999999999999999999999999999999999999 .oO+@8#3",
">#8++Oo. 9999999999999999999999999999999999999999999999999999999999999999 .oO+@8#>",
"3#8@+Oo. 9999999999999999999999999999999999999999999999999999999999999999 .oO+@8#2",
">#8@+Oo. 9999999999999999999999999999999999999999999999999999999999999999 .oO+@8#>",
"1#8@++o. 9999999999999999999999999999999999999999999999999999999999999999 .OO+@8#>",
">#8@@+o. 9999999999999999999999999999999999999999999999999999999999999999 .o+@@8#<",
">#8@@Oo. 9999999999999999999999999999999999999999999999999999999999999999 .o+@@8#>",
"-#8@@+o. 9999999999999999999999999999999999999999999999999999999999999999 .oO+@8$-",
">#8@++o. 9999999999999999999999999999999999999999999999999999999999999999 XoO+@8$>",
"5#8@+@o. 9999999999999999999999999999999999999999999999999999999999999999.XoO+@8$3",
"-$8@+Oo. 9999999999999999999999999999999999999999999999999999999999999999 .oO+@8$;",
"-$8@+Oo. 9999999999999999999999999999999999999999999999999999999999999999 XoO+@8#;",
"$$8@++o. 9999999999999999999999999999999999999999999999999999999999999999 .oO+@8#$",
"888@++o. 9999999999999999999999999999999999999999999999999999999999999999 .oO+@888",
"@@@@+Oo..9999999999999999999999999999999999999999999999999999999999999999 .oO+@@@@",
"++++@Oo. 9999999999999999999999999999999999999999999999999999999999999999 .oO@++@@",
"OOOO+OoX 9999999999999999999999999999999999999999999999999999999999999999 .OOOO+OO",
"ooooooo. 9999999999999999999999999999999999999999999999999999999999999999 .ooooooo",
"....XX.. 9999999999999999999999999999999999999999999999999999999999999999 ...X....",
"     .   9999999999999999999999999999999999999999999999999999999999999999    .    ",
"........ 9999999999999999999999999999999999999999999999999999999999999999 ........"
};
