/* XPM */
static char *_643879311650[] = {
/* columns rows colors chars-per-pixel */
"82 79 92 1 ",
"  c #1D1108",
". c #351F0C",
"X c #37200C",
"o c #3D250E",
"O c #333333",
"+ c #3D3936",
"@ c #3C3C3C",
"# c #452A10",
"$ c #4C2E12",
"% c #502F14",
"& c #543214",
"* c #5A3616",
"= c #5E3817",
"- c #5B3718",
"; c #5E3918",
": c #603917",
"> c #643C19",
", c #693F1A",
"< c #6D411A",
"1 c #74451C",
"2 c #78471C",
"3 c #7C491D",
"4 c #46433D",
"5 c #50473C",
"6 c #404041",
"7 c #454840",
"8 c #4E4C49",
"9 c #524D45",
"0 c #534D4C",
"q c #525246",
"w c #54524B",
"e c #59554D",
"r c #5A5A4E",
"t c #565551",
"y c #5A5652",
"u c #545850",
"i c #5D5A55",
"p c #5F5D59",
"a c #615D56",
"s c #625E5A",
"d c #5F6057",
"f c #5E615B",
"g c #636057",
"h c #64625C",
"j c #69645E",
"k c #65685D",
"l c #6A695E",
"z c #666561",
"x c #6A6662",
"c c #676861",
"v c #6C6A65",
"b c #6F6768",
"n c #6E6D69",
"m c #716E65",
"M c #716D6A",
"N c #6F7267",
"B c #6F726B",
"V c #727166",
"C c #73726C",
"Z c #74786C",
"A c #79796E",
"S c #726E70",
"D c #737375",
"F c #797573",
"G c #767873",
"H c #7A7A74",
"J c #7F7B78",
"K c #824A1E",
"L c #84501F",
"P c #865120",
"I c #8D5522",
"U c #965622",
"Y c #935923",
"T c #9C5B23",
"R c #A25E25",
"E c #A86126",
"W c #807F7D",
"Q c #82807D",
"! c #858281",
"~ c #8E8D85",
"^ c #908F86",
"/ c #928F88",
"( c #94938B",
") c #98978E",
"_ c #9A9990",
"` c #BEBEBF",
"' c #DCDCDF",
"] c #DFDFE2",
"[ c #E3E3E6",
"{ c #E6E6E9",
"} c #EAEAED",
"| c #F6F6F7",
/* pixels */
"~~~^)()~/(_~)///()(~~/~(()))~(~()(~((_~)((/()(~~/~(()()/(((((((((~^)~(~(_~(~)~_~^~",
")DDDDDDDDDDDDDDDDDDDDDDDDDDDDDDDDDDDDDDDDDDDDDDDDDDDDDDDDDDDDDDDDDDDDDDDDDDDDDDDD)",
"(D``````````````````````````````````````````````````````````````````````````````D(",
"(D`6666666666666666666666666666666666666666666666666666666666666666666666666666`D(",
"~D`66666666666666666666666666666666@6666666666666666666666666666666666666666666`D~",
"(D`666@@@6@@6@6@6@@@@@@6@6@66@6@6@@@@6@@@66@@6@@@6@66@6@@6@6@@@6@66@@6@@@@@@666`D(",
"(D`66@@@@@@@@@@@@@@@@@++@@@@@@@@@@@@@@@@@@@@@@@@@@@@@@@@@@@@@@@@6@@@@+@@@@6@@66`D(",
"_D`66@@OOOOOOOOO+OOOOOOOOOOOOOOOOO@OOOOOOOOOOOOOOOOOOOOOOOOOOOOOOOOOOOOOOO@@666`D_",
"~D`666@OOOOOOOOOOOOOOOOOOOOOOOOOOOOOOOOOOOOOOOOOOOOOOOOOOOOOOOOOOOOOOOOOOOO@666`D~",
")D`66@@OO[[[]{{}}}{}[][[][[[][}[][[]]{][}][]}[]]]}}}[}}}[][[][[][[}[['[[]OO@@66`D)",
"(D`66@@OO[[][[}}}}}[[[[[[[[[{[[[][}]{][{}][}[[{]]]}}}}}{[[[[[[][{[[[][{[[OO@666`D(",
"/D`666@OO{[[[}[[}}}[[[[[[[{}[[[[}[[{[[[]{[}}}}[[[}[[}}}[[[[[[[{}[[[[}[[[]OO@@66`D/",
"~D`666@OO|}[[[{[[[}}}[[[}[[}[]'{{}][]{[[]{{}}|}{[[}[[[}}}[[[}[[}[]'}{}[[]OOO@66`D~",
"(D`66@@OO}{}[[}}}{[}}}}[{[}}''[[{}]]][[{]}}}}}]}[[}}}}[}}}}[}[}}''[[[}'[[OO@666`D(",
")D`66@@OO][[[}}[}}}}}}}[[{}}[[[[}}{]{]{]{[}}}{[{[}}]}}}}}}}][}}}[[[[}}{][OO@@66`D)",
"(D`66@@OO}}}[[[{}}}}[{}[[[}}|}[[}{}}[{]}[[{]}}}}[[[}}}}}[[}[[[}}|}[[}{{}[OO@666`D(",
"~D`666@OO&&&*****&&&****&*&&**%**&&&*&*****&*&%&%---:%&&******&&&*&**%%&*OO+@66`D~",
"~D`66@@OOKKKKKKKKKKKKKKKKKKKKKKKKKKKKKKKKKKKKKKK3P33KKKKKKKKKKKKKKKKKKKKKOO+666`D~",
"(D`666@OOXX##.#.#.#.#.o#oooo#oooX#XXX##o#ooo#o#ooooo#..##.#.#oooooo##oooXOO+@66`D/",
"(D`66@@OO                                                                OO@666`D(",
"(D`666@OOUUUUUUUUTUUUUUUUUUUUUUUUUUUUUUUUUUUUUUUUUUUUUUUUUUUUUUUUUUUUUUUUOO@666`D(",
"~D`66@@OO,,,,,1<,,,,,,$#%#-1,,1<,<<<<,<<%#$#-1,,<<,,,,,,,,%#$#:,1,,,1<<<,OOO@66`D/",
"(D`666@OO........X....:&:...............:%*.........o.....>&:............OO@666`D(",
"(D`66@@OO$$&$:$-$*$$$&2:2X&$$&$-$:$&$$$%2>3.&$%&%-$-%*$$$:,>2.&$$&$-$*$&$OO+@66`D(",
"(D`66@@OO$$&$>%;$:*$>%P>PX-$$*$>$:$:*$,$P>PX*$$&$>$:$:*$>$L>L.&%$-$>%:$:%OO@@66`D(",
"~D`666@OO&--$:-**:*$>*Y>Po:*--$:***:*$,*Y>Po:-*-%:--*:*%,*U>L#>*--$:---:-OO@666`D~",
"(D`66@@OO-,-%<>>,,,:,;T2IX,;<;%<,,>,>=>=E2Io>:,-&<>>,<,->>T2L.,*<-%<,,><>OO6@66`D/",
")D`66@@OO,3>:1>:,1,:21R3Y#:,3:;1::,K<>3<R3Uo>,3>><:>,<,:K,R3U#>,3-><::,3>OOO666`D)",
"~D`666@OO-3::<,:,,,:,,T2Yo::3:-<,;<<,:<<T3Yo::2:;<>-,<>;<<R2U#*:3::<,:,<>OO@666`D~",
"/D`666@OO-,:&<>>,,>:,:T2Io>:,-&<,>><>=>=E2Io,-<;&<>>,<>;>*T2Io>*<*&<>>><>OO@@66`D~",
"~D`666@OO&*-$>--*>*&,*U<PX>***%:***:*$,*U,PX:-**$:;-*:-%,-U,LX>**-$:-*->&OO@666`D~",
"(D`66@@OO$$&$>$;$:&$>$K,P.&%%&%,$=$=*$,$P>Po&$$-$,$;$;*$>$P,Lo&%%&$,$:$:&OO@666`D)",
"(D`66@@OO$$&$*$*$&$#$&2>2.&$$&$*$*$&$$$&2:2X&$$&$-$-$&$$$&2>2X&$$&$*$-$&$OO+666`D(",
"(D`666@OO.....XX......*%:........X......;%;X..............:%=...XX...X...OO@@66`D(",
"~D`64@@OO,<<<<<<<<1,1,$#%#*1,,,1<<<<<<<<$#&#-<<<,1<<<<<<<<%#%#*<<<<<<<<<,OO@666`D~",
"(D`666@OOUUUUUUUUUUUUUUUUUUUUUUUUUUUUUUUUUUUUUUUUUUUUUUUUUUUUUUUUUUUUUUUUOO@@66`D(",
"(D`66@@OO                                                                OO@666`D(",
"_D`66@@OO                                                                OO@666`D)",
"~D`666+OO#.Xoooooo#oooo#ooooo#ooooooooooooooooooooooooooooooo#ooooooooooXOOO@66`D~",
"(D`6@@+OOKKKKKKKKKKKKKKKKKKKKKKKKKKKKKKKKLKKKKK3KKKKKKKKKKKKKKKKKKKKKKKKKOO+666`D)",
"(D`666@OOiyjhCCxxsrjzcncsbxcxACsihaaajjeyNZdGiyjgCCznprzhvvcjxxvjACsihaaiOO+666`D(",
"(D`666@OOgusvjNjssyifjNfsymMjnnxhmnjphhpzCkfCgthnjmcppypfjnhsivmjnNjhmMjiOO@@66`D^",
"~D`66@@OOsaWZhcnhppnsmnxjswyisChxCCwmzhzCjiehhaWVjvnhpsvgbMxjswiysChzMFwMOO@666`D^",
"(D`66@@OOMcHmmsicwMcWFsiznseseqizg9xrwizvvhsxMxHmNsicwMcJGhysnsesywyzs9xeOO@@66`D(",
"(D`66@@OOyjMCjihveju4stjgchwwysyvbzCCzfcyzzpzijMChikvtjw7zuhscgwwthyvbxCSOO@@66`D)",
"(D`666@OOfgzjjssvMvnGa9zfjceihihz7GsxizzDyjjwfgxjhhavMvnFiqjjhcyyzikz7HhzOOO666`D(",
"^D`666@OOwkkhiFyxbpssMMxvxnshzztvbhvzSz+cjmJfujkkaFyzbsssMbvmcnszzzyvvsbhOO6@66`D~",
"~D`66@@OOyhqvqzyzMhsxzxxsgnzhiwjnBHjsMsnvauMgthqvwstzChsbsxxssnxsi8znBFzsOO@666`D~",
"(D`66@@OOtwnyiZjwJcwCnMyyszznsisCMbpghifhvCftiwmiiZjqJvqDbbyasxznsisBBbpgOO+@66`D(",
"~D`666@OOBrhfvavwnnAjsamzMxanchsnuhzzgvVvswwCNyhgvavwnNAjsamsMxsvvhsnuhxzOO@666`D~",
"(D`66@@OOcznzxvzSBixjiexxnChnyimnpMnbikqkj5ewccMzzvjSBixcyyxxnNjnyibnpCnvOO@@66`D~",
"(D`666@OOzhZMvMFvfvvt0sxavCnvxinGnSvzvzSxjkqnchVMvMFvfvvu0sxavCnvximFnnxzOO@666`D(",
")D`666@OOzvxhibCMpbhviyihhjjnixcMgfsMjCNHjmvvxvxhabCCibsviyphsjjmizmCspsnOO@666`D)",
")D`66@@OObssaiiyinFbssrjhvMvcsjhxDizsvbnCZCjMxasaiiiinGbsgejhvvncsjszDpzpOO@@66`D)",
")D`66@@OOexssslitsxzvxsxxvFFhusHnnnvszjpxDpiaibssszitszzvxsxcnFFjusFnNNvpOO@666`D_",
"~D`666@OOszCiisvvvxCxCvswvapjHMbhhnJvCwnzhi0MzhNiisvbvxSxCvaqvpszHMvhhvJbOOO@66`D~",
"(D`66@@OOzz9hyyxzssFjCVeiiDCHDCzejGrjkyixshelxx9hyyzjssGlCmyifCCHDCzehHyzOO@666`D(",
"(D`666@OOhGicvnyihjjMMMbtwjzvxzhyyhhgvzviFsxgjGixbmuahhhMMMbtwzzvjxhtyskpOO@@66`D(",
"(D`666@OOCCgigiyycngbzWxfhfgzxHshijhizvsixhscCFgyfiiyxNgbxQvihphzxFszijhpOO@666`D(",
"(D`66@@OOMxzttcjicjnsF!snCnzhpxDfFCCvstijzshxCcjyuvhibjvpD!snCnzhpbGfHBCzOO@@66`D(",
"(D`66@@OOpJhfvxaasGnhv8cjMCChvhJzvainfxjijhxspJhsvxaasFnhv8vxMCCsvzGzxsivOO@@66`D(",
"^D`666@OOnCiachMjssxcCGazvDCjtsbiyabxjiyahsFfnCaichMzssvcCCazvCCxesbpyavzOO@666`D/",
"(D`66@@OOingmvsMFshisyvhyhvvxjszzpsszgsiiizvjpMgvmsMCszisychehnnxxazxppspOO@@66`D(",
"(D`66@@OOhvGbvlszGsjynishihhsk0zsMxvxdjAG9sNgjcGbvlszFshiniszihhsk0zsnxvxOO@666`D(",
"(D`66@@OOvzHCzqiiissi6w0qisaiyljMsaxMasvntyhpncHMzqsiissi6ewwissaemsMaabnOO@@@6`D(",
"~D`666@OOhsM0zfxGszzNchvjxhhaalxysashaggiaeejhhM9xfjDssvNcsvjjshsaljaaassOO@@66`D~",
"(D`66@@OOitjgCCvvsyjzvvvhxxvjAFaahsaahjeyVZaFitjhCCvvgezhvvvhxxvjACsahaaiOO@666`D(",
"(D`666@OOfisvjmjsftifjngsavMxbmjhnnzahhsjCcdChuhvjmjpfyihjvssivMjmnjsmMziOO@@66`D_",
"^D`66@@OOsaJCjcNhpgvpbmxjhqyysGhzMFwmzkzCziefjiJCjcNzppvsmMjjhwyisCjzSFebOO@666`D~",
"~D`666@OOMcHmNpivwMcWGsisnsese0yzs9xewihvvhscMvJnNpivwncWFsasnsesuqyza9jeOO@@66`D~",
"DD`66@@OOyzMCjijvezw4ztjhxswwegyvvxCCzfcyjzphijMCjijveze4zuhhxgw0isevbxMSOO@@66`DD",
"```666@OOghxhhhavnvnGi0jhjleijijz7HsxizfDyhcwfgcjghavnnvDiqcfjcyyhikz7HhxOO@666```",
"66666@@OOehhkiFyzbsssMbxvcNpzzztvvhxxnv+xhVHgehkkdDicbpziMbxvxnghzztvbhvzOO+@66666",
"666666@OOugwnqhezChhxsbbssnzfi0zMBHzsbznvsuBhysqvqhyzChgxzvxshnjhi0znCHjsOO@6@6666",
"@@6@6@@OOiuviyZxwHvwCMbyiajhnsisCnbpshissvCftiwnyiCjwJv9SMMtygcznsisDnvpiOO@@@6@6@",
"@@@@O@@@ONrhgbavwMMZhsamjCvpnzhhMuhzzsvVbhwwCBrhgvanwMnHjaabznvpnzzsnwjzsOO@@@@@@@",
"OOOOOOOOOzlMxzvznBivziexxnNjnyinvpCnMijqkj5rqccMxxvzbBizzyyzxmNjviinmpDbMOOOOOOOOO",
"OOOOOOOOOjhZDvMCvfvvy0sxsvCnvcinFMnvzvcMxjkwvjjZMvnFnfvvy0sxabCMnzivCnnvzOOOOOOOOO",
"OOOOOOOOOhczsibCCpxsviyighzjmixcSsfsnxCnFkmvvbczhibCNpxhviiassjjnijvCgfsnOOOOOOOOO"
};
